<svg xmlns="http://www.w3.org/2000/svg" xmlns:xlink="http://www.w3.org/1999/xlink" width="558.947" height="549.659" viewBox="0 0 558.947 549.659">
  <defs>
    <clipPath id="clip-path">
      <ellipse id="Elipse_4803" data-name="Elipse 4803" cx="101.277" cy="101.277" rx="101.277" ry="101.277" transform="translate(0 0)" fill="#472ea6" stroke="#707070" stroke-width="1"/>
    </clipPath>
  </defs>
  <g id="Grupo_97263" data-name="Grupo 97263" transform="translate(-520.526 -1310.796)">
    <g id="Enmascarar_grupo_119" data-name="Enmascarar grupo 119" transform="translate(699 1490)" clip-path="url(#clip-path)">
      <g id="Grupo_81494" data-name="Grupo 81494" transform="translate(-6.204 -1.858)">
        <rect id="Rectángulo_35865" data-name="Rectángulo 35865" width="208.564" height="206.269" transform="translate(0 0)" fill="#472ea6"/>
      </g>
    </g>
    <g id="Elipse_4801" data-name="Elipse 4801" transform="translate(692.974 1484.486)" fill="none" stroke="#707070" stroke-width="2" stroke-dasharray="2 3">
      <ellipse cx="107.064" cy="107.064" rx="107.064" ry="107.064" stroke="none"/>
      <ellipse cx="107.064" cy="107.064" rx="106.064" ry="106.064" fill="none"/>
    </g>
    <g id="Elipse_4775" data-name="Elipse 4775" transform="translate(671.517 1461.58)" fill="none" stroke="#472ea6" stroke-width="2" stroke-dasharray="2 3">
      <ellipse cx="128.838" cy="128.838" rx="128.838" ry="128.838" stroke="none"/>
      <ellipse cx="128.838" cy="128.838" rx="127.838" ry="127.838" fill="none"/>
    </g>
    <text id="Evaluación_de_proveedores" data-name="Evaluación de proveedores" transform="translate(742 1555)" fill="#fff" font-size="20" font-family="Roboto-Bold, Roboto" font-weight="700"><tspan x="-48.569" y="21">Evaluación </tspan><tspan x="-11.04" y="45">de </tspan><tspan x="-56.03" y="69">proveedores</tspan></text>
    <g id="Grupo_93635" data-name="Grupo 93635" transform="translate(0 -52)">
      <g id="Elipse_4790" data-name="Elipse 4790" transform="translate(656.627 1362.796)" fill="#f6f6f6" stroke="#472ea6" stroke-width="2" stroke-dasharray="2 3">
        <ellipse cx="56.079" cy="56.079" rx="56.079" ry="56.079" stroke="none"/>
        <ellipse cx="56.079" cy="56.079" rx="55.079" ry="55.079" fill="none"/>
      </g>
      <g id="Elipse_4791" data-name="Elipse 4791" transform="translate(662.04 1368.211)" fill="#9c86ec" stroke="#fff" stroke-width="3">
        <ellipse cx="50.665" cy="50.665" rx="50.665" ry="50.665" stroke="none"/>
        <ellipse cx="50.665" cy="50.665" rx="49.165" ry="49.165" fill="none"/>
      </g>
      <line id="Línea_1166" data-name="Línea 1166" x2="19" y2="47" transform="translate(737.5 1469.5)" fill="none" stroke="#472ea6" stroke-width="2" stroke-dasharray="2 3"/>
      <g id="Grupo_93617" data-name="Grupo 93617" transform="translate(-1987.196 2226.215)">
        <path id="Trazado_210332" data-name="Trazado 210332" d="M2730.265-826.771c1.335,1.256,2.76,2.43,3.99,3.781a25.279,25.279,0,0,1,6.785,17.042c.015.817.23,1.179,1.1,1.8h-54.312c1.381-.647,1.155-1.767,1.223-2.8a25.821,25.821,0,0,1,10.474-19.448,3.371,3.371,0,0,1,.3-.206.776.776,0,0,1,.19-.035c.089.949.184,1.892.263,2.836q.443,5.287.876,10.574c.019.224.03.449.061.672a1.729,1.729,0,0,0,1.871,1.553,1.71,1.71,0,0,0,1.548-1.874c-.136-1.9-.3-3.79-.461-5.685-.271-3.239-.54-6.478-.825-9.716a.6.6,0,0,1,.4-.711c.932-.4,1.854-.821,2.883-1.281.045.382.078.615.1.849q.7,8.311,1.4,16.623A1.744,1.744,0,0,0,2710.02-811a1.786,1.786,0,0,0,1.542-2.123q-.836-9.932-1.668-19.863a1.777,1.777,0,0,1,2-2.163q3.129,0,6.258,0a1.791,1.791,0,0,1,2.017,2.2q-.829,9.9-1.663,19.8a1.824,1.824,0,0,0,.936,1.964,1.529,1.529,0,0,0,1.87-.25,2.563,2.563,0,0,0,.6-1.344c.5-5.559.957-11.121,1.425-16.683.018-.219.047-.436.089-.821,1.106.5,2.126.951,3.125,1.441.113.055.165.352.151.53-.259,3.22-.532,6.438-.8,9.657-.158,1.895-.324,3.789-.468,5.684A1.732,1.732,0,0,0,2727-811a1.731,1.731,0,0,0,1.857-1.706q.577-6.722,1.135-13.445c.013-.156.037-.311.056-.467Z" transform="translate(-16.129)" fill="#472ea6"/>
        <path id="Trazado_210333" data-name="Trazado 210333" d="M2698.924-553.812h27.059c.184,0,.368,0,.552,0a1.766,1.766,0,0,1,1.786,1.389,1.7,1.7,0,0,1-1.052,1.94c-2.524,1.06-5.033,2.169-7.609,3.088a67.4,67.4,0,0,1-17.011,3.8,48.53,48.53,0,0,1-12.221-.6,77.844,77.844,0,0,1-19.713-6.195,1.81,1.81,0,0,1-1.237-2.013,1.814,1.814,0,0,1,2.019-1.407Z" transform="translate(0 -246.831)" fill="#472ea6"/>
      </g>
    </g>
    <g id="Grupo_93636" data-name="Grupo 93636" transform="translate(0 -52)">
      <g id="Elipse_5254" data-name="Elipse 5254" transform="translate(556.341 1457.499)" fill="#f6f6f6" stroke="#472ea6" stroke-width="2" stroke-dasharray="2 3">
        <ellipse cx="56.079" cy="56.079" rx="56.079" ry="56.079" stroke="none"/>
        <ellipse cx="56.079" cy="56.079" rx="55.079" ry="55.079" fill="none"/>
      </g>
      <g id="Elipse_5255" data-name="Elipse 5255" transform="translate(562 1463)" fill="#9c86ec" stroke="#fff" stroke-width="3">
        <ellipse cx="50.665" cy="50.665" rx="50.665" ry="50.665" stroke="none"/>
        <ellipse cx="50.665" cy="50.665" rx="49.165" ry="49.165" fill="none"/>
      </g>
      <line id="Línea_1168" data-name="Línea 1168" x2="30" y2="22" transform="translate(662.5 1542.5)" fill="none" stroke="#472ea6" stroke-width="2" stroke-dasharray="2 3"/>
      <g id="Grupo_93622" data-name="Grupo 93622" transform="translate(0.314 3.669)">
        <g id="Grupo_93618" data-name="Grupo 93618" transform="translate(-2072.756 2311.488)">
          <path id="Trazado_210332-2" data-name="Trazado 210332" d="M2709.857-830.8c.693.652,1.433,1.261,2.071,1.963a13.124,13.124,0,0,1,3.523,8.847c.008.424.119.612.569.935h-28.194c.717-.336.6-.917.635-1.456a13.405,13.405,0,0,1,5.438-10.1,1.732,1.732,0,0,1,.158-.107.4.4,0,0,1,.1-.018c.046.493.1.982.137,1.472q.23,2.745.455,5.489c.01.116.016.233.031.349a.9.9,0,0,0,.971.806.887.887,0,0,0,.8-.973c-.071-.984-.157-1.968-.24-2.951-.14-1.682-.28-3.363-.428-5.044a.31.31,0,0,1,.208-.369c.484-.207.962-.426,1.5-.665.023.2.041.319.051.441q.364,4.315.727,8.63a.9.9,0,0,0,.98.931.927.927,0,0,0,.8-1.1q-.434-5.156-.866-10.312a.923.923,0,0,1,1.036-1.123q1.624,0,3.249,0a.93.93,0,0,1,1.047,1.144q-.431,5.14-.864,10.28a.948.948,0,0,0,.486,1.019.794.794,0,0,0,.971-.13,1.329,1.329,0,0,0,.312-.7c.26-2.886.5-5.773.74-8.66.009-.113.024-.226.046-.426.574.261,1.1.494,1.622.748.059.029.086.183.078.275-.134,1.671-.276,3.342-.416,5.013-.082.984-.168,1.967-.243,2.951a.9.9,0,0,0,.816,1.023.9.9,0,0,0,.964-.885q.3-3.489.589-6.98c.007-.081.019-.162.029-.242Z" transform="translate(-17.214 0)" fill="#472ea6"/>
          <path id="Trazado_210333-2" data-name="Trazado 210333" d="M2684.747-553.812h14.047c.1,0,.191,0,.287,0a.917.917,0,0,1,.927.721.882.882,0,0,1-.546,1.007c-1.31.55-2.613,1.126-3.95,1.6a34.989,34.989,0,0,1-8.831,1.97,25.194,25.194,0,0,1-6.344-.311,40.408,40.408,0,0,1-10.234-3.216.94.94,0,0,1-.642-1.045.941.941,0,0,1,1.048-.731Z" transform="translate(0 -263.427)" fill="#472ea6"/>
        </g>
        <g id="Grupo_93619" data-name="Grupo 93619" transform="translate(-2072.756 2356.129)">
          <path id="Trazado_210332-3" data-name="Trazado 210332" d="M2709.857-830.8c.693.652,1.433,1.261,2.071,1.963a13.124,13.124,0,0,1,3.523,8.847c.008.424.119.612.569.935h-28.194c.717-.336.6-.917.635-1.456a13.405,13.405,0,0,1,5.438-10.1,1.732,1.732,0,0,1,.158-.107.4.4,0,0,1,.1-.018c.046.493.1.982.137,1.472q.23,2.745.455,5.489c.01.116.016.233.031.349a.9.9,0,0,0,.971.806.887.887,0,0,0,.8-.973c-.071-.984-.157-1.968-.24-2.951-.14-1.682-.28-3.363-.428-5.044a.31.31,0,0,1,.208-.369c.484-.207.962-.426,1.5-.665.023.2.041.319.051.441q.364,4.315.727,8.63a.9.9,0,0,0,.98.931.927.927,0,0,0,.8-1.1q-.434-5.156-.866-10.312a.923.923,0,0,1,1.036-1.123q1.624,0,3.249,0a.93.93,0,0,1,1.047,1.144q-.431,5.14-.864,10.28a.948.948,0,0,0,.486,1.019.794.794,0,0,0,.971-.13,1.329,1.329,0,0,0,.312-.7c.26-2.886.5-5.773.74-8.66.009-.113.024-.226.046-.426.574.261,1.1.494,1.622.748.059.029.086.183.078.275-.134,1.671-.276,3.342-.416,5.013-.082.984-.168,1.967-.243,2.951a.9.9,0,0,0,.816,1.023.9.9,0,0,0,.964-.885q.3-3.489.589-6.98c.007-.081.019-.162.029-.242Z" transform="translate(-17.214 0)" fill="#472ea6"/>
          <path id="Trazado_210333-3" data-name="Trazado 210333" d="M2684.747-553.812h14.047c.1,0,.191,0,.287,0a.917.917,0,0,1,.927.721.882.882,0,0,1-.546,1.007c-1.31.55-2.613,1.126-3.95,1.6a34.989,34.989,0,0,1-8.831,1.97,25.194,25.194,0,0,1-6.344-.311,40.408,40.408,0,0,1-10.234-3.216.94.94,0,0,1-.642-1.045.941.941,0,0,1,1.048-.731Z" transform="translate(0 -263.427)" fill="#472ea6"/>
        </g>
        <g id="Grupo_93620" data-name="Grupo 93620" transform="translate(-2097.756 2332.828)">
          <path id="Trazado_210332-4" data-name="Trazado 210332" d="M2709.857-830.8c.693.652,1.433,1.261,2.071,1.963a13.124,13.124,0,0,1,3.523,8.847c.008.424.119.612.569.935h-28.194c.717-.336.6-.917.635-1.456a13.405,13.405,0,0,1,5.438-10.1,1.732,1.732,0,0,1,.158-.107.4.4,0,0,1,.1-.018c.046.493.1.982.137,1.472q.23,2.745.455,5.489c.01.116.016.233.031.349a.9.9,0,0,0,.971.806.887.887,0,0,0,.8-.973c-.071-.984-.157-1.968-.24-2.951-.14-1.682-.28-3.363-.428-5.044a.31.31,0,0,1,.208-.369c.484-.207.962-.426,1.5-.665.023.2.041.319.051.441q.364,4.315.727,8.63a.9.9,0,0,0,.98.931.927.927,0,0,0,.8-1.1q-.434-5.156-.866-10.312a.923.923,0,0,1,1.036-1.123q1.624,0,3.249,0a.93.93,0,0,1,1.047,1.144q-.431,5.14-.864,10.28a.948.948,0,0,0,.486,1.019.794.794,0,0,0,.971-.13,1.329,1.329,0,0,0,.312-.7c.26-2.886.5-5.773.74-8.66.009-.113.024-.226.046-.426.574.261,1.1.494,1.622.748.059.029.086.183.078.275-.134,1.671-.276,3.342-.416,5.013-.082.984-.168,1.967-.243,2.951a.9.9,0,0,0,.816,1.023.9.9,0,0,0,.964-.885q.3-3.489.589-6.98c.007-.081.019-.162.029-.242Z" transform="translate(-17.214 0)" fill="#472ea6"/>
          <path id="Trazado_210333-4" data-name="Trazado 210333" d="M2684.747-553.812h14.047c.1,0,.191,0,.287,0a.917.917,0,0,1,.927.721.882.882,0,0,1-.546,1.007c-1.31.55-2.613,1.126-3.95,1.6a34.989,34.989,0,0,1-8.831,1.97,25.194,25.194,0,0,1-6.344-.311,40.408,40.408,0,0,1-10.234-3.216.94.94,0,0,1-.642-1.045.941.941,0,0,1,1.048-.731Z" transform="translate(0 -263.427)" fill="#472ea6"/>
        </g>
        <g id="Grupo_93621" data-name="Grupo 93621" transform="translate(-2048.028 2332.828)">
          <path id="Trazado_210332-5" data-name="Trazado 210332" d="M2709.857-830.8c.693.652,1.433,1.261,2.071,1.963a13.124,13.124,0,0,1,3.523,8.847c.008.424.119.612.569.935h-28.194c.717-.336.6-.917.635-1.456a13.405,13.405,0,0,1,5.438-10.1,1.732,1.732,0,0,1,.158-.107.4.4,0,0,1,.1-.018c.046.493.1.982.137,1.472q.23,2.745.455,5.489c.01.116.016.233.031.349a.9.9,0,0,0,.971.806.887.887,0,0,0,.8-.973c-.071-.984-.157-1.968-.24-2.951-.14-1.682-.28-3.363-.428-5.044a.31.31,0,0,1,.208-.369c.484-.207.962-.426,1.5-.665.023.2.041.319.051.441q.364,4.315.727,8.63a.9.9,0,0,0,.98.931.927.927,0,0,0,.8-1.1q-.434-5.156-.866-10.312a.923.923,0,0,1,1.036-1.123q1.624,0,3.249,0a.93.93,0,0,1,1.047,1.144q-.431,5.14-.864,10.28a.948.948,0,0,0,.486,1.019.794.794,0,0,0,.971-.13,1.329,1.329,0,0,0,.312-.7c.26-2.886.5-5.773.74-8.66.009-.113.024-.226.046-.426.574.261,1.1.494,1.622.748.059.029.086.183.078.275-.134,1.671-.276,3.342-.416,5.013-.082.984-.168,1.967-.243,2.951a.9.9,0,0,0,.816,1.023.9.9,0,0,0,.964-.885q.3-3.489.589-6.98c.007-.081.019-.162.029-.242Z" transform="translate(-17.214 0)" fill="#472ea6"/>
          <path id="Trazado_210333-5" data-name="Trazado 210333" d="M2684.747-553.812h14.047c.1,0,.191,0,.287,0a.917.917,0,0,1,.927.721.882.882,0,0,1-.546,1.007c-1.31.55-2.613,1.126-3.95,1.6a34.989,34.989,0,0,1-8.831,1.97,25.194,25.194,0,0,1-6.344-.311,40.408,40.408,0,0,1-10.234-3.216.94.94,0,0,1-.642-1.045.941.941,0,0,1,1.048-.731Z" transform="translate(0 -263.427)" fill="#472ea6"/>
        </g>
      </g>
    </g>
    <g id="Grupo_93637" data-name="Grupo 93637" transform="translate(0 -52)">
      <g id="Elipse_5260" data-name="Elipse 5260" transform="translate(520.526 1579.823)" fill="#f6f6f6" stroke="#472ea6" stroke-width="2" stroke-dasharray="2 3">
        <ellipse cx="56.079" cy="56.079" rx="56.079" ry="56.079" stroke="none"/>
        <ellipse cx="56.079" cy="56.079" rx="55.079" ry="55.079" fill="none"/>
      </g>
      <g id="Elipse_5261" data-name="Elipse 5261" transform="translate(525.941 1585.237)" fill="#9c86ec" stroke="#fff" stroke-width="3">
        <ellipse cx="50.665" cy="50.665" rx="50.665" ry="50.665" stroke="none"/>
        <ellipse cx="50.665" cy="50.665" rx="49.165" ry="49.165" fill="none"/>
      </g>
      <line id="Línea_1171" data-name="Línea 1171" x2="39" transform="translate(632.5 1635.5)" fill="none" stroke="#472ea6" stroke-width="2" stroke-dasharray="2 3"/>
      <g id="Grupo_93623" data-name="Grupo 93623" transform="translate(-1145.666 2250.111)">
        <path id="Trazado_210334" data-name="Trazado 210334" d="M1718.766-446.821q-11.39,0-22.78.005a1.981,1.981,0,0,1-1.844-.862,1.884,1.884,0,0,1,.121-2.184q3.9-6.21,7.772-12.436c1.856-2.972,3.723-5.937,5.559-8.921a2.274,2.274,0,0,1,2.132-1.183q20.931.024,41.861.006a4.224,4.224,0,0,1,4.036,2.22,4.22,4.22,0,0,1-.334,4.649q-5.85,8.811-11.676,17.639a2.251,2.251,0,0,1-2.066,1.075Q1730.156-446.835,1718.766-446.821Z" transform="translate(-0.051 -146.877)" fill="#472ea6"/>
        <path id="Trazado_210335" data-name="Trazado 210335" d="M1693.787-603.2v-.694q0-15.966,0-31.933c0-3.361,2.01-5.369,5.366-5.369q6.263,0,12.526,0a4.9,4.9,0,0,1,5.229,5.242c0,.665,0,1.329,0,2.064h.905q10.352,0,20.7,0a4.838,4.838,0,0,1,4.429,2.333,4.064,4.064,0,0,1,.663,1.869c.08,2.223.031,4.45.031,6.727h-3.612c0-.569,0-1.125,0-1.681a5.4,5.4,0,0,0-5.527-5.566q-15.739-.03-31.478,0a5.443,5.443,0,0,0-5.587,5.651c-.011,5.041,0,10.082-.018,15.122a2.472,2.472,0,0,1-.348,1.2c-1.023,1.705-2.092,3.383-3.144,5.07Z" transform="translate(0)" fill="#472ea6"/>
        <path id="Trazado_210336" data-name="Trazado 210336" d="M1785.244-524.868h-.847c-8.608,0-17.216.015-25.824-.01a5.7,5.7,0,0,0-5.311,2.967c-1.013,1.706-2.1,3.369-3.25,5.208-.039-.33-.072-.482-.072-.634q0-4.574,0-9.149a1.833,1.833,0,0,1,2-2.031q15.67-.008,31.34,0a1.814,1.814,0,0,1,1.964,1.993C1785.248-526.007,1785.244-525.489,1785.244-524.868Z" transform="translate(-48.859 -98.043)" fill="#472ea6"/>
      </g>
    </g>
    <g id="Grupo_93638" data-name="Grupo 93638" transform="translate(0 -52)">
      <g id="Elipse_5258" data-name="Elipse 5258" transform="translate(556.341 1703.249)" fill="#f6f6f6" stroke="#472ea6" stroke-width="2" stroke-dasharray="2 3">
        <ellipse cx="56.079" cy="56.079" rx="56.079" ry="56.079" stroke="none"/>
        <ellipse cx="56.079" cy="56.079" rx="55.079" ry="55.079" fill="none"/>
      </g>
      <g id="Elipse_5259" data-name="Elipse 5259" transform="translate(561.756 1708.663)" fill="#9c86ec" stroke="#fff" stroke-width="3">
        <ellipse cx="50.665" cy="50.665" rx="50.665" ry="50.665" stroke="none"/>
        <ellipse cx="50.665" cy="50.665" rx="49.165" ry="49.165" fill="none"/>
      </g>
      <line id="Línea_1170" data-name="Línea 1170" y1="21.163" x2="30" transform="translate(662.5 1714.5)" fill="none" stroke="#472ea6" stroke-width="2" stroke-dasharray="2 3"/>
      <g id="Grupo_93624" data-name="Grupo 93624" transform="translate(-1633.516 2240.652)">
        <path id="Trazado_210337" data-name="Trazado 210337" d="M2576.4-385.511q0-9.3,0-18.6c0-1.563.541-2.1,2.1-2.1q3.491,0,6.982,0c1.48,0,2.053.565,2.053,2.025q0,18.628,0,37.255c0,1.553-.551,2.1-2.1,2.1q-3.521,0-7.042,0c-1.392,0-1.99-.588-1.991-1.969Q2576.4-376.152,2576.4-385.511Z" transform="translate(-314.508 -93.36)" fill="#472ea6"/>
        <path id="Trazado_210338" data-name="Trazado 210338" d="M2244.777-496.495a4.551,4.551,0,0,1,3.647,1.862.732.732,0,0,0,.856.322q2.585-.566,5.179-1.089a.806.806,0,0,0,.749-.69,4.659,4.659,0,0,1,6.322-3.2.757.757,0,0,0,.948-.137q3.352-3.022,6.741-6a.766.766,0,0,0,.28-.925,4.7,4.7,0,0,1,2.84-5.678,4.756,4.756,0,0,1,6.056,2.488,4.744,4.744,0,0,1-1.984,6.045,4.586,4.586,0,0,1-4.272.238.765.765,0,0,0-.665.093q-3.508,3.073-6.97,6.2a.794.794,0,0,0-.191.655,4.753,4.753,0,0,1-2.526,5.706,4.743,4.743,0,0,1-5.828-1.446.859.859,0,0,0-.685-.266c-1.811.347-3.613.745-5.422,1.108a.65.65,0,0,0-.573.572,4.69,4.69,0,0,1-6.863,3.057.72.72,0,0,0-.909.03q-2.636,1.9-5.309,3.747a.722.722,0,0,0-.337.841,4.5,4.5,0,0,1-1.977,4.655,4.436,4.436,0,0,1-5,.229,4.458,4.458,0,0,1-2.417-4.383,4.733,4.733,0,0,1,7.1-3.864.789.789,0,0,0,.68-.006q2.8-1.927,5.555-3.919a.711.711,0,0,0,.21-.578A4.8,4.8,0,0,1,2244.777-496.495Z" transform="translate(-6.699)" fill="#472ea6"/>
        <path id="Trazado_210339" data-name="Trazado 210339" d="M2468.079-286.272q0,6.169,0,12.338c0,1.4-.578,1.968-1.975,1.97q-3.611,0-7.222,0c-1.309,0-1.9-.6-1.9-1.923q0-12.428,0-24.856c0-1.3.573-1.886,1.859-1.89q3.7-.012,7.4,0a1.6,1.6,0,0,1,1.838,1.845Q2468.084-292.531,2468.079-286.272Z" transform="translate(-209.461 -186.22)" fill="#472ea6"/>
        <path id="Trazado_210340" data-name="Trazado 210340" d="M2338.215-261.636q0-5.355,0-10.71c0-1.419.583-1.995,2.015-2q3.61,0,7.22,0c1.3,0,1.9.614,1.9,1.929q0,10.771,0,21.541c0,1.463-.58,2.038-2.046,2.039q-3.55,0-7.1,0c-1.385,0-1.989-.6-1.99-1.973Q2338.211-256.22,2338.215-261.636Z" transform="translate(-104.997 -209.352)" fill="#472ea6"/>
        <path id="Trazado_210341" data-name="Trazado 210341" d="M2229.951-187.206c0,2.024,0,4.048,0,6.072a1.644,1.644,0,0,1-1.851,1.852q-3.7.011-7.4,0a1.632,1.632,0,0,1-1.853-1.844q-.007-6.163,0-12.325a1.612,1.612,0,0,1,1.815-1.814q3.728-.011,7.455,0a1.632,1.632,0,0,1,1.828,1.868C2229.955-191.334,2229.951-189.27,2229.951-187.206Z" transform="translate(0 -278.905)" fill="#472ea6"/>
      </g>
    </g>
    <g id="Grupo_93639" data-name="Grupo 93639" transform="translate(0 -52)">
      <g id="Elipse_5256" data-name="Elipse 5256" transform="translate(656.627 1800.296)" fill="#f6f6f6" stroke="#472ea6" stroke-width="2" stroke-dasharray="2 3">
        <ellipse cx="56.079" cy="56.079" rx="56.079" ry="56.079" stroke="none"/>
        <ellipse cx="56.079" cy="56.079" rx="55.079" ry="55.079" fill="none"/>
      </g>
      <g id="Elipse_5257" data-name="Elipse 5257" transform="translate(662.04 1805.71)" fill="#9c86ec" stroke="#fff" stroke-width="3">
        <ellipse cx="50.665" cy="50.665" rx="50.665" ry="50.665" stroke="none"/>
        <ellipse cx="50.665" cy="50.665" rx="49.165" ry="49.165" fill="none"/>
      </g>
      <line id="Línea_1169" data-name="Línea 1169" y1="37.21" x2="19" transform="translate(737.5 1768.5)" fill="none" stroke="#472ea6" stroke-width="2" stroke-dasharray="2 3"/>
      <g id="Grupo_93625" data-name="Grupo 93625" transform="translate(-2563.744 2402.963)">
        <path id="Trazado_210342" data-name="Trazado 210342" d="M3267.391-377.824h12.977a4.82,4.82,0,0,1,4.718,2.823,5.669,5.669,0,0,1,.5,2.331c.039,6.507.032,13.014.017,19.522a4.955,4.955,0,0,1-5.163,5.174q-13.065.024-26.13,0a4.985,4.985,0,0,1-5.189-5.218q-.012-9.7,0-19.4a4.97,4.97,0,0,1,5.232-5.225C3258.7-377.834,3263.045-377.824,3267.391-377.824Zm-1.667,19.069c0,.806-.047,1.615.02,2.415a2.446,2.446,0,0,0,.434,1.177,1.511,1.511,0,0,0,1.763.446,1.691,1.691,0,0,0,1.094-1.66c.013-1.493.027-2.987-.009-4.479a.9.9,0,0,1,.595-.977,4.9,4.9,0,0,0,2.384-6.155,5.011,5.011,0,0,0-5.71-3.085,5.006,5.006,0,0,0-3.83,4.153,4.852,4.852,0,0,0,2.805,5.159.7.7,0,0,1,.462.767C3265.7-360.249,3265.723-359.5,3265.723-358.755Z" transform="translate(0 -174.607)" fill="#472ea6"/>
        <path id="Trazado_210343" data-name="Trazado 210343" d="M3317.615-555.779h-6.578c0-.245,0-.455,0-.666,0-2.083.035-4.167-.014-6.248a6.637,6.637,0,0,0-5.481-6.345,6.6,6.6,0,0,0-7.376,4.333,8.6,8.6,0,0,0-.389,2.485c-.055,1.9-.018,3.812-.017,5.718v.723H3291.2a.672.672,0,0,1-.07-.208c.013-2.495-.108-5,.071-7.483a13.208,13.208,0,0,1,19.419-10.727,12.659,12.659,0,0,1,6.992,10.9c.153,2.408.044,4.832.051,7.249A1.876,1.876,0,0,1,3317.615-555.779Z" transform="translate(-37.029)" fill="#472ea6"/>
        <path id="Trazado_210344" data-name="Trazado 210344" d="M3587-205.765v-3.326h2.02c.982,0,1.964.011,2.946,0a1.959,1.959,0,0,1,1.636.773c.784.957,1.6,1.89,2.382,2.846a.518.518,0,0,0,.732.2,4.913,4.913,0,0,1,6.626,2.47,5.076,5.076,0,0,1-2.559,6.641,4.572,4.572,0,0,1-4.984-.634,4.827,4.827,0,0,1-1.81-5.085,1.152,1.152,0,0,0-.275-1.16c-.685-.757-1.3-1.573-2-2.322a1.31,1.31,0,0,0-.835-.38C3589.608-205.788,3588.333-205.765,3587-205.765Z" transform="translate(-298.032 -323.44)" fill="#472ea6"/>
        <path id="Trazado_210345" data-name="Trazado 210345" d="M3587.026-392.853v-3.316c1.344,0,2.657.023,3.968-.017a1.586,1.586,0,0,0,.916-.372c.74-.643,1.422-1.354,2.147-2.016a.591.591,0,0,0,.163-.763,4.72,4.72,0,0,1,1.124-5.317,4.676,4.676,0,0,1,5.331-1.075,4.734,4.734,0,0,1,3.11,4.468,4.926,4.926,0,0,1-6.433,4.827.814.814,0,0,0-.979.209c-.914.918-1.872,1.794-2.8,2.7a2.233,2.233,0,0,1-1.692.676C3590.279-392.868,3588.67-392.853,3587.026-392.853Z" transform="translate(-298.056 -149.643)" fill="#472ea6"/>
        <path id="Trazado_210346" data-name="Trazado 210346" d="M3587.08-286.816v-3.326h.679c1.983,0,3.967-.007,5.95.005a.635.635,0,0,0,.682-.4,4.918,4.918,0,0,1,5.483-2.8,5.007,5.007,0,0,1,3.959,4.618,4.992,4.992,0,0,1-3.751,5.071,4.9,4.9,0,0,1-5.624-2.607.86.86,0,0,0-.941-.563c-1.924.021-3.849.009-5.774.009Z" transform="translate(-298.104 -249.041)" fill="#472ea6"/>
        <path id="Trazado_210347" data-name="Trazado 210347" d="M3393.24-291.842a1.662,1.662,0,0,1-1.658,1.635,1.627,1.627,0,0,1-1.65-1.629,1.658,1.658,0,0,1,1.673-1.676A1.7,1.7,0,0,1,3393.24-291.842Z" transform="translate(-124.207 -248.977)" fill="#472ea6"/>
      </g>
    </g>
    <g id="Grupo_93634" data-name="Grupo 93634" transform="translate(0 -52)">
      <g id="Elipse_5270" data-name="Elipse 5270" transform="translate(831.214 1362.796)" fill="#f6f6f6" stroke="#472ea6" stroke-width="2" stroke-dasharray="2 3">
        <ellipse cx="56.08" cy="56.08" rx="56.08" ry="56.08" stroke="none"/>
        <ellipse cx="56.08" cy="56.08" rx="55.08" ry="55.08" fill="none"/>
      </g>
      <g id="Elipse_5275" data-name="Elipse 5275" transform="translate(836.63 1368.211)" fill="#9c86ec" stroke="#fff" stroke-width="3">
        <ellipse cx="50.665" cy="50.665" rx="50.665" ry="50.665" stroke="none"/>
        <ellipse cx="50.665" cy="50.665" rx="49.165" ry="49.165" fill="none"/>
      </g>
      <line id="Línea_1176" data-name="Línea 1176" x1="19" y2="47" transform="translate(843.5 1469.5)" fill="none" stroke="#472ea6" stroke-width="2" stroke-dasharray="2 3"/>
      <g id="Grupo_93626" data-name="Grupo 93626" transform="translate(-2959.79 1814.68)">
        <path id="Trazado_210348" data-name="Trazado 210348" d="M3997.353-407.451h.708q6.876,0,13.752,0a6.511,6.511,0,0,1,4.57,1.664,5.86,5.86,0,0,1,.8,7.888c-.116.159-.235.315-.349.468a5.469,5.469,0,0,1-1.23,8.542,19.026,19.026,0,0,1,.285,3,4.971,4.971,0,0,1-2.5,4.024.455.455,0,0,0-.233.663,5.4,5.4,0,0,1-5.146,7.379c-4.3.032-8.608.009-12.911.009-3,0-6.006.007-9.008,0a15.934,15.934,0,0,1-5.667-1.183.724.724,0,0,1-.53-.8c.013-8.207,0-16.415.03-24.622a3.085,3.085,0,0,1,.449-1.1c.516-1.128,1.038-2.254,1.558-3.38q2.477-5.368,4.946-10.74a2.613,2.613,0,0,0,.224-1.035c.019-2.422.026-4.844,0-7.266a1.6,1.6,0,0,1,.843-1.531,8.446,8.446,0,0,1,3.13-1.156,4.536,4.536,0,0,1,3.54,1,10.732,10.732,0,0,1,4.447,10.05,38.1,38.1,0,0,1-1.586,7.319c-.057.191-.113.384-.158.578A.809.809,0,0,0,3997.353-407.451Z" transform="translate(-140.733 0)" fill="#472ea6"/>
        <path id="Trazado_210349" data-name="Trazado 210349" d="M3836.777-226.634v.7q0,14.287.013,28.574a1.11,1.11,0,0,1-.65,1.135,6.121,6.121,0,0,1-2.92.794c-2.421,0-4.843.029-7.264-.005a5.983,5.983,0,0,1-6-6.058q-.022-9.545,0-19.089a5.983,5.983,0,0,1,6.042-6.076c3.422-.023,6.844-.006,10.265-.006C3836.4-226.662,3836.541-226.647,3836.777-226.634Z" transform="translate(0 -175.984)" fill="#472ea6"/>
      </g>
    </g>
    <g id="Grupo_93633" data-name="Grupo 93633" transform="translate(0 -52)">
      <g id="Elipse_5271" data-name="Elipse 5271" transform="translate(931.5 1457.499)" fill="#f6f6f6" stroke="#472ea6" stroke-width="2" stroke-dasharray="2 3">
        <ellipse cx="56.08" cy="56.08" rx="56.08" ry="56.08" stroke="none"/>
        <ellipse cx="56.08" cy="56.08" rx="55.08" ry="55.08" fill="none"/>
      </g>
      <g id="Elipse_5273" data-name="Elipse 5273" transform="translate(936.913 1462.913)" fill="#9c86ec" stroke="#fff" stroke-width="3">
        <ellipse cx="50.665" cy="50.665" rx="50.665" ry="50.665" stroke="none"/>
        <ellipse cx="50.665" cy="50.665" rx="49.165" ry="49.165" fill="none"/>
      </g>
      <line id="Línea_1172" data-name="Línea 1172" x1="30" y2="22" transform="translate(907.5 1542.5)" fill="none" stroke="#472ea6" stroke-width="2" stroke-dasharray="2 3"/>
      <path id="Trazado_210350" data-name="Trazado 210350" d="M3875.254-937.023c2.155,4.953,3.854,10.022,4.05,15.683-1.243-.116-2.425-.136-3.57-.348-4.271-.791-7.383-3.317-9.815-6.777a34.287,34.287,0,0,1-5.277-12.793c-.685-3.224-1.058-6.516-1.555-9.779a8.723,8.723,0,0,1-.007-1.2c1.483.146,2.939.263,4.389.438a50.5,50.5,0,0,1,12.741,3.114,23.6,23.6,0,0,1,9.4,6.26,14.244,14.244,0,0,1,3.609,10.317c-.087,1.818-.54,3.619-.8,5.431a1.6,1.6,0,0,0,.08.969,40.149,40.149,0,0,1,4.146,9.608c.041.138.106.269.2.511.35-.569.612-1.09.96-1.543.867-1.128,1.753-2.245,2.678-3.326a1.089,1.089,0,0,0,.311-1.088,13.956,13.956,0,0,1-.219-5.975,12.056,12.056,0,0,1,4.958-7.494,27.778,27.778,0,0,1,11.143-4.685c2.423-.515,4.9-.785,7.353-1.156.3-.045.6-.035,1.041-.057-.063.841-.107,1.645-.187,2.446a41.02,41.02,0,0,1-2.863,11.923,17.269,17.269,0,0,1-5.814,7.789,11.643,11.643,0,0,1-7.71,2.09c.461-4.769,2.946-8.516,5.624-12.242-.562.463-1.144.9-1.683,1.392a46.754,46.754,0,0,0-9.309,12.211c-.976,1.752-1.891,3.543-2.731,5.363a17.233,17.233,0,0,0-1.277,9.478,73.267,73.267,0,0,1,.259,7.832,2.524,2.524,0,0,1-1.767,2.473,2.642,2.642,0,0,1-2.933-.613,3.071,3.071,0,0,1-.87-2.3c-.086-2.634-.124-5.271-.3-7.9a56.9,56.9,0,0,0-3.246-16.6,75.7,75.7,0,0,0-7.337-14.336c-1.138-1.755-2.336-3.47-3.507-5.2Z" transform="translate(-2901.488 2439.435)" fill="#472ea6"/>
    </g>
    <g id="Grupo_93632" data-name="Grupo 93632" transform="translate(0 -52)">
      <g id="Elipse_5272" data-name="Elipse 5272" transform="translate(967.314 1579.823)" fill="#f6f6f6" stroke="#472ea6" stroke-width="2" stroke-dasharray="2 3">
        <ellipse cx="56.08" cy="56.08" rx="56.08" ry="56.08" stroke="none"/>
        <ellipse cx="56.08" cy="56.08" rx="55.08" ry="55.08" fill="none"/>
      </g>
      <g id="Elipse_5274" data-name="Elipse 5274" transform="translate(972.728 1585.237)" fill="#9c86ec" stroke="#fff" stroke-width="3">
        <ellipse cx="50.665" cy="50.665" rx="50.665" ry="50.665" stroke="none"/>
        <ellipse cx="50.665" cy="50.665" rx="49.165" ry="49.165" fill="none"/>
      </g>
      <line id="Línea_1173" data-name="Línea 1173" x1="39" transform="translate(928.5 1635.5)" fill="none" stroke="#472ea6" stroke-width="2" stroke-dasharray="2 3"/>
      <g id="Grupo_93627" data-name="Grupo 93627" transform="translate(-3717.96 2522.793)">
        <path id="Trazado_210351" data-name="Trazado 210351" d="M4742.553-897.035c.157-6.607,7.434-16.891,13.593-19.188.117.244.243.492.356.745q2.909,6.5,5.812,13.006a2.13,2.13,0,0,0,1.451,1.367,1.882,1.882,0,0,0,2-.635,1.953,1.953,0,0,0,.293-2.2q-1.639-3.658-3.268-7.321-1.739-3.888-3.484-7.773-1.187-2.653,1.652-3.349a30,30,0,0,1,14.874.058c1.645.424,2.193,1.589,1.49,3.166q-3.365,7.551-6.743,15.1a2.048,2.048,0,0,0,.6,2.673,2,2,0,0,0,3.019-.961c1.292-2.846,2.557-5.7,3.833-8.557q1.183-2.643,2.366-5.278c5.468,1.292,13.4,12.432,13.628,19.153Z" transform="translate(-26.934)" fill="#472ea6"/>
        <path id="Trazado_210352" data-name="Trazado 210352" d="M4754.522-615.279c-.508.532-1.1,1.185-1.728,1.8a2.034,2.034,0,0,1-3.153,0q-2.722-2.7-5.417-5.42a2.008,2.008,0,0,1-.014-3.094c.5-.514,1-1.029,1.521-1.516a.624.624,0,0,0,.163-.856c-.562-1.235-1.088-2.49-1.568-3.759-.156-.41-.338-.56-.764-.545-.787.027-1.577.03-2.363,0a1.918,1.918,0,0,1-1.91-1.788c-.055-1.809-.016-3.621-.016-5.525.7.148,1.342.3,1.987.415,3.167.58,6.333,1.162,9.5,1.716.495.086.71.244.775.786a14.077,14.077,0,0,0,13.865,12.487,14.084,14.084,0,0,0,13.99-12.433c.054-.435.12-.723.655-.819,3.756-.674,7.5-1.386,11.256-2.085.091-.017.185-.021.335-.037,0,1.9.062,3.783-.026,5.655a1.853,1.853,0,0,1-1.9,1.628c-.763.029-1.528.029-2.291,0a.716.716,0,0,0-.824.563c-.471,1.273-1.011,2.521-1.567,3.76a.589.589,0,0,0,.139.8q.858.811,1.665,1.676a1.954,1.954,0,0,1,0,2.83q-2.8,2.867-5.666,5.677a1.99,1.99,0,0,1-2.894.015c-.561-.518-1.1-1.062-1.619-1.621a.614.614,0,0,0-.85-.171c-1.254.576-2.531,1.108-3.82,1.6a.634.634,0,0,0-.5.722c.025.763.016,1.528,0,2.292a2.011,2.011,0,0,1-2.143,2.159q-3.9.016-7.806,0a2,2,0,0,1-2.116-2.111c-.014-.812.021-1.625-.021-2.434a.769.769,0,0,0-.37-.565C4757.6-614.083,4756.132-614.646,4754.522-615.279Z" transform="translate(-24.113 -246.165)" fill="#472ea6"/>
        <path id="Trazado_210353" data-name="Trazado 210353" d="M4741.333-711.4h27.7c1.869,0,2.553.679,2.556,2.532,0,.382,0,.764,0,1.145a2.081,2.081,0,0,1-1.807,2.368,127.3,127.3,0,0,1-18.474,3.456c-11.47,1.314-22.759.14-33.958-2.368-1.488-.333-2.968-.706-4.442-1.1a2.063,2.063,0,0,1-1.783-2.313c0-.6-.019-1.194.008-1.789a1.977,1.977,0,0,1,1.926-1.927c.262-.015.525-.008.787-.008Z" transform="translate(0 -181.552)" fill="#472ea6"/>
      </g>
    </g>
    <g id="Grupo_93631" data-name="Grupo 93631" transform="translate(0 -52)">
      <g id="Elipse_5277" data-name="Elipse 5277" transform="translate(931.5 1703.249)" fill="#f6f6f6" stroke="#472ea6" stroke-width="2" stroke-dasharray="2 3">
        <ellipse cx="56.08" cy="56.08" rx="56.08" ry="56.08" stroke="none"/>
        <ellipse cx="56.08" cy="56.08" rx="55.08" ry="55.08" fill="none"/>
      </g>
      <g id="Elipse_5278" data-name="Elipse 5278" transform="translate(936.913 1708.663)" fill="#9c86ec" stroke="#fff" stroke-width="3">
        <ellipse cx="50.665" cy="50.665" rx="50.665" ry="50.665" stroke="none"/>
        <ellipse cx="50.665" cy="50.665" rx="49.165" ry="49.165" fill="none"/>
      </g>
      <line id="Línea_1174" data-name="Línea 1174" x1="30" y1="21.163" transform="translate(907.5 1714.5)" fill="none" stroke="#472ea6" stroke-width="2" stroke-dasharray="2 3"/>
      <g id="Grupo_93628" data-name="Grupo 93628" transform="translate(-4386.12 2899.463)">
        <path id="Trazado_210354" data-name="Trazado 210354" d="M5385.595-1149.268v-2.81q0-6.752,0-13.5a6.458,6.458,0,0,1,6.791-6.793q7.876,0,15.751,0a6.42,6.42,0,0,1,6.747,6.7q.012,17.88,0,35.759c0,.125,0,.25-.005.375a1.729,1.729,0,0,1-1.736,1.695,1.762,1.762,0,0,1-1.771-1.67c-.017-.228-.008-.458-.008-.687q0-17.629,0-35.259c0-2.289-1.12-3.4-3.42-3.4q-7.782,0-15.564,0a2.986,2.986,0,0,0-3.277,3.246q0,7.908,0,15.816v.726c.61-.609,1.1-1.1,1.593-1.591a1.781,1.781,0,0,1,1.765-.544,1.708,1.708,0,0,1,.9,2.816c-1.572,1.666-3.208,3.274-4.853,4.87a1.658,1.658,0,0,1-2.332-.012q-2.443-2.374-4.816-4.819a1.714,1.714,0,0,1,.04-2.385,1.746,1.746,0,0,1,2.434-.07c.562.515,1.05,1.109,1.571,1.669Z" transform="translate(-32.559)" fill="#472ea6"/>
        <path id="Trazado_210355" data-name="Trazado 210355" d="M5347.854-784.927a9.23,9.23,0,0,0,3.658,2.74,8.71,8.71,0,0,0,9.807-2.3c.351-.4.571-.388.961-.091a8.725,8.725,0,0,1,3.639,7.062c.018.77.014,1.541,0,2.311a1.747,1.747,0,0,1-1.831,1.859q-9.305.011-18.611,0a1.673,1.673,0,0,1-1.787-1.567,25.244,25.244,0,0,1,.258-4.593A8.186,8.186,0,0,1,5347.854-784.927Z" transform="translate(0 -339.021)" fill="#472ea6"/>
        <path id="Trazado_210356" data-name="Trazado 210356" d="M5649.4-784.306a27.078,27.078,0,0,0,2.072,1.758,8.668,8.668,0,0,0,11.4-1.341c.377-.42.615-.455,1.053-.117a8.8,8.8,0,0,1,3.606,7.083c.019.77.015,1.541,0,2.311a1.752,1.752,0,0,1-1.817,1.813q-9.306.011-18.612,0a1.67,1.67,0,0,1-1.793-1.488,13.542,13.542,0,0,1,.6-5.914,8.974,8.974,0,0,1,3.167-3.934A2.375,2.375,0,0,1,5649.4-784.306Z" transform="translate(-263.87 -339.564)" fill="#472ea6"/>
        <path id="Trazado_210357" data-name="Trazado 210357" d="M5524.388-1097.388v3.5h-2.163c-.521,0-1.042-.006-1.562,0a2.916,2.916,0,0,0-3.018,3.049q-.011,9.25,0,18.5c0,2.729.007,5.458,0,8.187a1.78,1.78,0,0,1-2.04,1.889,1.7,1.7,0,0,1-1.468-1.691c-.007-9.146-.043-18.292.029-27.437a6.283,6.283,0,0,1,5.967-5.984C5521.518-1097.445,5522.916-1097.388,5524.388-1097.388Z" transform="translate(-149.121 -65.597)" fill="#472ea6"/>
        <path id="Trazado_210358" data-name="Trazado 210358" d="M5689.854-1083.675c.474-.5.935-1.005,1.425-1.485a1.791,1.791,0,0,1,2.574-.1,1.769,1.769,0,0,1-.071,2.57q-2.235,2.272-4.507,4.507a1.755,1.755,0,0,1-2.7-.017q-2.245-2.218-4.464-4.462a1.755,1.755,0,0,1-.131-2.567,1.793,1.793,0,0,1,2.619.085c.486.478.935.993,1.522,1.623.034-.367.06-.52.061-.673,0-2.208.006-4.417,0-6.625a2.974,2.974,0,0,0-3.172-3.162c-.56,0-1.12,0-1.718,0v-3.46c2.8-.276,5.317.158,7.12,2.552a6.236,6.236,0,0,1,1.277,3.782c.018,2.25.007,4.5.008,6.75q0,.3,0,.607Z" transform="translate(-295.397 -65.504)" fill="#472ea6"/>
        <path id="Trazado_210359" data-name="Trazado 210359" d="M5395.664-859.786a5.244,5.244,0,0,1-5.254-5.3,5.246,5.246,0,0,1,5.272-5.224,5.238,5.238,0,0,1,5.252,5.242A5.229,5.229,0,0,1,5395.664-859.786Z" transform="translate(-40.878 -264.306)" fill="#472ea6"/>
        <path id="Trazado_210360" data-name="Trazado 210360" d="M5692.347-865.049a5.239,5.239,0,0,1,5.292-5.266,5.246,5.246,0,0,1,5.234,5.263,5.244,5.244,0,0,1-5.293,5.265A5.237,5.237,0,0,1,5692.347-865.049Z" transform="translate(-305.075 -264.306)" fill="#472ea6"/>
      </g>
    </g>
    <g id="Grupo_93630" data-name="Grupo 93630" transform="translate(0 -52)">
      <g id="Elipse_5279" data-name="Elipse 5279" transform="translate(831.214 1800.296)" fill="#f6f6f6" stroke="#472ea6" stroke-width="2" stroke-dasharray="2 3">
        <ellipse cx="56.08" cy="56.08" rx="56.08" ry="56.08" stroke="none"/>
        <ellipse cx="56.08" cy="56.08" rx="55.08" ry="55.08" fill="none"/>
      </g>
      <g id="Elipse_5280" data-name="Elipse 5280" transform="translate(836.63 1805.71)" fill="#9c86ec" stroke="#fff" stroke-width="3">
        <ellipse cx="50.665" cy="50.665" rx="50.665" ry="50.665" stroke="none"/>
        <ellipse cx="50.665" cy="50.665" rx="49.165" ry="49.165" fill="none"/>
      </g>
      <line id="Línea_1175" data-name="Línea 1175" x1="19" y1="37.21" transform="translate(843.5 1768.5)" fill="none" stroke="#472ea6" stroke-width="2" stroke-dasharray="2 3"/>
      <g id="Grupo_93629" data-name="Grupo 93629" transform="translate(-3917.834 3332.861)">
        <path id="Trazado_210361" data-name="Trazado 210361" d="M4829.636-1470.359l-2.647,2.759c-.2-.187-.366-.325-.516-.475q-10.017-10.017-20.032-20.037c-2.925-2.931-3.784-6.553-3.442-10.551a22.074,22.074,0,0,1,1.6-6.208c.125-.319.3-.378.614-.419a3.072,3.072,0,0,1,2.762,1.109q23.843,23.928,47.747,47.795a5.083,5.083,0,0,1,.531,7.057,5.093,5.093,0,0,1-7.687.121q-8.073-9-16.124-18.024C4831.535-1468.244,4830.626-1469.255,4829.636-1470.359Z" transform="translate(-23.449)" fill="#472ea6"/>
        <path id="Trazado_210362" data-name="Trazado 210362" d="M5048.749-1503.981l2.341,2.341-9.057,9.016,2.429,2.411,8.968-9,2.423,2.434-9.046,9,2.382,2.369,9-9.057,2.417,2.492a2.249,2.249,0,0,1-.2.239q-5.758,5.768-11.52,11.53a8.345,8.345,0,0,1-5.256,2.522,3.555,3.555,0,0,0-1.064.168c-.635.272-1.015.015-1.448-.426q-3.33-3.389-6.716-6.723a.809.809,0,0,1-.237-.948,6.847,6.847,0,0,0,.228-1.361,8.182,8.182,0,0,1,2.389-5.068q5.87-5.91,11.779-11.781C5048.612-1503.88,5048.679-1503.924,5048.749-1503.981Z" transform="translate(-226.806 -1.177)" fill="#472ea6"/>
        <path id="Trazado_210363" data-name="Trazado 210363" d="M4793.864-1230.858l7.145,7.166c-.091.1-.233.259-.384.41q-7.74,7.742-15.482,15.482a5.113,5.113,0,0,1-7.111.451,5.011,5.011,0,0,1-.708-6.874c.989-1.179,2.119-2.242,3.209-3.335q6.478-6.5,12.971-12.976C4793.628-1230.658,4793.766-1230.769,4793.864-1230.858Z" transform="translate(0 -241.438)" fill="#472ea6"/>
      </g>
    </g>
  </g>
</svg>
