<svg xmlns="http://www.w3.org/2000/svg" xmlns:xlink="http://www.w3.org/1999/xlink" width="335.885" height="172.89" viewBox="0 0 335.885 172.89">
  <defs>
    <linearGradient id="linear-gradient" x1="0.417" y1="0.345" x2="0.561" y2="1.479" gradientUnits="objectBoundingBox">
      <stop offset="0" stop-color="#555859"/>
      <stop offset="0.116" stop-color="#5f6162"/>
      <stop offset="0.313" stop-color="#7a7c7d"/>
      <stop offset="0.568" stop-color="#a5a7a8"/>
      <stop offset="0.868" stop-color="#e2e2e2"/>
      <stop offset="1" stop-color="#fff"/>
    </linearGradient>
  </defs>
  <g id="Grupo_97277" data-name="Grupo 97277" transform="translate(-930 -1819.204)">
    <path id="Trazado_213023" data-name="Trazado 213023" d="M282.013,406.47l82.262-46.329,82.26,46.329,0,113.347H282.013Z" transform="translate(735.872 1459.063)" fill="#227482" fill-rule="evenodd"/>
    <rect id="Rectángulo_40448" data-name="Rectángulo 40448" width="116.138" height="76.976" transform="translate(1042.079 1894.981)" fill="#154d57"/>
    <rect id="Rectángulo_40449" data-name="Rectángulo 40449" width="109.118" height="72.322" transform="translate(1045.589 1897.308)" fill="#2f3a3b"/>
    <path id="Trazado_213024" data-name="Trazado 213024" d="M304.334,388.132l31.966-10.87,31.966,10.87h0v11.758H304.33V388.133h0Z" transform="translate(763.848 1480.527)" fill="#3ca2ab" fill-rule="evenodd"/>
    <path id="Trazado_213025" data-name="Trazado 213025" d="M303.091,387.773l34.764-11.822,34.764,11.82.007,16.561H303.089l0-16.559Zm36.58-8.25v22.011h30.155V389.777h0l-30.151-10.254Zm-3.63,22.011V379.523L305.89,389.777h0v11.757Z" transform="translate(762.292 1478.884)" fill="#f4f4f4" fill-rule="evenodd"/>
    <rect id="Rectángulo_40450" data-name="Rectángulo 40450" width="69.536" height="3.756" transform="translate(1065.38 1883.215)" fill="#124b57" opacity="0.3" style="mix-blend-mode: multiply;isolation: isolate"/>
    <g id="Grupo_97035" data-name="Grupo 97035" transform="translate(1045.589 1922.005)">
      <g id="Grupo_97029" data-name="Grupo 97029">
        <g id="Grupo_97027" data-name="Grupo 97027" transform="translate(20.524)">
          <rect id="Rectángulo_40451" data-name="Rectángulo 40451" width="19.188" height="16.282" transform="translate(0.473 0.254)" fill="#847c58"/>
          <rect id="Rectángulo_40452" data-name="Rectángulo 40452" width="19.221" height="3.59" transform="translate(0.473 0.255)" fill="#a49360"/>
          <rect id="Rectángulo_40453" data-name="Rectángulo 40453" width="20.137" height="2.883" fill="#c6b579"/>
        </g>
        <g id="Grupo_97028" data-name="Grupo 97028">
          <rect id="Rectángulo_40454" data-name="Rectángulo 40454" width="19.191" height="16.282" transform="translate(0.473 0.254)" fill="#847c58"/>
          <rect id="Rectángulo_40455" data-name="Rectángulo 40455" width="19.223" height="3.59" transform="translate(0.473 0.255)" fill="#a49360"/>
          <rect id="Rectángulo_40456" data-name="Rectángulo 40456" width="20.139" height="2.883" fill="#c6b579"/>
        </g>
      </g>
      <g id="Grupo_97032" data-name="Grupo 97032" transform="translate(0 15.702)">
        <g id="Grupo_97030" data-name="Grupo 97030" transform="translate(20.524)">
          <rect id="Rectángulo_40457" data-name="Rectángulo 40457" width="19.188" height="16.281" transform="translate(0.473 0.255)" fill="#847c58"/>
          <rect id="Rectángulo_40458" data-name="Rectángulo 40458" width="19.221" height="3.589" transform="translate(0.473 0.256)" fill="#a49360"/>
          <rect id="Rectángulo_40459" data-name="Rectángulo 40459" width="20.137" height="2.884" fill="#c6b579"/>
        </g>
        <g id="Grupo_97031" data-name="Grupo 97031">
          <rect id="Rectángulo_40460" data-name="Rectángulo 40460" width="19.191" height="16.281" transform="translate(0.473 0.255)" fill="#847c58"/>
          <rect id="Rectángulo_40461" data-name="Rectángulo 40461" width="19.223" height="3.589" transform="translate(0.473 0.256)" fill="#a49360"/>
          <rect id="Rectángulo_40462" data-name="Rectángulo 40462" width="20.139" height="2.884" fill="#c6b579"/>
        </g>
      </g>
      <g id="Grupo_97033" data-name="Grupo 97033" transform="translate(20.524 31.089)">
        <rect id="Rectángulo_40463" data-name="Rectángulo 40463" width="19.188" height="16.281" transform="translate(0.473 0.255)" fill="#847c58"/>
        <rect id="Rectángulo_40464" data-name="Rectángulo 40464" width="19.221" height="3.59" transform="translate(0.473 0.256)" fill="#a49360"/>
        <rect id="Rectángulo_40465" data-name="Rectángulo 40465" width="20.137" height="2.884" fill="#c6b579"/>
      </g>
      <g id="Grupo_97034" data-name="Grupo 97034" transform="translate(0 31.089)">
        <rect id="Rectángulo_40466" data-name="Rectángulo 40466" width="19.191" height="16.281" transform="translate(0.473 0.255)" fill="#847c58"/>
        <rect id="Rectángulo_40467" data-name="Rectángulo 40467" width="19.223" height="3.59" transform="translate(0.473 0.256)" fill="#a49360"/>
        <rect id="Rectángulo_40468" data-name="Rectángulo 40468" width="20.139" height="2.884" fill="#c6b579"/>
      </g>
    </g>
    <g id="Grupo_97036" data-name="Grupo 97036" transform="translate(1045.589 1897.309)">
      <rect id="Rectángulo_40469" data-name="Rectángulo 40469" width="109.118" height="23.204" fill="#f4f4f4"/>
      <path id="Trazado_213026" data-name="Trazado 213026" d="M297.842,396.4h43.352v15.683H297.842V396.4Zm49.831,0h43.35v15.683h-43.35Z" transform="translate(-289.874 -392.787)" fill="#dedede" fill-rule="evenodd"/>
      <path id="Trazado_213027" data-name="Trazado 213027" d="M294.306,394.854,317.456,418h85.968V394.8H294.306Z" transform="translate(-294.306 -394.799)" fill-rule="evenodd" opacity="0.15"/>
    </g>
    <g id="Grupo_97040" data-name="Grupo 97040" transform="translate(1134.57 1922.005)">
      <g id="Grupo_97037" data-name="Grupo 97037">
        <rect id="Rectángulo_40470" data-name="Rectángulo 40470" width="19.191" height="16.282" transform="translate(0.473 0.254)" fill="#847c58"/>
        <rect id="Rectángulo_40471" data-name="Rectángulo 40471" width="19.221" height="3.59" transform="translate(0.473 0.255)" fill="#a49360"/>
        <rect id="Rectángulo_40472" data-name="Rectángulo 40472" width="20.137" height="2.883" fill="#c6b579"/>
      </g>
      <g id="Grupo_97038" data-name="Grupo 97038" transform="translate(0 15.702)">
        <rect id="Rectángulo_40473" data-name="Rectángulo 40473" width="19.191" height="16.281" transform="translate(0.473 0.255)" fill="#847c58"/>
        <rect id="Rectángulo_40474" data-name="Rectángulo 40474" width="19.221" height="3.589" transform="translate(0.473 0.256)" fill="#a49360"/>
        <rect id="Rectángulo_40475" data-name="Rectángulo 40475" width="20.137" height="2.884" fill="#c6b579"/>
      </g>
      <g id="Grupo_97039" data-name="Grupo 97039" transform="translate(0 31.089)">
        <rect id="Rectángulo_40476" data-name="Rectángulo 40476" width="19.191" height="16.281" transform="translate(0.473 0.255)" fill="#847c58"/>
        <rect id="Rectángulo_40477" data-name="Rectángulo 40477" width="19.221" height="3.59" transform="translate(0.473 0.256)" fill="#a49360"/>
        <rect id="Rectángulo_40478" data-name="Rectángulo 40478" width="20.137" height="2.884" fill="#c6b579"/>
      </g>
    </g>
    <g id="Grupo_97066" data-name="Grupo 97066" transform="translate(1187.771 1929.233)">
      <g id="Grupo_97043" data-name="Grupo 97043" transform="translate(0 42.423)">
        <g id="Grupo_97041" data-name="Grupo 97041" transform="translate(0 0.002)">
          <rect id="Rectángulo_40479" data-name="Rectángulo 40479" width="8.761" height="8.761" fill="#d8bd76"/>
          <rect id="Rectángulo_40480" data-name="Rectángulo 40480" width="8.761" height="5.075" fill="#c4aa68"/>
        </g>
        <g id="Grupo_97042" data-name="Grupo 97042" transform="translate(69.35 0.002)">
          <rect id="Rectángulo_40481" data-name="Rectángulo 40481" width="8.763" height="8.761" fill="#d8bd76"/>
          <rect id="Rectángulo_40482" data-name="Rectángulo 40482" width="8.763" height="5.076" fill="#c4aa68"/>
        </g>
        <rect id="Rectángulo_40483" data-name="Rectángulo 40483" width="78.114" height="3.738" fill="#e7d691"/>
      </g>
      <g id="Grupo_97056" data-name="Grupo 97056" transform="translate(0.117 21.242)">
        <g id="Grupo_97047" data-name="Grupo 97047" transform="translate(26.123)">
          <g id="Grupo_97044" data-name="Grupo 97044">
            <rect id="Rectángulo_40484" data-name="Rectángulo 40484" width="24.429" height="20.723" transform="translate(0.603 0.326)" fill="#d8bd76"/>
            <rect id="Rectángulo_40485" data-name="Rectángulo 40485" width="24.468" height="4.57" transform="translate(0.603 0.324)" fill="#c4aa68"/>
            <rect id="Rectángulo_40486" data-name="Rectángulo 40486" width="25.634" height="3.671" fill="#e7d691"/>
          </g>
          <g id="Grupo_97046" data-name="Grupo 97046" transform="translate(15.304 5.364)">
            <rect id="Rectángulo_40487" data-name="Rectángulo 40487" width="8.321" height="3.774" fill="#dfe9f2"/>
            <g id="Grupo_97045" data-name="Grupo 97045" transform="translate(0.607 0.483)">
              <rect id="Rectángulo_40488" data-name="Rectángulo 40488" width="0.885" height="2.808" fill="#818286"/>
              <rect id="Rectángulo_40489" data-name="Rectángulo 40489" width="0.883" height="2.808" transform="translate(1.58)" fill="#818286"/>
              <rect id="Rectángulo_40490" data-name="Rectángulo 40490" width="0.883" height="2.808" transform="translate(3.211)" fill="#818286"/>
              <rect id="Rectángulo_40491" data-name="Rectángulo 40491" width="0.885" height="2.808" transform="translate(4.703)" fill="#818286"/>
              <rect id="Rectángulo_40492" data-name="Rectángulo 40492" width="0.885" height="2.808" transform="translate(6.219)" fill="#818286"/>
            </g>
          </g>
        </g>
        <g id="Grupo_97051" data-name="Grupo 97051" transform="translate(52.246)">
          <g id="Grupo_97048" data-name="Grupo 97048">
            <rect id="Rectángulo_40493" data-name="Rectángulo 40493" width="24.426" height="20.723" transform="translate(0.603 0.326)" fill="#d8bd76"/>
            <rect id="Rectángulo_40494" data-name="Rectángulo 40494" width="24.468" height="4.57" transform="translate(0.603 0.324)" fill="#c4aa68"/>
            <rect id="Rectángulo_40495" data-name="Rectángulo 40495" width="25.632" height="3.671" fill="#e7d691"/>
          </g>
          <g id="Grupo_97050" data-name="Grupo 97050" transform="translate(15.304 5.364)">
            <rect id="Rectángulo_40496" data-name="Rectángulo 40496" width="8.319" height="3.774" fill="#dfe9f2"/>
            <g id="Grupo_97049" data-name="Grupo 97049" transform="translate(0.607 0.483)">
              <rect id="Rectángulo_40497" data-name="Rectángulo 40497" width="0.885" height="2.808" fill="#818286"/>
              <rect id="Rectángulo_40498" data-name="Rectángulo 40498" width="0.883" height="2.808" transform="translate(1.58)" fill="#818286"/>
              <rect id="Rectángulo_40499" data-name="Rectángulo 40499" width="0.885" height="2.808" transform="translate(3.209)" fill="#818286"/>
              <rect id="Rectángulo_40500" data-name="Rectángulo 40500" width="0.883" height="2.808" transform="translate(4.705)" fill="#818286"/>
              <rect id="Rectángulo_40501" data-name="Rectángulo 40501" width="0.885" height="2.808" transform="translate(6.219)" fill="#818286"/>
            </g>
          </g>
        </g>
        <g id="Grupo_97055" data-name="Grupo 97055">
          <g id="Grupo_97052" data-name="Grupo 97052">
            <rect id="Rectángulo_40502" data-name="Rectángulo 40502" width="24.426" height="20.723" transform="translate(0.603 0.326)" fill="#d8bd76"/>
            <rect id="Rectángulo_40503" data-name="Rectángulo 40503" width="24.468" height="4.57" transform="translate(0.603 0.324)" fill="#c4aa68"/>
            <rect id="Rectángulo_40504" data-name="Rectángulo 40504" width="25.632" height="3.671" fill="#e7d691"/>
          </g>
          <g id="Grupo_97054" data-name="Grupo 97054" transform="translate(15.304 5.364)">
            <rect id="Rectángulo_40505" data-name="Rectángulo 40505" width="8.319" height="3.774" fill="#dfe9f2"/>
            <g id="Grupo_97053" data-name="Grupo 97053" transform="translate(0.61 0.483)">
              <rect id="Rectángulo_40506" data-name="Rectángulo 40506" width="0.883" height="2.808" fill="#818286"/>
              <rect id="Rectángulo_40507" data-name="Rectángulo 40507" width="0.883" height="2.808" transform="translate(1.578)" fill="#818286"/>
              <rect id="Rectángulo_40508" data-name="Rectángulo 40508" width="0.883" height="2.808" transform="translate(3.209)" fill="#818286"/>
              <rect id="Rectángulo_40509" data-name="Rectángulo 40509" width="0.885" height="2.808" transform="translate(4.703)" fill="#818286"/>
              <rect id="Rectángulo_40510" data-name="Rectángulo 40510" width="0.883" height="2.808" transform="translate(6.219)" fill="#818286"/>
            </g>
          </g>
        </g>
      </g>
      <g id="Grupo_97065" data-name="Grupo 97065" transform="translate(26.24)">
        <g id="Grupo_97060" data-name="Grupo 97060">
          <g id="Grupo_97057" data-name="Grupo 97057">
            <rect id="Rectángulo_40511" data-name="Rectángulo 40511" width="24.429" height="20.725" transform="translate(0.603 0.325)" fill="#d8bd76"/>
            <rect id="Rectángulo_40512" data-name="Rectángulo 40512" width="24.468" height="4.57" transform="translate(0.603 0.325)" fill="#c4aa68"/>
            <rect id="Rectángulo_40513" data-name="Rectángulo 40513" width="25.634" height="3.671" fill="#e7d691"/>
          </g>
          <g id="Grupo_97059" data-name="Grupo 97059" transform="translate(15.304 5.364)">
            <rect id="Rectángulo_40514" data-name="Rectángulo 40514" width="8.321" height="3.774" fill="#dfe9f2"/>
            <g id="Grupo_97058" data-name="Grupo 97058" transform="translate(0.607 0.483)">
              <rect id="Rectángulo_40515" data-name="Rectángulo 40515" width="0.885" height="2.808" fill="#818286"/>
              <rect id="Rectángulo_40516" data-name="Rectángulo 40516" width="0.883" height="2.808" transform="translate(1.58)" fill="#818286"/>
              <rect id="Rectángulo_40517" data-name="Rectángulo 40517" width="0.883" height="2.808" transform="translate(3.211)" fill="#818286"/>
              <rect id="Rectángulo_40518" data-name="Rectángulo 40518" width="0.885" height="2.808" transform="translate(4.703)" fill="#818286"/>
              <rect id="Rectángulo_40519" data-name="Rectángulo 40519" width="0.885" height="2.808" transform="translate(6.219)" fill="#818286"/>
            </g>
          </g>
        </g>
        <g id="Grupo_97064" data-name="Grupo 97064" transform="translate(26.123)">
          <g id="Grupo_97061" data-name="Grupo 97061">
            <rect id="Rectángulo_40520" data-name="Rectángulo 40520" width="24.426" height="20.725" transform="translate(0.603 0.325)" fill="#d8bd76"/>
            <rect id="Rectángulo_40521" data-name="Rectángulo 40521" width="24.468" height="4.57" transform="translate(0.603 0.325)" fill="#c4aa68"/>
            <rect id="Rectángulo_40522" data-name="Rectángulo 40522" width="25.632" height="3.671" fill="#e7d691"/>
          </g>
          <g id="Grupo_97063" data-name="Grupo 97063" transform="translate(15.304 5.364)">
            <rect id="Rectángulo_40523" data-name="Rectángulo 40523" width="8.319" height="3.774" fill="#dfe9f2"/>
            <g id="Grupo_97062" data-name="Grupo 97062" transform="translate(0.607 0.483)">
              <rect id="Rectángulo_40524" data-name="Rectángulo 40524" width="0.885" height="2.808" fill="#818286"/>
              <rect id="Rectángulo_40525" data-name="Rectángulo 40525" width="0.883" height="2.808" transform="translate(1.58)" fill="#818286"/>
              <rect id="Rectángulo_40526" data-name="Rectángulo 40526" width="0.885" height="2.808" transform="translate(3.209)" fill="#818286"/>
              <rect id="Rectángulo_40527" data-name="Rectángulo 40527" width="0.883" height="2.808" transform="translate(4.705)" fill="#818286"/>
              <rect id="Rectángulo_40528" data-name="Rectángulo 40528" width="0.885" height="2.808" transform="translate(6.219)" fill="#818286"/>
            </g>
          </g>
        </g>
      </g>
    </g>
    <g id="Grupo_97084" data-name="Grupo 97084" transform="translate(930 1929.233)">
      <g id="Grupo_97069" data-name="Grupo 97069" transform="translate(0 42.423)">
        <g id="Grupo_97067" data-name="Grupo 97067" transform="translate(0 0.002)">
          <rect id="Rectángulo_40529" data-name="Rectángulo 40529" width="8.761" height="8.761" fill="#d8bd76"/>
          <rect id="Rectángulo_40530" data-name="Rectángulo 40530" width="8.761" height="5.075" fill="#c4aa68"/>
        </g>
        <g id="Grupo_97068" data-name="Grupo 97068" transform="translate(69.35 0.002)">
          <rect id="Rectángulo_40531" data-name="Rectángulo 40531" width="8.763" height="8.761" fill="#d8bd76"/>
          <rect id="Rectángulo_40532" data-name="Rectángulo 40532" width="8.763" height="5.076" fill="#c4aa68"/>
        </g>
        <rect id="Rectángulo_40533" data-name="Rectángulo 40533" width="78.114" height="3.738" fill="#e7d691"/>
      </g>
      <g id="Grupo_97078" data-name="Grupo 97078" transform="translate(26.24 21.242)">
        <g id="Grupo_97073" data-name="Grupo 97073">
          <g id="Grupo_97070" data-name="Grupo 97070">
            <rect id="Rectángulo_40534" data-name="Rectángulo 40534" width="24.429" height="20.723" transform="translate(0.603 0.326)" fill="#d8bd76"/>
            <rect id="Rectángulo_40535" data-name="Rectángulo 40535" width="24.468" height="4.57" transform="translate(0.603 0.324)" fill="#c4aa68"/>
            <rect id="Rectángulo_40536" data-name="Rectángulo 40536" width="25.634" height="3.671" fill="#e7d691"/>
          </g>
          <g id="Grupo_97072" data-name="Grupo 97072" transform="translate(15.304 5.364)">
            <rect id="Rectángulo_40537" data-name="Rectángulo 40537" width="8.321" height="3.774" fill="#dfe9f2"/>
            <g id="Grupo_97071" data-name="Grupo 97071" transform="translate(0.607 0.483)">
              <rect id="Rectángulo_40538" data-name="Rectángulo 40538" width="0.885" height="2.808" fill="#818286"/>
              <rect id="Rectángulo_40539" data-name="Rectángulo 40539" width="0.883" height="2.808" transform="translate(1.58)" fill="#818286"/>
              <rect id="Rectángulo_40540" data-name="Rectángulo 40540" width="0.883" height="2.808" transform="translate(3.211)" fill="#818286"/>
              <rect id="Rectángulo_40541" data-name="Rectángulo 40541" width="0.885" height="2.808" transform="translate(4.703)" fill="#818286"/>
              <rect id="Rectángulo_40542" data-name="Rectángulo 40542" width="0.885" height="2.808" transform="translate(6.219)" fill="#818286"/>
            </g>
          </g>
        </g>
        <g id="Grupo_97077" data-name="Grupo 97077" transform="translate(26.123)">
          <g id="Grupo_97074" data-name="Grupo 97074">
            <rect id="Rectángulo_40543" data-name="Rectángulo 40543" width="24.426" height="20.723" transform="translate(0.603 0.326)" fill="#d8bd76"/>
            <rect id="Rectángulo_40544" data-name="Rectángulo 40544" width="24.468" height="4.57" transform="translate(0.603 0.324)" fill="#c4aa68"/>
            <rect id="Rectángulo_40545" data-name="Rectángulo 40545" width="25.632" height="3.671" fill="#e7d691"/>
          </g>
          <g id="Grupo_97076" data-name="Grupo 97076" transform="translate(15.304 5.364)">
            <rect id="Rectángulo_40546" data-name="Rectángulo 40546" width="8.319" height="3.774" fill="#dfe9f2"/>
            <g id="Grupo_97075" data-name="Grupo 97075" transform="translate(0.607 0.483)">
              <rect id="Rectángulo_40547" data-name="Rectángulo 40547" width="0.885" height="2.808" fill="#818286"/>
              <rect id="Rectángulo_40548" data-name="Rectángulo 40548" width="0.883" height="2.808" transform="translate(1.58)" fill="#818286"/>
              <rect id="Rectángulo_40549" data-name="Rectángulo 40549" width="0.885" height="2.808" transform="translate(3.209)" fill="#818286"/>
              <rect id="Rectángulo_40550" data-name="Rectángulo 40550" width="0.883" height="2.808" transform="translate(4.705)" fill="#818286"/>
              <rect id="Rectángulo_40551" data-name="Rectángulo 40551" width="0.885" height="2.808" transform="translate(6.219)" fill="#818286"/>
            </g>
          </g>
        </g>
      </g>
      <g id="Grupo_97083" data-name="Grupo 97083" transform="translate(52.363)">
        <g id="Grupo_97082" data-name="Grupo 97082">
          <g id="Grupo_97079" data-name="Grupo 97079">
            <rect id="Rectángulo_40552" data-name="Rectángulo 40552" width="24.426" height="20.725" transform="translate(0.603 0.325)" fill="#d8bd76"/>
            <rect id="Rectángulo_40553" data-name="Rectángulo 40553" width="24.468" height="4.57" transform="translate(0.603 0.325)" fill="#c4aa68"/>
            <rect id="Rectángulo_40554" data-name="Rectángulo 40554" width="25.632" height="3.671" fill="#e7d691"/>
          </g>
          <g id="Grupo_97081" data-name="Grupo 97081" transform="translate(15.304 5.364)">
            <rect id="Rectángulo_40555" data-name="Rectángulo 40555" width="8.319" height="3.774" fill="#dfe9f2"/>
            <g id="Grupo_97080" data-name="Grupo 97080" transform="translate(0.607 0.483)">
              <rect id="Rectángulo_40556" data-name="Rectángulo 40556" width="0.885" height="2.808" fill="#818286"/>
              <rect id="Rectángulo_40557" data-name="Rectángulo 40557" width="0.883" height="2.808" transform="translate(1.58)" fill="#818286"/>
              <rect id="Rectángulo_40558" data-name="Rectángulo 40558" width="0.885" height="2.808" transform="translate(3.209)" fill="#818286"/>
              <rect id="Rectángulo_40559" data-name="Rectángulo 40559" width="0.883" height="2.808" transform="translate(4.705)" fill="#818286"/>
              <rect id="Rectángulo_40560" data-name="Rectángulo 40560" width="0.885" height="2.808" transform="translate(6.219)" fill="#818286"/>
            </g>
          </g>
        </g>
      </g>
    </g>
    <g id="Grupo_97099" data-name="Grupo 97099" transform="translate(1082.139 1935.358)">
      <path id="Trazado_213028" data-name="Trazado 213028" d="M346.945,418.262l42.439,41.909-76.428-.123,2.223-10.025Z" transform="translate(-307.477 -403.435)" fill-rule="evenodd" opacity="0.5" fill="url(#linear-gradient)" style="mix-blend-mode: multiply;isolation: isolate"/>
      <rect id="Rectángulo_40561" data-name="Rectángulo 40561" width="48.943" height="42.483" transform="translate(3.119)" fill="#f7fbfa"/>
      <g id="Grupo_97098" data-name="Grupo 97098" transform="translate(0 7.451)">
        <g id="Grupo_97085" data-name="Grupo 97085" transform="translate(3.332 37.262)">
          <rect id="Rectángulo_40562" data-name="Rectángulo 40562" width="6.268" height="12.023" rx="0.742" transform="translate(42.252)" fill="#141414"/>
          <path id="Rectángulo_40563" data-name="Rectángulo 40563" d="M.742,0H5.525a.743.743,0,0,1,.743.743V11.281a.742.742,0,0,1-.742.742H.742A.742.742,0,0,1,0,11.28V.742A.742.742,0,0,1,.742,0Z" fill="#141414"/>
        </g>
        <g id="Grupo_97090" data-name="Grupo 97090" transform="translate(0 10.69)">
          <g id="Grupo_97087" data-name="Grupo 97087" transform="translate(47.42)">
            <rect id="Rectángulo_40564" data-name="Rectángulo 40564" width="5.176" height="10.02" rx="0.741" transform="translate(2.588)"/>
            <g id="Grupo_97086" data-name="Grupo 97086" transform="translate(0 1.899)">
              <rect id="Rectángulo_40565" data-name="Rectángulo 40565" width="4.008" height="0.836"/>
              <rect id="Rectángulo_40566" data-name="Rectángulo 40566" width="4.008" height="0.836" transform="translate(0 5.385)"/>
            </g>
          </g>
          <g id="Grupo_97089" data-name="Grupo 97089">
            <rect id="Rectángulo_40567" data-name="Rectángulo 40567" width="5.178" height="10.02" rx="0.741"/>
            <g id="Grupo_97088" data-name="Grupo 97088" transform="translate(3.759 1.899)">
              <rect id="Rectángulo_40568" data-name="Rectángulo 40568" width="4.008" height="0.836"/>
              <rect id="Rectángulo_40569" data-name="Rectángulo 40569" width="4.008" height="0.836" transform="translate(0 5.385)"/>
            </g>
          </g>
        </g>
        <path id="Trazado_213029" data-name="Trazado 213029" d="M320.5,414.989h30.078a6.478,6.478,0,0,1,6.346,6.348l1.58,34.124a6.271,6.271,0,0,1-6.348,6.346H318.93a6.265,6.265,0,0,1-6.346-6.346l1.578-34.124A6.475,6.475,0,0,1,320.5,414.989Z" transform="translate(-307.953 -414.989)" fill="#008488" fill-rule="evenodd"/>
        <path id="Trazado_213030" data-name="Trazado 213030" d="M317.309,419.164h32.943a2.863,2.863,0,0,1,2.8,2.763l.586,9.147a2.767,2.767,0,0,1-2.8,2.842H316.723a2.764,2.764,0,0,1-2.8-2.842l.584-9.147A2.861,2.861,0,0,1,317.309,419.164Z" transform="translate(-306.271 -409.755)" fill-rule="evenodd"/>
        <path id="Trazado_213031" data-name="Trazado 213031" d="M316.958,419.444H349.9a2.23,2.23,0,0,1,2.17,2.17l.586,9.15a2.131,2.131,0,0,1-2.173,2.172H316.372a2.131,2.131,0,0,1-2.17-2.172l.586-9.15A2.228,2.228,0,0,1,316.958,419.444Z" transform="translate(-305.92 -409.404)" fill="#424242" fill-rule="evenodd"/>
        <g id="Grupo_97091" data-name="Grupo 97091" transform="translate(8.011 27.36)">
          <rect id="Rectángulo_40570" data-name="Rectángulo 40570" width="38.995" height="1.66"/>
          <rect id="Rectángulo_40571" data-name="Rectángulo 40571" width="38.995" height="1.657" transform="translate(0 2.885)"/>
          <rect id="Rectángulo_40572" data-name="Rectángulo 40572" width="38.995" height="1.659" transform="translate(0 5.819)"/>
        </g>
        <path id="Trazado_213032" data-name="Trazado 213032" d="M315.866,419.333H351.1a1.718,1.718,0,0,1,1.713,1.713h0a1.716,1.716,0,0,1-1.713,1.71H315.866a1.716,1.716,0,0,1-1.713-1.71h0A1.718,1.718,0,0,1,315.866,419.333Z" transform="translate(-305.977 -409.543)" fill-rule="evenodd"/>
        <path id="Trazado_213033" data-name="Trazado 213033" d="M321.7,439.354h11.766a2.465,2.465,0,0,0,2.481-2.344l.3-6.006H318.926l.293,6.006A2.469,2.469,0,0,0,321.7,439.354Z" transform="translate(-299.994 -394.913)" fill="#424242" fill-rule="evenodd"/>
        <g id="Grupo_97092" data-name="Grupo 97092" transform="translate(18.986 37.193)">
          <path id="Trazado_213034" data-name="Trazado 213034" d="M318.95,431.493h17.212l-.066,1.362H319.018Z" transform="translate(-318.95 -431.493)" fill-rule="evenodd"/>
          <path id="Trazado_213035" data-name="Trazado 213035" d="M319,432.545h16.981l-.068,1.364H319.068Z" transform="translate(-318.885 -430.175)" fill-rule="evenodd"/>
          <path id="Trazado_213036" data-name="Trazado 213036" d="M319.054,433.615H335.8l-.007.122a2.481,2.481,0,0,1-.408,1.244H319.469a2.477,2.477,0,0,1-.41-1.244Z" transform="translate(-318.819 -428.833)" fill-rule="evenodd"/>
        </g>
        <g id="Grupo_97095" data-name="Grupo 97095" transform="translate(9.97 1.913)">
          <g id="Grupo_97093" data-name="Grupo 97093">
            <path id="Trazado_213037" data-name="Trazado 213037" d="M320.33,421.006c-.225.315-2.707-.868-4.131-1.6a2.1,2.1,0,0,1-1.233-1.467,1.843,1.843,0,0,1,2.853-1.812C319.53,417.089,320.963,420.1,320.33,421.006Z" transform="translate(-314.949 -415.838)" fill="#02aab0" fill-rule="evenodd"/>
            <path id="Trazado_213038" data-name="Trazado 213038" d="M316.673,419.008a1.5,1.5,0,1,0-1.5-1.5A1.5,1.5,0,0,0,316.673,419.008Z" transform="translate(-314.668 -415.616)" fill="#04c0c7" fill-rule="evenodd"/>
            <path id="Trazado_213039" data-name="Trazado 213039" d="M317.283,418.828a.883.883,0,1,0-.886-.883A.885.885,0,0,0,317.283,418.828Z" transform="translate(-313.135 -414.305)" fill="#04c0c7" fill-rule="evenodd"/>
          </g>
          <g id="Grupo_97094" data-name="Grupo 97094" transform="translate(29.713)">
            <path id="Trazado_213040" data-name="Trazado 213040" d="M328.287,421.006c.221.315,2.7-.868,4.131-1.6a2.093,2.093,0,0,0,1.23-1.467,1.844,1.844,0,0,0-2.855-1.812C329.085,417.089,327.654,420.1,328.287,421.006Z" transform="translate(-328.134 -415.838)" fill="#02aab0" fill-rule="evenodd"/>
            <path id="Trazado_213041" data-name="Trazado 213041" d="M330.53,419.008a1.5,1.5,0,1,0-1.494-1.5A1.5,1.5,0,0,0,330.53,419.008Z" transform="translate(-327.004 -415.616)" fill="#04c0c7" fill-rule="evenodd"/>
            <path id="Trazado_213042" data-name="Trazado 213042" d="M329.239,418.828a.883.883,0,1,0-.883-.883A.885.885,0,0,0,329.239,418.828Z" transform="translate(-327.856 -414.305)" fill="#04c0c7" fill-rule="evenodd"/>
          </g>
        </g>
        <g id="Grupo_97096" data-name="Grupo 97096" transform="translate(8.011 37.863)">
          <path id="Trazado_213043" data-name="Trazado 213043" d="M315.193,431.8l6.682.946a1.184,1.184,0,0,1,1.113,1.113v.863a1.12,1.12,0,0,1-1.113,1.113h-6.682a1.117,1.117,0,0,1-1.113-1.113V432.91A1.067,1.067,0,0,1,315.193,431.8Z" transform="translate(-314.08 -431.79)" fill="#02aab0" fill-rule="evenodd"/>
          <path id="Trazado_213044" data-name="Trazado 213044" d="M315.937,435.368a1.694,1.694,0,1,0-1.692-1.692A1.7,1.7,0,0,0,315.937,435.368Z" transform="translate(-313.873 -431.551)" fill="#04c0c7" fill-rule="evenodd"/>
          <path id="Trazado_213045" data-name="Trazado 213045" d="M318.009,434.723a1.177,1.177,0,1,0-1.176-1.176A1.182,1.182,0,0,0,318.009,434.723Z" transform="translate(-310.629 -431.066)" fill="#04c0c7" fill-rule="evenodd"/>
        </g>
        <g id="Grupo_97097" data-name="Grupo 97097" transform="translate(38.099 37.863)">
          <path id="Trazado_213046" data-name="Trazado 213046" d="M335.224,431.8l-6.68.946a1.182,1.182,0,0,0-1.113,1.113v.863a1.119,1.119,0,0,0,1.113,1.113h6.68a1.117,1.117,0,0,0,1.113-1.113V432.91A1.066,1.066,0,0,0,335.224,431.8Z" transform="translate(-327.431 -431.79)" fill="#02aab0" fill-rule="evenodd"/>
          <path id="Trazado_213047" data-name="Trazado 213047" d="M331.411,435.368a1.694,1.694,0,1,0-1.695-1.692A1.7,1.7,0,0,0,331.411,435.368Z" transform="translate(-324.567 -431.551)" fill="#04c0c7" fill-rule="evenodd"/>
          <path id="Trazado_213048" data-name="Trazado 213048" d="M328.763,434.723a1.177,1.177,0,1,0-1.176-1.176A1.18,1.18,0,0,0,328.763,434.723Z" transform="translate(-327.235 -431.066)" fill="#04c0c7" fill-rule="evenodd"/>
        </g>
      </g>
    </g>
    <path id="Trazado_213049" data-name="Trazado 213049" d="M365.525,361.071l-1.461-.824-1.466.824-80.585,45.638V413.4l82.051-46.282L442.336,411.2h4.2v-4.472Z" transform="translate(735.872 1459.196)" fill="#154d57" fill-rule="evenodd" opacity="0.3" style="mix-blend-mode: multiply;isolation: isolate"/>
  </g>
</svg>
