<svg xmlns="http://www.w3.org/2000/svg" xmlns:xlink="http://www.w3.org/1999/xlink" width="140.09" height="160.347" viewBox="0 0 140.09 160.347">
  <defs>
    <linearGradient id="linear-gradient" x1="3.313" y1="0.695" x2="4.545" y2="-0.619" gradientUnits="objectBoundingBox">
      <stop offset="0.181" stop-color="#fff"/>
      <stop offset="0.256" stop-color="#f8f8f8"/>
      <stop offset="0.359" stop-color="#e6e6e6"/>
      <stop offset="0.479" stop-color="#c9c9c9"/>
      <stop offset="0.611" stop-color="#a0a0a0"/>
      <stop offset="0.755" stop-color="#6b6b6b"/>
      <stop offset="0.904" stop-color="#2c2c2c"/>
      <stop offset="1"/>
    </linearGradient>
    <linearGradient id="linear-gradient-2" x1="13.683" y1="4.471" x2="15.242" y2="2.716" gradientUnits="objectBoundingBox">
      <stop offset="0.104" stop-color="#fff"/>
      <stop offset="0.212" stop-color="#fafafa"/>
      <stop offset="0.324" stop-color="#eee"/>
      <stop offset="0.438" stop-color="#d9d9d9"/>
      <stop offset="0.553" stop-color="#bcbcbc"/>
      <stop offset="0.669" stop-color="#969696"/>
      <stop offset="0.786" stop-color="#686868"/>
      <stop offset="0.902" stop-color="#333"/>
      <stop offset="1"/>
    </linearGradient>
    <linearGradient id="linear-gradient-3" x1="-0.003" y1="1.271" x2="1.014" y2="0.027" gradientUnits="objectBoundingBox">
      <stop offset="0.385" stop-color="#fff"/>
      <stop offset="0.462" stop-color="#e5e5e5"/>
      <stop offset="0.627" stop-color="#a4a4a4"/>
      <stop offset="0.864" stop-color="#3d3d3d"/>
      <stop offset="1"/>
    </linearGradient>
    <clipPath id="clip-path">
      <path id="Trazado_212813" data-name="Trazado 212813" d="M562.2,206.783c.875,1.109,5.483,4.682,8.142,4.4s7.074-2.659,7.951-4.56c.729.79,3.482,2.928,3.482,2.928L570.057,236.87,559.13,210.583Z" transform="translate(-559.13 -206.625)" fill="none"/>
    </clipPath>
  </defs>
  <g id="Grupo_97284" data-name="Grupo 97284" transform="translate(-1030.91 -5494.327)">
    <path id="Trazado_212791" data-name="Trazado 212791" d="M644.5,277.758a4.65,4.65,0,0,1-2.087,3.623L576.546,319.4a4.626,4.626,0,0,1-4.181,0L506.5,281.381a4.637,4.637,0,0,1-2.09-3.623V201.7a4.63,4.63,0,0,1,2.09-3.621l65.866-38.028a4.636,4.636,0,0,1,4.181,0l65.867,38.028A4.643,4.643,0,0,1,644.5,201.7Z" transform="translate(526.5 5334.77)" fill="#fff" opacity="0.78" style="mix-blend-mode: screen;isolation: isolate"/>
    <path id="Trazado_212792" data-name="Trazado 212792" d="M642.25,276.219a4.534,4.534,0,0,1-2.036,3.53l-64.256,37.1a4.524,4.524,0,0,1-4.076,0l-64.253-37.1a4.523,4.523,0,0,1-2.04-3.53V202.024a4.519,4.519,0,0,1,2.04-3.534L571.883,161.4a4.506,4.506,0,0,1,4.076,0l64.256,37.094a4.53,4.53,0,0,1,2.036,3.534Z" transform="translate(527.035 5335.382)" fill="#472ea6" opacity="0.5"/>
    <path id="Trazado_212793" data-name="Trazado 212793" d="M559.784,198.435l15.683-11.177,17.305,9.193-.027,20.179,19.835,14.141,2.758,20.324L565.741,278l-40.6-22.884.192-52.277,22.6-13.4Z" transform="translate(535.896 5347.322)" opacity="0.5" fill="url(#linear-gradient)" style="mix-blend-mode: multiply;isolation: isolate"/>
    <g id="Grupo_96785" data-name="Grupo 96785" transform="translate(1094.257 5508.444)">
      <path id="Trazado_212794" data-name="Trazado 212794" d="M614.754,206.959,572.23,233.2,548,196.251l44.168-26.635Z" transform="translate(-548.004 -169.117)" opacity="0.5" fill="url(#linear-gradient-2)" style="mix-blend-mode: multiply;isolation: isolate"/>
      <g id="Grupo_96784" data-name="Grupo 96784" transform="translate(43.612)">
        <g id="Grupo_96783" data-name="Grupo 96783">
          <path id="Rectángulo_40397" data-name="Rectángulo 40397" d="M1.5,0H22.076a1.5,1.5,0,0,1,1.5,1.5V37.031a1.5,1.5,0,0,1-1.5,1.5H1.5a1.5,1.5,0,0,1-1.5-1.5V1.5A1.5,1.5,0,0,1,1.5,0Z" fill="#fff"/>
          <path id="Rectángulo_40398" data-name="Rectángulo 40398" d="M.184,0H18.305a.184.184,0,0,1,.184.184V24.058a.184.184,0,0,1-.184.184H.185A.185.185,0,0,1,0,24.057V.184A.184.184,0,0,1,.184,0Z" transform="translate(2.543 5.805)" fill="#185f93"/>
          <g id="Grupo_96781" data-name="Grupo 96781" transform="translate(10.366 32.824)">
            <path id="Trazado_212795" data-name="Trazado 212795" d="M585.15,193.284a1.422,1.422,0,1,0,1.424-1.423A1.423,1.423,0,0,0,585.15,193.284Z" transform="translate(-585.15 -191.861)" fill="#003768"/>
            <path id="Trazado_212796" data-name="Trazado 212796" d="M585.523,193.115a.881.881,0,0,1,.882-.881h0a.881.881,0,0,1,.879.881h0a.88.88,0,0,1-.879.879h0a.881.881,0,0,1-.882-.879Zm.882.677a.676.676,0,0,0,.674-.677h0a.677.677,0,0,0-.674-.679h0a.68.68,0,0,0-.679.679h0a.679.679,0,0,0,.679.677Z" transform="translate(-584.981 -191.692)" fill="#a7c4c3"/>
          </g>
          <g id="Grupo_96782" data-name="Grupo 96782" transform="translate(8.795 2.59)">
            <path id="Rectángulo_40399" data-name="Rectángulo 40399" d="M.184,0H5.8a.184.184,0,0,1,.184.184V.618A.185.185,0,0,1,5.8.8H.184A.184.184,0,0,1,0,.619V.184A.184.184,0,0,1,.184,0Z" fill="#003768"/>
          </g>
        </g>
      </g>
    </g>
    <g id="Grupo_96803" data-name="Grupo 96803" transform="translate(1064.074 5528.802)">
      <path id="Trazado_212797" data-name="Trazado 212797" d="M578.635,232.9l-29.542,12.417L527.232,234.4l39.727-22.97Z" transform="translate(-527.232 -170.527)" opacity="0.5" fill="url(#linear-gradient-3)" style="mix-blend-mode: multiply;isolation: isolate"/>
      <path id="Trazado_212798" data-name="Trazado 212798" d="M604.454,226.176v-.317c-1.426-9.5-3.831-10.9-18.131-17.654l-18.686.4c-14.306,4.848-17.971,8.075-19.237,18.843L546.817,241.7h59.008Z" transform="translate(-518.357 -171.99)" fill="#003768"/>
      <g id="Grupo_96786" data-name="Grupo 96786" transform="translate(49.045 31.704)">
        <path id="Trazado_212799" data-name="Trazado 212799" d="M562.248,205.1l-1.264,4.75,8.828,7.121-.279-11.079Z" transform="translate(-560.984 -205.1)" fill="#bddbe0"/>
        <path id="Trazado_212800" data-name="Trazado 212800" d="M574.322,205.209l1.266,4.75-8.831,7.12L567.038,206Z" transform="translate(-558.368 -205.051)" fill="#fff"/>
      </g>
      <path id="Trazado_212801" data-name="Trazado 212801" d="M562.3,206.674c.876,1.109,5.484,4.682,8.146,4.4s7.072-2.656,7.948-4.557c.729.79,3.482,2.929,3.482,2.929L570.163,236.76,559.24,210.474Z" transform="translate(-512.728 -172.755)" fill="#fff"/>
      <g id="Grupo_96797" data-name="Grupo 96797" transform="translate(43.589)">
        <g id="Grupo_96789" data-name="Grupo 96789" transform="translate(0 0.556)">
          <g id="Grupo_96788" data-name="Grupo 96788">
            <g id="Grupo_96787" data-name="Grupo 96787" transform="translate(5.756 31.241)">
              <path id="Trazado_212802" data-name="Trazado 212802" d="M561.19,205.164a15.556,15.556,0,0,0,1.112,1.341l.007-.025A16.646,16.646,0,0,1,561.19,205.164Z" transform="translate(-561.19 -205.164)" fill="#fff"/>
            </g>
            <path id="Trazado_212803" data-name="Trazado 212803" d="M585.584,202.768c0-1.609-.464-2.254-1.256-2.518.189-3.284.661-6.76-.541-9.166-2.289-4.593-8.607-7.418-12.92-7.418-4.138,0-9.413,2.425-11.728,6.7-1.424,2.637-.7,6.112-.519,9.663-.878.233-1.392.86-1.392,2.562,0,2.526,1.133,6.517,2.908,7.085q.342.924.754,1.786c.017.036.042.068.057.1a21.745,21.745,0,0,0,2.037,3.349,16.646,16.646,0,0,0,1.119,1.317l-.007.025a10.162,10.162,0,0,0,7.424,3.7c4.176,0,7.914-3.156,10.449-8.142a5.516,5.516,0,0,1,.658-1c.145-.372.294-.74.416-1.126C584.609,208.708,585.584,205.11,585.584,202.768Z" transform="translate(-557.229 -183.665)" fill="#bddbe0"/>
          </g>
        </g>
        <g id="Grupo_96791" data-name="Grupo 96791" transform="translate(13.793 0.562)">
          <g id="Grupo_96790" data-name="Grupo 96790">
            <path id="Trazado_212804" data-name="Trazado 212804" d="M577.669,211.8a5.516,5.516,0,0,1,.658-1c.145-.369.294-.74.416-1.126,1.565-.966,2.54-4.564,2.54-6.905,0-1.607-.464-2.254-1.256-2.52.189-3.284.661-6.76-.541-9.165-2.261-4.541-8.454-7.347-12.766-7.414V219.91c.167.009.331.031.5.031C571.4,219.94,575.133,216.784,577.669,211.8Z" transform="translate(-566.721 -183.669)" fill="#fff"/>
          </g>
        </g>
        <g id="Grupo_96796" data-name="Grupo 96796" transform="translate(0.866)">
          <path id="Trazado_212805" data-name="Trazado 212805" d="M578.862,189.8c.262,2.108-3.7,2.018-6.336,1.581s-4.191.087-6.657.791c-2.491.715-4.928,3.287-5.276,4.574a31.284,31.284,0,0,0-.03,4.487l-2.212-1.03s-1.014-5.436-.225-8.909c.763-3.344,2.7-6.041,8.943-7.389,5.664-1.222,9.633-.484,9.811.921.437.092.793-.262,1.321-.262,1.318,0,3.828,1.536,4.971,3.386s2.242,5.234,1.449,10.955a4.358,4.358,0,0,1-.481,1.891l-1.844,1.055s.818-7.215-2.174-9.328C579.177,191.855,578.862,189.8,578.862,189.8Z" transform="translate(-557.825 -183.283)" fill="#003768"/>
          <g id="Grupo_96795" data-name="Grupo 96795" transform="translate(19.155 1.198)">
            <g id="Grupo_96794" data-name="Grupo 96794">
              <g id="Grupo_96792" data-name="Grupo 96792">
                <path id="Trazado_212806" data-name="Trazado 212806" d="M574.124,192.067c2.991,2.113,2.174,9.325,2.174,9.325l1.841-1.052a4.376,4.376,0,0,0,.484-1.891c.792-5.722-.305-9.107-1.449-10.955s-3.654-3.387-4.973-3.387a5.9,5.9,0,0,0-1.194.26c.564,1.864,1.869,4.535,1.859,4.975C572.866,189.343,573.176,191.4,574.124,192.067Z" transform="translate(-571.007 -184.107)" fill="#185f93"/>
              </g>
              <g id="Grupo_96793" data-name="Grupo 96793" transform="translate(1.824 5.236)">
                <path id="Trazado_212807" data-name="Trazado 212807" d="M572.3,187.71c0,.129-.022.308-.035.488A1.368,1.368,0,0,0,572.3,187.71Z" transform="translate(-572.262 -187.71)" fill="#185f93"/>
              </g>
            </g>
          </g>
        </g>
      </g>
      <g id="Grupo_96802" data-name="Grupo 96802" transform="translate(46.352 33.919)">
        <g id="Grupo_96801" data-name="Grupo 96801" clip-path="url(#clip-path)">
          <g id="Grupo_96800" data-name="Grupo 96800" transform="translate(5.926 6.616)">
            <g id="Grupo_96799" data-name="Grupo 96799">
              <g id="Grupo_96798" data-name="Grupo 96798">
                <path id="Trazado_212808" data-name="Trazado 212808" d="M568.683,216.258h-1.934v-5.08H570.6l.026,2.188Z" transform="translate(-561.604 -211.178)" fill="#41aace"/>
                <path id="Trazado_212809" data-name="Trazado 212809" d="M568.957,214.141l3.387,32.046-5.353,4.2-.116-.113-.2-36.108Z" transform="translate(-561.635 -209.836)" fill="#41aace"/>
                <path id="Trazado_212810" data-name="Trazado 212810" d="M566.45,216.258h1.621v-5.08H564.13l.029,2.188Z" transform="translate(-562.79 -211.178)" fill="#006e99"/>
                <path id="Trazado_212811" data-name="Trazado 212811" d="M566.6,214.141l-3.389,32.046,5.357,4.2-.076-36.247Z" transform="translate(-563.208 -209.836)" fill="#006e99"/>
              </g>
              <path id="Trazado_212812" data-name="Trazado 212812" d="M569.567,214.754h-4.061v-.369h4.02Z" transform="translate(-562.166 -209.725)" fill="#006e99"/>
            </g>
          </g>
        </g>
      </g>
    </g>
    <g id="Grupo_96810" data-name="Grupo 96810" transform="translate(1047.906 5536.502)">
      <path id="Trazado_212814" data-name="Trazado 212814" d="M545.53,194.135l8.523,36.079L536.628,226.9l-.189-18.272Z" transform="translate(-506.893 -186.064)" fill="#185f93"/>
      <path id="Trazado_212815" data-name="Trazado 212815" d="M527.143,195.957l-7.386,32.956,17.616,10.514-1.137-39.206Z" transform="translate(-514.452 -185.239)" fill="#003768"/>
      <path id="Trazado_212816" data-name="Trazado 212816" d="M567.811,226.176v-.285c-1.28-8.52-6.485-7.388-19.316-13.443l-11.839.189c-11.741,5.208-18.938,7.1-19.13,14.677l-1.42,12.782h52.937Z" transform="translate(-516.106 -177.766)" fill="#ff8b0d"/>
      <g id="Grupo_96806" data-name="Grupo 96806" transform="translate(0.09 34.834)">
        <g id="Grupo_96805" data-name="Grupo 96805">
          <g id="Grupo_96804" data-name="Grupo 96804">
            <path id="Trazado_212817" data-name="Trazado 212817" d="M517.588,227.321l-1.42,12.782h26.089v-27.55l-5.539.09C524.975,217.85,517.778,219.743,517.588,227.321Z" transform="translate(-516.168 -212.553)" fill="#f74d11"/>
          </g>
        </g>
      </g>
      <g id="Grupo_96807" data-name="Grupo 96807" transform="translate(16.526 29.615)">
        <path id="Trazado_212818" data-name="Trazado 212818" d="M531.17,208.961c-.137,2.27-1.561,6.958-3.691,8.521,2.271,3.977,7.385,8.239,9.66,8.524-.142-8.665,0-17.045,0-17.045Z" transform="translate(-527.479 -208.961)" fill="#bddbe0"/>
        <path id="Trazado_212819" data-name="Trazado 212819" d="M540,208.961c.142,2.27,1.562,6.958,3.694,8.521-2.277,3.977-7.391,8.239-9.66,8.524.142-8.665,0-17.045,0-17.045Z" transform="translate(-524.511 -208.961)" fill="#fff"/>
      </g>
      <g id="Grupo_96809" data-name="Grupo 96809" transform="translate(10.524)">
        <g id="Grupo_96808" data-name="Grupo 96808" transform="translate(3.573 1.341)">
          <path id="Trazado_212821" data-name="Trazado 212821" d="M527.522,195.51c-1.277,2.364-.629,5.483-.464,8.668-.791.209-1.251.775-1.251,2.3,0,2.265,1.017,5.844,2.608,6.353.2.554.43,1.087.674,1.6.017.033.035.061.051.086a19.422,19.422,0,0,0,1.828,3.005q.484.643,1,1.2a9.371,9.371,0,0,0,6.028,3.274V189.5C534.284,189.526,529.589,191.7,527.522,195.51Z" transform="translate(-525.807 -189.504)" fill="#bddbe0"/>
          <path id="Trazado_212822" data-name="Trazado 212822" d="M534.116,189.5v32.5a9.368,9.368,0,0,0,6.025-3.274,15.033,15.033,0,0,0,1-1.2,19.435,19.435,0,0,0,1.831-3.005.756.756,0,0,0,.048-.086c.246-.517.474-1.051.674-1.6,1.594-.509,2.613-4.088,2.613-6.353,0-1.527-.465-2.092-1.253-2.3.164-3.185.809-6.3-.467-8.668C542.519,191.7,537.818,189.526,534.116,189.5Z" transform="translate(-522.042 -189.504)" fill="#fff"/>
        </g>
        <path id="Trazado_212823" data-name="Trazado 212823" d="M538.6,189.112c-2.558-.853-8.3.094-10.8,3.265-3.691,4.688-3.547,13.71-3.547,13.71l4.686-.639s1.375-5.778,6.484-7.765C539.282,196.181,538.6,189.112,538.6,189.112Z" transform="translate(-522.938 -188.475)" fill="#003768"/>
        <path id="Trazado_212824" data-name="Trazado 212824" d="M530.629,193.622c.854,4.259,9.28,4.827,12.121,6.247s2.793,5.539,2.793,5.539l2.418-.708s2.844-8.255-2.418-12.927c-5.111-4.545-11.7-3.076-13.969-2.508S530.629,193.622,530.629,193.622Z" transform="translate(-520.224 -188.581)" fill="#185f93"/>
      </g>
    </g>
    <path id="Trazado_212825" data-name="Trazado 212825" d="M623.895,243.7l-2.271-3.109H517.2l-2.272,3.109Z" transform="translate(531.265 5371.489)" fill="#fff"/>
    <path id="Trazado_212826" data-name="Trazado 212826" d="M627.759,245.759l-1.9-3.109H513.919l-1.908,3.109Z" transform="translate(529.945 5372.421)" fill="#ff8b0d"/>
    <g id="Grupo_96817" data-name="Grupo 96817" transform="translate(1041.057 5588.998)">
      <path id="Trazado_212827" data-name="Trazado 212827" d="M523.268,224.774c.045-.089.118-.089.161,0l3.615,7.261a.388.388,0,0,0,.262.189l7.989,1.163c.1.015.121.083.051.154l-5.781,5.634a.385.385,0,0,0-.1.308l1.365,7.956c.016.1-.044.142-.134.1l-7.142-3.755a.4.4,0,0,0-.326,0l-7.146,3.755c-.089.047-.147,0-.131-.1l1.366-7.956a.385.385,0,0,0-.1-.308l-5.778-5.634c-.074-.071-.052-.139.048-.154l7.988-1.163a.394.394,0,0,0,.264-.189Z" transform="translate(-511.393 -224.707)" fill="#fff"/>
      <g id="Grupo_96812" data-name="Grupo 96812" transform="translate(0 0.032)">
        <path id="Trazado_212828" data-name="Trazado 212828" d="M519.472,232.214l-7.988,1.163c-.1.015-.122.083-.048.154l5.778,5.634a.385.385,0,0,1,.1.308l-1.366,7.956c-.016.1.042.142.131.1l7.331-3.814-.046-18.981-.163.187-3.466,7.109A.394.394,0,0,1,519.472,232.214Z" transform="translate(-511.393 -224.729)" fill="#d1e6e8"/>
      </g>
      <g id="Grupo_96816" data-name="Grupo 96816" transform="translate(3.799 3.844)">
        <path id="Trazado_212829" data-name="Trazado 212829" d="M522.15,227.4c.029-.062.08-.062.11,0l2.44,4.946a.271.271,0,0,0,.182.131l5.458.791c.068.012.083.058.035.108l-3.95,3.851a.256.256,0,0,0-.068.211l.931,5.436c.012.07-.03.1-.09.067l-4.881-2.568a.273.273,0,0,0-.224,0l-4.881,2.568c-.062.032-.1,0-.093-.067l.936-5.436a.271.271,0,0,0-.068-.211l-3.951-3.851c-.049-.049-.035-.1.033-.108l5.459-.791a.265.265,0,0,0,.179-.131Z" transform="translate(-514.007 -227.353)" fill="#ff8b0d"/>
        <g id="Grupo_96815" data-name="Grupo 96815" transform="translate(0 0.009)">
          <g id="Grupo_96814" data-name="Grupo 96814">
            <g id="Grupo_96813" data-name="Grupo 96813">
              <path id="Trazado_212830" data-name="Trazado 212830" d="M522.15,227.4l-2.443,4.946a.265.265,0,0,1-.179.131l-5.459.791c-.068.012-.083.058-.033.108l3.951,3.851a.271.271,0,0,1,.068.211l-.936,5.436c-.01.07.031.1.093.067l4.881-2.568a.251.251,0,0,1,.134-.02V227.369C522.2,227.352,522.171,227.353,522.15,227.4Z" transform="translate(-514.007 -227.359)" fill="#f74d11"/>
            </g>
          </g>
        </g>
      </g>
    </g>
    <g id="Grupo_96823" data-name="Grupo 96823" transform="translate(1064.947 5588.998)">
      <path id="Trazado_212831" data-name="Trazado 212831" d="M539.708,224.774c.045-.089.118-.089.163,0l3.614,7.261a.388.388,0,0,0,.262.189l7.989,1.163c.1.015.122.083.051.154l-5.781,5.634a.391.391,0,0,0-.1.308l1.365,7.956c.016.1-.042.142-.132.1l-7.144-3.755a.4.4,0,0,0-.326,0l-7.145,3.755c-.089.047-.147,0-.131-.1l1.365-7.956a.385.385,0,0,0-.1-.308l-5.778-5.634c-.074-.071-.051-.139.048-.154l7.988-1.163a.4.4,0,0,0,.266-.189Z" transform="translate(-527.833 -224.707)" fill="#fff"/>
      <g id="Grupo_96818" data-name="Grupo 96818" transform="translate(0 0.032)">
        <path id="Trazado_212832" data-name="Trazado 212832" d="M535.912,232.214l-7.988,1.163c-.1.015-.122.083-.048.154l5.778,5.634a.385.385,0,0,1,.1.308l-1.365,7.956c-.016.1.042.142.131.1l7.331-3.814-.048-18.981-.163.187-3.464,7.109A.4.4,0,0,1,535.912,232.214Z" transform="translate(-527.833 -224.729)" fill="#d1e6e8"/>
      </g>
      <g id="Grupo_96822" data-name="Grupo 96822" transform="translate(3.798 3.844)">
        <path id="Trazado_212833" data-name="Trazado 212833" d="M538.59,227.4c.031-.062.08-.062.11,0l2.44,4.946a.273.273,0,0,0,.183.131l5.456.791c.07.012.083.058.035.108l-3.95,3.851a.257.257,0,0,0-.068.211l.931,5.436c.012.07-.031.1-.09.067l-4.881-2.568a.273.273,0,0,0-.224,0l-4.881,2.568c-.063.032-.1,0-.092-.067l.934-5.436a.266.266,0,0,0-.068-.211l-3.951-3.851c-.049-.049-.035-.1.033-.108l5.461-.791a.266.266,0,0,0,.177-.131Z" transform="translate(-530.447 -227.353)" fill="#ff8b0d"/>
        <g id="Grupo_96821" data-name="Grupo 96821" transform="translate(0 0.009)">
          <g id="Grupo_96820" data-name="Grupo 96820">
            <g id="Grupo_96819" data-name="Grupo 96819">
              <path id="Trazado_212834" data-name="Trazado 212834" d="M538.59,227.4l-2.443,4.946a.266.266,0,0,1-.177.131l-5.461.791c-.068.012-.083.058-.033.108l3.951,3.851a.266.266,0,0,1,.068.211l-.934,5.436c-.01.07.029.1.092.067l4.881-2.568a.255.255,0,0,1,.134-.02V227.369C538.641,227.352,538.611,227.353,538.59,227.4Z" transform="translate(-530.447 -227.359)" fill="#f74d11"/>
            </g>
          </g>
        </g>
      </g>
    </g>
    <g id="Grupo_96829" data-name="Grupo 96829" transform="translate(1088.942 5588.998)">
      <path id="Trazado_212835" data-name="Trazado 212835" d="M556.221,224.774c.045-.089.118-.089.161,0L560,232.035a.388.388,0,0,0,.262.189l7.989,1.163c.1.015.121.083.051.154l-5.781,5.634a.385.385,0,0,0-.1.308l1.365,7.956c.016.1-.044.142-.134.1l-7.142-3.755a.4.4,0,0,0-.326,0l-7.146,3.755c-.089.047-.147,0-.131-.1l1.366-7.956a.385.385,0,0,0-.1-.308l-5.778-5.634c-.074-.071-.052-.139.048-.154l7.988-1.163a.394.394,0,0,0,.264-.189Z" transform="translate(-544.346 -224.707)" fill="#fff"/>
      <g id="Grupo_96824" data-name="Grupo 96824" transform="translate(0 0.032)">
        <path id="Trazado_212836" data-name="Trazado 212836" d="M552.425,232.214l-7.988,1.163c-.1.015-.122.083-.048.154l5.778,5.634a.385.385,0,0,1,.1.308l-1.366,7.956c-.016.1.042.142.131.1l7.331-3.814-.046-18.981-.163.187-3.466,7.109A.394.394,0,0,1,552.425,232.214Z" transform="translate(-544.346 -224.729)" fill="#d1e6e8"/>
      </g>
      <g id="Grupo_96828" data-name="Grupo 96828" transform="translate(3.799 3.844)">
        <path id="Trazado_212837" data-name="Trazado 212837" d="M555.1,227.4c.029-.062.08-.062.11,0l2.44,4.946a.271.271,0,0,0,.182.131l5.458.791c.068.012.083.058.035.108l-3.95,3.851a.256.256,0,0,0-.068.211l.931,5.436c.012.07-.031.1-.09.067l-4.881-2.568a.273.273,0,0,0-.224,0l-4.881,2.568c-.062.032-.1,0-.093-.067l.936-5.436a.271.271,0,0,0-.068-.211l-3.951-3.851c-.049-.049-.035-.1.033-.108l5.459-.791a.265.265,0,0,0,.179-.131Z" transform="translate(-546.96 -227.353)" fill="#ff8b0d"/>
        <g id="Grupo_96827" data-name="Grupo 96827" transform="translate(0 0.009)">
          <g id="Grupo_96826" data-name="Grupo 96826">
            <g id="Grupo_96825" data-name="Grupo 96825">
              <path id="Trazado_212838" data-name="Trazado 212838" d="M555.1,227.4l-2.443,4.946a.265.265,0,0,1-.179.131l-5.459.791c-.068.012-.083.058-.033.108l3.951,3.851a.271.271,0,0,1,.068.211l-.936,5.436c-.01.07.031.1.093.067l4.881-2.568a.251.251,0,0,1,.134-.02V227.369C555.154,227.352,555.124,227.353,555.1,227.4Z" transform="translate(-546.96 -227.359)" fill="#f74d11"/>
            </g>
          </g>
        </g>
      </g>
    </g>
    <g id="Grupo_96835" data-name="Grupo 96835" transform="translate(1112.64 5588.998)">
      <path id="Trazado_212839" data-name="Trazado 212839" d="M572.529,224.774c.045-.089.118-.089.163,0l3.614,7.261a.388.388,0,0,0,.262.189l7.989,1.163c.1.015.122.083.051.154l-5.781,5.634a.39.39,0,0,0-.1.308l1.364,7.956c.016.1-.042.142-.132.1l-7.144-3.755a.4.4,0,0,0-.326,0l-7.145,3.755c-.089.047-.147,0-.131-.1l1.364-7.956a.385.385,0,0,0-.1-.308L560.7,233.54c-.074-.071-.051-.139.048-.154l7.988-1.163a.394.394,0,0,0,.265-.189Z" transform="translate(-560.654 -224.707)" fill="#fff"/>
      <g id="Grupo_96830" data-name="Grupo 96830" transform="translate(0 0.032)">
        <path id="Trazado_212840" data-name="Trazado 212840" d="M568.733,232.214l-7.988,1.163c-.1.015-.122.083-.048.154l5.778,5.634a.385.385,0,0,1,.1.308l-1.364,7.956c-.016.1.042.142.131.1l7.331-3.814-.048-18.981-.163.187L569,232.025A.394.394,0,0,1,568.733,232.214Z" transform="translate(-560.654 -224.729)" fill="#d1e6e8"/>
      </g>
      <g id="Grupo_96834" data-name="Grupo 96834" transform="translate(3.798 3.844)">
        <path id="Trazado_212841" data-name="Trazado 212841" d="M571.411,227.4c.031-.062.08-.062.11,0l2.44,4.946a.274.274,0,0,0,.182.131l5.458.791c.068.012.083.058.035.108l-3.95,3.851a.256.256,0,0,0-.068.211l.931,5.436c.012.07-.03.1-.09.067l-4.881-2.568a.273.273,0,0,0-.224,0l-4.881,2.568c-.062.032-.1,0-.092-.067l.934-5.436a.272.272,0,0,0-.068-.211l-3.951-3.851c-.049-.049-.035-.1.033-.108l5.459-.791a.265.265,0,0,0,.179-.131Z" transform="translate(-563.268 -227.353)" fill="#ff8b0d"/>
        <g id="Grupo_96833" data-name="Grupo 96833" transform="translate(0 0.009)">
          <g id="Grupo_96832" data-name="Grupo 96832">
            <g id="Grupo_96831" data-name="Grupo 96831">
              <path id="Trazado_212842" data-name="Trazado 212842" d="M571.411,227.4l-2.443,4.946a.265.265,0,0,1-.179.131l-5.459.791c-.068.012-.083.058-.033.108l3.951,3.851a.272.272,0,0,1,.068.211l-.934,5.436c-.012.07.029.1.092.067l4.881-2.568a.255.255,0,0,1,.134-.02V227.369C571.462,227.352,571.432,227.353,571.411,227.4Z" transform="translate(-563.268 -227.359)" fill="#f74d11"/>
            </g>
          </g>
        </g>
      </g>
    </g>
    <g id="Grupo_96841" data-name="Grupo 96841" transform="translate(1136.634 5588.998)">
      <path id="Trazado_212843" data-name="Trazado 212843" d="M589.041,224.774c.046-.089.119-.089.163,0l3.615,7.261a.385.385,0,0,0,.261.189l7.989,1.163c.1.015.12.083.049.154l-5.781,5.634a.389.389,0,0,0-.1.308l1.365,7.956c.016.1-.044.142-.134.1l-7.142-3.755a.4.4,0,0,0-.325,0l-7.146,3.755c-.089.047-.147,0-.131-.1l1.366-7.956a.385.385,0,0,0-.1-.308l-5.779-5.634c-.074-.071-.051-.139.049-.154l7.988-1.163a.394.394,0,0,0,.265-.189Z" transform="translate(-577.166 -224.707)" fill="#fff"/>
      <g id="Grupo_96836" data-name="Grupo 96836" transform="translate(0 0.032)">
        <path id="Trazado_212844" data-name="Trazado 212844" d="M585.247,232.214l-7.988,1.163c-.1.015-.123.083-.049.154l5.779,5.634a.385.385,0,0,1,.1.308l-1.366,7.956c-.016.1.042.142.131.1l7.331-3.814-.047-18.981-.164.187-3.464,7.109A.394.394,0,0,1,585.247,232.214Z" transform="translate(-577.166 -224.729)" fill="#d1e6e8"/>
      </g>
      <g id="Grupo_96840" data-name="Grupo 96840" transform="translate(3.8 3.844)">
        <path id="Trazado_212845" data-name="Trazado 212845" d="M587.923,227.4c.031-.062.081-.062.112,0l2.44,4.946a.27.27,0,0,0,.182.131l5.458.791c.068.012.083.058.035.108l-3.949,3.851a.256.256,0,0,0-.068.211l.932,5.436c.012.07-.031.1-.09.067l-4.881-2.568a.273.273,0,0,0-.224,0l-4.881,2.568c-.062.032-.1,0-.093-.067l.936-5.436a.277.277,0,0,0-.068-.211l-3.951-3.851c-.049-.049-.035-.1.033-.108l5.459-.791a.265.265,0,0,0,.179-.131Z" transform="translate(-579.781 -227.353)" fill="#ff8b0d"/>
        <g id="Grupo_96839" data-name="Grupo 96839" transform="translate(0 0.009)">
          <g id="Grupo_96838" data-name="Grupo 96838">
            <g id="Grupo_96837" data-name="Grupo 96837">
              <path id="Trazado_212846" data-name="Trazado 212846" d="M587.923,227.4l-2.441,4.946a.265.265,0,0,1-.179.131l-5.459.791c-.068.012-.083.058-.033.108l3.951,3.851a.277.277,0,0,1,.068.211l-.936,5.436c-.01.07.031.1.093.067l4.881-2.568a.251.251,0,0,1,.134-.02V227.369C587.975,227.352,587.945,227.353,587.923,227.4Z" transform="translate(-579.781 -227.359)" fill="#f74d11"/>
            </g>
          </g>
        </g>
      </g>
    </g>
  </g>
</svg>
