<svg xmlns="http://www.w3.org/2000/svg" width="140.093" height="160.347" viewBox="0 0 140.093 160.347">
  <g id="Grupo_97285" data-name="Grupo 97285" transform="translate(-1040.491 -5734.327)">
    <path id="Trazado_212923" data-name="Trazado 212923" d="M463.411,134.805a4.653,4.653,0,0,1-2.09,3.623l-65.864,38.025a4.638,4.638,0,0,1-4.182,0L325.41,138.428a4.64,4.64,0,0,1-2.092-3.623V58.752a4.636,4.636,0,0,1,2.092-3.623L391.275,17.1a4.629,4.629,0,0,1,4.182,0l65.864,38.025a4.649,4.649,0,0,1,2.09,3.623Z" transform="translate(717.173 5717.722)" fill="#fff" opacity="0.78" style="mix-blend-mode: screen;isolation: isolate"/>
    <path id="Trazado_212924" data-name="Trazado 212924" d="M461.161,133.263a4.532,4.532,0,0,1-2.037,3.533l-64.253,37.1a4.54,4.54,0,0,1-4.079,0l-64.254-37.1a4.527,4.527,0,0,1-2.04-3.533V59.069a4.527,4.527,0,0,1,2.04-3.533l64.254-37.094a4.522,4.522,0,0,1,4.079,0l64.253,37.094a4.532,4.532,0,0,1,2.037,3.533Z" transform="translate(717.708 5718.335)" fill="#472ea6" opacity="0.5"/>
    <g id="Grupo_96922" data-name="Grupo 96922" transform="translate(1110.112 5751.481)">
      <g id="Grupo_96918" data-name="Grupo 96918" transform="translate(21.265 0.939)">
        <path id="Trazado_212925" data-name="Trazado 212925" d="M387.736,31.125h0V29.056h-1.873v6.227h0V50.32h0V71.586h1.873v0h0v0h0v0h0v0h0v0h0v0h0v0h0v0h0v-.007h0v0h0v-.006h0v0h0v0h0v-.006h0V71.5h0v-.007h0v-.019h0v-.007h0v-.007h0v-.007h0v-.007h0v-.007h0v-.007h0v-.009h0v-.009h0v-.009h0V71.4h0v-.009h0v-.01h0v-.01h0V71.34h0v-.01h0v-.01h0v-.012h0V71.3h0v-.013h0v-.033h0V71.24h0v-.01h0v-.013h0V71.2h0v-.012h0v-.039h0v-.012h0v-.015h0v-.015h0V71.1h0v-.013h0V71.04h0v-.013h0v-.016h0v-.016h0v-.016h0v-.015h0v-.048h0V70.9h0v-.017h0v-.017h0v-.016h0v-.017h0V70.78h0v-.02h0v-.054h0v-.019h0v-.058h0v-.019h0v-.019h0v-.02h0v-.02h0v-.019h0v-.064h0v-.02h0v-.062h0v-.023h0v-.067h0v-.022h0V70.2h0v-.022h0v-.071h0v-.025h0v-.073h0v-.025h0v-.074h0v-.026h0V69.81h0v-.025h0v-.078h0v-.028h0V69.6h0v-.028h0v-.084h0V69.46h0v-.086h0v-.028h0v-.089h0v-.029h0v-.211h0v-.031h0v-.093h0v-.033h0v-.093h0v-.032h0v-.23h0v-.033h0v-.238h0V68.2h0v-.247h0v-.035h0v-.257h0v-.035h0v-.264h0v-.039h0v-.594h0v-.039h0V50.32h0Z" transform="translate(-385.863 -29.056)" fill="#bddbe0"/>
      </g>
      <g id="Grupo_96919" data-name="Grupo 96919" transform="translate(10.634)">
        <path id="Trazado_212926" data-name="Trazado 212926" d="M390.115,72.815a7.336,7.336,0,0,1-4.744-1.892h0a15.179,15.179,0,0,1-3.613-4.855h0a35.381,35.381,0,0,1-3.211-15.455h0c.022-9,2.664-16.739,6.824-20.31h0a7.328,7.328,0,0,1,4.744-1.892h0a7.328,7.328,0,0,1,4.743,1.892h0a15.219,15.219,0,0,1,3.614,4.855h0a35.374,35.374,0,0,1,3.213,15.455h0c-.025,9-2.664,16.737-6.827,20.31h0a7.325,7.325,0,0,1-4.737,1.892h-.006Zm-3.533-41.081A13.353,13.353,0,0,0,383.435,36h0a33.565,33.565,0,0,0-3.015,14.617h0c-.026,8.618,2.691,15.993,6.163,18.88h0a5.455,5.455,0,0,0,3.533,1.447h0a5.449,5.449,0,0,0,3.533-1.447h0a13.387,13.387,0,0,0,3.148-4.262h0a33.557,33.557,0,0,0,3.015-14.618h0c.025-8.618-2.69-15.995-6.163-18.879h0a5.436,5.436,0,0,0-3.533-1.449h0a5.442,5.442,0,0,0-3.533,1.449Z" transform="translate(-378.547 -28.41)" fill="#bddbe0"/>
      </g>
      <g id="Grupo_96920" data-name="Grupo 96920" transform="translate(0 0)">
        <path id="Trazado_212927" data-name="Trazado 212927" d="M371.229,50.612a22.2,22.2,0,0,1,22.2-22.2h0a22.2,22.2,0,0,1,22.2,22.2h0a22.2,22.2,0,0,1-22.2,22.2h0a22.2,22.2,0,0,1-22.2-22.2Zm7.831-14.374A20.256,20.256,0,0,0,373.1,50.612h0a20.259,20.259,0,0,0,5.956,14.376h0a20.251,20.251,0,0,0,14.373,5.952h0A20.25,20.25,0,0,0,407.8,64.988h0a20.259,20.259,0,0,0,5.956-14.376h0A20.253,20.253,0,0,0,407.8,36.238h0a20.258,20.258,0,0,0-14.371-5.955h0a20.259,20.259,0,0,0-14.373,5.955Z" transform="translate(-371.229 -28.41)" fill="#bddbe0"/>
      </g>
      <g id="Grupo_96921" data-name="Grupo 96921" transform="translate(0.939 21.265)">
        <path id="Trazado_212928" data-name="Trazado 212928" d="M393.14,44.917H371.875V43.044H414.4v1.873Zm21.265-.936v0Zm0-.937v0Z" transform="translate(-371.875 -43.044)" fill="#bddbe0"/>
      </g>
      <path id="Trazado_212929" data-name="Trazado 212929" d="M407.27,36.7q.892-.449,1.684-.949-.514-.787-1.1-1.52c-3.69,2.268-9.508,3.826-16.04,3.807a33.591,33.591,0,0,1-14.621-3.015c-.435-.219-.852-.446-1.245-.684-.386.493-.751,1-1.09,1.529,4.108,2.521,10.173,4.027,16.956,4.045A35.425,35.425,0,0,0,407.27,36.7Z" transform="translate(-369.585 -25.771)" fill="#bddbe0"/>
      <path id="Trazado_212930" data-name="Trazado 212930" d="M391.842,49.189c-6.8.017-12.876,1.53-16.984,4.063.339.527.7,1.038,1.086,1.53.4-.244.828-.481,1.283-.7a33.579,33.579,0,0,1,14.616-3.017c6.558-.019,12.391,1.55,16.076,3.829a18.732,18.732,0,0,0,1.094-1.521c-.539-.34-1.107-.664-1.715-.968A35.371,35.371,0,0,0,391.842,49.189Z" transform="translate(-369.585 -18.995)" fill="#bddbe0"/>
    </g>
    <path id="Trazado_212931" data-name="Trazado 212931" d="M385.319,130.486l.007-1.09h.262c.391,0,.783-.007,1.176-.013h0l.025,1.087c-.4.009-.8.016-1.2.016h-.269Zm-4.4-.2.093-1.087q.715.059,1.434.1h0l-.058,1.088c-.491-.028-.981-.064-1.466-.1Zm8.714-1.043c.48-.038.959-.08,1.434-.126h0l.11,1.084c-.485.049-.975.092-1.463.128h0l-.081-1.085Zm-13.078.5.174-1.078c.472.08.946.15,1.424.217h0l-.145,1.081c-.488-.067-.971-.139-1.45-.219Zm17.368-1q.708-.109,1.415-.238h0l.195,1.072c-.478.087-.96.171-1.449.244h0l-.161-1.078Zm4.23-.834c.466-.109.93-.228,1.392-.353h0l.283,1.054q-.708.192-1.424.359h0l-.251-1.059Zm-30.132-.311.35-1.032c.45.155.91.3,1.366.446h0l-.324,1.04c-.467-.147-.933-.3-1.392-.455Zm34.278-.863c.458-.153.91-.31,1.362-.471h0l.369,1.026q-.687.246-1.389.48h0l-.342-1.035Zm-38.386-.729.44-1c.436.192.879.378,1.324.558h0l-.408,1.01q-.682-.277-1.356-.57Zm42.421-.792c.442-.187.879-.384,1.312-.581h0l.453.988c-.442.2-.891.4-1.341.6h0l-.429-1Zm-46.374-1.151.522-.958c.421.231.843.455,1.273.671h0l-.5.971c-.439-.222-.87-.452-1.3-.684Zm50.262-.708q.636-.338,1.258-.7h0l.541.946c-.424.244-.852.48-1.285.712h0l-.514-.962ZM356.2,121.79l.6-.9c.4.263.8.526,1.206.779h0l-.577.924c-.419-.262-.827-.527-1.234-.8Zm57.74-.616c.4-.263.8-.532,1.191-.8h0l.62.892q-.6.421-1.216.824h0l-.6-.913Zm-61.29-2,.687-.846c.369.3.748.594,1.129.885h0l-.66.868q-.584-.445-1.157-.907Zm64.788-.522c.376-.3.745-.6,1.112-.907h0l.7.83c-.371.317-.753.626-1.138.931h0l-.676-.854Zm1.109-.911,0,0h0l0,0Zm-69.186-1.5.764-.776c.34.333.689.663,1.039.99h0l-.737.8c-.363-.331-.716-.668-1.067-1.013Zm71.321-.413c.347-.333.686-.671,1.022-1.01h0l0,0,.782.763q-.512.525-1.045,1.035h0l-.756-.785ZM346.362,113l.837-.7c.308.371.619.734.94,1.09h0l-.812.727c-.328-.368-.65-.741-.965-1.116Zm77.271-.3q.462-.545.913-1.107h0l.853.68c-.31.384-.62.76-.942,1.135h0l-.824-.708Zm.91-1.109h0Zm-80.833-2.13.907-.607q.4.6.82,1.176h0l-.881.641c-.291-.4-.571-.8-.846-1.209Zm1.726.568h0v0Zm80.817-.734c.27-.392.533-.789.793-1.189h0l.916.584c-.262.413-.535.822-.811,1.225h0l-.9-.62Zm.791-1.19h0Zm-85.6-2.438.965-.507c.222.42.45.837.689,1.255h0l-.945.542q-.366-.641-.709-1.29Zm1.654.748h0v0l0,0Zm85.4-.776q.338-.628.658-1.27h0l.974.485c-.216.44-.442.873-.677,1.3h0l-.955-.519Zm-88.89-3.99,1.016-.4c.174.446.355.885.546,1.324h0l-1,.434c-.195-.452-.381-.9-.561-1.362Zm90.723.109c.18-.442.352-.883.517-1.333h0l1.023.369c-.166.464-.344.921-.529,1.376h0l-1.011-.413Zm-92.089-4.3,1.055-.279q.183.691.389,1.373h0l-1.04.318c-.144-.466-.277-.94-.4-1.412Zm93.478.24c.129-.456.247-.921.36-1.388h0l1.061.253c-.113.48-.238.955-.371,1.428h0l-1.051-.294Zm.357-1.388h0Zm-94.71-3.184,1.08-.153c.068.472.144.945.23,1.412h0l-1.071.2c-.09-.484-.166-.969-.238-1.456Zm95.265.378q.111-.7.193-1.42h0l1.081.128c-.055.49-.123.975-.2,1.46h0l-1.075-.169ZM337.013,88.72l1.09-.028c.009.48.031.956.061,1.433h0l-1.09.065c-.031-.488-.052-.975-.064-1.471Zm96.038.51c.019-.477.028-.952.028-1.433h0v-.356h0l1.09-.012c0,.125,0,.247,0,.368h0c0,.493-.012.984-.03,1.475h0l-1.09-.042Zm-94.909-3.4h0Zm-1.087-.057c.028-.491.061-.984.106-1.472h0l1.084.1c-.042.472-.076.949-.1,1.427h0l-1.087-.057Zm95.735-2.617,1.08-.137q.092.732.155,1.465h0l-1.084.094q-.063-.713-.151-1.423Zm-94.171-1.59h0Zm-1.071-.183c.081-.49.176-.971.276-1.453h0l1.067.225q-.148.7-.272,1.41h0l-1.071-.182ZM432,78.942v0l1.058-.259c.116.475.228.955.328,1.434h0l-1.068.222c-.1-.469-.206-.934-.318-1.4Zm-93.455-1.867c.138-.474.288-.945.443-1.408h0l1.035.349c-.155.45-.3.905-.433,1.367h0l-1.045-.308Zm92.185-2.229,1.023-.382c.17.462.331.923.485,1.389h0l-1.032.343q-.227-.678-.477-1.35Zm-90.694-1.933q.283-.678.6-1.346h0l.985.464c-.2.43-.4.868-.583,1.306h0l-1-.424Zm88.967-2,.968-.494c.224.439.44.879.648,1.325h0l-.993.458c-.2-.434-.408-.865-.623-1.289ZM341.983,68.95q.357-.641.738-1.27h0l.931.568c-.247.405-.488.818-.721,1.234h0l-.949-.532Zm84.87-1.758.913-.594c.267.411.53.827.785,1.251h0l-.934.561c-.249-.413-.5-.815-.763-1.218ZM344.34,65.226c.283-.4.573-.79.872-1.181h0l.865.663q-.434.569-.849,1.151h0l-.888-.632Zm79.973-1.511.846-.686c.311.381.616.769.913,1.16h0l-.87.657c-.289-.382-.583-.757-.888-1.131ZM347.072,61.77c.323-.366.654-.729.985-1.087h0l.8.744c-.327.349-.65.7-.962,1.064h0l-.821-.721Zm3.068-3.165c.357-.337.721-.666,1.09-.99h0l.718.818q-.541.475-1.062.965h0l-.745-.793Zm3.355-2.858c.388-.3.782-.594,1.178-.882h0l.638.882c-.384.28-.77.568-1.148.862h0l-.668-.862Zm3.608-2.533c.413-.263.83-.523,1.251-.773h0l.557.937c-.413.244-.818.5-1.222.754h0l-.586-.918Zm3.82-2.2c.433-.224.869-.443,1.312-.657h0l.472.984c-.433.206-.862.421-1.286.641h0l-.5-.968Zm3.992-1.856q.678-.281,1.365-.541h0l.388,1.016q-.674.257-1.337.532h0l-.416-1.007Zm4.136-1.508c.468-.15.936-.291,1.405-.427h0l.3,1.046c-.461.135-.921.272-1.376.419h0l-.331-1.038Zm4.247-1.161c.475-.106.956-.211,1.439-.308h0l.212,1.07c-.472.094-.939.195-1.407.3h0l-.244-1.062Zm4.329-.805c.482-.071.968-.135,1.453-.189h0l.128,1.08c-.478.058-.953.119-1.426.186h0l-.155-1.077Zm4.444.632L382,45.228c.485-.031.972-.058,1.465-.077h0l.041,1.09c-.482.019-.959.044-1.437.074h0Z" transform="translate(723.379 5730.657)" fill="#fff"/>
    <g id="Grupo_96923" data-name="Grupo 96923" transform="translate(1095.808 5739.145)">
      <path id="Trazado_212932" data-name="Trazado 212932" d="M433.994,64.7a19.558,19.558,0,0,0-1.691-3.854,35.576,35.576,0,0,0,.44-5.531c0-19.545-15.618-35.391-34.884-35.391s-34.887,15.846-34.887,35.391A35.943,35.943,0,0,0,363.444,61a20.384,20.384,0,0,0-1.654,3.8C360.968,67,361.5,77.7,362.5,79.158c1.841,2.665,6.86,4.75,10.05,5.157a1.934,1.934,0,0,0,1.62.634,1.893,1.893,0,0,0,1.744-2.024l-1.751-19.238a1.893,1.893,0,0,0-2.082-1.674,1.934,1.934,0,0,0-1.216.58c-.158-.019-.324-.039-.506-.052a4.87,4.87,0,0,1-3.246-2.476,31.6,31.6,0,0,1-.365-4.753c0-17.43,13.927-29.417,31.113-29.417s31.113,11.987,31.113,29.417A31.141,31.141,0,0,1,428.6,60.1a4.87,4.87,0,0,1-3.172,2.338c-.185.013-.347.031-.509.052a1.944,1.944,0,0,0-1.216-.583,1.894,1.894,0,0,0-2.079,1.675l-1.751,19.238a1.89,1.89,0,0,0,1.744,2.024,1.932,1.932,0,0,0,1.619-.632c3.19-.408,8.209-2.494,10.05-5.16C434.288,77.6,434.818,66.9,433.994,64.7Z" transform="translate(-361.385 -19.92)" fill="#003768"/>
      <path id="Trazado_212933" data-name="Trazado 212933" d="M421.067,55.834c-2.085-1.62-2.775,0-2.775,0-1.11,2-7.55,10.984-21.511,15a6.812,6.812,0,0,0-4.994-1.8c-3.134,0-5.676,1.5-5.676,3.355s2.542,3.357,5.676,3.357c3.116,0,5.642-1.489,5.664-3.332C402.306,70.962,414.493,66.425,421.067,55.834Z" transform="translate(-350.182 -3.973)" fill="#003768"/>
    </g>
    <g id="Grupo_96927" data-name="Grupo 96927" transform="translate(1052.97 5809.799)">
      <g id="Grupo_96924" data-name="Grupo 96924">
        <path id="Trazado_212934" data-name="Trazado 212934" d="M346.6,81.62c.577,1.2.372,1.686.1,1.953a10.044,10.044,0,0,0-3.02,4.5c-.557,1.877-.48,4,2.283,8.091,2.873,4.255,8.96,11.34,11.359,12.071s6.141-1.394,6.141-1.394a2.322,2.322,0,0,1,2.351.161l10.724,8.22a1.052,1.052,0,0,1,.061,1.735s-5.2,4.349-8.249,4.986-5.568.359-13.819-6.764-17.353-20.1-20.334-27.881c-2.912-7.609-3.3-9.819.333-13.81a28.254,28.254,0,0,1,5.343-4.755,1.148,1.148,0,0,1,1.723.573Z" transform="translate(-331.905 -68.543)" fill="#fff"/>
      </g>
      <g id="Grupo_96925" data-name="Grupo 96925" transform="translate(21.646 8.684)">
        <rect id="Rect치ngulo_40415" data-name="Rect치ngulo 40415" width="16.642" height="5.418" transform="translate(0 12.847) rotate(-37.209)" fill="#fff"/>
        <path id="Trazado_212935" data-name="Trazado 212935" d="M365.247,74.653l-3.389,11.482-8.821-11.616Z" transform="translate(-343.976 -74.519)" fill="#fff"/>
      </g>
      <g id="Grupo_96926" data-name="Grupo 96926" transform="translate(41.848 7.607)">
        <rect id="Rect치ngulo_40416" data-name="Rect치ngulo 40416" width="22.714" height="7.396" transform="translate(6.67 13.35) rotate(-35.998)" fill="#cee6ef"/>
        <path id="Trazado_212936" data-name="Trazado 212936" d="M360.7,94.265l4.96-15.572,11.7,16.107Z" transform="translate(-360.704 -71.55)" fill="#cee6ef"/>
      </g>
    </g>
    <g id="Grupo_96929" data-name="Grupo 96929" transform="translate(1141.698 5819.72)">
      <path id="Trazado_212937" data-name="Trazado 212937" d="M405.384,75.37c6.857,0,12.418,4.542,12.418,10.146a9.358,9.358,0,0,1-3.891,7.364l1.468,6.115-4.715-4.3a14.686,14.686,0,0,1-5.279.972c-6.859,0-12.418-4.542-12.418-10.147S398.526,75.37,405.384,75.37Z" transform="translate(-392.966 -75.37)" fill="#f74d11"/>
      <g id="Grupo_96928" data-name="Grupo 96928" transform="translate(7.51 5.985)">
        <path id="Trazado_212938" data-name="Trazado 212938" d="M401.438,81.595a1.165,1.165,0,0,0-1.237-1.238,1.943,1.943,0,0,0-1.468.74l-.6-.548a2.8,2.8,0,0,1,2.142-1.059,1.975,1.975,0,0,1,2.181,2.042c0,1.67-2.053,2.345-1.848,4.131h-.918C399.411,83.673,401.438,82.945,401.438,81.595Zm-1.263,5.138a.8.8,0,0,1,0,1.607.805.805,0,0,1,0-1.607Z" transform="translate(-398.134 -79.489)" fill="#fff"/>
        <path id="Trazado_212939" data-name="Trazado 212939" d="M403.044,86.685a.8.8,0,1,1-.767.817A.769.769,0,0,1,403.044,86.685Zm-.511-5.892-.026-1.2h1.059l-.026,1.2-.14,4.821h-.728Z" transform="translate(-396.257 -79.441)" fill="#fff"/>
      </g>
    </g>
    <g id="Grupo_96934" data-name="Grupo 96934" transform="translate(1123.059 5829.553)">
      <ellipse id="Elipse_5361" data-name="Elipse 5361" cx="11.902" cy="8.476" rx="11.902" ry="8.476" transform="translate(4.313 5.872)" fill="#bddbe0"/>
      <g id="Grupo_96933" data-name="Grupo 96933" transform="translate(0 0)">
        <path id="Trazado_212940" data-name="Trazado 212940" d="M396.029,82.137c-8.775,0-15.89,6.426-15.89,14.35a13.483,13.483,0,0,0,3.594,9.086l-2.225,7.488,6.9-3.982a17.149,17.149,0,0,0,7.62,1.758c8.774,0,15.887-6.426,15.887-14.351S404.8,82.137,396.029,82.137Zm-5.917,8.326H401.6a.379.379,0,0,1,0,.759H390.112a.379.379,0,1,1,0-.759Zm14.27,9.846H387.329c-.311,0-.561-.17-.561-.379s.25-.379.561-.379h17.052c.31,0,.561.17.561.379S404.691,100.31,404.381,100.31Zm0-2.524H387.329c-.311,0-.561-.17-.561-.379s.25-.379.561-.379h17.052c.31,0,.561.17.561.379S404.691,97.786,404.381,97.786Zm0-2.775H387.329c-.311,0-.561-.171-.561-.381s.25-.378.561-.378h17.052c.31,0,.561.169.561.378S404.691,95.01,404.381,95.01Z" transform="translate(-380.139 -82.137)" fill="#185f93"/>
        <g id="Grupo_96932" data-name="Grupo 96932">
          <g id="Grupo_96931" data-name="Grupo 96931">
            <g id="Grupo_96930" data-name="Grupo 96930">
              <path id="Trazado_212941" data-name="Trazado 212941" d="M380.139,96.487a13.483,13.483,0,0,0,3.594,9.086l-2.225,7.488,6.9-3.982a17.149,17.149,0,0,0,7.62,1.758c.035,0,.065,0,.1,0V100.31h-8.8c-.311,0-.561-.17-.561-.379s.25-.379.561-.379h8.8V97.786h-8.8c-.311,0-.561-.17-.561-.379s.25-.379.561-.379h8.8V95.01h-8.8c-.311,0-.561-.171-.561-.381s.25-.378.561-.378h8.8v-3.03h-6.017a.379.379,0,1,1,0-.759h6.017V82.141c-.035,0-.065,0-.1,0C387.253,82.137,380.139,88.563,380.139,96.487Z" transform="translate(-380.139 -82.137)" fill="#003768"/>
            </g>
          </g>
        </g>
      </g>
    </g>
    <g id="Grupo_96938" data-name="Grupo 96938" transform="translate(1052.474 5756.294)">
      <g id="Grupo_96935" data-name="Grupo 96935">
        <path id="Trazado_212942" data-name="Trazado 212942" d="M362.173,31.722H333.811a2.247,2.247,0,0,0-2.247,2.248V54.353c.683,15.984,15.355,6.328,15.355,14.021,0,.424-.025.841-.065,1.255h3.136L361,76.323l-1.768-6.693h2.944a2.246,2.246,0,0,0,2.247-2.247V33.97A2.247,2.247,0,0,0,362.173,31.722Z" transform="translate(-331.564 -31.722)" fill="#ff8b0d"/>
      </g>
      <g id="Grupo_96936" data-name="Grupo 96936">
        <path id="Trazado_212943" data-name="Trazado 212943" d="M347.813,31.722h-14a2.247,2.247,0,0,0-2.247,2.248v33.4a2.246,2.246,0,0,0,2.247,2.247h13.9c-.041-.413-.065-.83-.065-1.253Z" transform="translate(-331.564 -31.722)" fill="#f74d11"/>
      </g>
      <g id="Grupo_96937" data-name="Grupo 96937" transform="translate(13.63 8.707)">
        <path id="Trazado_212944" data-name="Trazado 212944" d="M344.974,57.415h-3.8V42.755h3.8Zm.285-16.911c0,.416-.283.638-.743.638H341.73c-.459,0-.786-.25-.786-.638v-2.1c0-.414.262-.692.786-.692h2.786a.668.668,0,0,1,.743.692Z" transform="translate(-340.944 -37.714)" fill="#fff"/>
      </g>
    </g>
  </g>
</svg>
