<svg xmlns="http://www.w3.org/2000/svg" xmlns:xlink="http://www.w3.org/1999/xlink" width="400" height="337.557" viewBox="0 0 400 337.557">
  <defs>
    <clipPath id="clip-path">
      <path id="Trazado_212023" data-name="Trazado 212023" d="M94.493,352.461H66.028l6.419,52.64h42.2l6.419-52.64Z" transform="translate(-66.028 -352.461)" fill="none"/>
    </clipPath>
  </defs>
  <g id="Grupo_97273" data-name="Grupo 97273" transform="translate(-1020 -3476)">
    <rect id="Rectángulo_39915" data-name="Rectángulo 39915" width="375.586" height="13.765" rx="6.882" transform="translate(1037.757 3799.792)" fill="#666" opacity="0.12"/>
    <path id="Trazado_211944" data-name="Trazado 211944" d="M90.286,145.584a63.228,63.228,0,0,0,8.136,17.489c12.427,19.319,9.153,30.961-5.98,40.92a49.5,49.5,0,1,0,68.842,67.833l0,.013c15.588-24.848,30.694-25.484,49.047-13.97v-.009a36.559,36.559,0,1,0,27.109-66.712c-19.6-4.471-32.217-15.3-24.63-49.321a63.3,63.3,0,1,0-122.526,3.757Z" transform="translate(981.825 3411.406)" fill="#bbabf5" opacity="0.25"/>
    <path id="Trazado_211945" data-name="Trazado 211945" d="M429.324,283.244A73.963,73.963,0,0,0,414.676,266.1c-20.055-17.863-20.02-32-6.1-47.966a57.87,57.87,0,1,0-98.814-54.812l-.007-.014c-9.763,32.876-26.579,38.329-50.861,31.118l0,.009a42.744,42.744,0,1,0-9.613,83.642c23.479-1.112,41.086,7.132,43.21,47.827a74.005,74.005,0,1,0,136.826-42.658Z" transform="translate(979.573 3410.444)" fill="#bbabf5" opacity="0.25"/>
    <path id="Trazado_211946" data-name="Trazado 211946" d="M125.94,387.469A57.74,57.74,0,0,0,139.3,376.006c13.911-15.685,24.95-15.68,37.435-4.838a45.177,45.177,0,1,0,42.629-77.228l.011,0c-25.68-7.569-29.965-20.688-24.375-39.656l-.008,0a33.368,33.368,0,1,0-65.311-7.367c.906,18.327-5.5,32.086-37.267,33.81A57.773,57.773,0,1,0,125.94,387.469Z" transform="translate(982.366 3408.94)" fill="#a4d6f1"/>
    <path id="Trazado_211947" data-name="Trazado 211947" d="M335.226,79.646A57.734,57.734,0,0,0,319.782,88.1c-16.855,12.468-27.654,10.18-37.626-3.009a45.177,45.177,0,1,0-57.68,66.742l-.011,0c23.56,12.717,25.038,26.438,15.646,43.839l.008,0a33.368,33.368,0,1,0,62.375,20.717c2.9-18.119,12.019-30.255,43.453-25.372a57.773,57.773,0,1,0-10.72-111.371Z" transform="translate(979.628 3411.367)" fill="#bbabf5" opacity="0.25"/>
    <g id="Grupo_94923" data-name="Grupo 94923" transform="translate(1086.792 3527.526)">
      <rect id="Rectángulo_39916" data-name="Rectángulo 39916" width="231.785" height="264.978" rx="11.762" transform="translate(0 16.085)" fill="#fd8f25"/>
      <path id="Trazado_211948" data-name="Trazado 211948" d="M121.559,148.129l202.956-2.33,1.971,244.922-204.927.253Z" transform="translate(-105.834 -117.484)" fill="#d97429" fill-rule="evenodd"/>
      <path id="Trazado_211949" data-name="Trazado 211949" d="M118.894,145.8H324.471V388.645H118.894Z" transform="translate(-105.79 -117.484)" fill="#fff" fill-rule="evenodd"/>
      <path id="Trazado_211950" data-name="Trazado 211950" d="M209.8,117h25.77l1.411,10.264h25.67a4.162,4.162,0,0,1,4.149,4.15v23.8H178.57v-23.8a4.162,4.162,0,0,1,4.15-4.15h25.669L209.8,117Zm12.886,2.729h0a2.985,2.985,0,1,0,2.984,2.985A2.985,2.985,0,0,0,222.685,119.729Z" transform="translate(-106.792 -117)" fill="#3e3a39" fill-rule="evenodd"/>
      <path id="Trazado_211951" data-name="Trazado 211951" d="M280.463,184.526h23.764V208.29H280.463V184.526Zm25.568-1.8H278.66v27.372h27.372Z" transform="translate(-108.472 -118.104)" fill="#3e3a39" fill-rule="evenodd"/>
      <path id="Trazado_211952" data-name="Trazado 211952" d="M280.463,233.912h23.764v23.763H280.463V233.912Zm25.568-1.8H278.66V259.48h27.372Z" transform="translate(-108.472 -118.933)" fill="#3e3a39" fill-rule="evenodd"/>
      <path id="Trazado_211953" data-name="Trazado 211953" d="M280.463,283.3h23.764v23.764H280.463V283.3Zm25.568-1.8H278.66v27.372h27.372Z" transform="translate(-108.472 -119.762)" fill="#3e3a39" fill-rule="evenodd"/>
      <path id="Trazado_211954" data-name="Trazado 211954" d="M280.463,332.683h23.764v23.764H280.463V332.683Zm25.568-1.8H278.66v27.372h27.372Z" transform="translate(-108.472 -120.591)" fill="#3e3a39" fill-rule="evenodd"/>
      <g id="Grupo_94922" data-name="Grupo 94922" transform="translate(24.37 71.059)">
        <rect id="Rectángulo_39917" data-name="Rectángulo 39917" width="119.24" height="2.621" rx="1.31" fill="#595857"/>
        <rect id="Rectángulo_39918" data-name="Rectángulo 39918" width="119.24" height="2.621" rx="1.31" transform="translate(0 6.697)" fill="#595857"/>
        <rect id="Rectángulo_39919" data-name="Rectángulo 39919" width="55.616" height="2.621" rx="1.31" transform="translate(0 13.395)" fill="#595857"/>
      </g>
      <rect id="Rectángulo_39920" data-name="Rectángulo 39920" width="119.24" height="2.621" rx="1.31" transform="translate(24.37 119.396)" fill="#595857"/>
      <rect id="Rectángulo_39921" data-name="Rectángulo 39921" width="119.24" height="2.621" rx="1.31" transform="translate(24.37 126.093)" fill="#595857"/>
      <rect id="Rectángulo_39922" data-name="Rectángulo 39922" width="72.942" height="2.621" rx="1.31" transform="translate(24.37 132.79)" fill="#595857"/>
      <path id="Trazado_211955" data-name="Trazado 211955" d="M131.663,287.6H248.282a1.311,1.311,0,0,1,1.311,1.311h0a1.311,1.311,0,0,1-1.311,1.311H131.663a1.311,1.311,0,0,1-1.311-1.311h0A1.311,1.311,0,0,1,131.663,287.6Z" transform="translate(-105.982 -119.864)" fill="#595857" fill-rule="evenodd"/>
      <path id="Trazado_211956" data-name="Trazado 211956" d="M131.663,294.408H248.282a1.311,1.311,0,0,1,1.311,1.311h0a1.311,1.311,0,0,1-1.311,1.311H131.663a1.311,1.311,0,0,1-1.311-1.311h0A1.311,1.311,0,0,1,131.663,294.408Z" transform="translate(-105.982 -119.979)" fill="#595857" fill-rule="evenodd"/>
      <rect id="Rectángulo_39923" data-name="Rectángulo 39923" width="88.813" height="2.621" rx="1.31" transform="translate(24.37 181.127)" fill="#595857"/>
      <rect id="Rectángulo_39924" data-name="Rectángulo 39924" width="119.24" height="2.621" rx="1.31" transform="translate(24.37 216.069)" fill="#595857"/>
      <path id="Trazado_211957" data-name="Trazado 211957" d="M131.663,343.57H248.282a1.311,1.311,0,0,1,1.311,1.311h0a1.311,1.311,0,0,1-1.311,1.311H131.663a1.311,1.311,0,0,1-1.311-1.311h0A1.311,1.311,0,0,1,131.663,343.57Z" transform="translate(-105.982 -120.804)" fill="#595857" fill-rule="evenodd"/>
      <path id="Trazado_211958" data-name="Trazado 211958" d="M131.663,350.382h28.247a1.31,1.31,0,0,1,1.31,1.311h0a1.309,1.309,0,0,1-1.31,1.31H131.663a1.31,1.31,0,0,1-1.311-1.31h0A1.311,1.311,0,0,1,131.663,350.382Z" transform="translate(-105.982 -120.919)" fill="#595857" fill-rule="evenodd"/>
      <rect id="Rectángulo_39925" data-name="Rectángulo 39925" width="41.714" height="4.249" rx="1.333" transform="translate(24.37 64.943)" fill="#835f70"/>
      <rect id="Rectángulo_39926" data-name="Rectángulo 39926" width="41.714" height="4.249" rx="1.333" transform="translate(24.37 113.183)" fill="#835f70"/>
      <rect id="Rectángulo_39927" data-name="Rectángulo 39927" width="41.714" height="4.249" rx="1.333" transform="translate(24.37 161.424)" fill="#835f70"/>
      <rect id="Rectángulo_39928" data-name="Rectángulo 39928" width="41.714" height="4.249" rx="1.333" transform="translate(24.37 209.664)" fill="#835f70"/>
      <path id="Trazado_211959" data-name="Trazado 211959" d="M280.494,233.943v23.764h23.764V233.943h-.964l-11.5,20.945-10.3-16.673s8.9,7.282,9.143,7.778c.125.249,5-5.876,9.841-12.05Z" transform="translate(-108.503 -118.964)" fill="#fbddad" fill-rule="evenodd"/>
      <path id="Trazado_211960" data-name="Trazado 211960" d="M280.494,208.321h23.764V184.557h-.964L291.8,205.5l-10.3-16.672s8.9,7.282,9.143,7.778c.125.249,5-5.876,9.841-12.051H280.494Z" transform="translate(-108.503 -118.134)" fill="#fbddad" fill-rule="evenodd"/>
      <path id="Trazado_211961" data-name="Trazado 211961" d="M300.477,283.328H280.494v23.764h23.764V283.328h-.964l-11.5,20.945-10.3-16.672s8.9,7.282,9.143,7.778C290.761,295.628,295.638,289.5,300.477,283.328Z" transform="translate(-108.503 -119.793)" fill="#fbddad" fill-rule="evenodd"/>
      <path id="Trazado_211962" data-name="Trazado 211962" d="M300.477,332.714H280.494v23.764h23.764V332.714h-.964l-11.5,20.945-10.3-16.672s8.9,7.282,9.143,7.777C290.761,345.013,295.638,338.89,300.477,332.714Z" transform="translate(-108.503 -120.622)" fill="#fbddad" fill-rule="evenodd"/>
      <path id="Trazado_211963" data-name="Trazado 211963" d="M281.51,188.619l10.3,16.672,18.285-33.3s-19.2,24.906-19.444,24.409S281.51,188.619,281.51,188.619Z" transform="translate(-108.52 -117.923)" fill="#c1272d" fill-rule="evenodd"/>
      <path id="Trazado_211964" data-name="Trazado 211964" d="M281.51,238l10.3,16.673,18.285-33.3s-19.2,24.9-19.444,24.408S281.51,238,281.51,238Z" transform="translate(-108.52 -118.752)" fill="#c1272d" fill-rule="evenodd"/>
      <path id="Trazado_211965" data-name="Trazado 211965" d="M281.51,287.39l10.3,16.672,18.285-33.3s-19.2,24.9-19.444,24.408S281.51,287.39,281.51,287.39Z" transform="translate(-108.52 -119.582)" fill="#c1272d" fill-rule="evenodd"/>
      <path id="Trazado_211966" data-name="Trazado 211966" d="M281.51,336.776l10.3,16.672,18.285-33.3s-19.2,24.9-19.444,24.408S281.51,336.776,281.51,336.776Z" transform="translate(-108.52 -120.411)" fill="#c1272d" fill-rule="evenodd"/>
    </g>
    <g id="Grupo_94925" data-name="Grupo 94925" transform="translate(1286.344 3530.527)">
      <path id="Trazado_211967" data-name="Trazado 211967" d="M416.122,183.655c.4-.664,1.644-3.481,1.644-3.481l-1.956-14.9-4.268,4.837,2.191,14.336Z" transform="translate(-310.256 -120.812)" fill="#fad9c7" fill-rule="evenodd"/>
      <path id="Trazado_211968" data-name="Trazado 211968" d="M357.2,155.142c-.993.11-5.21-1.058-9.393,4.985s-.805,8.765-2.528,11.336c-3.769,5.626-1.665,9.22.72,17.133,1.272,4.224-5.968,6.25-1.492,14.739a6.386,6.386,0,0,1,.111,4.851L361.7,220.028l21.823-8.852,1.262-11.781a17.081,17.081,0,0,1-2.645-9.846c.441-5.294,2.759-5.624,1.766-10.366s-3.2-4.963-2.98-7.169c.968-9.678-.732-6.264-2.594-12.076-.883-2.757-3.381-4.818-5.147-6.225S357.2,155.142,357.2,155.142Z" transform="translate(-309.106 -120.611)" fill="#391206" fill-rule="evenodd"/>
      <path id="Trazado_211969" data-name="Trazado 211969" d="M314.818,214.659c.938-.248,1.835-1.314,2.7-1.967s.752-2.061,1.249-4.048a1.807,1.807,0,0,0-1.49-2.317s-.055-9.105-1.1-9.05-1.689,7.044-1.689,7.044l-.055,1.379s-2.919.021-3.995,1.4a3.733,3.733,0,0,0-.663,3.449c.38,1.574,1.25,3.476,2.676,4.056A3.085,3.085,0,0,0,314.818,214.659Z" transform="translate(-308.544 -121.349)" fill="#f4c5ac" fill-rule="evenodd"/>
      <path id="Trazado_211970" data-name="Trazado 211970" d="M313.7,204.425c.249.3,2.125,3.477,1.821,4.249s-.993,1.379-1.931-.275-1.793-2.787-1.683-3.533,1.021-.883,1.269-.855S313.7,204.425,313.7,204.425Z" transform="translate(-308.583 -121.462)" fill="#fad9c7" fill-rule="evenodd"/>
      <path id="Trazado_211971" data-name="Trazado 211971" d="M311.761,205.043c.248.3,2.125,3.477,1.821,4.249s-.993,1.379-1.932-.276-1.793-2.787-1.683-3.532,1.022-.883,1.269-.855S311.761,205.043,311.761,205.043Z" transform="translate(-308.55 -121.472)" fill="#fad9c7" fill-rule="evenodd"/>
      <path id="Trazado_211972" data-name="Trazado 211972" d="M310.329,206.67c.249.3,2.125,3.478,1.822,4.249s-.994,1.38-1.932-.275-1.793-2.787-1.683-3.533,1.021-.883,1.269-.855S310.329,206.67,310.329,206.67Z" transform="translate(-308.526 -121.5)" fill="#fad9c7" fill-rule="evenodd"/>
      <path id="Trazado_211973" data-name="Trazado 211973" d="M316.342,212.842c-1.294-.519.671-4.032.439-3.822-1.739,1.58-3.263,1.415-2.129-.112s1.824-2.767,2.55-2.967,1.689.935,1.764,1.174C319.677,209.366,318.774,213.817,316.342,212.842Z" transform="translate(-308.623 -121.494)" fill="#fad9c7" fill-rule="evenodd"/>
      <path id="Trazado_211974" data-name="Trazado 211974" d="M337.443,202.137c2.74,2.211,8.925,14.317,8.925,14.317-2.255,1.1-13.569,30.978-22.351,30.052-7.479-1.664-9.769-19.673-12.019-31.817,1.861-.749,3.659-1.043,5.557-1.915a199.42,199.42,0,0,0,8.418,21.248C326.371,233.5,333.485,204.923,337.443,202.137Z" transform="translate(-308.585 -121.43)" fill="#231916" fill-rule="evenodd"/>
      <path id="Trazado_211975" data-name="Trazado 211975" d="M345.271,262.071a67.77,67.77,0,0,1-5.968,11.754c-7.46,18.984-1.881,22.841-1.681,60.6,0,0-3.037,17.7-3.029,59.513l7.857-.028c3.1-16.321,6.636-39.14,9.764-58.987,3.589-22.773,6.64-41.635,7.872-42.289,2.962.57,8.832,65.634,12.371,101.5l7.879-.138c.462-26.806,2.609-39.687.04-56.812,1.35-39.218,9.53-46.718,1.783-64.417L378.893,261.9Z" transform="translate(-308.964 -122.434)" fill="#231916" fill-rule="evenodd"/>
      <path id="Trazado_211976" data-name="Trazado 211976" d="M349.821,177.216a72.413,72.413,0,0,1-1.643-9.346c0-.6,1.663-4.452.432-5.044-2.433-1.17,1.977-11.107,12.345-8.731,1.185.271,8.085-7.384,15.191,2.835,1.656,2.38.986,6.14.986,6.14s-1.841-.941-1.31,2.245.5,9.618-.182,10.617C375.534,176.088,351.04,181.163,349.821,177.216Z" transform="translate(-309.188 -120.582)" fill="#391206" fill-rule="evenodd"/>
      <path id="Trazado_211977" data-name="Trazado 211977" d="M382.721,205.373a29.074,29.074,0,0,0,6.7-5.116l20.953,6.976.142-25.45,6.77-1.354c.674,11.087,1.863,13.916,2.538,25,.523,8.61-.529,14.637-9.51,13.212l-25.418-4.033Z" transform="translate(-309.772 -121.066)" fill="#231916" fill-rule="evenodd"/>
      <path id="Trazado_211978" data-name="Trazado 211978" d="M372.153,198.789l-18.028-.442c-5.939,2-10.309,1.725-16.247,3.726,1.319,8.562,2.151,11.841,2.758,19.924,1.609,21.423,8.412,26.595-1.278,50.761,11.93-.277,30.925-.775,42.855-1.052-5.833-26.378.434-34.7,6.451-71.148Z" transform="translate(-309.019 -121.367)" fill="#231916" fill-rule="evenodd"/>
      <path id="Trazado_211979" data-name="Trazado 211979" d="M377.654,198.5l9.023,10.476s-10.569,7.089-9.41,7.31,5.022,3.145,5.022,3.145l-17.356,9.63,9.486-27.374Z" transform="translate(-309.473 -121.369)" fill="#302623" fill-rule="evenodd"/>
      <path id="Trazado_211980" data-name="Trazado 211980" d="M351.841,198.5l-9.022,10.476s10.569,7.089,9.409,7.31-5.022,3.145-5.022,3.145l17.356,9.63-9.485-27.374Z" transform="translate(-309.102 -121.369)" fill="#302623" fill-rule="evenodd"/>
      <path id="Trazado_211981" data-name="Trazado 211981" d="M371.413,199.821l5.272-.57-11.973,29.8-13-29.022,4.84-1.631,8.472,21.017Z" transform="translate(-309.251 -121.368)" fill="#eeeeef" fill-rule="evenodd"/>
      <path id="Trazado_211982" data-name="Trazado 211982" d="M356.591,179.417c3.1,9.916.094,18.649-3.054,18.813l11.519,20.851c2.7-5.746,8.07-16.452,9.72-20.376-4.817.9-5.117-9.856-3.5-20.533Z" transform="translate(-309.282 -121.028)" fill="#f2bda1" fill-rule="evenodd"/>
      <path id="Trazado_211983" data-name="Trazado 211983" d="M364.129,193.775c-16.236,1.352-16.1-25.244-12.5-29.8.589-.746,10.654,1.176,20.81-2.939C377.445,172.7,378.02,192.618,364.129,193.775Z" transform="translate(-309.217 -120.74)" fill="#fad9c7" fill-rule="evenodd"/>
      <path id="Trazado_211984" data-name="Trazado 211984" d="M348.663,172.411c1.595-.344,3.345,1.5,3.908,4.114s-.27,5.015-1.865,5.359-3.345-1.5-3.909-4.113S347.068,172.755,348.663,172.411Z" transform="translate(-309.166 -120.931)" fill="#fad9c7" fill-rule="evenodd"/>
      <path id="Trazado_211985" data-name="Trazado 211985" d="M376.012,168.859c1.631-.012,2.969,2.147,2.989,4.824s-1.287,4.854-2.918,4.866-2.969-2.147-2.989-4.824S374.381,168.871,376.012,168.859Z" transform="translate(-309.61 -120.872)" fill="#fad9c7" fill-rule="evenodd"/>
      <path id="Trazado_211986" data-name="Trazado 211986" d="M349.657,166.462s1.2,10.261,1.312,10.868-.211,1.089-.316.639l-1.726-7.492Z" transform="translate(-309.205 -120.831)" fill="#391206" fill-rule="evenodd"/>
      <path id="Trazado_211987" data-name="Trazado 211987" d="M374.083,163.15s1.574,10.063,1.628,10.672.495.955.475.495l-.327-7.634Z" transform="translate(-309.627 -120.776)" fill="#391206" fill-rule="evenodd"/>
      <path id="Trazado_211988" data-name="Trazado 211988" d="M368.817,185.519l-9.549.33a4.882,4.882,0,0,0,9.549-.33Z" transform="translate(-309.378 -121.151)" fill="#fff" fill-rule="evenodd"/>
      <path id="Trazado_211989" data-name="Trazado 211989" d="M342.036,395.7s1.031,2.208,1.951,3.693a5.346,5.346,0,0,1,.636,3.279h-13.5s-.389-.627.636-2.4,2.423-4.549,2.423-4.549c1.646-1.244,2.836-2.844,5.025-1.868A16.788,16.788,0,0,1,342.036,395.7Z" transform="translate(-308.904 -124.645)" fill="#2a1e1d" fill-rule="evenodd"/>
      <path id="Trazado_211990" data-name="Trazado 211990" d="M373.058,395.589s-1.032,2.208-1.952,3.693a5.354,5.354,0,0,0-.636,3.279l17.485.066s.389-.627-.636-2.4-6.4-4.616-6.4-4.616c-1.647-1.244-2.836-2.843-5.025-1.868A16.857,16.857,0,0,0,373.058,395.589Z" transform="translate(-309.566 -124.643)" fill="#2a1e1d" fill-rule="evenodd"/>
      <path id="Trazado_211991" data-name="Trazado 211991" d="M372.569,199.743l-3.48,2.36-3.836,17.339,8.846-15.751Z" transform="translate(-309.479 -121.39)" fill="#dbdcdc" fill-rule="evenodd"/>
      <path id="Trazado_211992" data-name="Trazado 211992" d="M373.852,195.6c-.673.283-4.7,6.43-4.7,6.43l10.021,6.288-2.2-9.116Z" transform="translate(-309.544 -121.321)" fill="#fff" fill-rule="evenodd"/>
      <path id="Trazado_211993" data-name="Trazado 211993" d="M355.845,199.743l3.709,2.36,5.522,17.339L354.7,203.692Z" transform="translate(-309.302 -121.39)" fill="#dbdcdc" fill-rule="evenodd"/>
      <path id="Trazado_211994" data-name="Trazado 211994" d="M354.155,195.6c.7.283,5.322,6.43,5.322,6.43l-9.41,6.288,1.312-9.116Z" transform="translate(-309.224 -121.321)" fill="#fff" fill-rule="evenodd"/>
      <path id="Trazado_211995" data-name="Trazado 211995" d="M344.38,250.985c-3.559,18.6-12.45,28.594-10.574,29.255s7.285,4.3,14.128,1.436a46.8,46.8,0,0,0,12.472-8.279l-3.532-19.425Z" transform="translate(-308.946 -122.251)" fill="#231916" fill-rule="evenodd"/>
      <path id="Trazado_211996" data-name="Trazado 211996" d="M380.472,249.175c3.559,18.6,12.45,28.593,10.574,29.255s-7.285,4.3-14.128,1.435a46.8,46.8,0,0,1-12.473-8.278l3.533-19.425Z" transform="translate(-309.465 -122.22)" fill="#231916" fill-rule="evenodd"/>
      <path id="Trazado_211997" data-name="Trazado 211997" d="M359.993,172.048c-1.617.017-7.517.442-7.414.249a6.007,6.007,0,0,1,3.1-1.042,18.488,18.488,0,0,1,4.158-.088C360.538,171.243,360.566,172.083,359.993,172.048Z" transform="translate(-309.266 -120.909)" fill="#401027" fill-rule="evenodd"/>
      <path id="Trazado_211998" data-name="Trazado 211998" d="M362.658,156.74s3.339,4.225-1.749,10.979S346.4,177.982,346.4,177.982s-1.34-9.235-.4-12.871,7.733-9.163,10.862-9.694A8.677,8.677,0,0,1,362.658,156.74Z" transform="translate(-309.15 -120.644)" fill="#391206" fill-rule="evenodd"/>
      <path id="Trazado_211999" data-name="Trazado 211999" d="M358.42,157.621s-1.879,4.865,4.832,9.615,16.511,5.251,16.511,5.251-1.443-8.906-3.38-11.985-9.874-6.2-12.945-5.785A8.505,8.505,0,0,0,358.42,157.621Z" transform="translate(-309.36 -120.634)" fill="#391206" fill-rule="evenodd"/>
      <g id="Grupo_94924" data-name="Grupo 94924" transform="translate(75.582)">
        <path id="Trazado_212000" data-name="Trazado 212000" d="M397.652,154.752l18.967,1.08L405.254,377.1l-18.966-1.08Z" transform="translate(-385.414 -120.635)" fill="#fbce4d" fill-rule="evenodd"/>
        <rect id="Rectángulo_39929" data-name="Rectángulo 39929" width="6.462" height="18.997" transform="matrix(0.053, -0.999, 0.999, 0.053, 0.55, 261.443)" fill="#fbe1cd"/>
        <path id="Trazado_212001" data-name="Trazado 212001" d="M385.949,385.96l18.97,1.014-.545,10.854a4.3,4.3,0,0,1-4.507,4.049l-10.412-.557a4.3,4.3,0,0,1-4.05-4.507Z" transform="translate(-385.399 -124.517)" fill="#e8470b" fill-rule="evenodd"/>
        <path id="Trazado_212002" data-name="Trazado 212002" d="M409.182,120.052l3.815,17.6,3.815,17.6-9.485-.507-9.485-.507,5.67-17.091Z" transform="translate(-385.608 -120.052)" fill="#f5b17a" fill-rule="evenodd"/>
        <path id="Trazado_212003" data-name="Trazado 212003" d="M409.315,120.052l-3.553,10.711,5.944.318Z" transform="translate(-385.741 -120.052)" fill="#3e3a39" fill-rule="evenodd"/>
        <path id="Trazado_212004" data-name="Trazado 212004" d="M413.144,137.836l-1.424-6.57-3.244-.173-1.871,23.788,10.354.554Z" transform="translate(-385.755 -120.238)" fill="#f7c193" fill-rule="evenodd"/>
        <path id="Trazado_212005" data-name="Trazado 212005" d="M416.766,155.84l-10.352-.589L395.088,375.765l10.352.589Z" transform="translate(-385.561 -120.643)" fill="#ffe07b" fill-rule="evenodd"/>
        <path id="Trazado_212006" data-name="Trazado 212006" d="M405.42,380.419l-10.354-.554-.025.463-.32,5.99,10.354.554.32-5.99Z" transform="translate(-385.555 -124.415)" fill="#f6f3f2" fill-rule="evenodd"/>
        <path id="Trazado_212007" data-name="Trazado 212007" d="M405.062,386.982l-10.354-.554-.773,15.132,6.075.324a4.3,4.3,0,0,0,4.507-4.049Z" transform="translate(-385.542 -124.525)" fill="#eb6b36" fill-rule="evenodd"/>
        <path id="Trazado_212008" data-name="Trazado 212008" d="M408.508,130.908l3.244.173-2.391-11.029Z" transform="translate(-385.787 -120.052)" fill="#424040" fill-rule="evenodd"/>
      </g>
      <path id="Trazado_212009" data-name="Trazado 212009" d="M417.5,171.988c1.317.6,1.424-1.083.841-2.3s-5.539-2.816-6.129-1.758C411.109,169.9,416.179,171.384,417.5,171.988Z" transform="translate(-310.264 -120.85)" fill="#f2bda1" fill-rule="evenodd"/>
      <path id="Trazado_212010" data-name="Trazado 212010" d="M417.056,174.2c1.318.6,1.424-1.083.841-2.3s-5.539-2.816-6.128-1.758C410.669,172.116,415.738,173.6,417.056,174.2Z" transform="translate(-310.257 -120.887)" fill="#f2bda1" fill-rule="evenodd"/>
      <path id="Trazado_212011" data-name="Trazado 212011" d="M416.8,176.878c1.318.6,1.424-1.083.842-2.3s-5.54-2.816-6.129-1.758C410.412,174.791,415.482,176.274,416.8,176.878Z" transform="translate(-310.253 -120.932)" fill="#f2bda1" fill-rule="evenodd"/>
      <path id="Trazado_212012" data-name="Trazado 212012" d="M416.586,169.515c1.022,1.028,1.713-.513,1.6-1.861s-4.2-4.583-5.121-3.8C411.338,165.318,415.563,168.488,416.586,169.515Z" transform="translate(-310.275 -120.786)" fill="#f2bda1" fill-rule="evenodd"/>
      <path id="Trazado_212013" data-name="Trazado 212013" d="M362.978,173.728c.146,3.154,3.2,7.209,5.116,7.822a3.919,3.919,0,0,1-4.467,1.828c1.563-.6,2.722-1.182,2.725-1.5s-2.825-2.151-3.234-4.512A10.667,10.667,0,0,1,362.978,173.728Z" transform="translate(-309.439 -120.953)" fill="#faa678" fill-rule="evenodd"/>
      <path id="Trazado_212014" data-name="Trazado 212014" d="M357.706,173.757a1.665,1.665,0,0,1,1.331,1.995,1.778,1.778,0,0,1-1.969,1.482,1.666,1.666,0,0,1-1.331-2A1.777,1.777,0,0,1,357.706,173.757Z" transform="translate(-309.318 -120.954)" fill="#47140c" fill-rule="evenodd"/>
      <path id="Trazado_212015" data-name="Trazado 212015" d="M370.161,172.785a1.62,1.62,0,0,1,1.295,1.94,1.729,1.729,0,0,1-1.915,1.44,1.62,1.62,0,0,1-1.294-1.94A1.729,1.729,0,0,1,370.161,172.785Z" transform="translate(-309.528 -120.937)" fill="#47140c" fill-rule="evenodd"/>
      <path id="Trazado_212016" data-name="Trazado 212016" d="M367.111,171.492c1.6-.2,7.506-.587,7.378-.766a6.013,6.013,0,0,0-3.215-.609,18.515,18.515,0,0,0-4.131.481C366.461,170.769,366.548,171.6,367.111,171.492Z" transform="translate(-309.502 -120.893)" fill="#401027" fill-rule="evenodd"/>
    </g>
    <rect id="Rectángulo_39930" data-name="Rectángulo 39930" width="87.506" height="3.933" transform="translate(1158.993 3561.938)" fill="#1a1a1a"/>
    <path id="Trazado_212017" data-name="Trazado 212017" d="M258.2,142.815H187.408A5.407,5.407,0,0,1,182,137.408h0A5.407,5.407,0,0,1,187.408,132H258.2a5.407,5.407,0,0,1,5.408,5.408h0A5.407,5.407,0,0,1,258.2,142.815Z" transform="translate(979.942 3410.274)" fill="#e6e6e6" fill-rule="evenodd" opacity="0.25" style="mix-blend-mode: overlay;isolation: isolate"/>
    <g id="Grupo_94929" data-name="Grupo 94929" transform="translate(1047.917 3697.622)">
      <path id="Trazado_212018" data-name="Trazado 212018" d="M103.455,356.393s-2.2-6.593,3.662-15.384,12.454-16.849,8.791-24.175-6.592-10.256-5.86-13.918,5.127-10.257-2.931-12.454S93.2,294.125,93.2,303.648s10.988,18.314,7.326,24.175-10.257,7.326-8.058,15.383S103.455,356.393,103.455,356.393Z" transform="translate(-66.465 -290)" fill="#22b573"/>
      <path id="Trazado_212019" data-name="Trazado 212019" d="M83.087,358.8s-2.3-5.186,1.774-12.79,8.8-14.669,5.252-20.337-6.161-7.819-5.852-10.854,3.365-8.737-3.357-9.893-11.026,4.067-10.28,11.807S80.988,330.754,78.47,335.8s-7.762,6.757-5.346,13.135S83.087,358.8,83.087,358.8Z" transform="translate(-66.104 -290.248)" fill="#22b573"/>
      <path id="Trazado_212020" data-name="Trazado 212020" d="M98.438,356.676s1.649-4.947-2.748-11.543-9.344-12.642-6.6-18.138,4.948-7.7,4.4-10.444-3.848-7.7,2.2-9.344,10.444,2.748,10.444,9.894-8.245,13.741-5.5,18.138,7.7,5.5,6.047,11.543S98.438,356.676,98.438,356.676Z" transform="translate(-66.402 -290.283)" fill="#8cc63f"/>
      <path id="Trazado_212021" data-name="Trazado 212021" d="M84.281,358.686s1.65-6.256-2.748-14.6-9.344-15.989-6.6-22.94,4.947-9.732,4.4-13.208-3.847-9.732,2.2-11.817,10.444,3.476,10.444,12.512-8.245,17.379-5.5,22.94,7.695,6.952,6.046,14.6S84.281,358.686,84.281,358.686Z" transform="translate(-66.164 -290.095)" fill="#8cc63f"/>
      <path id="Trazado_212022" data-name="Trazado 212022" d="M94.493,352.461H66.028l5.292,43.4A10.511,10.511,0,0,0,81.752,405.1h23.583a10.509,10.509,0,0,0,10.432-9.238l5.293-43.4Z" transform="translate(-66.028 -291.049)" fill="#6299bc"/>
      <g id="Grupo_94928" data-name="Grupo 94928" transform="translate(0 61.413)">
        <g id="Grupo_94927" data-name="Grupo 94927" clip-path="url(#clip-path)">
          <g id="Grupo_94926" data-name="Grupo 94926" transform="translate(-1.994 -2.393)">
            <rect id="Rectángulo_39931" data-name="Rectángulo 39931" width="59.818" height="25.522" transform="translate(0 19.142)" fill="#5f6092"/>
            <rect id="Rectángulo_39932" data-name="Rectángulo 39932" width="59.818" height="9.571" fill="#5f6092"/>
          </g>
        </g>
      </g>
      <path id="Trazado_212024" data-name="Trazado 212024" d="M95.231,352.461V405.1h10.6a10.509,10.509,0,0,0,10.432-9.238l5.293-43.4Z" transform="translate(-66.518 -291.049)" fill="#f2f2f2" style="mix-blend-mode: multiply;isolation: isolate"/>
    </g>
  </g>
</svg>
