<svg xmlns="http://www.w3.org/2000/svg" width="271.65" height="226.8" viewBox="0 0 271.65 226.8">
  <g id="Grupo_97274" data-name="Grupo 97274" transform="translate(-853.35 -4087)">
    <ellipse id="Elipse_5356" data-name="Elipse 5356" cx="135.825" cy="7.932" rx="135.825" ry="7.932" transform="translate(853.35 4297.935)" fill="#f9f0ff"/>
    <g id="Grupo_94947" data-name="Grupo 94947" transform="translate(862.972 4069)">
      <g id="Grupo_94941" data-name="Grupo 94941" transform="translate(0 18)">
        <path id="Trazado_212025" data-name="Trazado 212025" d="M180.7,144.815c0-.009,0-.018,0-.027s0-.015,0-.022a24.629,24.629,0,0,0-.315-3.894,24.474,24.474,0,0,0-23.936-20.526l-.17,0-.022,0-.022,0a24.626,24.626,0,0,0-3.893.315,24.277,24.277,0,0,0-15.906,9.842c-.368.51-.708,1.035-1.033,1.566a.527.527,0,0,0-.068.111,24.2,24.2,0,0,0-3.52,12.582c0,.009,0,.018,0,.028s0,.015,0,.022a24.627,24.627,0,0,0,.315,3.893,24.489,24.489,0,0,0,24.09,20.533,24.74,24.74,0,0,0,3.954-.319,24.279,24.279,0,0,0,15.906-9.843c.368-.51.708-1.035,1.033-1.566a.528.528,0,0,0,.068-.111A24.2,24.2,0,0,0,180.7,144.815Zm-47.83-.553a23.167,23.167,0,0,1,3.244-11.348h7.644a38.455,38.455,0,0,0-1.81,11.348Zm11.959-11.348h10.9v11.348H142.99A37.43,37.43,0,0,1,144.825,132.914Zm11.953-1.05V121.413a8.532,8.532,0,0,1,4.232,1.557c2.6,1.782,4.774,4.935,6.277,8.895Zm10.883,1.05a35.812,35.812,0,0,1,1.683,8.09c.1,1.094.156,2.181.171,3.257H156.778V132.914Zm-13.475-11.232a7.707,7.707,0,0,1,1.542-.267v10.449H145.2C147.183,126.6,150.362,122.759,154.186,121.682Zm1.542,23.63V156.66H144.845a35.813,35.813,0,0,1-1.683-8.09c-.1-1.094-.156-2.181-.171-3.257Zm0,12.4v10.451a8.532,8.532,0,0,1-4.232-1.557c-2.6-1.782-4.774-4.935-6.277-8.895Zm2.593,10.182a7.712,7.712,0,0,1-1.543.267V157.71h10.528C165.323,162.971,162.144,166.816,158.321,167.893Zm-1.543-11.232V145.312h12.738a37.452,37.452,0,0,1-1.835,11.348Zm13.784-11.348h9.078A23.167,23.167,0,0,1,176.4,156.66h-7.644A38.454,38.454,0,0,0,170.563,145.312Zm9.077-1.05h-9.076c-.014-1.11-.069-2.229-.174-3.356a37.526,37.526,0,0,0-1.6-7.992h7.623a23.366,23.366,0,0,1,3.229,11.348Zm-9.714-18.444a23.435,23.435,0,0,1,5.828,6.046h-7.325c-1.571-4.339-3.929-7.772-6.825-9.76-.074-.051-.15-.1-.224-.146A23.4,23.4,0,0,1,169.926,125.818ZM151.1,121.972c-2.944,1.936-5.369,5.47-6.984,9.892h-7.345c.167-.251.335-.5.513-.749A23.219,23.219,0,0,1,151.1,121.972Zm-18.234,23.34h9.076c.014,1.11.069,2.23.174,3.356a37.52,37.52,0,0,0,1.6,7.992H136.1a23.305,23.305,0,0,1-2.935-8.125A23.578,23.578,0,0,1,132.867,145.312Zm3.886,12.4h7.325c1.571,4.339,3.928,7.771,6.825,9.76.076.052.153.1.23.147a23.557,23.557,0,0,1-14.38-9.907Zm24.654,9.892c2.944-1.936,5.369-5.47,6.984-9.892h7.346c-.167.251-.336.5-.513.75A23.219,23.219,0,0,1,161.406,167.6Z" transform="translate(-98.94 -109.671)" fill="#a231ff" opacity="0.2" style="mix-blend-mode: multiply;isolation: isolate"/>
        <g id="Grupo_94934" data-name="Grupo 94934" transform="translate(11.116 46.789)">
          <rect id="Rectángulo_39933" data-name="Rectángulo 39933" width="220.245" height="53.363" transform="translate(9.929)" fill="#cd89ff"/>
          <rect id="Rectángulo_39934" data-name="Rectángulo 39934" width="220.245" height="53.363" transform="translate(4.964 4.964)" fill="#7500cc"/>
          <rect id="Rectángulo_39935" data-name="Rectángulo 39935" width="220.245" height="53.363" transform="translate(0 9.929)" fill="#a231ff"/>
          <rect id="Rectángulo_39936" data-name="Rectángulo 39936" width="32.348" height="199.228" transform="translate(209.737 20.437) rotate(90)" fill="#fff"/>
          <rect id="Rectángulo_39937" data-name="Rectángulo 39937" width="32.348" height="1.168" transform="translate(176.221 52.784) rotate(-90)" fill="#cd89ff"/>
          <rect id="Rectángulo_39938" data-name="Rectángulo 39938" width="23.429" height="1.168" transform="translate(15.473 48.325) rotate(-90)" fill="#cd89ff"/>
          <g id="Grupo_94933" data-name="Grupo 94933" transform="translate(187.28 30.328)">
            <path id="Trazado_212026" data-name="Trazado 212026" d="M373.264,225.527a5.168,5.168,0,1,1,3.655-8.822h0a5.166,5.166,0,0,1-3.655,8.822Zm0-8.932a3.766,3.766,0,1,0,2.664,1.1h0A3.755,3.755,0,0,0,373.264,216.594Z" transform="translate(-368.097 -215.193)" fill="#cd89ff"/>
            <path id="Trazado_212027" data-name="Trazado 212027" d="M383.226,231.021a.7.7,0,0,1-.5-.2l-3.538-3.538a.7.7,0,0,1,.991-.991l3.538,3.538a.7.7,0,0,1-.5,1.2Z" transform="translate(-371.359 -218.454)" fill="#cd89ff"/>
          </g>
        </g>
        <g id="Grupo_94935" data-name="Grupo 94935" transform="translate(134.015 14.528)">
          <rect id="Rectángulo_39939" data-name="Rectángulo 39939" width="22.025" height="0.546" fill="#cd89ff"/>
          <rect id="Rectángulo_39940" data-name="Rectángulo 39940" width="22.025" height="0.546" transform="translate(0 2.321)" fill="#cd89ff"/>
          <rect id="Rectángulo_39941" data-name="Rectángulo 39941" width="22.025" height="0.546" transform="translate(0 4.642)" fill="#cd89ff"/>
          <rect id="Rectángulo_39942" data-name="Rectángulo 39942" width="22.025" height="0.546" transform="translate(0 6.963)" fill="#cd89ff"/>
          <rect id="Rectángulo_39943" data-name="Rectángulo 39943" width="22.025" height="0.546" transform="translate(0 9.284)" fill="#cd89ff"/>
          <rect id="Rectángulo_39944" data-name="Rectángulo 39944" width="14.359" height="0.546" transform="translate(0.001 11.606)" fill="#cd89ff"/>
        </g>
        <g id="Grupo_94936" data-name="Grupo 94936" transform="translate(0 114.694)">
          <rect id="Rectángulo_39945" data-name="Rectángulo 39945" width="23.468" height="0.35" fill="#cd89ff"/>
          <rect id="Rectángulo_39946" data-name="Rectángulo 39946" width="23.468" height="0.35" transform="translate(0 1.486)" fill="#cd89ff"/>
          <rect id="Rectángulo_39947" data-name="Rectángulo 39947" width="23.468" height="0.35" transform="translate(0 2.973)" fill="#cd89ff"/>
          <rect id="Rectángulo_39948" data-name="Rectángulo 39948" width="23.468" height="0.35" transform="translate(0 4.459)" fill="#cd89ff"/>
          <rect id="Rectángulo_39949" data-name="Rectángulo 39949" width="23.468" height="0.35" transform="translate(0 5.945)" fill="#cd89ff"/>
          <rect id="Rectángulo_39950" data-name="Rectángulo 39950" width="14.75" height="0.35" transform="translate(0 7.432)" fill="#cd89ff"/>
        </g>
        <g id="Grupo_94937" data-name="Grupo 94937" transform="translate(96.169 9.262)">
          <path id="Trazado_212028" data-name="Trazado 212028" d="M226.6,130.758h0a4.427,4.427,0,0,0-4.427,4.428v14.606a4.427,4.427,0,0,0,4.427,4.428h0a4.428,4.428,0,0,0,4.428-4.428V135.186A4.428,4.428,0,0,0,226.6,130.758Z" transform="translate(-222.169 -122.052)" fill="#a231ff"/>
          <path id="Trazado_212029" data-name="Trazado 212029" d="M242.435,118.33h0a4.428,4.428,0,0,0-4.428,4.428V146.07a4.428,4.428,0,0,0,4.428,4.428h0a4.428,4.428,0,0,0,4.428-4.428V122.758A4.428,4.428,0,0,0,242.435,118.33Z" transform="translate(-226.912 -118.33)" fill="#7500cc"/>
          <path id="Trazado_212030" data-name="Trazado 212030" d="M258.274,143.187h0a4.428,4.428,0,0,0-4.428,4.428v5.9a4.428,4.428,0,0,0,4.428,4.428h0a4.428,4.428,0,0,0,4.427-4.428v-5.9A4.428,4.428,0,0,0,258.274,143.187Z" transform="translate(-231.655 -125.774)" fill="#cd89ff"/>
        </g>
        <g id="Grupo_94939" data-name="Grupo 94939" transform="translate(199.094 95.114)">
          <g id="Grupo_94938" data-name="Grupo 94938" transform="translate(4.546)">
            <path id="Trazado_212031" data-name="Trazado 212031" d="M388.241,272.575h17.9l-30.559-31.691h0l12.658,31.691" transform="translate(-375.583 -240.883)" fill="#8019dd"/>
          </g>
          <path id="Trazado_212032" data-name="Trazado 212032" d="M369.094,255.851l4.546-14.967,2.576,14.967Z" transform="translate(-369.094 -240.883)" fill="#cd89ff" style="mix-blend-mode: multiply;isolation: isolate"/>
          <path id="Trazado_212033" data-name="Trazado 212033" d="M375.583,240.883v44.349l3.164-3.164,9.493-9.493Z" transform="translate(-371.037 -240.883)" fill="#a74ef9"/>
        </g>
        <g id="Grupo_94940" data-name="Grupo 94940" transform="translate(188.563)">
          <path id="Trazado_212034" data-name="Trazado 212034" d="M400.789,105.109H361.564a7.536,7.536,0,0,0-7.5,7.5v20.255a7.536,7.536,0,0,0,7.5,7.5h28.783l-.21,7.085,7.267-7.085h3.385a7.536,7.536,0,0,0,7.5-7.5V112.613A7.536,7.536,0,0,0,400.789,105.109Zm-40.117,8.632a2.105,2.105,0,0,1,2.1-2.1H371.8a2.086,2.086,0,0,1,0,4.172h-9.026A2.1,2.1,0,0,1,360.672,113.741Zm37.887,19.6H382.948a2.073,2.073,0,1,1,0-4.145h15.611a2.073,2.073,0,0,1,0,4.145Zm0-8.764H364.87a2.073,2.073,0,1,1,0-4.145h33.689a2.073,2.073,0,0,1,0,4.145Zm0-8.763H378.618a2.086,2.086,0,0,1,0-4.172h19.941a2.086,2.086,0,0,1,0,4.172Z" transform="translate(-354.06 -105.109)" fill="#8019dd"/>
        </g>
      </g>
      <g id="Grupo_94946" data-name="Grupo 94946" transform="translate(29.745 33.668)">
        <g id="Grupo_94943" data-name="Grupo 94943">
          <path id="Trazado_212035" data-name="Trazado 212035" d="M302.933,191.452A37.622,37.622,0,0,0,295.4,179H239.7a37.618,37.618,0,0,0-7.531,12.455l7.706,38.361a37.64,37.64,0,0,0,63.055-38.361Z" transform="translate(-158.741 -160.904)" fill="#a231ff"/>
          <path id="Trazado_212036" data-name="Trazado 212036" d="M304.189,211.369a37.513,37.513,0,0,1-9.92,23.769H238.914a37.7,37.7,0,0,1-7.706-38.361h70.761A37.42,37.42,0,0,1,304.189,211.369Z" transform="translate(-157.777 -166.229)" fill="#fff"/>
          <path id="Trazado_212037" data-name="Trazado 212037" d="M304.189,200.778a37.559,37.559,0,1,1-2.221-14.592A37.513,37.513,0,0,1,304.189,200.778Z" transform="translate(-157.777 -155.637)" fill="#ebd4ff" opacity="0.4"/>
          <path id="Trazado_212038" data-name="Trazado 212038" d="M288.029,168.5,233.9,217.854c-.278-.5-.544-1.007-.8-1.517a37.138,37.138,0,0,1-3.41-10.5v0L276.442,163.2A37.343,37.343,0,0,1,288.029,168.5Z" transform="translate(-157.999 -156.173)" fill="#ebd4ff" opacity="0.4"/>
          <path id="Trazado_212039" data-name="Trazado 212039" d="M306.051,191.858l-50.885,46.4A37.6,37.6,0,0,1,241.522,228l55.566-50.674A37.648,37.648,0,0,1,306.051,191.858Z" transform="translate(-161.541 -160.405)" fill="#ebd4ff" opacity="0.4"/>
          <path id="Trazado_212040" data-name="Trazado 212040" d="M301.7,174.872a43.4,43.4,0,1,0-15.874,59.294A43.4,43.4,0,0,0,301.7,174.872Zm-67.239,38.835a34.246,34.246,0,1,1,46.786,12.531A34.247,34.247,0,0,1,234.465,213.707Z" transform="translate(-155.309 -153.169)" fill="#8019dd"/>
          <g id="Grupo_94942" data-name="Grupo 94942" transform="translate(6.517 88.069)">
            <path id="Trazado_212041" data-name="Trazado 212041" d="M139.069,278.887l5.364,1.25-4.443,3.318s-3.189-1.447-3.337-3.709Z" transform="translate(-136.652 -278.887)" fill="#ffd97b"/>
            <path id="Trazado_212042" data-name="Trazado 212042" d="M148.734,284.243l-3.87,2.577-3.448-2.83,4.443-3.318Z" transform="translate(-138.079 -279.421)" fill="#ffd97b"/>
          </g>
          <path id="Trazado_212043" data-name="Trazado 212043" d="M205.222,244.421c-5.7,4.215-11.548,8.191-17.431,12.1s-11.829,7.7-17.812,11.435c-5.994,3.714-12.01,7.391-18.081,10.97-3.022,1.813-6.082,3.561-9.122,5.344a17.955,17.955,0,0,1-4.862,2.151,15.063,15.063,0,0,1-2.782.466,11.724,11.724,0,0,1-3.147-.163,5.752,5.752,0,0,1-4.523-6.762,6.414,6.414,0,0,1,.2-.732,11.754,11.754,0,0,1,1.431-2.806,15.092,15.092,0,0,1,1.795-2.178,17.952,17.952,0,0,1,4.292-3.137c3.064-1.742,6.107-3.518,9.187-5.231,6.135-3.47,12.326-6.844,18.538-10.179q9.334-4.977,18.806-9.715c6.323-3.144,12.686-6.219,19.188-9.054a4.354,4.354,0,0,1,4.328,7.493Z" transform="translate(-127.35 -178.144)" fill="#8019dd"/>
        </g>
        <g id="Grupo_94945" data-name="Grupo 94945" transform="translate(3.986 18.678)">
          <path id="Trazado_212044" data-name="Trazado 212044" d="M145.763,230.2c-.35.565-.752,1.255-1.127,1.9-.376.658-.748,1.322-1.1,2-.729,1.339-1.428,2.7-2.081,4.078-.637,1.386-1.269,2.776-1.844,4.188-.275.71-.57,1.414-.829,2.128l-.392,1.072c-.078.2-.091.284-.142.429-.045.128-.073.29-.113.433a21.766,21.766,0,0,0-.41,4.223c-.04,1.5.016,3.04.078,4.586s.174,3.1.315,4.663c.109,1.559.277,3.133.422,4.676l-2.705.556c-.474-1.567-.845-3.118-1.218-4.694-.341-1.576-.652-3.163-.92-4.769s-.461-3.233-.579-4.9a24.644,24.644,0,0,1,.133-5.258c.046-.244.076-.475.139-.729.058-.235.128-.542.182-.714l.343-1.191c.227-.794.488-1.576.75-2.358.542-1.557,1.127-3.1,1.786-4.6s1.36-2.994,2.121-4.455c.384-.729.788-1.447,1.2-2.165s.83-1.4,1.344-2.168Z" transform="translate(-133.039 -193.992)" fill="#ffd97b"/>
          <path id="Trazado_212045" data-name="Trazado 212045" d="M146.278,437.408a6.634,6.634,0,0,1-1.44-.2.129.129,0,0,1-.041-.234c.186-.123,1.844-1.187,2.477-.9a.44.44,0,0,1,.257.364.732.732,0,0,1-.214.685A1.561,1.561,0,0,1,146.278,437.408Zm-1.075-.38a2.584,2.584,0,0,0,1.94-.1.486.486,0,0,0,.132-.459.185.185,0,0,0-.108-.164C146.833,436.161,145.879,436.62,145.2,437.029Z" transform="translate(-136.543 -256.555)" fill="#7500cc"/>
          <path id="Trazado_212046" data-name="Trazado 212046" d="M144.868,436.669a.136.136,0,0,1-.065-.018.129.129,0,0,1-.064-.111c0-.067.008-1.637.6-2.162a.665.665,0,0,1,.547-.172.449.449,0,0,1,.434.359c.123.614-.868,1.791-1.388,2.087A.129.129,0,0,1,144.868,436.669Zm.928-2.211a.421.421,0,0,0-.286.113,2.96,2.96,0,0,0-.505,1.718c.518-.414,1.137-1.3,1.062-1.672-.013-.061-.048-.135-.213-.155A.558.558,0,0,0,145.8,434.459Z" transform="translate(-136.543 -256.008)" fill="#7500cc"/>
          <path id="Trazado_212047" data-name="Trazado 212047" d="M181.57,437.409a9.257,9.257,0,0,1-1.716-.2.129.129,0,0,1-.034-.24c.245-.128,2.418-1.236,3.087-.873a.416.416,0,0,1,.219.344.715.715,0,0,1-.233.628A2.048,2.048,0,0,1,181.57,437.409Zm-1.287-.379a3.48,3.48,0,0,0,2.437-.149.464.464,0,0,0,.148-.413.161.161,0,0,0-.086-.14C182.422,436.13,181.177,436.6,180.283,437.03Z" transform="translate(-147.028 -256.555)" fill="#7500cc"/>
          <path id="Trazado_212048" data-name="Trazado 212048" d="M179.879,436.67a.13.13,0,0,1-.074-.024.126.126,0,0,1-.054-.116,3.638,3.638,0,0,1,.816-2.1.945.945,0,0,1,.715-.223c.358.036.461.218.485.364.1.617-1.185,1.794-1.835,2.088A.139.139,0,0,1,179.879,436.67Zm1.3-2.211a.678.678,0,0,0-.446.168,3,3,0,0,0-.695,1.683c.663-.4,1.536-1.327,1.475-1.7-.006-.031-.021-.125-.256-.149A.75.75,0,0,0,181.178,434.459Z" transform="translate(-147.028 -256.008)" fill="#7500cc"/>
          <path id="Trazado_212049" data-name="Trazado 212049" d="M162.578,201.49c.423,3.271,1.429,9.9-.97,11.912,0,0,.67,3.333,6.67,3.723,6.6.429,3.366-3.07,3.366-3.07-3.545-1.094-3.278-3.759-2.488-6.228Z" transform="translate(-141.595 -186.318)" fill="#ffd97b"/>
          <path id="Trazado_212050" data-name="Trazado 212050" d="M180.406,191.23a.258.258,0,0,1-.228-.38,2.567,2.567,0,0,1,1.915-1.377.262.262,0,0,1,.28.236.259.259,0,0,1-.235.279h0a2.046,2.046,0,0,0-1.5,1.107A.258.258,0,0,1,180.406,191.23Z" transform="translate(-147.147 -182.719)" fill="#340f4c"/>
          <path id="Trazado_212051" data-name="Trazado 212051" d="M183.2,196.1a11.766,11.766,0,0,0,1.825,2.648,1.892,1.892,0,0,1-1.533.44Z" transform="translate(-148.061 -184.704)" fill="#ffc152"/>
          <path id="Trazado_212052" data-name="Trazado 212052" d="M182.538,194.717c.041.438.307.771.593.744s.485-.4.443-.842-.307-.771-.593-.744S182.5,194.279,182.538,194.717Z" transform="translate(-147.861 -184.037)" fill="#340f4c"/>
          <path id="Trazado_212053" data-name="Trazado 212053" d="M183,193.756l1.023-.4S183.557,194.226,183,193.756Z" transform="translate(-148 -183.881)" fill="#340f4c"/>
          <path id="Trazado_212054" data-name="Trazado 212054" d="M171.374,432.142h5.453l.364-12.629h-5.453Z" transform="translate(-144.519 -251.609)" fill="#ffd97b"/>
          <path id="Trazado_212055" data-name="Trazado 212055" d="M136,432.142h5.453l1.753-12.629h-5.453Z" transform="translate(-133.927 -251.609)" fill="#ffd97b"/>
          <path id="Trazado_212056" data-name="Trazado 212056" d="M141.164,436.639h-6.126a.432.432,0,0,0-.436.373l-.7,4.847a.877.877,0,0,0,.874.97c2.136-.037,3.166-.163,5.86-.163,1.657,0,4.079.172,6.368.172,2.239,0,2.411-2.263,1.458-2.469-4.273-.919-4.949-2.186-6.388-3.4A1.423,1.423,0,0,0,141.164,436.639Z" transform="translate(-133.296 -256.738)" fill="#3a145b"/>
          <path id="Trazado_212057" data-name="Trazado 212057" d="M176.319,436.639h-6.127a.431.431,0,0,0-.435.373l-.7,4.847a.877.877,0,0,0,.874.97c2.136-.037,3.166-.163,5.86-.163,1.657,0,5.086.172,7.375.172,2.238,0,2.411-2.263,1.458-2.469-4.274-.919-5.956-2.186-7.4-3.4A1.422,1.422,0,0,0,176.319,436.639Z" transform="translate(-143.824 -256.738)" fill="#3a145b"/>
          <g id="Grupo_94944" data-name="Grupo 94944" transform="translate(2.922 167.907)">
            <path id="Trazado_212058" data-name="Trazado 212058" d="M177.265,419.517l-.187,6.51h-5.456l.187-6.51Z" transform="translate(-147.516 -419.517)" fill="#eac063"/>
            <path id="Trazado_212059" data-name="Trazado 212059" d="M138.117,419.517h5.456l-.906,6.51h-5.456Z" transform="translate(-137.211 -419.517)" fill="#eac063"/>
          </g>
          <path id="Trazado_212060" data-name="Trazado 212060" d="M149.772,228.706a27.98,27.98,0,0,1-3.58,4.5l-.623-.413-6.907-4.616s3.79-8.35,6.606-8.806c2.711-.434,4.687,2.368,5.618,5.366C151.222,225.82,150.641,227.291,149.772,228.706Z" transform="translate(-134.723 -191.659)" fill="#cd89ff"/>
          <path id="Trazado_212061" data-name="Trazado 212061" d="M152.725,231.977a27.979,27.979,0,0,1-3.58,4.5l-.623-.413c.308-2.522,1.289-5.023,2.41-5.814C151.618,230.317,152.228,231.046,152.725,231.977Z" transform="translate(-137.676 -194.93)" fill="#cf98fc"/>
          <path id="Trazado_212062" data-name="Trazado 212062" d="M176.225,232.652v.007c-.329,2.095-.757,4.574-1.331,7.51-.729,3.755-1.681,8.259-2.921,13.646-8.771-.574-17.835-1.163-22.1-1.436.953-8.974,1.324-14.522-1.779-33.261a65.025,65.025,0,0,1,9.471-.623,70.342,70.342,0,0,1,10.032.651c4.287.673,9.107,1.99,9.107,1.99S177.935,221.66,176.225,232.652Z" transform="translate(-137.547 -191.408)" fill="#cd89ff"/>
          <path id="Trazado_212063" data-name="Trazado 212063" d="M186.392,238.494v.007c-.329,2.095-.757,4.574-1.331,7.51A54.279,54.279,0,0,1,182.042,238h4.105Z" transform="translate(-147.714 -197.251)" fill="#cf98fc"/>
          <path id="Trazado_212064" data-name="Trazado 212064" d="M161.279,191.229c.838,5.347,1.078,7.628,4.055,10.132,4.478,3.767,10.862,1.569,11.639-3.92.7-4.942-.788-12.855-6.254-14.5A7.382,7.382,0,0,0,161.279,191.229Z" transform="translate(-141.468 -180.664)" fill="#ffd97b"/>
          <path id="Trazado_212065" data-name="Trazado 212065" d="M162.588,267.918s-.35,9.73-1.191,22c-.7,10.3-1.758,22.375-3.236,32-.014.09-.028.175-.042.266C155.464,339.225,143.7,379.05,143.7,379.05h-7.44s6.13-38.459,7.475-55.314c3.412-42.641-5.135-47.468,2.592-56.869Z" transform="translate(-134.004 -205.896)" fill="#7500cc"/>
          <path id="Trazado_212066" data-name="Trazado 212066" d="M169.11,295.2c-.7,10.3-1.758,22.375-3.236,32-2.515-12.5-6.648-30.767-1.1-42.711C166.1,287.864,167.66,291.7,169.11,295.2Z" transform="translate(-141.718 -211.173)" fill="#5e00aa"/>
          <path id="Trazado_212067" data-name="Trazado 212067" d="M175.259,268.464s6.287,37.372,5.93,54c-.372,17.3-6.71,56.75-6.71,56.75H167.1s1.167-38.441.516-55.429c-.711-18.521-8.545-56.374-8.545-56.374Z" transform="translate(-140.836 -206.06)" fill="#7500cc"/>
          <path id="Trazado_212068" data-name="Trazado 212068" d="M168.6,426.083h9.885l.771-3.317-11.007.076Z" transform="translate(-143.582 -252.583)" fill="#340f4c"/>
          <path id="Trazado_212069" data-name="Trazado 212069" d="M134.724,426.083h9.885l.771-3.317-10.587.076Z" transform="translate(-133.544 -252.583)" fill="#340f4c"/>
          <path id="Trazado_212070" data-name="Trazado 212070" d="M149.785,264.919l-1.125,1.913c-.088.149.084.317.34.333l23.178,1.506c.2.013.371-.074.392-.2l.328-1.966c.022-.136-.143-.263-.361-.277l-22.381-1.454A.4.4,0,0,0,149.785,264.919Z" transform="translate(-137.71 -205.27)" fill="#340f4c"/>
          <path id="Trazado_212071" data-name="Trazado 212071" d="M154,267.608l-.6-.039c-.119-.008-.207-.075-.193-.149l.448-2.553c.013-.074.121-.129.241-.121l.6.039c.12.008.207.076.193.15l-.448,2.552C154.223,267.561,154.115,267.616,154,267.608Z" transform="translate(-139.077 -205.261)" fill="#7500cc"/>
          <path id="Trazado_212072" data-name="Trazado 212072" d="M174.736,268.955l-.6-.039c-.12-.008-.207-.076-.193-.15l.448-2.552c.013-.075.122-.13.241-.122l.6.039c.119.008.206.075.193.15l-.448,2.552C174.963,268.908,174.856,268.963,174.736,268.955Z" transform="translate(-145.288 -205.664)" fill="#7500cc"/>
          <path id="Trazado_212073" data-name="Trazado 212073" d="M188.43,230.31c.838,2.808,1.639,5.639,2.417,8.468l2.345,8.468.295,1.052.074.263.036.129.023.067a2.148,2.148,0,0,0,.09.276,4.25,4.25,0,0,0,.733,1.175,11.412,11.412,0,0,0,2.869,2.214,36.663,36.663,0,0,0,7.7,3.11l-.4,2.733a29.224,29.224,0,0,1-9.164-1.978,14.546,14.546,0,0,1-4.406-2.722,8.658,8.658,0,0,1-1.828-2.4,7.2,7.2,0,0,1-.329-.744l-.076-.191-.048-.134-.093-.263-.372-1.054q-1.465-4.214-2.75-8.447c-.879-2.822-1.71-5.65-2.479-8.507Z" transform="translate(-148.02 -194.949)" fill="#ffd97b"/>
          <path id="Trazado_212074" data-name="Trazado 212074" d="M185.859,222.034c2.8.916,5.744,10.082,5.744,10.082l-10.116,4.354s-4.227-10.282-2.341-12.635C181.108,221.383,182.643,220.981,185.859,222.034Z" transform="translate(-146.701 -192.307)" fill="#cd89ff"/>
          <path id="Trazado_212075" data-name="Trazado 212075" d="M170.505,181.807c-1.791-2.209-15.59-3.786-16.328,2.227-4.888,3.431-.248,12.3.453,14.556-3.386.935-14.283,4.667-6.344,11.908s19.945,6.007,22.288-1.484c1.639-5.24-3.568-14-3.452-17.078S173.564,185.58,170.505,181.807Z" transform="translate(-136.756 -179.832)" fill="#340f4c"/>
          <path id="Trazado_212076" data-name="Trazado 212076" d="M157.969,201.5a.176.176,0,0,1-.136-.064c-1.268-1.545-5.675-9.639-4.13-13.5a3.354,3.354,0,0,1,2.96-2.083.175.175,0,1,1,.043.347,3.025,3.025,0,0,0-2.677,1.866c-1.494,3.728,2.833,11.631,4.075,13.144a.175.175,0,0,1-.025.247A.173.173,0,0,1,157.969,201.5Z" transform="translate(-139.13 -181.637)" fill="#340f4c"/>
          <path id="Trazado_212077" data-name="Trazado 212077" d="M174.867,195.887a4.633,4.633,0,0,0,1.372,2.677c1,.95,1.933.3,2.026-.91.083-1.087-.336-2.892-1.512-3.391C175.592,193.772,174.715,194.672,174.867,195.887Z" transform="translate(-145.56 -184.113)" fill="#ffd97b"/>
        </g>
        <path id="Trazado_212078" data-name="Trazado 212078" d="M208.5,264.663l3.984-1.353-.628,4.779s-1.566.727-3.6-1.06l-1.941-1.243,1.526-.835A4.109,4.109,0,0,1,208.5,264.663Z" transform="translate(-150.997 -186.153)" fill="#ffd97b"/>
        <path id="Trazado_212079" data-name="Trazado 212079" d="M217.624,263.29l-1.218,4.179-2.186.614.627-4.779Z" transform="translate(-153.364 -186.147)" fill="#ffd97b"/>
      </g>
    </g>
  </g>
</svg>
