<svg xmlns="http://www.w3.org/2000/svg" width="315" height="176.761" viewBox="0 0 315 176.761">
  <g id="Grupo_97269" data-name="Grupo 97269" transform="translate(-915 -2378.969)">
    <path id="Trazado_211283" data-name="Trazado 211283" d="M274.8,227.354c43.026-15.973,86.756-1.851,116.414,28.906s91.9-21.229,124.912,9.478c22.528,20.956,12.209,74.835-18.68,98.172-41.987,31.719-169.673,15.624-197.293,10.226-31.821-6.219-55.085-25.088-64.537-47.988C212.841,270.967,255.786,234.413,274.8,227.354Z" transform="translate(685.88 2168)" fill="#e7f3fe"/>
    <g id="Grupo_94447" data-name="Grupo 94447" transform="translate(947.625 2378.969)">
      <g id="Grupo_94442" data-name="Grupo 94442" transform="translate(89.701)">
        <path id="Trazado_211284" data-name="Trazado 211284" d="M1480.763,165.14a35.688,35.688,0,0,0,.223-3.966c0-.708-.023-1.41-.064-2.107l-6.553-2.12a28.805,28.805,0,0,0-2.32-7.851l4.345-5.347a35.4,35.4,0,0,0-3.442-5l-6.554,2.138a29.122,29.122,0,0,0-6.488-4.987l.373-6.886a35.054,35.054,0,0,0-5.721-2.028l-4.047,5.585a29.138,29.138,0,0,0-8.181-.214l-3.747-5.791a35.051,35.051,0,0,0-5.821,1.72l.009,6.9a29.072,29.072,0,0,0-6.743,4.638l-6.43-2.481a35.449,35.449,0,0,0-3.7,4.814l4.057,5.57a28.8,28.8,0,0,0-2.735,7.717l-6.655,1.771a35.691,35.691,0,0,0-.223,3.966c0,.708.023,1.41.064,2.107l6.553,2.12a28.8,28.8,0,0,0,2.32,7.851l-4.345,5.347a35.418,35.418,0,0,0,3.442,5l6.554-2.138a29.114,29.114,0,0,0,6.488,4.987l-.373,6.886a35.061,35.061,0,0,0,5.721,2.028l4.047-5.585a29.14,29.14,0,0,0,8.181.214l3.747,5.791a35.035,35.035,0,0,0,5.821-1.72l-.008-6.9a29.067,29.067,0,0,0,6.743-4.638l6.429,2.481a35.467,35.467,0,0,0,3.7-4.814l-4.058-5.57a28.8,28.8,0,0,0,2.735-7.717Zm-35.1,9.888a13.854,13.854,0,1,1,13.854-13.854A13.853,13.853,0,0,1,1445.665,175.028Z" transform="translate(-1410.344 -126.563)" fill="#9ec8ff"/>
        <g id="Grupo_94439" data-name="Grupo 94439" transform="translate(53.698 26.301)">
          <path id="Trazado_211285" data-name="Trazado 211285" d="M1929.391,404.647a.518.518,0,0,1-.4-.849,23.436,23.436,0,0,0,4.129-22.574.518.518,0,0,1,.979-.337,24.474,24.474,0,0,1-4.312,23.574A.517.517,0,0,1,1929.391,404.647Z" transform="translate(-1928.874 -380.537)" fill="#fff"/>
        </g>
        <g id="Grupo_94440" data-name="Grupo 94440" transform="translate(43.459 11.605)">
          <path id="Trazado_211286" data-name="Trazado 211286" d="M1838.75,244.73a.516.516,0,0,1-.355-.141,23.262,23.262,0,0,0-8.055-4.963.518.518,0,1,1,.353-.974,24.292,24.292,0,0,1,8.412,5.183.518.518,0,0,1-.355.895Z" transform="translate(-1829.999 -238.622)" fill="#fff"/>
        </g>
        <g id="Grupo_94441" data-name="Grupo 94441" transform="translate(29.43 10.178)">
          <path id="Trazado_211287" data-name="Trazado 211287" d="M1695.047,226.6a.518.518,0,0,1-.126-1.02,24.528,24.528,0,0,1,6-.742.518.518,0,1,1,0,1.036,23.491,23.491,0,0,0-5.745.71A.518.518,0,0,1,1695.047,226.6Z" transform="translate(-1694.53 -224.841)" fill="#fff"/>
        </g>
      </g>
      <g id="Grupo_94446" data-name="Grupo 94446" transform="translate(0 99.575)">
        <path id="Trazado_211288" data-name="Trazado 211288" d="M592.928,1114.815a24.7,24.7,0,0,0,.154-2.747c0-.49-.016-.976-.045-1.459l-4.539-1.468a19.953,19.953,0,0,0-1.607-5.438l3.01-3.7a24.507,24.507,0,0,0-2.384-3.466l-4.539,1.481a20.17,20.17,0,0,0-4.494-3.454l.258-4.769a24.293,24.293,0,0,0-3.963-1.4l-2.8,3.868a20.2,20.2,0,0,0-5.667-.149l-2.6-4.011a24.252,24.252,0,0,0-4.032,1.192l.006,4.776a20.14,20.14,0,0,0-4.67,3.213l-4.453-1.719a24.562,24.562,0,0,0-2.565,3.335l2.81,3.858a19.957,19.957,0,0,0-1.895,5.345l-4.609,1.227a24.692,24.692,0,0,0-.154,2.747c0,.49.016.976.044,1.459l4.539,1.468a19.945,19.945,0,0,0,1.607,5.438l-3.01,3.7a24.54,24.54,0,0,0,2.384,3.466l4.539-1.481a20.165,20.165,0,0,0,4.494,3.454l-.258,4.769a24.266,24.266,0,0,0,3.963,1.4l2.8-3.868a20.172,20.172,0,0,0,5.667.149l2.595,4.011a24.254,24.254,0,0,0,4.032-1.191l-.006-4.776a20.136,20.136,0,0,0,4.67-3.213l4.453,1.718a24.556,24.556,0,0,0,2.565-3.334l-2.81-3.858a19.948,19.948,0,0,0,1.895-5.345Zm-24.31,6.849a9.6,9.6,0,1,1,9.6-9.6A9.6,9.6,0,0,1,568.618,1121.664Z" transform="translate(-544.153 -1088.095)" fill="#9ec8ff"/>
        <g id="Grupo_94443" data-name="Grupo 94443" transform="translate(37.034 18.058)">
          <path id="Trazado_211289" data-name="Trazado 211289" d="M902.289,1279.489a.518.518,0,0,1-.4-.849,16.074,16.074,0,0,0,2.832-15.482.518.518,0,1,1,.979-.337,17.11,17.11,0,0,1-3.015,16.482A.516.516,0,0,1,902.289,1279.489Z" transform="translate(-901.771 -1262.471)" fill="#fff"/>
        </g>
        <g id="Grupo_94444" data-name="Grupo 94444" transform="translate(29.942 7.879)">
          <path id="Trazado_211290" data-name="Trazado 211290" d="M839.506,1168.724a.516.516,0,0,1-.355-.141,15.956,15.956,0,0,0-5.524-3.4.518.518,0,0,1,.353-.973,16.981,16.981,0,0,1,5.881,3.623.518.518,0,0,1-.355.895Z" transform="translate(-833.286 -1164.174)" fill="#fff"/>
        </g>
        <g id="Grupo_94445" data-name="Grupo 94445" transform="translate(20.225 6.89)">
          <path id="Trazado_211291" data-name="Trazado 211291" d="M739.972,1156.169a.518.518,0,0,1-.126-1.02,17.137,17.137,0,0,1,4.194-.519.518.518,0,1,1,0,1.036,16.112,16.112,0,0,0-3.94.487A.518.518,0,0,1,739.972,1156.169Z" transform="translate(-739.454 -1154.63)" fill="#fff"/>
        </g>
      </g>
      <path id="Trazado_211292" data-name="Trazado 211292" d="M2010.978,600.816c0-.268-.008-.534-.022-.8l3.4-2.73a18.119,18.119,0,0,0-1.236-3.907l-4.391-.332a14.612,14.612,0,0,0-3.8-4.033l-.015-4.375a18.122,18.122,0,0,0-3.893-1.5l-3,3.23a14.7,14.7,0,0,0-1.575-.085,14.546,14.546,0,0,0-3.821.509l-3.441-2.725a18.223,18.223,0,0,0-3.64,2.111l.651,4.338a14.554,14.554,0,0,0-3.065,4.474l-4.281.992a18.247,18.247,0,0,0-.632,4.127l3.77,2.18a14.437,14.437,0,0,0,1.613,5.328l-1.888,3.954a18.363,18.363,0,0,0,2.774,3.019l4.043-1.584a14.446,14.446,0,0,0,5.331,2.115l1.906,3.924c.227.008.455.014.684.014a18.35,18.35,0,0,0,3.344-.307l1.285-4.156a14.521,14.521,0,0,0,5.017-2.913l4.25.955a18.292,18.292,0,0,0,2.264-3.344l-2.463-3.618A14.511,14.511,0,0,0,2010.978,600.816Zm-14.692,6.4a6.121,6.121,0,1,1,6.121-6.121A6.121,6.121,0,0,1,1996.286,607.219Z" transform="translate(-1829.706 -535.857)" fill="#9ec8ff"/>
    </g>
    <g id="Grupo_94451" data-name="Grupo 94451" transform="translate(1151.78 2394.494)">
      <g id="Grupo_94448" data-name="Grupo 94448" transform="translate(24.754 1.54)" opacity="0.8">
        <path id="Trazado_211293" data-name="Trazado 211293" d="M2763.54,304h-5.261a3.688,3.688,0,0,1-3.684-3.684v-5.261a3.688,3.688,0,0,1,3.684-3.684h5.261a3.688,3.688,0,0,1,3.684,3.684v5.261A3.688,3.688,0,0,1,2763.54,304Zm-5.261-11.179a2.237,2.237,0,0,0-2.234,2.234v5.261a2.237,2.237,0,0,0,2.234,2.234h5.261a2.237,2.237,0,0,0,2.234-2.234v-5.261a2.237,2.237,0,0,0-2.234-2.234Z" transform="translate(-2754.595 -291.367)" fill="#9ec8ff"/>
      </g>
      <g id="Grupo_94449" data-name="Grupo 94449" transform="translate(0 1.54)" opacity="0.8">
        <path id="Trazado_211294" data-name="Trazado 211294" d="M2524.505,304h-5.261a3.688,3.688,0,0,1-3.684-3.684v-5.261a3.688,3.688,0,0,1,3.684-3.684h5.261a3.688,3.688,0,0,1,3.684,3.684v5.261A3.688,3.688,0,0,1,2524.505,304Zm-5.261-11.179a2.237,2.237,0,0,0-2.234,2.234v5.261a2.237,2.237,0,0,0,2.234,2.234h5.261a2.237,2.237,0,0,0,2.234-2.234v-5.261a2.237,2.237,0,0,0-2.234-2.234Z" transform="translate(-2515.56 -291.367)" fill="#9ec8ff"/>
      </g>
      <g id="Grupo_94450" data-name="Grupo 94450" transform="translate(2.241)">
        <path id="Trazado_211295" data-name="Trazado 211295" d="M2541.6,287.6h-.03a.623.623,0,0,1-.463-.243l-3.781-4.932a.621.621,0,0,1,.986-.756l3.335,4.35,8.706-9.327a.621.621,0,0,1,.908.848l-9.207,9.864A.622.622,0,0,1,2541.6,287.6Z" transform="translate(-2537.197 -276.491)" fill="#f37168"/>
      </g>
    </g>
    <path id="Trazado_211296" data-name="Trazado 211296" d="M703.188,1701.6c-21.537-1.053-94.8.731-117.086,1.426s-48.148-.917-61.583-3.289-91.1.2-87.573,6.579,34.6,2.853,69.845,5.416,114.5-.32,132.383,0,34.274-.641,57.314-1.922S715.672,1702.215,703.188,1701.6Z" transform="translate(499.681 842.922)" fill="#cce2ff"/>
    <g id="Grupo_94456" data-name="Grupo 94456" transform="translate(937.709 2411.179)">
      <rect id="Rectángulo_39886" data-name="Rectángulo 39886" width="45.021" height="73.793" transform="translate(0)" fill="#99bbeb"/>
      <rect id="Rectángulo_39887" data-name="Rectángulo 39887" width="41.184" height="69.477" transform="translate(2.358 1.504)" fill="#fff"/>
      <g id="Grupo_94455" data-name="Grupo 94455" transform="translate(4.744 4.328)">
        <g id="Grupo_94452" data-name="Grupo 94452" transform="translate(9.932 4.265)">
          <path id="Trazado_211297" data-name="Trazado 211297" d="M590.122,683.034c1.55-3.335,4.174-4.4,8.482-4.4,5.13,0,7.793,1.858,8.548,4.564C597.966,683.321,590.122,683.034,590.122,683.034Z" transform="translate(-590.122 -662.263)" fill="#9bd6e8"/>
          <path id="Trazado_211298" data-name="Trazado 211298" d="M598.609,520.725c-2.172.61-2.076,1.83-2.8,2.962s-2.3,1.887-2.485,2.642.484,2.328-.314,3.209-1.07,1.321-.755,2.2,1.007,2.265,1.069,2.454a3.526,3.526,0,0,0,2.014,1.7,22.685,22.685,0,0,1,4.09.944c1.007.44,4.243-.564,6.04-.5s3.02-1.261,2.894-2.142,1.325-2.643,1.321-4.153c0-1.622-1.888-2.831-2.391-3.9s.063-2.957-1.825-4.075a10.858,10.858,0,0,0-2.957-.958A7,7,0,0,0,598.609,520.725Z" transform="translate(-591.919 -520.576)" fill="#3a384d"/>
          <path id="Trazado_211299" data-name="Trazado 211299" d="M657.369,610.657c-.491.725-.851.755-1.384,0A6.893,6.893,0,0,1,654.726,608v-6.907a1.262,1.262,0,0,1,1.258-1.258h1.384a1.262,1.262,0,0,1,1.258,1.258V608A6.99,6.99,0,0,1,657.369,610.657Z" transform="translate(-648.036 -591.627)" fill="#f09959"/>
          <path id="Trazado_211300" data-name="Trazado 211300" d="M657.369,599.835h-1.384a1.262,1.262,0,0,0-1.258,1.258v6.163c1.554.495,2.973-.489,3.9-1.6v-4.566A1.262,1.262,0,0,0,657.369,599.835Z" transform="translate(-648.036 -591.627)" fill="#e38540"/>
          <ellipse id="Elipse_5330" data-name="Elipse 5330" cx="4.184" cy="5.701" rx="4.184" ry="5.701" transform="translate(4.457 2.577)" fill="#f09959"/>
          <path id="Trazado_211301" data-name="Trazado 211301" d="M635.752,537.216c-2.643,4.467-6.544,4.027-6.544,4.027s.094-5.914,3.193-6.229,4.923.929,5.553,2.981a5.064,5.064,0,0,1,0,3.4,5.431,5.431,0,0,1-1.51-2.045A14.683,14.683,0,0,1,635.752,537.216Z" transform="translate(-625.16 -533.475)" fill="#3a384d"/>
          <ellipse id="Elipse_5331" data-name="Elipse 5331" cx="1.101" cy="1.652" rx="1.101" ry="1.652" transform="translate(2.187 7.643) rotate(-25.405)" fill="#f09959"/>
          <path id="Trazado_211302" data-name="Trazado 211302" d="M706.043,590.2c-.391.824-.263,1.7.286,1.964s1.312-.2,1.7-1.02.263-1.7-.286-1.964S706.434,589.377,706.043,590.2Z" transform="translate(-693.835 -582.011)" fill="#f09959"/>
          <path id="Trazado_211303" data-name="Trazado 211303" d="M661.518,630.368a1.811,1.811,0,0,1-3.146,0Z" transform="translate(-651.304 -618.998)" fill="#fff"/>
        </g>
        <path id="Trazado_211304" data-name="Trazado 211304" d="M619.555,787.207H608.989a1.229,1.229,0,0,1,0-2.457h10.566a1.229,1.229,0,0,1,0,2.457Z" transform="translate(-596.002 -753.127)" fill="#99bbeb"/>
        <path id="Trazado_211305" data-name="Trazado 211305" d="M604.743,823.659H590.307a1.229,1.229,0,0,1,0-2.457h14.436a1.229,1.229,0,0,1,0,2.457Z" transform="translate(-579.255 -785.804)" fill="#99bbeb"/>
        <path id="Trazado_211306" data-name="Trazado 211306" d="M530.044,963.683H494.93a.713.713,0,1,1,0-1.426h35.114a.713.713,0,0,1,0,1.426Z" transform="translate(-494.217 -912.252)" fill="#99bbeb"/>
        <path id="Trazado_211307" data-name="Trazado 211307" d="M530.044,995.679H494.93a.713.713,0,1,1,0-1.426h35.114a.713.713,0,0,1,0,1.426Z" transform="translate(-494.217 -940.934)" fill="#99bbeb"/>
        <path id="Trazado_211308" data-name="Trazado 211308" d="M530.044,1027.675H494.93a.713.713,0,1,1,0-1.426h35.114a.713.713,0,0,1,0,1.426Z" transform="translate(-494.217 -969.617)" fill="#99bbeb"/>
        <g id="Grupo_94453" data-name="Grupo 94453" transform="translate(4.351)">
          <path id="Trazado_211309" data-name="Trazado 211309" d="M562.8,505.243H537.508a1.274,1.274,0,0,1-1.273-1.273V480.66a1.274,1.274,0,0,1,1.273-1.273H562.8a1.274,1.274,0,0,1,1.273,1.273v23.31A1.274,1.274,0,0,1,562.8,505.243Zm-25.292-24.82a.24.24,0,0,0-.237.237v23.31a.241.241,0,0,0,.237.237H562.8a.24.24,0,0,0,.237-.237V480.66a.24.24,0,0,0-.237-.237Z" transform="translate(-536.235 -479.387)" fill="#99bbeb"/>
        </g>
        <g id="Grupo_94454" data-name="Grupo 94454" transform="translate(6.904 41.06)">
          <path id="Trazado_211310" data-name="Trazado 211310" d="M563.257,875.882l.732,1.484,1.637.238-1.185,1.155.28,1.631-1.465-.77-1.465.77.28-1.631-1.185-1.155,1.637-.238Z" transform="translate(-560.887 -875.882)" fill="#99bbeb"/>
          <path id="Trazado_211311" data-name="Trazado 211311" d="M621.171,875.882l.732,1.484,1.637.238-1.185,1.155.28,1.631-1.464-.77-1.464.77.28-1.631L618.8,877.6l1.637-.238Z" transform="translate(-612.804 -875.882)" fill="#99bbeb"/>
          <path id="Trazado_211312" data-name="Trazado 211312" d="M679.085,875.882l.732,1.484,1.637.238-1.185,1.155.28,1.631-1.464-.77-1.464.77.28-1.631-1.185-1.155,1.637-.238Z" transform="translate(-664.721 -875.882)" fill="#99bbeb"/>
          <path id="Trazado_211313" data-name="Trazado 211313" d="M737,875.882l.732,1.484,1.637.238-1.185,1.155.28,1.631-1.465-.77-1.465.77.28-1.631L734.63,877.6l1.637-.238Z" transform="translate(-716.637 -875.882)" fill="#99bbeb"/>
        </g>
      </g>
    </g>
    <g id="Grupo_94461" data-name="Grupo 94461" transform="translate(1038.079 2411.179)">
      <rect id="Rectángulo_39888" data-name="Rectángulo 39888" width="45.021" height="73.793" fill="#99bbeb"/>
      <rect id="Rectángulo_39889" data-name="Rectángulo 39889" width="41.184" height="69.477" transform="translate(2.358 1.504)" fill="#fff"/>
      <g id="Grupo_94460" data-name="Grupo 94460" transform="translate(4.744 4.328)">
        <g id="Grupo_94457" data-name="Grupo 94457" transform="translate(9.932 4.709)">
          <path id="Trazado_211314" data-name="Trazado 211314" d="M1578.225,596.877c0,3.305,1.99,8.638,6.685,8.467s5.733-5.255,5.915-6.689S1578.225,596.877,1578.225,596.877Z" transform="translate(-1576.269 -589.419)" fill="#7a4e34"/>
          <path id="Trazado_211315" data-name="Trazado 211315" d="M1559.335,683.034c1.55-3.335,4.174-4.4,8.482-4.4,5.129,0,7.793,1.858,8.548,4.564C1567.179,683.321,1559.335,683.034,1559.335,683.034Z" transform="translate(-1559.335 -662.707)" fill="#d54a41"/>
          <path id="Trazado_211316" data-name="Trazado 211316" d="M1626.583,610.657c-.491.725-.851.755-1.384,0A6.889,6.889,0,0,1,1623.94,608v-6.907a1.262,1.262,0,0,1,1.259-1.258h1.384a1.262,1.262,0,0,1,1.258,1.258V608A6.991,6.991,0,0,1,1626.583,610.657Z" transform="translate(-1617.25 -592.071)" fill="#f09959"/>
          <path id="Trazado_211317" data-name="Trazado 211317" d="M1626.583,599.835H1625.2a1.262,1.262,0,0,0-1.259,1.258v6.163c1.554.495,2.973-.489,3.9-1.6v-4.566A1.262,1.262,0,0,0,1626.583,599.835Z" transform="translate(-1617.25 -592.071)" fill="#e38540"/>
          <ellipse id="Elipse_5332" data-name="Elipse 5332" cx="4.184" cy="5.701" rx="4.184" ry="5.701" transform="translate(4.457 2.133)" fill="#f09959"/>
          <path id="Trazado_211318" data-name="Trazado 211318" d="M1587.087,528.361c-.5,1.753-1.587,1.733-3.106,2.309a4.119,4.119,0,0,0-2.743,2.277c-.634,1.43.288,5.6.288,5.6s-3.847-2.879-3.4-7.406,3.114-6.281,5.626-6.281a4.028,4.028,0,0,1,3.468,1.531,3.763,3.763,0,0,1,2.6,1.5c1.7,2.015,1.178,6.909,0,8.662s-1.963,2.3-1.937,2.224,1.1-4.1.523-6.595A15.906,15.906,0,0,0,1587.087,528.361Z" transform="translate(-1576.146 -524.86)" fill="#7a4e34"/>
          <path id="Trazado_211319" data-name="Trazado 211319" d="M1630.731,630.368a1.811,1.811,0,0,1-3.146,0Z" transform="translate(-1620.517 -619.442)" fill="#fff"/>
        </g>
        <path id="Trazado_211320" data-name="Trazado 211320" d="M1588.769,787.207H1578.2a1.229,1.229,0,0,1,0-2.457h10.566a1.229,1.229,0,1,1,0,2.457Z" transform="translate(-1565.216 -753.127)" fill="#99bbeb"/>
        <path id="Trazado_211321" data-name="Trazado 211321" d="M1573.956,823.659h-14.435a1.229,1.229,0,1,1,0-2.457h14.435a1.229,1.229,0,0,1,0,2.457Z" transform="translate(-1548.468 -785.804)" fill="#99bbeb"/>
        <path id="Trazado_211322" data-name="Trazado 211322" d="M1499.258,963.683h-35.114a.713.713,0,0,1,0-1.426h35.114a.713.713,0,0,1,0,1.426Z" transform="translate(-1463.431 -912.252)" fill="#99bbeb"/>
        <path id="Trazado_211323" data-name="Trazado 211323" d="M1499.258,995.679h-35.114a.713.713,0,0,1,0-1.426h35.114a.713.713,0,0,1,0,1.426Z" transform="translate(-1463.431 -940.934)" fill="#99bbeb"/>
        <path id="Trazado_211324" data-name="Trazado 211324" d="M1499.258,1027.675h-35.114a.713.713,0,0,1,0-1.426h35.114a.713.713,0,0,1,0,1.426Z" transform="translate(-1463.431 -969.617)" fill="#99bbeb"/>
        <g id="Grupo_94458" data-name="Grupo 94458" transform="translate(4.351)">
          <path id="Trazado_211325" data-name="Trazado 211325" d="M1532.014,505.243h-25.292a1.274,1.274,0,0,1-1.273-1.273V480.66a1.274,1.274,0,0,1,1.273-1.273h25.292a1.274,1.274,0,0,1,1.273,1.273v23.31A1.274,1.274,0,0,1,1532.014,505.243Zm-25.292-24.82a.24.24,0,0,0-.237.237v23.31a.241.241,0,0,0,.237.237h25.292a.241.241,0,0,0,.237-.237V480.66a.241.241,0,0,0-.237-.237Z" transform="translate(-1505.449 -479.387)" fill="#99bbeb"/>
        </g>
        <g id="Grupo_94459" data-name="Grupo 94459" transform="translate(6.904 41.06)">
          <path id="Trazado_211326" data-name="Trazado 211326" d="M1532.47,875.882l.732,1.484,1.637.238-1.185,1.155.28,1.631-1.464-.77-1.464.77.28-1.631L1530.1,877.6l1.637-.238Z" transform="translate(-1530.101 -875.882)" fill="#99bbeb"/>
          <path id="Trazado_211327" data-name="Trazado 211327" d="M1590.385,875.882l.732,1.484,1.637.238-1.185,1.155.28,1.631-1.464-.77-1.464.77.28-1.631-1.185-1.155,1.637-.238Z" transform="translate(-1582.018 -875.882)" fill="#99bbeb"/>
          <path id="Trazado_211328" data-name="Trazado 211328" d="M1648.3,875.882l.732,1.484,1.637.238-1.185,1.155.28,1.631-1.464-.77-1.464.77.28-1.631-1.185-1.155,1.637-.238Z" transform="translate(-1633.934 -875.882)" fill="#99bbeb"/>
          <path id="Trazado_211329" data-name="Trazado 211329" d="M1706.214,875.882l.732,1.484,1.637.238-1.184,1.155.279,1.631-1.464-.77-1.465.77.28-1.631-1.185-1.155,1.637-.238Z" transform="translate(-1685.851 -875.882)" fill="#99bbeb"/>
        </g>
      </g>
    </g>
    <path id="Trazado_211330" data-name="Trazado 211330" d="M851.444,513.022H780.393l5.026-72.78h68.587Z" transform="translate(191.696 1971.211)" fill="#99bbeb" opacity="0.2"/>
    <g id="Grupo_94466" data-name="Grupo 94466" transform="translate(979.553 2397.68)">
      <rect id="Rectángulo_39890" data-name="Rectángulo 39890" width="61.492" height="100.79" transform="translate(0 0)" fill="#99bbeb"/>
      <rect id="Rectángulo_39891" data-name="Rectángulo 39891" width="56.25" height="94.894" transform="translate(3.22 2.054)" fill="#fff"/>
      <g id="Grupo_94465" data-name="Grupo 94465" transform="translate(6.48 6.101)">
        <g id="Grupo_94462" data-name="Grupo 94462" transform="translate(12.855 4.384)">
          <path id="Trazado_211331" data-name="Trazado 211331" d="M1094.62,420c-.039-.118-1.024-5.77-1.142-7.969s3.533-2.512,3.533-2.512,2.983-1.609,5.142-.785a8.7,8.7,0,0,1,4.61,3.938c.981,1.727-.863,7.11-.863,7.11Z" transform="translate(-1087.851 -408.497)" fill="#2e2d3d"/>
          <path id="Trazado_211332" data-name="Trazado 211332" d="M1039.168,622.133c-.014-.093.252-2.317.262-2.408.5-4.684,6.271-6,12.033-6,6.77,0,11.362,1.239,12.1,6.106.021.143.412,2.373.392,2.523C1051.4,622.525,1039.168,622.133,1039.168,622.133Z" transform="translate(-1039.167 -592.471)" fill="#d5e1e8"/>
          <path id="Trazado_211333" data-name="Trazado 211333" d="M1131.009,520.882c-.671.99-1.162,1.031-1.891,0-.579-.82-2.512-2.69-2.512-3.636l.793-9.427a1.724,1.724,0,0,1,1.719-1.719h1.891a1.724,1.724,0,0,1,1.719,1.719l.368,9.427C1133.1,518.192,1131.61,519.994,1131.009,520.882Z" transform="translate(-1117.551 -495.993)" fill="#f09959"/>
          <path id="Trazado_211334" data-name="Trazado 211334" d="M1131.915,506.1h-1.891a1.724,1.724,0,0,0-1.719,1.719l-.689,8.363c2.123.676,4.989-.7,6.257-2.211l-.24-6.151A1.724,1.724,0,0,0,1131.915,506.1Z" transform="translate(-1118.457 -495.993)" fill="#e38540"/>
          <path id="Trazado_211335" data-name="Trazado 211335" d="M1097.339,618.793l3.031,5.6s1.622-1.335,1.78-1.073a23.991,23.991,0,0,1-.288,3.564,31.063,31.063,0,0,0,3.768-.108c.157-.157-.733-3.587-.366-3.587s1.468.995,1.468.995l3.384-5.393-.744-.181-5.545,2.983-5.93-2.918Z" transform="translate(-1091.315 -596.853)" fill="#bdccd4"/>
          <path id="Trazado_211336" data-name="Trazado 211336" d="M1130.81,638.138l2.251,1.51-.7,4.009,3.036-.169-.758-3.646,1.866-1.7-.876-.826h-3.944Z" transform="translate(-1121.32 -613.616)" fill="#d54a41"/>
          <path id="Trazado_211337" data-name="Trazado 211337" d="M1104.022,591.582l-2.784,2.649s2.836,5.045,2.994,5.045,2.407-2.781,2.407-2.781l1.441-.025,2.276,2.388,2.645-4.678-2.7-2.859s-2.3,4.449-2.722,4.553-.422.157-.76-.1S1104.022,591.582,1104.022,591.582Z" transform="translate(-1094.81 -572.387)" fill="#d5e1e8"/>
          <ellipse id="Elipse_5333" data-name="Elipse 5333" cx="5.715" cy="7.787" rx="5.715" ry="7.787" transform="translate(6.798 2.416)" fill="#f09959"/>
          <path id="Trazado_211338" data-name="Trazado 211338" d="M1084.258,492.942c.535,1.125.36,2.327-.391,2.683s-1.792-.267-2.326-1.392-.36-2.327.391-2.683S1083.724,491.816,1084.258,492.942Z" transform="translate(-1076.875 -482.859)" fill="#f09959"/>
          <path id="Trazado_211339" data-name="Trazado 211339" d="M1204.357,492.942c-.534,1.125-.36,2.327.391,2.683s1.792-.267,2.326-1.392.36-2.327-.391-2.683S1204.892,491.816,1204.357,492.942Z" transform="translate(-1186.973 -482.859)" fill="#f09959"/>
          <path id="Trazado_211340" data-name="Trazado 211340" d="M1140.581,537.875s-1.135,1.839-2.535,1.839-2.535-1.839-2.535-1.839Z" transform="translate(-1125.533 -524.477)" fill="#fff"/>
          <path id="Trazado_211341" data-name="Trazado 211341" d="M1106.919,428.167c2.355-1.649,3.415-1.374,5.181,1.335s3.886,2.756,3.886,2.756l.275-2.809s-2.631-5.09-6.163-4.422a9.323,9.323,0,0,0-5.541,3.847s-.172,5.96.321,6.163.55-1.923.9-2.355-.353-2.473.118-3.415S1106.919,428.167,1106.919,428.167Z" transform="translate(-1097.759 -423.261)" fill="#2e2d3d"/>
          <path id="Trazado_211342" data-name="Trazado 211342" d="M1200.773,485.439c.822.9.51,4.475.942,4.436s.589-3.415.471-3.768S1200.773,485.439,1200.773,485.439Z" transform="translate(-1184.037 -477.471)" fill="#2e2d3d"/>
        </g>
        <path id="Trazado_211343" data-name="Trazado 211343" d="M1040.987,784.765h-26.25a1.678,1.678,0,1,1,0-3.356h26.25a1.678,1.678,0,1,1,0,3.356Z" transform="translate(-1002.908 -738.406)" fill="#99bbeb"/>
        <path id="Trazado_211344" data-name="Trazado 211344" d="M1066,834.553h-19.717a1.678,1.678,0,0,1,0-3.356H1066a1.678,1.678,0,0,1,0,3.356Z" transform="translate(-1031.185 -783.038)" fill="#99bbeb"/>
        <path id="Trazado_211345" data-name="Trazado 211345" d="M963.971,1025.8H916.011a.974.974,0,0,1,0-1.947h47.961a.974.974,0,1,1,0,1.947Z" transform="translate(-915.037 -955.746)" fill="#99bbeb"/>
        <path id="Trazado_211346" data-name="Trazado 211346" d="M963.971,1069.505H916.011a.974.974,0,0,1,0-1.947h47.961a.974.974,0,1,1,0,1.947Z" transform="translate(-915.037 -994.922)" fill="#99bbeb"/>
        <path id="Trazado_211347" data-name="Trazado 211347" d="M963.971,1113.207H916.011a.974.974,0,0,1,0-1.948h47.961a.974.974,0,1,1,0,1.948Z" transform="translate(-915.037 -1034.098)" fill="#99bbeb"/>
        <g id="Grupo_94463" data-name="Grupo 94463" transform="translate(6.133)">
          <path id="Trazado_211348" data-name="Trazado 211348" d="M1010.35,401.1H975.805a1.551,1.551,0,0,1-1.549-1.549V367.709a1.551,1.551,0,0,1,1.549-1.549h34.545a1.551,1.551,0,0,1,1.549,1.549v31.838A1.551,1.551,0,0,1,1010.35,401.1Zm-34.545-33.9a.514.514,0,0,0-.514.513v31.838a.514.514,0,0,0,.514.513h34.545a.514.514,0,0,0,.513-.513V367.709a.514.514,0,0,0-.513-.513Z" transform="translate(-974.256 -366.16)" fill="#99bbeb"/>
        </g>
        <g id="Grupo_94464" data-name="Grupo 94464" transform="translate(5.269 55.893)">
          <path id="Trazado_211349" data-name="Trazado 211349" d="M969.155,905.881l1,2.027,2.236.325-1.618,1.577.382,2.227-2-1.052-2,1.052.382-2.227-1.618-1.577,2.236-.325Z" transform="translate(-965.918 -905.881)" fill="#99bbeb"/>
          <path id="Trazado_211350" data-name="Trazado 211350" d="M1048.257,905.881l1,2.027,2.236.325-1.618,1.577.382,2.227-2-1.052-2,1.052.382-2.227-1.618-1.577,2.236-.325Z" transform="translate(-1036.828 -905.881)" fill="#99bbeb"/>
          <path id="Trazado_211351" data-name="Trazado 211351" d="M1127.359,905.881l1,2.027,2.236.325-1.618,1.577.382,2.227-2-1.052-2,1.052.382-2.227-1.618-1.577,2.236-.325Z" transform="translate(-1107.739 -905.881)" fill="#99bbeb"/>
          <path id="Trazado_211352" data-name="Trazado 211352" d="M1206.461,905.881l1,2.027,2.236.325-1.618,1.577.382,2.227-2-1.052-2,1.052.382-2.227-1.618-1.577,2.236-.325Z" transform="translate(-1178.649 -905.881)" fill="#99bbeb"/>
          <path id="Trazado_211353" data-name="Trazado 211353" d="M1286.819,905.881l1,2.027,2.236.325-1.618,1.577.382,2.227-2-1.052-2,1.052.382-2.227-1.618-1.577,2.236-.325Z" transform="translate(-1250.686 -905.881)" fill="#99bbeb"/>
        </g>
      </g>
    </g>
    <rect id="Rectángulo_39892" data-name="Rectángulo 39892" width="80.625" height="3.004" rx="1.502" transform="translate(1060.038 2492.226)" fill="#2e5b9a"/>
    <g id="Grupo_94471" data-name="Grupo 94471" transform="translate(1091.888 2440.891)">
      <path id="Trazado_211354" data-name="Trazado 211354" d="M2502.908,783.736a7.148,7.148,0,0,1-4.418,8.47c-2.877.816-4.929-1.745-6-5.515s.4-7.487,3.272-8.3S2501.839,779.967,2502.908,783.736Z" transform="translate(-2434.675 -772.666)" fill="#f09959"/>
      <path id="Trazado_211355" data-name="Trazado 211355" d="M2411.534,1536.709s7.372,11.45,8.368,11.948,3.485.622,2.551,2.489-1.307,9.21-2.178,9.583-8.339,1.245-7.219,0,1.809-.622,2.374-2.863,1.359-6.472.3-7.343-7.53-8.712-7.53-8.712Z" transform="translate(-2359.428 -1452.599)" fill="#f09959"/>
      <path id="Trazado_211356" data-name="Trazado 211356" d="M1952.22,1584.192s-8.962,14.77-10.621,16.1-7.136,3.319-2.655,3.651,6.638-1.494,9.459-2.323,6.306-1.328,4.979-3.485-.776-6.867,2.086-9.854S1952.22,1584.192,1952.22,1584.192Z" transform="translate(-1937.219 -1495.165)" fill="#f09959"/>
      <path id="Trazado_211357" data-name="Trazado 211357" d="M2094.862,1253.367s-22.185-.58-30.98,6.638c-5.145,7.8-17.59,30.814-18.558,33.35a12.466,12.466,0,0,0,6.058,1.7c4.9-5.838,11.366-10.884,13.94-15.463,3.171-5.642,4.149-8.464,9.293-8.962s16.761-2.157,20.247-2.157S2094.862,1253.367,2094.862,1253.367Z" transform="translate(-2034.129 -1198.589)" fill="#6791c9"/>
      <path id="Trazado_211358" data-name="Trazado 211358" d="M2628.238,1474.113h-1.163l-8.339-34.791h2.558Z" transform="translate(-2548.159 -1365.297)" fill="#2e5b9a"/>
      <path id="Trazado_211359" data-name="Trazado 211359" d="M2374.111,1463.466h1.163l9.569-36.021h-2.558Z" transform="translate(-2328.867 -1354.651)" fill="#2e5b9a"/>
      <path id="Trazado_211360" data-name="Trazado 211360" d="M2268.144,1238.789l-12.9,2.226s-17.14.157-24.974,1.617c-7.128,1.328-8.178,9.427,0,20.578,4.646,6.335,8.573,11.388,16.606,17.086,2.043-1.5,2.825-2.068,3.389-5.677-.581-.8-2.086-5.786-2.553-6.763-4.443-9.287-10.373-12.665-10.455-13.578,1-1.618,26.375,8.434,31.421,2.521C2273.5,1251.154,2268.144,1238.789,2268.144,1238.789Z" transform="translate(-2194.772 -1185.531)" fill="#75a1de"/>
      <path id="Trazado_211361" data-name="Trazado 211361" d="M2508.435,955.557a13.5,13.5,0,0,0-10.092,2.511c-2.827,2.882-6.027,7.635-5.831,15.475.249,9.957-1.541,10.6.326,13.334,7.787,3.215,21.1,17.031,17.968,2.22-2.271-10.724,4.98-18.718-.869-30.614C2509.461,957.515,2508.866,956.576,2508.435,955.557Z" transform="translate(-2434.528 -931.499)" fill="#f37168"/>
      <path id="Trazado_211362" data-name="Trazado 211362" d="M2492.513,998.823c-.151,5.191-.884,6.72-.324,8.347,3.175.324,8.981,1.594,10.432,3.626,1.659,2.323,3.319,2.655,2.544.94s-2.821-4.149.332-12.5,4.647-14,1.549-19.8Z" transform="translate(-2434.531 -953.031)" fill="#d54a41"/>
      <path id="Trazado_211363" data-name="Trazado 211363" d="M2563.533,865.8a40.527,40.527,0,0,1-2.605-10.515l-5.476,1.618s3.111,6.97.125,9.459a28.463,28.463,0,0,0-2.135,1.95A13.5,13.5,0,0,1,2563.533,865.8Z" transform="translate(-2489.626 -841.746)" fill="#f09959"/>
      <path id="Trazado_211364" data-name="Trazado 211364" d="M2578.568,859.144c-.325-.289-.73-.649-1.157-1.026l-4.467,1.32-.01.024a18.225,18.225,0,0,1,1.4,5.455,15.75,15.75,0,0,0,4.455-4.424C2578.7,859.982,2578.624,859.527,2578.568,859.144Z" transform="translate(-2507.101 -844.282)" fill="#e38540"/>
      <path id="Trazado_211365" data-name="Trazado 211365" d="M2325.721,970.509c-5.64,1.973-5.015,7.915-10.206,16.678-2.687,4.535-5.181,4.468-5.181,4.468a120.181,120.181,0,0,1-13.921-.881c-4.772-.583-5.075.837-1.756,2.024,6.694,2.393,13.64,4.969,19.24,4.347s15.18-14.912,15.674-18.632C2330.255,973.367,2328.562,969.516,2325.721,970.509Z" transform="translate(-2255.665 -944.894)" fill="#f09959"/>
      <g id="Grupo_94467" data-name="Grupo 94467" transform="translate(47.324 37.891)">
        <path id="Trazado_211366" data-name="Trazado 211366" d="M2414.028,1127.989c-.351,0-.709,0-1.078-.014a53.631,53.631,0,0,1-10.24-1.26c-2.936-.6-4.552-.925-6.435-.026a1.45,1.45,0,1,1-1.25-2.616c2.758-1.318,5.067-.849,8.262-.2a51.079,51.079,0,0,0,9.734,1.2c4.859.121,7.822-.6,9.323-2.265,1.338-1.484,1.729-3.976,1.232-7.845-.17-1.324-.341-2.425-.491-3.4a23.5,23.5,0,0,1-.357-7.351c.322-2.6,1.183-6.062,3.177-12.776a1.45,1.45,0,1,1,2.78.826c-3.715,12.511-3.527,13.73-2.733,18.858.153.989.326,2.109.5,3.47.614,4.77-.008,8-1.954,10.156C2422.493,1126.977,2419.239,1127.989,2414.028,1127.989Z" transform="translate(-2394.199 -1090.406)" fill="#2e5b9a"/>
      </g>
      <path id="Trazado_211367" data-name="Trazado 211367" d="M1952.829,1704.4c-5.946,2.908-9.147,4.575-11.053,4.416-.45-.037-.823-.083-1.136-.132-2.12,1.253-5.505,2.734-1.7,3.016,4.481.332,6.638-1.494,9.459-2.323s6.306-1.328,4.979-3.485A4.549,4.549,0,0,1,1952.829,1704.4Z" transform="translate(-1937.219 -1602.924)" fill="#d54a41"/>
      <path id="Trazado_211368" data-name="Trazado 211368" d="M2461.579,1654.431c-.146,4.708-.792,9.373-3.672,10.254a4.836,4.836,0,0,1-2.075.185c-.453.56-1.005.566-1.747,1.39-1.12,1.245,6.348.374,7.219,0s1.245-7.717,2.178-9.583C2464.249,1655.144,2462.706,1654.786,2461.579,1654.431Z" transform="translate(-2400.457 -1558.13)" fill="#d54a41"/>
      <g id="Grupo_94468" data-name="Grupo 94468" transform="translate(10.243 32.417)">
        <path id="Trazado_211369" data-name="Trazado 211369" d="M2064.1,1056.871h-18.891a1.449,1.449,0,0,1-1.315-.839l-7.634-16.43a1.45,1.45,0,0,1,2.63-1.222l7.244,15.591H2064.1a1.45,1.45,0,0,1,0,2.9Z" transform="translate(-2036.13 -1037.542)" fill="#75a1de"/>
      </g>
      <path id="Trazado_211370" data-name="Trazado 211370" d="M2199.024,1151.545c-3.817-.055-7.6-2.331-9.483-2s-8.021,4.591-7.247,4.757,5.643-2.357,5.809-2.4a8.18,8.18,0,0,0,3.817,2.4c2.6.656.018-1.949,8.078.486C2205.237,1156.379,2199.024,1151.545,2199.024,1151.545Z" transform="translate(-2156.854 -1105.5)" fill="#f09959"/>
      <path id="Trazado_211371" data-name="Trazado 211371" d="M2533.625,913.192l.562,4.519s-4.939.294-7.4,1.677-6.085,5.379-6.085,5.379l2.964-5.1.426-3.264Z" transform="translate(-2460.279 -893.653)" fill="#f2e5de"/>
      <path id="Trazado_211372" data-name="Trazado 211372" d="M2376.114,965.827c-3.668-.687-5.366,2.6-7.745,7.966a77.153,77.153,0,0,1-7.247,12.723c-.808.84-13.608,0-13.608,0s-.387,3.706,0,4.149,2.6.387,2.6.387.885.707,1.715,1.266,7.855,1.61,11.119,1.445,6.251-.443,6.693-.941,9.349-14.217,9.9-19.14S2377.986,966.178,2376.114,965.827Z" transform="translate(-2304.87 -940.756)" fill="#f2e5de"/>
      <path id="Trazado_211373" data-name="Trazado 211373" d="M2469.524,727.013c-6.938.332-5.85,10.77-5.85,10.77a13.489,13.489,0,0,0,5.577-.066,20.844,20.844,0,0,1-.166-3.983,26.045,26.045,0,0,0,1,3.734c.8.366,1.7.041,3.236-.329a6.828,6.828,0,0,0,4.541,5.2c1.685.53,3.469,1.162,5.46.166s.9-11.174-.161-13.221c-1.587-3.072-4.226-5.822-8.789-4.37A33.891,33.891,0,0,0,2469.524,727.013Z" transform="translate(-2409.099 -724.512)" fill="#303c60"/>
      <path id="Trazado_211374" data-name="Trazado 211374" d="M2637.22,861.911l2.837,4.143s-3.144,7.855,6,11.414c7.161,2.787,6.318,7.7,3.082,12.637s1.936,9.252,1.936,9.252.789-5.471,7.747-6.5c9.487-1.408,12.173-14.145,5.087-20.514-5.864-5.27-7.647-.906-11.617-5.635s-11.462-1.535-11.462-1.535l-2.746-4.005Z" transform="translate(-2564.729 -847.012)" fill="#303c60"/>
      <g id="Grupo_94469" data-name="Grupo 94469" transform="translate(75.848 16.352)">
        <path id="Trazado_211375" data-name="Trazado 211375" d="M2696.231,904.215a.252.252,0,0,1-.221-.373c2.385-4.359.439-9.641-.54-11.072-.1-.152-.2-.305-.307-.468-.962-1.5-2.159-3.37-8.547-4.52a10.169,10.169,0,0,1-4.1-2.159c-2.724-2-5.811-4.266-12.52-1.179a.252.252,0,0,1-.211-.458c6.978-3.212,10.193-.852,13.029,1.23a9.808,9.808,0,0,0,3.894,2.07c6.6,1.189,7.867,3.16,8.882,4.745.1.159.2.31.3.455,1.026,1.5,3.065,7.033.567,11.6A.253.253,0,0,1,2696.231,904.215Z" transform="translate(-2669.636 -882.409)" fill="#303c60"/>
      </g>
      <g id="Grupo_94470" data-name="Grupo 94470" transform="translate(63.563 9.275)">
        <path id="Trazado_211376" data-name="Trazado 211376" d="M2558.419,823.941a9.988,9.988,0,0,1-1.473-.119c-2.427-.364-5.685-1.743-5.94-9.49a.252.252,0,1,1,.5-.017c.105,3.193.739,5.556,1.883,7.022a5.292,5.292,0,0,0,3.627,1.986c2.246.336,3.736-.078,4.426-1.233a.252.252,0,1,1,.433.259A3.7,3.7,0,0,1,2558.419,823.941Z" transform="translate(-2551.006 -814.072)" fill="#303c60"/>
      </g>
    </g>
    <path id="Trazado_211377" data-name="Trazado 211377" d="M1711.333,1295.412h1.864l7.252-55.435h-4.1Z" transform="translate(-642.837 1254.295)" fill="#2e5b9a"/>
    <path id="Trazado_211378" data-name="Trazado 211378" d="M2243.271,1295.412h-1.864l-7.252-55.435h4.1Z" transform="translate(-1111.516 1254.295)" fill="#2e5b9a"/>
    <g id="Grupo_94472" data-name="Grupo 94472" transform="translate(1182.331 2490)">
      <path id="Trazado_211379" data-name="Trazado 211379" d="M2999,1323.431c3.225,2.945,1.823,5.89-.561,11.359s-2.8,25.663-2.8,25.663l1.963-.281s-.281-20.754,2.384-26.364,3.786-8.414,6.17-6.591S2999,1323.431,2999,1323.431Z" transform="translate(-2976.472 -1310.517)" fill="#74b570"/>
      <path id="Trazado_211380" data-name="Trazado 211380" d="M3009.52,1207.833c.392-1.745,2.718-3.634,5.828-5.235-.463,2.574-1.945,6.783-.411,7.646,2.07,1.164.2-4.712,1-7.942a38.43,38.43,0,0,1,9.671-3.172l-.013.036c-1.823,4.628-4.207,6.451-3.225,7.152.739.527,3.144-4.818,6.32-7.558,2.384-.127,4.4.2,5.594,1.141,1.844,1.46,3.082,2.755,1.228,7.2a8.336,8.336,0,0,1-4.027,1.46c-4.207.421-6.17.561-3.226,1.963,1.443.687,3.86-.039,5.819-.481-.635,1.171-1.417,2.5-2.367,4.008a14.875,14.875,0,0,1-1.971,2.508,6.22,6.22,0,0,1-3.164-.005c-1.963-.842-7.012-3.506-8.274-2.384-1.235,1.1,9.35,1.794,8.616,4.584-5.131,2.956-11,1.549-12.039-1.165C3013.486,1213.944,3008.34,1213.087,3009.52,1207.833Z" transform="translate(-2988.761 -1198.733)" fill="#9cd499"/>
      <path id="Trazado_211381" data-name="Trazado 211381" d="M2976.045,1463.62c-5.609-4.207-11.359-.28-14.3,4.207s-.842,14.584-.842,14.584,1.122,0,1.122-.421-3.085-11.92,4.207-17.108c4.562-3.246,7.853-1.683,8.274-.14s-1.823,4.347-1.823,4.347Z" transform="translate(-2944.679 -1434.58)" fill="#74b570"/>
      <path id="Trazado_211382" data-name="Trazado 211382" d="M2986.708,1395.649c5.609,0,7.433,8.695,5.89,13.743s-3.646,14.444-3.646,14.444l-1.4-1.4s5.329-13.182,4.067-19.072-4.347-6.871-4.908-6.871S2986.708,1395.649,2986.708,1395.649Z" transform="translate(-2968.244 -1375.257)" fill="#9cd499"/>
      <path id="Trazado_211383" data-name="Trazado 211383" d="M3022.11,1517.992a4.071,4.071,0,0,1,1.477-1.241,11.08,11.08,0,0,1-.291,1.2c-.7,2.3-1.522,5.5-2.206,8.308l-.305-1.767c-.035-.2-.062-.421-.082-.653A54.236,54.236,0,0,0,3022.11,1517.992Z" transform="translate(-2998.942 -1483.818)" fill="#74b570"/>
      <path id="Trazado_211384" data-name="Trazado 211384" d="M3024,1460.7c10.658-4.488,5.042-10.645,14.438-6.579a1.635,1.635,0,1,1-.7,2.244c-2.8-.421-1.823,1.823,2.8,2.384a10.392,10.392,0,0,1,2.168.458c2.2,4.234,3.2,9.806-1.467,11.743a10.561,10.561,0,0,1-3.32.682c-1.44-1.144.351-7.766-1.868-6.852-2.131.878.668,5.676.284,6.885a30.73,30.73,0,0,1-6.657-.933,3.313,3.313,0,0,1-1.76-2.026c-.7-2.945,3.927-4.768,4.067-7.292.129-2.32-1.7,5.105-6.531,6.2C3021.083,1465.566,3019.018,1462.794,3024,1460.7Z" transform="translate(-2999.297 -1426.48)" fill="#9cd499"/>
      <path id="Trazado_211385" data-name="Trazado 211385" d="M2827.679,1364.522c1.122-2.384-1.823-2.945-1.683-1.122.124,1.615.138,5.542-1.519,6.611a25.99,25.99,0,0,1-9.683-3.216,1.191,1.191,0,0,1,.124-.731c1.262-2.524,9.4-4.628,6.871-5.469-2.01-.67-5.533,3.285-8.371,5.278-1.7-1.293-2.847-2.835-2.847-4.557,0-2.33,2.831-4.967,6.491-6.227,1.648.166,3.178,1.067,5.569,2.422,3.531,2,2.715-1.234-.625-3.155a10.057,10.057,0,0,1,7.876,4.323,4.916,4.916,0,0,0,1.131,3.2c3.631,5.307-.56,8.405-5.569,8.2A32.946,32.946,0,0,1,2827.679,1364.522Z" transform="translate(-2810.571 -1338.24)" fill="#9cd499"/>
      <path id="Trazado_211386" data-name="Trazado 211386" d="M3099.33,1476.551a47.627,47.627,0,0,0,9.528,6.28c3.74,1.683,2.992,7.168,2.992,7.168s.561-4.737-2.556-6.358-5.173-3.553-7.542-3.927a34.324,34.324,0,0,1-3.677-.748s.748-1.5.312-2.057S3099.33,1476.551,3099.33,1476.551Z" transform="translate(-3068.302 -1447.748)" fill="#74b570"/>
      <path id="Trazado_211387" data-name="Trazado 211387" d="M3066.447,1236.565a43.979,43.979,0,0,0-18.761,10.658c-1.371,1.558-1.371,1.995-1.371,1.995l1.06,1.995.5-.249s-.81-1.683,1.309-3.865a38.36,38.36,0,0,1,11.157-8.04C3063.393,1237.749,3066.447,1236.565,3066.447,1236.565Z" transform="translate(-3021.902 -1232.647)" fill="#74b570"/>
      <path id="Rectángulo_39893" data-name="Rectángulo 39893" d="M6.853,0h0a6.853,6.853,0,0,1,6.853,6.853v6.892a0,0,0,0,1,0,0H0a0,0,0,0,1,0,0V6.853A6.853,6.853,0,0,1,6.853,0Z" transform="translate(25.616 59.463) rotate(180)" fill="#75a1de"/>
      <rect id="Rectángulo_39894" data-name="Rectángulo 39894" width="13.706" height="0.965" transform="translate(11.91 47.293)" fill="#fff"/>
      <rect id="Rectángulo_39895" data-name="Rectángulo 39895" width="13.706" height="0.568" transform="translate(11.91 49.052)" fill="#fff"/>
    </g>
    <g id="Grupo_94473" data-name="Grupo 94473" transform="translate(926.912 2532.277)">
      <rect id="Rectángulo_39896" data-name="Rectángulo 39896" width="5.771" height="5.194" rx="2.597" transform="translate(26.759 5.194) rotate(180)" fill="#9ec8ff"/>
      <rect id="Rectángulo_39897" data-name="Rectángulo 39897" width="5.771" height="5.194" rx="2.597" transform="translate(16.265 5.194) rotate(180)" fill="#9ec8ff"/>
      <rect id="Rectángulo_39898" data-name="Rectángulo 39898" width="5.771" height="5.194" rx="2.597" transform="translate(5.771 5.194) rotate(180)" fill="#9ec8ff"/>
    </g>
    <g id="Grupo_94474" data-name="Grupo 94474" transform="translate(1221.6 2436.153)">
      <path id="Rectángulo_39899" data-name="Rectángulo 39899" d="M2.6,0h.578a2.6,2.6,0,0,1,2.6,2.6v0a2.6,2.6,0,0,1-2.6,2.6H2.6A2.6,2.6,0,0,1,0,2.6v0A2.6,2.6,0,0,1,2.6,0Z" transform="translate(5.194 0) rotate(90)" fill="#9ec8ff"/>
      <path id="Rectángulo_39900" data-name="Rectángulo 39900" d="M2.6,0h.578a2.6,2.6,0,0,1,2.6,2.6v0a2.6,2.6,0,0,1-2.6,2.6H2.6A2.6,2.6,0,0,1,0,2.6v0A2.6,2.6,0,0,1,2.6,0Z" transform="translate(5.194 10.494) rotate(90)" fill="#9ec8ff"/>
      <path id="Rectángulo_39901" data-name="Rectángulo 39901" d="M2.6,0h.578a2.6,2.6,0,0,1,2.6,2.6v0a2.6,2.6,0,0,1-2.6,2.6H2.6A2.6,2.6,0,0,1,0,2.6v0A2.6,2.6,0,0,1,2.6,0Z" transform="translate(5.194 20.987) rotate(90)" fill="#9ec8ff"/>
    </g>
  </g>
</svg>
