<svg xmlns="http://www.w3.org/2000/svg" xmlns:xlink="http://www.w3.org/1999/xlink" width="140.093" height="160.351" viewBox="0 0 140.093 160.351">
  <defs>
    <linearGradient id="linear-gradient" x1="-0.003" y1="1.271" x2="1.014" y2="0.027" gradientUnits="objectBoundingBox">
      <stop offset="0.385" stop-color="#fff"/>
      <stop offset="0.462" stop-color="#e5e5e5"/>
      <stop offset="0.627" stop-color="#a4a4a4"/>
      <stop offset="0.864" stop-color="#3d3d3d"/>
      <stop offset="1"/>
    </linearGradient>
    <clipPath id="clip-path">
      <path id="Trazado_212989" data-name="Trazado 212989" d="M563.839,64.764c.875,1.107,5.483,4.682,8.142,4.4s7.074-2.659,7.952-4.56c.731.792,3.482,2.93,3.482,2.93L571.7,94.851,560.773,68.562Z" transform="translate(-560.773 -64.604)" fill="none"/>
    </clipPath>
    <linearGradient id="linear-gradient-2" x1="20.507" y1="18.043" x2="21.308" y2="17.233" gradientUnits="objectBoundingBox">
      <stop offset="0.104" stop-color="#fff"/>
      <stop offset="0.206" stop-color="#fbfbfb"/>
      <stop offset="0.297" stop-color="#f0f0f0"/>
      <stop offset="0.383" stop-color="#dedede"/>
      <stop offset="0.467" stop-color="#c4c4c4"/>
      <stop offset="0.549" stop-color="#a3a3a3"/>
      <stop offset="0.63" stop-color="#7a7a7a"/>
      <stop offset="0.71" stop-color="#4a4a4a"/>
      <stop offset="0.787" stop-color="#141414"/>
      <stop offset="0.813"/>
    </linearGradient>
  </defs>
  <g id="Grupo_97287" data-name="Grupo 97287" transform="translate(-1044.491 -6203)">
    <path id="Trazado_212969" data-name="Trazado 212969" d="M644.5,131.256a4.647,4.647,0,0,1-2.087,3.621L576.548,172.9a4.636,4.636,0,0,1-4.181,0L506.5,134.878a4.635,4.635,0,0,1-2.09-3.621V55.2a4.63,4.63,0,0,1,2.09-3.621l65.867-38.029a4.636,4.636,0,0,1,4.181,0l65.869,38.029A4.643,4.643,0,0,1,644.5,55.2Z" transform="translate(540.081 6189.949)" fill="#fff" opacity="0.78" style="mix-blend-mode: screen;isolation: isolate"/>
    <path id="Trazado_212970" data-name="Trazado 212970" d="M642.254,129.715a4.537,4.537,0,0,1-2.036,3.531l-64.257,37.095a4.525,4.525,0,0,1-4.076,0L507.63,133.246a4.526,4.526,0,0,1-2.04-3.531v-74.2a4.522,4.522,0,0,1,2.04-3.534L571.884,14.89a4.516,4.516,0,0,1,4.076,0l64.257,37.095a4.533,4.533,0,0,1,2.036,3.534Z" transform="translate(540.616 6190.562)" fill="#472ea6" opacity="0.5"/>
    <g id="Grupo_96961" data-name="Grupo 96961" transform="translate(1151.453 6217.118)">
      <g id="Grupo_96960" data-name="Grupo 96960">
        <g id="Grupo_96959" data-name="Grupo 96959">
          <path id="Rectángulo_40419" data-name="Rectángulo 40419" d="M1.5,0H22.078a1.5,1.5,0,0,1,1.5,1.5v35.53a1.5,1.5,0,0,1-1.5,1.5H1.5a1.5,1.5,0,0,1-1.5-1.5V1.5A1.5,1.5,0,0,1,1.5,0Z" fill="#fff"/>
          <path id="Rectángulo_40420" data-name="Rectángulo 40420" d="M.184,0H18.306a.184.184,0,0,1,.184.184V24.059a.184.184,0,0,1-.184.184H.185A.185.185,0,0,1,0,24.058V.184A.184.184,0,0,1,.184,0Z" transform="translate(2.543 5.806)" fill="#185f93"/>
          <g id="Grupo_96957" data-name="Grupo 96957" transform="translate(10.366 32.826)">
            <path id="Trazado_212971" data-name="Trazado 212971" d="M585.15,46.777a1.422,1.422,0,1,0,1.424-1.421A1.424,1.424,0,0,0,585.15,46.777Z" transform="translate(-585.15 -45.356)" fill="#003768"/>
            <path id="Trazado_212972" data-name="Trazado 212972" d="M585.523,46.608a.88.88,0,0,1,.882-.879h0a.879.879,0,0,1,.879.879h0a.882.882,0,0,1-.879.881h0a.882.882,0,0,1-.882-.881Zm.882.677a.676.676,0,0,0,.674-.677h0a.678.678,0,0,0-.674-.679h0a.68.68,0,0,0-.679.679h0a.679.679,0,0,0,.679.677Z" transform="translate(-584.981 -45.187)" fill="#a7c4c3"/>
          </g>
          <g id="Grupo_96958" data-name="Grupo 96958" transform="translate(8.796 2.59)">
            <path id="Rectángulo_40421" data-name="Rectángulo 40421" d="M.184,0H5.8a.184.184,0,0,1,.184.184V.618A.185.185,0,0,1,5.8.8H.184A.184.184,0,0,1,0,.619V.184A.184.184,0,0,1,.184,0Z" fill="#003768"/>
          </g>
        </g>
      </g>
    </g>
    <g id="Grupo_96979" data-name="Grupo 96979" transform="translate(1080.041 6243.995)">
      <path id="Trazado_212973" data-name="Trazado 212973" d="M580.278,90.878l-29.543,12.417L528.874,92.382,568.6,69.411Z" transform="translate(-528.874 -28.506)" opacity="0.5" fill="url(#linear-gradient)" style="mix-blend-mode: multiply;isolation: isolate"/>
      <path id="Trazado_212974" data-name="Trazado 212974" d="M606.1,84.156v-.317c-1.425-9.5-3.83-10.906-18.131-17.654l-18.686.4c-14.306,4.848-17.971,8.074-19.237,18.843l-1.584,14.251h59.01Z" transform="translate(-519.999 -29.968)" fill="#003768"/>
      <g id="Grupo_96962" data-name="Grupo 96962" transform="translate(49.047 31.705)">
        <path id="Trazado_212975" data-name="Trazado 212975" d="M563.89,63.08l-1.265,4.75,8.828,7.121-.279-11.079Z" transform="translate(-562.626 -63.08)" fill="#bddbe0"/>
        <path id="Trazado_212976" data-name="Trazado 212976" d="M575.964,63.189l1.266,4.75-8.831,7.12.281-11.079Z" transform="translate(-560.01 -63.03)" fill="#fff"/>
      </g>
      <path id="Trazado_212977" data-name="Trazado 212977" d="M563.947,64.653c.876,1.11,5.484,4.684,8.146,4.4s7.073-2.656,7.949-4.559c.729.792,3.482,2.93,3.482,2.93L571.805,94.741,560.882,68.453Z" transform="translate(-514.369 -30.734)" fill="#fff"/>
      <g id="Grupo_96973" data-name="Grupo 96973" transform="translate(43.59)">
        <g id="Grupo_96965" data-name="Grupo 96965" transform="translate(0 0.557)">
          <g id="Grupo_96964" data-name="Grupo 96964">
            <g id="Grupo_96963" data-name="Grupo 96963" transform="translate(5.756 31.24)">
              <path id="Trazado_212978" data-name="Trazado 212978" d="M562.832,63.143a15.829,15.829,0,0,0,1.112,1.343l.007-.025A16.434,16.434,0,0,1,562.832,63.143Z" transform="translate(-562.832 -63.143)" fill="#fff"/>
            </g>
            <path id="Trazado_212979" data-name="Trazado 212979" d="M587.226,60.748c0-1.609-.464-2.255-1.255-2.52.189-3.283.661-6.759-.541-9.165-2.289-4.593-8.607-7.418-12.92-7.418-4.139,0-9.414,2.425-11.728,6.7-1.423,2.637-.7,6.112-.519,9.662-.878.232-1.392.862-1.392,2.562,0,2.527,1.134,6.517,2.908,7.086.228.618.481,1.212.754,1.786.018.038.042.07.057.1a21.745,21.745,0,0,0,2.037,3.348,16.436,16.436,0,0,0,1.119,1.318l-.007.025a10.163,10.163,0,0,0,7.424,3.7c4.176,0,7.914-3.156,10.45-8.143a5.627,5.627,0,0,1,.658-1c.145-.372.294-.74.416-1.125C586.251,66.689,587.226,63.091,587.226,60.748Z" transform="translate(-558.871 -41.645)" fill="#bddbe0"/>
          </g>
        </g>
        <g id="Grupo_96967" data-name="Grupo 96967" transform="translate(13.793 0.562)">
          <g id="Grupo_96966" data-name="Grupo 96966">
            <path id="Trazado_212980" data-name="Trazado 212980" d="M579.311,69.778a5.627,5.627,0,0,1,.658-1c.145-.369.294-.74.416-1.125,1.565-.966,2.54-4.564,2.54-6.905,0-1.607-.464-2.255-1.256-2.521.189-3.283.661-6.759-.541-9.164-2.261-4.541-8.454-7.347-12.766-7.414v36.24c.167.01.331.032.5.032C573.038,77.921,576.775,74.765,579.311,69.778Z" transform="translate(-568.363 -41.649)" fill="#fff"/>
          </g>
        </g>
        <g id="Grupo_96972" data-name="Grupo 96972" transform="translate(0.867)">
          <path id="Trazado_212981" data-name="Trazado 212981" d="M580.5,47.776c.262,2.107-3.7,2.018-6.336,1.58s-4.191.089-6.657.791c-2.491.716-4.928,3.288-5.276,4.575a31.312,31.312,0,0,0-.03,4.489l-2.212-1.032s-1.014-5.435-.224-8.908c.763-3.344,2.7-6.042,8.943-7.389,5.663-1.224,9.631-.484,9.81.92.439.092.793-.26,1.321-.26,1.318,0,3.828,1.536,4.973,3.386s2.241,5.233,1.447,10.954a4.358,4.358,0,0,1-.481,1.891l-1.843,1.055s.817-7.215-2.175-9.326C580.819,49.836,580.5,47.776,580.5,47.776Z" transform="translate(-559.468 -41.262)" fill="#003768"/>
          <g id="Grupo_96971" data-name="Grupo 96971" transform="translate(19.155 1.199)">
            <g id="Grupo_96970" data-name="Grupo 96970">
              <g id="Grupo_96968" data-name="Grupo 96968">
                <path id="Trazado_212982" data-name="Trazado 212982" d="M575.766,50.047c2.991,2.111,2.175,9.323,2.175,9.323l1.84-1.051a4.377,4.377,0,0,0,.484-1.891c.792-5.723-.305-9.107-1.449-10.957s-3.655-3.386-4.973-3.386a5.9,5.9,0,0,0-1.194.26c.564,1.864,1.869,4.535,1.859,4.976C574.508,47.323,574.819,49.382,575.766,50.047Z" transform="translate(-572.649 -42.087)" fill="#185f93"/>
              </g>
              <g id="Grupo_96969" data-name="Grupo 96969" transform="translate(1.825 5.236)">
                <path id="Trazado_212983" data-name="Trazado 212983" d="M573.938,45.69c0,.129-.022.308-.033.487A1.391,1.391,0,0,0,573.938,45.69Z" transform="translate(-573.905 -45.69)" fill="#185f93"/>
              </g>
            </g>
          </g>
        </g>
      </g>
      <g id="Grupo_96978" data-name="Grupo 96978" transform="translate(46.354 33.92)">
        <g id="Grupo_96977" data-name="Grupo 96977" clip-path="url(#clip-path)">
          <g id="Grupo_96976" data-name="Grupo 96976" transform="translate(5.925 6.617)">
            <g id="Grupo_96975" data-name="Grupo 96975">
              <g id="Grupo_96974" data-name="Grupo 96974">
                <path id="Trazado_212984" data-name="Trazado 212984" d="M570.325,74.238h-1.934v-5.08h3.849l.026,2.188Z" transform="translate(-563.246 -69.158)" fill="#41aace"/>
                <path id="Trazado_212985" data-name="Trazado 212985" d="M570.6,72.121l3.388,32.047-5.353,4.2-.116-.113-.2-36.108Z" transform="translate(-563.277 -67.815)" fill="#41aace"/>
                <path id="Trazado_212986" data-name="Trazado 212986" d="M568.093,74.238h1.621v-5.08h-3.942l.029,2.188Z" transform="translate(-564.432 -69.158)" fill="#006e99"/>
                <path id="Trazado_212987" data-name="Trazado 212987" d="M568.239,72.121l-3.389,32.047,5.357,4.2-.077-36.248Z" transform="translate(-564.85 -67.815)" fill="#006e99"/>
              </g>
              <path id="Trazado_212988" data-name="Trazado 212988" d="M571.21,72.733h-4.061v-.369h4.02Z" transform="translate(-563.809 -67.705)" fill="#006e99"/>
            </g>
          </g>
        </g>
      </g>
    </g>
    <g id="Grupo_96986" data-name="Grupo 96986" transform="translate(1063.874 6251.694)">
      <path id="Trazado_212990" data-name="Trazado 212990" d="M547.172,52.115l8.523,36.08L538.27,84.877,538.081,66.6Z" transform="translate(-508.534 -44.044)" fill="#185f93"/>
      <path id="Trazado_212991" data-name="Trazado 212991" d="M528.785,53.937,521.4,86.894l17.617,10.514L537.879,58.2Z" transform="translate(-516.094 -43.218)" fill="#003768"/>
      <path id="Trazado_212992" data-name="Trazado 212992" d="M569.454,84.156v-.285c-1.28-8.521-6.485-7.389-19.317-13.443l-11.839.189c-11.742,5.207-18.939,7.1-19.131,14.677l-1.42,12.782h52.938Z" transform="translate(-517.748 -35.745)" fill="#ff8b0d"/>
      <g id="Grupo_96982" data-name="Grupo 96982" transform="translate(0.09 34.836)">
        <g id="Grupo_96981" data-name="Grupo 96981">
          <g id="Grupo_96980" data-name="Grupo 96980">
            <path id="Trazado_212993" data-name="Trazado 212993" d="M519.23,85.3l-1.42,12.783H543.9V70.533l-5.539.09C526.618,75.83,519.42,77.723,519.23,85.3Z" transform="translate(-517.81 -70.533)" fill="#f74d11"/>
          </g>
        </g>
      </g>
      <g id="Grupo_96983" data-name="Grupo 96983" transform="translate(16.527 29.616)">
        <path id="Trazado_212994" data-name="Trazado 212994" d="M532.812,66.941c-.137,2.268-1.561,6.958-3.691,8.521,2.271,3.976,7.385,8.239,9.661,8.523-.142-8.665,0-17.044,0-17.044Z" transform="translate(-529.121 -66.941)" fill="#bddbe0"/>
        <path id="Trazado_212995" data-name="Trazado 212995" d="M541.639,66.941c.141,2.268,1.561,6.958,3.694,8.521-2.279,3.976-7.392,8.239-9.662,8.523.142-8.665,0-17.044,0-17.044Z" transform="translate(-526.153 -66.941)" fill="#fff"/>
      </g>
      <g id="Grupo_96985" data-name="Grupo 96985" transform="translate(10.524)">
        <path id="Trazado_212996" data-name="Trazado 212996" d="M547.093,68.255,530.785,89.124l-5.794-5.045L536.45,65.7Z" transform="translate(-524.99 -37.886)" opacity="0.4" fill="url(#linear-gradient-2)" style="mix-blend-mode: multiply;isolation: isolate"/>
        <g id="Grupo_96984" data-name="Grupo 96984" transform="translate(3.573 1.342)">
          <path id="Trazado_212997" data-name="Trazado 212997" d="M529.164,53.49c-1.277,2.364-.628,5.483-.464,8.667-.791.211-1.251.776-1.251,2.3,0,2.267,1.017,5.845,2.609,6.353.2.554.43,1.088.674,1.6.017.033.035.061.051.087a19.5,19.5,0,0,0,1.828,3.005q.484.641,1,1.2a9.369,9.369,0,0,0,6.028,3.272v-32.5C535.927,47.5,531.232,49.675,529.164,53.49Z" transform="translate(-527.449 -47.484)" fill="#bddbe0"/>
          <path id="Trazado_212998" data-name="Trazado 212998" d="M535.758,47.484v32.5a9.37,9.37,0,0,0,6.026-3.272c.341-.375.676-.777.994-1.2a19.506,19.506,0,0,0,1.831-3.005.941.941,0,0,0,.048-.087c.246-.516.474-1.051.674-1.6,1.594-.509,2.613-4.086,2.613-6.353,0-1.526-.465-2.091-1.253-2.3.164-3.184.809-6.3-.466-8.667C544.162,49.675,539.461,47.5,535.758,47.484Z" transform="translate(-523.684 -47.484)" fill="#fff"/>
        </g>
        <path id="Trazado_212999" data-name="Trazado 212999" d="M540.243,47.091c-2.558-.852-8.3.094-10.8,3.267-3.691,4.688-3.547,13.711-3.547,13.711l4.686-.641s1.375-5.776,6.484-7.764C540.926,54.162,540.243,47.091,540.243,47.091Z" transform="translate(-524.58 -46.455)" fill="#003768"/>
        <path id="Trazado_213000" data-name="Trazado 213000" d="M532.271,51.6c.854,4.261,9.28,4.827,12.121,6.249s2.793,5.539,2.793,5.539l2.418-.709s2.844-8.254-2.418-12.926c-5.111-4.547-11.7-3.076-13.969-2.51S532.271,51.6,532.271,51.6Z" transform="translate(-521.866 -46.561)" fill="#185f93"/>
      </g>
    </g>
    <path id="Trazado_213001" data-name="Trazado 213001" d="M561.195,28.923a18.827,18.827,0,0,0-6.278,1.141c-1.139.57-8.985,9.56-9.985,10.413s-1.142,1.286-.429,2.284,1.857,1.285,4,.285,3.565-3.854,5.278-3.995a7.991,7.991,0,0,1,4.566.712c1.283.714,9.129,7.562,9.129,7.562s3.137-4.139,3.567-5.99a5.64,5.64,0,0,0,0-3Z" transform="translate(558.048 6197.133)" fill="#fff"/>
    <path id="Trazado_213002" data-name="Trazado 213002" d="M543.975,47.061a1.6,1.6,0,0,1-2.21-.3h0a1.6,1.6,0,0,1-.179-2.226l3.511-3.318a1.6,1.6,0,0,1,2.212.3h0a1.6,1.6,0,0,1,.182,2.226Z" transform="translate(556.758 6202.564)" fill="#fff"/>
    <path id="Trazado_213003" data-name="Trazado 213003" d="M545.822,48.851a1.592,1.592,0,0,1-2.21-.305h0a1.6,1.6,0,0,1-.174-2.225L546.945,43a1.6,1.6,0,0,1,2.212.305h0a1.6,1.6,0,0,1,.179,2.225Z" transform="translate(557.596 6203.376)" fill="#fff"/>
    <path id="Trazado_213004" data-name="Trazado 213004" d="M547.677,50.709a1.6,1.6,0,0,1-2.212-.307h0a1.6,1.6,0,0,1-.177-2.225L548.8,44.86a1.6,1.6,0,0,1,2.209.3h0a1.6,1.6,0,0,1,.18,2.226Z" transform="translate(558.436 6204.217)" fill="#fff"/>
    <path id="Trazado_213005" data-name="Trazado 213005" d="M549.595,52.528a1.6,1.6,0,0,1-2.212-.308h0A1.6,1.6,0,0,1,547.2,50l3.515-3.319a1.6,1.6,0,0,1,2.21.307h0a1.6,1.6,0,0,1,.179,2.223Z" transform="translate(559.304 6205.041)" fill="#fff"/>
    <path id="Trazado_213006" data-name="Trazado 213006" d="M555.655,29.723l7.275-6.992,11.913,11.912-6.919,6.921Z" transform="translate(563.303 6194.335)" fill="#006e99"/>
    <path id="Trazado_213007" data-name="Trazado 213007" d="M540.485,41.65,533.6,34.274l12.085-11.738,6.817,7.019Z" transform="translate(553.309 6194.247)" fill="#d1e6e8"/>
    <path id="Trazado_213008" data-name="Trazado 213008" d="M572.107,48.606c-.911-1.045-3.983-4.8-7-8.456-3.044-3.674-5.975-7.19-6.863-8.008a31.894,31.894,0,0,0-3.559-2.8,12.124,12.124,0,0,0-3.389-1.677l-1.258,1.264c.031,0,.057-.007.092-.007a8.094,8.094,0,0,1,3.767,1.606,29.663,29.663,0,0,1,3.386,2.669c.682.607,3.723,4.223,6.727,7.863,3.024,3.658,6.077,7.389,7.032,8.484a1.083,1.083,0,0,1,.323.734,1.137,1.137,0,0,1-.405.809,1.322,1.322,0,0,1-.8.366h-.023v-.009a12.124,12.124,0,0,1-2.415-1.782c-.5-.43-.95-.846-1.267-1.139-.221-.215-.384-.365-.448-.424l-.016-.015h0l-.013-.013a.713.713,0,0,0-.975,1.04l.013.012h0l.013.01c.055.055.224.217.461.436.36.349.888.869,1.413,1.44a16,16,0,0,1,1.264,1.53,2.663,2.663,0,0,1,.474.9v.012a1.492,1.492,0,0,1-.516.879,1.542,1.542,0,0,1-.943.433,5.544,5.544,0,0,1-.936-.578c-1.312-.981-3.37-2.729-3.374-2.73a.713.713,0,0,0-1,1.011s.825.95,1.667,1.984c.422.516.843,1.056,1.164,1.5.157.221.291.416.378.564a1.11,1.11,0,0,1,.094.17.252.252,0,0,1,.013.068,1.321,1.321,0,0,1-.437.809,1.712,1.712,0,0,1-.731.449L563.988,58a21.522,21.522,0,0,1-2.472-1.561c-.956-.667-1.784-1.279-1.787-1.282a.712.712,0,0,0-.945,1.058s.818.885,1.635,1.831c.41.471.815.958,1.11,1.344.129.171.241.328.314.436-.468,1.016-1.1,1.468-1.453,1.471a5.922,5.922,0,0,1-1.007-.586c-1.526-1.032-3.8-2.935-3.982-3.091-.283-.275-3.2-3.092-6.286-6.109-3.232-3.159-6.687-6.586-7.334-7.363a8.062,8.062,0,0,1-1.753-4.948c0-.084.01-.16.013-.237l-1.359,1.36a9.372,9.372,0,0,0,2,4.736c.78.933,4.172,4.284,7.432,7.472s6.317,6.138,6.317,6.14l.035.029c0,.006,1.148.972,2.414,1.944.633.49,1.293.978,1.867,1.357a7.865,7.865,0,0,0,.795.475,1.85,1.85,0,0,0,.8.246c1.341-.038,2.312-1.136,2.921-2.613a1.394,1.394,0,0,0,.055-.295,1.249,1.249,0,0,0-.23-.663c.058.031.116.062.174.089a1.647,1.647,0,0,0,.683.2H564a2.838,2.838,0,0,0,1.741-.876,2.665,2.665,0,0,0,.853-1.818,1.827,1.827,0,0,0-.032-.347,2.307,2.307,0,0,0-.126-.359,1.538,1.538,0,0,0,.267.1,2.261,2.261,0,0,0,.459.048,3.109,3.109,0,0,0,2.883-2.632c0-.045,0-.074,0-.118a2.2,2.2,0,0,0-.1-.581c.039.009.174.019.174.019h.028a2.738,2.738,0,0,0,2.635-2.6A2.515,2.515,0,0,0,572.107,48.606Z" transform="translate(555.612 6196.572)" fill="#fff"/>
    <path id="Trazado_213009" data-name="Trazado 213009" d="M565.942,84.072c6.857,0,12.419,4.543,12.419,10.146a9.358,9.358,0,0,1-3.891,7.365l1.468,6.115-4.714-4.3a14.694,14.694,0,0,1-5.281.972c-6.859,0-12.419-4.543-12.419-10.147S559.083,84.072,565.942,84.072Z" transform="translate(562.337 6222.132)" fill="#f74d11"/>
    <g id="Grupo_96989" data-name="Grupo 96989" transform="translate(1123.37 6312.189)">
      <path id="Trazado_213010" data-name="Trazado 213010" d="M562,90.3a1.164,1.164,0,0,0-1.237-1.237,1.943,1.943,0,0,0-1.468.74l-.6-.548a2.8,2.8,0,0,1,2.142-1.059,1.975,1.975,0,0,1,2.181,2.042c0,1.67-2.053,2.345-1.848,4.131h-.918C559.968,92.375,562,91.647,562,90.3Zm-1.263,5.14a.8.8,0,0,1,0,1.607.805.805,0,0,1,0-1.607Z" transform="translate(-558.691 -88.191)" fill="#fff"/>
      <path id="Trazado_213011" data-name="Trazado 213011" d="M563.6,95.387a.8.8,0,1,1-.767.817A.769.769,0,0,1,563.6,95.387Zm-.512-5.893-.025-1.2h1.058l-.025,1.2-.141,4.822h-.728Z" transform="translate(-556.814 -88.143)" fill="#fff"/>
    </g>
    <ellipse id="Elipse_5362" data-name="Elipse 5362" cx="11.902" cy="8.476" rx="11.902" ry="8.476" transform="translate(1101.534 6321.91)" fill="#bddbe0"/>
    <g id="Grupo_96994" data-name="Grupo 96994" transform="translate(1097.22 6316.038)">
      <path id="Trazado_213012" data-name="Trazado 213012" d="M556.586,90.839c-8.776,0-15.89,6.426-15.89,14.35a13.483,13.483,0,0,0,3.594,9.087l-2.225,7.488,6.9-3.982a17.148,17.148,0,0,0,7.62,1.758c8.774,0,15.887-6.426,15.887-14.351S565.36,90.839,556.586,90.839Zm-5.917,8.327h11.487a.379.379,0,0,1,0,.759H550.669a.379.379,0,1,1,0-.759Zm14.27,9.847H547.886c-.311,0-.561-.17-.561-.379s.25-.379.561-.379h17.053c.309,0,.561.17.561.379S565.249,109.012,564.939,109.012Zm0-2.524H547.886c-.311,0-.561-.17-.561-.379s.25-.379.561-.379h17.053c.309,0,.561.17.561.379S565.249,106.488,564.939,106.488Zm0-2.776H547.886c-.311,0-.561-.171-.561-.381s.25-.378.561-.378h17.053c.309,0,.561.169.561.378S565.249,103.713,564.939,103.713Z" transform="translate(-540.696 -90.839)" fill="#185f93"/>
      <g id="Grupo_96993" data-name="Grupo 96993">
        <g id="Grupo_96992" data-name="Grupo 96992">
          <g id="Grupo_96991" data-name="Grupo 96991">
            <path id="Trazado_213013" data-name="Trazado 213013" d="M540.7,105.189a13.483,13.483,0,0,0,3.594,9.087l-2.225,7.488,6.9-3.982a17.148,17.148,0,0,0,7.62,1.758c.035,0,.065,0,.1,0V109.012h-8.8c-.311,0-.561-.17-.561-.379s.25-.379.561-.379h8.8v-1.766h-8.8c-.311,0-.561-.17-.561-.379s.25-.379.561-.379h8.8v-2.017h-8.8c-.311,0-.561-.171-.561-.381s.25-.378.561-.378h8.8v-3.03h-6.017a.379.379,0,1,1,0-.759h6.017V90.843c-.035,0-.065,0-.1,0C547.811,90.839,540.7,97.265,540.7,105.189Z" transform="translate(-540.696 -90.839)" fill="#003768"/>
          </g>
        </g>
      </g>
    </g>
  </g>
</svg>
