<svg xmlns="http://www.w3.org/2000/svg" width="251.005" height="246.699" viewBox="0 0 251.005 246.699">
  <g id="Grupo_97276" data-name="Grupo 97276" transform="translate(-915 -5300.701)">
    <g id="Floor" transform="translate(915 5434.845)">
      <path id="Floor-2" data-name="Floor" d="M81.065,352.419c49.011,21.978,128.476,21.978,177.486,0s49.012-57.611,0-79.589-128.476-21.978-177.487,0S32.052,330.441,81.065,352.419Z" transform="translate(-44.305 -256.347)" fill="#f5f5f5"/>
    </g>
    <g id="Shadow" transform="translate(930.201 5458.802)">
      <path id="Shadow-2" data-name="Shadow" d="M69.841,348.6l2.274,1.3a2.92,2.92,0,0,0,2.636,0l105.12-60.687a.8.8,0,0,0,0-1.517L177.61,286.4a2.92,2.92,0,0,0-2.636,0L69.839,347.079A.8.8,0,0,0,69.841,348.6Z" transform="translate(-69.294 -286.088)" fill="#e0e0e0"/>
      <ellipse id="Shadow-3" data-name="Shadow" cx="32.08" cy="17.588" rx="32.08" ry="17.588" transform="translate(120.228 49.197)" fill="#e0e0e0"/>
      <ellipse id="Shadow-4" data-name="Shadow" cx="24.75" cy="13.569" rx="24.75" ry="13.569" transform="translate(164.622 9.374)" fill="#e0e0e0"/>
    </g>
    <g id="Plants" transform="translate(1131.25 5448.31)">
      <g id="Plants-2" data-name="Plants">
        <g id="Grupo_96528" data-name="Grupo 96528">
          <g id="Grupo_96526" data-name="Grupo 96526" transform="translate(0.426)">
            <path id="Trazado_212347" data-name="Trazado 212347" d="M400.509,288.641c-.037-3.107,2.133-9.571,5.309-13.645s8.211-7.085,11.827-5.9c3.368,1.107,3.057,5.512-.977,8.477s-10.109,6.7-11.837,11.764l-3.681,6.23Z" transform="translate(-400.508 -268.838)" fill="#27debf"/>
            <path id="Trazado_212348" data-name="Trazado 212348" d="M400.509,288.641c-.037-3.107,2.133-9.571,5.309-13.645s8.211-7.085,11.827-5.9c3.368,1.107,3.057,5.512-.977,8.477s-10.109,6.7-11.837,11.764l-3.681,6.23Z" transform="translate(-400.508 -268.838)" opacity="0.1"/>
          </g>
          <g id="Grupo_96527" data-name="Grupo 96527" transform="translate(0 2.108)">
            <path id="Trazado_212349" data-name="Trazado 212349" d="M400.056,294.254a.228.228,0,0,0,.2-.186c1.953-10.633,10.431-19.358,15.544-21.325a.228.228,0,0,0,.131-.293.225.225,0,0,0-.294-.131c-5.211,2-13.845,10.873-15.828,21.667a.226.226,0,0,0,.182.264A.24.24,0,0,0,400.056,294.254Z" transform="translate(-399.809 -272.304)" fill="#fff"/>
          </g>
        </g>
        <g id="Grupo_96531" data-name="Grupo 96531" transform="translate(0.883 13.407)">
          <g id="Grupo_96529" data-name="Grupo 96529" transform="translate(0.258)">
            <path id="Trazado_212350" data-name="Trazado 212350" d="M402.454,308.3c.478-1.753,2.577-4.661,6-7.084,3.786-2.68,8.6-3.95,9.691-6.013,1.308-2.479-.8-4.781-4.711-4.248s-10.745,5.967-11.751,14.035Z" transform="translate(-401.683 -290.879)" fill="#27debf"/>
          </g>
          <g id="Grupo_96530" data-name="Grupo 96530" transform="translate(0 2.138)">
            <path id="Trazado_212351" data-name="Trazado 212351" d="M401.507,307.854a.227.227,0,0,0,.194-.152c3.144-9.127,10.039-12.4,13.246-12.856a.227.227,0,0,0,.193-.257.224.224,0,0,0-.257-.193c-3.546.5-10.4,3.841-13.611,13.157a.227.227,0,0,0,.141.288A.219.219,0,0,0,401.507,307.854Z" transform="translate(-401.26 -294.394)" fill="#fff"/>
          </g>
        </g>
      </g>
    </g>
    <g id="Tabs" transform="translate(931.782 5300.701)">
      <g id="Tab">
        <g id="Grupo_96532" data-name="Grupo 96532">
          <path id="Trazado_212352" data-name="Trazado 212352" d="M73.693,245.256l-.462-.267a2.955,2.955,0,0,1-1.337-2.316V86.8a2.956,2.956,0,0,1,1.337-2.316L173.671,26.5a2.959,2.959,0,0,1,2.674,0l.462.266a2.956,2.956,0,0,1,1.337,2.316V184.958a2.955,2.955,0,0,1-1.337,2.316L76.367,245.256A2.956,2.956,0,0,1,73.693,245.256Z" transform="translate(-71.894 -26.178)" fill="#27debf"/>
          <path id="Trazado_212353" data-name="Trazado 212353" d="M178.385,28.865c-.091-.693-.651-.945-1.324-.56L76.62,86.294a2.749,2.749,0,0,0-.946.994l-3.13-1.807a2.721,2.721,0,0,1,.945-1L173.924,26.5a2.953,2.953,0,0,1,2.675,0l.462.266A3,3,0,0,1,178.385,28.865Z" transform="translate(-72.149 -26.177)" fill="#fff" opacity="0.4"/>
          <path id="Trazado_212354" data-name="Trazado 212354" d="M76.142,283.55a2.97,2.97,0,0,1-2.444-.105l-.47-.266a2.961,2.961,0,0,1-1.33-2.318V124.986a2.677,2.677,0,0,1,.392-1.317l3.13,1.807a2.8,2.8,0,0,0-.392,1.316V282.674C75.029,283.438,75.512,283.795,76.142,283.55Z" transform="translate(-71.896 -64.366)" opacity="0.1"/>
        </g>
      </g>
      <g id="Tabs-2" data-name="Tabs" transform="translate(13.181 13.276)">
        <g id="Tab-2" data-name="Tab" transform="translate(0 63.497)">
          <g id="Grupo_96533" data-name="Grupo 96533">
            <path id="Trazado_212355" data-name="Trazado 212355" d="M95.362,238.318l-.462-.266a2.956,2.956,0,0,1-1.337-2.316V207.719A2.955,2.955,0,0,1,94.9,205.4l91.187-52.7a2.955,2.955,0,0,1,2.674,0l.462.266a2.956,2.956,0,0,1,1.337,2.316v28.017a2.954,2.954,0,0,1-1.337,2.316l-91.187,52.7A2.955,2.955,0,0,1,95.362,238.318Z" transform="translate(-93.563 -152.387)" fill="#ebebeb"/>
            <path id="Trazado_212356" data-name="Trazado 212356" d="M190.8,155.075c-.091-.693-.651-.945-1.324-.56l-91.19,52.7a2.759,2.759,0,0,0-.945.995l-3.13-1.807a2.721,2.721,0,0,1,.945-1l91.184-52.695a2.952,2.952,0,0,1,2.675,0l.462.266A3,3,0,0,1,190.8,155.075Z" transform="translate(-93.817 -152.387)" fill="#fafafa"/>
            <path id="Trazado_212357" data-name="Trazado 212357" d="M97.811,273.207a2.967,2.967,0,0,1-2.444-.105l-.469-.266a2.959,2.959,0,0,1-1.33-2.318V242.5a2.674,2.674,0,0,1,.392-1.316l3.13,1.807a2.791,2.791,0,0,0-.392,1.316v28.022C96.7,273.095,97.181,273.452,97.811,273.207Z" transform="translate(-93.565 -187.171)" fill="#e0e0e0"/>
          </g>
          <g id="Grupo_96534" data-name="Grupo 96534" transform="translate(7.932 51.638)">
            <path id="Trazado_212358" data-name="Trazado 212358" d="M116.037,238.587c5.2-3,9.417-.667,9.416,5.218s-4.222,13.041-9.427,15.984-9.427.6-9.424-5.22S110.836,241.589,116.037,238.587Z" transform="translate(-106.602 -237.277)" fill="#27debf"/>
          </g>
        </g>
        <g id="Tab-3" data-name="Tab" transform="translate(0 101.465)">
          <g id="Grupo_96535" data-name="Grupo 96535">
            <path id="Trazado_212359" data-name="Trazado 212359" d="M95.362,300.736l-.462-.266a2.956,2.956,0,0,1-1.337-2.316V270.137a2.955,2.955,0,0,1,1.337-2.316l91.187-52.7a2.955,2.955,0,0,1,2.674,0l.462.266a2.956,2.956,0,0,1,1.337,2.316v28.017a2.956,2.956,0,0,1-1.337,2.316l-91.187,52.7A2.955,2.955,0,0,1,95.362,300.736Z" transform="translate(-93.563 -214.805)" fill="#ebebeb"/>
            <path id="Trazado_212360" data-name="Trazado 212360" d="M190.8,217.493c-.091-.693-.651-.945-1.324-.56l-91.19,52.7a2.759,2.759,0,0,0-.945.995l-3.13-1.807a2.721,2.721,0,0,1,.945-1l91.184-52.695a2.952,2.952,0,0,1,2.675,0l.462.266A3,3,0,0,1,190.8,217.493Z" transform="translate(-93.817 -214.805)" fill="#fafafa"/>
            <path id="Trazado_212361" data-name="Trazado 212361" d="M97.811,335.625a2.97,2.97,0,0,1-2.444-.1l-.469-.266a2.958,2.958,0,0,1-1.33-2.318V304.921a2.674,2.674,0,0,1,.392-1.316l3.13,1.807a2.791,2.791,0,0,0-.392,1.316V334.75C96.7,335.513,97.181,335.87,97.811,335.625Z" transform="translate(-93.565 -249.589)" fill="#e0e0e0"/>
          </g>
          <g id="Grupo_96536" data-name="Grupo 96536" transform="translate(7.932 51.638)">
            <path id="Trazado_212362" data-name="Trazado 212362" d="M116.037,301c5.2-3,9.417-.667,9.416,5.218s-4.222,13.041-9.427,15.984-9.427.6-9.424-5.22S110.836,304.007,116.037,301Z" transform="translate(-106.602 -299.695)" fill="#27debf"/>
          </g>
        </g>
        <g id="Tab-4" data-name="Tab">
          <g id="Grupo_96537" data-name="Grupo 96537">
            <path id="Trazado_212363" data-name="Trazado 212363" d="M95.362,133.933l-.462-.266a2.956,2.956,0,0,1-1.337-2.316V103.334a2.955,2.955,0,0,1,1.337-2.316l91.187-52.7a2.955,2.955,0,0,1,2.674,0l.462.266A2.956,2.956,0,0,1,190.56,50.9V78.922a2.956,2.956,0,0,1-1.337,2.316l-91.187,52.7A2.955,2.955,0,0,1,95.362,133.933Z" transform="translate(-93.563 -48.002)" fill="#ebebeb"/>
            <path id="Trazado_212364" data-name="Trazado 212364" d="M190.8,50.69c-.091-.693-.651-.945-1.324-.56l-91.19,52.7a2.759,2.759,0,0,0-.945.995l-3.13-1.807a2.721,2.721,0,0,1,.945-1l91.184-52.695a2.952,2.952,0,0,1,2.675,0l.462.266A3,3,0,0,1,190.8,50.69Z" transform="translate(-93.817 -48.002)" fill="#fafafa"/>
            <path id="Trazado_212365" data-name="Trazado 212365" d="M97.811,168.822a2.97,2.97,0,0,1-2.444-.1l-.469-.266a2.959,2.959,0,0,1-1.33-2.318V138.118a2.674,2.674,0,0,1,.392-1.316l3.13,1.807a2.793,2.793,0,0,0-.392,1.316v28.022C96.7,168.71,97.181,169.067,97.811,168.822Z" transform="translate(-93.565 -82.786)" fill="#e0e0e0"/>
          </g>
          <g id="Grupo_96538" data-name="Grupo 96538" transform="translate(7.932 51.638)">
            <path id="Trazado_212366" data-name="Trazado 212366" d="M116.037,134.2c5.2-3,9.417-.667,9.416,5.218s-4.222,13.041-9.427,15.984-9.427.6-9.424-5.22S110.836,137.2,116.037,134.2Z" transform="translate(-106.602 -132.892)" fill="#27debf"/>
          </g>
        </g>
        <g id="Tab-5" data-name="Tab" transform="translate(6.409 35.572)">
          <g id="Grupo_96539" data-name="Grupo 96539">
            <path id="Trazado_212367" data-name="Trazado 212367" d="M105.9,192.411l-.462-.266a2.956,2.956,0,0,1-1.337-2.316V161.812a2.955,2.955,0,0,1,1.337-2.316l91.187-52.7a2.956,2.956,0,0,1,2.675,0l.461.266a2.957,2.957,0,0,1,1.338,2.316V137.4a2.956,2.956,0,0,1-1.337,2.316l-91.187,52.7A2.955,2.955,0,0,1,105.9,192.411Z" transform="translate(-104.099 -106.48)" fill="#37474f"/>
            <path id="Trazado_212368" data-name="Trazado 212368" d="M201.338,109.168c-.091-.693-.651-.945-1.324-.56l-91.19,52.7a2.759,2.759,0,0,0-.945.995l-3.13-1.807a2.721,2.721,0,0,1,.945-1L196.877,106.8a2.954,2.954,0,0,1,2.675,0l.462.266A3,3,0,0,1,201.338,109.168Z" transform="translate(-104.353 -106.48)" fill="#455a64"/>
            <path id="Trazado_212369" data-name="Trazado 212369" d="M108.347,227.3a2.971,2.971,0,0,1-2.444-.1l-.469-.266a2.959,2.959,0,0,1-1.33-2.318V196.6a2.674,2.674,0,0,1,.392-1.316l3.13,1.807a2.8,2.8,0,0,0-.392,1.316v28.022C107.234,227.188,107.717,227.545,108.347,227.3Z" transform="translate(-104.101 -141.264)" fill="#263238"/>
          </g>
          <g id="Grupo_96541" data-name="Grupo 96541" transform="translate(7.932 46.492)">
            <path id="Trazado_212370" data-name="Trazado 212370" d="M126.573,192.68c5.2-3,9.417-.667,9.416,5.218s-4.222,13.041-9.427,15.984-9.427.6-9.424-5.22S121.372,195.682,126.573,192.68Z" transform="translate(-117.138 -186.225)" fill="#f5f5f5"/>
            <g id="Grupo_96540" data-name="Grupo 96540" transform="translate(3.957)">
              <path id="Trazado_212371" data-name="Trazado 212371" d="M129.307,206.294a1.03,1.03,0,0,1-1.155.057l-4.136-3.129c-.553-.417-.484-1.571.155-2.578s1.6-1.484,2.155-1.065l2.883,2.18,8.006-17.208c.5-1.075,1.457-1.794,2.136-1.611s.827,1.205.327,2.277l-9.14,19.645a3.316,3.316,0,0,1-1.171,1.395Z" transform="translate(-123.642 -182.911)" fill="#27debf"/>
            </g>
          </g>
        </g>
      </g>
    </g>
    <g id="Cursor" transform="translate(1009.806 5370.066)">
      <g id="Grupo_96549" data-name="Grupo 96549">
        <g id="Grupo_96545" data-name="Grupo 96545" transform="translate(0 10.093)">
          <g id="Grupo_96544" data-name="Grupo 96544">
            <path id="Trazado_212372" data-name="Trazado 212372" d="M238.7,170.488l-2.644-1.527v.007c-1.15-.661-2.555-.007-3.3.45l-1.65-.953h0c-2-1.209-4.785,1.32-5.409,1.928l-.713-.412h0c-2.123-1.28-5.98,2.145-5.98,2.145V159.382l1.676-.812-2.667-1.542-.005,0-.018-.01v0a2.4,2.4,0,0,0-2.377.248h0a7.5,7.5,0,0,0-3.393,5.878v29.544c-2.439-1.809-5.032-2.92-7.307-2.515a7.331,7.331,0,0,0-4.416,3.051c-1.123,1.978.729,3.22,3.114,5.948,2.364,2.7,4.45,5.959,6.6,7.969a11.639,11.639,0,0,0,3.714,2.532v3.851l2.621,1.513,17.319-13.025v-3.851s2.475-9.864,3.265-13.986c.761-3.97,1.461-10.3.153-13.586l1.415-.1Z" transform="translate(-200.161 -156.801)" fill="#27debf"/>
            <path id="Trazado_212373" data-name="Trazado 212373" d="M238.7,170.488l-2.644-1.527v.007c-1.15-.661-2.555-.007-3.3.45l-1.65-.953h0c-2-1.209-4.785,1.32-5.409,1.928l-.713-.412h0c-2.123-1.28-5.98,2.145-5.98,2.145V159.382l1.676-.812-2.667-1.542-.005,0-.018-.01v0a2.4,2.4,0,0,0-2.377.248h0a7.5,7.5,0,0,0-3.393,5.878v29.544c-2.439-1.809-5.032-2.92-7.307-2.515a7.331,7.331,0,0,0-4.416,3.051c-1.123,1.978.729,3.22,3.114,5.948,2.364,2.7,4.45,5.959,6.6,7.969a11.639,11.639,0,0,0,3.714,2.532v3.851l2.621,1.513,17.319-13.025v-3.851s2.475-9.864,3.265-13.986c.761-3.97,1.461-10.3.153-13.586l1.415-.1Z" transform="translate(-200.161 -156.801)" fill="#fff" opacity="0.4"/>
            <g id="Grupo_96542" data-name="Grupo 96542" transform="translate(0.001 6.34)">
              <path id="Trazado_212374" data-name="Trazado 212374" d="M219.169,228.119l-13.1-7.564-5.738-3.313c-.729,1.785,1.04,3.036,3.283,5.6,2.364,2.7,4.45,5.959,6.6,7.969a11.639,11.639,0,0,0,3.714,2.532V237.2l2.621,1.513,3.826-2.877C219.881,232.558,219.169,228.119,219.169,228.119Z" transform="translate(-200.163 -186.817)" fill="#27debf"/>
              <path id="Trazado_212375" data-name="Trazado 212375" d="M222.607,168.737l-2.621-1.513v30.99l2.621.067Z" transform="translate(-207.928 -167.224)" fill="#27debf"/>
              <path id="Trazado_212376" data-name="Trazado 212376" d="M256.384,180.308l2.03-1.5c-.044-.133-.085-.269-.134-.394l.737-.05-1.628-.074-2.721-1.5a5.883,5.883,0,0,0-.916.456l.85.494Z" transform="translate(-221.154 -170.972)" fill="#27debf"/>
              <path id="Trazado_212377" data-name="Trazado 212377" d="M244.64,179.884l1.908-1.451-2.628-1.59a11.168,11.168,0,0,0-1.772,1.4l1.825,1.055Z" transform="translate(-216.609 -170.992)" fill="#27debf"/>
              <path id="Trazado_212378" data-name="Trazado 212378" d="M238.034,180.616l-2.6-1.521.011-.024v3.293l3.031-1.112Z" transform="translate(-213.979 -171.864)" fill="#27debf"/>
            </g>
            <g id="Grupo_96543" data-name="Grupo 96543" transform="translate(0.001 6.34)" opacity="0.15">
              <path id="Trazado_212379" data-name="Trazado 212379" d="M219.169,228.119l-13.1-7.564-5.738-3.313c-.729,1.785,1.04,3.036,3.283,5.6,2.364,2.7,4.45,5.959,6.6,7.969a11.639,11.639,0,0,0,3.714,2.532V237.2l2.621,1.513,3.826-2.877C219.881,232.558,219.169,228.119,219.169,228.119Z" transform="translate(-200.163 -186.817)"/>
              <path id="Trazado_212380" data-name="Trazado 212380" d="M222.607,168.737l-2.621-1.513v30.99l2.621.067Z" transform="translate(-207.928 -167.224)"/>
              <path id="Trazado_212381" data-name="Trazado 212381" d="M256.384,180.308l2.03-1.5c-.044-.133-.085-.269-.134-.394l.737-.05-1.628-.074-2.721-1.5a5.883,5.883,0,0,0-.916.456l.85.494Z" transform="translate(-221.154 -170.972)"/>
              <path id="Trazado_212382" data-name="Trazado 212382" d="M244.64,179.884l1.908-1.451-2.628-1.59a11.168,11.168,0,0,0-1.772,1.4l1.825,1.055Z" transform="translate(-216.609 -170.992)"/>
              <path id="Trazado_212383" data-name="Trazado 212383" d="M238.034,180.616l-2.6-1.521.011-.024v3.293l3.031-1.112Z" transform="translate(-213.979 -171.864)"/>
            </g>
          </g>
        </g>
        <g id="Grupo_96547" data-name="Grupo 96547" transform="translate(2.621 11.605)">
          <path id="Trazado_212384" data-name="Trazado 212384" d="M218.238,216.007v-3.85a11.649,11.649,0,0,1-3.714-2.532c-2.154-2.009-4.239-5.265-6.6-7.969-2.385-2.728-4.237-3.969-3.114-5.948a7.331,7.331,0,0,1,4.416-3.05c2.275-.4,4.868.706,7.307,2.515V165.628a7.5,7.5,0,0,1,3.393-5.877h0c1.874-1.082,3.394-.2,3.394,1.959v12.9s4.676-4.152,6.565-1.606c0,0,4.594-4.812,6.668-.748,0,0,3.373-2.724,4.894.437s.79,9.837,0,13.96-3.265,13.987-3.265,13.987v3.85Z" transform="translate(-204.469 -159.287)" fill="#27debf"/>
          <g id="Grupo_96546" data-name="Grupo 96546" transform="translate(18.836 12.129)">
            <path id="Trazado_212385" data-name="Trazado 212385" d="M235.445,188.9s.426-5.888,2.589-7.288l-.077.022a14.153,14.153,0,0,0-2.512,1.725v-.111a.137.137,0,0,0,0,.111Z" transform="translate(-235.435 -180.16)" fill="#455a64"/>
            <path id="Trazado_212386" data-name="Trazado 212386" d="M246.245,180.882v5.386s.6-5.538,1.839-6.877A11.1,11.1,0,0,0,246.245,180.882Z" transform="translate(-239.669 -179.291)" fill="#455a64"/>
            <path id="Trazado_212387" data-name="Trazado 212387" d="M257.207,180.07h0v5.406s.329-5.446,1.5-6.25A6.1,6.1,0,0,0,257.207,180.07Z" transform="translate(-243.963 -179.226)" fill="#455a64"/>
          </g>
        </g>
        <g id="Grupo_96548" data-name="Grupo 96548" transform="translate(1.383)">
          <path id="Trazado_212388" data-name="Trazado 212388" d="M225.045,147.634h0c-.421.243-.762.1-.762-.322v-4.274a1.58,1.58,0,0,1,.762-1.2h0c.421-.243.762-.1.762.322v4.274A1.58,1.58,0,0,1,225.045,147.634Z" transform="translate(-210.993 -140.8)" fill="#ebebeb"/>
          <path id="Trazado_212389" data-name="Trazado 212389" d="M212.609,160.772h0c-.3.515-.78.794-1.078.622l-2.473-1.428c-.3-.172-.3-.729,0-1.245h0c.3-.515.78-.794,1.078-.622l2.473,1.428C212.906,159.7,212.906,160.256,212.609,160.772Z" transform="translate(-204.942 -147.197)" fill="#ebebeb"/>
          <path id="Trazado_212390" data-name="Trazado 212390" d="M207.456,176.753v.122a1.7,1.7,0,0,1-.819,1.291l-3.384,1.954c-.452.262-.819.106-.819-.346v-.122a1.7,1.7,0,0,1,.819-1.292l3.384-1.954C207.09,176.145,207.456,176.3,207.456,176.753Z" transform="translate(-202.435 -154.339)" fill="#ebebeb"/>
          <path id="Trazado_212391" data-name="Trazado 212391" d="M240.381,157.866v-.122a1.7,1.7,0,0,1,.819-1.291l3.384-1.954c.452-.262.819-.106.819.346v.122a1.7,1.7,0,0,1-.819,1.291l-3.384,1.954C240.748,158.473,240.381,158.318,240.381,157.866Z" transform="translate(-217.299 -145.757)" fill="#ebebeb"/>
          <path id="Trazado_212392" data-name="Trazado 212392" d="M235.889,146.411h0c-.3-.172-.3-.729,0-1.244l2.473-4.284c.3-.515.78-.794,1.078-.622h0c.3.172.3.729,0,1.245l-2.473,4.284C236.67,146.3,236.187,146.583,235.889,146.411Z" transform="translate(-215.452 -140.21)" fill="#ebebeb"/>
        </g>
      </g>
    </g>
    <g id="Character_2" data-name="Character 2" transform="translate(1080.497 5349.116)">
      <g id="Grupo_96562" data-name="Grupo 96562">
        <g id="Grupo_96550" data-name="Grupo 96550" transform="translate(20.817 50.981)">
          <path id="Trazado_212393" data-name="Trazado 212393" d="M389.292,314.767v-.692c-.273.812-1.539,4.307-3.459,6.059-1.527,1.392-3.61,3-4.139,4.554-.551,1.614,2.9,2.157,4.325,1.9a8.8,8.8,0,0,0,4.969-2.668c.821-1.008,1.343-2.2,1.93-3s1.936-1.678,2.253-2.6a5.842,5.842,0,0,0-.277-2.541c-.224-.856-.468-1.8-.76-1.717,0,.1,0,.528,0,.528a3.829,3.829,0,0,1-2.42.818C391,315.448,389.286,315.307,389.292,314.767Z" transform="translate(-362.754 -238.343)" fill="#263238"/>
          <path id="Trazado_212394" data-name="Trazado 212394" d="M385.924,318.808c.473-.423.95-.836,1.382-1.23a14.038,14.038,0,0,0,2.952-4.716,6.643,6.643,0,0,0,.508-2.547v-2.759h4.84v4.49h0v.12l-.024.012c-.233,1.006-2.454,3.681-3.717,5.426a7.023,7.023,0,0,1-4.374,2.914C385.671,320.762,384.741,320.188,385.924,318.808Z" transform="translate(-364.228 -235.791)" fill="#ffa8a7"/>
          <path id="Trazado_212395" data-name="Trazado 212395" d="M358.254,306.923v-.692c-.273.812-1.539,4.307-3.46,6.059-1.527,1.392-3.609,3-4.139,4.554-.551,1.614,2.9,2.157,4.324,1.9a8.807,8.807,0,0,0,4.969-2.668c.821-1.008,1.343-2.2,1.929-3s1.937-1.678,2.254-2.6a5.85,5.85,0,0,0-.277-2.541c-.224-.856-.468-1.8-.76-1.717,0,.1,0,.527,0,.527a3.822,3.822,0,0,1-2.42.818C359.966,307.6,358.248,307.463,358.254,306.923Z" transform="translate(-350.596 -235.271)" fill="#263238"/>
          <path id="Trazado_212396" data-name="Trazado 212396" d="M354.886,310.964c.473-.423.95-.836,1.382-1.23a14.038,14.038,0,0,0,2.952-4.716,6.641,6.641,0,0,0,.507-2.547v-2.759h4.841v4.49h0v.12l-.024.012c-.233,1.005-2.454,3.681-3.717,5.426a7.023,7.023,0,0,1-4.374,2.914C354.633,312.917,353.7,312.344,354.886,310.964Z" transform="translate(-352.07 -232.719)" fill="#ffa8a7"/>
          <path id="Trazado_212397" data-name="Trazado 212397" d="M384.746,190.779c3.753,8.2-.135,37.068-.135,37.068.113,1.33,1.633,3.947,2.2,9.8.669,6.916-1.051,24.283-1.051,24.283a5.239,5.239,0,0,1-4.892.195s-4.613-26.156-5.48-33.033c-.757-6-2.211-19.2-2.211-19.2l-4.13,19.165a35.677,35.677,0,0,1,1.308,5.924c.392,4.045-3.527,22.878-3.527,22.878a10.758,10.758,0,0,1-4.841.145s-1.386-24.992-1.751-29.865c-.614-8.183,1.56-33.718,3.061-38.562Z" transform="translate(-354.331 -189.579)" fill="#37474f"/>
          <path id="Trazado_212398" data-name="Trazado 212398" d="M375.971,215.97l-1.218-7.612s-5.154-1.068-7.491-3.265a13.332,13.332,0,0,0,6.095,4.05l1.369,5.86-2.392,17.746Z" transform="translate(-357.124 -195.656)" fill="#263238"/>
        </g>
        <g id="Grupo_96561" data-name="Grupo 96561">
          <path id="Trazado_212399" data-name="Trazado 212399" d="M352.977,144.2a6.933,6.933,0,0,0-6.158,2.759c-1.938,2.529-9.351,12.182-9.351,12.182S326.54,153.674,326,153.026s-.235-1.959-.088-2.681.392-2.324.553-2.774c.281-.785-.881-.574-1.567.161-.7.752-.989,2.17-1.331,2.417s-2.942-2.743-4.2-4.186-1.853-2.453-2.7-1.857c-.609.429-.218,1.285.687,2.522a15.75,15.75,0,0,1,1.168,1.638c.108.221-.226.4-.358.516-.245.22-.68.578-.711.92a3.007,3.007,0,0,1-.034.561c-.118.411-.627.6-.771,1.007-.1.291.01.618-.048.922-.038.2-.146.373-.181.569a1.361,1.361,0,0,0,.4,1.061,10.211,10.211,0,0,0,3.26,2.1c.966.535,1.963.769,3.076,1.263s14.022,9.443,16.064,8.315,12.592-13.4,12.592-13.4C354.859,147.063,352.977,144.2,352.977,144.2Z" transform="translate(-316.374 -120.718)" fill="#ffa8a7"/>
          <path id="Trazado_212400" data-name="Trazado 212400" d="M379.787,144.6h0c4.81.331,5.148,2.654,6.352,5.2a8.232,8.232,0,0,1,.228,6.2l-3.352,9.7s1.57,3.795,3.392,7.379c-8.413,4.7-18.918,2.228-21.448-1.2-.106-.727.544-6.409.944-10.121-1.482-3.717-1.873-6.073-1.248-8.53,1.161-4.561,5.666-9,7.66-8.842Z" transform="translate(-335.173 -120.891)" fill="#f5f5f5"/>
          <g id="Grupo_96559" data-name="Grupo 96559" transform="translate(30.155)">
            <g id="Grupo_96551" data-name="Grupo 96551">
              <path id="Trazado_212401" data-name="Trazado 212401" d="M375.781,125.489h1.867a9.833,9.833,0,0,0,9.833-9.833h0a9.887,9.887,0,0,0-9.887-9.887h-1.76a9.887,9.887,0,0,0-9.887,9.887h0A9.833,9.833,0,0,0,375.781,125.489Z" transform="translate(-365.947 -105.769)" fill="#263238"/>
            </g>
            <path id="Trazado_212402" data-name="Trazado 212402" d="M406.262,134.955h0a5.81,5.81,0,0,1-5.81-5.81V116.7h0a5.81,5.81,0,0,1,5.81,5.81Z" transform="translate(-379.463 -110.053)" fill="#263238"/>
            <path id="Trazado_212403" data-name="Trazado 212403" d="M401.265,113.077l-1.457,2.341a1.338,1.338,0,0,0,1.9-.389A1.449,1.449,0,0,0,401.265,113.077Z" transform="translate(-379.211 -108.632)" fill="#263238"/>
            <g id="Grupo_96552" data-name="Grupo 96552" transform="translate(1.123 4.354)">
              <path id="Trazado_212404" data-name="Trazado 212404" d="M370.207,112.927c-1.137.672-2.543,3.533-2.4,9.529.118,5.082,1.765,6.338,2.592,6.7s2.423.142,3.973-.117v3.05s-2.143,2.489-2.008,3.888,3.094,1.729,5.1.363a12.982,12.982,0,0,0,3.291-3.446v-7.373a1.947,1.947,0,0,0,2.759.261,3.651,3.651,0,0,0,.782-4.963c-1-1.01-3.142-.69-3.542.706a12.262,12.262,0,0,1-5.767-1.719A9.257,9.257,0,0,1,370.207,112.927Z" transform="translate(-367.793 -112.927)" fill="#ffa8a7"/>
            </g>
            <g id="Grupo_96553" data-name="Grupo 96553" transform="translate(7.375 11.973)">
              <path id="Trazado_212405" data-name="Trazado 212405" d="M378.072,126.085a.64.64,0,1,0,.672-.633A.65.65,0,0,0,378.072,126.085Z" transform="translate(-378.072 -125.452)" fill="#263238"/>
            </g>
            <g id="Grupo_96554" data-name="Grupo 96554" transform="translate(5.152 16.914)">
              <path id="Trazado_212406" data-name="Trazado 212406" d="M375.9,133.575l-1.484.474a.765.765,0,0,0,.965.532A.817.817,0,0,0,375.9,133.575Z" transform="translate(-374.417 -133.575)" fill="#f28f8f"/>
            </g>
            <g id="Grupo_96555" data-name="Grupo 96555" transform="translate(2.008 9.391)">
              <path id="Trazado_212407" data-name="Trazado 212407" d="M369.376,122.46l1.293-.9a.756.756,0,0,0-1.074-.22A.826.826,0,0,0,369.376,122.46Z" transform="translate(-369.248 -121.208)" fill="#263238"/>
            </g>
            <g id="Grupo_96556" data-name="Grupo 96556" transform="translate(2.433 11.511)">
              <path id="Trazado_212408" data-name="Trazado 212408" d="M369.948,125.326a.64.64,0,1,0,.672-.633A.649.649,0,0,0,369.948,125.326Z" transform="translate(-369.947 -124.692)" fill="#263238"/>
            </g>
            <g id="Grupo_96557" data-name="Grupo 96557" transform="translate(3.429 11.779)">
              <path id="Trazado_212409" data-name="Trazado 212409" d="M373.711,125.132l-.1,3.847-2.025-.627Z" transform="translate(-371.585 -125.132)" fill="#f28f8f"/>
            </g>
            <g id="Grupo_96558" data-name="Grupo 96558" transform="translate(7.698 17.956)">
              <path id="Trazado_212410" data-name="Trazado 212410" d="M378.6,137.8c1.634-.215,5-1.181,5.521-2.51a3.44,3.44,0,0,1-1.179,1.7c-1,.861-4.342,1.83-4.342,1.83Z" transform="translate(-378.602 -135.288)" fill="#f28f8f"/>
            </g>
          </g>
          <path id="Trazado_212411" data-name="Trazado 212411" d="M380.25,177.81a5.08,5.08,0,0,0,3.787-6.194,2.14,2.14,0,0,0-.086-.265,1.653,1.653,0,0,0-1.7-1.13h0a4.915,4.915,0,0,0,2.1-3.135l1.023-6.079a7.1,7.1,0,0,0-.26-2.948l3.382-3.911.625.435a8.436,8.436,0,0,1-.139,5.239l-3.352,9.7s1.57,3.795,3.392,7.379a21.75,21.75,0,0,1-17.976,1.191A24.527,24.527,0,0,0,380.25,177.81Z" transform="translate(-337.789 -124.72)" opacity="0.1"/>
          <g id="Grupo_96560" data-name="Grupo 96560" transform="translate(46.032 24.108)">
            <path id="Trazado_212412" data-name="Trazado 212412" d="M405.859,169.142c-4.368-17.854-7.6-23.809-12.9-23.74-1.549,1.852-1.121,7.445,1.327,10.839,0,0,5.458,11.515,6.329,15.609a57.612,57.612,0,0,1,1.577,11.213,2.241,2.241,0,0,1-.606,1.471c-1,1.08-1,1.95-1.647,3.145-.505.936-1.058,1.285-.9,1.5a1.208,1.208,0,0,0,1.639.121,6.169,6.169,0,0,0,1.242-1.191,12.375,12.375,0,0,1-.985,3.312c-1.12,2.526-.847,3.815,2.563,2.916,2.137-.564,3.479-2.344,3.8-7.48a39.608,39.608,0,0,0,.057-5.684A98.341,98.341,0,0,0,405.859,169.142Z" transform="translate(-392.048 -145.402)" fill="#ffa8a7"/>
          </g>
        </g>
      </g>
    </g>
    <g id="Character_1" data-name="Character 1" transform="translate(1038.021 5397.71)">
      <g id="Grupo_96584" data-name="Grupo 96584">
        <g id="Grupo_96563" data-name="Grupo 96563" transform="translate(47.5 25.572)">
          <path id="Trazado_212413" data-name="Trazado 212413" d="M336.116,252.42c.468-17.376-.925-21.541-5.551-24.725l-1.792,10.069s2.107,11.865,1.881,15.817A54.515,54.515,0,0,1,329.3,264.2a2.115,2.115,0,0,1-.92,1.19,12.148,12.148,0,0,0-2.54,2.422c-.695.728-1.287.909-1.2,1.14a1.143,1.143,0,0,0,1.465.519,8.035,8.035,0,0,0,1.672-.906,10.635,10.635,0,0,1-1.712,2.942c-1.652,2.025-1.725,3.269,1.611,3.3,2.089.019,3.757-1.27,5.33-5.875a37.468,37.468,0,0,0,1.469-5.171A93.11,93.11,0,0,0,336.116,252.42Z" transform="translate(-324.632 -227.695)" fill="#b16668"/>
        </g>
        <path id="Trazado_212414" data-name="Trazado 212414" d="M327.987,225.472a6.669,6.669,0,0,1,7.149,3.611c1.939,3.467,2.414,9.432,2.635,15.364,0,0-3.852,3.22-8.472,1.637Z" transform="translate(-278.446 -201.219)" fill="#27debf"/>
        <path id="Trazado_212415" data-name="Trazado 212415" d="M327.987,225.472a6.669,6.669,0,0,1,7.149,3.611c1.939,3.467,2.414,9.432,2.635,15.364,0,0-3.852,3.22-8.472,1.637Z" transform="translate(-278.446 -201.219)" opacity="0.1"/>
        <g id="Grupo_96583" data-name="Grupo 96583" transform="translate(24.691)">
          <g id="Grupo_96570" data-name="Grupo 96570" transform="translate(0 54.008)">
            <g id="Grupo_96564" data-name="Grupo 96564" transform="translate(21.268 59.584)">
              <path id="Trazado_212416" data-name="Trazado 212416" d="M332.177,378.628c.35.133.439.8.492,2.129.041,1,.255,2.759-.922,3.109a3.682,3.682,0,0,1-3.655-.776c-.942-1.182-1.578-2.223-2.922-3.665-1.165-1.251-2.426-2.419-2.9-4.174-.425-1.586-.071-2.274,1.011-2.735,1.487-.634,3.824,1.438,4.99,1.764C329.279,374.561,331.827,378.5,332.177,378.628Z" transform="translate(-322.099 -372.396)" fill="#263238"/>
            </g>
            <g id="Grupo_96565" data-name="Grupo 96565" transform="translate(26.798 63.996)">
              <path id="Trazado_212417" data-name="Trazado 212417" d="M335.738,380.24v1.63a3.99,3.99,0,0,1-4.12.111c-.072-.157-.428-2.332-.428-2.332Z" transform="translate(-331.19 -379.649)" fill="#b16668"/>
            </g>
            <g id="Grupo_96566" data-name="Grupo 96566" transform="translate(0 75.213)">
              <path id="Trazado_212418" data-name="Trazado 212418" d="M305.277,398.088s.468,1.419.72,2.658c.2.985.488,2.633.142,3.375s-1.692,1.22-3.779,1.2a12.261,12.261,0,0,0-4.9,1.713,12.952,12.952,0,0,1-6.164.977c-1.858-.218-3.782-1.3-4.082-2.064s.1-1.568,4.475-3.433c.04-.017,6.085-1.982,8.2-4.32Z" transform="translate(-287.135 -398.088)" fill="#263238"/>
            </g>
            <g id="Grupo_96567" data-name="Grupo 96567" transform="translate(12.753 73.45)">
              <path id="Trazado_212419" data-name="Trazado 212419" d="M313.489,395.191s-.006,1.21,0,1.9-.811,1.722-2.925,1.647c-1.485-.053-2.521-.452-2.462-1.675V395.3Z" transform="translate(-308.1 -395.191)" fill="#b16668"/>
            </g>
            <g id="Grupo_96568" data-name="Grupo 96568" transform="translate(6.744)">
              <path id="Trazado_212420" data-name="Trazado 212420" d="M323.884,317.392a44.316,44.316,0,0,0-1.925-8.492s.582-7.327.861-14.273c.3-7.5-.016-16.935.127-18.807,0,0-24.212-4.9-24.644,3.775s.956,30.752,1.242,34.563.945,7.18,1.732,13.356c.777,6.1,2.955,20.489,2.955,20.489a5.718,5.718,0,0,0,5.387-.11s1.7-17.343,1.525-21.74a37.562,37.562,0,0,0-1.667-9.6s.459-7.152.864-13.372.835-9.209.929-11.915l.521-.258s.531,10.732.817,14.542.892,7.464,1.995,14.541c.956,6.14,3.8,19.13,3.8,19.13,2.766,1.5,4.416-.2,4.416-.2S324.631,322.719,323.884,317.392Z" transform="translate(-298.221 -274.442)" fill="#37474f"/>
            </g>
            <g id="Grupo_96569" data-name="Grupo 96569" transform="translate(19.793 11.323)">
              <path id="Trazado_212421" data-name="Trazado 212421" d="M319.674,298.56s5.873-2.894,8.813-5.5a19.436,19.436,0,0,1-6.312,5.551s-1.274,13.332-1.268,13.067l-.736-13.134Z" transform="translate(-319.674 -293.056)" fill="#263238"/>
            </g>
          </g>
          <g id="Grupo_96572" data-name="Grupo 96572" transform="translate(14.566 19.932)">
            <g id="Grupo_96571" data-name="Grupo 96571">
              <path id="Trazado_212422" data-name="Trazado 212422" d="M311.08,220l1.432,7.885,7.123-.52-1.5-8.939Z" transform="translate(-311.08 -218.423)" fill="#b16668"/>
            </g>
          </g>
          <g id="Grupo_96574" data-name="Grupo 96574" transform="translate(6.759 24.253)">
            <g id="Grupo_96573" data-name="Grupo 96573">
              <path id="Trazado_212423" data-name="Trazado 212423" d="M322.131,229.568c-.7-2.144-3.425-4.478-6.147-3.972a80.358,80.358,0,0,0-11.919,2.976c-2.492.891-4.762,3.044-4.969,11.241,0,0-.835,19.109-.849,22.8a30.217,30.217,0,0,0,16.362,1.614C322.1,262.6,323,259.49,323,259.49s.1-13.741-.128-19.676C322.681,234.771,322.615,231.04,322.131,229.568Z" transform="translate(-298.246 -225.526)" fill="#27debf"/>
            </g>
          </g>
          <g id="Grupo_96577" data-name="Grupo 96577" transform="translate(7.465 3.498)">
            <g id="Grupo_96575" data-name="Grupo 96575" transform="translate(0 8.417)">
              <path id="Trazado_212424" data-name="Trazado 212424" d="M301.012,205.243s-1.806,2.88-1.587,3.153,1.6.495,1.6.495Z" transform="translate(-299.407 -205.243)" fill="#b16668"/>
            </g>
            <g id="Grupo_96576" data-name="Grupo 96576" transform="translate(1.533)">
              <path id="Trazado_212425" data-name="Trazado 212425" d="M307.016,191.856c-3.767.883-4.822,2.571-5.043,8.591-.231,6.29.454,8.25,1.3,9.078.57.558,3.668.592,5.22.126,1.942-.583,6.324-2.248,8.322-5.454,2.349-3.773,2.875-8.825.223-10.833C313.305,190.537,308.548,191.5,307.016,191.856Z" transform="translate(-301.927 -191.406)" fill="#b16668"/>
            </g>
            <path id="Trazado_212426" data-name="Trazado 212426" d="M308.441,220.63c1.278-1.028,1.163-1.69,1.163-1.69-.917.856-4.309,1.589-5.467,1.37C304.61,220.772,306.815,220.874,308.441,220.63Z" transform="translate(-301.26 -202.191)" fill="#9a4a4d"/>
          </g>
          <g id="Grupo_96582" data-name="Grupo 96582" transform="translate(8.339)">
            <g id="Grupo_96579" data-name="Grupo 96579">
              <g id="Grupo_96578" data-name="Grupo 96578">
                <path id="Trazado_212427" data-name="Trazado 212427" d="M301.589,191.169a7.681,7.681,0,0,0,3.505,2.8c.722.823.324,4.032,1.6,4.541,0,0,.546-2.335,2.509-2.088s2.3,2.754,1.092,4.308-2.378.995-2.378.995.136,3.318,1.648,5.164a10.045,10.045,0,0,0,4.749-.221c1.883-.446,4.5-2.871,5.573-5.4,2.26-5.35,2.319-10.12-1.095-11.472-.421-2.433-2.367-3.484-4.569-3.937-4.74-.977-7.8,1.981-11.444,1.725C300.685,187.431,300.295,188.952,301.589,191.169Z" transform="translate(-300.844 -185.656)" fill="#263238"/>
              </g>
            </g>
            <g id="Grupo_96581" data-name="Grupo 96581" transform="translate(17.823 2.944)">
              <g id="Grupo_96580" data-name="Grupo 96580">
                <path id="Trazado_212428" data-name="Trazado 212428" d="M330.342,192.5l2.234-1.386a1.315,1.315,0,0,0-2.234,1.386Z" transform="translate(-330.144 -190.495)" fill="#263238"/>
              </g>
            </g>
          </g>
        </g>
        <path id="Trazado_212429" data-name="Trazado 212429" d="M284.006,230.48a9.082,9.082,0,0,0-5.39,3.454c-1.85,2.8-9.851,12.833-9.851,12.833s-11.511-5.761-12.077-6.443-.248-2.064-.092-2.824.414-2.448.583-2.923c.3-.827-.929-.6-1.65.17-.739.793-1.042,2.287-1.4,2.547s-3.1-2.89-4.428-4.41-1.953-2.584-2.843-1.957c-.642.453-.23,1.355.723,2.657a16.732,16.732,0,0,1,1.231,1.725c.114.233-.238.42-.377.544-.258.231-.716.609-.748.97a3.113,3.113,0,0,1-.037.59c-.124.434-.66.637-.811,1.061-.11.307.011.651-.05.971-.04.206-.153.393-.19.6a1.435,1.435,0,0,0,.426,1.118,10.775,10.775,0,0,0,3.434,2.214c1.018.563,2.068.81,3.24,1.33s14.971,10.719,17.123,9.532,13.19-14.084,13.19-14.084A8.91,8.91,0,0,0,284.006,230.48Z" transform="translate(-246.544 -203.214)" fill="#b16668"/>
        <path id="Trazado_212430" data-name="Trazado 212430" d="M301.562,229.8c-1.523.175-3.655-.107-6.638,3.1a93.207,93.207,0,0,0-6.711,8.636,8.455,8.455,0,0,0,6.674,6.283s5.222-5.35,6.674-8.3S303.355,231.784,301.562,229.8Z" transform="translate(-262.867 -202.946)" fill="#27debf"/>
        <path id="Trazado_212431" data-name="Trazado 212431" d="M301.562,229.8c-1.523.175-3.655-.107-6.638,3.1a93.207,93.207,0,0,0-6.711,8.636,8.455,8.455,0,0,0,6.674,6.283s5.222-5.35,6.674-8.3S303.355,231.784,301.562,229.8Z" transform="translate(-262.867 -202.946)" opacity="0.1"/>
      </g>
    </g>
  </g>
</svg>
