<svg id="Grupo_97252" data-name="Grupo 97252" xmlns="http://www.w3.org/2000/svg" width="502.205" height="540.137" viewBox="0 0 502.205 540.137">
  <ellipse id="Elipse_5373" data-name="Elipse 5373" cx="88.177" cy="7.822" rx="88.177" ry="7.822" transform="translate(325.851 524.493)" fill="#e5e1f9"/>
  <ellipse id="Elipse_5374" data-name="Elipse 5374" cx="212.15" cy="17.361" rx="212.15" ry="17.361" transform="translate(0 486.668)" fill="#e5e1f9"/>
  <g id="Grupo_97223" data-name="Grupo 97223" transform="translate(33.702 115.75)" opacity="0.85">
    <g id="Grupo_97214" data-name="Grupo 97214" transform="translate(148.577 254.762)">
      <g id="Grupo_97213" data-name="Grupo 97213">
        <path id="Trazado_213144" data-name="Trazado 213144" d="M169.295,326V450.755l39.685,18.322V434.365h90.04L294.047,326Z" transform="translate(-169.284 -326.003)" fill="#602ca2"/>
        <rect id="Rectángulo_40836" data-name="Rectángulo 40836" width="124.724" height="124.753" transform="translate(39.696 18.322)" fill="#a386f4"/>
        <path id="Trazado_213145" data-name="Trazado 213145" d="M270.289,326.006l39.683,18.319H185.221l-39.683-18.319Z" transform="translate(-145.538 -326.001)" fill="#855fe0"/>
      </g>
      <rect id="Rectángulo_40837" data-name="Rectángulo 40837" width="24.546" height="42.486" transform="translate(113.904 18.322)" fill="#602ca2"/>
      <rect id="Rectángulo_40838" data-name="Rectángulo 40838" width="41.809" height="6.834" transform="translate(54.019 124.322)" fill="#855fe0"/>
    </g>
    <g id="Grupo_97216" data-name="Grupo 97216" transform="translate(18.614 254.762)">
      <g id="Grupo_97215" data-name="Grupo 97215">
        <path id="Trazado_213146" data-name="Trazado 213146" d="M258.278,326V450.755l39.685,18.322V434.365H388L383.031,326Z" transform="translate(-258.267 -326.003)" fill="#602ca2"/>
        <rect id="Rectángulo_40839" data-name="Rectángulo 40839" width="124.724" height="124.753" transform="translate(39.696 18.322)" fill="#a386f4"/>
        <path id="Trazado_213147" data-name="Trazado 213147" d="M359.272,326.006l39.683,18.319H274.2l-39.683-18.319Z" transform="translate(-234.521 -326.001)" fill="#855fe0"/>
      </g>
      <rect id="Rectángulo_40840" data-name="Rectángulo 40840" width="24.546" height="42.486" transform="translate(113.904 18.322)" fill="#602ca2"/>
      <rect id="Rectángulo_40841" data-name="Rectángulo 40841" width="41.809" height="6.834" transform="translate(54.019 124.322)" fill="#855fe0"/>
    </g>
    <g id="Grupo_97218" data-name="Grupo 97218" transform="translate(129.962 127.636)">
      <g id="Grupo_97217" data-name="Grupo 97217">
        <path id="Trazado_213148" data-name="Trazado 213148" d="M182.04,238.961V363.714l39.685,18.322V347.323h90.041l-4.973-108.362Z" transform="translate(-182.029 -238.961)" fill="#602ca2"/>
        <rect id="Rectángulo_40842" data-name="Rectángulo 40842" width="124.724" height="124.753" transform="translate(39.696 18.322)" fill="#a386f4"/>
        <path id="Trazado_213149" data-name="Trazado 213149" d="M283.034,238.965l39.683,18.319H197.966l-39.683-18.319Z" transform="translate(-158.283 -238.959)" fill="#855fe0"/>
      </g>
      <rect id="Rectángulo_40843" data-name="Rectángulo 40843" width="24.546" height="42.486" transform="translate(113.904 18.322)" fill="#602ca2"/>
      <rect id="Rectángulo_40844" data-name="Rectángulo 40844" width="41.809" height="6.834" transform="translate(54.019 124.322)" fill="#855fe0"/>
    </g>
    <g id="Grupo_97220" data-name="Grupo 97220" transform="translate(0 127.636)">
      <g id="Grupo_97219" data-name="Grupo 97219">
        <path id="Trazado_213150" data-name="Trazado 213150" d="M271.023,238.961V363.714l39.685,18.322V347.323h90.041l-4.973-108.362Z" transform="translate(-271.012 -238.961)" fill="#602ca2"/>
        <rect id="Rectángulo_40845" data-name="Rectángulo 40845" width="124.724" height="124.753" transform="translate(39.696 18.322)" fill="#a386f4"/>
        <path id="Trazado_213151" data-name="Trazado 213151" d="M372.018,238.965,411.7,257.284H286.949l-39.683-18.319Z" transform="translate(-247.266 -238.959)" fill="#855fe0"/>
      </g>
      <rect id="Rectángulo_40846" data-name="Rectángulo 40846" width="24.546" height="42.486" transform="translate(113.904 18.322)" fill="#602ca2"/>
      <rect id="Rectángulo_40847" data-name="Rectángulo 40847" width="41.809" height="6.834" transform="translate(54.019 124.322)" fill="#855fe0"/>
    </g>
    <g id="Grupo_97222" data-name="Grupo 97222" transform="translate(88.781)">
      <g id="Grupo_97221" data-name="Grupo 97221">
        <path id="Trazado_213152" data-name="Trazado 213152" d="M210.236,151.571V276.324l39.685,18.322V259.933h90.041l-4.973-108.362Z" transform="translate(-210.225 -151.571)" fill="#602ca2"/>
        <rect id="Rectángulo_40848" data-name="Rectángulo 40848" width="124.724" height="124.753" transform="translate(39.696 18.322)" fill="#a386f4"/>
        <path id="Trazado_213153" data-name="Trazado 213153" d="M311.23,151.575l39.683,18.319H226.162l-39.683-18.319Z" transform="translate(-186.479 -151.569)" fill="#855fe0"/>
      </g>
      <rect id="Rectángulo_40849" data-name="Rectángulo 40849" width="24.546" height="42.486" transform="translate(113.904 18.322)" fill="#602ca2"/>
      <rect id="Rectángulo_40850" data-name="Rectángulo 40850" width="41.809" height="6.834" transform="translate(54.019 124.322)" fill="#855fe0"/>
    </g>
  </g>
  <g id="Grupo_97237" data-name="Grupo 97237" transform="translate(56.535 100.48)">
    <rect id="Rectángulo_40851" data-name="Rectángulo 40851" width="101.567" height="143.347" rx="3.739" transform="translate(0 15.899)" fill="#602ca2"/>
    <g id="Grupo_97236" data-name="Grupo 97236" transform="translate(5.879 20.349)">
      <rect id="Rectángulo_40852" data-name="Rectángulo 40852" width="89.81" height="130.189" transform="translate(0 0)" fill="#fff"/>
      <g id="Grupo_97226" data-name="Grupo 97226" transform="translate(9.493 18.255)">
        <g id="Grupo_97224" data-name="Grupo 97224" transform="translate(20.2 3.631)">
          <rect id="Rectángulo_40853" data-name="Rectángulo 40853" width="52.235" height="1.595" transform="translate(0)" fill="#e5e1f9"/>
          <rect id="Rectángulo_40854" data-name="Rectángulo 40854" width="35.551" height="1.595" transform="translate(0 5.04)" fill="#e5e1f9"/>
        </g>
        <g id="Grupo_97225" data-name="Grupo 97225" transform="translate(0)">
          <ellipse id="Elipse_5375" data-name="Elipse 5375" cx="6.948" cy="6.948" rx="6.948" ry="6.948" transform="translate(0)" fill="#d04369"/>
          <path id="Trazado_213154" data-name="Trazado 213154" d="M287.176,171.641l1.331,3.235,7.355-3.909" transform="translate(-284.291 -165.974)" fill="none" stroke="#fff" stroke-linecap="round" stroke-miterlimit="10" stroke-width="0.591"/>
        </g>
      </g>
      <g id="Grupo_97229" data-name="Grupo 97229" transform="translate(9.493 44.695)">
        <g id="Grupo_97227" data-name="Grupo 97227" transform="translate(20.2 3.631)">
          <rect id="Rectángulo_40855" data-name="Rectángulo 40855" width="52.235" height="1.595" transform="translate(0)" fill="#e5e1f9"/>
          <rect id="Rectángulo_40856" data-name="Rectángulo 40856" width="35.551" height="1.595" transform="translate(0 5.04)" fill="#e5e1f9"/>
        </g>
        <g id="Grupo_97228" data-name="Grupo 97228" transform="translate(0)">
          <ellipse id="Elipse_5376" data-name="Elipse 5376" cx="6.948" cy="6.948" rx="6.948" ry="6.948" transform="translate(0)" fill="#d04369"/>
          <path id="Trazado_213155" data-name="Trazado 213155" d="M287.176,189.744l1.331,3.234,7.355-3.909" transform="translate(-284.291 -184.076)" fill="none" stroke="#fff" stroke-linecap="round" stroke-miterlimit="10" stroke-width="0.591"/>
        </g>
      </g>
      <g id="Grupo_97232" data-name="Grupo 97232" transform="translate(9.493 71.135)">
        <g id="Grupo_97230" data-name="Grupo 97230" transform="translate(20.2 3.631)">
          <rect id="Rectángulo_40857" data-name="Rectángulo 40857" width="52.235" height="1.595" transform="translate(0)" fill="#e5e1f9"/>
          <rect id="Rectángulo_40858" data-name="Rectángulo 40858" width="35.551" height="1.595" transform="translate(0 5.04)" fill="#e5e1f9"/>
        </g>
        <g id="Grupo_97231" data-name="Grupo 97231" transform="translate(0)">
          <ellipse id="Elipse_5377" data-name="Elipse 5377" cx="6.948" cy="6.948" rx="6.948" ry="6.948" transform="translate(0)" fill="#d04369"/>
        </g>
      </g>
      <g id="Grupo_97235" data-name="Grupo 97235" transform="translate(9.493 97.575)">
        <g id="Grupo_97233" data-name="Grupo 97233" transform="translate(20.2 3.631)">
          <rect id="Rectángulo_40859" data-name="Rectángulo 40859" width="52.235" height="1.595" transform="translate(0)" fill="#e5e1f9"/>
          <rect id="Rectángulo_40860" data-name="Rectángulo 40860" width="35.551" height="1.595" transform="translate(0 5.04)" fill="#e5e1f9"/>
        </g>
        <g id="Grupo_97234" data-name="Grupo 97234" transform="translate(0)">
          <ellipse id="Elipse_5378" data-name="Elipse 5378" cx="6.948" cy="6.948" rx="6.948" ry="6.948" transform="translate(0)" fill="#d04369"/>
        </g>
      </g>
    </g>
    <path id="Trazado_213156" data-name="Trazado 213156" d="M289.826,157.191v6.581h54.545v-6.581a6.362,6.362,0,0,0-6.362-6.362h-9.964a11.025,11.025,0,0,0-21.893,0h-9.974A6.359,6.359,0,0,0,289.826,157.191Zm22.929-5.052a4.344,4.344,0,1,1,4.344,4.344A4.341,4.341,0,0,1,312.755,152.139Z" transform="translate(-267.699 -141.116)" fill="#855fe0"/>
  </g>
  <g id="Grupo_97247" data-name="Grupo 97247" transform="translate(335.688 145.771)">
    <g id="Grupo_97242" data-name="Grupo 97242" transform="translate(29.586 156.135)">
      <g id="Grupo_97239" data-name="Grupo 97239" transform="translate(0)">
        <path id="Trazado_213157" data-name="Trazado 213157" d="M119.134,279.029c20.276.774,10.1,19.587,6.139,36.157-7.2,26.025-3.508,59.879-14.056,63.486-28.118,8.274-18.21-91.314-10.387-95.8C104.505,280.815,112.318,279.664,119.134,279.029Z" transform="translate(-72.516 -279.029)" fill="#e8c4b3"/>
        <g id="Grupo_97238" data-name="Grupo 97238" transform="translate(0 89.467)">
          <path id="Trazado_213158" data-name="Trazado 213158" d="M108.709,341.687c19.8-13.957,17.4,80.3,11.912,106.759s-10.9,8.427-14.4-33.941S100.919,347.179,108.709,341.687Z" transform="translate(-81.264 -340.286)" fill="#e8c4b3"/>
          <path id="Trazado_213159" data-name="Trazado 213159" d="M119.1,412.54l.545,9.894-16.2.39.467-9.582Z" transform="translate(-76.73 -307.011)" fill="#e8c4b3"/>
          <path id="Trazado_213160" data-name="Trazado 213160" d="M128.687,419.663s-3.079,5.949-13.269,13.706-12.86,6.08-13.094,8.969,44.553.381,44.553.381l-1.4-23.758S128.693,419.043,128.687,419.663Z" transform="translate(-102.324 -304.054)" fill="#57229d"/>
        </g>
      </g>
      <g id="Grupo_97241" data-name="Grupo 97241" transform="translate(55.375 0.014)">
        <path id="Trazado_213161" data-name="Trazado 213161" d="M84.754,279.517c19.9-3.961,19.676,17.49,19.675,34.527-.952,26.986,5.208,58.265-4.211,64.227-25.426,14.582-32.643-87.789-26.078-93.976C77.238,281.443,78.273,281.719,84.754,279.517Z" transform="translate(-71.851 -279.039)" fill="#e8c4b3"/>
        <g id="Grupo_97240" data-name="Grupo 97240" transform="translate(12.349 89.453)">
          <path id="Trazado_213162" data-name="Trazado 213162" d="M77.377,341.687c19.8-13.957,17.4,80.3,11.912,106.759s-10.9,8.427-14.4-33.941S69.585,347.179,77.377,341.687Z" transform="translate(-71.892 -340.286)" fill="#e8c4b3"/>
          <path id="Trazado_213163" data-name="Trazado 213163" d="M88.328,414.578l.05,9.7-15.542.117.234-9.524Z" transform="translate(-68.479 -306.072)" fill="#e8c4b3"/>
        </g>
        <path id="Trazado_213164" data-name="Trazado 213164" d="M87.637,421.127c.2,3.832,4.2,16.932,4.287,20.255-24.7.627-24.008,5.6-20.022-20.176Z" transform="translate(-55.24 -213.603)" fill="#57229d"/>
      </g>
    </g>
    <path id="Trazado_213165" data-name="Trazado 213165" d="M137.149,280.435s5.075,10.433,4.5,46.515c-.66,41.258-.289,50.94-.289,53.98s-.216,97.278-.216,97.278-15.439,3.164-19.161-.036c-1.948-1.675-16.705-150.066-16.705-150.066s-3.329,35.158-4.329,48.494c-.866,11.547-1.1,90.893-5.268,99.009-4.3,3.48-19.923,1.667-20.133,1.443-2.309-2.454-8.443-165.472-.96-195.242Z" transform="translate(-21.78 -122.246)" fill="#f4b55b"/>
    <g id="Grupo_97243" data-name="Grupo 97243" transform="translate(46.37 57.377)">
      <path id="Trazado_213166" data-name="Trazado 213166" d="M125.111,218.726c11.082,7.238-3.948,74.11-12.518,70.514C97.53,290.257,104.988,210.689,125.111,218.726Z" transform="translate(-104.621 -208.305)" fill="#e8c4b3"/>
      <path id="Trazado_213167" data-name="Trazado 213167" d="M131.614,211.411c-30.94,3.575-30.363,30.709-33.065,50.029L120.2,264.6Z" transform="translate(-98.331 -211.411)" fill="#602ca2"/>
    </g>
    <g id="Grupo_97245" data-name="Grupo 97245" transform="translate(13.512 80.394)">
      <g id="Grupo_97244" data-name="Grupo 97244">
        <path id="Trazado_213168" data-name="Trazado 213168" d="M152.316,286.532c-12.965-2.334-42.88-55.868-39.9-58.981C114.75,221.63,177.883,286.72,152.316,286.532Z" transform="translate(-112.207 -227.17)" fill="#e8c4b3"/>
      </g>
    </g>
    <path id="Trazado_213169" data-name="Trazado 213169" d="M69.909,314.559v.042a.876.876,0,0,0,.042.235,1.048,1.048,0,0,0,.107.215c3.337,4.684,58.523,3.08,62.652-1.605a.839.839,0,0,0,.171-.278.669.669,0,0,0,.064-.279c-.215-3.7-.321-7.272-.386-10.694q-.127-8.632.235-16.257c.086-1.8.193-3.551.3-5.262,2.887-42.608,14.61-61.176-5.817-68.319a46.364,46.364,0,0,0-7.252-1.84c-1.091-.213-2.246-.384-3.466-.555l-19.251,1.732c-1.111.193-2.181.406-3.207.663a35.159,35.159,0,0,0-5.668,1.754C69.352,221.7,71.106,241.619,71.7,270.816,71.962,283.672,72,298.346,69.909,314.559Z" transform="translate(-17.576 -154.701)" fill="#602ca2"/>
    <path id="Trazado_213170" data-name="Trazado 213170" d="M75.427,234.787l-2.1,23.3s11.868,4.221,11.268,3.374S75.427,234.787,75.427,234.787Z" transform="translate(31.886 -143.268)" fill="#2ecece" opacity="0.5" style="mix-blend-mode: multiply;isolation: isolate"/>
    <path id="Trazado_213171" data-name="Trazado 213171" d="M89.711,220.5v10.944c.783,10.07,16.663-.64,18.464-4.753,1.246-2.648-.545-4.009-.545-9.619v-6.226c19.123-29.739-12.16-42.225-24.386-21.113C83.039,207.037,78.376,223.323,89.711,220.5Z" transform="translate(-10.028 -168.867)" fill="#e8c4b3"/>
    <path id="Trazado_213172" data-name="Trazado 213172" d="M121.094,214.093c-.431-.111,2.607-10.828.225-10.941-1.872-.1-2.7,2.959-3.055,5.855-.96-.272-2.128-.561-2.655-.688,8.068-29.792-33.079-3.654-33.846-22.112-.15-3.6-.277-12.232,6.209-13.622,13.288-2.848,21.274,8.467,28.436,8.877C134.217,181.006,127.149,210.732,121.094,214.093Z" transform="translate(-23.486 -172.126)" fill="#57229d"/>
    <path id="Trazado_213173" data-name="Trazado 213173" d="M73.426,218.672c12.257,3.97,16.521,73.694,7.554,72.5C67.094,295.973,52.472,216.259,73.426,218.672Z" transform="translate(45.906 -150.715)" fill="#e8c4b3"/>
    <path id="Trazado_213174" data-name="Trazado 213174" d="M61.881,209.947l1.2,5.262,3.1,13.583,3.786,16.577,2.353,14.011,24.15-2.439s-3.721-31.508-8.064-38.673c-2.16-3.593-8.813-5.668-14.931-6.846-2.8-.555-5.5-.919-7.571-1.133C63.486,210.033,61.881,209.947,61.881,209.947Z" transform="translate(36.739 -154.708)" fill="#602ca2"/>
    <path id="Trazado_213175" data-name="Trazado 213175" d="M73.993,314.458v.042a.877.877,0,0,0,.042.235,1.048,1.048,0,0,0,.107.215c1.583,2.417,15.572,4.32,29.925,4,15.144-.364,30.694-3.058,32.727-5.6a.84.84,0,0,0,.171-.277.669.669,0,0,0,.064-.279c-.215-3.7-.321-7.272-.386-10.694q-.127-8.632.235-16.257c.086-1.8.193-3.551.3-5.262-8.642,7.551-15.036-3.529-16.448-25.41-.6-9.305,1.369-18.717,3.85-26.481a108.667,108.667,0,0,1,6.781-16.428c.193-.386.364-.685.513-.942-2.8-.555-5.5-.919-7.571-1.133a2.376,2.376,0,0,0-.193.235,36.359,36.359,0,0,0-2.632,4.685,145.054,145.054,0,0,0-8.791,23.208c-2.717,10.416-5.733,9.818-12.984,9.818s-8.962-6.651-7.549-16.406c1.2-8.3,4.919-17.027,6.032-19.464a35.156,35.156,0,0,0-5.668,1.754c-11.145,12.984-10.081,53.216-14.16,55.935-1.237.825-2.011,1.282-2.568.77C76.047,283.571,76.089,298.245,73.993,314.458Z" transform="translate(-21.66 -154.6)" fill="#f4b55b"/>
    <path id="Trazado_213176" data-name="Trazado 213176" d="M74.2,241.045c.627.924,11.721,14.531,21.714,23.092a376.235,376.235,0,0,0,32.037,23.738c-.091-5.757,0-11.155.238-16.257Z" transform="translate(-12.97 -140.386)" fill="#2ecece" opacity="0.5" style="mix-blend-mode: multiply;isolation: isolate"/>
    <path id="Trazado_213177" data-name="Trazado 213177" d="M143.716,212.356l24.412,40.151-23.5,2.946-24.2-41.039Z" transform="translate(-120.426 -153.599)" fill="#57229d"/>
    <path id="Trazado_213178" data-name="Trazado 213178" d="M135.571,229.016a2.319,2.319,0,0,1,1.937-2.386c3.572-.594,10.888-1.263,12.268,2.876,1.84,5.521-5.033,11.367-8.5,8.877C138.813,236.611,135.7,231.978,135.571,229.016Z" transform="translate(-124.498 -147.229)" fill="#e8c4b3"/>
    <g id="Grupo_97246" data-name="Grupo 97246" transform="translate(54.527 92.66)">
      <path id="Trazado_213179" data-name="Trazado 213179" d="M138.381,282.8a6.7,6.7,0,0,1-6.234,2.074c-17.884-3.071-72.187-46.617-67.558-49.134C66.9,232.793,149.7,269.51,138.381,282.8Z" transform="translate(-64.31 -235.569)" fill="#e8c4b3"/>
    </g>
    <path id="Trazado_213180" data-name="Trazado 213180" d="M113.493,233.491c-.641,2.59-4,4.326-1.336,9.285s11.684,6.264,11.684,6.264l3.886-6.834a11.928,11.928,0,0,1-1.719-3.231,12.348,12.348,0,0,0-6.448-7.82c-4.482-2.067-11.515-4.222-12.407-2.909S114,231.46,113.493,233.491Z" transform="translate(-60.535 -146.465)" fill="#e8c4b3"/>
    <path id="Trazado_213181" data-name="Trazado 213181" d="M75.655,237.678l49.284,22.453-.11,12.336L73.337,241.415Z" transform="translate(-8.463 -141.937)" fill="#e8c4b3"/>
  </g>
  <path id="Trazado_213182" data-name="Trazado 213182" d="M376.859,288.382h4.23a31.691,31.691,0,0,1,3.7-9.216h0l-3.112-3.114a2.815,2.815,0,0,1,0-3.984l6.818-6.818a2.816,2.816,0,0,1,3.984,0l2.991,2.99a31.986,31.986,0,0,1,9.131-3.91v-4.4a2.818,2.818,0,0,1,2.817-2.817h9.642a2.817,2.817,0,0,1,2.817,2.817v4.236a31.927,31.927,0,0,1,9.22,3.688h0l3.109-3.109a2.817,2.817,0,0,1,3.986,0l6.818,6.818a2.815,2.815,0,0,1,0,3.984l-3,3a31.625,31.625,0,0,1,3.911,9.124h4.4a2.818,2.818,0,0,1,2.817,2.817v9.642a2.817,2.817,0,0,1-2.817,2.817h-4.243a31.379,31.379,0,0,1-3.686,9.214l3.115,3.117a2.816,2.816,0,0,1,0,3.984l-6.818,6.818a2.816,2.816,0,0,1-3.984,0l-2.993-2.993h0A31.943,31.943,0,0,1,420.589,327h0V331.4a2.818,2.818,0,0,1-2.817,2.817h-9.642a2.818,2.818,0,0,1-2.819-2.817v-4.234l0,0a31.459,31.459,0,0,1-9.209-3.688l0,0-3.114,3.112a2.815,2.815,0,0,1-3.984,0l-6.818-6.818a2.815,2.815,0,0,1,0-3.984l3-3h0a31.691,31.691,0,0,1-3.923-9.124h-4.387a2.818,2.818,0,0,1-2.817-2.819V291.2A2.818,2.818,0,0,1,376.859,288.382ZM412.6,313.6a17.939,17.939,0,1,0-17.95-17.94A17.939,17.939,0,0,0,412.6,313.6Z" transform="translate(-317.507 -255.866)" fill="#a386f4"/>
  <circle id="Elipse_5381" data-name="Elipse 5381" cx="7.853" cy="7.853" r="7.853" transform="translate(109.849 62.643)" fill="#fff"/>
  <circle id="Elipse_5382" data-name="Elipse 5382" cx="6.477" cy="6.477" r="6.477" transform="translate(397.185 88.886)" fill="#a386f4"/>
  <ellipse id="Elipse_5383" data-name="Elipse 5383" cx="3.106" cy="3.106" rx="3.106" ry="3.106" transform="translate(121.686 329.447)" fill="#a386f4"/>
  <ellipse id="Elipse_5384" data-name="Elipse 5384" cx="3.106" cy="3.106" rx="3.106" ry="3.106" transform="translate(267.161 329.447)" fill="#a386f4"/>
  <g id="Grupo_97251" data-name="Grupo 97251" transform="translate(169.737 0)">
    <g id="Grupo_97250" data-name="Grupo 97250">
      <path id="Trazado_213193" data-name="Trazado 213193" d="M278.3,128.081a33.769,33.769,0,0,0-5.965-41.128,32.854,32.854,0,0,0-5.159-4.05c-.476-.308-.957-.6-1.453-.881-.946-.54-1.9-1.027-2.88-1.463a33.763,33.763,0,0,0-32.987,58.605c.764.524,1.566,1.024,2.385,1.494.613.352,1.243.686,1.871.993a33.212,33.212,0,0,0,6.125,2.3A33.776,33.776,0,0,0,278.3,128.081Z" transform="translate(-207.542 -69.897)" fill="#fff" opacity="0.15"/>
      <rect id="Rectángulo_40862" data-name="Rectángulo 40862" width="8.578" height="54.855" transform="translate(126.475 85.058) rotate(119.727)" fill="#a386f4"/>
      <path id="Trazado_213194" data-name="Trazado 213194" d="M230.852,149.74a41.434,41.434,0,1,1,58.615-19.6,42.608,42.608,0,0,1-2.084,4.165,41.419,41.419,0,0,1-56.531,15.436ZM269.3,82.411a36.1,36.1,0,1,0,13.45,49.252A36.1,36.1,0,0,0,269.3,82.411Z" transform="translate(-209.96 -72.319)" fill="#602ca2"/>
      <rect id="Rectángulo_40863" data-name="Rectángulo 40863" width="12.524" height="54.314" rx="1.254" transform="translate(148.546 95.389) rotate(119.727)" fill="#602ca2"/>
    </g>
  </g>
</svg>
