<svg xmlns="http://www.w3.org/2000/svg" width="295" height="356" viewBox="0 0 295 356">
  <g id="Grupo_97254" data-name="Grupo 97254" transform="translate(-285 -2820)">
    <g id="Trazado_213218" data-name="Trazado 213218" transform="translate(285 2852)" fill="#fff">
      <path d="M 270 322 L 25 322 C 21.89412498474121 322 18.88224983215332 321.3921813964844 16.04795837402344 320.1933898925781 C 13.30937480926514 319.0350341796875 10.84945869445801 317.3763732910156 8.736541748046875 315.2634582519531 C 6.623624801635742 313.1505432128906 4.964958190917969 310.6906127929688 3.806624889373779 307.9520568847656 C 2.607833385467529 305.1177368164062 2 302.1058654785156 2 299 L 2 25 C 2 21.89412498474121 2.607833385467529 18.88224983215332 3.806624889373779 16.04795837402344 C 4.964958190917969 13.30937480926514 6.623624801635742 10.84945869445801 8.736541748046875 8.736541748046875 C 10.84945869445801 6.623624801635742 13.30937480926514 4.964958190917969 16.04795837402344 3.806624889373779 C 18.88224983215332 2.607833385467529 21.89412498474121 2 25 2 L 270 2 C 273.1058654785156 2 276.1177368164062 2.607833385467529 278.9520568847656 3.806624889373779 C 281.6906127929688 4.964958190917969 284.1505432128906 6.623624801635742 286.2634582519531 8.736541748046875 C 288.3763732910156 10.84945869445801 290.0350341796875 13.30937480926514 291.1933898925781 16.04795837402344 C 292.3921813964844 18.88224983215332 293 21.89412498474121 293 25 L 293 299 C 293 302.1058654785156 292.3921813964844 305.1177368164062 291.1933898925781 307.9520568847656 C 290.0350341796875 310.6906127929688 288.3763732910156 313.1505432128906 286.2634582519531 315.2634582519531 C 284.1505432128906 317.3763732910156 281.6906127929688 319.0350341796875 278.9520568847656 320.1933898925781 C 276.1177368164062 321.3921813964844 273.1058654785156 322 270 322 Z" stroke="none"/>
      <path d="M 25 4 C 19.39068603515625 4 14.11712646484375 6.184356689453125 10.15078735351562 10.15078735351562 C 6.184356689453125 14.11712646484375 4 19.39068603515625 4 25 L 4 299 C 4 304.6093139648438 6.184356689453125 309.8828735351562 10.15078735351562 313.8492126464844 C 14.11712646484375 317.8156433105469 19.39068603515625 320 25 320 L 270 320 C 275.6093139648438 320 280.8828735351562 317.8156433105469 284.8492126464844 313.8492126464844 C 288.8156433105469 309.8828735351562 291 304.6093139648438 291 299 L 291 25 C 291 19.39068603515625 288.8156433105469 14.11712646484375 284.8492126464844 10.15078735351562 C 280.8828735351562 6.184356689453125 275.6093139648438 4 270 4 L 25 4 M 25 0 L 270 0 C 283.80712890625 0 295 11.19287109375 295 25 L 295 299 C 295 312.80712890625 283.80712890625 324 270 324 L 25 324 C 11.19287109375 324 0 312.80712890625 0 299 L 0 25 C 0 11.19287109375 11.19287109375 0 25 0 Z" stroke="none" fill="#bbabf5"/>
    </g>
    <g id="Trazado_196482" data-name="Trazado 196482" transform="translate(400.751 2820)" fill="#e1d9ff">
      <path d="M 32.5 63 C 28.38165092468262 63 24.38754081726074 62.1938591003418 20.62863922119141 60.60398101806641 C 16.9969596862793 59.06790924072266 13.73495960235596 56.86846923828125 10.93323993682861 54.0667610168457 C 8.131529808044434 51.26504135131836 5.932089805603027 48.0030403137207 4.39601993560791 44.37136077880859 C 2.806139945983887 40.61246109008789 2 36.61835098266602 2 32.5 C 2 28.38165092468262 2.806139945983887 24.38754081726074 4.39601993560791 20.62863922119141 C 5.932089805603027 16.9969596862793 8.131529808044434 13.73495960235596 10.93323993682861 10.93323993682861 C 13.73495960235596 8.131529808044434 16.9969596862793 5.932089805603027 20.62863922119141 4.39601993560791 C 24.38754081726074 2.806139945983887 28.38165092468262 2 32.5 2 C 36.61835098266602 2 40.61246109008789 2.806139945983887 44.37136077880859 4.39601993560791 C 48.0030403137207 5.932089805603027 51.26504135131836 8.131529808044434 54.0667610168457 10.93323993682861 C 56.86846923828125 13.73495960235596 59.06790924072266 16.9969596862793 60.60398101806641 20.62863922119141 C 62.1938591003418 24.38754081726074 63 28.38165092468262 63 32.5 C 63 36.61835098266602 62.1938591003418 40.61246109008789 60.60398101806641 44.37136077880859 C 59.06790924072266 48.0030403137207 56.86846923828125 51.26504135131836 54.0667610168457 54.0667610168457 C 51.26504135131836 56.86846923828125 48.0030403137207 59.06790924072266 44.37136077880859 60.60398101806641 C 40.61246109008789 62.1938591003418 36.61835098266602 63 32.5 63 Z" stroke="none"/>
      <path d="M 32.5 4 C 28.65076446533203 4 24.91878890991211 4.752975463867188 21.40774154663086 6.238021850585938 C 18.01445770263672 7.673271179199219 14.96614074707031 9.728775024414062 12.34745788574219 12.34745788574219 C 9.728775024414062 14.96614074707031 7.673271179199219 18.01445770263672 6.238021850585938 21.40774154663086 C 4.752975463867188 24.91878890991211 4 28.65076446533203 4 32.5 C 4 36.34923553466797 4.752975463867188 40.08121109008789 6.238021850585938 43.59225845336914 C 7.673271179199219 46.98554229736328 9.728775024414062 50.03385925292969 12.34745788574219 52.65254211425781 C 14.96614074707031 55.27122497558594 18.01445770263672 57.32672882080078 21.40774154663086 58.761962890625 C 24.91878890991211 60.24702453613281 28.65076446533203 61 32.5 61 C 36.34923553466797 61 40.08121109008789 60.24702453613281 43.59225845336914 58.761962890625 C 46.98554229736328 57.32672882080078 50.03385925292969 55.27122497558594 52.65254211425781 52.65254211425781 C 55.27122497558594 50.03385925292969 57.32672882080078 46.98554229736328 58.761962890625 43.59225845336914 C 60.24702453613281 40.08121109008789 61 36.34923553466797 61 32.5 C 61 28.65076446533203 60.24702453613281 24.91878890991211 58.761962890625 21.40774154663086 C 57.32672882080078 18.01445770263672 55.27122497558594 14.96614074707031 52.65254211425781 12.34745788574219 C 50.03385925292969 9.728775024414062 46.98554229736328 7.673271179199219 43.59225845336914 6.238021850585938 C 40.08121109008789 4.752975463867188 36.34923553466797 4 32.5 4 M 32.5 0 C 50.44924926757812 0 65 14.55073928833008 65 32.5 C 65 50.44924926757812 50.44924926757812 65 32.5 65 C 14.55073928833008 65 0 50.44924926757812 0 32.5 C 0 14.55073928833008 14.55073928833008 0 32.5 0 Z" stroke="none" fill="#bbabf5"/>
    </g>
    <path id="Trazado_213220" data-name="Trazado 213220" d="M29.764,19V6.2H33.7a5.98,5.98,0,0,1,3.019.76A5.3,5.3,0,0,1,38.8,9.125a6.669,6.669,0,0,1,.747,3.186V12.9a6.688,6.688,0,0,1-.734,3.173,5.256,5.256,0,0,1-2.07,2.153A6.025,6.025,0,0,1,33.728,19ZM32.4,8.339v8.543h1.274a2.863,2.863,0,0,0,2.364-1.011,4.567,4.567,0,0,0,.835-2.892V12.3a4.64,4.64,0,0,0-.809-2.958A2.854,2.854,0,0,0,33.7,8.339ZM45.672,19.176a4.668,4.668,0,0,1-3.406-1.283,4.561,4.561,0,0,1-1.314-3.419v-.246a5.745,5.745,0,0,1,.554-2.562,4.064,4.064,0,0,1,1.569-1.74,4.4,4.4,0,0,1,2.316-.611,3.947,3.947,0,0,1,3.072,1.23,5,5,0,0,1,1.121,3.489v1.037H43.527a2.36,2.36,0,0,0,.743,1.494,2.245,2.245,0,0,0,1.569.563,2.742,2.742,0,0,0,2.294-1.063l1.248,1.4a3.813,3.813,0,0,1-1.547,1.261A5.075,5.075,0,0,1,45.672,19.176Zm-.29-7.813a1.587,1.587,0,0,0-1.226.512,2.651,2.651,0,0,0-.6,1.466h3.533v-.2a1.891,1.891,0,0,0-.457-1.311A1.638,1.638,0,0,0,45.382,11.362Zm8.684-4.21V9.49h1.626v1.863H54.065V16.1a1.133,1.133,0,0,0,.2.756,1.015,1.015,0,0,0,.773.229,4.051,4.051,0,0,0,.747-.062v1.925a5.229,5.229,0,0,1-1.538.229,2.425,2.425,0,0,1-2.725-2.7V11.354H50.137V9.49h1.389V7.152Zm7.418,12.023a4.668,4.668,0,0,1-3.406-1.283,4.561,4.561,0,0,1-1.314-3.419v-.246a5.745,5.745,0,0,1,.554-2.562,4.064,4.064,0,0,1,1.569-1.74A4.4,4.4,0,0,1,61.2,9.314a3.947,3.947,0,0,1,3.072,1.23,5,5,0,0,1,1.121,3.489v1.037H59.339a2.36,2.36,0,0,0,.743,1.494,2.245,2.245,0,0,0,1.569.563,2.742,2.742,0,0,0,2.294-1.063l1.248,1.4a3.813,3.813,0,0,1-1.547,1.261A5.075,5.075,0,0,1,61.483,19.176Zm-.29-7.813a1.587,1.587,0,0,0-1.226.512,2.651,2.651,0,0,0-.6,1.466H62.9v-.2a1.891,1.891,0,0,0-.457-1.311A1.638,1.638,0,0,0,61.193,11.362Zm10.986.51a6.9,6.9,0,0,0-.914-.07,1.86,1.86,0,0,0-1.89.976V19h-2.54V9.49h2.4l.07,1.134a2.354,2.354,0,0,1,2.118-1.31,2.662,2.662,0,0,1,.791.114Zm3.6-2.382.079,1.063A3.342,3.342,0,0,1,78.6,9.314a2.536,2.536,0,0,1,2.522,1.45,3.265,3.265,0,0,1,2.856-1.45,2.836,2.836,0,0,1,2.3.9,4.141,4.141,0,0,1,.756,2.711V19H84.484V12.936a1.811,1.811,0,0,0-.316-1.182,1.4,1.4,0,0,0-1.116-.374,1.585,1.585,0,0,0-1.582,1.09L81.479,19h-2.54V12.944a1.789,1.789,0,0,0-.325-1.2,1.416,1.416,0,0,0-1.107-.369,1.646,1.646,0,0,0-1.564.9V19H73.4V9.49ZM91.665,19H89.116V9.49h2.549Zm-2.7-11.971a1.251,1.251,0,0,1,.382-.94,1.648,1.648,0,0,1,2.079,0,1.244,1.244,0,0,1,.387.94,1.247,1.247,0,0,1-.391.949,1.629,1.629,0,0,1-2.065,0A1.247,1.247,0,0,1,88.967,7.029ZM96.095,9.49l.079,1.1a3.32,3.32,0,0,1,2.733-1.274,2.759,2.759,0,0,1,2.25.888,4.142,4.142,0,0,1,.756,2.654V19h-2.54V12.918a1.648,1.648,0,0,0-.352-1.173,1.574,1.574,0,0,0-1.169-.365,1.747,1.747,0,0,0-1.608.914V19H93.7V9.49ZM109.349,19a2.821,2.821,0,0,1-.255-.853,3.073,3.073,0,0,1-2.4,1.028,3.376,3.376,0,0,1-2.316-.809,2.6,2.6,0,0,1-.918-2.039,2.687,2.687,0,0,1,1.121-2.32,5.529,5.529,0,0,1,3.239-.817h1.169v-.545a1.567,1.567,0,0,0-.338-1.055,1.331,1.331,0,0,0-1.068-.4,1.513,1.513,0,0,0-1.006.308,1.045,1.045,0,0,0-.365.844h-2.54a2.551,2.551,0,0,1,.51-1.529,3.37,3.37,0,0,1,1.441-1.1,5.253,5.253,0,0,1,2.092-.4,4.15,4.15,0,0,1,2.791.883,3.09,3.09,0,0,1,1.033,2.483V16.8a4.546,4.546,0,0,0,.378,2.048V19Zm-2.1-1.767a2.188,2.188,0,0,0,1.037-.25,1.645,1.645,0,0,0,.7-.672V14.676h-.949q-1.907,0-2.03,1.318l-.009.149a1.017,1.017,0,0,0,.334.782A1.3,1.3,0,0,0,107.248,17.233Zm11.584-5.361a6.9,6.9,0,0,0-.914-.07,1.86,1.86,0,0,0-1.89.976V19h-2.54V9.49h2.4l.07,1.134a2.354,2.354,0,0,1,2.118-1.31,2.662,2.662,0,0,1,.791.114ZM133.1,14.333a5.7,5.7,0,0,1-1,3.52,3.2,3.2,0,0,1-2.694,1.323,2.963,2.963,0,0,1-2.329-1v4.482h-2.54V9.49h2.355l.088.932a2.985,2.985,0,0,1,2.408-1.107,3.22,3.22,0,0,1,2.733,1.3A5.858,5.858,0,0,1,133.1,14.2Zm-2.54-.185a3.743,3.743,0,0,0-.47-2.048,1.532,1.532,0,0,0-1.367-.721,1.663,1.663,0,0,0-1.644.914v3.894a1.692,1.692,0,0,0,1.661.94Q130.557,17.128,130.557,14.148Zm9.457-2.276a6.9,6.9,0,0,0-.914-.07,1.86,1.86,0,0,0-1.89.976V19h-2.54V9.49h2.4l.07,1.134a2.354,2.354,0,0,1,2.118-1.31,2.662,2.662,0,0,1,.791.114Zm.51,2.285a5.64,5.64,0,0,1,.545-2.522,3.989,3.989,0,0,1,1.569-1.714,4.577,4.577,0,0,1,2.377-.606,4.33,4.33,0,0,1,3.142,1.178,4.727,4.727,0,0,1,1.358,3.2l.018.65a4.97,4.97,0,0,1-1.222,3.511,4.735,4.735,0,0,1-6.561,0,5.058,5.058,0,0,1-1.226-3.586Zm2.54.18a3.555,3.555,0,0,0,.51,2.073,1.831,1.831,0,0,0,2.9.009,3.89,3.89,0,0,0,.519-2.267,3.519,3.519,0,0,0-.519-2.06,1.686,1.686,0,0,0-1.459-.731,1.658,1.658,0,0,0-1.441.726A3.955,3.955,0,0,0,143.063,14.338Zm7.638-.163a5.731,5.731,0,0,1,1-3.542,3.237,3.237,0,0,1,2.729-1.318,2.913,2.913,0,0,1,2.294,1.037V5.5h2.549V19h-2.294l-.123-1.011a2.989,2.989,0,0,1-2.443,1.187,3.228,3.228,0,0,1-2.694-1.323A5.916,5.916,0,0,1,150.7,14.175Zm2.54.189a3.754,3.754,0,0,0,.466,2.051,1.517,1.517,0,0,0,1.354.713,1.7,1.7,0,0,0,1.661-.995V12.375a1.675,1.675,0,0,0-1.644-.995Q153.241,11.38,153.241,14.364Zm13.693,3.669a3.185,3.185,0,0,1-2.6,1.143A3,3,0,0,1,162,18.3a3.752,3.752,0,0,1-.822-2.575V9.49h2.54v6.151q0,1.487,1.354,1.487a1.834,1.834,0,0,0,1.775-.9V9.49H169.4V19H167Zm8.332-.905a1.666,1.666,0,0,0,1.143-.387,1.355,1.355,0,0,0,.457-1.028h2.382a3.258,3.258,0,0,1-.527,1.771,3.48,3.48,0,0,1-1.419,1.248,4.442,4.442,0,0,1-1.991.444,4.129,4.129,0,0,1-3.217-1.3,5.13,5.13,0,0,1-1.178-3.582v-.167a5.071,5.071,0,0,1,1.169-3.507,4.08,4.08,0,0,1,3.208-1.31,4,4,0,0,1,2.861,1.015,3.594,3.594,0,0,1,1.094,2.7h-2.382a1.745,1.745,0,0,0-.457-1.206,1.7,1.7,0,0,0-2.5.183,3.749,3.749,0,0,0-.453,2.1v.264a3.8,3.8,0,0,0,.448,2.113A1.549,1.549,0,0,0,175.267,17.128Zm8.473-9.976V9.49h1.626v1.863h-1.626V16.1a1.133,1.133,0,0,0,.2.756,1.015,1.015,0,0,0,.773.229,4.051,4.051,0,0,0,.747-.062v1.925a5.229,5.229,0,0,1-1.538.229,2.425,2.425,0,0,1-2.725-2.7V11.354h-1.389V9.49H181.2V7.152Zm2.382,7a5.64,5.64,0,0,1,.545-2.522,3.989,3.989,0,0,1,1.569-1.714,4.577,4.577,0,0,1,2.377-.606,4.33,4.33,0,0,1,3.142,1.178,4.727,4.727,0,0,1,1.358,3.2l.018.65a4.97,4.97,0,0,1-1.222,3.511,4.735,4.735,0,0,1-6.561,0,5.058,5.058,0,0,1-1.226-3.586Zm2.54.18a3.555,3.555,0,0,0,.51,2.073,1.831,1.831,0,0,0,2.9.009,3.89,3.89,0,0,0,.519-2.267,3.519,3.519,0,0,0-.519-2.06,1.686,1.686,0,0,0-1.459-.731,1.658,1.658,0,0,0-1.441.726A3.955,3.955,0,0,0,188.661,14.338Zm12.12-.18a5.64,5.64,0,0,1,.545-2.522A3.989,3.989,0,0,1,202.9,9.921a4.577,4.577,0,0,1,2.377-.606,4.33,4.33,0,0,1,3.142,1.178,4.727,4.727,0,0,1,1.358,3.2l.018.65a4.97,4.97,0,0,1-1.222,3.511,4.735,4.735,0,0,1-6.561,0,5.058,5.058,0,0,1-1.226-3.586Zm2.54.18a3.555,3.555,0,0,0,.51,2.073,1.831,1.831,0,0,0,2.9.009,3.89,3.89,0,0,0,.519-2.267,3.519,3.519,0,0,0-.519-2.06,1.686,1.686,0,0,0-1.459-.731,1.658,1.658,0,0,0-1.441.726A3.955,3.955,0,0,0,203.321,14.338ZM93.669,40.372a.818.818,0,0,0-.461-.734,5.241,5.241,0,0,0-1.481-.479q-3.393-.712-3.393-2.883a2.613,2.613,0,0,1,1.05-2.114,4.237,4.237,0,0,1,2.747-.848,4.56,4.56,0,0,1,2.9.853,2.687,2.687,0,0,1,1.085,2.215h-2.54a1.229,1.229,0,0,0-.352-.9,1.488,1.488,0,0,0-1.1-.356,1.52,1.52,0,0,0-.993.29.916.916,0,0,0-.352.738.783.783,0,0,0,.4.681,4.114,4.114,0,0,0,1.349.448,11.019,11.019,0,0,1,1.6.426,2.628,2.628,0,0,1,2.013,2.558,2.481,2.481,0,0,1-1.116,2.1,4.815,4.815,0,0,1-2.883.8,5.029,5.029,0,0,1-2.123-.426,3.561,3.561,0,0,1-1.455-1.169,2.716,2.716,0,0,1-.527-1.6h2.408a1.326,1.326,0,0,0,.5,1.037,1.987,1.987,0,0,0,1.248.36,1.839,1.839,0,0,0,1.1-.277A.861.861,0,0,0,93.669,40.372Zm8.481,2.8a4.668,4.668,0,0,1-3.406-1.283,4.561,4.561,0,0,1-1.314-3.419v-.246a5.745,5.745,0,0,1,.554-2.562,4.064,4.064,0,0,1,1.569-1.74,4.4,4.4,0,0,1,2.316-.611,3.947,3.947,0,0,1,3.072,1.23,5,5,0,0,1,1.121,3.489v1.037h-6.056a2.36,2.36,0,0,0,.743,1.494,2.245,2.245,0,0,0,1.569.563,2.742,2.742,0,0,0,2.294-1.063l1.248,1.4a3.813,3.813,0,0,1-1.547,1.261A5.075,5.075,0,0,1,102.15,43.176Zm-.29-7.813a1.587,1.587,0,0,0-1.226.512,2.651,2.651,0,0,0-.6,1.466h3.533v-.2a1.891,1.891,0,0,0-.457-1.311A1.638,1.638,0,0,0,101.86,35.362Zm10.986.51a6.9,6.9,0,0,0-.914-.07,1.86,1.86,0,0,0-1.89.976V43H107.5V33.49h2.4l.07,1.134a2.354,2.354,0,0,1,2.118-1.31,2.662,2.662,0,0,1,.791.114Zm4.939,4.025,1.767-6.407h2.654L119,43h-2.426l-3.208-9.51h2.654ZM126,43h-2.549V33.49H126Zm-2.7-11.971a1.251,1.251,0,0,1,.382-.94,1.648,1.648,0,0,1,2.079,0,1.342,1.342,0,0,1,0,1.89,1.629,1.629,0,0,1-2.065,0A1.247,1.247,0,0,1,123.306,31.029Zm8.745,10.1a1.666,1.666,0,0,0,1.143-.387,1.355,1.355,0,0,0,.457-1.028h2.382a3.258,3.258,0,0,1-.527,1.771,3.48,3.48,0,0,1-1.419,1.248,4.442,4.442,0,0,1-1.991.444,4.129,4.129,0,0,1-3.217-1.3A5.13,5.13,0,0,1,127.7,38.3v-.167a5.071,5.071,0,0,1,1.169-3.507,4.08,4.08,0,0,1,3.208-1.31,4,4,0,0,1,2.861,1.015,3.594,3.594,0,0,1,1.094,2.7H133.65a1.745,1.745,0,0,0-.457-1.206,1.7,1.7,0,0,0-2.5.183,3.749,3.749,0,0,0-.453,2.1v.264a3.8,3.8,0,0,0,.448,2.113A1.549,1.549,0,0,0,132.051,41.128ZM140.163,43h-2.549V33.49h2.549Zm-2.7-11.971a1.251,1.251,0,0,1,.382-.94,1.648,1.648,0,0,1,2.079,0,1.342,1.342,0,0,1,0,1.89,1.629,1.629,0,0,1-2.065,0A1.247,1.247,0,0,1,137.465,31.029Zm4.395,7.128a5.64,5.64,0,0,1,.545-2.522,3.989,3.989,0,0,1,1.569-1.714,4.577,4.577,0,0,1,2.377-.606,4.33,4.33,0,0,1,3.142,1.178,4.727,4.727,0,0,1,1.358,3.2l.018.65a4.97,4.97,0,0,1-1.222,3.511,4.735,4.735,0,0,1-6.561,0,5.058,5.058,0,0,1-1.226-3.586Zm2.54.18a3.555,3.555,0,0,0,.51,2.073,1.831,1.831,0,0,0,2.9.009,3.89,3.89,0,0,0,.519-2.267,3.519,3.519,0,0,0-.519-2.06,1.686,1.686,0,0,0-1.459-.731,1.658,1.658,0,0,0-1.441.726A3.955,3.955,0,0,0,144.4,38.338Z" transform="translate(313 3096)" fill="#12263f"/>
    <path id="Trazado_213219" data-name="Trazado 213219" d="M15.585,21H12.763V10.121L9.394,11.166V8.871l5.889-2.109h.3Z" transform="translate(420 2841)" fill="#12263f"/>
    <g id="Grupo_94533" data-name="Grupo 94533" transform="translate(227.659 2737.253)">
      <g id="_7" data-name="7" transform="translate(78.341 174.623)">
        <path id="Trazado_211388" data-name="Trazado 211388" d="M152.648,263.725c-25.168-4.1-21.15,16.081-54.847,30.943-54.371,36.764,17.724,98.721,63.337,52.824C183.876,325.848,185.681,269.107,152.648,263.725Z" transform="translate(-78.341 -253.968)" fill="#ebf5ff"/>
        <path id="Trazado_211389" data-name="Trazado 211389" d="M128.656,1154.3c5.851,7.393-2.208,13.961-8.269,6.741C114.536,1153.646,122.595,1147.078,128.656,1154.3Z" transform="translate(-114.192 -1049.523)" fill="#e3e8ff"/>
        <path id="Trazado_211390" data-name="Trazado 211390" d="M272.58,1213.6c1.549,4.789-3.706,6.573-5.393,1.832C265.638,1210.64,270.893,1208.856,272.58,1213.6Z" transform="translate(-247.277 -1102.957)" fill="#e3e8ff"/>
        <path id="Trazado_211391" data-name="Trazado 211391" d="M621.6,178.1c.438,5.014-5.083,5.577-5.666.578C615.495,173.665,621.016,173.1,621.6,178.1Z" transform="translate(-559.953 -174.623)" fill="#e3e8ff"/>
        <path id="Trazado_211392" data-name="Trazado 211392" d="M477.881,189.268c-4.07,8.5,5.242,13.127,9.556,4.744C491.506,185.508,482.194,180.886,477.881,189.268Z" transform="translate(-435.392 -183.779)" fill="#e3e8ff"/>
      </g>
      <g id="_6" data-name="6" transform="translate(234.445 176.514)">
        <path id="Trazado_211393" data-name="Trazado 211393" d="M1581.043,313.764c-10.557-14.479,10.472-20.315,7.105-50.656-4.03-36.32,39.387-41.477,57.971-29.5C1707.377,276.544,1628.943,379.459,1581.043,313.764Z" transform="translate(-1578.05 -224.182)" fill="#ebf5ff"/>
        <path id="Trazado_211394" data-name="Trazado 211394" d="M2313.867,1093.823c-4.07,8.5,5.242,13.127,9.556,4.744C2327.493,1090.064,2318.181,1085.441,2313.867,1093.823Z" transform="translate(-2236.375 -996.071)" fill="#e3e8ff"/>
        <path id="Trazado_211395" data-name="Trazado 211395" d="M2233.219,1180.043c-.451,5.013,5.069,5.59,5.665.593C2239.336,1175.623,2233.816,1175.046,2233.219,1180.043Z" transform="translate(-2165 -1074.172)" fill="#e3e8ff"/>
        <path id="Trazado_211396" data-name="Trazado 211396" d="M2357.078,320.708c-.451,5.013,5.069,5.59,5.665.593C2363.194,316.288,2357.674,315.711,2357.078,320.708Z" transform="translate(-2275.966 -304.284)" fill="#e3e8ff"/>
        <path id="Trazado_211397" data-name="Trazado 211397" d="M2263.176,201.007c4.654,6.546,11.946,1.518,7.484-5.159C2266.006,189.3,2258.714,194.33,2263.176,201.007Z" transform="translate(-2190.615 -192.792)" fill="#e3e8ff"/>
      </g>
      <g id="_5" data-name="5" transform="translate(188.677 182.484)">
        <g id="Grupo_94476" data-name="Grupo 94476" transform="translate(0 0)">
          <path id="Trazado_211398" data-name="Trazado 211398" d="M1224.05,541.5a2.58,2.58,0,0,1-5.1.767A2.58,2.58,0,0,1,1224.05,541.5Z" transform="translate(-1210.531 -509.236)" fill="#eb5648"/>
          <path id="Trazado_211399" data-name="Trazado 211399" d="M1138.786,261.678a8.81,8.81,0,0,1,9.2-11.5c8.365.787,10.039,11.585,5.246,17.23-2.3,2.432-4.378,6.623-4.208,9.611.038,1.771-1.415,1.653-1.97.083-1.976-7.283,2.043-9.291,3.676-15.064,1.2-9.312-9.036-7.7-10.653-.41A.673.673,0,0,1,1138.786,261.678Z" transform="translate(-1138.346 -250.148)" fill="#eb5648"/>
        </g>
        <g id="Grupo_94477" data-name="Grupo 94477" transform="translate(20.912 15.618)">
          <path id="Trazado_211400" data-name="Trazado 211400" d="M1352.424,624.56a2.011,2.011,0,0,1-3.976-.606A2.011,2.011,0,0,1,1352.424,624.56Z" transform="translate(-1347.47 -599.156)" fill="#eb5648"/>
          <path id="Trazado_211401" data-name="Trazado 211401" d="M1339.246,407.14a6.866,6.866,0,0,1,9.5-6.442c6.045,2.515,4.8,10.939-.069,14.037-2.272,1.281-4.787,3.921-5.35,6.185-.38,1.327-1.434.9-1.486-.392.209-5.878,3.664-6.445,6.211-10.367,3.04-6.656-4.951-7.818-7.836-2.762A.524.524,0,0,1,1339.246,407.14Z" transform="translate(-1339.246 -400.187)" fill="#eb5648"/>
        </g>
      </g>
      <g id="_2" data-name="2" transform="translate(162.878 242.351)">
        <path id="Trazado_211402" data-name="Trazado 211402" d="M1421.971,1147.2c-5.277-11.056-10.942-24.07-23.959-28.135-1.138-.355-2.585.6-.7,1.469a20.287,20.287,0,0,1,3.584,1.958c-1.111.2-2.015.954-1.368,1.769-1.179.392-1.9,1.244-1.116,2.177-1.417.555,1.958,4.948,3.021,3.009-.067.123,1.974,3.64,4.491,4.516,3.187,1.109,3.139,16.143,3.139,16.143s-3.714-7.034-7.086-12.483c-12.087-11.184-17.023,3.456-11.647,9.409,6.684,7.4,17.77,26.728,27.468,28.968C1436.03,1178.34,1427.54,1156.586,1421.971,1147.2Z" transform="translate(-1336.368 -1088.417)" fill="#f99370"/>
        <path id="Trazado_211403" data-name="Trazado 211403" d="M1408.078,1304.591c-4.156.156-16.657-3.123-21.1-18.4-.6-2.062-2.723-1.442-4.074-3.17-2.2-2.814-4.974-5.28-7.04-7.679-2.736-3.029-2.294-11.168.459-15.609,3.7-8.067,19.314,3.284,19.314,3.284a50.99,50.99,0,0,1,.752,10.589s6.423,4.5,12.906-2.906C1417.167,1277.661,1425.352,1303.943,1408.078,1304.591Z" transform="translate(-1323.69 -1211.919)" fill="#824dd6"/>
        <path id="Trazado_211404" data-name="Trazado 211404" d="M1566.285,1238.285a8.948,8.948,0,0,0,6.537-3.569,3.593,3.593,0,0,1,1.555,2.356s-1.523,3.135-6.984,3.836A3.1,3.1,0,0,1,1566.285,1238.285Z" transform="translate(-1495.924 -1192.1)" fill="#4867aa"/>
        <path id="Trazado_211405" data-name="Trazado 211405" d="M1603.854,1250.355a.71.71,0,0,1,.089-1.065l1.895-1.507a.884.884,0,0,1,1.168.065.71.71,0,0,1-.089,1.065l-1.895,1.507A.883.883,0,0,1,1603.854,1250.355Z" transform="translate(-1529.422 -1203.637)" fill="#395b96"/>
        <path id="Trazado_211406" data-name="Trazado 211406" d="M1513.775,1151.7a4.83,4.83,0,0,0-2.8-.877c-.847-.537,1.73-.442,2.9.595A.16.16,0,0,1,1513.775,1151.7Z" transform="translate(-1446.236 -1116.649)" fill="#e57d61"/>
        <path id="Trazado_211407" data-name="Trazado 211407" d="M1501.111,1166.815c-1.945-1.387-2.94-.387-3.247-.641-.126-.365,1.5-.976,3.342.354A.16.16,0,0,1,1501.111,1166.815Z" transform="translate(-1434.638 -1130.278)" fill="#e57d61"/>
        <path id="Trazado_211408" data-name="Trazado 211408" d="M1490.338,1185.787c-1.882-.811-2.85-.161-2.814-.128-.146.144-.371-.091-.219-.231.037-.035.939-.857,3.095.053A.16.16,0,0,1,1490.338,1185.787Z" transform="translate(-1425.138 -1147.608)" fill="#e57d61"/>
        <path id="Trazado_211409" data-name="Trazado 211409" d="M1471,1412.29c-5.649-2.548-10.312-11.44-10.412-13.522-.1-2.145-3.42-3.19-4.771-4.918l-.412-3.433,4.066-9.874C1474.716,1394.1,1455.288,1396.416,1471,1412.29Z" transform="translate(-1396.601 -1322.748)" fill="#7640cc"/>
        <path id="Trazado_211410" data-name="Trazado 211410" d="M1057.034,855.241s-31.175,14.393-29.683,54.257c0,0,17.134,4.18,30.354-.45C1055.294,903.6,1050.308,874.093,1057.034,855.241Z" transform="translate(-1013.06 -852.124)" fill="#163260"/>
        <path id="Trazado_211411" data-name="Trazado 211411" d="M1165.234,1078.658s-5.324,13.646-2.988,28.26l29.87.073s-1.729-23.642-2.876-31.48Z" transform="translate(-1133.43 -1049.466)" fill="#0a2744"/>
        <path id="Trazado_211412" data-name="Trazado 211412" d="M1057.339,1197.939s-1.577,3.878-7.212,5.241c-9.171,2.218-16.562,9.909-16.562,9.909.938,1.12,21.316-3.453,22.848-2.478,4.51,2.87,6.265,4.385,7.939,4.465s8.531-8.64,8.371-11.894c0,0-5.393-.722-5.089-4.739Z" transform="translate(-1018.673 -1159.151)" fill="#f99370"/>
        <path id="Trazado_211413" data-name="Trazado 211413" d="M1084.4,1290.145a18.637,18.637,0,0,0-.614-7.925c-2.1-8.69,3.154-15.153,3.553-25.349,0,0,15.58,10.618,19.284,10.307,2.232-1.831,7.382-10.11,11.783-11.083,4.333.433,4.754,12.364,7.535,17.227,2.8,4.943,1.306,10.5-1.012,13.952-1.092,2.406.475,4.628,1.392,7.541a30.79,30.79,0,0,1,2.162,9.583h-47.736S1083.667,1296.038,1084.4,1290.145Z" transform="translate(-1060.948 -1211.253)" fill="#824dd6"/>
        <path id="Trazado_211414" data-name="Trazado 211414" d="M1272.634,1122.876a25.5,25.5,0,0,1-.373,2.835,16.971,16.971,0,0,1-10.295-.5c.4-2.237.855-4.195.969-4.649A4.986,4.986,0,0,1,1272.634,1122.876Z" transform="translate(-1223.301 -1086.42)" fill="#e57d61"/>
        <path id="Trazado_211415" data-name="Trazado 211415" d="M1108.981,1427.909c-.886,3.623-.264,9.072-.264,9.072l-2.609-1.311a18.634,18.634,0,0,0-.614-7.924,12.438,12.438,0,0,1-.516-3.773l8.006-5.445S1109.711,1424.926,1108.981,1427.909Z" transform="translate(-1082.653 -1356.779)" fill="#7640cc"/>
        <path id="Trazado_211416" data-name="Trazado 211416" d="M962.13,1312.5c-3.823-.053-4.674,1.86-8.31.623-12.806-5.076-25.984-1.763-26.221-13.8.372-12.871,17.771-11.789,14.2-22.961-1.76-4.316-10.11-3.762-14.2.513-4.816,4.69-14.663,18.811-14.664,18.813-13.386,34.274,40.31,21.708,57.482,23.982C970.419,1319.676,971.35,1312.633,962.13,1312.5Z" transform="translate(-908.701 -1226.749)" fill="#f99370"/>
        <path id="Trazado_211417" data-name="Trazado 211417" d="M922.3,1279.184c-1.641,1.027-4.586,4.359-6.457,5.695-3.786,2.7-4.524,6.57-2.528,8.037.965.709,4.532,3.323,4.532,3.323,1.483.32,2.527.491,3.264,1.567a11.765,11.765,0,0,0-.769,10.29c-49.738,7.443-27.845-41.186-2.36-47.77,0,0,6.309,1.184,7.652,5.082C928.065,1270.921,930.916,1272.753,922.3,1279.184Z" transform="translate(-890.5 -1215.043)" fill="#824dd6"/>
        <g id="Grupo_94478" data-name="Grupo 94478" transform="translate(22.824)">
          <path id="Trazado_211418" data-name="Trazado 211418" d="M1312.961,848.589s14.385-6.189,11.072,16.459Z" transform="translate(-1291.811 -845.472)" fill="#163260"/>
          <path id="Trazado_211419" data-name="Trazado 211419" d="M1209.657,895.136c-1.109,8.416-10.827,12.71-18.438,10.1-15.628-4.949-10.855-37.623,7.242-31.554h0c5.512,2.439,5.49,8.217,8.138,13.311C1208.417,889.347,1210.153,892.058,1209.657,895.136Z" transform="translate(-1174.301 -867.975)" fill="#f99370"/>
          <path id="Trazado_211420" data-name="Trazado 211420" d="M1320.812,883.01c-4.161-7.665-5.814-7.624-9.59-8.876l.394-.747C1316.784,873.808,1319.464,878.241,1320.812,883.01Z" transform="translate(-1290.253 -868.382)" fill="#e57d61"/>
          <path id="Trazado_211421" data-name="Trazado 211421" d="M1204.477,1113.96c-.162-.043-.323-.088-.48-.136a.006.006,0,0,1-.008,0,11.77,11.77,0,0,1-7.938-8.069l2.093,1.237A11.426,11.426,0,0,0,1204.477,1113.96Z" transform="translate(-1187.071 -1076.559)" fill="#e57d61"/>
          <path id="Trazado_211422" data-name="Trazado 211422" d="M1196.82,956.06a32.718,32.718,0,0,1-10.85,13.485l-3.329-1.062a28.4,28.4,0,0,1-.608-4.633l7.552-6.827Z" transform="translate(-1174.511 -942.449)" fill="#e57d61"/>
          <path id="Trazado_211423" data-name="Trazado 211423" d="M1133.935,831.006s1.926,14.322-15.178,23.492C1096.941,839.93,1119.971,813.693,1133.935,831.006Z" transform="translate(-1109.774 -825.299)" fill="#163260"/>
          <path id="Trazado_211424" data-name="Trazado 211424" d="M1170.313,1054.421c2.785,4.51-2.54,7.912-5.462,3.49C1162.066,1053.4,1167.391,1050,1170.313,1054.421Z" transform="translate(-1158.417 -1028.724)" fill="#f99370"/>
          <path id="Trazado_211425" data-name="Trazado 211425" d="M1175.87,1069.864c-2.2-2.672-.941-4.587,1.508-4.33a.181.181,0,0,1-.036.36c-2.094-.185-3.062,1.122-1.32,3.692A.182.182,0,0,1,1175.87,1069.864Z" transform="translate(-1167.974 -1040.507)" fill="#c16256"/>
          <path id="Trazado_211426" data-name="Trazado 211426" d="M1178.848,1078.8c-.229.031-1.292-2.1-3.478-1.85a.181.181,0,0,1-.044-.359C1177.483,1076.294,1179.545,1078.691,1178.848,1078.8Z" transform="translate(-1168.36 -1050.411)" fill="#c16256"/>
        </g>
        <path id="Trazado_211427" data-name="Trazado 211427" d="M1330.565,1013.618a.665.665,0,0,1-1.256.433A.665.665,0,0,1,1330.565,1013.618Z" transform="translate(-1283.595 -993.624)" fill="#c16256"/>
        <path id="Trazado_211428" data-name="Trazado 211428" d="M1390.769,990.988a.665.665,0,0,1-1.257.432A.665.665,0,0,1,1390.769,990.988Z" transform="translate(-1337.532 -973.35)" fill="#c16256"/>
        <path id="Trazado_211429" data-name="Trazado 211429" d="M1375.707,1015.917a.227.227,0,0,1-.11-.422c.4-.257,2.143-1.867.789-2.056-1.823-.194-3.831-3.278-2.564-2.639.01.019,1.05,1.932,2.638,2.194C1378.545,1013.352,1376.372,1015.714,1375.707,1015.917Z" transform="translate(-1323.156 -991.414)" fill="#c16256"/>
        <path id="Trazado_211430" data-name="Trazado 211430" d="M1396.881,1071.047c-.77.151.752-2.708,1.453-2.073a.225.225,0,0,1-.1.3C1397.083,1069.883,1397.344,1070.934,1396.881,1071.047Z" transform="translate(-1343.982 -1043.527)" fill="#c16256"/>
        <path id="Trazado_211431" data-name="Trazado 211431" d="M1256.419,1245.014a.37.37,0,0,1-.006.045c0-.027.005-.054.008-.082A.273.273,0,0,0,1256.419,1245.014Z" transform="translate(-1218.325 -1201.294)" fill="#2fac66"/>
        <path id="Trazado_211432" data-name="Trazado 211432" d="M1197.36,1123.852c-3.589-.264-.37-9.283-.538-9.174C1197.6,1116.556,1200.449,1123.553,1197.36,1123.852Z" transform="translate(-1163.891 -1084.555)" fill="#f7a92b"/>
        <path id="Trazado_211433" data-name="Trazado 211433" d="M1203.11,1110.526a.493.493,0,0,1-.984.058A.493.493,0,0,1,1203.11,1110.526Z" transform="translate(-1169.688 -1080.433)" fill="#f7a92b"/>
        <path id="Trazado_211434" data-name="Trazado 211434" d="M1200.68,1127.759a1.285,1.285,0,0,1-1.319-.788s3.117-.265.973-7.934C1201.086,1120.863,1203.649,1127.582,1200.68,1127.759Z" transform="translate(-1167.212 -1088.463)" fill="#f49b19"/>
        <path id="Trazado_211435" data-name="Trazado 211435" d="M1184.536,1249.1c-2.435,5.9-6.975,10.065-11.195,13.325-7.528-1.75-18.86-12.226-18.781-12.886a9.591,9.591,0,0,1,3.967-1.252s6.295,7.121,14.148,10.63c0,0,7.231-6.122,8.434-10.63A27.282,27.282,0,0,1,1184.536,1249.1Z" transform="translate(-1127.074 -1204.262)" fill="#7640cc"/>
        <path id="Trazado_211436" data-name="Trazado 211436" d="M1598.227,1393.764c-7.292,8.391-16.818,3.655-16.818,3.655a15.437,15.437,0,0,1,.781-4.5s6.423,4.5,12.906-2.906A9.08,9.08,0,0,1,1598.227,1393.764Z" transform="translate(-1509.493 -1331.234)" fill="#7640cc"/>
        <path id="Trazado_211437" data-name="Trazado 211437" d="M1580.569,1435.536c-1.509-3.691-3.123-14.382-.73-16.912.483.3-.759,1.946-.67,4.425a47.669,47.669,0,0,0,1.65,12.163A.259.259,0,0,1,1580.569,1435.536Z" transform="translate(-1506.995 -1356.865)" fill="#7640cc"/>
        <path id="Trazado_211438" data-name="Trazado 211438" d="M1330.568,1409.5a1.407,1.407,0,0,1-2.814,0A1.407,1.407,0,0,1,1330.568,1409.5Z" transform="translate(-1282.24 -1347.455)" fill="#7640cc"/>
        <path id="Trazado_211439" data-name="Trazado 211439" d="M1334.673,1458.522a1.407,1.407,0,0,1-2.814,0A1.407,1.407,0,0,1,1334.673,1458.522Z" transform="translate(-1285.918 -1391.374)" fill="#7640cc"/>
        <path id="Trazado_211440" data-name="Trazado 211440" d="M1334.673,1510.3a1.407,1.407,0,0,1-2.814,0A1.407,1.407,0,0,1,1334.673,1510.3Z" transform="translate(-1285.918 -1437.76)" fill="#7640cc"/>
        <path id="Trazado_211441" data-name="Trazado 211441" d="M1312.4,1411.658c-.468-7.586-1.044-17.236-1.312-17C1311.634,1392.487,1313.294,1404.339,1312.4,1411.658Z" transform="translate(-1267.308 -1335.16)" fill="#7640cc"/>
        <path id="Trazado_211442" data-name="Trazado 211442" d="M1361.345,1407.588a.258.258,0,0,1-.258-.276,91.372,91.372,0,0,0-.74-17.248C1361.069,1388.13,1362.455,1399.995,1361.345,1407.588Z" transform="translate(-1311.441 -1331.09)" fill="#7640cc"/>
        <path id="Trazado_211443" data-name="Trazado 211443" d="M1422.35,1667.871c-.319-2.248-1.925-5.49-5.419-5.415a.155.155,0,0,1,.019-.308C1420.776,1662.206,1422.889,1665.832,1422.35,1667.871Z" transform="translate(-1362.01 -1575.04)" fill="#e57d61"/>
        <path id="Trazado_211444" data-name="Trazado 211444" d="M1415.423,1680.989c-.414-.183-.072-3.854-4.575-3.891a.154.154,0,0,1,0-.309C1415.374,1676.844,1415.825,1680.906,1415.423,1680.989Z" transform="translate(-1356.551 -1588.158)" fill="#e57d61"/>
        <path id="Trazado_211445" data-name="Trazado 211445" d="M1406.852,1696.223a.154.154,0,0,1-.154-.149c-.055-1.313-1.816-2.149-3.544-1.961a.154.154,0,0,1-.016-.308,4.206,4.206,0,0,1,3.148.837C1406.99,1695.353,1407.173,1696.182,1406.852,1696.223Z" transform="translate(-1349.65 -1603.392)" fill="#e57d61"/>
        <path id="Trazado_211446" data-name="Trazado 211446" d="M1131.293,1615.421s.718-.2-.684-.014a25.58,25.58,0,0,1-3.588-.111c-3.134-7.364,1.64-11.94,1.64-11.94a4.932,4.932,0,0,1,3.4,1.774A11.765,11.765,0,0,0,1131.293,1615.421Z" transform="translate(-1101.446 -1522.369)" fill="#7640cc"/>
        <path id="Trazado_211447" data-name="Trazado 211447" d="M1120.994,1578.574a23.824,23.824,0,0,1-3.9-3.114.26.26,0,1,1,.349-.387C1119.716,1577.313,1122,1578.248,1120.994,1578.574Z" transform="translate(-1093.432 -1496.97)" fill="#7640cc"/>
      </g>
      <path id="_1" data-name="1" d="M489.142,1720.453H271.981c-2.36,0-2.326-2.392-.021-2.392H489.142A1.2,1.2,0,1,1,489.142,1720.453Z" transform="translate(-171.908 -1382.782)" fill="#7eafe0"/>
      <g id="Grupo_94492" data-name="Grupo 94492" transform="translate(89.738 215.291)">
        <g id="Grupo_94486" data-name="Grupo 94486" transform="translate(0 0)">
          <g id="Grupo_94479" data-name="Grupo 94479" transform="translate(0.566)">
            <path id="Trazado_211448" data-name="Trazado 211448" d="M202.512,565.331l-9.241,12.017h50.482l9.8-11.524Z" transform="translate(-193.271 -565.331)" fill="#ff735d"/>
          </g>
          <g id="Grupo_94481" data-name="Grupo 94481" transform="translate(8.79)">
            <g id="Grupo_94480" data-name="Grupo 94480">
              <path id="Trazado_211449" data-name="Trazado 211449" d="M334.89,612.083H272.281l.819-46.753,61.79.6Z" transform="translate(-272.281 -565.331)" fill="#ff735d"/>
            </g>
          </g>
          <g id="Grupo_94482" data-name="Grupo 94482" transform="translate(60.664 0.494)" opacity="0.3">
            <path id="Trazado_211450" data-name="Trazado 211450" d="M770.639,616.333l.189-46.259,10.547.1v46.157Z" transform="translate(-770.639 -570.074)"/>
          </g>
          <g id="Grupo_94483" data-name="Grupo 94483" transform="translate(60.852 0.342)">
            <path id="Trazado_211451" data-name="Trazado 211451" d="M772.45,568.767l7.586,11.524H794.9l-9.3-11.676Z" transform="translate(-772.45 -568.615)" fill="#ff735d"/>
          </g>
          <g id="Grupo_94485" data-name="Grupo 94485" transform="translate(0 0.344)">
            <g id="Grupo_94484" data-name="Grupo 94484">
              <path id="Trazado_211452" data-name="Trazado 211452" d="M271.143,580.308s-.089.007-.262.01l-.768.01-2.954.019-10.886.032h-.038l-.021-.032-7.6-11.513.144.009-9.923,11.529-.029.034h-3.567l-33.52-.029-10.158-.031-2.762-.018-.718-.01c-.162,0-.245-.01-.245-.01s.083-.007.245-.01l.718-.01,2.762-.018,10.158-.031,33.52-.029h3.521l-.074.034,9.934-11.519.078-.091.066.1,7.57,11.534-.06-.032,10.886.032,2.954.019.768.01C271.055,580.3,271.143,580.308,271.143,580.308Z" transform="translate(-187.836 -568.635)" fill="#1a2e35"/>
            </g>
          </g>
        </g>
        <g id="Grupo_94488" data-name="Grupo 94488" transform="translate(46.067 18.792)" opacity="0.2">
          <g id="Grupo_94487" data-name="Grupo 94487">
            <path id="Trazado_211453" data-name="Trazado 211453" d="M630.77,767.187a2.794,2.794,0,0,1-.22-2.264,2.717,2.717,0,0,1,1.456-1.7,3.443,3.443,0,0,1,4.268,1.35,2.718,2.718,0,0,1,.214,2.228,2.8,2.8,0,0,1-1.481,1.725,3.3,3.3,0,0,1-4.237-1.34Zm5.909-21.316,5.752,1.819L637,761.52l-3.835-1.213Z" transform="translate(-630.406 -745.871)" fill="#fff"/>
          </g>
        </g>
        <g id="Grupo_94490" data-name="Grupo 94490" transform="translate(17.52 13.439)" opacity="0.2">
          <g id="Grupo_94489" data-name="Grupo 94489">
            <path id="Trazado_211454" data-name="Trazado 211454" d="M356.156,695.683l2.821-1.239,1.965,5.763-1.885.827Zm4.106,8.3a1.348,1.348,0,0,1-.808-.754,1.3,1.3,0,0,1-.006-1.1,1.6,1.6,0,0,1,.865-.811,1.577,1.577,0,0,1,1.176-.085,1.311,1.311,0,0,1,.8.751,1.348,1.348,0,0,1,.009,1.105,1.535,1.535,0,0,1-.844.825A1.552,1.552,0,0,1,360.262,703.981Z" transform="translate(-356.156 -694.444)" fill="#fff"/>
          </g>
        </g>
        <g id="Grupo_94491" data-name="Grupo 94491" transform="translate(9.368 0.494)" opacity="0.3">
          <path id="Trazado_211455" data-name="Trazado 211455" d="M277.833,583.338h41.7l9.787-13.263-9.8,11.524h-41.65Z" transform="translate(-277.833 -570.074)"/>
        </g>
      </g>
      <g id="Grupo_94532" data-name="Grupo 94532" transform="translate(239.907 183.385)">
        <g id="Grupo_94531" data-name="Grupo 94531" transform="translate(0 0)">
          <g id="Grupo_94507" data-name="Grupo 94507" transform="translate(0.438)">
            <g id="Grupo_94494" data-name="Grupo 94494" transform="translate(50.801 6.996)">
              <path id="Trazado_211456" data-name="Trazado 211456" d="M2138.58,333.921a7.9,7.9,0,1,1-7.9-7.9A7.894,7.894,0,0,1,2138.58,333.921Z" transform="translate(-2122.774 -326.018)" fill="#0097d8" stroke="#0097d8" stroke-miterlimit="10" stroke-width="1"/>
              <g id="Grupo_94493" data-name="Grupo 94493" transform="translate(3.002 2.418)">
                <circle id="Elipse_5334" data-name="Elipse 5334" cx="2.587" cy="2.587" r="2.587" transform="matrix(0.992, -0.123, 0.123, 0.992, 2.016, 0.634)" fill="#fff"/>
                <path id="Trazado_211457" data-name="Trazado 211457" d="M2161.417,402.775a7.907,7.907,0,0,1-9.8,0c.505-2.224.97-4.144,1.455-4.63a6.082,6.082,0,0,1,3.443-1.082,7.433,7.433,0,0,1,3.2.835C2160.428,398.613,2161.045,400.585,2161.417,402.775Z" transform="translate(-2151.616 -392.085)" fill="#fff"/>
              </g>
            </g>
            <g id="Grupo_94497" data-name="Grupo 94497" transform="translate(46.589 28.55)">
              <g id="Grupo_94495" data-name="Grupo 94495">
                <path id="Trazado_211458" data-name="Trazado 211458" d="M2089.583,538.92v-3.9a1.928,1.928,0,0,1,1.928-1.928h12.3a1.928,1.928,0,0,1,1.929,1.928v3.9a1.928,1.928,0,0,1-1.929,1.928h-12.293A1.929,1.929,0,0,1,2089.583,538.92Z" transform="translate(-2088.825 -533.089)" fill="#0097d8"/>
                <path id="Trazado_211459" data-name="Trazado 211459" d="M2088.256,587.145l-5.95,5.8,9.644-4.874" transform="translate(-2082.305 -581.518)" fill="#0097d8"/>
              </g>
              <g id="Grupo_94496" data-name="Grupo 94496" transform="translate(2.25 1.524)">
                <path id="Trazado_211460" data-name="Trazado 211460" d="M2103.919,548.041v-.021a.287.287,0,0,1,.287-.287h6.079a.287.287,0,0,1,.287.287v.021a.287.287,0,0,1-.287.287h-6.079A.287.287,0,0,1,2103.919,548.041Z" transform="translate(-2103.919 -547.733)" fill="#fff"/>
                <path id="Trazado_211461" data-name="Trazado 211461" d="M2170.457,548.041v-.021a.287.287,0,0,1,.287-.287h5.305a.287.287,0,0,1,.287.287v.021a.287.287,0,0,1-.287.287h-5.305A.287.287,0,0,1,2170.457,548.041Z" transform="translate(-2163.531 -547.733)" fill="#fff"/>
                <path id="Trazado_211462" data-name="Trazado 211462" d="M2148.2,560.59v-.021a.287.287,0,0,1,.287-.287h7.621a.287.287,0,0,1,.287.287v.021a.287.287,0,0,1-.287.287h-7.621A.287.287,0,0,1,2148.2,560.59Z" transform="translate(-2143.594 -558.976)" fill="#fff"/>
                <path id="Trazado_211463" data-name="Trazado 211463" d="M2103.919,560.59v-.021a.287.287,0,0,1,.287-.287h3.4a.287.287,0,0,1,.287.287v.021a.287.287,0,0,1-.287.287h-3.4A.287.287,0,0,1,2103.919,560.59Z" transform="translate(-2103.919 -558.976)" fill="#fff"/>
                <path id="Trazado_211464" data-name="Trazado 211464" d="M2158.371,573.139v-.021a.287.287,0,0,1,.287-.287h6.563a.287.287,0,0,1,.287.287v.021a.287.287,0,0,1-.287.287h-6.563A.287.287,0,0,1,2158.371,573.139Z" transform="translate(-2152.703 -570.219)" fill="#fff"/>
                <path id="Trazado_211465" data-name="Trazado 211465" d="M2103.919,573.139v-.021a.287.287,0,0,1,.287-.287h4.534a.287.287,0,0,1,.287.287v.021a.287.287,0,0,1-.287.287h-4.534A.287.287,0,0,1,2103.919,573.139Z" transform="translate(-2103.919 -570.219)" fill="#fff"/>
                <path id="Trazado_211466" data-name="Trazado 211466" d="M2103.919,585.688v-.021a.287.287,0,0,1,.287-.287h1.683a.287.287,0,0,1,.287.287v.021a.287.287,0,0,1-.287.287h-1.683A.287.287,0,0,1,2103.919,585.688Z" transform="translate(-2103.919 -581.461)" fill="#fff"/>
                <path id="Trazado_211467" data-name="Trazado 211467" d="M2131.31,585.688v-.021a.287.287,0,0,1,.287-.287h9.38a.287.287,0,0,1,.287.287v.021a.287.287,0,0,1-.287.287h-9.38A.287.287,0,0,1,2131.31,585.688Z" transform="translate(-2128.459 -581.461)" fill="#fff"/>
              </g>
            </g>
            <g id="Grupo_94502" data-name="Grupo 94502" transform="translate(0 15.548)">
              <g id="Grupo_94501" data-name="Grupo 94501" transform="translate(0 0)">
                <circle id="Elipse_5335" data-name="Elipse 5335" cx="7.603" cy="7.603" r="7.603" transform="translate(0 13.787) rotate(-65.047)" fill="#0097d8"/>
                <g id="Grupo_94500" data-name="Grupo 94500" transform="translate(5.96 4.014)">
                  <g id="Grupo_94498" data-name="Grupo 94498" transform="translate(0 7.47)">
                    <circle id="Elipse_5336" data-name="Elipse 5336" cx="1.842" cy="1.842" r="1.842" transform="matrix(0.943, -0.331, 0.331, 0.943, 0, 1.221)" fill="#fff"/>
                    <path id="Trazado_211468" data-name="Trazado 211468" d="M1704.492,531.673l-.089-1.168.968-.661,1.056.507.089,1.168-.968.661Z" transform="translate(-1703.11 -528.662)" fill="#0097d8"/>
                  </g>
                  <g id="Grupo_94499" data-name="Grupo 94499" transform="translate(3.577 0)">
                    <circle id="Elipse_5337" data-name="Elipse 5337" cx="1.842" cy="1.842" r="1.842" transform="translate(0 1.24) rotate(-19.671)" fill="#fff"/>
                    <path id="Trazado_211469" data-name="Trazado 211469" d="M1740.2,453.438l.063-1.486,1.12-.978,1.056.507-.063,1.486-1.12.979Z" transform="translate(-1738.756 -450.533)" fill="#0097d8"/>
                  </g>
                  <path id="Trazado_211470" data-name="Trazado 211470" d="M1714.68,482.587l-1.41-.677,1.042-2.4q.1-.229.216-.449l1.224-2.315,1.409.677-1,2.366q-.117.275-.258.537Z" transform="translate(-1711.054 -473.62)" fill="#fff"/>
                </g>
              </g>
              <path id="Trazado_211471" data-name="Trazado 211471" d="M1782.5,520.3c.271-.126,4.634.073,4.634.073l-3.144-2.887Z" transform="translate(-1767.122 -506.105)" fill="#0097d8"/>
            </g>
            <g id="Grupo_94506" data-name="Grupo 94506" transform="translate(17.951)">
              <g id="Grupo_94504" data-name="Grupo 94504" transform="translate(0)">
                <g id="Grupo_94503" data-name="Grupo 94503">
                  <circle id="Elipse_5338" data-name="Elipse 5338" cx="7.473" cy="7.473" r="7.473" transform="translate(0 13.717) rotate(-66.607)" fill="#0097d8"/>
                </g>
              </g>
              <g id="Grupo_94505" data-name="Grupo 94505" transform="translate(4.311 3.457)">
                <rect id="Rect치ngulo_39902" data-name="Rect치ngulo 39902" width="0.499" height="6.276" transform="translate(5.265)" fill="#fff"/>
                <rect id="Rect치ngulo_39903" data-name="Rect치ngulo 39903" width="0.499" height="6.361" transform="matrix(-0.569, -0.822, 0.822, -0.569, 0.284, 10.307)" fill="#fff"/>
                <path id="Trazado_211472" data-name="Trazado 211472" d="M1896.341,347.283a.688.688,0,1,1-.688-.688A.688.688,0,0,1,1896.341,347.283Z" transform="translate(-1890.139 -340.914)" fill="#fff"/>
              </g>
            </g>
          </g>
          <g id="Grupo_94530" data-name="Grupo 94530" transform="translate(0 20.739)">
            <g id="Grupo_94529" data-name="Grupo 94529" transform="translate(11.392)">
              <g id="Grupo_94508" data-name="Grupo 94508" transform="translate(22.694 25.786)">
                <path id="Trazado_211473" data-name="Trazado 211473" d="M1975.608,849.44s.5,4.607,1.065,4.977c1.006.664,12.645,2.2,12.645,2.2l-.381,3.028s-15.941,1.432-16.618.636c-1.176-1.382-3.241-8.048-3.241-8.048Z" transform="translate(-1967.922 -834.486)" fill="#e06a58"/>
                <path id="Trazado_211474" data-name="Trazado 211474" d="M1957.984,708.868l1.288-3.092s3.494,1.641,4.646,3.668c1.233,2.167,2.741,13.689,2.741,13.689s-6.168,1.421-7.3.817S1957.984,708.868,1957.984,708.868Z" transform="translate(-1957.984 -705.776)" fill="#f2ae30"/>
              </g>
              <path id="Trazado_211475" data-name="Trazado 211475" d="M1752.843,592.8a6.82,6.82,0,0,0-2.824-.546,2.614,2.614,0,0,0-2.282,1.435c-.234.6-.126,1.311-.5,1.853a2.216,2.216,0,0,1-1.712.778c-.659.046-1.323-.041-1.977.044a3.386,3.386,0,0,0-2.8,4.261c.264.716.806,1.4.682,2.146-.131.8-.969,1.325-1.313,2.066a2.454,2.454,0,0,0,.992,2.856,7.089,7.089,0,0,0,3.214,1.095,13.343,13.343,0,0,0,4.736.014,5.935,5.935,0,0,0,3.831-2.424,19.9,19.9,0,0,1,.985-1.733c.854-1.1,2.367-1.52,3.558-2.3,1.3-.852,2.256-2.509,1.49-3.806-.739-1.247-2.663-1.524-3.434-2.752a8.64,8.64,0,0,1-.6-1.664C1754.682,593.566,1754.177,593.286,1752.843,592.8Z" transform="translate(-1739.958 -578.271)" fill="#0a2240"/>
              <g id="Grupo_94509" data-name="Grupo 94509" transform="translate(11.159 16.14)">
                <path id="Trazado_211476" data-name="Trazado 211476" d="M1854.143,626.78a1.356,1.356,0,0,0,.868.574,1.3,1.3,0,0,0,.973-.519,9.88,9.88,0,0,0,2.514-4.821c-.324-.184-.636-.36-.918-.526a1.393,1.393,0,0,1-.572-.629,1.2,1.2,0,0,1-.085-.592,16.919,16.919,0,0,1,.952-4.44c-2.879-.65-5.594-1.421-7.155-2.725-.191.8-.416,2.376-.9,3.935-.512,1.651-1.311,3.283-2.665,3.985A28.559,28.559,0,0,1,1854.143,626.78Z" transform="translate(-1847.16 -613.103)" fill="#f9a07b"/>
                <path id="Trazado_211477" data-name="Trazado 211477" d="M1879.863,620.29a1.2,1.2,0,0,0,.085.592c-1.7,2.066-5.512-.633-7.183-3.822.479-1.559.7-3.131.9-3.935,1.559,1.3,4.277,2.077,7.156,2.725A16.91,16.91,0,0,0,1879.863,620.29Z" transform="translate(-1870.1 -613.123)" fill="#e06a58"/>
              </g>
              <g id="Grupo_94510" data-name="Grupo 94510" transform="translate(4.249 23.194)">
                <path id="Trazado_211478" data-name="Trazado 211478" d="M1802.194,705.966c-.376,2.493,2.314,5.177,2.38,6.508-5.714,0-17.683.349-23.778-.48-.278-1.538,2.732-5,2.732-8.414,0-.452-.019-.948-.055-1.481-.1-1.524-.321-3.338-.572-5.2-.679-4.989-1.584-10.324-.916-11.43,1.309-2.156,4.369-3.62,5.886-4.249.521-.216.861-.333.886-.347,1.9,3.246,5.776,6.015,7.238,5.891.406-.032,1.611-.452,2.408-4.463.31.177.62.34.927.5,1.513.787,2.932,1.437,3.34,2.45a38.058,38.058,0,0,1,1.9,11.774c-.236,2.41-1.205,4.252-1.885,6.671-.158.567-.3,1.168-.42,1.816C1802.24,705.659,1802.217,705.81,1802.194,705.966Z" transform="translate(-1780.778 -680.877)" fill="#ffc73c"/>
                <path id="Trazado_211479" data-name="Trazado 211479" d="M1804.574,828.639c-5.714,0-17.683.349-23.778-.48-.278-1.538,2.732-5,2.732-8.414,0-.452-.019-.948-.055-1.481-.1-1.524-.321-3.338-.572-5.2,1.081,1.141,2.658-3.68,3.356-2.268,3.776,7.622,6.754,9.626,11.928,9.626a19.87,19.87,0,0,0,4.5-.562c-.158.567-.3,1.169-.42,1.816q-.041.221-.076.455C1801.817,824.622,1804.508,827.306,1804.574,828.639Z" transform="translate(-1780.778 -797.042)" fill="#fb3"/>
                <path id="Trazado_211480" data-name="Trazado 211480" d="M1860.384,682.8c-.246,1.784-.973,4.187-3.09,4.821-2.861.856-7-4.488-8.37-6.4.521-.216.861-.333.886-.347,1.9,3.246,5.776,6.015,7.238,5.891.406-.032,1.612-.452,2.408-4.463C1859.766,682.479,1860.076,682.642,1860.384,682.8Z" transform="translate(-1841.831 -680.877)" fill="#fce172"/>
              </g>
              <g id="Grupo_94514" data-name="Grupo 94514" transform="translate(23.957 33.378)">
                <g id="Grupo_94513" data-name="Grupo 94513">
                  <g id="Grupo_94511" data-name="Grupo 94511" transform="translate(0 18.675)">
                    <path id="Trazado_211481" data-name="Trazado 211481" d="M1970.134,958.18l-.021,1.99,35.583.211.073-2.257Z" transform="translate(-1970.114 -958.125)" fill="#325f73"/>
                  </g>
                  <g id="Grupo_94512" data-name="Grupo 94512" transform="translate(11.292)">
                    <path id="Trazado_211482" data-name="Trazado 211482" d="M2118.313,779.684l-.792-.8-25.917-.17-13,18.8.679.546Z" transform="translate(-2078.6 -778.711)" fill="#325f73"/>
                    <path id="Trazado_211483" data-name="Trazado 211483" d="M2097.952,785.393l-12.824,18.654,24.495.122,14.538-18.5Z" transform="translate(-2084.449 -784.698)" fill="#0b2d50"/>
                  </g>
                </g>
                <ellipse id="Elipse_5339" data-name="Elipse 5339" cx="2.851" cy="1.426" rx="2.851" ry="1.426" transform="translate(28.133 9.752)" fill="#3c738c"/>
              </g>
              <g id="Grupo_94523" data-name="Grupo 94523" transform="translate(9.985)">
                <g id="Grupo_94515" data-name="Grupo 94515" transform="translate(13.787 11.733)">
                  <ellipse id="Elipse_5340" data-name="Elipse 5340" cx="3.992" cy="2.633" rx="3.992" ry="2.633" transform="translate(0 7.849) rotate(-79.444)" fill="#56c4f9"/>
                </g>
                <path id="Trazado_211484" data-name="Trazado 211484" d="M1975.288,484.6a19.692,19.692,0,0,1-2.337,6.265c-.432-1.883-.707-4.176-1.088-6.469a26.757,26.757,0,0,0-1.738-6.474,11.2,11.2,0,0,0-.629-1.18,4.191,4.191,0,0,1,1.511.135,5.062,5.062,0,0,1,2.066,1.127,7.246,7.246,0,0,1,2.013,3.29A7.381,7.381,0,0,1,1975.288,484.6Z" transform="translate(-1955.589 -474.776)" fill="#0b2d50"/>
                <g id="Grupo_94516" data-name="Grupo 94516" transform="translate(2.043 1.011)">
                  <path id="Trazado_211485" data-name="Trazado 211485" d="M1871.732,478.518c-.014.372-.039.751-.073,1.127-.524,6.106-3.088,10.3-7.011,10.3-5.539,0-9.13-6.212-9.13-12.3,0-6,3.678-10.349,7.982-9.846a9.467,9.467,0,0,1,5.583,2.316,7.61,7.61,0,0,1,1.887,2.879,12.584,12.584,0,0,1,.76,4.146s0,.009,0,.014C1871.753,477.6,1871.748,478.052,1871.732,478.518Z" transform="translate(-1855.518 -467.758)" fill="#f9a07b"/>
                  <path id="Trazado_211486" data-name="Trazado 211486" d="M1893.566,516.736a6.14,6.14,0,0,0-.746-1.683,17.432,17.432,0,0,1-10.852,1.742c-.7.585-1.389,1.162-2.08,1.738.014-2.778.053-4.658,1.136-6a6.433,6.433,0,0,1,4.32-1.944,19.985,19.985,0,0,1,5.452.034,5.517,5.517,0,0,1,2.009.595,12.587,12.587,0,0,1,.76,4.146s0,.009,0,.014C1893.586,515.816,1893.581,516.27,1893.566,516.736Z" transform="translate(-1877.351 -505.976)" fill="#e06a58"/>
                </g>
                <path id="Trazado_211487" data-name="Trazado 211487" d="M1858.4,466.079a10.233,10.233,0,0,1-2.782,1.607,25.553,25.553,0,0,1-10.083,1.485c-1.515,3.329-2.128,4.523-2.516,7.427a11.84,11.84,0,0,1-3.044-5.932,13.566,13.566,0,0,1,.236-6.042,9.037,9.037,0,0,1,4.61-5.544,8.683,8.683,0,0,1,.992-.459,9.5,9.5,0,0,1,6.159-.074,7.339,7.339,0,0,1,2.787,1.621,13.772,13.772,0,0,1,3.154,4.757C1858.108,465.363,1858.266,465.76,1858.4,466.079Z" transform="translate(-1839.341 -458.068)" fill="#0b2d50"/>
                <path id="Trazado_211488" data-name="Trazado 211488" d="M1902.773,467.868a9.339,9.339,0,0,0-.581-1.94,6.713,6.713,0,0,0-.546-1.026,5.627,5.627,0,0,0-2.932-2.39,10.791,10.791,0,0,0-1.1-1.32,8.5,8.5,0,0,0-4.745-2.5,9.014,9.014,0,0,0-4.311.367,8.637,8.637,0,0,1,.992-.459,9.5,9.5,0,0,1,6.159-.074,7.338,7.338,0,0,1,2.787,1.621,5.063,5.063,0,0,1,2.066,1.127,7.245,7.245,0,0,1,2.013,3.29A7.417,7.417,0,0,1,1902.773,467.868Z" transform="translate(-1883.073 -458.049)" fill="#225570"/>
                <g id="Grupo_94519" data-name="Grupo 94519" transform="translate(7.957 12.962)">
                  <g id="Grupo_94517" data-name="Grupo 94517">
                    <path id="Trazado_211489" data-name="Trazado 211489" d="M1912.331,583.175a3.887,3.887,0,0,1,3.577-.305" transform="translate(-1912.331 -582.573)" fill="none" stroke="#0b2d50" stroke-linecap="round" stroke-miterlimit="10" stroke-width="1"/>
                    <path id="Trazado_211490" data-name="Trazado 211490" d="M1979.685,583.52a2.227,2.227,0,0,1,2.853,0" transform="translate(-1972.674 -582.959)" fill="none" stroke="#0b2d50" stroke-linecap="round" stroke-miterlimit="10" stroke-width="1"/>
                    <path id="Trazado_211491" data-name="Trazado 211491" d="M1967.977,620.028a4.2,4.2,0,0,1-.179,1.951" transform="translate(-1962.025 -616.129)" fill="none" stroke="#cc454e" stroke-linecap="round" stroke-miterlimit="10" stroke-width="1"/>
                    <ellipse id="Elipse_5341" data-name="Elipse 5341" cx="0.422" cy="0.666" rx="0.422" ry="0.666" transform="translate(2.071 2.879)" fill="#262d40"/>
                    <ellipse id="Elipse_5342" data-name="Elipse 5342" cx="0.422" cy="0.666" rx="0.422" ry="0.666" transform="translate(7.592 2.57)" fill="#262d40"/>
                  </g>
                  <g id="Grupo_94518" data-name="Grupo 94518" transform="translate(1.998 5.852)">
                    <path id="Trazado_211492" data-name="Trazado 211492" d="M1934.959,639.7a3.248,3.248,0,0,1-.241.379,2.621,2.621,0,0,1-1.247.971h0a1.626,1.626,0,0,1-.8.053,1.5,1.5,0,0,1-1.132-1.563,3.211,3.211,0,0,1-.007-.331,3.127,3.127,0,0,1,.032-.413A9.828,9.828,0,0,0,1934.959,639.7Z" transform="translate(-1931.527 -638.797)" fill="#cc454e"/>
                    <path id="Trazado_211493" data-name="Trazado 211493" d="M1934.97,639.7a3.221,3.221,0,0,1-.241.379,9.482,9.482,0,0,1-3.189-.87,3.179,3.179,0,0,1,.032-.413A9.83,9.83,0,0,0,1934.97,639.7Z" transform="translate(-1931.538 -638.797)" fill="#fff"/>
                    <path id="Trazado_211494" data-name="Trazado 211494" d="M1933.539,647.431a1.627,1.627,0,0,1-.8.053,1.5,1.5,0,0,1-1.132-1.563,2.351,2.351,0,0,1,1.933,1.511Z" transform="translate(-1931.598 -645.178)" fill="#e8729b"/>
                  </g>
                </g>
                <g id="Grupo_94522" data-name="Grupo 94522" transform="translate(0 0.953)">
                  <path id="Trazado_211495" data-name="Trazado 211495" d="M1863.507,478.765a15.873,15.873,0,0,1,1.143-5.707,8.2,8.2,0,0,1,7.5-5.2,8.051,8.051,0,0,1,5.79,2.263,6.071,6.071,0,0,0-3.446-2.633,9.605,9.605,0,0,0-5.585.292,10.053,10.053,0,0,0-5.053,5.1,30.026,30.026,0,0,0-1.253,5.7Z" transform="translate(-1859.818 -467.208)" fill="#3d86e0"/>
                  <g id="Grupo_94520" data-name="Grupo 94520" transform="translate(0 10.357)">
                    <ellipse id="Elipse_5343" data-name="Elipse 5343" cx="2.775" cy="4.205" rx="2.775" ry="4.205" transform="translate(0 0.574) rotate(-5.935)" fill="#56c4f9"/>
                    <ellipse id="Elipse_5344" data-name="Elipse 5344" cx="1.802" cy="3.17" rx="1.802" ry="3.17" transform="translate(0.204 1.908) rotate(-8.546)" fill="#3d86e0"/>
                  </g>
                  <g id="Grupo_94521" data-name="Grupo 94521" transform="translate(4.925 18.327)">
                    <ellipse id="Elipse_5345" data-name="Elipse 5345" cx="1.478" cy="0.921" rx="1.478" ry="0.921" transform="translate(5.948 2.158)" fill="#3a92c9"/>
                    <path id="Trazado_211496" data-name="Trazado 211496" d="M1883.2,643.274a8.932,8.932,0,0,0,5.948,3.078" transform="translate(-1883.197 -643.274)" fill="none" stroke="#3a92c9" stroke-linecap="round" stroke-miterlimit="10" stroke-width="1"/>
                  </g>
                </g>
              </g>
              <g id="Grupo_94528" data-name="Grupo 94528" transform="translate(3.071 24.962)">
                <g id="Grupo_94527" data-name="Grupo 94527">
                  <g id="Grupo_94526" data-name="Grupo 94526" transform="translate(1.179 12.543)">
                    <g id="Grupo_94524" data-name="Grupo 94524">
                      <path id="Trazado_211497" data-name="Trazado 211497" d="M1800.5,827.673l-.142,3.671s-13.276,3.978-15.468,2.72c-1.07-.615-2.068-4-2.814-7.3-.781-3.471-1.281-6.85-1.281-6.85l7.782-1.524s0,4.745.269,7.488a4.059,4.059,0,0,0,.411,1.887C1789.945,828.215,1800.5,827.673,1800.5,827.673Z" transform="translate(-1780.797 -818.385)" fill="#f9a07b"/>
                      <path id="Trazado_211498" data-name="Trazado 211498" d="M1788.848,825.851a17.364,17.364,0,0,1-6.77.888c-.781-3.471-1.281-6.85-1.281-6.85l7.782-1.524S1788.584,823.108,1788.848,825.851Z" transform="translate(-1780.797 -818.365)" fill="#e06a58"/>
                    </g>
                    <g id="Grupo_94525" data-name="Grupo 94525" transform="translate(18.648 7.509)">
                      <path id="Trazado_211499" data-name="Trazado 211499" d="M1960.627,892.319c1.974-.422,5.317-1.437,6.7-1.786.985-.248,3.549,1.079,4.226,2.33.3.546.576,3.641-.45,3.322-.514-.161-.429-1.488-.59-2.029a2.392,2.392,0,0,0-1.184-1.235,7,7,0,0,1,.362,3.124,1.618,1.618,0,0,1-.147.735.527.527,0,0,1-.62.278c-.234-.1-.315-.388-.367-.643a20.935,20.935,0,0,1-.438-2.759c.019.98,0,1.963-.064,2.941-.046.748-.417,1.159-.875,1.029-.2-.057-.287-.246-.374-.494-.138.48-.482,1.01-.927.808-.271-.122-.439-1.1-.391-2.105a5.889,5.889,0,0,1-2.929.806,3.239,3.239,0,0,1-2.615-.817A17.6,17.6,0,0,1,1960.627,892.319Z" transform="translate(-1959.947 -890.502)" fill="#f9a07b"/>
                      <path id="Trazado_211500" data-name="Trazado 211500" d="M2024.307,932.35a7.02,7.02,0,0,0-.2-2.367" transform="translate(-2017.425 -925.873)" fill="none" stroke="#cc454e" stroke-linecap="round" stroke-miterlimit="10" stroke-width="1"/>
                    </g>
                  </g>
                  <path id="Trazado_211501" data-name="Trazado 211501" d="M1777.553,702.705a36.579,36.579,0,0,0-2.633-4.846s-3.156,1.313-4.277,3.542c-1.9,3.774-.932,14.61-.932,14.61,2.555,1.07,7.684,1.086,9.867.778C1779.578,716.789,1778.685,705.885,1777.553,702.705Z" transform="translate(-1769.466 -697.859)" fill="#ffc73c"/>
                </g>
                <path id="Trazado_211502" data-name="Trazado 211502" d="M1851.019,750.812a70.145,70.145,0,0,1,1.469,11.728" transform="translate(-1842.53 -745.3)" fill="none" stroke="#f2ae30" stroke-linecap="round" stroke-miterlimit="10" stroke-width="1"/>
              </g>
            </g>
            <rect id="Rect치ngulo_39904" data-name="Rect치ngulo 39904" width="90.513" height="2.27" transform="translate(0 53.655)" fill="#0b2d50"/>
          </g>
        </g>
      </g>
    </g>
  </g>
</svg>
