<svg xmlns="http://www.w3.org/2000/svg" xmlns:xlink="http://www.w3.org/1999/xlink" width="309" height="356" viewBox="0 0 309 356">
  <defs>
    <linearGradient id="linear-gradient" x1="0.727" y1="-0.107" x2="0.341" y2="0.927" gradientUnits="objectBoundingBox">
      <stop offset="0" stop-color="#f15d5d"/>
      <stop offset="0.077" stop-color="#e45754"/>
      <stop offset="0.297" stop-color="#c54a3f"/>
      <stop offset="0.512" stop-color="#af4131"/>
      <stop offset="0.717" stop-color="#a23b28"/>
      <stop offset="0.904" stop-color="#9e3a25"/>
    </linearGradient>
    <linearGradient id="linear-gradient-2" x1="0.5" x2="0.5" y2="0.995" gradientUnits="objectBoundingBox">
      <stop offset="0.007" stop-color="#ffd434"/>
      <stop offset="0.31" stop-color="#fed134"/>
      <stop offset="0.532" stop-color="#fdc735"/>
      <stop offset="0.729" stop-color="#fbb737"/>
      <stop offset="0.909" stop-color="#f7a13b"/>
      <stop offset="1" stop-color="#f6933d"/>
    </linearGradient>
    <linearGradient id="linear-gradient-3" x1="0.5" y1="-0.032" x2="0.5" y2="1.077" gradientUnits="objectBoundingBox">
      <stop offset="0.007" stop-color="#29b473"/>
      <stop offset="1" stop-color="#008356"/>
    </linearGradient>
    <linearGradient id="linear-gradient-4" y1="0.5" x2="1" y2="0.5" gradientUnits="objectBoundingBox">
      <stop offset="0.096" stop-color="#fff"/>
      <stop offset="0.327" stop-color="#fdfbfa"/>
      <stop offset="0.581" stop-color="#f9f0ed"/>
      <stop offset="0.847" stop-color="#f3ddd7"/>
      <stop offset="1" stop-color="#efd0c7"/>
    </linearGradient>
    <linearGradient id="linear-gradient-5" y1="0.5" x2="1" y2="0.5" gradientUnits="objectBoundingBox">
      <stop offset="0" stop-color="#fff"/>
      <stop offset="1"/>
    </linearGradient>
    <linearGradient id="linear-gradient-7" x1="0.5" y1="1" x2="0.5" gradientUnits="objectBoundingBox">
      <stop offset="0.096" stop-color="#ffda8b"/>
      <stop offset="0.245" stop-color="#fed589"/>
      <stop offset="0.41" stop-color="#fdc884"/>
      <stop offset="0.583" stop-color="#fab27c"/>
      <stop offset="0.76" stop-color="#f79370"/>
      <stop offset="0.94" stop-color="#f26b62"/>
      <stop offset="1" stop-color="#f15d5d"/>
    </linearGradient>
    <linearGradient id="linear-gradient-8" x1="0.439" y1="0.121" x2="0.523" y2="0.97" gradientUnits="objectBoundingBox">
      <stop offset="0" stop-color="#77367a"/>
      <stop offset="0.964" stop-color="#9d3e96"/>
    </linearGradient>
    <linearGradient id="linear-gradient-9" x1="0" y1="0.5" x2="1" y2="0.5" xlink:href="#linear-gradient-7"/>
    <linearGradient id="linear-gradient-10" x1="0.5" y1="1" x2="0.5" y2="0" xlink:href="#linear-gradient-4"/>
    <linearGradient id="linear-gradient-11" x1="0" y1="0.5" x2="1" y2="0.5" xlink:href="#linear-gradient-8"/>
    <linearGradient id="linear-gradient-13" x1="0.686" y1="0.103" x2="0.275" y2="1.155" gradientUnits="objectBoundingBox">
      <stop offset="0.036" stop-color="#9d3e96"/>
      <stop offset="1" stop-color="#77367a"/>
    </linearGradient>
    <linearGradient id="linear-gradient-15" x1="0.127" y1="0.443" x2="0.516" y2="0.515" gradientUnits="objectBoundingBox">
      <stop offset="0" stop-color="#008356"/>
      <stop offset="0.993" stop-color="#29b473"/>
    </linearGradient>
    <linearGradient id="linear-gradient-16" x1="-0.892" y1="0.313" x2="0.601" y2="0.51" xlink:href="#linear-gradient-15"/>
    <linearGradient id="linear-gradient-18" y1="0.5" x2="1" y2="0.5" gradientUnits="objectBoundingBox">
      <stop offset="0.052" stop-color="#f06499"/>
      <stop offset="1" stop-color="#f6aabb"/>
    </linearGradient>
    <linearGradient id="linear-gradient-19" x1="0" y1="0.5" x2="1" y2="0.5" xlink:href="#linear-gradient-18"/>
    <linearGradient id="linear-gradient-22" x1="0" y1="0.5" x2="1" y2="0.5" xlink:href="#linear-gradient-18"/>
  </defs>
  <g id="Grupo_97255" data-name="Grupo 97255" transform="translate(-646 -2820)">
    <g id="Trazado_213221" data-name="Trazado 213221" transform="translate(646 2852)" fill="#fff">
      <path d="M 284 322 L 25 322 C 21.89412498474121 322 18.88224983215332 321.3921813964844 16.04795837402344 320.1933898925781 C 13.30937480926514 319.0350341796875 10.84945869445801 317.3763732910156 8.736541748046875 315.2634582519531 C 6.623624801635742 313.1505432128906 4.964958190917969 310.6906127929688 3.806624889373779 307.9520568847656 C 2.607833385467529 305.1177368164062 2 302.1058654785156 2 299 L 2 25 C 2 21.89412498474121 2.607833385467529 18.88224983215332 3.806624889373779 16.04795837402344 C 4.964958190917969 13.30937480926514 6.623624801635742 10.84945869445801 8.736541748046875 8.736541748046875 C 10.84945869445801 6.623624801635742 13.30937480926514 4.964958190917969 16.04795837402344 3.806624889373779 C 18.88224983215332 2.607833385467529 21.89412498474121 2 25 2 L 284 2 C 287.1058654785156 2 290.1177368164062 2.607833385467529 292.9520568847656 3.806624889373779 C 295.6906127929688 4.964958190917969 298.1505432128906 6.623624801635742 300.2634582519531 8.736541748046875 C 302.3763732910156 10.84945869445801 304.0350341796875 13.30937480926514 305.1933898925781 16.04795837402344 C 306.3921813964844 18.88224983215332 307 21.89412498474121 307 25 L 307 299 C 307 302.1058654785156 306.3921813964844 305.1177368164062 305.1933898925781 307.9520568847656 C 304.0350341796875 310.6906127929688 302.3763732910156 313.1505432128906 300.2634582519531 315.2634582519531 C 298.1505432128906 317.3763732910156 295.6906127929688 319.0350341796875 292.9520568847656 320.1933898925781 C 290.1177368164062 321.3921813964844 287.1058654785156 322 284 322 Z" stroke="none"/>
      <path d="M 25 4 C 19.39068603515625 4 14.11712646484375 6.184356689453125 10.15078735351562 10.15078735351562 C 6.184356689453125 14.11712646484375 4 19.39068603515625 4 25 L 4 299 C 4 304.6093139648438 6.184356689453125 309.8828735351562 10.15078735351562 313.8492126464844 C 14.11712646484375 317.8156433105469 19.39068603515625 320 25 320 L 284 320 C 289.6093139648438 320 294.8828735351562 317.8156433105469 298.8492126464844 313.8492126464844 C 302.8156433105469 309.8828735351562 305 304.6093139648438 305 299 L 305 25 C 305 19.39068603515625 302.8156433105469 14.11712646484375 298.8492126464844 10.15078735351562 C 294.8828735351562 6.184356689453125 289.6093139648438 4 284 4 L 25 4 M 25 0 L 284 0 C 297.80712890625 0 309 11.19287109375 309 25 L 309 299 C 309 312.80712890625 297.80712890625 324 284 324 L 25 324 C 11.19287109375 324 0 312.80712890625 0 299 L 0 25 C 0 11.19287109375 11.19287109375 0 25 0 Z" stroke="none" fill="#fd8f25"/>
    </g>
    <g id="Trazado_196483" data-name="Trazado 196483" transform="translate(769.216 2820)" fill="#ffd6ae">
      <path d="M 32.5 63 C 28.38165092468262 63 24.38754081726074 62.1938591003418 20.62863922119141 60.60398101806641 C 16.9969596862793 59.06790924072266 13.73495960235596 56.86846923828125 10.93323993682861 54.0667610168457 C 8.131529808044434 51.26504135131836 5.932089805603027 48.0030403137207 4.39601993560791 44.37136077880859 C 2.806139945983887 40.61246109008789 2 36.61835098266602 2 32.5 C 2 28.38165092468262 2.806139945983887 24.38754081726074 4.39601993560791 20.62863922119141 C 5.932089805603027 16.9969596862793 8.131529808044434 13.73495960235596 10.93323993682861 10.93323993682861 C 13.73495960235596 8.131529808044434 16.9969596862793 5.932089805603027 20.62863922119141 4.39601993560791 C 24.38754081726074 2.806139945983887 28.38165092468262 2 32.5 2 C 36.61835098266602 2 40.61246109008789 2.806139945983887 44.37136077880859 4.39601993560791 C 48.0030403137207 5.932089805603027 51.26504135131836 8.131529808044434 54.0667610168457 10.93323993682861 C 56.86846923828125 13.73495960235596 59.06790924072266 16.9969596862793 60.60398101806641 20.62863922119141 C 62.1938591003418 24.38754081726074 63 28.38165092468262 63 32.5 C 63 36.61835098266602 62.1938591003418 40.61246109008789 60.60398101806641 44.37136077880859 C 59.06790924072266 48.0030403137207 56.86846923828125 51.26504135131836 54.0667610168457 54.0667610168457 C 51.26504135131836 56.86846923828125 48.0030403137207 59.06790924072266 44.37136077880859 60.60398101806641 C 40.61246109008789 62.1938591003418 36.61835098266602 63 32.5 63 Z" stroke="none"/>
      <path d="M 32.5 4 C 28.65076446533203 4 24.91878890991211 4.752975463867188 21.40774154663086 6.238021850585938 C 18.01445770263672 7.673271179199219 14.96614074707031 9.728775024414062 12.34745788574219 12.34745788574219 C 9.728775024414062 14.96614074707031 7.673271179199219 18.01445770263672 6.238021850585938 21.40774154663086 C 4.752975463867188 24.91878890991211 4 28.65076446533203 4 32.5 C 4 36.34923553466797 4.752975463867188 40.08121109008789 6.238021850585938 43.59225845336914 C 7.673271179199219 46.98554229736328 9.728775024414062 50.03385925292969 12.34745788574219 52.65254211425781 C 14.96614074707031 55.27122497558594 18.01445770263672 57.32672882080078 21.40774154663086 58.761962890625 C 24.91878890991211 60.24702453613281 28.65076446533203 61 32.5 61 C 36.34923553466797 61 40.08121109008789 60.24702453613281 43.59225845336914 58.761962890625 C 46.98554229736328 57.32672882080078 50.03385925292969 55.27122497558594 52.65254211425781 52.65254211425781 C 55.27122497558594 50.03385925292969 57.32672882080078 46.98554229736328 58.761962890625 43.59225845336914 C 60.24702453613281 40.08121109008789 61 36.34923553466797 61 32.5 C 61 28.65076446533203 60.24702453613281 24.91878890991211 58.761962890625 21.40774154663086 C 57.32672882080078 18.01445770263672 55.27122497558594 14.96614074707031 52.65254211425781 12.34745788574219 C 50.03385925292969 9.728775024414062 46.98554229736328 7.673271179199219 43.59225845336914 6.238021850585938 C 40.08121109008789 4.752975463867188 36.34923553466797 4 32.5 4 M 32.5 0 C 50.44924926757812 0 65 14.55073928833008 65 32.5 C 65 50.44924926757812 50.44924926757812 65 32.5 65 C 14.55073928833008 65 0 50.44924926757812 0 32.5 C 0 14.55073928833008 14.55073928833008 0 32.5 0 Z" stroke="none" fill="#fd8f25"/>
    </g>
    <path id="Trazado_213222" data-name="Trazado 213222" d="M52.2,16.882h5.6V19H49.566V6.2H52.2ZM61.827,19H59.278V9.49h2.549Zm-2.7-11.971a1.251,1.251,0,0,1,.382-.94,1.648,1.648,0,0,1,2.079,0,1.244,1.244,0,0,1,.387.94,1.247,1.247,0,0,1-.391.949,1.629,1.629,0,0,1-2.065,0A1.247,1.247,0,0,1,59.129,7.029Zm9.94,9.343a.818.818,0,0,0-.461-.734,5.241,5.241,0,0,0-1.481-.479q-3.393-.712-3.393-2.883a2.613,2.613,0,0,1,1.05-2.114,4.237,4.237,0,0,1,2.747-.848,4.56,4.56,0,0,1,2.9.853,2.687,2.687,0,0,1,1.085,2.215h-2.54a1.229,1.229,0,0,0-.352-.9,1.488,1.488,0,0,0-1.1-.356,1.52,1.52,0,0,0-.993.29.916.916,0,0,0-.352.738.783.783,0,0,0,.4.681,4.114,4.114,0,0,0,1.349.448,11.019,11.019,0,0,1,1.6.426,2.628,2.628,0,0,1,2.013,2.558,2.481,2.481,0,0,1-1.116,2.1,4.815,4.815,0,0,1-2.883.8,5.029,5.029,0,0,1-2.123-.426,3.561,3.561,0,0,1-1.455-1.169,2.716,2.716,0,0,1-.527-1.6h2.408a1.326,1.326,0,0,0,.5,1.037,1.987,1.987,0,0,0,1.248.36,1.839,1.839,0,0,0,1.1-.277A.861.861,0,0,0,69.069,16.372Zm7.146-9.22V9.49h1.626v1.863H76.215V16.1a1.133,1.133,0,0,0,.2.756,1.015,1.015,0,0,0,.773.229,4.051,4.051,0,0,0,.747-.062v1.925a5.229,5.229,0,0,1-1.538.229,2.425,2.425,0,0,1-2.725-2.7V11.354H72.286V9.49h1.389V7.152ZM84.767,19a2.821,2.821,0,0,1-.255-.853,3.073,3.073,0,0,1-2.4,1.028,3.376,3.376,0,0,1-2.316-.809,2.6,2.6,0,0,1-.918-2.039A2.687,2.687,0,0,1,80,14.008a5.529,5.529,0,0,1,3.239-.817h1.169v-.545a1.567,1.567,0,0,0-.338-1.055A1.331,1.331,0,0,0,83,11.2a1.513,1.513,0,0,0-1.006.308,1.045,1.045,0,0,0-.365.844h-2.54a2.551,2.551,0,0,1,.51-1.529,3.37,3.37,0,0,1,1.441-1.1,5.253,5.253,0,0,1,2.092-.4,4.15,4.15,0,0,1,2.791.883,3.09,3.09,0,0,1,1.033,2.483V16.8a4.546,4.546,0,0,0,.378,2.048V19Zm-2.1-1.767a2.188,2.188,0,0,0,1.037-.25,1.645,1.645,0,0,0,.7-.672V14.676h-.949q-1.907,0-2.03,1.318l-.009.149a1.017,1.017,0,0,0,.334.782A1.3,1.3,0,0,0,82.666,17.233Zm14.273-1.828L98.7,9.49h2.725L97.6,20.477l-.211.5a2.9,2.9,0,0,1-2.812,1.863,4,4,0,0,1-1.125-.167V20.749l.387.009a2.09,2.09,0,0,0,1.077-.22,1.443,1.443,0,0,0,.558-.729l.3-.782L92.439,9.49h2.733Zm15.117.967a.818.818,0,0,0-.461-.734,5.241,5.241,0,0,0-1.481-.479q-3.393-.712-3.393-2.883a2.613,2.613,0,0,1,1.05-2.114,4.237,4.237,0,0,1,2.747-.848,4.56,4.56,0,0,1,2.9.853,2.687,2.687,0,0,1,1.085,2.215h-2.54a1.229,1.229,0,0,0-.352-.9,1.488,1.488,0,0,0-1.1-.356,1.52,1.52,0,0,0-.993.29.916.916,0,0,0-.352.738.783.783,0,0,0,.4.681,4.114,4.114,0,0,0,1.349.448,11.019,11.019,0,0,1,1.6.426,2.628,2.628,0,0,1,2.013,2.558,2.481,2.481,0,0,1-1.116,2.1,4.815,4.815,0,0,1-2.883.8,5.029,5.029,0,0,1-2.123-.426,3.561,3.561,0,0,1-1.455-1.169,2.716,2.716,0,0,1-.527-1.6h2.408a1.326,1.326,0,0,0,.5,1.037,1.987,1.987,0,0,0,1.248.36,1.839,1.839,0,0,0,1.1-.277A.861.861,0,0,0,112.057,16.372Zm8.481,2.8a4.668,4.668,0,0,1-3.406-1.283,4.561,4.561,0,0,1-1.314-3.419v-.246a5.745,5.745,0,0,1,.554-2.562,4.064,4.064,0,0,1,1.569-1.74,4.4,4.4,0,0,1,2.316-.611,3.947,3.947,0,0,1,3.072,1.23,5,5,0,0,1,1.121,3.489v1.037h-6.056a2.36,2.36,0,0,0,.743,1.494,2.245,2.245,0,0,0,1.569.563A2.742,2.742,0,0,0,123,16.064l1.248,1.4a3.813,3.813,0,0,1-1.547,1.261A5.075,5.075,0,0,1,120.538,19.176Zm-.29-7.813a1.587,1.587,0,0,0-1.226.512,2.651,2.651,0,0,0-.6,1.466h3.533v-.2a1.891,1.891,0,0,0-.457-1.311A1.638,1.638,0,0,0,120.248,11.362ZM128.571,19h-2.549V5.5h2.549Zm6.469.176a4.668,4.668,0,0,1-3.406-1.283,4.561,4.561,0,0,1-1.314-3.419v-.246a5.745,5.745,0,0,1,.554-2.562,4.064,4.064,0,0,1,1.569-1.74,4.4,4.4,0,0,1,2.316-.611,3.947,3.947,0,0,1,3.072,1.23,5,5,0,0,1,1.121,3.489v1.037H132.9a2.36,2.36,0,0,0,.743,1.494,2.245,2.245,0,0,0,1.569.563,2.742,2.742,0,0,0,2.294-1.063l1.248,1.4a3.813,3.813,0,0,1-1.547,1.261A5.075,5.075,0,0,1,135.04,19.176Zm-.29-7.813a1.587,1.587,0,0,0-1.226.512,2.651,2.651,0,0,0-.6,1.466h3.533v-.2A1.891,1.891,0,0,0,136,11.826,1.638,1.638,0,0,0,134.75,11.362Zm9.6,5.766a1.666,1.666,0,0,0,1.143-.387,1.355,1.355,0,0,0,.457-1.028h2.382a3.258,3.258,0,0,1-.527,1.771,3.48,3.48,0,0,1-1.419,1.248,4.442,4.442,0,0,1-1.991.444,4.129,4.129,0,0,1-3.217-1.3A5.13,5.13,0,0,1,140,14.3v-.167a5.071,5.071,0,0,1,1.169-3.507,4.08,4.08,0,0,1,3.208-1.31,4,4,0,0,1,2.861,1.015,3.594,3.594,0,0,1,1.094,2.7h-2.382a1.745,1.745,0,0,0-.457-1.206,1.7,1.7,0,0,0-2.5.183,3.749,3.749,0,0,0-.453,2.1v.264a3.8,3.8,0,0,0,.448,2.113A1.549,1.549,0,0,0,144.348,17.128Zm9.387,0a1.666,1.666,0,0,0,1.143-.387,1.355,1.355,0,0,0,.457-1.028h2.382a3.258,3.258,0,0,1-.527,1.771,3.48,3.48,0,0,1-1.419,1.248,4.442,4.442,0,0,1-1.991.444,4.129,4.129,0,0,1-3.217-1.3,5.13,5.13,0,0,1-1.178-3.582v-.167a5.071,5.071,0,0,1,1.169-3.507,4.08,4.08,0,0,1,3.208-1.31,4,4,0,0,1,2.861,1.015,3.594,3.594,0,0,1,1.094,2.7h-2.382a1.745,1.745,0,0,0-.457-1.206,1.7,1.7,0,0,0-2.5.183,3.749,3.749,0,0,0-.453,2.1v.264a3.8,3.8,0,0,0,.448,2.113A1.549,1.549,0,0,0,153.734,17.128ZM161.847,19H159.3V9.49h2.549Zm-2.7-11.971a1.251,1.251,0,0,1,.382-.94,1.648,1.648,0,0,1,2.079,0,1.244,1.244,0,0,1,.387.94,1.247,1.247,0,0,1-.391.949,1.629,1.629,0,0,1-2.065,0A1.247,1.247,0,0,1,159.148,7.029Zm4.395,7.128a5.64,5.64,0,0,1,.545-2.522,3.989,3.989,0,0,1,1.569-1.714,4.577,4.577,0,0,1,2.377-.606,4.33,4.33,0,0,1,3.142,1.178,4.727,4.727,0,0,1,1.358,3.2l.018.65a4.97,4.97,0,0,1-1.222,3.511,4.735,4.735,0,0,1-6.561,0,5.058,5.058,0,0,1-1.226-3.586Zm2.54.18a3.555,3.555,0,0,0,.51,2.073,1.831,1.831,0,0,0,2.9.009,3.89,3.89,0,0,0,.519-2.267,3.519,3.519,0,0,0-.519-2.06,1.686,1.686,0,0,0-1.459-.731,1.658,1.658,0,0,0-1.441.726A3.955,3.955,0,0,0,166.083,14.338ZM168.535,5.5H171.3l-2.435,2.725H166.8Zm7.919,3.99.079,1.1a3.32,3.32,0,0,1,2.733-1.274,2.759,2.759,0,0,1,2.25.888,4.142,4.142,0,0,1,.756,2.654V19h-2.54V12.918a1.648,1.648,0,0,0-.352-1.173,1.574,1.574,0,0,0-1.169-.365,1.747,1.747,0,0,0-1.608.914V19h-2.54V9.49Zm11.83,4.685a5.731,5.731,0,0,1,1-3.542,3.237,3.237,0,0,1,2.729-1.318,2.913,2.913,0,0,1,2.294,1.037V5.5h2.549V19H194.56l-.123-1.011a2.989,2.989,0,0,1-2.443,1.187,3.228,3.228,0,0,1-2.694-1.323A5.916,5.916,0,0,1,188.284,14.175Zm2.54.189a3.754,3.754,0,0,0,.466,2.051,1.517,1.517,0,0,0,1.354.713,1.7,1.7,0,0,0,1.661-.995V12.375a1.675,1.675,0,0,0-1.644-.995Q190.824,11.38,190.824,14.364ZM203.2,19.176a4.668,4.668,0,0,1-3.406-1.283,4.561,4.561,0,0,1-1.314-3.419v-.246a5.745,5.745,0,0,1,.554-2.562,4.064,4.064,0,0,1,1.569-1.74,4.4,4.4,0,0,1,2.316-.611,3.947,3.947,0,0,1,3.072,1.23,5,5,0,0,1,1.121,3.489v1.037h-6.056a2.36,2.36,0,0,0,.743,1.494,2.245,2.245,0,0,0,1.569.563,2.742,2.742,0,0,0,2.294-1.063l1.248,1.4a3.813,3.813,0,0,1-1.547,1.261A5.075,5.075,0,0,1,203.2,19.176Zm-.29-7.813a1.587,1.587,0,0,0-1.226.512,2.651,2.651,0,0,0-.6,1.466h3.533v-.2a1.891,1.891,0,0,0-.457-1.311A1.638,1.638,0,0,0,202.909,11.362ZM87.109,38.333a5.7,5.7,0,0,1-1,3.52,3.2,3.2,0,0,1-2.694,1.323,2.963,2.963,0,0,1-2.329-1v4.482h-2.54V33.49H80.9l.088.932A2.985,2.985,0,0,1,83.4,33.314a3.22,3.22,0,0,1,2.733,1.3,5.858,5.858,0,0,1,.976,3.586Zm-2.54-.185A3.743,3.743,0,0,0,84.1,36.1a1.532,1.532,0,0,0-1.367-.721,1.663,1.663,0,0,0-1.644.914v3.894a1.692,1.692,0,0,0,1.661.94Q84.569,41.128,84.569,38.148Zm9.457-2.276a6.9,6.9,0,0,0-.914-.07,1.86,1.86,0,0,0-1.89.976V43h-2.54V33.49h2.4l.07,1.134a2.354,2.354,0,0,1,2.118-1.31,2.662,2.662,0,0,1,.791.114Zm.51,2.285a5.64,5.64,0,0,1,.545-2.522,3.989,3.989,0,0,1,1.569-1.714,4.577,4.577,0,0,1,2.377-.606,4.33,4.33,0,0,1,3.142,1.178,4.727,4.727,0,0,1,1.358,3.2l.018.65a4.97,4.97,0,0,1-1.222,3.511,4.735,4.735,0,0,1-6.561,0,5.058,5.058,0,0,1-1.226-3.586Zm2.54.18a3.555,3.555,0,0,0,.51,2.073,1.831,1.831,0,0,0,2.9.009A3.89,3.89,0,0,0,101,38.153a3.519,3.519,0,0,0-.519-2.06,1.686,1.686,0,0,0-1.459-.731,1.658,1.658,0,0,0-1.441.726A3.955,3.955,0,0,0,97.076,38.338Zm11.461,1.56L110.3,33.49h2.654L109.75,43h-2.426l-3.208-9.51h2.654Zm9.914,3.278a4.668,4.668,0,0,1-3.406-1.283,4.561,4.561,0,0,1-1.314-3.419v-.246a5.745,5.745,0,0,1,.554-2.562,4.064,4.064,0,0,1,1.569-1.74,4.4,4.4,0,0,1,2.316-.611,3.947,3.947,0,0,1,3.072,1.23,5,5,0,0,1,1.121,3.489v1.037h-6.056a2.36,2.36,0,0,0,.743,1.494,2.245,2.245,0,0,0,1.569.563,2.742,2.742,0,0,0,2.294-1.063l1.248,1.4a3.813,3.813,0,0,1-1.547,1.261A5.075,5.075,0,0,1,118.451,43.176Zm-.29-7.813a1.587,1.587,0,0,0-1.226.512,2.651,2.651,0,0,0-.6,1.466h3.533v-.2a1.891,1.891,0,0,0-.457-1.311A1.638,1.638,0,0,0,118.161,35.362Zm10.02,7.813a4.668,4.668,0,0,1-3.406-1.283,4.561,4.561,0,0,1-1.314-3.419v-.246a5.745,5.745,0,0,1,.554-2.562,4.064,4.064,0,0,1,1.569-1.74,4.4,4.4,0,0,1,2.316-.611,3.947,3.947,0,0,1,3.072,1.23,5,5,0,0,1,1.121,3.489v1.037h-6.056a2.36,2.36,0,0,0,.743,1.494,2.245,2.245,0,0,0,1.569.563,2.742,2.742,0,0,0,2.294-1.063l1.248,1.4a3.813,3.813,0,0,1-1.547,1.261A5.075,5.075,0,0,1,128.18,43.176Zm-.29-7.813a1.587,1.587,0,0,0-1.226.512,2.651,2.651,0,0,0-.6,1.466H129.6v-.2a1.891,1.891,0,0,0-.457-1.311A1.638,1.638,0,0,0,127.89,35.362Zm5.247,2.813a5.731,5.731,0,0,1,1-3.542,3.237,3.237,0,0,1,2.729-1.318,2.913,2.913,0,0,1,2.294,1.037V29.5h2.549V43h-2.294l-.123-1.011a2.989,2.989,0,0,1-2.443,1.187,3.228,3.228,0,0,1-2.694-1.323A5.916,5.916,0,0,1,133.137,38.175Zm2.54.189a3.754,3.754,0,0,0,.466,2.051,1.517,1.517,0,0,0,1.354.713,1.7,1.7,0,0,0,1.661-.995V36.375a1.675,1.675,0,0,0-1.644-.995Q135.677,35.38,135.677,38.364Zm7.6-.207a5.64,5.64,0,0,1,.545-2.522,3.989,3.989,0,0,1,1.569-1.714,4.577,4.577,0,0,1,2.377-.606,4.33,4.33,0,0,1,3.142,1.178,4.727,4.727,0,0,1,1.358,3.2l.018.65a4.97,4.97,0,0,1-1.222,3.511,4.735,4.735,0,0,1-6.561,0,5.058,5.058,0,0,1-1.226-3.586Zm2.54.18a3.555,3.555,0,0,0,.51,2.073,1.831,1.831,0,0,0,2.9.009,3.89,3.89,0,0,0,.519-2.267,3.519,3.519,0,0,0-.519-2.06,1.686,1.686,0,0,0-1.459-.731,1.658,1.658,0,0,0-1.441.726A3.955,3.955,0,0,0,145.82,38.338ZM159.2,35.872a6.9,6.9,0,0,0-.914-.07,1.86,1.86,0,0,0-1.89.976V43h-2.54V33.49h2.4l.07,1.134a2.354,2.354,0,0,1,2.118-1.31,2.662,2.662,0,0,1,.791.114Zm5.6,7.3a4.668,4.668,0,0,1-3.406-1.283,4.561,4.561,0,0,1-1.314-3.419v-.246a5.745,5.745,0,0,1,.554-2.562,4.064,4.064,0,0,1,1.569-1.74,4.4,4.4,0,0,1,2.316-.611,3.947,3.947,0,0,1,3.072,1.23,5,5,0,0,1,1.121,3.489v1.037h-6.056a2.36,2.36,0,0,0,.743,1.494,2.245,2.245,0,0,0,1.569.563,2.742,2.742,0,0,0,2.294-1.063l1.248,1.4a3.813,3.813,0,0,1-1.547,1.261A5.075,5.075,0,0,1,164.8,43.176Zm-.29-7.813a1.587,1.587,0,0,0-1.226.512,2.651,2.651,0,0,0-.6,1.466h3.533v-.2a1.891,1.891,0,0,0-.457-1.311A1.638,1.638,0,0,0,164.505,35.362Zm10.793,5.01a.818.818,0,0,0-.461-.734,5.241,5.241,0,0,0-1.481-.479q-3.393-.712-3.393-2.883a2.613,2.613,0,0,1,1.05-2.114,4.237,4.237,0,0,1,2.747-.848,4.56,4.56,0,0,1,2.9.853,2.687,2.687,0,0,1,1.085,2.215H175.2a1.229,1.229,0,0,0-.352-.9,1.488,1.488,0,0,0-1.1-.356,1.52,1.52,0,0,0-.993.29.916.916,0,0,0-.352.738.783.783,0,0,0,.4.681,4.114,4.114,0,0,0,1.349.448,11.019,11.019,0,0,1,1.6.426,2.628,2.628,0,0,1,2.013,2.558,2.481,2.481,0,0,1-1.116,2.1,4.815,4.815,0,0,1-2.883.8,5.029,5.029,0,0,1-2.123-.426,3.561,3.561,0,0,1-1.455-1.169,2.716,2.716,0,0,1-.527-1.6h2.408a1.326,1.326,0,0,0,.5,1.037,1.987,1.987,0,0,0,1.248.36,1.839,1.839,0,0,0,1.1-.277A.861.861,0,0,0,175.3,40.372Z" transform="translate(673 3096)" fill="#12263f"/>
    <path id="Trazado_213223" data-name="Trazado 213223" d="M18.476,21H8.729V19.066l4.6-4.9a11.347,11.347,0,0,0,1.4-1.807,2.9,2.9,0,0,0,.454-1.465A2.172,2.172,0,0,0,14.706,9.4a1.727,1.727,0,0,0-1.367-.542,1.863,1.863,0,0,0-1.509.659,2.611,2.611,0,0,0-.552,1.733H8.446a4.661,4.661,0,0,1,.62-2.373A4.371,4.371,0,0,1,10.819,7.2a5.328,5.328,0,0,1,2.568-.61A5.045,5.045,0,0,1,16.8,7.641a3.731,3.731,0,0,1,1.216,2.979,4.781,4.781,0,0,1-.547,2.148,11.939,11.939,0,0,1-1.875,2.549l-3.232,3.408h6.113Z" transform="translate(788 2841)" fill="#12263f"/>
    <g id="Grupo_94590" data-name="Grupo 94590" transform="translate(83.583 2827.396)">
      <g id="Grupo_94550" data-name="Grupo 94550" transform="translate(659.802 67.42)">
        <rect id="Rectángulo_39905" data-name="Rectángulo 39905" width="128.247" height="155.711" transform="translate(0 28.232)" fill="url(#linear-gradient)"/>
        <rect id="Rectángulo_39906" data-name="Rectángulo 39906" width="116.196" height="143.235" transform="translate(6.51 33.721)" fill="#fff"/>
        <path id="Trazado_211504" data-name="Trazado 211504" d="M840.691,108.956c-1.685-1.072-22.2-9.188-22.2-9.188V88.131s-.738-8.345-9.367-8.711l0-.017c-.1,0-.194.007-.292.009s-.192-.009-.292-.009l0,.017c-8.629.366-9.367,8.711-9.367,8.711V99.768s-20.518,8.116-22.2,9.188-.46,4.441-.46,4.441H841.15S842.376,110.028,840.691,108.956ZM808.826,94.763a6.058,6.058,0,1,1,6.058-6.058A6.058,6.058,0,0,1,808.826,94.763Z" transform="translate(-743.77 -79.403)" fill="url(#linear-gradient-2)"/>
        <g id="Grupo_94537" data-name="Grupo 94537" transform="translate(31.188 57.506)">
          <g id="Grupo_94536" data-name="Grupo 94536" transform="translate(0 0.426)">
            <g id="Grupo_94534" data-name="Grupo 94534" transform="translate(16.467 2.361)">
              <path id="Trazado_211505" data-name="Trazado 211505" d="M854.786,205.713H809.614a1.378,1.378,0,0,0,0,2.756h45.173a1.378,1.378,0,0,0,0-2.756Z" transform="translate(-808.236 -205.713)" fill="#d0d2d3"/>
              <path id="Trazado_211506" data-name="Trazado 211506" d="M854.786,220.469H809.614a1.378,1.378,0,0,0,0,2.756h45.173a1.378,1.378,0,0,0,0-2.756Z" transform="translate(-808.236 -213.425)" fill="#d0d2d3"/>
            </g>
            <g id="Grupo_94535" data-name="Grupo 94535">
              <path id="Trazado_211507" data-name="Trazado 211507" d="M773.738,214.316h13.244V200.767H773.738Zm1.37-12.178h10.5v10.808h-10.5Z" transform="translate(-773.738 -200.767)" fill="#bba4a0"/>
            </g>
          </g>
          <path id="Trazado_211508" data-name="Trazado 211508" d="M785.783,216.908l2.4-.006c-.4-.317-.8-.636-1.218-.938l-.38-.274c-.117.167-.233.336-.349.5C786.078,216.425,785.936,216.671,785.783,216.908Z" transform="translate(-780.033 -208.141)" fill="#8bc53f"/>
          <path id="Trazado_211509" data-name="Trazado 211509" d="M791.765,200.2a8.658,8.658,0,0,0-.813.384c-.259.138-.532.264-.777.416s-.5.3-.739.452c-.483.31-.941.643-1.391.985s-.872.706-1.286,1.08c-.211.183-.4.382-.608.572s-.4.391-.588.591c-.392.395-.753.817-1.118,1.236s-.7.864-1.029,1.318c-.045.06-.086.125-.129.187l.38.274c.418.3.817.621,1.218.938l-2.4.006c.153-.237.3-.484.456-.714.116-.168.232-.337.349-.5-.082-.06-.162-.121-.247-.179-.215-.146-.424-.3-.643-.438l-.662-.419c-.221-.139-.438-.284-.673-.41a15.484,15.484,0,0,0-1.424-.746l-.168.157,2.027,2.258,2.052,2.234.138.151.142-.151,2.28-2.43c.379-.406.763-.807,1.133-1.222l1.118-1.235,2.238-2.47c.752-.817,1.474-1.661,2.209-2.5l-.168-.156A7.878,7.878,0,0,0,791.765,200.2Z" transform="translate(-776.733 -199.874)" fill="#8bc53f"/>
        </g>
        <g id="Grupo_94541" data-name="Grupo 94541" transform="translate(31.188 84.908)">
          <g id="Grupo_94540" data-name="Grupo 94540" transform="translate(0 0.426)">
            <g id="Grupo_94538" data-name="Grupo 94538" transform="translate(16.467 2.36)">
              <path id="Trazado_211510" data-name="Trazado 211510" d="M854.786,263.118H809.614a1.378,1.378,0,0,0,0,2.756h45.173a1.378,1.378,0,0,0,0-2.756Z" transform="translate(-808.236 -263.118)" fill="#d0d2d3"/>
              <path id="Trazado_211511" data-name="Trazado 211511" d="M854.786,277.875H809.614a1.378,1.378,0,0,0,0,2.756h45.173a1.378,1.378,0,0,0,0-2.756Z" transform="translate(-808.236 -270.831)" fill="#d0d2d3"/>
            </g>
            <g id="Grupo_94539" data-name="Grupo 94539">
              <path id="Trazado_211512" data-name="Trazado 211512" d="M773.738,271.722h13.244V258.173H773.738Zm1.37-12.179h10.5v10.809h-10.5Z" transform="translate(-773.738 -258.173)" fill="#bba4a0"/>
            </g>
          </g>
          <path id="Trazado_211513" data-name="Trazado 211513" d="M785.783,274.314l2.4-.006c-.4-.317-.8-.636-1.218-.938l-.38-.274c-.117.168-.233.337-.349.5C786.078,273.83,785.936,274.076,785.783,274.314Z" transform="translate(-780.033 -265.546)" fill="#8bc53f"/>
          <path id="Trazado_211514" data-name="Trazado 211514" d="M791.765,257.609a8.652,8.652,0,0,0-.813.384c-.259.139-.532.264-.777.416s-.5.3-.739.452c-.483.31-.941.643-1.391.985s-.872.706-1.286,1.08c-.211.182-.4.381-.608.571s-.4.391-.588.591c-.392.395-.753.817-1.118,1.236s-.7.865-1.029,1.318c-.045.061-.086.125-.129.187l.38.274c.418.3.817.62,1.218.938l-2.4.006c.153-.238.3-.484.456-.713.116-.168.232-.337.349-.5-.082-.06-.162-.121-.247-.178-.215-.146-.424-.3-.643-.438l-.662-.419c-.221-.139-.438-.284-.673-.409a15.467,15.467,0,0,0-1.424-.747l-.168.157,2.027,2.258,2.052,2.234.138.151.142-.151,2.28-2.43c.379-.406.763-.807,1.133-1.222l1.118-1.235,2.238-2.469c.752-.818,1.474-1.661,2.209-2.5l-.168-.156A7.868,7.868,0,0,0,791.765,257.609Z" transform="translate(-776.733 -257.28)" fill="#8bc53f"/>
        </g>
        <g id="Grupo_94545" data-name="Grupo 94545" transform="translate(31.188 112.31)">
          <g id="Grupo_94544" data-name="Grupo 94544" transform="translate(0 0.426)">
            <g id="Grupo_94542" data-name="Grupo 94542" transform="translate(16.467 2.36)">
              <path id="Trazado_211515" data-name="Trazado 211515" d="M854.786,320.524H809.614a1.378,1.378,0,0,0,0,2.756h45.173a1.378,1.378,0,0,0,0-2.756Z" transform="translate(-808.236 -320.524)" fill="#d0d2d3"/>
              <path id="Trazado_211516" data-name="Trazado 211516" d="M854.786,335.281H809.614a1.378,1.378,0,0,0,0,2.756h45.173a1.378,1.378,0,0,0,0-2.756Z" transform="translate(-808.236 -328.237)" fill="#d0d2d3"/>
            </g>
            <g id="Grupo_94543" data-name="Grupo 94543">
              <path id="Trazado_211517" data-name="Trazado 211517" d="M773.738,329.127h13.244V315.579H773.738Zm1.37-12.178h10.5v10.808h-10.5Z" transform="translate(-773.738 -315.579)" fill="#bba4a0"/>
            </g>
          </g>
          <path id="Trazado_211518" data-name="Trazado 211518" d="M785.783,331.72l2.4-.006c-.4-.317-.8-.636-1.218-.938l-.38-.273c-.117.168-.233.336-.349.5C786.078,331.236,785.936,331.482,785.783,331.72Z" transform="translate(-780.033 -322.952)" fill="#8bc53f"/>
          <path id="Trazado_211519" data-name="Trazado 211519" d="M791.765,315.014a8.661,8.661,0,0,0-.813.384c-.259.139-.532.264-.777.416s-.5.3-.739.452c-.483.31-.941.643-1.391.985s-.872.706-1.286,1.08c-.211.182-.4.382-.608.572s-.4.391-.588.591c-.392.395-.753.817-1.118,1.236s-.7.864-1.029,1.318c-.045.06-.086.125-.129.187l.38.273c.418.3.817.621,1.218.938l-2.4.006c.153-.238.3-.484.456-.714.116-.168.232-.337.349-.5-.082-.06-.162-.121-.247-.178-.215-.146-.424-.3-.643-.438l-.662-.419c-.221-.139-.438-.284-.673-.41a15.615,15.615,0,0,0-1.424-.746l-.168.157,2.027,2.258,2.052,2.234.138.15.142-.151,2.28-2.431c.379-.406.763-.807,1.133-1.222l1.118-1.235,2.238-2.469c.752-.818,1.474-1.662,2.209-2.5l-.168-.155A7.771,7.771,0,0,0,791.765,315.014Z" transform="translate(-776.733 -314.686)" fill="#8bc53f"/>
        </g>
        <g id="Grupo_94549" data-name="Grupo 94549" transform="translate(31.188 139.712)">
          <g id="Grupo_94548" data-name="Grupo 94548" transform="translate(0 0.426)">
            <g id="Grupo_94546" data-name="Grupo 94546" transform="translate(16.467 2.36)">
              <path id="Trazado_211520" data-name="Trazado 211520" d="M854.786,377.929H809.614a1.378,1.378,0,0,0,0,2.757h45.173a1.378,1.378,0,0,0,0-2.757Z" transform="translate(-808.236 -377.929)" fill="#d0d2d3"/>
              <path id="Trazado_211521" data-name="Trazado 211521" d="M854.786,392.686H809.614a1.378,1.378,0,0,0,0,2.756h45.173a1.378,1.378,0,0,0,0-2.756Z" transform="translate(-808.236 -385.642)" fill="#d0d2d3"/>
            </g>
            <g id="Grupo_94547" data-name="Grupo 94547">
              <path id="Trazado_211522" data-name="Trazado 211522" d="M773.738,386.533h13.244V372.985H773.738Zm1.37-12.178h10.5v10.808h-10.5Z" transform="translate(-773.738 -372.985)" fill="#bba4a0"/>
            </g>
          </g>
          <path id="Trazado_211523" data-name="Trazado 211523" d="M785.783,389.126l2.4-.006c-.4-.318-.8-.636-1.218-.938l-.38-.274c-.117.167-.233.336-.349.5C786.078,388.642,785.936,388.888,785.783,389.126Z" transform="translate(-780.033 -380.358)" fill="#8bc53f"/>
          <path id="Trazado_211524" data-name="Trazado 211524" d="M791.765,372.42a8.556,8.556,0,0,0-.813.384c-.259.138-.532.264-.777.415s-.5.3-.739.453c-.483.31-.941.643-1.391.985s-.872.706-1.286,1.08c-.211.182-.4.382-.608.572s-.4.391-.588.591c-.392.394-.753.817-1.118,1.236s-.7.864-1.029,1.318c-.045.06-.086.125-.129.187l.38.274c.418.3.817.62,1.218.938l-2.4.006c.153-.238.3-.484.456-.714.116-.168.232-.337.349-.5-.082-.06-.162-.121-.247-.179-.215-.145-.424-.3-.643-.438l-.662-.419c-.221-.139-.438-.284-.673-.41a15.615,15.615,0,0,0-1.424-.746l-.168.157,2.027,2.258,2.052,2.234.138.151.142-.151,2.28-2.43c.379-.406.763-.807,1.133-1.222l1.118-1.235,2.238-2.47c.752-.817,1.474-1.661,2.209-2.5l-.168-.155A7.7,7.7,0,0,0,791.765,372.42Z" transform="translate(-776.733 -372.092)" fill="#8bc53f"/>
        </g>
        <rect id="Rectángulo_39907" data-name="Rectángulo 39907" width="65.002" height="9.34" transform="translate(32.495 30.441)" fill="url(#linear-gradient-3)"/>
      </g>
      <g id="Grupo_94580" data-name="Grupo 94580" transform="translate(630.088 110.96)">
        <g id="Grupo_94561" data-name="Grupo 94561" transform="translate(0 0)">
          <g id="Grupo_94551" data-name="Grupo 94551" transform="translate(35.614 7.722)">
            <path id="Trazado_211525" data-name="Trazado 211525" d="M730.141,187.007l-1.915.2.613,7.569-8.079,1.841,1.426,2.981c2.285-.51,6.531-1.471,7.764-1.84a2.1,2.1,0,0,0,1.37-2.4Z" transform="translate(-720.76 -186.905)" fill="#f9c3c2"/>
            <path id="Trazado_211526" data-name="Trazado 211526" d="M732.651,186.793l-.949.1,1.179,8.357a2.1,2.1,0,0,1-1.37,2.4c-1.232.369-5.479,1.33-7.764,1.84l.824,1.723,8.8-1.739A3.031,3.031,0,0,0,734.9,196C734.389,193.441,732.651,186.793,732.651,186.793Z" transform="translate(-722.321 -186.793)" fill="#f9c3c2"/>
            <path id="Trazado_211527" data-name="Trazado 211527" d="M732.651,186.793l-.949.1,1.179,8.357a2.1,2.1,0,0,1-1.37,2.4c-1.232.369-5.479,1.33-7.764,1.84l.824,1.723,8.8-1.739A3.031,3.031,0,0,0,734.9,196C734.389,193.441,732.651,186.793,732.651,186.793Z" transform="translate(-722.321 -186.793)" fill="url(#linear-gradient-4)" style="mix-blend-mode: multiply;isolation: isolate"/>
          </g>
          <g id="Grupo_94556" data-name="Grupo 94556">
            <path id="Trazado_211528" data-name="Trazado 211528" d="M797.184,171.492l.632,2.229,1.985-1.342-.226-.794Z" transform="translate(-725.09 -171.073)" fill="#5b513c"/>
            <g id="Grupo_94552" data-name="Grupo 94552" transform="translate(61.4)">
              <path id="Trazado_211529" data-name="Trazado 211529" d="M774.779,170.615l0,.012.013,0,1.111,3.9,9.9-2.3-.336-1.185Z" transform="translate(-774.779 -170.615)" fill="#f0b89e"/>
              <path id="Trazado_211530" data-name="Trazado 211530" d="M777.141,176.279l1.338,4.692-.013,0,.013.037,8.862-5.993-.3-1.043Z" transform="translate(-776.014 -172.371)" fill="#f0b89e"/>
              <path id="Trazado_211531" data-name="Trazado 211531" d="M777.141,176.279l1.338,4.692-.013,0,.013.037,8.862-5.993-.3-1.043Z" transform="translate(-776.014 -172.371)" opacity="0.3" fill="url(#linear-gradient-5)" style="mix-blend-mode: darken;isolation: isolate"/>
            </g>
            <g id="Grupo_94553" data-name="Grupo 94553" transform="translate(0 16.574)">
              <path id="Trazado_211532" data-name="Trazado 211532" d="M649.828,205.336a4.252,4.252,0,0,0-.457.1,4.437,4.437,0,0,0-3.06,5.448l4.328-1.226-1.2-4.215Z" transform="translate(-646.151 -205.336)" fill="#ee2346"/>
              <path id="Trazado_211533" data-name="Trazado 211533" d="M650.816,214.4l-4.328,1.226c0,.011.006.024.009.035a4.437,4.437,0,0,0,5.483,3.051,4.5,4.5,0,0,0,.872-.352l-.839.239Z" transform="translate(-646.327 -210.073)" fill="#ee2346"/>
              <path id="Trazado_211534" data-name="Trazado 211534" d="M650.816,214.4l-4.328,1.226c0,.011.006.024.009.035a4.437,4.437,0,0,0,5.483,3.051,4.5,4.5,0,0,0,.872-.352l-.839.239Z" transform="translate(-646.327 -210.073)" opacity="0.3" fill="url(#linear-gradient-5)" style="mix-blend-mode: darken;isolation: isolate"/>
            </g>
            <path id="Trazado_211535" data-name="Trazado 211535" d="M774.786,170.637l1,3.979-.023.006.116.362.094.37.022-.008,1.239,3.884.013,0-2.448-8.591Z" transform="translate(-713.383 -170.625)" fill="#fdb740"/>
            <g id="Grupo_94555" data-name="Grupo 94555" transform="translate(3.229 0.012)">
              <path id="Trazado_211536" data-name="Trazado 211536" d="M653.315,203.165l-.4.115,2.449,8.591.857-.245,6.025-1.718-2.572-8.556Z" transform="translate(-652.916 -186.691)" fill="#fff"/>
              <g id="Grupo_94554" data-name="Grupo 94554" transform="translate(6.759)">
                <path id="Trazado_211537" data-name="Trazado 211537" d="M720.191,176.608l-.828-2.9-.873-3.064L667.075,185.3l.877,2.915.882,2.935.814,2.707,51.291-14.624Z" transform="translate(-667.075 -170.64)" fill="#f7941d"/>
                <path id="Trazado_211538" data-name="Trazado 211538" d="M668.912,191.569l.882,2.935,51.357-14.542-.828-2.9Z" transform="translate(-668.035 -173.995)" fill="#ffcf01"/>
              </g>
            </g>
          </g>
          <path id="Trazado_211539" data-name="Trazado 211539" d="M701.672,239.994a7.6,7.6,0,0,1-.409,4.858l11.607,2.71.358-6.647-4.653-1.585S700.956,237.488,701.672,239.994Z" transform="translate(-674.956 -206.189)" fill="url(#linear-gradient-7)"/>
          <path id="Trazado_211540" data-name="Trazado 211540" d="M705.273,190.664c.254-2.406-12.22-.76-12.22-.76s-1.857,4.2-1.034,6.859a13.019,13.019,0,0,0,6.163,1.562c3.831.095,9.4-2.089,9.4-2.089S705.02,193.07,705.273,190.664Z" transform="translate(-670.014 -180.41)" fill="url(#linear-gradient-8)"/>
          <path id="Trazado_211541" data-name="Trazado 211541" d="M700.578,192.319a1.52,1.52,0,1,0,1.519,1.52A1.519,1.519,0,0,0,700.578,192.319Z" transform="translate(-673.804 -181.959)" fill="#ffda8b"/>
          <path id="Trazado_211542" data-name="Trazado 211542" d="M707.467,201.635l-.991-3.75-3.176-.751.6,4.731-1.262.253-2.851.358,2.544,5.778,9.1-.2-.1-6.239Z" transform="translate(-674.186 -184.476)" fill="url(#linear-gradient-9)"/>
          <g id="Grupo_94557" data-name="Grupo 94557" transform="translate(12.624 18.199)">
            <path id="Trazado_211543" data-name="Trazado 211543" d="M688.074,217.287l-8.219,6.006,7.18,9.786.8-.548L681.5,223.94l7.057-4.909Z" transform="translate(-676.391 -213.208)" fill="#f9c3c2"/>
            <path id="Trazado_211544" data-name="Trazado 211544" d="M688.074,217.287l-8.219,6.006,7.18,9.786.8-.548L681.5,223.94l7.057-4.909Z" transform="translate(-676.391 -213.208)" fill="url(#linear-gradient-10)" style="mix-blend-mode: multiply;isolation: isolate"/>
            <path id="Trazado_211545" data-name="Trazado 211545" d="M683.159,208.741,672.9,216.814s-1.023,1.739.716,3.988,8.489,8.591,8.489,8.591l1.142-.781-7.18-9.786,8.219-6.006Z" transform="translate(-672.597 -208.741)" fill="#f9c3c2"/>
          </g>
          <path id="Trazado_211546" data-name="Trazado 211546" d="M676.9,363.271s-1.79,3.938-2.352,4.193a11.345,11.345,0,0,0-1.892,1.688l5.625-.205s.255-1.84.2-1.994.664-3.068.664-3.068Z" transform="translate(-660.006 -271.309)" fill="#785050"/>
          <path id="Trazado_211547" data-name="Trazado 211547" d="M716.269,367.549l-.358-3.324-2.864-.2.051,5.728h4.756A1.861,1.861,0,0,0,716.269,367.549Z" transform="translate(-681.115 -271.701)" fill="#785050"/>
          <path id="Trazado_211548" data-name="Trazado 211548" d="M731.054,179.253c-1.432,1.023-1.406,2.352-.9,2.582a11.367,11.367,0,0,0,4.3-.2c.9-.332.662-1.762.819-2.045C735.784,178.665,731.054,179.253,731.054,179.253Z" transform="translate(-689.891 -175.033)" fill="#ffda8b"/>
          <path id="Trazado_211549" data-name="Trazado 211549" d="M715.772,183.859l2.406,5.572c2.216-2.913-1.519-7.281-1.519-7.281Z" transform="translate(-682.539 -176.644)" fill="url(#linear-gradient-11)"/>
          <path id="Trazado_211550" data-name="Trazado 211550" d="M701.71,187.222s-.169,5.572,4.137,6.5,4.981-3.462,4.981-3.462l-1.688-6.078Z" transform="translate(-675.189 -177.707)" fill="url(#linear-gradient-7)"/>
          <path id="Trazado_211551" data-name="Trazado 211551" d="M693.487,185.529a4.961,4.961,0,0,0,3.42,1.2c2.469.127,8.166-4.648,8.166-4.648l.033-1.588C696.242,174.733,693.487,185.529,693.487,185.529Z" transform="translate(-670.891 -174.894)" fill="url(#linear-gradient-13)"/>
          <g id="Grupo_94558" data-name="Grupo 94558" transform="translate(23.111 17.253)">
            <path id="Trazado_211552" data-name="Trazado 211552" d="M716.146,223.176c-.016-.126-.038-.264-.064-.409a5.486,5.486,0,0,1-4.821.357c-4.224-1.313-7.364-2.112-7.25-.285.087,1.4,1.979,6.506,2.863,8.826a35.776,35.776,0,0,1,8.3,2.4l-1.023-7.21A3.877,3.877,0,0,0,716.146,223.176Z" transform="translate(-699.501 -214.605)" fill="#f9c3c2"/>
            <path id="Trazado_211553" data-name="Trazado 211553" d="M716.146,223.176c-.016-.126-.038-.264-.064-.409a5.486,5.486,0,0,1-4.821.357c-4.224-1.313-7.364-2.112-7.25-.285.087,1.4,1.979,6.506,2.863,8.826a35.776,35.776,0,0,1,8.3,2.4l-1.023-7.21A3.877,3.877,0,0,0,716.146,223.176Z" transform="translate(-699.501 -214.605)" fill="url(#linear-gradient-10)" style="mix-blend-mode: multiply;isolation: isolate"/>
            <path id="Trazado_211554" data-name="Trazado 211554" d="M705.958,206.759l-1.036,3.663-5.011-3.272-5.345.593s2.02,20.934,3.376,17.355c.469-1.238,2.085-1.484,4-1.278-.884-2.32-2.776-7.428-2.863-8.827-.115-1.827,3.025-1.028,7.25.285a5.486,5.486,0,0,0,4.821-.357,65.708,65.708,0,0,0-2.544-8.079Z" transform="translate(-694.566 -206.759)" fill="#f9c3c2"/>
          </g>
          <g id="Grupo_94559" data-name="Grupo 94559" transform="translate(15.371 38.96)">
            <path id="Trazado_211555" data-name="Trazado 211555" d="M685.487,261.944c0,6-7.134,43.2-7.134,43.2l3.407.545L694,267.753l0,.2,7.064-13.908-11.538-1.811A14.077,14.077,0,0,0,685.487,261.944Z" transform="translate(-678.353 -252.234)" fill="#8076b6"/>
            <path id="Trazado_211556" data-name="Trazado 211556" d="M718.211,256.029l-7.064,13.907.636,37.846h3.726l3.141-42.764-.16-8.946Z" transform="translate(-695.493 -254.218)" fill="#8076b6"/>
          </g>
          <g id="Grupo_94560" data-name="Grupo 94560" transform="translate(15.371 38.96)">
            <path id="Trazado_211557" data-name="Trazado 211557" d="M685.487,261.944c0,6-7.134,43.2-7.134,43.2l3.407.545L694,267.753l0,.2,7.064-13.908-11.538-1.811A14.077,14.077,0,0,0,685.487,261.944Z" transform="translate(-678.353 -252.234)" fill="url(#linear-gradient-15)"/>
            <path id="Trazado_211558" data-name="Trazado 211558" d="M718.211,256.029l-7.064,13.907.636,37.846h3.726l3.141-42.764-.16-8.946Z" transform="translate(-695.493 -254.218)" fill="url(#linear-gradient-16)"/>
          </g>
          <path id="Trazado_211559" data-name="Trazado 211559" d="M697.062,251.573a2.207,2.207,0,1,0-3.1,2.978l1.343,1.4a2.207,2.207,0,1,0,3.1-2.978Z" transform="translate(-670.678 -212.422)" fill="url(#linear-gradient-9)"/>
        </g>
        <g id="Grupo_94579" data-name="Grupo 94579" transform="translate(5.413 97.131)">
          <g id="Grupo_94569" data-name="Grupo 94569" transform="translate(11.874 2.74)">
            <g id="Grupo_94562" data-name="Grupo 94562">
              <path id="Trazado_211560" data-name="Trazado 211560" d="M683.721,380.378a.685.685,0,0,0-1.338.294l9.02,40.989a.685.685,0,0,0,.668.538.675.675,0,0,0,.147-.016.685.685,0,0,0,.522-.816Z" transform="translate(-682.367 -379.84)" fill="url(#linear-gradient-18)"/>
            </g>
            <g id="Grupo_94563" data-name="Grupo 94563" transform="translate(1.827 5.824)">
              <path id="Trazado_211561" data-name="Trazado 211561" d="M703.891,392.04H686.879a.685.685,0,1,0,0,1.37h17.012a.685.685,0,1,0,0-1.37Z" transform="translate(-686.194 -392.04)" fill="url(#linear-gradient-19)"/>
            </g>
            <g id="Grupo_94564" data-name="Grupo 94564" transform="translate(2.968 13.131)">
              <path id="Trazado_211562" data-name="Trazado 211562" d="M706.283,407.348H689.271a.685.685,0,0,0,0,1.37h17.012a.685.685,0,1,0,0-1.37Z" transform="translate(-688.586 -407.348)" fill="url(#linear-gradient-18)"/>
            </g>
            <g id="Grupo_94565" data-name="Grupo 94565" transform="translate(4.453 20.095)">
              <path id="Trazado_211563" data-name="Trazado 211563" d="M709.392,421.938H692.38a.685.685,0,1,0,0,1.37h17.012a.685.685,0,0,0,0-1.37Z" transform="translate(-691.695 -421.938)" fill="url(#linear-gradient-18)"/>
            </g>
            <g id="Grupo_94566" data-name="Grupo 94566" transform="translate(6.279 27.06)">
              <path id="Trazado_211564" data-name="Trazado 211564" d="M713.219,436.529H696.207a.685.685,0,1,0,0,1.37h17.012a.685.685,0,0,0,0-1.37Z" transform="translate(-695.522 -436.529)" fill="url(#linear-gradient-22)"/>
            </g>
            <g id="Grupo_94567" data-name="Grupo 94567" transform="translate(7.421 34.025)">
              <path id="Trazado_211565" data-name="Trazado 211565" d="M715.611,451.12H698.6a.685.685,0,1,0,0,1.37h17.012a.685.685,0,1,0,0-1.37Z" transform="translate(-697.914 -451.12)" fill="url(#linear-gradient-19)"/>
            </g>
            <g id="Grupo_94568" data-name="Grupo 94568" transform="translate(17.583)">
              <path id="Trazado_211566" data-name="Trazado 211566" d="M720.556,380.378a.685.685,0,0,0-1.338.294l9.02,40.989a.685.685,0,0,0,1.338-.295Z" transform="translate(-719.202 -379.84)" fill="url(#linear-gradient-18)"/>
            </g>
          </g>
          <g id="Grupo_94577" data-name="Grupo 94577" transform="translate(0 2.854)">
            <g id="Grupo_94570" data-name="Grupo 94570" transform="translate(7.764 5.824)">
              <path id="Trazado_211567" data-name="Trazado 211567" d="M691.453,392.279H674.441a.685.685,0,0,0,0,1.37h17.013a.685.685,0,0,0,0-1.37Z" transform="translate(-673.756 -392.279)" fill="url(#linear-gradient-18)"/>
            </g>
            <g id="Grupo_94571" data-name="Grupo 94571" transform="translate(6.622 13.131)">
              <path id="Trazado_211568" data-name="Trazado 211568" d="M689.061,407.587H672.049a.685.685,0,1,0,0,1.37h17.012a.685.685,0,1,0,0-1.37Z" transform="translate(-671.364 -407.587)" fill="url(#linear-gradient-22)"/>
            </g>
            <g id="Grupo_94572" data-name="Grupo 94572" transform="translate(5.138 20.096)">
              <path id="Trazado_211569" data-name="Trazado 211569" d="M685.952,422.178H668.94a.685.685,0,1,0,0,1.37h17.012a.685.685,0,1,0,0-1.37Z" transform="translate(-668.255 -422.178)" fill="url(#linear-gradient-19)"/>
            </g>
            <g id="Grupo_94573" data-name="Grupo 94573" transform="translate(3.311 27.06)">
              <path id="Trazado_211570" data-name="Trazado 211570" d="M682.125,436.768H665.113a.685.685,0,0,0,0,1.37h17.012a.685.685,0,0,0,0-1.37Z" transform="translate(-664.428 -436.768)" fill="url(#linear-gradient-18)"/>
            </g>
            <g id="Grupo_94574" data-name="Grupo 94574" transform="translate(2.169 34.025)">
              <path id="Trazado_211571" data-name="Trazado 211571" d="M679.733,451.359H662.721a.685.685,0,0,0,0,1.37h17.012a.685.685,0,0,0,0-1.37Z" transform="translate(-662.036 -451.359)" fill="url(#linear-gradient-18)"/>
            </g>
            <g id="Grupo_94575" data-name="Grupo 94575">
              <path id="Trazado_211572" data-name="Trazado 211572" d="M667.343,380.1a.682.682,0,0,0-.816.522l-9.02,40.989a.685.685,0,1,0,1.338.295l9.02-40.989A.685.685,0,0,0,667.343,380.1Z" transform="translate(-657.491 -380.078)" fill="url(#linear-gradient-18)"/>
            </g>
            <g id="Grupo_94576" data-name="Grupo 94576" transform="translate(17.583)">
              <path id="Trazado_211573" data-name="Trazado 211573" d="M704.178,380.1a.682.682,0,0,0-.816.522l-9.02,40.989a.685.685,0,1,0,1.338.295l9.02-40.989A.685.685,0,0,0,704.178,380.1Z" transform="translate(-694.326 -380.078)" fill="url(#linear-gradient-18)"/>
            </g>
          </g>
          <g id="Grupo_94578" data-name="Grupo 94578" transform="translate(5.48)">
            <path id="Trazado_211574" data-name="Trazado 211574" d="M695.689,374.1H671.256a2.284,2.284,0,0,0,0,4.567h24.434a2.284,2.284,0,1,0,0-4.567Z" transform="translate(-668.972 -374.1)" fill="url(#linear-gradient-18)"/>
          </g>
        </g>
      </g>
      <g id="Grupo_94585" data-name="Grupo 94585" transform="translate(792.034 205.198)">
        <g id="Grupo_94581" data-name="Grupo 94581" transform="translate(9.02)">
          <path id="Trazado_211575" data-name="Trazado 211575" d="M1007.057,368.04a2.74,2.74,0,0,0-2.74,2.74v43.044a2.74,2.74,0,0,0,5.48,0V370.78A2.74,2.74,0,0,0,1007.057,368.04Z" transform="translate(-1004.317 -368.04)" fill="#ea9285"/>
        </g>
        <g id="Grupo_94582" data-name="Grupo 94582" transform="translate(9.896 2.626)">
          <path id="Trazado_211576" data-name="Trazado 211576" d="M1017.645,373.542a2.74,2.74,0,0,0-2.74,2.74v5.024a.631.631,0,0,0,0,.069c-.043,1.758-1.759,1.758-2.407,1.758h-3.606a2.74,2.74,0,1,0,0,5.48h3.606a7.841,7.841,0,0,0,5.878-2.229,7.53,7.53,0,0,0,2.009-5.1v-5.005A2.74,2.74,0,0,0,1017.645,373.542Z" transform="translate(-1006.151 -373.542)" fill="#ea9285"/>
        </g>
        <g id="Grupo_94583" data-name="Grupo 94583" transform="translate(9.896 21.008)">
          <path id="Trazado_211577" data-name="Trazado 211577" d="M1017.645,412.05a2.741,2.741,0,0,0-2.74,2.74v5.024a.641.641,0,0,0,0,.069c-.043,1.758-1.759,1.758-2.407,1.758h-3.606a2.74,2.74,0,1,0,0,5.48h3.606a7.842,7.842,0,0,0,5.878-2.229,7.531,7.531,0,0,0,2.009-5.1V414.79A2.741,2.741,0,0,0,1017.645,412.05Z" transform="translate(-1006.151 -412.05)" fill="#ea9285"/>
        </g>
        <g id="Grupo_94584" data-name="Grupo 94584" transform="translate(0 10.504)">
          <path id="Trazado_211578" data-name="Trazado 211578" d="M996.419,398.495h-4.377c-.646,0-1.108-.062-1.141-.854a.431.431,0,0,0,0-.06v-4.8a2.74,2.74,0,0,0-5.48,0v4.767a6.6,6.6,0,0,0,1.771,4.542,6.5,6.5,0,0,0,4.851,1.88h4.377a2.74,2.74,0,0,0,0-5.48Z" transform="translate(-985.42 -390.046)" fill="#ea9285"/>
        </g>
      </g>
      <g id="Grupo_94589" data-name="Grupo 94589" transform="translate(615.417 224.304)">
        <g id="Grupo_94586" data-name="Grupo 94586" transform="translate(5.426)">
          <path id="Trazado_211579" data-name="Trazado 211579" d="M628.434,408.065a1.649,1.649,0,0,0-1.649,1.649v25.893a1.649,1.649,0,1,0,3.3,0V409.714A1.649,1.649,0,0,0,628.434,408.065Z" transform="translate(-626.785 -408.065)" fill="#ea9285"/>
        </g>
        <g id="Grupo_94587" data-name="Grupo 94587" transform="translate(5.953 1.58)">
          <path id="Trazado_211580" data-name="Trazado 211580" d="M634.8,411.375a1.648,1.648,0,0,0-1.649,1.648v3.022a.366.366,0,0,0,0,.042c-.026,1.057-1.058,1.057-1.448,1.057h-2.17a1.649,1.649,0,0,0,0,3.3h2.17a4.717,4.717,0,0,0,3.536-1.341,4.528,4.528,0,0,0,1.209-3.066v-3.011A1.648,1.648,0,0,0,634.8,411.375Z" transform="translate(-627.889 -411.375)" fill="#ea9285"/>
        </g>
        <g id="Grupo_94588" data-name="Grupo 94588" transform="translate(0 6.319)">
          <path id="Trazado_211581" data-name="Trazado 211581" d="M622.034,426.386H619.4c-.389,0-.666-.038-.686-.514a.3.3,0,0,0,0-.035v-2.885a1.649,1.649,0,0,0-3.3,0v2.868a3.974,3.974,0,0,0,1.065,2.732,3.91,3.91,0,0,0,2.918,1.131h2.633a1.648,1.648,0,1,0,0-3.3Z" transform="translate(-615.417 -421.303)" fill="#ea9285"/>
        </g>
      </g>
      <path id="Trazado_211582" data-name="Trazado 211582" d="M819.638,464.514H620.822a1.522,1.522,0,1,0,0,3.045H819.638a1.522,1.522,0,1,0,0-3.045Z" transform="translate(-2.029 -213.265)" fill="#ea9285"/>
    </g>
  </g>
</svg>
