<?xml version="1.0" encoding="utf-8"?>
<!-- Generator: Adobe Illustrator 26.0.0, SVG Export Plug-In . SVG Version: 6.00 Build 0)  -->
<svg version="1.1" id="Capa_1" xmlns="http://www.w3.org/2000/svg" xmlns:xlink="http://www.w3.org/1999/xlink" x="0px" y="0px"
	 viewBox="0 0 295 387.7" style="enable-background:new 0 0 295 387.7;" xml:space="preserve">
<style type="text/css">
	.st0{opacity:0.25;fill:#5279BA;enable-background:new    ;}
	.st1{fill:#FFFFFF;}
	.st2{enable-background:new    ;}
	.st3{fill:#12263F;}
	.st4{fill:#5279BA;}
	.st5{fill:#263238;}
	.st6{fill:#FFBF9D;}
	.st7{fill:#FF9A6C;}
	.st8{fill:#455A64;}
	.st9{opacity:0.1;}
	.st10{fill:#FD8F25;}
	.st11{fill:#E0E0E0;}
	.st12{fill:#BBABF5;}
	.st13{opacity:0.3;}
	.st14{opacity:0.2;}
	.st15{fill:#472EA6;}
</style>
<path id="Trazado_165307" class="st0" d="M0.4,51.9v291.9c0,8.5,7.9,15.4,17.6,15.4h85l26.7,0c0.7,0.4,1.7,1.1,2.4,1.5l14.3,26.6
	c0.7,0.4,1.7,0.4,2.4,0l14.3-26.6c0.7-0.4,1.7-1.1,2.4-1.5l26.7,0h85c9.7,0,17.6-6.9,17.6-15.4V51.9H0.4z"/>
<path id="Rectángulo_34550" class="st1" d="M14,52.1h267l0,0v269c0,12.2-9.8,22-22,22H36c-12.2,0-22-9.8-22-22V52.1L14,52.1z"/>
<g class="st2">
	<path class="st3" d="M52.3,271.6c0,1.1-0.2,2.1-0.6,2.9s-0.9,1.5-1.6,1.9s-1.5,0.7-2.4,0.7c-0.9,0-1.7-0.2-2.4-0.7
		c-0.7-0.4-1.2-1.1-1.6-1.9s-0.6-1.8-0.6-2.8v-0.8c0-1.1,0.2-2.1,0.6-2.9c0.4-0.8,0.9-1.5,1.6-1.9s1.5-0.7,2.4-0.7
		c0.9,0,1.7,0.2,2.4,0.7s1.2,1.1,1.6,1.9s0.6,1.8,0.6,2.9V271.6z M50.8,270.9c0-1.3-0.3-2.4-0.8-3.1c-0.5-0.7-1.3-1.1-2.3-1.1
		c-0.9,0-1.7,0.4-2.2,1.1c-0.5,0.7-0.8,1.7-0.8,3v0.8c0,1.3,0.3,2.3,0.8,3.1c0.5,0.7,1.3,1.1,2.3,1.1c1,0,1.7-0.4,2.2-1.1
		s0.8-1.7,0.8-3V270.9z"/>
	<path class="st3" d="M55,276.9v-7.3h-1.3v-1.1H55v-0.9c0-0.9,0.2-1.6,0.7-2.1s1.2-0.7,2.1-0.7c0.3,0,0.7,0,1,0.1l-0.1,1.2
		c-0.2,0-0.5-0.1-0.8-0.1c-0.5,0-0.8,0.1-1.1,0.4c-0.3,0.3-0.4,0.7-0.4,1.2v0.9h1.8v1.1h-1.8v7.3H55z"/>
	<path class="st3" d="M63.9,269.8c-0.2,0-0.5-0.1-0.7-0.1c-0.9,0-1.6,0.4-1.9,1.2v6h-1.4v-8.5h1.4l0,1c0.5-0.8,1.1-1.1,2-1.1
		c0.3,0,0.5,0,0.6,0.1V269.8z"/>
	<path class="st3" d="M68.8,277.1c-1.1,0-2.1-0.4-2.8-1.1s-1.1-1.8-1.1-3v-0.3c0-0.8,0.2-1.6,0.5-2.2s0.8-1.2,1.3-1.5
		c0.6-0.4,1.2-0.6,1.9-0.6c1.1,0,2,0.4,2.6,1.1s0.9,1.8,0.9,3.1v0.6h-5.7c0,0.8,0.3,1.5,0.7,2c0.5,0.5,1.1,0.8,1.8,0.8
		c0.5,0,0.9-0.1,1.3-0.3c0.4-0.2,0.7-0.5,0.9-0.8l0.9,0.7C71.3,276.5,70.2,277.1,68.8,277.1z M68.6,269.5c-0.6,0-1.1,0.2-1.5,0.6
		c-0.4,0.4-0.6,1-0.7,1.8h4.2v-0.1c0-0.7-0.2-1.3-0.6-1.7C69.7,269.7,69.2,269.5,68.6,269.5z"/>
	<path class="st3" d="M77.1,275.9c0.5,0,1-0.2,1.4-0.5c0.4-0.3,0.6-0.7,0.6-1.2h1.4c0,0.5-0.2,0.9-0.5,1.4c-0.3,0.4-0.7,0.8-1.2,1
		c-0.5,0.3-1.1,0.4-1.6,0.4c-1.2,0-2.1-0.4-2.7-1.2s-1-1.8-1-3.2v-0.2c0-0.8,0.2-1.6,0.5-2.2c0.3-0.6,0.7-1.1,1.3-1.5
		c0.6-0.4,1.2-0.5,2-0.5c0.9,0,1.7,0.3,2.4,0.9c0.6,0.6,1,1.3,1,2.2h-1.4c0-0.5-0.2-1-0.6-1.3c-0.4-0.4-0.8-0.5-1.4-0.5
		c-0.7,0-1.3,0.3-1.7,0.8c-0.4,0.5-0.6,1.3-0.6,2.3v0.3c0,1,0.2,1.7,0.6,2.2C75.8,275.6,76.4,275.9,77.1,275.9z"/>
	<path class="st3" d="M85.6,277.1c-1.1,0-2.1-0.4-2.8-1.1s-1.1-1.8-1.1-3v-0.3c0-0.8,0.2-1.6,0.5-2.2s0.8-1.2,1.3-1.5
		c0.6-0.4,1.2-0.6,1.9-0.6c1.1,0,2,0.4,2.6,1.1s0.9,1.8,0.9,3.1v0.6h-5.7c0,0.8,0.3,1.5,0.7,2c0.5,0.5,1.1,0.8,1.8,0.8
		c0.5,0,0.9-0.1,1.3-0.3c0.4-0.2,0.7-0.5,0.9-0.8l0.9,0.7C88.1,276.5,87,277.1,85.6,277.1z M85.4,269.5c-0.6,0-1.1,0.2-1.5,0.6
		c-0.4,0.4-0.6,1-0.7,1.8h4.2v-0.1c0-0.7-0.2-1.3-0.6-1.7C86.5,269.7,86,269.5,85.4,269.5z"/>
	<path class="st3" d="M92,268.5l0,1.1c0.6-0.8,1.5-1.2,2.5-1.2c1.8,0,2.7,1,2.7,3v5.6h-1.4v-5.6c0-0.6-0.1-1.1-0.4-1.4
		s-0.7-0.4-1.3-0.4c-0.5,0-0.9,0.1-1.2,0.4c-0.4,0.2-0.6,0.6-0.8,1v6h-1.4v-8.5H92z"/>
	<path class="st3" d="M108.6,276.1c-0.6,0.7-1.4,1-2.5,1c-0.9,0-1.6-0.3-2.1-0.8c-0.5-0.5-0.7-1.3-0.7-2.3v-5.5h1.4v5.5
		c0,1.3,0.5,1.9,1.6,1.9c1.1,0,1.8-0.4,2.2-1.2v-6.1h1.4v8.5h-1.4L108.6,276.1z"/>
	<path class="st3" d="M113.6,268.5l0,1.1c0.6-0.8,1.5-1.2,2.5-1.2c1.8,0,2.7,1,2.7,3v5.6h-1.4v-5.6c0-0.6-0.1-1.1-0.4-1.4
		s-0.7-0.4-1.3-0.4c-0.5,0-0.9,0.1-1.2,0.4c-0.4,0.2-0.6,0.6-0.8,1v6h-1.4v-8.5H113.6z"/>
	<path class="st3" d="M132.1,272.8c0,1.3-0.3,2.3-0.9,3.1c-0.6,0.8-1.4,1.2-2.4,1.2c-1,0-1.8-0.3-2.4-1v4.1H125v-11.7h1.3l0.1,0.9
		c0.6-0.7,1.4-1.1,2.5-1.1c1,0,1.8,0.4,2.4,1.1c0.6,0.8,0.9,1.8,0.9,3.2V272.8z M130.7,272.6c0-1-0.2-1.7-0.6-2.3s-1-0.8-1.7-0.8
		c-0.9,0-1.5,0.4-2,1.2v4c0.4,0.8,1.1,1.2,2,1.2c0.7,0,1.2-0.3,1.7-0.8C130.5,274.5,130.7,273.7,130.7,272.6z"/>
	<path class="st3" d="M138.1,269.8c-0.2,0-0.5-0.1-0.7-0.1c-0.9,0-1.6,0.4-1.9,1.2v6H134v-8.5h1.4l0,1c0.5-0.8,1.1-1.1,2-1.1
		c0.3,0,0.5,0,0.6,0.1V269.8z"/>
	<path class="st3" d="M138.8,272.6c0-0.8,0.2-1.6,0.5-2.2c0.3-0.7,0.8-1.2,1.4-1.5c0.6-0.4,1.2-0.5,2-0.5c1.2,0,2.1,0.4,2.8,1.2
		s1.1,1.9,1.1,3.2v0.1c0,0.8-0.2,1.6-0.5,2.2c-0.3,0.7-0.8,1.2-1.4,1.5s-1.3,0.5-2,0.5c-1.1,0-2.1-0.4-2.8-1.2s-1.1-1.9-1.1-3.2
		V272.6z M140.3,272.8c0,0.9,0.2,1.7,0.7,2.3c0.4,0.6,1,0.9,1.7,0.9c0.7,0,1.3-0.3,1.8-0.9c0.4-0.6,0.6-1.4,0.6-2.4
		c0-0.9-0.2-1.7-0.7-2.3c-0.4-0.6-1-0.9-1.8-0.9c-0.7,0-1.3,0.3-1.7,0.9S140.3,271.7,140.3,272.8z"/>
	<path class="st3" d="M148,272.6c0-1.3,0.3-2.3,0.9-3.1s1.4-1.2,2.4-1.2c1,0,1.8,0.3,2.4,1v-4.4h1.4v12h-1.3l-0.1-0.9
		c-0.6,0.7-1.4,1.1-2.4,1.1c-1,0-1.8-0.4-2.4-1.2s-0.9-1.8-0.9-3.1V272.6z M149.4,272.8c0,1,0.2,1.7,0.6,2.2s0.9,0.8,1.6,0.8
		c0.9,0,1.6-0.4,2-1.2v-3.9c-0.4-0.8-1.1-1.2-2-1.2c-0.7,0-1.3,0.3-1.7,0.8S149.4,271.7,149.4,272.8z"/>
	<path class="st3" d="M162.6,276.1c-0.6,0.7-1.4,1-2.5,1c-0.9,0-1.6-0.3-2.1-0.8s-0.7-1.3-0.7-2.3v-5.5h1.4v5.5
		c0,1.3,0.5,1.9,1.6,1.9c1.1,0,1.8-0.4,2.2-1.2v-6.1h1.4v8.5h-1.4L162.6,276.1z"/>
	<path class="st3" d="M169.6,275.9c0.5,0,1-0.2,1.4-0.5s0.6-0.7,0.6-1.2h1.4c0,0.5-0.2,0.9-0.5,1.4s-0.7,0.8-1.2,1s-1.1,0.4-1.6,0.4
		c-1.2,0-2.1-0.4-2.7-1.2s-1-1.8-1-3.2v-0.2c0-0.8,0.2-1.6,0.5-2.2s0.7-1.1,1.3-1.5s1.2-0.5,2-0.5c0.9,0,1.7,0.3,2.4,0.9
		s1,1.3,1,2.2h-1.4c0-0.5-0.2-1-0.6-1.3s-0.8-0.5-1.4-0.5c-0.7,0-1.3,0.3-1.7,0.8s-0.6,1.3-0.6,2.3v0.3c0,1,0.2,1.7,0.6,2.2
		S168.8,275.9,169.6,275.9z"/>
	<path class="st3" d="M176.5,266.4v2h1.6v1.1h-1.6v5.2c0,0.3,0.1,0.6,0.2,0.8c0.1,0.2,0.4,0.3,0.7,0.3c0.2,0,0.4,0,0.7-0.1v1.2
		c-0.4,0.1-0.8,0.2-1.1,0.2c-0.6,0-1.1-0.2-1.5-0.6s-0.5-0.9-0.5-1.7v-5.2h-1.5v-1.1h1.5v-2H176.5z"/>
	<path class="st3" d="M179.3,272.6c0-0.8,0.2-1.6,0.5-2.2s0.8-1.2,1.4-1.5s1.2-0.5,2-0.5c1.2,0,2.1,0.4,2.8,1.2s1.1,1.9,1.1,3.2v0.1
		c0,0.8-0.2,1.6-0.5,2.2s-0.8,1.2-1.4,1.5s-1.3,0.5-2,0.5c-1.1,0-2.1-0.4-2.8-1.2s-1.1-1.9-1.1-3.2V272.6z M180.7,272.8
		c0,0.9,0.2,1.7,0.7,2.3s1,0.9,1.7,0.9c0.7,0,1.3-0.3,1.8-0.9s0.6-1.4,0.6-2.4c0-0.9-0.2-1.7-0.7-2.3s-1-0.9-1.8-0.9
		c-0.7,0-1.3,0.3-1.7,0.9S180.7,271.7,180.7,272.8z"/>
	<path class="st3" d="M194.7,266.4v2h1.6v1.1h-1.6v5.2c0,0.3,0.1,0.6,0.2,0.8c0.1,0.2,0.4,0.3,0.7,0.3c0.2,0,0.4,0,0.7-0.1v1.2
		c-0.4,0.1-0.8,0.2-1.1,0.2c-0.6,0-1.1-0.2-1.5-0.6s-0.5-0.9-0.5-1.7v-5.2h-1.5v-1.1h1.5v-2H194.7z"/>
	<path class="st3" d="M203.2,276.9c-0.1-0.2-0.2-0.5-0.2-0.9c-0.7,0.7-1.5,1-2.4,1c-0.8,0-1.5-0.2-2.1-0.7s-0.8-1.1-0.8-1.8
		c0-0.9,0.3-1.6,1-2.1s1.6-0.7,2.8-0.7h1.4v-0.7c0-0.5-0.2-0.9-0.5-1.2s-0.7-0.4-1.3-0.4c-0.5,0-0.9,0.1-1.3,0.4s-0.5,0.6-0.5,0.9
		h-1.5c0-0.4,0.1-0.8,0.4-1.2s0.7-0.7,1.2-0.9s1.1-0.3,1.7-0.3c1,0,1.7,0.2,2.3,0.7s0.8,1.2,0.9,2v3.9c0,0.8,0.1,1.4,0.3,1.9v0.1
		H203.2z M200.8,275.8c0.5,0,0.9-0.1,1.3-0.4s0.7-0.5,0.9-0.9v-1.7h-1.1c-1.8,0-2.7,0.5-2.7,1.6c0,0.5,0.2,0.8,0.5,1.1
		S200.3,275.8,200.8,275.8z"/>
	<path class="st3" d="M208,268.5l0,1.1c0.6-0.8,1.5-1.2,2.5-1.2c1.8,0,2.7,1,2.7,3v5.6h-1.4v-5.6c0-0.6-0.1-1.1-0.4-1.4
		s-0.7-0.4-1.3-0.4c-0.5,0-0.9,0.1-1.2,0.4s-0.6,0.6-0.8,1v6h-1.4v-8.5H208z"/>
	<path class="st3" d="M215.1,272.6c0-1.3,0.3-2.4,0.9-3.1s1.4-1.2,2.4-1.2c1,0,1.8,0.4,2.4,1.1l0.1-0.9h1.3v8.2c0,1.1-0.3,2-1,2.6
		s-1.5,0.9-2.6,0.9c-0.6,0-1.2-0.1-1.8-0.4s-1-0.6-1.3-1.1l0.8-0.9c0.6,0.8,1.4,1.1,2.3,1.1c0.7,0,1.3-0.2,1.6-0.6s0.6-1,0.6-1.7
		v-0.7c-0.6,0.7-1.4,1-2.4,1c-1,0-1.8-0.4-2.4-1.2S215.1,274,215.1,272.6z M216.6,272.8c0,1,0.2,1.7,0.6,2.2s0.9,0.8,1.6,0.8
		c0.9,0,1.6-0.4,2-1.2v-3.9c-0.4-0.8-1.1-1.2-2-1.2c-0.7,0-1.3,0.3-1.6,0.8S216.6,271.7,216.6,272.8z"/>
	<path class="st3" d="M224.5,266.2c0-0.2,0.1-0.4,0.2-0.6s0.4-0.2,0.6-0.2s0.5,0.1,0.6,0.2s0.2,0.4,0.2,0.6s-0.1,0.4-0.2,0.6
		s-0.4,0.2-0.6,0.2s-0.5-0.1-0.6-0.2S224.5,266.5,224.5,266.2z M226,276.9h-1.4v-8.5h1.4V276.9z"/>
	<path class="st3" d="M235.5,272.8c0,1.3-0.3,2.3-0.9,3.1s-1.4,1.2-2.4,1.2c-1.1,0-1.9-0.4-2.5-1.1l-0.1,1h-1.3v-12h1.4v4.5
		c0.6-0.7,1.4-1.1,2.4-1.1s1.8,0.4,2.4,1.2s0.9,1.8,0.9,3.2V272.8z M234.1,272.6c0-1-0.2-1.7-0.6-2.3s-0.9-0.8-1.6-0.8
		c-1,0-1.6,0.4-2.1,1.3v3.7c0.4,0.9,1.1,1.3,2.1,1.3c0.7,0,1.2-0.3,1.6-0.8S234.1,273.7,234.1,272.6z"/>
	<path class="st3" d="M238.9,276.9h-1.4v-12h1.4V276.9z"/>
	<path class="st3" d="M244.7,277.1c-1.1,0-2.1-0.4-2.8-1.1s-1.1-1.8-1.1-3v-0.3c0-0.8,0.2-1.6,0.5-2.2s0.8-1.2,1.3-1.5
		s1.2-0.6,1.9-0.6c1.1,0,2,0.4,2.6,1.1s0.9,1.8,0.9,3.1v0.6h-5.7c0,0.8,0.3,1.5,0.7,2s1.1,0.8,1.8,0.8c0.5,0,0.9-0.1,1.3-0.3
		s0.7-0.5,0.9-0.8l0.9,0.7C247.2,276.5,246.1,277.1,244.7,277.1z M244.5,269.5c-0.6,0-1.1,0.2-1.5,0.6s-0.6,1-0.7,1.8h4.2v-0.1
		c0-0.7-0.2-1.3-0.6-1.7S245.1,269.5,244.5,269.5z"/>
	<path class="st3" d="M249.7,276.2c0-0.2,0.1-0.5,0.2-0.6s0.4-0.2,0.7-0.2s0.5,0.1,0.7,0.2s0.2,0.4,0.2,0.6c0,0.2-0.1,0.4-0.2,0.6
		s-0.4,0.2-0.7,0.2s-0.5-0.1-0.7-0.2S249.7,276.4,249.7,276.2z"/>
</g>
<path id="Rectángulo_34551" class="st4" d="M22,0h251c12.2,0,22,9.8,22,22v29.9l0,0H0l0,0V22C0,9.8,9.8,0,22,0z"/>
<g class="st2">
	<path class="st1" d="M109.8,27.5V32h-2.6V19.2h5c1,0,1.8,0.2,2.5,0.5s1.3,0.9,1.7,1.5c0.4,0.6,0.6,1.4,0.6,2.2c0,1.3-0.4,2.2-1.3,3
		s-2,1.1-3.6,1.1H109.8z M109.8,25.4h2.4c0.7,0,1.2-0.2,1.6-0.5s0.5-0.8,0.5-1.4c0-0.6-0.2-1.1-0.6-1.5s-0.9-0.6-1.5-0.6h-2.4V25.4z
		"/>
	<path class="st1" d="M124,24.9c-0.3,0-0.7-0.1-0.9-0.1c-1,0-1.6,0.3-1.9,1V32h-2.5v-9.5h2.4l0.1,1.1c0.5-0.9,1.2-1.3,2.1-1.3
		c0.3,0,0.5,0,0.8,0.1L124,24.9z"/>
	<path class="st1" d="M124.5,27.2c0-0.9,0.2-1.8,0.5-2.5s0.9-1.3,1.6-1.7s1.5-0.6,2.4-0.6c1.3,0,2.3,0.4,3.1,1.2s1.3,1.9,1.4,3.2
		l0,0.7c0,1.5-0.4,2.6-1.2,3.5s-1.9,1.3-3.3,1.3s-2.5-0.4-3.3-1.3s-1.2-2.1-1.2-3.6V27.2z M127,27.3c0,0.9,0.2,1.6,0.5,2.1
		c0.3,0.5,0.8,0.7,1.5,0.7c0.6,0,1.1-0.2,1.4-0.7c0.3-0.5,0.5-1.2,0.5-2.3c0-0.9-0.2-1.6-0.5-2.1s-0.8-0.7-1.5-0.7
		c-0.6,0-1.1,0.2-1.4,0.7C127.2,25.6,127,26.3,127,27.3z"/>
	<path class="st1" d="M134.7,27.2c0-1.5,0.3-2.7,1-3.5s1.6-1.3,2.7-1.3c0.9,0,1.7,0.3,2.3,1v-4.9h2.5V32h-2.3l-0.1-1
		c-0.6,0.8-1.4,1.2-2.4,1.2c-1.1,0-2-0.4-2.7-1.3S134.7,28.7,134.7,27.2z M137.2,27.4c0,0.9,0.2,1.6,0.5,2.1s0.8,0.7,1.4,0.7
		c0.8,0,1.3-0.3,1.7-1v-3.8c-0.3-0.7-0.9-1-1.6-1C137.8,24.4,137.2,25.4,137.2,27.4z"/>
	<path class="st1" d="M150.9,31c-0.6,0.8-1.5,1.1-2.6,1.1c-1,0-1.8-0.3-2.3-0.9s-0.8-1.4-0.8-2.6v-6.2h2.5v6.2c0,1,0.5,1.5,1.4,1.5
		c0.9,0,1.5-0.3,1.8-0.9v-6.7h2.5V32H151L150.9,31z"/>
	<path class="st1" d="M159.2,30.1c0.5,0,0.8-0.1,1.1-0.4s0.4-0.6,0.5-1h2.4c0,0.6-0.2,1.2-0.5,1.8c-0.3,0.5-0.8,1-1.4,1.2
		c-0.6,0.3-1.3,0.4-2,0.4c-1.4,0-2.4-0.4-3.2-1.3c-0.8-0.9-1.2-2.1-1.2-3.6v-0.2c0-1.5,0.4-2.6,1.2-3.5s1.8-1.3,3.2-1.3
		c1.2,0,2.1,0.3,2.9,1c0.7,0.7,1.1,1.6,1.1,2.7h-2.4c0-0.5-0.2-0.9-0.5-1.2s-0.7-0.5-1.2-0.5c-0.6,0-1,0.2-1.3,0.6
		c-0.3,0.4-0.5,1.1-0.5,2.1v0.3c0,1,0.1,1.7,0.4,2.1S158.6,30.1,159.2,30.1z"/>
	<path class="st1" d="M167.7,20.2v2.3h1.6v1.9h-1.6v4.7c0,0.4,0.1,0.6,0.2,0.8s0.4,0.2,0.8,0.2c0.3,0,0.5,0,0.7-0.1v1.9
		c-0.5,0.2-1,0.2-1.5,0.2c-1.8,0-2.7-0.9-2.7-2.7v-5.1h-1.4v-1.9h1.4v-2.3H167.7z"/>
	<path class="st1" d="M170.1,27.2c0-0.9,0.2-1.8,0.5-2.5s0.9-1.3,1.6-1.7s1.5-0.6,2.4-0.6c1.3,0,2.3,0.4,3.1,1.2s1.3,1.9,1.4,3.2
		l0,0.7c0,1.5-0.4,2.6-1.2,3.5s-1.9,1.3-3.3,1.3s-2.5-0.4-3.3-1.3s-1.2-2.1-1.2-3.6V27.2z M172.6,27.3c0,0.9,0.2,1.6,0.5,2.1
		c0.3,0.5,0.8,0.7,1.5,0.7c0.6,0,1.1-0.2,1.4-0.7c0.3-0.5,0.5-1.2,0.5-2.3c0-0.9-0.2-1.6-0.5-2.1s-0.8-0.7-1.5-0.7
		c-0.6,0-1.1,0.2-1.4,0.7C172.8,25.6,172.6,26.3,172.6,27.3z"/>
	<path class="st1" d="M185.8,29.4c0-0.3-0.2-0.6-0.5-0.7s-0.8-0.3-1.5-0.5c-2.3-0.5-3.4-1.4-3.4-2.9c0-0.8,0.4-1.5,1.1-2.1
		c0.7-0.6,1.6-0.8,2.7-0.8c1.2,0,2.2,0.3,2.9,0.9s1.1,1.3,1.1,2.2h-2.5c0-0.4-0.1-0.7-0.4-0.9c-0.2-0.2-0.6-0.4-1.1-0.4
		c-0.4,0-0.8,0.1-1,0.3s-0.4,0.4-0.4,0.7c0,0.3,0.1,0.5,0.4,0.7c0.3,0.2,0.7,0.3,1.3,0.4s1.2,0.3,1.6,0.4c1.3,0.5,2,1.3,2,2.6
		c0,0.9-0.4,1.6-1.1,2.1c-0.7,0.5-1.7,0.8-2.9,0.8c-0.8,0-1.5-0.1-2.1-0.4c-0.6-0.3-1.1-0.7-1.5-1.2c-0.4-0.5-0.5-1-0.5-1.6h2.4
		c0,0.5,0.2,0.8,0.5,1s0.7,0.4,1.2,0.4c0.5,0,0.9-0.1,1.1-0.3C185.7,29.9,185.8,29.7,185.8,29.4z"/>
</g>
<g id="Grupo_94115" transform="translate(256.409 1149.624)">
	<g id="Grupo_93906" transform="translate(117.739 69.639)">
		<g id="Grupo_93901" transform="translate(0 0)">
			<g id="Grupo_93895">
				<g id="Grupo_93734" transform="translate(34.901 12.939)">
					<g id="Grupo_93733">
						<g id="Grupo_93732">
							<g id="Grupo_93731">
								<path id="Trazado_210543" class="st5" d="M-261.9-1147c4.7-0.1,9.2,7.2,8.7,11.4c-0.2,2-0.9,4.4,0.7,5.8
									c1.6,1.4,4.8,1.2,6.4,2.6c1.2,1.2,1.9,2.8,1.9,4.5c-0.1,2.6,0.5,6,2.5,6.8l-9.3,4c-1-1-1.5-2.7-2.6-3.7
									c1.2,1.1,2.5,5-2.6,5.6l-3.3-2.8c-8.5,2.7-17.5,6-24.6,2.3"/>
							</g>
						</g>
					</g>
				</g>
				<g id="Grupo_93738" transform="translate(12.951)">
					<g id="Grupo_93737">
						<g id="Grupo_93736">
							<g id="Grupo_93735">
								<path id="Trazado_210544" class="st5" d="M-284-1109.8c0.6-2,1.6-3.8,1.9-5.8c0.8-4.3-1.5-9.1,0.5-13
									c1.4-2.8,4.5-4.2,7.4-5.2c2.9-1,5.8-1.7,7.9-3.9c1.6-1.7,2.4-3.9,4-5.6c2.2-2.4,5.6-3.3,8.9-3.6c3.3-0.4,6.7,0,9.8,1.3
									c3.1,1.3,5.5,4,6.3,7.3c0.3,1.6,0.2,3.3,0.7,4.8c0.6,1.7,2,3,2.9,4.5c1.8,3.5,1.1,7.7-1.8,10.3l-22,30.3
									c-4.8,2-10.3-3.9-14.2-7.4C-275.4-1099-285.4-1104.9-284-1109.8z"/>
							</g>
						</g>
					</g>
				</g>
				<g id="Grupo_93740" transform="translate(25.072 11.519)">
					<g id="Grupo_93739">
						<path id="Trazado_210545" class="st6" d="M-248.2-1133.8c-1.2-6.7-6.5-14.5-13.2-13l-20.4,7.6c-2,0.4-3,2.1-1.8,1.6l6.6,48.6
							l14.3,9.7l8.2-12.1c-0.4-4.1-0.6-7-0.6-7s8.5-1.6,9.1-13C-245.7-1117.2-246.9-1126.4-248.2-1133.8z"/>
					</g>
				</g>
				<g id="Grupo_93890" transform="translate(37.22 23.051)">
					<g id="Grupo_93889">
						<g id="Grupo_93852" transform="translate(0.669 5.46)">
							<g id="Grupo_93851">
								<g id="Grupo_93850">
									<g id="Grupo_93793" transform="translate(2.832)">
										<g id="Grupo_93757" transform="translate(0 6.608)">
											<g id="Grupo_93756">
												<g id="Grupo_93755">
													<g id="Grupo_93754">
														<g id="Grupo_93753">
															<g id="Grupo_93752">
																<g id="Grupo_93751">
																	<g id="Grupo_93750">
																		<g id="Grupo_93749">
																			<g id="Grupo_93748">
																				<g id="Grupo_93747">
																					<g id="Grupo_93746">
																						<g id="Grupo_93745">
																							<g id="Grupo_93744">
																								<g id="Grupo_93743">
																									<g id="Grupo_93742">
																										<g id="Grupo_93741">
																											<path id="Trazado_210546" class="st5" d="M-281.2-1145.8c0.1,0.8-0.5,1.5-1.2,1.6
																												c-0.8,0.1-1.5-0.3-1.6-1.1c0,0,0,0,0,0c-0.1-0.8,0.5-1.5,1.2-1.6
																												C-282.1-1147.1-281.4-1146.6-281.2-1145.8C-281.2-1145.9-281.2-1145.9-281.2-1145.8z"/>
																										</g>
																									</g>
																								</g>
																							</g>
																						</g>
																					</g>
																				</g>
																			</g>
																		</g>
																	</g>
																</g>
															</g>
														</g>
													</g>
												</g>
											</g>
										</g>
										<g id="Grupo_93774" transform="translate(14.266 5.217)">
											<g id="Grupo_93773">
												<g id="Grupo_93772">
													<g id="Grupo_93771">
														<g id="Grupo_93770">
															<g id="Grupo_93769">
																<g id="Grupo_93768">
																	<g id="Grupo_93767">
																		<g id="Grupo_93766">
																			<g id="Grupo_93765">
																				<g id="Grupo_93764">
																					<g id="Grupo_93763">
																						<g id="Grupo_93762">
																							<g id="Grupo_93761">
																								<g id="Grupo_93760">
																									<g id="Grupo_93759">
																										<g id="Grupo_93758">
																											<path id="Trazado_210547" class="st5" d="M-281.2-1145.8c0.1,0.8-0.5,1.5-1.2,1.6
																												c-0.8,0.1-1.5-0.4-1.6-1.1c0,0,0,0,0,0c-0.1-0.8,0.5-1.5,1.2-1.6
																												C-282.1-1147.1-281.4-1146.6-281.2-1145.8C-281.2-1145.9-281.2-1145.9-281.2-1145.8z"/>
																										</g>
																									</g>
																								</g>
																							</g>
																						</g>
																					</g>
																				</g>
																			</g>
																		</g>
																	</g>
																</g>
															</g>
														</g>
													</g>
												</g>
											</g>
										</g>
										<g id="Grupo_93792" transform="translate(12.977)">
											<g id="Grupo_93791">
												<g id="Grupo_93790">
													<g id="Grupo_93789">
														<g id="Grupo_93788">
															<g id="Grupo_93787">
																<g id="Grupo_93786">
																	<g id="Grupo_93785">
																		<g id="Grupo_93784">
																			<g id="Grupo_93783">
																				<g id="Grupo_93782">
																					<g id="Grupo_93781">
																						<g id="Grupo_93780">
																							<g id="Grupo_93779">
																								<g id="Grupo_93778">
																									<g id="Grupo_93777">
																										<g id="Grupo_93776">
																											<g id="Grupo_93775">
																												<path id="Trazado_210548" class="st5" d="M-277.9-1145.6c-0.1,0.3-1.5-0.5-3.2-0.2
																													c-1.7,0.3-2.7,1.5-2.9,1.3c-0.1-0.1,0-0.5,0.5-1.1c0.6-0.7,1.4-1.2,2.3-1.3c0.9-0.2,1.8,0,2.6,0.5
																													C-278.1-1146.1-277.9-1145.7-277.9-1145.6z"/>
																											</g>
																										</g>
																									</g>
																								</g>
																							</g>
																						</g>
																					</g>
																				</g>
																			</g>
																		</g>
																	</g>
																</g>
															</g>
														</g>
													</g>
												</g>
											</g>
										</g>
									</g>
									<g id="Grupo_93812" transform="translate(0 1.949)">
										<g id="Grupo_93811">
											<g id="Grupo_93810">
												<g id="Grupo_93809">
													<g id="Grupo_93808">
														<g id="Grupo_93807">
															<g id="Grupo_93806">
																<g id="Grupo_93805">
																	<g id="Grupo_93804">
																		<g id="Grupo_93803">
																			<g id="Grupo_93802">
																				<g id="Grupo_93801">
																					<g id="Grupo_93800">
																						<g id="Grupo_93799">
																							<g id="Grupo_93798">
																								<g id="Grupo_93797">
																									<g id="Grupo_93796">
																										<g id="Grupo_93795">
																											<g id="Grupo_93794">
																												<path id="Trazado_210549" class="st5" d="M-277.5-1145.3c-0.2,0.2-1.5-0.7-3.3-0.5
																													c-1.8,0.1-3.1,1.2-3.3,1c-0.1-0.1,0.1-0.5,0.6-1c0.7-0.6,1.6-1,2.6-1.1c1-0.1,1.9,0.2,2.7,0.7
																													C-277.6-1145.9-277.4-1145.4-277.5-1145.3z"/>
																											</g>
																										</g>
																									</g>
																								</g>
																							</g>
																						</g>
																					</g>
																				</g>
																			</g>
																		</g>
																	</g>
																</g>
															</g>
														</g>
													</g>
												</g>
											</g>
										</g>
									</g>
									<g id="Grupo_93831" transform="translate(11.134 1.183)">
										<g id="Grupo_93830">
											<g id="Grupo_93829">
												<g id="Grupo_93828">
													<g id="Grupo_93827">
														<g id="Grupo_93826">
															<g id="Grupo_93825">
																<g id="Grupo_93824">
																	<g id="Grupo_93823">
																		<g id="Grupo_93822">
																			<g id="Grupo_93821">
																				<g id="Grupo_93820">
																					<g id="Grupo_93819">
																						<g id="Grupo_93818">
																							<g id="Grupo_93817">
																								<g id="Grupo_93816">
																									<g id="Grupo_93815">
																										<g id="Grupo_93814">
																											<g id="Grupo_93813">
																												<path id="Trazado_210550" class="st5" d="M-282-1134.2c0.8-0.3,1.6-0.6,2.5-0.7
																													c0.4-0.1,0.8-0.2,0.8-0.5c0-0.4-0.1-0.8-0.4-1.1l-1.5-2.9c-2.1-4.1-3.7-7.5-3.5-7.6
																													c0.2-0.1,2,3.2,4.1,7.3c0.5,1,1,2,1.5,2.9c0.3,0.4,0.4,1,0.4,1.5c-0.1,0.3-0.3,0.5-0.6,0.6
																													c-0.2,0.1-0.4,0.1-0.7,0.2C-280.3-1134.2-281.1-1134.1-282-1134.2z"/>
																											</g>
																										</g>
																									</g>
																								</g>
																							</g>
																						</g>
																					</g>
																				</g>
																			</g>
																		</g>
																	</g>
																</g>
															</g>
														</g>
													</g>
												</g>
											</g>
										</g>
									</g>
									<g id="Grupo_93849" transform="translate(0.859 29.146)">
										<g id="Grupo_93848">
											<g id="Grupo_93847">
												<g id="Grupo_93846">
													<g id="Grupo_93845">
														<g id="Grupo_93844">
															<g id="Grupo_93843">
																<g id="Grupo_93842">
																	<g id="Grupo_93841">
																		<g id="Grupo_93840">
																			<g id="Grupo_93839">
																				<g id="Grupo_93838">
																					<g id="Grupo_93837">
																						<g id="Grupo_93836">
																							<g id="Grupo_93835">
																								<g id="Grupo_93834">
																									<g id="Grupo_93833">
																										<g id="Grupo_93832">
																											<path id="Trazado_210551" class="st7" d="M-268.6-1144.6c-5.3,0.7-10.6-0.2-15.5-2.4c0,0,4.5,8,15.6,5.7
																												L-268.6-1144.6z"/>
																										</g>
																									</g>
																								</g>
																							</g>
																						</g>
																					</g>
																				</g>
																			</g>
																		</g>
																	</g>
																</g>
															</g>
														</g>
													</g>
												</g>
											</g>
										</g>
									</g>
								</g>
							</g>
						</g>
						<g id="Grupo_93870" transform="translate(0 2.912)">
							<g id="Grupo_93869">
								<g id="Grupo_93868">
									<g id="Grupo_93867">
										<g id="Grupo_93866">
											<g id="Grupo_93865">
												<g id="Grupo_93864">
													<g id="Grupo_93863">
														<g id="Grupo_93862">
															<g id="Grupo_93861">
																<g id="Grupo_93860">
																	<g id="Grupo_93859">
																		<g id="Grupo_93858">
																			<g id="Grupo_93857">
																				<g id="Grupo_93856">
																					<g id="Grupo_93855">
																						<g id="Grupo_93854">
																							<g id="Grupo_93853">
																								<path id="Trazado_210552" class="st5" d="M-277.1-1146.1c-0.1,0.4-1.7,0.4-3.5,0.8
																									c-1.8,0.4-3.2,1.1-3.5,0.7c-0.1-0.2,0.1-0.6,0.6-1.1c1.5-1.2,3.4-1.6,5.3-1.2
																									C-277.4-1146.6-277.1-1146.3-277.1-1146.1z"/>
																							</g>
																						</g>
																					</g>
																				</g>
																			</g>
																		</g>
																	</g>
																</g>
															</g>
														</g>
													</g>
												</g>
											</g>
										</g>
									</g>
								</g>
							</g>
						</g>
						<g id="Grupo_93888" transform="translate(15.826)">
							<g id="Grupo_93887">
								<g id="Grupo_93886">
									<g id="Grupo_93885">
										<g id="Grupo_93884">
											<g id="Grupo_93883">
												<g id="Grupo_93882">
													<g id="Grupo_93881">
														<g id="Grupo_93880">
															<g id="Grupo_93879">
																<g id="Grupo_93878">
																	<g id="Grupo_93877">
																		<g id="Grupo_93876">
																			<g id="Grupo_93875">
																				<g id="Grupo_93874">
																					<g id="Grupo_93873">
																						<g id="Grupo_93872">
																							<g id="Grupo_93871">
																								<path id="Trazado_210553" class="st5" d="M-278-1145.7c-0.3,0.4-1.5,0.2-3,0.3c-1.5,0.1-2.7,0.5-3,0.2
																									c-0.1-0.2,0-0.5,0.5-0.9c0.7-0.5,1.5-0.8,2.4-0.8c0.8-0.1,1.7,0.1,2.5,0.4
																									C-278.1-1146.2-277.9-1145.9-278-1145.7z"/>
																							</g>
																						</g>
																					</g>
																				</g>
																			</g>
																		</g>
																	</g>
																</g>
															</g>
														</g>
													</g>
												</g>
											</g>
										</g>
									</g>
								</g>
							</g>
						</g>
					</g>
				</g>
				<g id="Grupo_93894" transform="translate(0 10.941)">
					<g id="Grupo_93893">
						<g id="Grupo_93892">
							<g id="Grupo_93891">
								<path id="Trazado_210554" class="st5" d="M-277.8-1122.6c1-2-1.2-4.1,0.3-6c1.4-1.7,5.3-2,6.6-3.7c0.8-0.8,1.2-1.9,1-3
									c0-1.5,0.3-8.1,9.8-9.9l1.6,5.8c0.6-0.3,1.2-0.6,1.8-0.8c7.6-3.2,15.5-5.5,23.7-6.8c1.1,1.6,0.2,4-1.3,5.2
									c-1.5,1.3-3.4,1.8-5.3,2.6s-3.7,1.9-4.4,3.7c-0.7,1.9,0,4.2-0.6,6.2c-1.1,3.4-5.8,4.6-6.9,8.1c-0.8,2.6,0.7,5.3,1.2,7.9
									c0.5,3.1-0.5,6.2-2.7,8.5c-1.7,1.7-0.6,5.2-0.6,5.2l-30.4-15.6C-285.5-1118.7-279.1-1119.8-277.8-1122.6z"/>
							</g>
						</g>
					</g>
				</g>
			</g>
			<g id="Grupo_93900" transform="translate(11.931 6.745)">
				<g id="Grupo_93899">
					<g id="Grupo_93898">
						<g id="Grupo_93897">
							<g id="Grupo_93896">
								<path id="Trazado_210555" class="st8" d="M-283.5-1104.5c0-0.1,0-0.1-0.1-0.2c-0.1-0.2-0.1-0.3-0.2-0.5
									c-0.2-0.7-0.3-1.4-0.2-2c0.1-1.1,0.6-2.1,1.4-2.9c0.5-0.5,1.1-0.8,1.7-1.1c0.7-0.2,1.5-0.3,2.2-0.6c0.4-0.2,0.8-0.4,1.1-0.7
									c0.3-0.3,0.5-0.7,0.7-1.1c0.3-0.9,0.3-1.8,0.2-2.8c-0.2-1-0.2-1.9-0.2-2.9c0-0.5,0.2-1,0.4-1.4c0.3-0.4,0.6-0.8,1-1.1
									c0.9-0.6,1.9-1,3-1.2c1.1-0.3,2.2-0.7,3.2-1.4c0.5-0.4,0.9-0.8,1.2-1.4c0.3-0.6,0.4-1.1,0.5-1.7c0.2-1.2,0.1-2.4,0.3-3.6
									c0.3-2.4,1.9-4.4,4.1-5.4c1.1-0.4,2.2-0.6,3.3-0.7c0.6-0.1,1.1-0.2,1.6-0.4c0.5-0.2,1-0.5,1.4-0.9c0.6-0.9,1.1-1.8,1.3-2.9
									c0.3-0.9,0.7-1.8,1.3-2.6c1.1-1.4,2.7-2.3,4.4-2.6c1.4-0.2,2.9,0,4.2,0.7c1,0.5,1.8,1.2,2.5,2.1c0.4,0.5,0.8,1.2,1,1.8
									c0.1,0.2,0.1,0.4,0.2,0.5c0,0.1,0,0.1,0.1,0.2c0-0.2-0.1-0.5-0.2-0.7c-0.2-0.7-0.6-1.3-1-1.8c-0.7-0.9-1.5-1.6-2.5-2.1
									c-1.3-0.7-2.8-1-4.3-0.7c-1.8,0.3-3.4,1.2-4.6,2.6c-0.6,0.8-1.1,1.7-1.4,2.6c-0.2,1-0.6,2-1.2,2.8c-0.8,0.7-1.8,1.2-2.9,1.2
									c-1.2,0.1-2.3,0.3-3.4,0.7c-2.3,1-3.9,3.1-4.3,5.6c-0.2,1.2-0.1,2.5-0.3,3.6c-0.1,0.6-0.2,1.2-0.5,1.7
									c-0.3,0.5-0.6,1-1.1,1.3c-1.9,1.4-4.3,1.3-6.1,2.6c-0.4,0.3-0.8,0.7-1.1,1.2c-0.2,0.5-0.4,1-0.4,1.5c0,1,0,2,0.2,3
									c0.1,0.9,0.1,1.8-0.2,2.7c-0.1,0.4-0.3,0.8-0.6,1.1c-0.3,0.3-0.6,0.5-1,0.7c-0.7,0.3-1.5,0.4-2.2,0.7
									c-0.7,0.2-1.3,0.6-1.8,1.1c-0.8,0.8-1.3,1.9-1.4,3c-0.1,0.7,0,1.4,0.2,2.1c0.1,0.2,0.1,0.3,0.2,0.5
									C-283.6-1104.6-283.6-1104.6-283.5-1104.5z"/>
							</g>
						</g>
					</g>
				</g>
			</g>
		</g>
		<g id="Grupo_93905" transform="translate(45.113 44.177)">
			<g id="Grupo_93902" transform="translate(0.22 0.246)">
				<path id="Trazado_210556" class="st7" d="M-278.7-1145.9c-1.5-0.3-3.5-0.8-5-1.1c-0.8,1.7-0.2,3.8,1.5,4.6c1,0.5,2.1,0.5,3.1,0"
					/>
			</g>
			<g id="Grupo_93904">
				<g id="Grupo_93903">
					<path id="Trazado_210557" class="st5" d="M-278.9-1142.2c0,0-0.1,0.1-0.5,0.3c-0.5,0.2-1,0.2-1.5,0.2c-0.8-0.1-1.5-0.4-2.1-0.9
						c-0.7-0.7-1.1-1.6-1.1-2.6c0-0.6,0.1-1.2,0.4-1.7l0.1-0.2l0.2,0c1.5,0.3,2.8,0.6,3.7,0.9c0.5,0.1,1,0.2,1.4,0.4
						c-0.5,0-1-0.1-1.5-0.2c-0.9-0.2-2.2-0.4-3.7-0.7l0.2-0.1c-0.2,0.5-0.3,1-0.3,1.5c0,0.9,0.4,1.7,1,2.3c0.5,0.5,1.2,0.8,1.8,0.9
						c0.5,0.1,1,0.1,1.4,0C-279.1-1142.1-278.9-1142.2-278.9-1142.2z"/>
				</g>
			</g>
		</g>
	</g>
	<g id="Grupo_93924" transform="translate(104.591 134.738)">
		<g id="Grupo_93912">
			<g id="Grupo_93907" transform="translate(0 34.575)">
				<path id="Trazado_210558" class="st6" d="M-273.8-1147c-0.1,1.1-7.6,22.5-10.1,37.1c-0.5,3,0.2,6.1,2.1,8.5
					c2.5,3.6,14.8,13.1,14.8,13.1l5.8,3.6c1-4.4,3.7-6.8,3.6-10.3c0,0-2.6-1.7-4.4-6.5c-1.1-2.9-2.8-5.7-4.9-8l11.3-30.7
					L-273.8-1147z"/>
			</g>
			<g id="Grupo_93908" transform="translate(23.255)">
				<path id="Trazado_210559" class="st8" d="M-277.3-1141.3l14.8-5.2l0,0c2.4,4.6,5.9,7.2,11.3,7.2c5.7,0,8.9-2.9,11.7-7.7l2.8,0.5
					l18.4,3.7l2.8,34.5l-2.5,31.8l5.9,31.7c-23.3,2.9-44.7,3.5-68.1,0.4l3.6-29.9l-7.5-64.7L-277.3-1141.3z"/>
			</g>
			<g id="Grupo_93909" transform="translate(2.248 8.125)">
				<path id="Trazado_210560" class="st8" d="M-261.9-1146.6l-1.2-0.4c0,0-7.1,3.4-12.6,18.7c-5,13.9-8.4,20.8-8.4,20.8l23.4,8.6
					l4.8-21.1L-261.9-1146.6z"/>
			</g>
			<g id="Grupo_93911" transform="translate(6.968 71.644)">
				<g id="Grupo_93910">
					<path id="Trazado_210561" class="st7" d="M-274-1146.3c-0.5,0-1.1-0.1-1.6-0.2c-1.3-0.1-2.6,0-3.8,0.3c-1.2,0.4-2.4,1-3.4,1.8
						c-0.4,0.4-0.8,0.7-1.2,1c0.2-0.5,0.6-0.9,1-1.3c1-0.9,2.2-1.6,3.5-2c1.3-0.4,2.7-0.4,4-0.2
						C-275.1-1146.8-274.5-1146.6-274-1146.3z"/>
				</g>
			</g>
		</g>
		<g id="Grupo_93913" transform="translate(87.519 4.275)">
			<path id="Trazado_210562" class="st8" d="M-282.5-1147L-282.5-1147c2.3,1.1,4.4,2.5,6.2,4.3l16.2,16.2l-13.3,23.4l-10.7-8.3
				L-282.5-1147z"/>
		</g>
		<g id="Grupo_93915" transform="translate(89.055 23.07)">
			<g id="Grupo_93914">
				<path id="Trazado_210563" class="st5" d="M-280.3-1147c0,0,0,0.1,0,0.1c0,0.1,0,0.2,0,0.4c0,0.3-0.1,0.8-0.1,1.4
					c-0.1,1.2-0.2,3-0.4,5.2c-0.3,4.4-0.9,10.4-1.4,17s-1,12.6-1.4,17c-0.2,2.2-0.3,3.9-0.4,5.2c0,0.6-0.1,1.1-0.1,1.4
					c0,0.2,0,0.3,0,0.4c0,0,0.1,0,0.1,0.1c0,0,0,0.1-0.1,0.1s-0.1,0-0.1-0.1c0,0,0,0,0.1-0.1c0-0.1,0-0.2,0-0.4c0-0.3,0-0.8,0.1-1.4
					c0.1-1.2,0.2-3,0.3-5.2c0.3-4.4,0.7-10.4,1.3-17c0.6-6.6,1.1-12.6,1.5-17l0.5-5.1c0.1-0.6,0.1-1.1,0.1-1.4c0-0.1,0-0.3,0-0.4
					C-280.3-1146.9-280.3-1147-280.3-1147z"/>
			</g>
		</g>
		<g id="Grupo_93917" transform="translate(25.19 24.863)">
			<g id="Grupo_93916">
				<path id="Trazado_210564" class="st5" d="M-284.1-1147C-284.1-1147-284.1-1146.9-284.1-1147l0.1,0.4c0,0.3,0.1,0.6,0.2,1.1
					c0.1,1,0.3,2.4,0.5,4.1c0.4,3.4,1,8.2,1.5,13.5c0.6,5.3,1.1,10,1.4,13.5l0.4,4.1l0.1,1.1l0,0.3c0,0,0,0.1,0,0.1c0,0,0-0.1,0-0.1
					c0-0.1,0-0.2,0-0.3c0-0.3-0.1-0.6-0.2-1.1c-0.1-1-0.3-2.4-0.5-4.1c-0.4-3.5-0.9-8.2-1.5-13.5c-0.6-5.3-1.1-10-1.5-13.5
					c-0.2-1.7-0.4-3.1-0.5-4.1c-0.1-0.5-0.1-0.8-0.1-1.1c0-0.1,0-0.2,0-0.3C-284.1-1146.9-284.1-1147-284.1-1147z"/>
			</g>
		</g>
		<g id="Grupo_93919" transform="translate(42.36 0.531)">
			<g id="Grupo_93918">
				<path id="Trazado_210565" class="st5" d="M-255.7-1147c0,0.1-0.1,0.2-0.1,0.4c-0.1,0.2-0.2,0.6-0.4,1c-0.5,1.2-1.2,2.4-2,3.4
					c-1.2,1.6-2.7,2.9-4.4,3.8c-4.3,2.4-9.5,2.6-13.9,0.5c-1.8-0.9-3.4-2-4.7-3.5c-0.9-1-1.6-2.1-2.3-3.3c-0.2-0.4-0.4-0.8-0.4-1
					c-0.1-0.1-0.1-0.2-0.1-0.4c0.1,0.1,0.1,0.2,0.2,0.3c0.1,0.2,0.3,0.5,0.5,1c0.6,1.2,1.4,2.2,2.3,3.2c1.3,1.4,2.9,2.6,4.7,3.4
					c4.4,2,9.5,1.9,13.7-0.5c1.7-1,3.2-2.2,4.4-3.8c0.8-1,1.5-2.2,2.1-3.3c0.2-0.4,0.3-0.8,0.4-1
					C-255.8-1146.8-255.8-1146.9-255.7-1147z"/>
			</g>
		</g>
		<g id="Grupo_93921" transform="translate(15.04 17.746)">
			<g id="Grupo_93920">
				<path id="Trazado_210566" class="st5" d="M-274.6-1140.7c0,0.1-2.2-1.3-4.8-3.1c-2.6-1.7-4.7-3.2-4.7-3.3c0-0.1,2.2,1.3,4.8,3.1
					S-274.6-1140.7-274.6-1140.7z"/>
			</g>
		</g>
		<g id="Grupo_93923" transform="translate(94.016 14.079)">
			<g id="Grupo_93922">
				<path id="Trazado_210567" class="st5" d="M-279.4-1147c0.1,0-1,1.8-2.2,3.9c-1.3,2.1-2.4,3.8-2.4,3.8s1-1.8,2.2-3.9
					C-280.6-1145.3-279.5-1147-279.4-1147z"/>
			</g>
		</g>
	</g>
	<g id="Grupo_94003" transform="translate(140.999 147.884)">
		<g id="Grupo_93925" transform="translate(6.432 7.523)" class="st9">
			<circle id="Elipse_5305" class="st1" cx="-267.9" cy="-1130.8" r="13.5"/>
		</g>
		<g id="Grupo_94002" transform="translate(0)">
			<g id="Grupo_93967" transform="translate(13.857 14.324)">
				<g id="Grupo_93960">
					<g id="Grupo_93941">
						<g id="Grupo_93930">
							<g id="Grupo_93929">
								<g id="Grupo_93928">
									<g id="Grupo_93927">
										<g id="Grupo_93926">
											<path id="Trazado_210568" class="st10" d="M-266.7-1138.3c0-4.8-3.9-8.7-8.7-8.7c-4.8,0-8.7,3.9-8.7,8.7
												c0,3.4,1.9,6.4,5,7.9v2.2h7.6c0,0,0-1.2,0.1-2.3C-268.5-1132.1-266.7-1135.1-266.7-1138.3z"/>
										</g>
									</g>
								</g>
							</g>
						</g>
						<g id="Grupo_93935" transform="translate(4.475 19.164)">
							<g id="Grupo_93934">
								<g id="Grupo_93933">
									<g id="Grupo_93932">
										<g id="Grupo_93931">
											<path id="Trazado_210569" class="st5" d="M-276-1146h-7.6c-0.3,0-0.5-0.2-0.6-0.5l0,0c0-0.3,0.3-0.5,0.6-0.5h7.6
												c0.3,0,0.5,0.2,0.6,0.5l0,0C-275.4-1146.2-275.7-1146-276-1146z"/>
										</g>
									</g>
								</g>
							</g>
						</g>
						<g id="Grupo_93940" transform="translate(4.985 20.573)">
							<g id="Grupo_93939">
								<g id="Grupo_93938">
									<g id="Grupo_93937">
										<g id="Grupo_93936">
											<path id="Trazado_210570" class="st5" d="M-277.1-1147h-6.5c-0.3,0-0.5,0.2-0.5,0.5c0,0.3,0.2,0.5,0.5,0.5c0,0,0,0,0,0
												h0.7l1,1.8c0.1,0.2,0.3,0.3,0.6,0.3h2.3c0.2,0,0.5-0.1,0.6-0.3l0.9-1.8h0.5c0.3,0,0.5-0.2,0.5-0.5
												C-276.6-1146.8-276.8-1147-277.1-1147C-277-1147-277.1-1147-277.1-1147L-277.1-1147z"/>
										</g>
									</g>
								</g>
							</g>
						</g>
					</g>
					<g id="Grupo_93947" transform="translate(7.38 23.129)">
						<g id="Grupo_93946">
							<g id="Grupo_93945">
								<g id="Grupo_93944">
									<g id="Grupo_93943">
										<g id="Grupo_93942">
											<path id="Trazado_210571" class="st8" d="M-281-1146.6c0,0-0.2-0.1-0.4-0.1c-0.7-0.2-1.5-0.2-2.2,0.1
												c-0.3,0.1-0.4,0.2-0.4,0.2c0.1-0.1,0.3-0.2,0.4-0.2c0.7-0.3,1.5-0.3,2.3-0.1C-281.3-1146.8-281.1-1146.7-281-1146.6z"/>
										</g>
									</g>
								</g>
							</g>
						</g>
					</g>
					<g id="Grupo_93953" transform="translate(6.26 21.523)">
						<g id="Grupo_93952">
							<g id="Grupo_93951">
								<g id="Grupo_93950">
									<g id="Grupo_93949">
										<g id="Grupo_93948">
											<path id="Trazado_210572" class="st8" d="M-278.8-1146.9c0,0-1.2,0.1-2.6,0.1c-1.5,0-2.6,0-2.6-0.1c0,0,1.2-0.1,2.6-0.1
												S-278.8-1147-278.8-1146.9z"/>
										</g>
									</g>
								</g>
							</g>
						</g>
					</g>
					<g id="Grupo_93959" transform="translate(6.721 22.338)">
						<g id="Grupo_93958">
							<g id="Grupo_93957">
								<g id="Grupo_93956">
									<g id="Grupo_93955">
										<g id="Grupo_93954">
											<path id="Trazado_210573" class="st8" d="M-279.7-1147c-0.2,0-0.4,0.1-0.6,0.1c-0.4,0-0.9,0-1.6,0.1c-0.6,0-1.2,0-1.6,0
												c-0.2,0-0.4,0-0.6,0c0.2,0,0.4,0,0.6,0l1.6,0l1.6,0C-280.1-1147-279.9-1147-279.7-1147z"/>
										</g>
									</g>
								</g>
							</g>
						</g>
					</g>
				</g>
				<g id="Grupo_93963" transform="translate(1 1.666)">
					<g id="Grupo_93962">
						<g id="Grupo_93961">
							<path id="Trazado_210574" class="st1" d="M-278.7-1147c0,0.1-0.6,0.3-1.5,0.8c-2.3,1.3-3.6,3.8-3.4,6.5
								c0.1,1,0.3,1.6,0.2,1.6c-0.3-0.5-0.6-1-0.6-1.6c-0.5-2.8,1-5.7,3.6-6.9C-279.9-1146.9-279.3-1147-278.7-1147z"/>
						</g>
					</g>
				</g>
				<g id="Grupo_93966" transform="translate(8.091 1.018)">
					<g id="Grupo_93965">
						<g id="Grupo_93964">
							<path id="Trazado_210575" class="st1" d="M-283.3-1146.8c0,0.2-0.1,0.3-0.3,0.3s-0.4-0.1-0.4-0.2c0-0.2,0.1-0.3,0.3-0.3
								S-283.3-1146.9-283.3-1146.8z"/>
						</g>
					</g>
				</g>
			</g>
			<g id="Grupo_93969" transform="translate(4.678 32.372)">
				<g id="Grupo_93968">
					<path id="Trazado_210576" class="st11" d="M-283.3-1147l0.3,0.3c0,0,0.1,0,0.1,0l0.4-0.1c0.1,0,0.1,0,0.1,0.1c0,0,0,0.1,0,0.1
						l-0.2,0.4c0,0,0,0.1,0,0.1l0.2,0.4c0,0.1,0,0.1-0.1,0.2c0,0-0.1,0-0.1,0l-0.4-0.1c0,0-0.1,0-0.1,0l-0.3,0.3c0,0-0.1,0-0.2,0
						c0,0,0,0,0-0.1l-0.1-0.4c0,0,0-0.1-0.1-0.1l-0.4-0.2c-0.1,0-0.1-0.1-0.1-0.2c0,0,0,0,0.1-0.1l0.4-0.2c0,0,0.1-0.1,0.1-0.1
						l0.1-0.4C-283.5-1147-283.5-1147-283.3-1147C-283.4-1147-283.3-1147-283.3-1147z"/>
				</g>
			</g>
			<g id="Grupo_93971" transform="translate(41.22 21.429)">
				<g id="Grupo_93970">
					<path id="Trazado_210577" class="st11" d="M-282.8-1146.9l0.2,0.5c0,0,0.1,0.1,0.1,0.1l0.5,0.1c0.1,0,0.1,0.1,0.1,0.2
						c0,0,0,0.1,0,0.1l-0.4,0.4c0,0-0.1,0.1,0,0.1l0.1,0.5c0,0.1,0,0.2-0.1,0.2c0,0-0.1,0-0.1,0l-0.5-0.2c0,0-0.1,0-0.1,0l-0.5,0.2
						c-0.1,0-0.2,0-0.2-0.1c0,0,0-0.1,0-0.1l0.1-0.5c0,0,0-0.1,0-0.1l-0.4-0.4c-0.1-0.1-0.1-0.2,0-0.2c0,0,0.1,0,0.1,0l0.5-0.1
						c0,0,0.1,0,0.1-0.1l0.2-0.5C-283.1-1147-283-1147-282.8-1146.9C-282.9-1147-282.8-1146.9-282.8-1146.9z"/>
				</g>
			</g>
			<g id="Grupo_93973" transform="translate(13.724 2.881)">
				<g id="Grupo_93972">
					<path id="Trazado_210578" class="st11" d="M-282.8-1146.9l0.2,0.5c0,0,0.1,0.1,0.1,0.1l0.5,0.1c0.1,0,0.1,0.1,0.1,0.2
						c0,0,0,0.1,0,0.1l-0.4,0.4c0,0-0.1,0.1,0,0.1l0.1,0.5c0,0.1,0,0.2-0.1,0.2c0,0-0.1,0-0.1,0l-0.5-0.2c0,0-0.1,0-0.1,0l-0.5,0.2
						c-0.1,0-0.2,0-0.2-0.1c0,0,0-0.1,0-0.1l0.1-0.5c0,0,0-0.1,0-0.1l-0.4-0.4c-0.1-0.1-0.1-0.2,0-0.2c0,0,0.1,0,0.1,0l0.5-0.1
						c0,0,0.1,0,0.1-0.1l0.2-0.5C-283.1-1147-283-1147-282.8-1146.9C-282.9-1147-282.8-1146.9-282.8-1146.9z"/>
				</g>
			</g>
			<g id="Grupo_93999">
				<g id="Grupo_93976" transform="translate(34.639 16.716)">
					<g id="Grupo_93975">
						<g id="Grupo_93974">
							<path id="Trazado_210579" class="st5" d="M-273.2-1147c-3.5,1.1-7.2,1.8-10.9,2.1C-280.6-1145.9-276.9-1146.6-273.2-1147z"/>
						</g>
					</g>
				</g>
				<g id="Grupo_93979" transform="translate(29.344 6.574)">
					<g id="Grupo_93978">
						<g id="Grupo_93977">
							<path id="Trazado_210580" class="st5" d="M-278.3-1147c-1.6,2.9-3.5,5.6-5.8,8.1C-282.5-1141.8-280.5-1144.5-278.3-1147z"/>
						</g>
					</g>
				</g>
				<g id="Grupo_93982" transform="translate(21.044)">
					<g id="Grupo_93981">
						<g id="Grupo_93980">
							<path id="Trazado_210581" class="st5" d="M-283.8-1147c0.3,1.9,0.4,3.9,0.3,5.8c0.1,2,0,3.9-0.3,5.8
								c-0.3-1.9-0.4-3.9-0.3-5.8C-284.2-1143.1-284.1-1145.1-283.8-1147z"/>
						</g>
					</g>
				</g>
				<g id="Grupo_93985" transform="translate(9.501 8.956)">
					<g id="Grupo_93984">
						<g id="Grupo_93983">
							<path id="Trazado_210582" class="st5" d="M-279.6-1142c-1.8-1.4-3.3-3.1-4.5-5C-282.3-1145.6-280.8-1143.9-279.6-1142z"/>
						</g>
					</g>
				</g>
				<g id="Grupo_93988" transform="translate(0 17.178)">
					<g id="Grupo_93987">
						<g id="Grupo_93986">
							<path id="Trazado_210583" class="st5" d="M-272.3-1144.6c-2-0.1-4-0.4-6-0.9c-2-0.3-3.9-0.8-5.8-1.5c2,0.1,4,0.4,6,0.9
								C-276.2-1145.7-274.2-1145.3-272.3-1144.6z"/>
						</g>
					</g>
				</g>
				<g id="Grupo_93991" transform="translate(4.879 25.516)">
					<g id="Grupo_93990">
						<g id="Grupo_93989">
							<path id="Trazado_210584" class="st5" d="M-277.6-1147c-2,1.2-4.2,2-6.5,2.4C-282.1-1145.7-279.9-1146.5-277.6-1147z"/>
						</g>
					</g>
				</g>
				<g id="Grupo_93994" transform="translate(34.639 26.413)">
					<g id="Grupo_93993">
						<g id="Grupo_93992">
							<path id="Trazado_210585" class="st5" d="M-278.1-1144.8c-2.1-0.4-4.1-1.1-6-2.2C-282-1146.6-280-1145.9-278.1-1144.8z"/>
						</g>
					</g>
				</g>
				<g id="Grupo_93996" transform="translate(8.644 32.121)">
					<g id="Grupo_93995">
						<path id="Trazado_210586" class="st5" d="M-284.1-1141.9c1.7-1.8,3.5-3.5,5.4-5.1C-280.4-1145.2-282.2-1143.5-284.1-1141.9z"
							/>
					</g>
				</g>
				<g id="Grupo_93998" transform="translate(30.687 31.632)">
					<g id="Grupo_93997">
						<path id="Trazado_210587" class="st5" d="M-280.9-1142.7c-1.2-1.3-2.3-2.8-3.2-4.3C-282.9-1145.7-281.8-1144.2-280.9-1142.7z"
							/>
					</g>
				</g>
			</g>
			<g id="Grupo_94001" transform="translate(19.42 25.107)">
				<g id="Grupo_94000">
					<path id="Trazado_210588" class="st1" d="M-278.8-1139.3c0,0,0-0.1,0-0.3c0-0.2-0.1-0.5-0.1-0.9c-0.1-0.8-0.2-1.9-0.4-3.3
						c-0.1-0.7-0.2-1.4-0.2-2.3c0-0.2,0.1-0.4,0.2-0.6c0.2-0.2,0.4-0.2,0.7-0.1c0.2,0.1,0.3,0.4,0.3,0.6c0,0.2,0,0.5-0.1,0.7
						c-0.2,0.5-0.5,0.8-1,1c-0.5,0.2-1,0.2-1.5,0c-0.5-0.2-0.8-0.7-1-1.2c-0.1-0.3-0.1-0.5-0.1-0.8c0-0.1,0.1-0.3,0.1-0.4
						c0.1-0.1,0.2-0.2,0.4-0.2c0.2,0,0.3,0.1,0.4,0.2c0.1,0.1,0.2,0.2,0.2,0.3c0.1,0.3,0.1,0.5,0.1,0.8c0,0.5-0.2,1.1-0.5,1.4
						c-0.4,0.4-0.9,0.5-1.4,0.3c-0.4-0.2-0.8-0.5-1-1c-0.1-0.2-0.2-0.4-0.3-0.6c-0.1-0.2-0.1-0.4-0.1-0.7c0-0.1,0.1-0.2,0.2-0.3
						c0.1-0.1,0.2-0.1,0.4,0c0.2,0.1,0.3,0.3,0.3,0.6c0.5,1.8,0.6,3.7,0.2,5.5c-0.1,0.4-0.2,0.8-0.3,1.2c0,0,0-0.1,0.1-0.3
						c0-0.2,0.1-0.5,0.2-0.9c0.2-1.1,0.2-2.2,0.1-3.3c-0.1-0.8-0.2-1.5-0.4-2.2c0-0.2-0.1-0.4-0.3-0.5c-0.1,0-0.2,0-0.2,0
						c-0.1,0.1-0.1,0.2-0.1,0.3c0,0.2,0,0.4,0.1,0.6c0.1,0.2,0.2,0.4,0.3,0.6c0.2,0.4,0.6,0.7,1,0.9c0.5,0.1,1,0,1.3-0.3
						c0.3-0.4,0.5-0.8,0.5-1.3c0-0.3,0-0.5-0.1-0.7c-0.1-0.2-0.3-0.4-0.5-0.4c-0.2,0-0.4,0.3-0.4,0.5c0,0.2,0,0.5,0.1,0.7
						c0.2,0.5,0.5,0.9,0.9,1.1c0.4,0.2,0.9,0.2,1.4,0c0.4-0.2,0.8-0.5,0.9-1c0.1-0.2,0.1-0.4,0.1-0.6c0-0.2-0.1-0.4-0.3-0.5
						c-0.2-0.1-0.4-0.1-0.5,0.1c-0.1,0.1-0.2,0.3-0.2,0.5c0.1,0.8,0.2,1.6,0.2,2.2c0.1,1.4,0.3,2.5,0.4,3.3c0,0.4,0.1,0.7,0.1,0.9
						C-278.8-1139.4-278.8-1139.3-278.8-1139.3z"/>
				</g>
			</g>
		</g>
	</g>
	<g id="Grupo_94031" transform="translate(119.631 189.708)">
		<g id="Grupo_94018" transform="translate(0)">
			<g id="Grupo_94004" transform="translate(5.767 33.969)">
				<path id="Trazado_210589" class="st5" d="M-284.1-1127.9c-0.3,0,6.5-19.1,6.5-19.1h61.9l9.2,19.1H-284.1z"/>
			</g>
			<g id="Grupo_94012">
				<g id="Grupo_94005" transform="translate(0.636)">
					<path id="Trazado_210590" class="st12" d="M-273.7-1147l-10.4,13.5h56.7l11-12.9L-273.7-1147z"/>
				</g>
				<g id="Grupo_94007" transform="translate(9.874)">
					<g id="Grupo_94006">
						<path id="Trazado_210591" class="st12" d="M-213.8-1094.5h-70.3l0.9-52.5l69.4,0.7L-213.8-1094.5z"/>
					</g>
				</g>
				<g id="Grupo_94008" transform="translate(68.147 0.555)" class="st13">
					<path id="Trazado_210592" d="M-284.1-1095l0.2-52l11.8,0.1v51.9L-284.1-1095z"/>
				</g>
				<g id="Grupo_94009" transform="translate(68.358 0.384)">
					<path id="Trazado_210593" class="st12" d="M-284.1-1146.8l8.5,12.9h16.7l-10.4-13.1L-284.1-1146.8z"/>
				</g>
				<g id="Grupo_94011" transform="translate(0 0.386)">
					<g id="Grupo_94010">
						<path id="Trazado_210594" class="st5" d="M-190.5-1133.9c0,0-0.1,0-0.3,0l-0.9,0l-3.3,0l-12.2,0h0l0,0l-8.5-12.9l0.2,0
							l-11.1,13l0,0h-4l-37.7,0l-11.4,0l-3.1,0l-0.8,0c-0.2,0-0.3,0-0.3,0s0.1,0,0.3,0l0.8,0l3.1,0l11.4,0l37.7,0h4l-0.1,0
							l11.2-12.9l0.1-0.1l0.1,0.1l8.5,13l-0.1,0l12.2,0l3.3,0l0.9,0C-190.6-1133.9-190.5-1133.9-190.5-1133.9z"/>
					</g>
				</g>
			</g>
			<g id="Grupo_94014" transform="translate(51.749 21.11)" class="st14">
				<g id="Grupo_94013">
					<path id="Trazado_210595" class="st1" d="M-283.7-1123.1c-0.4-0.8-0.5-1.7-0.2-2.5c0.2-0.8,0.8-1.5,1.6-1.9
						c1.8-0.7,3.8-0.1,4.8,1.5c0.4,0.8,0.5,1.7,0.2,2.5c-0.3,0.9-0.9,1.6-1.7,1.9C-280.7-1120.8-282.7-1121.4-283.7-1123.1
						L-283.7-1123.1z M-277.1-1147l6.5,2l-6.1,15.5l-4.3-1.4L-277.1-1147z"/>
				</g>
			</g>
			<g id="Grupo_94016" transform="translate(19.682 15.097)" class="st14">
				<g id="Grupo_94015">
					<path id="Trazado_210596" class="st1" d="M-284.1-1145.6l3.2-1.4l2.2,6.5l-2.1,0.9L-284.1-1145.6z M-279.5-1136.3
						c-0.4-0.1-0.7-0.4-0.9-0.8c-0.2-0.4-0.2-0.8,0-1.2c0.2-0.4,0.5-0.7,1-0.9c0.4-0.2,0.9-0.2,1.3-0.1c0.4,0.1,0.7,0.4,0.9,0.8
						c0.2,0.4,0.2,0.8,0,1.2c-0.2,0.4-0.5,0.8-0.9,0.9C-278.6-1136.2-279.1-1136.1-279.5-1136.3z"/>
				</g>
			</g>
			<g id="Grupo_94017" transform="translate(10.523 0.555)" class="st13">
				<path id="Trazado_210597" d="M-284.1-1132.1h46.8l11-14.9l-11,12.9h-46.8L-284.1-1132.1z"/>
			</g>
		</g>
		<g id="Grupo_94030" transform="translate(5.774 24.322)">
			<g id="Grupo_94029">
				<g id="Grupo_94022">
					<g id="Grupo_94019" transform="translate(0.161 0.159)">
						<path id="Trazado_210598" class="st6" d="M-282.6-1142.5c0,0-1-2.8,2.3-3.7c2.1-0.6,8.7-1.9,7.7,1.2c-0.4,1.1-1.4,1.9-2.6,1.9
							c-1.1,0.2-2,0.7-2.8,1.4c0,0-1,0.8-0.9,1.8c0.1,1,0,3.1,2.9,4.1c2.9,1,4.2,2.1,5.1,3.9c0.8,1.6-0.2,2.3-0.2,2.3
							s1.8,1.3,1.5,2.6c-0.1,0.5,0,1,0.3,1.4l0,0c0.3,0.7,0,1.5-0.6,1.9c-0.1,0.1-0.2,0.1-0.4,0.1l-0.1,0c0,0-8.7-0.3-10.6-2.5
							c-1.1-1.2-1.9-2.6-2.2-4.2c0,0-1.6-2.7,0.2-4.2c-0.7-3.1,0-4.6,1.2-5.5L-282.6-1142.5z"/>
					</g>
					<g id="Grupo_94021">
						<g id="Grupo_94020">
							<path id="Trazado_210599" class="st7" d="M-282.5-1142.4c0.1,0.2,0.2,0.4,0.2,0.6c0.1,0.5,0.3,1.1,0.5,1.8l0,0.1l0,0
								c-0.7,0.5-1.1,1.3-1.3,2.1c-0.2,1.1-0.1,2.2,0.2,3.3l0,0.1l-0.1,0.1c-0.5,0.5-0.8,1.1-0.8,1.8c0,0.8,0.2,1.5,0.6,2.2l0,0l0,0
								c0.3,1.1,0.7,2.2,1.4,3.1c0.3,0.5,0.7,1,1.2,1.4c0.5,0.3,1.1,0.6,1.7,0.8c2.7,0.8,5.5,1.2,8.3,1.3h-0.1c0.5,0,1-0.4,1.1-0.9
								c0.1-0.2,0-0.5-0.1-0.7c-0.2-0.3-0.3-0.6-0.4-0.9c0-0.3,0-0.6,0-1c0-0.3-0.1-0.5-0.2-0.8c-0.3-0.5-0.7-1-1.2-1.3l-0.2-0.2
								l0.2-0.2c0.1-0.1,0.2-0.1,0.2-0.2c0.3-0.6,0.2-1.3-0.1-1.8c-0.3-0.6-0.7-1.2-1.2-1.7c-1-0.9-2.2-1.6-3.5-2
								c-0.7-0.2-1.3-0.5-1.8-1c-0.5-0.5-0.9-1-1.1-1.7c-0.2-0.6-0.3-1.3-0.3-1.9c0.1-0.7,0.4-1.3,1-1.7l0,0c0.6-0.5,1.3-0.9,2-1.2
								c0.4-0.1,0.7-0.2,1.1-0.3c0.3-0.1,0.7-0.2,1-0.3c0.6-0.3,1-0.8,1.3-1.3c0.1-0.3,0.2-0.6,0.1-0.9c-0.1-0.3-0.2-0.5-0.5-0.6
								c-0.5-0.3-1.1-0.4-1.7-0.4c-0.6,0-1.1,0-1.7,0c-1,0.1-2,0.3-2.9,0.5c-0.8,0.1-1.5,0.4-2.2,0.9c-0.5,0.4-0.8,0.9-0.9,1.4
								C-282.6-1143.4-282.6-1142.9-282.5-1142.4c-0.1-0.1-0.1-0.3-0.1-0.4c-0.1-0.4-0.1-0.8,0-1.1c0.1-0.6,0.4-1.2,0.9-1.6
								c0.7-0.5,1.4-0.8,2.3-1c1-0.2,2-0.4,3-0.5c0.6-0.1,1.1-0.1,1.7-0.1c0.6,0,1.3,0.1,1.8,0.4c0.3,0.2,0.6,0.5,0.6,0.9
								c0.1,0.4,0,0.7-0.1,1.1c-0.3,0.7-0.8,1.2-1.5,1.6c-0.3,0.2-0.7,0.3-1.1,0.3c-0.3,0-0.7,0.1-1,0.2c-0.7,0.3-1.3,0.6-1.8,1.1
								l0,0l0,0c-0.4,0.3-0.7,0.8-0.8,1.4c0,0.6,0.1,1.2,0.3,1.8c0.2,0.6,0.5,1.1,1,1.5c0.5,0.4,1.1,0.7,1.7,0.9
								c1.4,0.4,2.6,1.1,3.7,2.1c0.5,0.5,1,1.1,1.3,1.8c0.4,0.7,0.5,1.6,0.1,2.3c-0.1,0.1-0.2,0.3-0.3,0.4l0-0.4
								c0.5,0.4,1,0.9,1.3,1.5c0.2,0.3,0.3,0.6,0.3,1c-0.1,0.3-0.1,0.6,0,0.9c0.1,0.3,0.2,0.5,0.3,0.8c0.2,0.3,0.2,0.7,0.1,1
								c-0.2,0.7-0.8,1.2-1.5,1.3h0h0c-1.5-0.1-3-0.2-4.4-0.4c-1.4-0.2-2.7-0.5-4.1-0.9c-0.6-0.2-1.3-0.5-1.8-0.9
								c-0.5-0.4-0.9-0.9-1.3-1.5c-0.7-1-1.2-2.1-1.5-3.3l0,0.1c-0.4-0.7-0.6-1.6-0.7-2.4c0-0.8,0.3-1.5,0.9-2.1l0,0.1
								c-0.3-1.1-0.3-2.3-0.1-3.5c0.2-0.9,0.7-1.7,1.4-2.2l0,0.1l-0.4-1.8C-282.4-1142-282.4-1142.2-282.5-1142.4z"/>
						</g>
					</g>
				</g>
				<g id="Grupo_94024" transform="translate(2.179 12.657)">
					<g id="Grupo_94023">
						<path id="Trazado_210600" class="st7" d="M-273.2-1142.1c-0.6,0-1.2-0.1-1.8-0.2c-1.1-0.2-2.6-0.6-4.2-1.1
							c-0.8-0.2-1.6-0.5-2.3-0.9c-0.6-0.3-1.1-0.7-1.6-1.2c-0.8-0.8-1.1-1.5-1-1.5c0.4,0.5,0.8,0.9,1.2,1.3c1.1,0.9,2.4,1.6,3.8,1.9
							l4.1,1.2C-274.4-1142.5-273.8-1142.3-273.2-1142.1z"/>
					</g>
				</g>
				<g id="Grupo_94026" transform="translate(1.1 15.566)">
					<g id="Grupo_94025">
						<path id="Trazado_210601" class="st7" d="M-270.9-1141.4c-0.7,0.3-1.5,0.4-2.2,0.3c-1.8-0.1-3.6-0.4-5.4-1l-1.5-0.5
							c-0.5-0.1-0.9-0.3-1.4-0.6c-0.7-0.5-1.3-1.1-1.7-1.8c-0.5-0.6-0.8-1.3-1-2c0.1,0,0.4,0.8,1.2,1.9c0.5,0.6,1,1.2,1.7,1.7
							c0.9,0.4,1.8,0.7,2.8,1c1.7,0.6,3.5,0.9,5.3,1.1C-271.8-1141.3-270.9-1141.5-270.9-1141.4z"/>
					</g>
				</g>
				<g id="Grupo_94028" transform="translate(3.318 4.044)">
					<g id="Grupo_94027">
						<path id="Trazado_210602" class="st7" d="M-278.5-1147c-0.8,0.5-1.7,1-2.7,1.2c-0.7,0.3-1.3,0.5-2,0.6c-0.6,0.1-0.9,0-0.9-0.1
							c0-0.1,0.3-0.1,0.8-0.2c0.5-0.1,1.2-0.4,1.9-0.7C-280.4-1146.6-279.5-1146.9-278.5-1147z"/>
					</g>
				</g>
			</g>
		</g>
	</g>
	<g id="Grupo_94114" transform="translate(188.24 74.441)">
		<g id="Grupo_94111">
			<g id="Grupo_94109">
				<g id="Grupo_94035" transform="translate(11.71 42.147)">
					<g id="Grupo_94034">
						<g id="Grupo_94033">
							<g id="Grupo_94032">
								<path id="Trazado_210603" class="st6" d="M-283-1140.8c1.3-0.3,4.8,1,8,4c0.1,0,0.1,0.1,0.2,0.1c2.3,2,2.7-5,2.5-7.6
									c0-1.5,1.1-2.7,2.6-2.8c0.2,0,0.4,0,0.6,0l8.8,2.7l1.9,1.8c1.3,0.2,1.3-0.4,1.2,0.9l-1.4,14.8l1.6,6l-12.2,1.9l-0.8-6.4
									l-1.1-1c-2.2-1.2-4-3.1-5.2-5.3l-0.1-0.2c-0.7-1.2-1.5-2.3-2.5-3.2c-1.1-1-2.3-1.9-3.7-2.7c-0.1,0-0.2-0.1-0.3-0.1
									c-0.2-0.1-0.4-0.2-0.6-0.3c-0.7-0.4-0.9-1.4-0.4-2.1C-283.7-1140.5-283.4-1140.7-283-1140.8z"/>
							</g>
						</g>
					</g>
				</g>
				<g id="Grupo_94039" transform="translate(7.88 34.46)">
					<g id="Grupo_94038">
						<g id="Grupo_94037">
							<g id="Grupo_94036">
								<path id="Trazado_210604" class="st5" d="M-284.1-1140.9l7.1,9.7l2.6-1.2l20,11.5l3.4-10.5c0,0-11.2-2.8-13.7-6.2
									c-2.5-3.4-0.8-3.6-0.8-3.6l-5.5-5.8L-284.1-1140.9z"/>
							</g>
						</g>
					</g>
				</g>
				<g id="Grupo_94043" transform="translate(25.7 39.048)">
					<g id="Grupo_94042">
						<g id="Grupo_94041">
							<g id="Grupo_94040">
								<path id="Trazado_210605" class="st6" d="M-280.8-1147c1,0.2,1.6,1.2,1.5,2.2c-0.3,1.9-0.8,5-1.2,6.9
									c-0.1,0.6-0.3,1.2-0.7,1.7c-0.3,0.5-0.9,0.8-1.5,0.8c-0.6-0.2-1.1-0.7-1.3-1.4c-0.1-0.7-0.1-1.3,0-2
									c0.2-1.8,0.7-4.5,1.1-6.8C-282.8-1146.5-281.8-1147.1-280.8-1147C-280.8-1147-280.8-1147-280.8-1147L-280.8-1147z"/>
							</g>
						</g>
					</g>
				</g>
				<g id="Grupo_94047" transform="translate(28.897 41.922)">
					<g id="Grupo_94046">
						<g id="Grupo_94045">
							<g id="Grupo_94044">
								<path id="Trazado_210606" class="st6" d="M-280.8-1147c1,0.2,1.6,1.2,1.5,2.2c-0.3,1.9-0.8,5-1.2,6.9
									c-0.1,0.6-0.3,1.2-0.7,1.7c-0.3,0.5-0.9,0.8-1.5,0.8c-0.6-0.2-1.1-0.7-1.3-1.4c-0.1-0.7-0.1-1.3,0-2
									c0.2-1.8,0.7-4.5,1.1-6.8C-282.8-1146.5-281.8-1147.1-280.8-1147C-280.8-1147-280.8-1147-280.8-1147L-280.8-1147z"/>
							</g>
						</g>
					</g>
				</g>
				<g id="Grupo_94051" transform="translate(32.02 43.592)">
					<g id="Grupo_94050">
						<g id="Grupo_94049">
							<g id="Grupo_94048">
								<path id="Trazado_210607" class="st6" d="M-281-1147c0.9,0.2,1.5,1,1.3,1.9c-0.3,1.7-0.7,4.4-1.2,6c-0.1,0.5-0.3,1-0.6,1.5
									c-0.4,0.7-1.2,0.9-1.9,0.5c-0.4-0.2-0.6-0.6-0.7-1c-0.1-0.6-0.1-1.1,0-1.7c0.2-1.6,0.6-3.9,1-5.9
									C-282.8-1146.6-281.9-1147.1-281-1147C-281-1147-281-1147-281-1147L-281-1147z"/>
							</g>
						</g>
					</g>
				</g>
				<g id="Grupo_94055" transform="translate(35.377 43.687)">
					<g id="Grupo_94054">
						<g id="Grupo_94053">
							<g id="Grupo_94052">
								<path id="Trazado_210608" class="st6" d="M-281-1147c0.9,0.2,1.5,1,1.3,1.9c-0.3,1.7-0.7,4.4-1.2,6
									c-0.1,0.5-0.3,1.1-0.6,1.5c-0.4,0.7-1.2,0.9-1.9,0.5c-0.4-0.2-0.6-0.6-0.7-1c-0.1-0.6-0.1-1.2,0-1.7c0.2-1.6,0.6-4,1-5.9
									C-282.8-1146.6-281.9-1147.2-281-1147C-281-1147-281-1147-281-1147L-281-1147z"/>
							</g>
						</g>
					</g>
				</g>
				<g id="Grupo_94059" transform="translate(28.732 42.773)">
					<g id="Grupo_94058">
						<g id="Grupo_94057">
							<g id="Grupo_94056">
								<path id="Trazado_210609" class="st7" d="M-284-1139.8c0.2,0,0.7-1.5,1.1-3.5s0.6-3.6,0.4-3.7c-0.2,0-0.7,1.5-1.1,3.5
									S-284.2-1139.8-284-1139.8z"/>
							</g>
						</g>
					</g>
				</g>
				<g id="Grupo_94063" transform="translate(32.054 44.011)">
					<g id="Grupo_94062">
						<g id="Grupo_94061">
							<g id="Grupo_94060">
								<path id="Trazado_210610" class="st7" d="M-284-1138.8c0.2,0,0.7-1.8,1.1-4s0.6-4.1,0.4-4.2c-0.2,0-0.7,1.8-1.1,4
									S-284.2-1138.8-284-1138.8z"/>
							</g>
						</g>
					</g>
				</g>
				<g id="Grupo_94067" transform="translate(35.045 44.78)">
					<g id="Grupo_94066">
						<g id="Grupo_94065">
							<g id="Grupo_94064">
								<path id="Trazado_210611" class="st7" d="M-284-1139.7c0.2,0.1,0.8-1.5,1.2-3.5c0.4-2,0.5-3.7,0.3-3.7s-0.5,1.6-1,3.6
									C-283.9-1141.4-284.2-1139.8-284-1139.7z"/>
							</g>
						</g>
					</g>
				</g>
				<g id="Grupo_94108">
					<g id="Grupo_94071" transform="translate(13.531)">
						<g id="Grupo_94070">
							<g id="Grupo_94069">
								<g id="Grupo_94068">
									<path id="Trazado_210612" class="st10" d="M-284.1-1120.2c0,0,5.1-2.6,12.7-10.3s11.3-16.5,12.3-16.5c1,0,5.1-2,13.4,15
										c8.4,17,5.4,21.1,3.8,21.1c-1.6,0-12.2-1.4-18.9-0.5c-6.7,0.9-16.3,4.7-16.3,4.7L-284.1-1120.2z"/>
								</g>
							</g>
						</g>
					</g>
					<g id="Grupo_94075" transform="translate(0 39.138)">
						<g id="Grupo_94074">
							<g id="Grupo_94073">
								<g id="Grupo_94072">
									<path id="Trazado_210613" class="st10" d="M-282-1141.6l3.4-1.2l-2.9-4.3l-2.7,2.1L-282-1141.6z"/>
								</g>
							</g>
						</g>
					</g>
					<g id="Grupo_94079" transform="translate(1.255 22.16)">
						<g id="Grupo_94078">
							<g id="Grupo_94077">
								<g id="Grupo_94076">
									<path id="Trazado_210614" class="st15" d="M-283.2-1130.4l2.2,3.3l1.2,1.8c1.7,2.5,5,3.2,7.6,1.7l13.6-6.5l-9.1-16.9
										l-13.5,8C-284.1-1137.1-284.9-1133.4-283.2-1130.4z"/>
								</g>
							</g>
						</g>
					</g>
					<g id="Grupo_94087" transform="translate(38.784 0.377)">
						<g id="Grupo_94086">
							<g id="Grupo_94085">
								<g id="Grupo_94084">
									<path id="Trazado_210616" class="st5" d="M-271.6-1132c4.5,9.2,6.4,17.5,4.4,18.4s-7.3-5.7-11.7-14.9
										c-4.5-9.2-6.4-17.5-4.4-18.4S-276-1141.2-271.6-1132z"/>
								</g>
							</g>
						</g>
					</g>
					<g id="Grupo_94091" transform="translate(42.672 12.766)">
						<g id="Grupo_94090">
							<g id="Grupo_94089">
								<g id="Grupo_94088">
									<path id="Trazado_210617" class="st10" d="M-284.1-1146.2c0,0,4.7-3.1,7.5,3.3c2.8,6.4-2.2,7.6-2.2,7.6
										C-281.1-1138.7-282.9-1142.4-284.1-1146.2z"/>
								</g>
							</g>
						</g>
					</g>
					<g id="Grupo_94095" transform="translate(37.355 5.921)">
						<g id="Grupo_94094">
							<g id="Grupo_94093">
								<g id="Grupo_94092">
									<path id="Trazado_210618" class="st5" d="M-284.1-1147c0,0.4,0.1,0.8,0.2,1.2c0.2,0.8,0.4,1.9,0.8,3.3l0.7,2.3
										c0.1,0.4,0.3,0.8,0.4,1.3l0.2,0.7c0.1,0.2,0.2,0.4,0.3,0.7l1.2,2.8l0.3,0.7c0.1,0.2,0.2,0.5,0.4,0.7l0.8,1.5l0.8,1.5
										c0.1,0.2,0.2,0.5,0.4,0.7l0.4,0.7l1.6,2.5c0.1,0.2,0.2,0.4,0.4,0.6l0.4,0.6l0.8,1.1l1.4,1.9c0.9,1.1,1.7,1.9,2.3,2.5
										c0.3,0.3,0.6,0.6,0.9,0.9c-0.2-0.4-0.5-0.7-0.8-1l-2.2-2.6l-1.4-1.9l-0.8-1.1l-0.4-0.6c-0.1-0.2-0.2-0.4-0.4-0.6l-1.6-2.5
										l-0.4-0.7c-0.1-0.2-0.2-0.5-0.4-0.7l-0.7-1.4l-0.7-1.4c-0.1-0.2-0.3-0.5-0.4-0.7l-0.3-0.7l-1.2-2.7
										c-0.1-0.2-0.2-0.4-0.3-0.6l-0.2-0.6l-0.4-1.2c-0.3-0.8-0.5-1.5-0.8-2.2c-0.4-1.4-0.7-2.5-0.9-3.3
										C-283.8-1146.2-283.9-1146.6-284.1-1147z"/>
								</g>
							</g>
						</g>
					</g>
					<g id="Grupo_94098" transform="translate(5.652 29.665)">
						<g id="Grupo_94097">
							<g id="Grupo_94096">
								<path id="Trazado_210619" class="st5" d="M-273.7-1147c-1.6,1.1-3.4,2.1-5.1,3c-1.7,1-3.5,1.9-5.3,2.7
									C-280.7-1143.4-277.3-1145.3-273.7-1147L-273.7-1147z"/>
							</g>
						</g>
					</g>
					<g id="Grupo_94101" transform="translate(6.649 31.524)">
						<g id="Grupo_94100">
							<g id="Grupo_94099">
								<path id="Trazado_210620" class="st5" d="M-273.7-1147c-1.6,1.1-3.4,2.1-5.1,3c-1.7,1-3.5,1.9-5.3,2.7
									C-280.7-1143.4-277.3-1145.3-273.7-1147L-273.7-1147z"/>
							</g>
						</g>
					</g>
					<g id="Grupo_94104" transform="translate(7.646 33.384)">
						<g id="Grupo_94103">
							<g id="Grupo_94102">
								<path id="Trazado_210621" class="st5" d="M-273.7-1147c-1.6,1.1-3.4,2.1-5.1,3c-1.7,1-3.5,1.9-5.3,2.7
									C-280.7-1143.4-277.3-1145.3-273.7-1147L-273.7-1147z"/>
							</g>
						</g>
					</g>
					<g id="Grupo_94107" transform="translate(8.643 35.243)">
						<g id="Grupo_94106">
							<g id="Grupo_94105">
								<path id="Trazado_210622" class="st5" d="M-273.7-1147c-1.6,1.1-3.4,2.1-5.1,3c-1.7,1-3.5,1.9-5.3,2.7
									C-280.7-1143.4-277.3-1145.3-273.7-1147L-273.7-1147z"/>
							</g>
						</g>
					</g>
				</g>
			</g>
			<g id="Grupo_94110" transform="translate(16.928 62.768)">
				<path id="Trazado_210623" class="st6" d="M-254.5-1114c-0.9-9-9.8-33-9.8-33h-11.6l5.2,26.8l-3.3-2.9l-10.1,17.8
					c3,1.8,6.2,3.4,9.5,4.7C-260.1-1094.6-253.4-1102.9-254.5-1114z"/>
			</g>
		</g>
		<g id="Grupo_94113" transform="translate(29.826 89.32)">
			<g id="Grupo_94112">
				<path id="Trazado_210624" class="st7" d="M-279.5-1137.7c-0.2-0.4-0.5-0.9-0.7-1.4c-0.4-0.9-0.9-2-1.6-3.3
					c-0.6-1.3-1.2-2.4-1.7-3.3c-0.3-0.4-0.5-0.9-0.7-1.4c0.1,0.1,0.2,0.2,0.2,0.3c0.1,0.2,0.3,0.5,0.6,1c0.5,0.8,1.1,2,1.7,3.2
					s1.2,2.5,1.5,3.3c0.2,0.4,0.3,0.8,0.4,1C-279.6-1138-279.6-1137.8-279.5-1137.7z"/>
			</g>
		</g>
	</g>
</g>
</svg>
