<?xml version="1.0" encoding="utf-8"?>
<!-- Generator: Adobe Illustrator 26.0.0, SVG Export Plug-In . SVG Version: 6.00 Build 0)  -->
<svg version="1.1" id="Capa_1" xmlns="http://www.w3.org/2000/svg" xmlns:xlink="http://www.w3.org/1999/xlink" x="0px" y="0px"
	 viewBox="0 0 295 387.7" style="enable-background:new 0 0 295 387.7;" xml:space="preserve">
<style type="text/css">
	.st0{opacity:0.25;fill:#5279BA;enable-background:new    ;}
	.st1{fill:#FFFFFF;}
	.st2{enable-background:new    ;}
	.st3{fill:#12263F;}
	.st4{fill:#5279BA;}
	.st5{opacity:0.25;fill:#BBABF5;enable-background:new    ;}
	.st6{fill:#A2C7EB;}
	.st7{fill:none;stroke:#A2C7EB;stroke-miterlimit:10;}
	.st8{fill:#BBABF5;}
	.st9{fill:#0097D8;}
	.st10{fill:none;stroke:#6F8BBF;stroke-linecap:round;stroke-miterlimit:10;}
	.st11{fill:#E06A58;}
	.st12{fill:#F2AE30;}
	.st13{fill:#0A2240;}
	.st14{fill:#F9A07B;}
	.st15{fill:#FFC73C;}
	.st16{fill:#FFBB33;}
	.st17{fill:#FCE172;}
	.st18{fill:#325F73;}
	.st19{fill:#0B2D50;}
	.st20{fill:#3C738C;}
	.st21{fill:#56C4F9;}
	.st22{fill:#225570;}
	.st23{fill:none;stroke:#0B2D50;stroke-width:2;stroke-linecap:round;stroke-miterlimit:10;}
	.st24{fill:none;stroke:#CC454E;stroke-width:2;stroke-linecap:round;stroke-miterlimit:10;}
	.st25{fill:#262D40;}
	.st26{fill:#CC454E;}
	.st27{fill:#E8729B;}
	.st28{fill:#3D86E0;}
	.st29{fill:#3A92C9;}
	.st30{fill:none;stroke:#3A92C9;stroke-width:2;stroke-linecap:round;stroke-miterlimit:10;}
	.st31{fill:none;stroke:#CC454E;stroke-linecap:round;stroke-miterlimit:10;}
	.st32{fill:none;stroke:#F2AE30;stroke-linecap:round;stroke-miterlimit:10;}
</style>
<path id="Trazado_210364" class="st0" d="M0.4,51.9v291.9c0,8.5,7.9,15.4,17.6,15.4h85l26.7,0c0.7,0.4,1.7,1.1,2.4,1.5l14.3,26.6
	c0.7,0.4,1.7,0.4,2.4,0l14.3-26.6c0.7-0.4,1.7-1.1,2.4-1.5l26.7,0h85c9.7,0,17.6-6.9,17.6-15.4V51.9H0.4z"/>
<path id="Rectángulo_39747" class="st1" d="M14,52.1h267l0,0v269c0,12.2-9.8,22-22,22H36c-12.2,0-22-9.8-22-22V52.1L14,52.1z"/>
<g class="st2">
	<path class="st3" d="M48.2,233.7c0,1.1-0.2,2.1-0.6,2.9s-0.9,1.5-1.6,1.9s-1.5,0.7-2.4,0.7c-0.9,0-1.7-0.2-2.4-0.7
		c-0.7-0.4-1.2-1.1-1.6-1.9s-0.6-1.8-0.6-2.8V233c0-1.1,0.2-2.1,0.6-2.9c0.4-0.8,0.9-1.5,1.6-1.9s1.5-0.7,2.4-0.7
		c0.9,0,1.7,0.2,2.4,0.7s1.2,1.1,1.6,1.9s0.6,1.8,0.6,2.9V233.7z M46.7,233c0-1.3-0.3-2.4-0.8-3.1c-0.5-0.7-1.3-1.1-2.3-1.1
		c-0.9,0-1.7,0.4-2.2,1.1c-0.5,0.7-0.8,1.7-0.8,3v0.8c0,1.3,0.3,2.3,0.8,3.1c0.5,0.7,1.3,1.1,2.3,1.1c1,0,1.7-0.4,2.2-1.1
		s0.8-1.7,0.8-3V233z"/>
	<path class="st3" d="M50.9,239.1v-7.3h-1.3v-1.1h1.3v-0.9c0-0.9,0.2-1.6,0.7-2.1s1.2-0.7,2.1-0.7c0.3,0,0.7,0,1,0.1l-0.1,1.2
		c-0.2,0-0.5-0.1-0.8-0.1c-0.5,0-0.8,0.1-1.1,0.4c-0.3,0.3-0.4,0.7-0.4,1.2v0.9h1.8v1.1h-1.8v7.3H50.9z"/>
	<path class="st3" d="M59.8,231.9c-0.2,0-0.5-0.1-0.7-0.1c-0.9,0-1.6,0.4-1.9,1.2v6h-1.4v-8.5h1.4l0,1c0.5-0.8,1.1-1.1,2-1.1
		c0.3,0,0.5,0,0.6,0.1V231.9z"/>
	<path class="st3" d="M64.7,239.2c-1.1,0-2.1-0.4-2.8-1.1s-1.1-1.8-1.1-3v-0.3c0-0.8,0.2-1.6,0.5-2.2s0.8-1.2,1.3-1.5
		c0.6-0.4,1.2-0.6,1.9-0.6c1.1,0,2,0.4,2.6,1.1s0.9,1.8,0.9,3.1v0.6h-5.7c0,0.8,0.3,1.5,0.7,2c0.5,0.5,1.1,0.8,1.8,0.8
		c0.5,0,0.9-0.1,1.3-0.3c0.4-0.2,0.7-0.5,0.9-0.8l0.9,0.7C67.2,238.7,66.1,239.2,64.7,239.2z M64.5,231.6c-0.6,0-1.1,0.2-1.5,0.6
		c-0.4,0.4-0.6,1-0.7,1.8h4.2V234c0-0.7-0.2-1.3-0.6-1.7C65.6,231.8,65.1,231.6,64.5,231.6z"/>
	<path class="st3" d="M73,238c0.5,0,1-0.2,1.4-0.5c0.4-0.3,0.6-0.7,0.6-1.2h1.4c0,0.5-0.2,0.9-0.5,1.4c-0.3,0.4-0.7,0.8-1.2,1
		c-0.5,0.3-1.1,0.4-1.6,0.4c-1.2,0-2.1-0.4-2.7-1.2s-1-1.8-1-3.2v-0.2c0-0.8,0.2-1.6,0.5-2.2c0.3-0.6,0.7-1.1,1.3-1.5
		c0.6-0.4,1.2-0.5,2-0.5c0.9,0,1.7,0.3,2.4,0.9c0.6,0.6,1,1.3,1,2.2H75c0-0.5-0.2-1-0.6-1.3c-0.4-0.4-0.8-0.5-1.4-0.5
		c-0.7,0-1.3,0.3-1.7,0.8c-0.4,0.5-0.6,1.3-0.6,2.3v0.3c0,1,0.2,1.7,0.6,2.2C71.7,237.8,72.3,238,73,238z"/>
	<path class="st3" d="M81.5,239.2c-1.1,0-2.1-0.4-2.8-1.1s-1.1-1.8-1.1-3v-0.3c0-0.8,0.2-1.6,0.5-2.2s0.8-1.2,1.3-1.5
		c0.6-0.4,1.2-0.6,1.9-0.6c1.1,0,2,0.4,2.6,1.1s0.9,1.8,0.9,3.1v0.6h-5.7c0,0.8,0.3,1.5,0.7,2c0.5,0.5,1.1,0.8,1.8,0.8
		c0.5,0,0.9-0.1,1.3-0.3c0.4-0.2,0.7-0.5,0.9-0.8l0.9,0.7C84,238.7,82.9,239.2,81.5,239.2z M81.3,231.6c-0.6,0-1.1,0.2-1.5,0.6
		c-0.4,0.4-0.6,1-0.7,1.8h4.2V234c0-0.7-0.2-1.3-0.6-1.7C82.4,231.8,82,231.6,81.3,231.6z"/>
	<path class="st3" d="M87.9,230.6l0,1.1c0.6-0.8,1.5-1.2,2.5-1.2c1.8,0,2.7,1,2.7,3v5.6h-1.4v-5.6c0-0.6-0.1-1.1-0.4-1.4
		s-0.7-0.4-1.3-0.4c-0.5,0-0.9,0.1-1.2,0.4c-0.4,0.2-0.6,0.6-0.8,1v6h-1.4v-8.5H87.9z"/>
	<path class="st3" d="M104.5,238.2c-0.6,0.7-1.4,1-2.5,1c-0.9,0-1.6-0.3-2.1-0.8c-0.5-0.5-0.7-1.3-0.7-2.3v-5.5h1.4v5.5
		c0,1.3,0.5,1.9,1.6,1.9c1.1,0,1.8-0.4,2.2-1.2v-6.1h1.4v8.5h-1.4L104.5,238.2z"/>
	<path class="st3" d="M109.5,230.6l0,1.1c0.6-0.8,1.5-1.2,2.5-1.2c1.8,0,2.7,1,2.7,3v5.6h-1.4v-5.6c0-0.6-0.1-1.1-0.4-1.4
		s-0.7-0.4-1.3-0.4c-0.5,0-0.9,0.1-1.2,0.4c-0.4,0.2-0.6,0.6-0.8,1v6h-1.4v-8.5H109.5z"/>
	<path class="st3" d="M125.8,236.8c0-0.4-0.1-0.7-0.4-0.9c-0.3-0.2-0.8-0.4-1.5-0.6c-0.7-0.2-1.3-0.3-1.7-0.6s-0.7-0.5-1-0.8
		c-0.2-0.3-0.3-0.7-0.3-1.1c0-0.7,0.3-1.3,0.9-1.8s1.3-0.7,2.2-0.7c1,0,1.7,0.2,2.3,0.7c0.6,0.5,0.9,1.1,0.9,1.9h-1.5
		c0-0.4-0.2-0.7-0.5-1s-0.8-0.4-1.3-0.4c-0.5,0-0.9,0.1-1.2,0.3s-0.4,0.5-0.4,0.9c0,0.3,0.1,0.6,0.4,0.8c0.3,0.2,0.8,0.3,1.5,0.5
		c0.7,0.2,1.3,0.4,1.8,0.6c0.4,0.2,0.8,0.5,1,0.8c0.2,0.3,0.3,0.7,0.3,1.2c0,0.8-0.3,1.4-0.9,1.8c-0.6,0.5-1.4,0.7-2.4,0.7
		c-0.7,0-1.3-0.1-1.8-0.4c-0.5-0.2-0.9-0.6-1.2-1c-0.3-0.4-0.4-0.9-0.4-1.4h1.4c0,0.5,0.2,0.9,0.6,1.2c0.4,0.3,0.8,0.4,1.4,0.4
		c0.5,0,1-0.1,1.3-0.3C125.7,237.5,125.8,237.2,125.8,236.8z"/>
	<path class="st3" d="M132.7,239.2c-1.1,0-2.1-0.4-2.8-1.1s-1.1-1.8-1.1-3v-0.3c0-0.8,0.2-1.6,0.5-2.2s0.8-1.2,1.3-1.5
		c0.6-0.4,1.2-0.6,1.9-0.6c1.1,0,2,0.4,2.6,1.1s0.9,1.8,0.9,3.1v0.6h-5.7c0,0.8,0.3,1.5,0.7,2c0.5,0.5,1.1,0.8,1.8,0.8
		c0.5,0,0.9-0.1,1.3-0.3c0.4-0.2,0.7-0.5,0.9-0.8l0.9,0.7C135.1,238.7,134.1,239.2,132.7,239.2z M132.5,231.6
		c-0.6,0-1.1,0.2-1.5,0.6c-0.4,0.4-0.6,1-0.7,1.8h4.2V234c0-0.7-0.2-1.3-0.6-1.7C133.6,231.8,133.1,231.6,132.5,231.6z"/>
	<path class="st3" d="M141.7,231.9c-0.2,0-0.5-0.1-0.7-0.1c-0.9,0-1.6,0.4-1.9,1.2v6h-1.4v-8.5h1.4l0,1c0.5-0.8,1.1-1.1,2-1.1
		c0.3,0,0.5,0,0.6,0.1V231.9z"/>
	<path class="st3" d="M146,237.1l2.1-6.5h1.5l-3,8.5h-1.1l-3.1-8.5h1.5L146,237.1z"/>
	<path class="st3" d="M150.9,228.4c0-0.2,0.1-0.4,0.2-0.6c0.1-0.2,0.4-0.2,0.6-0.2s0.5,0.1,0.6,0.2c0.1,0.2,0.2,0.4,0.2,0.6
		s-0.1,0.4-0.2,0.6c-0.1,0.2-0.4,0.2-0.6,0.2s-0.5-0.1-0.6-0.2C151,228.8,150.9,228.6,150.9,228.4z M152.5,239.1h-1.4v-8.5h1.4
		V239.1z"/>
	<path class="st3" d="M158.2,238c0.5,0,1-0.2,1.4-0.5c0.4-0.3,0.6-0.7,0.6-1.2h1.4c0,0.5-0.2,0.9-0.5,1.4c-0.3,0.4-0.7,0.8-1.2,1
		c-0.5,0.3-1.1,0.4-1.6,0.4c-1.2,0-2.1-0.4-2.7-1.2s-1-1.8-1-3.2v-0.2c0-0.8,0.2-1.6,0.5-2.2c0.3-0.6,0.7-1.1,1.3-1.5
		c0.6-0.4,1.2-0.5,2-0.5c0.9,0,1.7,0.3,2.4,0.9c0.6,0.6,1,1.3,1,2.2h-1.4c0-0.5-0.2-1-0.6-1.3c-0.4-0.4-0.8-0.5-1.4-0.5
		c-0.7,0-1.3,0.3-1.7,0.8c-0.4,0.5-0.6,1.3-0.6,2.3v0.3c0,1,0.2,1.7,0.6,2.2C156.9,237.8,157.5,238,158.2,238z"/>
	<path class="st3" d="M163.2,228.4c0-0.2,0.1-0.4,0.2-0.6c0.1-0.2,0.4-0.2,0.6-0.2s0.5,0.1,0.6,0.2c0.1,0.2,0.2,0.4,0.2,0.6
		s-0.1,0.4-0.2,0.6c-0.1,0.2-0.4,0.2-0.6,0.2s-0.5-0.1-0.6-0.2C163.3,228.8,163.2,228.6,163.2,228.4z M164.8,239.1h-1.4v-8.5h1.4
		V239.1z"/>
	<path class="st3" d="M166.7,234.8c0-0.8,0.2-1.6,0.5-2.2c0.3-0.7,0.8-1.2,1.4-1.5c0.6-0.4,1.2-0.5,2-0.5c1.2,0,2.1,0.4,2.8,1.2
		s1.1,1.9,1.1,3.2v0.1c0,0.8-0.2,1.6-0.5,2.2c-0.3,0.7-0.8,1.2-1.4,1.5s-1.3,0.5-2,0.5c-1.1,0-2.1-0.4-2.8-1.2s-1.1-1.9-1.1-3.2
		V234.8z M168.1,234.9c0,0.9,0.2,1.7,0.7,2.3c0.4,0.6,1,0.9,1.7,0.9c0.7,0,1.3-0.3,1.8-0.9c0.4-0.6,0.6-1.4,0.6-2.4
		c0-0.9-0.2-1.7-0.7-2.3c-0.4-0.6-1-0.9-1.8-0.9c-0.7,0-1.3,0.3-1.7,0.9S168.1,233.9,168.1,234.9z"/>
	<path class="st3" d="M180.2,228.4c0-0.2,0.1-0.4,0.2-0.6c0.1-0.2,0.4-0.2,0.6-0.2s0.5,0.1,0.6,0.2c0.1,0.2,0.2,0.4,0.2,0.6
		s-0.1,0.4-0.2,0.6c-0.1,0.2-0.4,0.2-0.6,0.2s-0.5-0.1-0.6-0.2C180.2,228.8,180.2,228.6,180.2,228.4z M181.7,239.1h-1.4v-8.5h1.4
		V239.1z"/>
	<path class="st3" d="M185.4,230.6l0,1.1c0.6-0.8,1.5-1.2,2.5-1.2c1.8,0,2.7,1,2.7,3v5.6h-1.4v-5.6c0-0.6-0.1-1.1-0.4-1.4
		s-0.7-0.4-1.3-0.4c-0.5,0-0.9,0.1-1.2,0.4c-0.4,0.2-0.6,0.6-0.8,1v6H184v-8.5H185.4z"/>
	<path class="st3" d="M194.8,228.6v2h1.6v1.1h-1.6v5.2c0,0.3,0.1,0.6,0.2,0.8c0.1,0.2,0.4,0.3,0.7,0.3c0.2,0,0.4,0,0.7-0.1v1.2
		c-0.4,0.1-0.8,0.2-1.1,0.2c-0.6,0-1.1-0.2-1.5-0.6s-0.5-0.9-0.5-1.7v-5.2h-1.5v-1.1h1.5v-2H194.8z"/>
	<path class="st3" d="M203.3,239.1c-0.1-0.2-0.2-0.5-0.2-0.9c-0.7,0.7-1.5,1-2.4,1c-0.8,0-1.5-0.2-2.1-0.7c-0.5-0.5-0.8-1.1-0.8-1.8
		c0-0.9,0.3-1.6,1-2.1c0.7-0.5,1.6-0.7,2.8-0.7h1.4v-0.7c0-0.5-0.2-0.9-0.5-1.2c-0.3-0.3-0.7-0.4-1.3-0.4c-0.5,0-0.9,0.1-1.3,0.4
		c-0.3,0.3-0.5,0.6-0.5,0.9H198c0-0.4,0.1-0.8,0.4-1.2c0.3-0.4,0.7-0.7,1.2-0.9c0.5-0.2,1.1-0.3,1.7-0.3c1,0,1.7,0.2,2.3,0.7
		c0.6,0.5,0.8,1.2,0.9,2v3.9c0,0.8,0.1,1.4,0.3,1.9v0.1H203.3z M200.9,238c0.5,0,0.9-0.1,1.3-0.4s0.7-0.5,0.9-0.9V235h-1.1
		c-1.8,0-2.7,0.5-2.7,1.6c0,0.5,0.2,0.8,0.5,1.1C200,237.8,200.4,238,200.9,238z"/>
	<path class="st3" d="M208.2,230.6l0,1.1c0.6-0.8,1.5-1.2,2.5-1.2c1.8,0,2.7,1,2.7,3v5.6H212v-5.6c0-0.6-0.1-1.1-0.4-1.4
		s-0.7-0.4-1.3-0.4c-0.5,0-0.9,0.1-1.2,0.4c-0.4,0.2-0.6,0.6-0.8,1v6h-1.4v-8.5H208.2z"/>
	<path class="st3" d="M215.3,234.8c0-1.3,0.3-2.4,0.9-3.1s1.4-1.2,2.4-1.2c1,0,1.8,0.4,2.4,1.1l0.1-0.9h1.3v8.2c0,1.1-0.3,2-1,2.6
		s-1.5,0.9-2.6,0.9c-0.6,0-1.2-0.1-1.8-0.4c-0.6-0.3-1-0.6-1.3-1.1l0.8-0.9c0.6,0.8,1.4,1.1,2.3,1.1c0.7,0,1.3-0.2,1.6-0.6
		c0.4-0.4,0.6-1,0.6-1.7v-0.7c-0.6,0.7-1.4,1-2.4,1c-1,0-1.8-0.4-2.4-1.2C215.6,237.2,215.3,236.1,215.3,234.8z M216.7,234.9
		c0,1,0.2,1.7,0.6,2.2s0.9,0.8,1.6,0.8c0.9,0,1.6-0.4,2-1.2v-3.9c-0.4-0.8-1.1-1.2-2-1.2c-0.7,0-1.3,0.3-1.6,0.8
		C216.9,233.1,216.7,233.9,216.7,234.9z"/>
	<path class="st3" d="M224.6,228.4c0-0.2,0.1-0.4,0.2-0.6c0.1-0.2,0.4-0.2,0.6-0.2s0.5,0.1,0.6,0.2c0.1,0.2,0.2,0.4,0.2,0.6
		s-0.1,0.4-0.2,0.6c-0.1,0.2-0.4,0.2-0.6,0.2s-0.5-0.1-0.6-0.2C224.7,228.8,224.6,228.6,224.6,228.4z M226.2,239.1h-1.4v-8.5h1.4
		V239.1z"/>
	<path class="st3" d="M235.6,234.9c0,1.3-0.3,2.3-0.9,3.1s-1.4,1.2-2.4,1.2c-1.1,0-1.9-0.4-2.5-1.1l-0.1,1h-1.3v-12h1.4v4.5
		c0.6-0.7,1.4-1.1,2.4-1.1c1,0,1.8,0.4,2.4,1.2s0.9,1.8,0.9,3.2V234.9z M234.2,234.8c0-1-0.2-1.7-0.6-2.3c-0.4-0.5-0.9-0.8-1.6-0.8
		c-1,0-1.6,0.4-2.1,1.3v3.7c0.4,0.9,1.1,1.3,2.1,1.3c0.7,0,1.2-0.3,1.6-0.8C234,236.7,234.2,235.9,234.2,234.8z"/>
	<path class="st3" d="M239,239.1h-1.4v-12h1.4V239.1z"/>
	<path class="st3" d="M244.8,239.2c-1.1,0-2.1-0.4-2.8-1.1s-1.1-1.8-1.1-3v-0.3c0-0.8,0.2-1.6,0.5-2.2s0.8-1.2,1.3-1.5
		c0.6-0.4,1.2-0.6,1.9-0.6c1.1,0,2,0.4,2.6,1.1s0.9,1.8,0.9,3.1v0.6h-5.7c0,0.8,0.3,1.5,0.7,2c0.5,0.5,1.1,0.8,1.8,0.8
		c0.5,0,0.9-0.1,1.3-0.3c0.4-0.2,0.7-0.5,0.9-0.8l0.9,0.7C247.3,238.7,246.3,239.2,244.8,239.2z M244.7,231.6
		c-0.6,0-1.1,0.2-1.5,0.6c-0.4,0.4-0.6,1-0.7,1.8h4.2V234c0-0.7-0.2-1.3-0.6-1.7C245.8,231.8,245.3,231.6,244.7,231.6z"/>
	<path class="st3" d="M249.8,238.3c0-0.2,0.1-0.5,0.2-0.6s0.4-0.2,0.7-0.2s0.5,0.1,0.7,0.2c0.2,0.2,0.2,0.4,0.2,0.6
		c0,0.2-0.1,0.4-0.2,0.6c-0.2,0.2-0.4,0.2-0.7,0.2s-0.5-0.1-0.7-0.2S249.8,238.6,249.8,238.3z"/>
</g>
<g class="st2">
	<path class="st3" d="M56.9,257.8H52v4h5.7v1.2h-7.2v-11.4h7.1v1.2H52v3.7h4.9V257.8z"/>
	<path class="st3" d="M60.8,254.6v9.4c0,1.6-0.7,2.4-2.2,2.4c-0.3,0-0.6,0-0.9-0.1v-1.1c0.2,0,0.4,0.1,0.7,0.1
		c0.3,0,0.6-0.1,0.7-0.3c0.2-0.2,0.3-0.5,0.3-0.9v-9.5H60.8z M59.2,252.4c0-0.2,0.1-0.4,0.2-0.6c0.1-0.2,0.4-0.2,0.6-0.2
		c0.3,0,0.5,0.1,0.6,0.2c0.1,0.2,0.2,0.4,0.2,0.6s-0.1,0.4-0.2,0.6c-0.1,0.2-0.4,0.2-0.6,0.2s-0.5-0.1-0.6-0.2
		S59.2,252.6,59.2,252.4z"/>
	<path class="st3" d="M66.6,263.2c-1.1,0-2.1-0.4-2.8-1.1s-1.1-1.8-1.1-3v-0.3c0-0.8,0.2-1.6,0.5-2.2s0.8-1.2,1.3-1.5
		c0.6-0.4,1.2-0.6,1.9-0.6c1.1,0,2,0.4,2.6,1.1s0.9,1.8,0.9,3.1v0.6h-5.7c0,0.8,0.3,1.5,0.7,2c0.5,0.5,1.1,0.8,1.8,0.8
		c0.5,0,0.9-0.1,1.3-0.3c0.4-0.2,0.7-0.5,0.9-0.8l0.9,0.7C69.1,262.7,68.1,263.2,66.6,263.2z M66.5,255.6c-0.6,0-1.1,0.2-1.5,0.6
		c-0.4,0.4-0.6,1-0.7,1.8h4.2V258c0-0.7-0.2-1.3-0.6-1.7C67.6,255.8,67.1,255.6,66.5,255.6z"/>
	<path class="st3" d="M73,254.6l0,0.9c0.6-0.7,1.5-1.1,2.5-1.1c1.2,0,2,0.5,2.4,1.4c0.3-0.4,0.6-0.7,1.1-1c0.5-0.2,1-0.4,1.6-0.4
		c1.9,0,2.8,1,2.8,2.9v5.7H82v-5.6c0-0.6-0.1-1.1-0.4-1.4c-0.3-0.3-0.7-0.4-1.4-0.4c-0.5,0-1,0.2-1.3,0.5c-0.4,0.3-0.6,0.8-0.6,1.3
		v5.6h-1.5v-5.5c0-1.2-0.6-1.8-1.8-1.8c-0.9,0-1.6,0.4-1.9,1.2v6.2h-1.4v-8.5H73z"/>
	<path class="st3" d="M92.8,258.9c0,1.3-0.3,2.3-0.9,3.1c-0.6,0.8-1.4,1.2-2.4,1.2c-1,0-1.8-0.3-2.4-1v4.1h-1.4v-11.7H87l0.1,0.9
		c0.6-0.7,1.4-1.1,2.5-1.1c1,0,1.8,0.4,2.4,1.1c0.6,0.8,0.9,1.8,0.9,3.2V258.9z M91.3,258.8c0-1-0.2-1.7-0.6-2.3s-1-0.8-1.7-0.8
		c-0.9,0-1.5,0.4-2,1.2v4c0.4,0.8,1.1,1.2,2,1.2c0.7,0,1.2-0.3,1.7-0.8C91.1,260.7,91.3,259.9,91.3,258.8z"/>
	<path class="st3" d="M96.2,263.1h-1.4v-12h1.4V263.1z"/>
	<path class="st3" d="M98.1,258.8c0-0.8,0.2-1.6,0.5-2.2c0.3-0.7,0.8-1.2,1.4-1.5c0.6-0.4,1.2-0.5,2-0.5c1.2,0,2.1,0.4,2.8,1.2
		s1.1,1.9,1.1,3.2v0.1c0,0.8-0.2,1.6-0.5,2.2c-0.3,0.7-0.8,1.2-1.4,1.5s-1.3,0.5-2,0.5c-1.1,0-2.1-0.4-2.8-1.2s-1.1-1.9-1.1-3.2
		V258.8z M99.6,258.9c0,0.9,0.2,1.7,0.7,2.3c0.4,0.6,1,0.9,1.7,0.9c0.7,0,1.3-0.3,1.8-0.9c0.4-0.6,0.6-1.4,0.6-2.4
		c0-0.9-0.2-1.7-0.7-2.3c-0.4-0.6-1-0.9-1.8-0.9c-0.7,0-1.3,0.3-1.7,0.9S99.6,257.9,99.6,258.9z"/>
	<path class="st3" d="M107.6,262.3c0-0.2,0.1-0.5,0.2-0.6s0.4-0.2,0.7-0.2s0.5,0.1,0.7,0.2c0.2,0.2,0.2,0.4,0.2,0.6
		c0,0.2-0.1,0.4-0.2,0.6c-0.2,0.2-0.4,0.2-0.7,0.2s-0.5-0.1-0.7-0.2S107.6,262.6,107.6,262.3z M107.6,255.4c0-0.2,0.1-0.5,0.2-0.6
		s0.4-0.2,0.7-0.2s0.5,0.1,0.7,0.2c0.2,0.2,0.2,0.4,0.2,0.6c0,0.2-0.1,0.4-0.2,0.6c-0.2,0.2-0.4,0.2-0.7,0.2s-0.5-0.1-0.7-0.2
		S107.6,255.7,107.6,255.4z"/>
	<path class="st3" d="M120.7,263.1c-0.1-0.2-0.2-0.5-0.2-0.9c-0.7,0.7-1.5,1-2.4,1c-0.8,0-1.5-0.2-2.1-0.7c-0.5-0.5-0.8-1.1-0.8-1.8
		c0-0.9,0.3-1.6,1-2.1c0.7-0.5,1.6-0.7,2.8-0.7h1.4v-0.7c0-0.5-0.2-0.9-0.5-1.2c-0.3-0.3-0.7-0.4-1.3-0.4c-0.5,0-0.9,0.1-1.3,0.4
		c-0.3,0.3-0.5,0.6-0.5,0.9h-1.5c0-0.4,0.1-0.8,0.4-1.2c0.3-0.4,0.7-0.7,1.2-0.9c0.5-0.2,1.1-0.3,1.7-0.3c1,0,1.7,0.2,2.3,0.7
		c0.6,0.5,0.8,1.2,0.9,2v3.9c0,0.8,0.1,1.4,0.3,1.9v0.1H120.7z M118.3,262c0.5,0,0.9-0.1,1.3-0.4s0.7-0.5,0.9-0.9V259h-1.1
		c-1.8,0-2.7,0.5-2.7,1.6c0,0.5,0.2,0.8,0.5,1.1C117.4,261.8,117.8,262,118.3,262z"/>
	<path class="st3" d="M123.8,258.8c0-1.3,0.3-2.4,0.9-3.1s1.4-1.2,2.4-1.2c1,0,1.8,0.4,2.4,1.1l0.1-0.9h1.3v8.2c0,1.1-0.3,2-1,2.6
		s-1.5,0.9-2.6,0.9c-0.6,0-1.2-0.1-1.8-0.4c-0.6-0.3-1-0.6-1.3-1.1l0.8-0.9c0.6,0.8,1.4,1.1,2.3,1.1c0.7,0,1.3-0.2,1.6-0.6
		c0.4-0.4,0.6-1,0.6-1.7v-0.7c-0.6,0.7-1.4,1-2.4,1c-1,0-1.8-0.4-2.4-1.2C124.1,261.2,123.8,260.1,123.8,258.8z M125.3,258.9
		c0,1,0.2,1.7,0.6,2.2s0.9,0.8,1.6,0.8c0.9,0,1.6-0.4,2-1.2v-3.9c-0.4-0.8-1.1-1.2-2-1.2c-0.7,0-1.3,0.3-1.6,0.8
		C125.5,257.1,125.3,257.9,125.3,258.9z"/>
	<path class="st3" d="M138.4,262.2c-0.6,0.7-1.4,1-2.5,1c-0.9,0-1.6-0.3-2.1-0.8c-0.5-0.5-0.7-1.3-0.7-2.3v-5.5h1.4v5.5
		c0,1.3,0.5,1.9,1.6,1.9c1.1,0,1.8-0.4,2.2-1.2v-6.1h1.4v8.5h-1.4L138.4,262.2z"/>
	<path class="st3" d="M147.2,263.1c-0.1-0.2-0.2-0.5-0.2-0.9c-0.7,0.7-1.5,1-2.4,1c-0.8,0-1.5-0.2-2.1-0.7c-0.5-0.5-0.8-1.1-0.8-1.8
		c0-0.9,0.3-1.6,1-2.1c0.7-0.5,1.6-0.7,2.8-0.7h1.4v-0.7c0-0.5-0.2-0.9-0.5-1.2c-0.3-0.3-0.7-0.4-1.3-0.4c-0.5,0-0.9,0.1-1.3,0.4
		c-0.3,0.3-0.5,0.6-0.5,0.9h-1.5c0-0.4,0.1-0.8,0.4-1.2c0.3-0.4,0.7-0.7,1.2-0.9c0.5-0.2,1.1-0.3,1.7-0.3c1,0,1.7,0.2,2.3,0.7
		s0.8,1.2,0.9,2v3.9c0,0.8,0.1,1.4,0.3,1.9v0.1H147.2z M144.8,262c0.5,0,0.9-0.1,1.3-0.4s0.7-0.5,0.9-0.9V259h-1.1
		c-1.8,0-2.7,0.5-2.7,1.6c0,0.5,0.2,0.8,0.5,1.1C143.9,261.8,144.3,262,144.8,262z"/>
	<path class="st3" d="M150.6,265.3l-0.8-0.6c0.5-0.7,0.7-1.4,0.8-2.1v-1.3h1.4v1.1c0,0.5-0.1,1.1-0.4,1.6S151,265,150.6,265.3z"/>
	<path class="st3" d="M159.3,263.1h-1.4v-12h1.4V263.1z"/>
	<path class="st3" d="M166.9,262.2c-0.6,0.7-1.4,1-2.5,1c-0.9,0-1.6-0.3-2.1-0.8c-0.5-0.5-0.7-1.3-0.7-2.3v-5.5h1.4v5.5
		c0,1.3,0.5,1.9,1.6,1.9c1.1,0,1.8-0.4,2.2-1.2v-6.1h1.4v8.5h-1.4L166.9,262.2z"/>
	<path class="st3" d="M171.8,261.9h4.9v1.2h-6.7V262l4.7-6.2h-4.6v-1.2h6.4v1L171.8,261.9z"/>
	<path class="st3" d="M178.4,265.3l-0.8-0.6c0.5-0.7,0.7-1.4,0.8-2.1v-1.3h1.4v1.1c0,0.5-0.1,1.1-0.4,1.6S178.7,265,178.4,265.3z"/>
	<path class="st3" d="M185.5,252.4c0-0.2,0.1-0.4,0.2-0.6c0.1-0.2,0.4-0.2,0.6-0.2s0.5,0.1,0.6,0.2c0.1,0.2,0.2,0.4,0.2,0.6
		s-0.1,0.4-0.2,0.6c-0.1,0.2-0.4,0.2-0.6,0.2s-0.5-0.1-0.6-0.2C185.6,252.8,185.5,252.6,185.5,252.4z M187.1,263.1h-1.4v-8.5h1.4
		V263.1z"/>
	<path class="st3" d="M190.8,254.6l0,1.1c0.6-0.8,1.5-1.2,2.5-1.2c1.8,0,2.7,1,2.7,3v5.6h-1.4v-5.6c0-0.6-0.1-1.1-0.4-1.4
		s-0.7-0.4-1.3-0.4c-0.5,0-0.9,0.1-1.2,0.4c-0.4,0.2-0.6,0.6-0.8,1v6h-1.4v-8.5H190.8z"/>
	<path class="st3" d="M200.2,252.6v2h1.6v1.1h-1.6v5.2c0,0.3,0.1,0.6,0.2,0.8c0.1,0.2,0.4,0.3,0.7,0.3c0.2,0,0.4,0,0.7-0.1v1.2
		c-0.4,0.1-0.8,0.2-1.1,0.2c-0.6,0-1.1-0.2-1.5-0.6s-0.5-0.9-0.5-1.7v-5.2h-1.5v-1.1h1.5v-2H200.2z"/>
	<path class="st3" d="M206.9,263.2c-1.1,0-2.1-0.4-2.8-1.1s-1.1-1.8-1.1-3v-0.3c0-0.8,0.2-1.6,0.5-2.2s0.8-1.2,1.3-1.5
		c0.6-0.4,1.2-0.6,1.9-0.6c1.1,0,2,0.4,2.6,1.1s0.9,1.8,0.9,3.1v0.6h-5.7c0,0.8,0.3,1.5,0.7,2c0.5,0.5,1.1,0.8,1.8,0.8
		c0.5,0,0.9-0.1,1.3-0.3c0.4-0.2,0.7-0.5,0.9-0.8l0.9,0.7C209.4,262.7,208.4,263.2,206.9,263.2z M206.8,255.6
		c-0.6,0-1.1,0.2-1.5,0.6c-0.4,0.4-0.6,1-0.7,1.8h4.2V258c0-0.7-0.2-1.3-0.6-1.7C207.8,255.8,207.4,255.6,206.8,255.6z"/>
	<path class="st3" d="M216,255.9c-0.2,0-0.5-0.1-0.7-0.1c-0.9,0-1.6,0.4-1.9,1.2v6h-1.4v-8.5h1.4l0,1c0.5-0.8,1.1-1.1,2-1.1
		c0.3,0,0.5,0,0.6,0.1V255.9z"/>
	<path class="st3" d="M218.7,254.6l0,1.1c0.6-0.8,1.5-1.2,2.5-1.2c1.8,0,2.7,1,2.7,3v5.6h-1.4v-5.6c0-0.6-0.1-1.1-0.4-1.4
		s-0.7-0.4-1.3-0.4c-0.5,0-0.9,0.1-1.2,0.4c-0.4,0.2-0.6,0.6-0.8,1v6h-1.4v-8.5H218.7z"/>
	<path class="st3" d="M229.7,263.2c-1.1,0-2.1-0.4-2.8-1.1s-1.1-1.8-1.1-3v-0.3c0-0.8,0.2-1.6,0.5-2.2s0.8-1.2,1.3-1.5
		c0.6-0.4,1.2-0.6,1.9-0.6c1.1,0,2,0.4,2.6,1.1s0.9,1.8,0.9,3.1v0.6h-5.7c0,0.8,0.3,1.5,0.7,2c0.5,0.5,1.1,0.8,1.8,0.8
		c0.5,0,0.9-0.1,1.3-0.3c0.4-0.2,0.7-0.5,0.9-0.8l0.9,0.7C232.1,262.7,231.1,263.2,229.7,263.2z M229.5,255.6
		c-0.6,0-1.1,0.2-1.5,0.6c-0.4,0.4-0.6,1-0.7,1.8h4.2V258c0-0.7-0.2-1.3-0.6-1.7C230.6,255.8,230.1,255.6,229.5,255.6z"/>
	<path class="st3" d="M236.6,252.6v2h1.6v1.1h-1.6v5.2c0,0.3,0.1,0.6,0.2,0.8c0.1,0.2,0.4,0.3,0.7,0.3c0.2,0,0.4,0,0.7-0.1v1.2
		c-0.4,0.1-0.8,0.2-1.1,0.2c-0.6,0-1.1-0.2-1.5-0.6s-0.5-0.9-0.5-1.7v-5.2h-1.5v-1.1h1.5v-2H236.6z"/>
	<path class="st3" d="M239.8,265.3l-0.8-0.6c0.5-0.7,0.7-1.4,0.8-2.1v-1.3h1.4v1.1c0,0.5-0.1,1.1-0.4,1.6S240.2,265,239.8,265.3z"/>
</g>
<g class="st2">
	<path class="st3" d="M67.4,276.6v2H69v1.1h-1.6v5.2c0,0.3,0.1,0.6,0.2,0.8c0.1,0.2,0.4,0.3,0.7,0.3c0.2,0,0.4,0,0.7-0.1v1.2
		c-0.4,0.1-0.8,0.2-1.1,0.2c-0.6,0-1.1-0.2-1.5-0.6s-0.5-0.9-0.5-1.7v-5.2h-1.5v-1.1h1.5v-2H67.4z"/>
	<path class="st3" d="M74.7,279.9c-0.2,0-0.5-0.1-0.7-0.1c-0.9,0-1.6,0.4-1.9,1.2v6h-1.4v-8.5H72l0,1c0.5-0.8,1.1-1.1,2-1.1
		c0.3,0,0.5,0,0.6,0.1V279.9z"/>
	<path class="st3" d="M81,287.1c-0.1-0.2-0.2-0.5-0.2-0.9c-0.7,0.7-1.5,1-2.4,1c-0.8,0-1.5-0.2-2.1-0.7c-0.5-0.5-0.8-1.1-0.8-1.8
		c0-0.9,0.3-1.6,1-2.1c0.7-0.5,1.6-0.7,2.8-0.7h1.4v-0.7c0-0.5-0.2-0.9-0.5-1.2c-0.3-0.3-0.7-0.4-1.3-0.4c-0.5,0-0.9,0.1-1.3,0.4
		c-0.3,0.3-0.5,0.6-0.5,0.9h-1.5c0-0.4,0.1-0.8,0.4-1.2c0.3-0.4,0.7-0.7,1.2-0.9c0.5-0.2,1.1-0.3,1.7-0.3c1,0,1.7,0.2,2.3,0.7
		c0.6,0.5,0.8,1.2,0.9,2v3.9c0,0.8,0.1,1.4,0.3,1.9v0.1H81z M78.6,286c0.5,0,0.9-0.1,1.3-0.4s0.7-0.5,0.9-0.9V283h-1.1
		c-1.8,0-2.7,0.5-2.7,1.6c0,0.5,0.2,0.8,0.5,1.1C77.7,285.8,78.1,286,78.6,286z"/>
	<path class="st3" d="M85.8,278.6l0,1.1c0.6-0.8,1.5-1.2,2.5-1.2c1.8,0,2.7,1,2.7,3v5.6h-1.4v-5.6c0-0.6-0.1-1.1-0.4-1.4
		s-0.7-0.4-1.3-0.4c-0.5,0-0.9,0.1-1.2,0.4c-0.4,0.2-0.6,0.6-0.8,1v6h-1.4v-8.5H85.8z"/>
	<path class="st3" d="M98.2,284.8c0-0.4-0.1-0.7-0.4-0.9c-0.3-0.2-0.8-0.4-1.5-0.6c-0.7-0.2-1.3-0.3-1.7-0.6s-0.7-0.5-1-0.8
		c-0.2-0.3-0.3-0.7-0.3-1.1c0-0.7,0.3-1.3,0.9-1.8s1.3-0.7,2.2-0.7c1,0,1.7,0.2,2.3,0.7c0.6,0.5,0.9,1.1,0.9,1.9h-1.5
		c0-0.4-0.2-0.7-0.5-1s-0.8-0.4-1.3-0.4c-0.5,0-0.9,0.1-1.2,0.3s-0.4,0.5-0.4,0.9c0,0.3,0.1,0.6,0.4,0.8c0.3,0.2,0.8,0.3,1.5,0.5
		c0.7,0.2,1.3,0.4,1.8,0.6c0.4,0.2,0.8,0.5,1,0.8c0.2,0.3,0.3,0.7,0.3,1.2c0,0.8-0.3,1.4-0.9,1.8c-0.6,0.5-1.4,0.7-2.4,0.7
		c-0.7,0-1.3-0.1-1.8-0.4c-0.5-0.2-0.9-0.6-1.2-1c-0.3-0.4-0.4-0.9-0.4-1.4h1.4c0,0.5,0.2,0.9,0.6,1.2c0.4,0.3,0.8,0.4,1.4,0.4
		c0.5,0,1-0.1,1.3-0.3C98,285.5,98.2,285.2,98.2,284.8z"/>
	<path class="st3" d="M108.7,282.9c0,1.3-0.3,2.3-0.9,3.1c-0.6,0.8-1.4,1.2-2.4,1.2c-1,0-1.8-0.3-2.4-1v4.1h-1.4v-11.7h1.3l0.1,0.9
		c0.6-0.7,1.4-1.1,2.5-1.1c1,0,1.8,0.4,2.4,1.1c0.6,0.8,0.9,1.8,0.9,3.2V282.9z M107.2,282.8c0-1-0.2-1.7-0.6-2.3s-1-0.8-1.7-0.8
		c-0.9,0-1.5,0.4-2,1.2v4c0.4,0.8,1.1,1.2,2,1.2c0.7,0,1.2-0.3,1.7-0.8C107,284.7,107.2,283.9,107.2,282.8z"/>
	<path class="st3" d="M110.1,282.8c0-0.8,0.2-1.6,0.5-2.2c0.3-0.7,0.8-1.2,1.4-1.5c0.6-0.4,1.2-0.5,2-0.5c1.2,0,2.1,0.4,2.8,1.2
		s1.1,1.9,1.1,3.2v0.1c0,0.8-0.2,1.6-0.5,2.2c-0.3,0.7-0.8,1.2-1.4,1.5s-1.3,0.5-2,0.5c-1.1,0-2.1-0.4-2.8-1.2s-1.1-1.9-1.1-3.2
		V282.8z M111.6,282.9c0,0.9,0.2,1.7,0.7,2.3c0.4,0.6,1,0.9,1.7,0.9c0.7,0,1.3-0.3,1.8-0.9c0.4-0.6,0.6-1.4,0.6-2.4
		c0-0.9-0.2-1.7-0.7-2.3c-0.4-0.6-1-0.9-1.8-0.9c-0.7,0-1.3,0.3-1.7,0.9S111.6,281.9,111.6,282.9z"/>
	<path class="st3" d="M123.7,279.9c-0.2,0-0.5-0.1-0.7-0.1c-0.9,0-1.6,0.4-1.9,1.2v6h-1.4v-8.5h1.4l0,1c0.5-0.8,1.1-1.1,2-1.1
		c0.3,0,0.5,0,0.6,0.1V279.9z"/>
	<path class="st3" d="M127.4,276.6v2h1.6v1.1h-1.6v5.2c0,0.3,0.1,0.6,0.2,0.8c0.1,0.2,0.4,0.3,0.7,0.3c0.2,0,0.4,0,0.7-0.1v1.2
		c-0.4,0.1-0.8,0.2-1.1,0.2c-0.6,0-1.1-0.2-1.5-0.6s-0.5-0.9-0.5-1.7v-5.2h-1.5v-1.1h1.5v-2H127.4z"/>
	<path class="st3" d="M134.2,287.2c-1.1,0-2.1-0.4-2.8-1.1s-1.1-1.8-1.1-3v-0.3c0-0.8,0.2-1.6,0.5-2.2s0.8-1.2,1.3-1.5
		c0.6-0.4,1.2-0.6,1.9-0.6c1.1,0,2,0.4,2.6,1.1s0.9,1.8,0.9,3.1v0.6h-5.7c0,0.8,0.3,1.5,0.7,2c0.5,0.5,1.1,0.8,1.8,0.8
		c0.5,0,0.9-0.1,1.3-0.3c0.4-0.2,0.7-0.5,0.9-0.8l0.9,0.7C136.6,286.7,135.6,287.2,134.2,287.2z M134,279.6c-0.6,0-1.1,0.2-1.5,0.6
		c-0.4,0.4-0.6,1-0.7,1.8h4.2V282c0-0.7-0.2-1.3-0.6-1.7C135.1,279.8,134.6,279.6,134,279.6z"/>
	<path class="st3" d="M139.1,289.3l-0.8-0.6c0.5-0.7,0.7-1.4,0.8-2.1v-1.3h1.4v1.1c0,0.5-0.1,1.1-0.4,1.6S139.5,289,139.1,289.3z"/>
	<path class="st3" d="M149.7,287.2c-1.1,0-2.1-0.4-2.8-1.1s-1.1-1.8-1.1-3v-0.3c0-0.8,0.2-1.6,0.5-2.2s0.8-1.2,1.3-1.5
		c0.6-0.4,1.2-0.6,1.9-0.6c1.1,0,2,0.4,2.6,1.1s0.9,1.8,0.9,3.1v0.6h-5.7c0,0.8,0.3,1.5,0.7,2c0.5,0.5,1.1,0.8,1.8,0.8
		c0.5,0,0.9-0.1,1.3-0.3s0.7-0.5,0.9-0.8l0.9,0.7C152.2,286.7,151.2,287.2,149.7,287.2z M149.6,279.6c-0.6,0-1.1,0.2-1.5,0.6
		c-0.4,0.4-0.6,1-0.7,1.8h4.2V282c0-0.7-0.2-1.3-0.6-1.7S150.2,279.6,149.6,279.6z"/>
	<path class="st3" d="M156.1,278.6l0,1.1c0.6-0.8,1.5-1.2,2.5-1.2c1.8,0,2.7,1,2.7,3v5.6h-1.4v-5.6c0-0.6-0.1-1.1-0.4-1.4
		s-0.7-0.4-1.3-0.4c-0.5,0-0.9,0.1-1.2,0.4s-0.6,0.6-0.8,1v6h-1.4v-8.5H156.1z"/>
	<path class="st3" d="M165.5,276.6v2h1.6v1.1h-1.6v5.2c0,0.3,0.1,0.6,0.2,0.8c0.1,0.2,0.4,0.3,0.7,0.3c0.2,0,0.4,0,0.7-0.1v1.2
		c-0.4,0.1-0.8,0.2-1.1,0.2c-0.6,0-1.1-0.2-1.5-0.6s-0.5-0.9-0.5-1.7v-5.2h-1.5v-1.1h1.5v-2H165.5z"/>
	<path class="st3" d="M172.9,279.9c-0.2,0-0.5-0.1-0.7-0.1c-0.9,0-1.6,0.4-1.9,1.2v6h-1.4v-8.5h1.4l0,1c0.5-0.8,1.1-1.1,2-1.1
		c0.3,0,0.5,0,0.6,0.1V279.9z"/>
	<path class="st3" d="M177.7,287.2c-1.1,0-2.1-0.4-2.8-1.1s-1.1-1.8-1.1-3v-0.3c0-0.8,0.2-1.6,0.5-2.2s0.8-1.2,1.3-1.5
		s1.2-0.6,1.9-0.6c1.1,0,2,0.4,2.6,1.1s0.9,1.8,0.9,3.1v0.6h-5.7c0,0.8,0.3,1.5,0.7,2s1.1,0.8,1.8,0.8c0.5,0,0.9-0.1,1.3-0.3
		s0.7-0.5,0.9-0.8l0.9,0.7C180.2,286.7,179.1,287.2,177.7,287.2z M177.5,279.6c-0.6,0-1.1,0.2-1.5,0.6s-0.6,1-0.7,1.8h4.2V282
		c0-0.7-0.2-1.3-0.6-1.7S178.1,279.6,177.5,279.6z"/>
	<path class="st3" d="M186.2,282.8c0-0.8,0.2-1.6,0.5-2.2s0.8-1.2,1.4-1.5s1.2-0.5,2-0.5c1.2,0,2.1,0.4,2.8,1.2s1.1,1.9,1.1,3.2v0.1
		c0,0.8-0.2,1.6-0.5,2.2s-0.8,1.2-1.4,1.5s-1.3,0.5-2,0.5c-1.1,0-2.1-0.4-2.8-1.2s-1.1-1.9-1.1-3.2V282.8z M187.7,282.9
		c0,0.9,0.2,1.7,0.7,2.3s1,0.9,1.7,0.9c0.7,0,1.3-0.3,1.8-0.9s0.6-1.4,0.6-2.4c0-0.9-0.2-1.7-0.7-2.3s-1-0.9-1.8-0.9
		c-0.7,0-1.3,0.3-1.7,0.9S187.7,281.9,187.7,282.9z"/>
	<path class="st3" d="M197.7,276.6v2h1.6v1.1h-1.6v5.2c0,0.3,0.1,0.6,0.2,0.8c0.1,0.2,0.4,0.3,0.7,0.3c0.2,0,0.4,0,0.7-0.1v1.2
		c-0.4,0.1-0.8,0.2-1.1,0.2c-0.6,0-1.1-0.2-1.5-0.6s-0.5-0.9-0.5-1.7v-5.2h-1.5v-1.1h1.5v-2H197.7z"/>
	<path class="st3" d="M205.1,279.9c-0.2,0-0.5-0.1-0.7-0.1c-0.9,0-1.6,0.4-1.9,1.2v6H201v-8.5h1.4l0,1c0.5-0.8,1.1-1.1,2-1.1
		c0.3,0,0.5,0,0.6,0.1V279.9z"/>
	<path class="st3" d="M205.8,282.8c0-0.8,0.2-1.6,0.5-2.2s0.8-1.2,1.4-1.5s1.2-0.5,2-0.5c1.2,0,2.1,0.4,2.8,1.2s1.1,1.9,1.1,3.2v0.1
		c0,0.8-0.2,1.6-0.5,2.2s-0.8,1.2-1.4,1.5s-1.3,0.5-2,0.5c-1.1,0-2.1-0.4-2.8-1.2s-1.1-1.9-1.1-3.2V282.8z M207.3,282.9
		c0,0.9,0.2,1.7,0.7,2.3s1,0.9,1.7,0.9c0.7,0,1.3-0.3,1.8-0.9s0.6-1.4,0.6-2.4c0-0.9-0.2-1.7-0.7-2.3s-1-0.9-1.8-0.9
		c-0.7,0-1.3,0.3-1.7,0.9S207.3,281.9,207.3,282.9z"/>
	<path class="st3" d="M220.3,284.8c0-0.4-0.1-0.7-0.4-0.9s-0.8-0.4-1.5-0.6s-1.3-0.3-1.7-0.6s-0.7-0.5-1-0.8s-0.3-0.7-0.3-1.1
		c0-0.7,0.3-1.3,0.9-1.8s1.3-0.7,2.2-0.7c1,0,1.7,0.2,2.3,0.7s0.9,1.1,0.9,1.9h-1.5c0-0.4-0.2-0.7-0.5-1s-0.8-0.4-1.3-0.4
		c-0.5,0-0.9,0.1-1.2,0.3s-0.4,0.5-0.4,0.9c0,0.3,0.1,0.6,0.4,0.8s0.8,0.3,1.5,0.5s1.3,0.4,1.8,0.6s0.8,0.5,1,0.8s0.3,0.7,0.3,1.2
		c0,0.8-0.3,1.4-0.9,1.8s-1.4,0.7-2.4,0.7c-0.7,0-1.3-0.1-1.8-0.4s-0.9-0.6-1.2-1s-0.4-0.9-0.4-1.4h1.4c0,0.5,0.2,0.9,0.6,1.2
		s0.8,0.4,1.4,0.4c0.5,0,1-0.1,1.3-0.3S220.3,285.2,220.3,284.8z"/>
	<path class="st3" d="M223.6,286.3c0-0.2,0.1-0.5,0.2-0.6s0.4-0.2,0.7-0.2s0.5,0.1,0.7,0.2s0.2,0.4,0.2,0.6c0,0.2-0.1,0.4-0.2,0.6
		s-0.4,0.2-0.7,0.2s-0.5-0.1-0.7-0.2S223.6,286.6,223.6,286.3z"/>
</g>
<path id="Rectángulo_36944" class="st4" d="M22,0h251c12.2,0,22,9.8,22,22v29.9l0,0H0l0,0V22C0,9.8,9.8,0,22,0z"/>
<g class="st2">
	<path class="st1" d="M122.4,28.6c0-0.5-0.2-0.9-0.5-1.1s-1-0.5-1.9-0.8s-1.6-0.6-2.2-0.9c-1.5-0.8-2.2-1.8-2.2-3.2
		c0-0.7,0.2-1.3,0.6-1.9c0.4-0.5,0.9-1,1.7-1.3s1.5-0.5,2.5-0.5c0.9,0,1.7,0.2,2.4,0.5c0.7,0.3,1.3,0.8,1.7,1.4s0.6,1.3,0.6,2.1
		h-2.6c0-0.6-0.2-1-0.6-1.4c-0.4-0.3-0.9-0.5-1.6-0.5c-0.6,0-1.1,0.1-1.5,0.4c-0.4,0.3-0.5,0.6-0.5,1.1c0,0.4,0.2,0.8,0.6,1
		s1,0.5,1.9,0.8c1.5,0.5,2.6,1,3.3,1.7s1,1.5,1,2.5c0,1.1-0.4,2-1.3,2.6c-0.8,0.6-2,0.9-3.4,0.9c-1,0-1.9-0.2-2.7-0.5
		c-0.8-0.4-1.4-0.9-1.9-1.5s-0.6-1.4-0.6-2.2h2.6c0,1.4,0.8,2.1,2.5,2.1c0.6,0,1.1-0.1,1.5-0.4C122.2,29.5,122.4,29.1,122.4,28.6z"
		/>
	<path class="st1" d="M131.1,32.2c-1.4,0-2.5-0.4-3.4-1.3s-1.3-2-1.3-3.4v-0.2c0-1,0.2-1.8,0.6-2.6s0.9-1.3,1.6-1.7s1.4-0.6,2.3-0.6
		c1.3,0,2.3,0.4,3.1,1.2s1.1,2,1.1,3.5v1h-6.1c0.1,0.6,0.3,1.1,0.7,1.5s0.9,0.6,1.6,0.6c1,0,1.7-0.4,2.3-1.1l1.2,1.4
		c-0.4,0.5-0.9,1-1.5,1.3C132.6,32,131.8,32.2,131.1,32.2z M130.8,24.4c-0.5,0-0.9,0.2-1.2,0.5c-0.3,0.3-0.5,0.8-0.6,1.5h3.5v-0.2
		c0-0.6-0.2-1-0.5-1.3C131.7,24.5,131.3,24.4,130.8,24.4z"/>
	<path class="st1" d="M141.8,24.9c-0.3,0-0.7-0.1-0.9-0.1c-1,0-1.6,0.3-1.9,1V32h-2.5v-9.5h2.4l0.1,1.1c0.5-0.9,1.2-1.3,2.1-1.3
		c0.3,0,0.5,0,0.8,0.1L141.8,24.9z"/>
	<path class="st1" d="M146.7,28.9l1.8-6.4h2.7l-3.2,9.5h-2.4l-3.2-9.5h2.7L146.7,28.9z"/>
	<path class="st1" d="M152.2,20c0-0.4,0.1-0.7,0.4-0.9s0.6-0.4,1-0.4c0.4,0,0.8,0.1,1,0.4s0.4,0.6,0.4,0.9c0,0.4-0.1,0.7-0.4,0.9
		s-0.6,0.4-1,0.4s-0.8-0.1-1-0.4S152.2,20.4,152.2,20z M154.9,32h-2.5v-9.5h2.5V32z"/>
	<path class="st1" d="M161,30.1c0.5,0,0.8-0.1,1.1-0.4s0.4-0.6,0.5-1h2.4c0,0.6-0.2,1.2-0.5,1.8c-0.3,0.5-0.8,1-1.4,1.2
		c-0.6,0.3-1.3,0.4-2,0.4c-1.4,0-2.4-0.4-3.2-1.3c-0.8-0.9-1.2-2.1-1.2-3.6v-0.2c0-1.5,0.4-2.6,1.2-3.5s1.8-1.3,3.2-1.3
		c1.2,0,2.1,0.3,2.9,1c0.7,0.7,1.1,1.6,1.1,2.7h-2.4c0-0.5-0.2-0.9-0.5-1.2s-0.7-0.5-1.2-0.5c-0.6,0-1,0.2-1.3,0.6
		c-0.3,0.4-0.5,1.1-0.5,2.1v0.3c0,1,0.1,1.7,0.4,2.1S160.3,30.1,161,30.1z"/>
	<path class="st1" d="M166.4,20c0-0.4,0.1-0.7,0.4-0.9s0.6-0.4,1-0.4c0.4,0,0.8,0.1,1,0.4s0.4,0.6,0.4,0.9c0,0.4-0.1,0.7-0.4,0.9
		s-0.6,0.4-1,0.4s-0.8-0.1-1-0.4S166.4,20.4,166.4,20z M169.1,32h-2.5v-9.5h2.5V32z"/>
	<path class="st1" d="M170.8,27.2c0-0.9,0.2-1.8,0.5-2.5s0.9-1.3,1.6-1.7s1.5-0.6,2.4-0.6c1.3,0,2.3,0.4,3.1,1.2s1.3,1.9,1.4,3.2
		l0,0.7c0,1.5-0.4,2.6-1.2,3.5s-1.9,1.3-3.3,1.3s-2.5-0.4-3.3-1.3s-1.2-2.1-1.2-3.6V27.2z M173.3,27.3c0,0.9,0.2,1.6,0.5,2.1
		c0.3,0.5,0.8,0.7,1.5,0.7c0.6,0,1.1-0.2,1.4-0.7c0.3-0.5,0.5-1.2,0.5-2.3c0-0.9-0.2-1.6-0.5-2.1s-0.8-0.7-1.5-0.7
		c-0.6,0-1.1,0.2-1.4,0.7C173.5,25.6,173.3,26.3,173.3,27.3z"/>
</g>
<g id="Grupo_93730" transform="translate(676.48 1132.017)">
	<g id="Grupo_93674" transform="translate(29.609 82.777)">
		<path id="Trazado_210457" class="st5" d="M-480.4-1006.3c20.6-15.6,29.7-59-3.7-80.3c-22.1-14.1-35.9-6-60.7-15.4
			c-30.4-11.4-34.9-45.7-71.8-28.8c-19.6,8.9-33.1,34.2-35.5,62.8c-2.3,28.1,7.6,47.3,27.9,60.5
			C-576.5-1005.4-528.6-1005.8-480.4-1006.3z"/>
		<path id="Trazado_210458" class="st5" d="M-564.9-1129.7c-3.1,12.5,8.4,24.8,20.6,29.9c12.2,5.1,26.1,4.5,39.1,2.1
			c5.6-1.1,11.4-2.5,15.8-6.1c4.4-3.6,6.9-9.8,4.5-14.8c-2.1-4.4-7.3-6.7-12.2-7.9s-10.1-1.6-14.5-4.1c-4.1-2.3-7.1-6.2-10.7-9.2
			c-6.7-5.6-16-8.4-24.6-6.6C-555.5-1144.7-562.3-1140.3-564.9-1129.7z"/>
	</g>
	<g id="Grupo_93729" transform="translate(26.86 81.187)">
		<g id="Grupo_93690" transform="translate(12.782 0)">
			<g id="Grupo_93675" transform="translate(111.137 49.998)">
				<path id="Trazado_210459" class="st6" d="M-593-1120.7v-9.4h-3.6c-0.4-1.6-1.1-3.2-1.9-4.6l2.5-2.5l-6.7-6.7l-2.5,2.5
					c-1.5-0.9-3-1.5-4.6-1.9v-3.6h-9.4v3.6c-1.6,0.4-3.2,1.1-4.6,1.9l-2.5-2.5l-6.7,6.7l2.5,2.5c-0.9,1.5-1.5,3-1.9,4.6h-3.6v9.4
					h3.6c0.4,1.6,1.1,3.2,1.9,4.6l-2.5,2.5l6.7,6.7l2.5-2.5c1.5,0.8,3,1.5,4.6,1.9v3.6h9.4v-3.6c1.6-0.4,3.2-1.1,4.6-1.9l2.5,2.5
					l6.7-6.7l-2.5-2.5c0.9-1.5,1.5-3,1.9-4.6H-593z M-614.5-1117.3c-4.5,0-8.2-3.7-8.2-8.2s3.7-8.2,8.2-8.2c4.5,0,8.2,3.7,8.2,8.2
					c0,0,0,0,0,0C-606.4-1120.9-610-1117.3-614.5-1117.3L-614.5-1117.3z"/>
				<path id="Trazado_210460" class="st7" d="M-621.5-1097.1l-1.8-4.7l-1.8,0.7c-0.5-0.7-1.1-1.4-1.8-1.9l0.8-1.7l-4.6-2l-0.8,1.7
					c-0.9-0.1-1.8-0.2-2.7-0.1l-0.7-1.8l-4.7,1.8l0.7,1.8c-0.7,0.5-1.4,1.1-1.9,1.8l-1.7-0.8l-2,4.6l1.7,0.8
					c-0.1,0.9-0.2,1.8-0.1,2.7l-1.8,0.7l1.8,4.7l1.8-0.7c0.5,0.7,1.1,1.4,1.8,1.9l-0.8,1.7l4.6,2l0.8-1.7c0.9,0.1,1.8,0.2,2.7,0.1
					l0.7,1.8l4.7-1.8l-0.7-1.8c0.7-0.5,1.4-1.1,1.9-1.8l1.7,0.8l2-4.6l-1.7-0.8c0.1-0.9,0.2-1.8,0.1-2.7L-621.5-1097.1z
					 M-631.5-1091.3c-2.2,0.9-4.8-0.3-5.6-2.5s0.3-4.8,2.5-5.6c2.2-0.9,4.8,0.3,5.6,2.5C-628.2-1094.7-629.3-1092.1-631.5-1091.3
					L-631.5-1091.3z"/>
				<path id="Trazado_210461" class="st7" d="M-636.9-1113.5l-1.2-3.2l-1.2,0.5c-0.4-0.5-0.8-0.9-1.2-1.3l0.5-1.2l-3.1-1.4l-0.5,1.2
					c-0.6-0.1-1.2-0.1-1.8,0l-0.5-1.2l-3.2,1.2l0.5,1.2c-0.5,0.4-0.9,0.8-1.3,1.2l-1.2-0.5l-1.4,3.1l1.2,0.5c-0.1,0.6-0.1,1.2,0,1.8
					l-1.2,0.5l1.2,3.2l1.2-0.5c0.4,0.5,0.8,0.9,1.2,1.3l-0.5,1.2l3.1,1.4l0.5-1.2c0.6,0.1,1.2,0.1,1.8,0l0.5,1.2l3.2-1.2l-0.5-1.2
					c0.5-0.4,0.9-0.8,1.3-1.2l1.2,0.5l1.4-3.1l-1.2-0.5c0.1-0.6,0.1-1.2,0-1.8L-636.9-1113.5z M-643.6-1109.6
					c-1.5,0.6-3.2-0.2-3.8-1.7c-0.6-1.5,0.2-3.2,1.7-3.8c1.5-0.6,3.2,0.2,3.8,1.7C-641.4-1111.9-642.1-1110.2-643.6-1109.6
					L-643.6-1109.6z"/>
			</g>
			<g id="Grupo_93677" transform="translate(95.859 13.201)">
				<path id="Trazado_210462" class="st8" d="M-622.7-1132.1c0,8.2-6.7,14.9-14.9,14.9c-8.2,0-14.9-6.7-14.9-14.9
					s6.7-14.9,14.9-14.9l0,0C-629.4-1147-622.7-1140.3-622.7-1132.1C-622.7-1132.1-622.7-1132.1-622.7-1132.1z"/>
				<g id="Grupo_93676" transform="translate(5.665 4.562)">
					<circle id="Elipse_5293" class="st1" cx="-643.3" cy="-1141.6" r="4.9"/>
					<path id="Trazado_210463" class="st1" d="M-634-1126.8c-5.4,4.3-13.1,4.3-18.5,0c1-4.2,1.8-7.8,2.7-8.7c1.3-1.3,4.7-2,6.5-2
						s5.4,0.9,6,1.6C-635.9-1134.7-634.7-1131-634-1126.8z"/>
				</g>
			</g>
			<g id="Grupo_93680" transform="translate(87.911 53.872)">
				<g id="Grupo_93678">
					<path id="Trazado_210464" class="st9" d="M-651.1-1136v-7.4c0-2,1.6-3.6,3.6-3.6c0,0,0,0,0,0h23.2c2,0,3.6,1.6,3.6,3.6
						c0,0,0,0,0,0v7.4c0,2-1.6,3.6-3.6,3.6c0,0,0,0,0,0h-23.2C-649.4-1132.4-651.1-1134-651.1-1136L-651.1-1136z"/>
					<path id="Trazado_210465" class="st9" d="M-641.3-1136.4l-11.2,10.9l18.2-9.2"/>
				</g>
				<g id="Grupo_93679" transform="translate(4.245 2.876)">
					<path id="Trazado_210466" class="st1" d="M-652.5-1146.4L-652.5-1146.4c0-0.3,0.2-0.6,0.5-0.6h11.5c0.3,0,0.5,0.2,0.5,0.5v0
						c0,0.3-0.2,0.5-0.5,0.5H-652C-652.3-1145.9-652.5-1146.1-652.5-1146.4z"/>
					<path id="Trazado_210467" class="st1" d="M-639.4-1146.4L-639.4-1146.4c0-0.3,0.2-0.6,0.5-0.6h10c0.3,0,0.5,0.2,0.5,0.5v0
						c0,0.3-0.2,0.5-0.5,0.5h-10C-639.2-1145.9-639.4-1146.1-639.4-1146.4z"/>
					<path id="Trazado_210468" class="st1" d="M-643.8-1144L-643.8-1144c0-0.3,0.2-0.6,0.5-0.6h14.4c0.3,0,0.5,0.2,0.5,0.5v0
						c0,0.3-0.2,0.5-0.5,0.5h-14.4C-643.6-1143.4-643.8-1143.7-643.8-1144z"/>
					<path id="Trazado_210469" class="st1" d="M-652.5-1144L-652.5-1144c0-0.3,0.2-0.6,0.5-0.6h6.4c0.3,0,0.5,0.2,0.5,0.5v0
						c0,0.3-0.2,0.5-0.5,0.5h-6.4C-652.3-1143.4-652.5-1143.7-652.5-1144z"/>
					<path id="Trazado_210470" class="st1" d="M-641.8-1141.5L-641.8-1141.5c0-0.3,0.2-0.6,0.5-0.6h12.4c0.3,0,0.5,0.2,0.5,0.5v0
						c0,0.3-0.2,0.5-0.5,0.5h-12.4C-641.6-1140.9-641.8-1141.2-641.8-1141.5z"/>
					<path id="Trazado_210471" class="st1" d="M-652.5-1141.5L-652.5-1141.5c0-0.3,0.2-0.6,0.5-0.6h8.6c0.3,0,0.5,0.2,0.5,0.5v0
						c0,0.3-0.2,0.5-0.5,0.5h-8.6C-652.3-1140.9-652.5-1141.2-652.5-1141.5z"/>
					<path id="Trazado_210472" class="st1" d="M-652.5-1139L-652.5-1139c0-0.3,0.2-0.6,0.5-0.6h3.2c0.3,0,0.5,0.2,0.5,0.5v0
						c0,0.3-0.2,0.5-0.5,0.5h-3.2C-652.3-1138.5-652.5-1138.7-652.5-1139z"/>
					<path id="Trazado_210473" class="st1" d="M-647.1-1139L-647.1-1139c0-0.3,0.2-0.6,0.5-0.6h17.7c0.3,0,0.5,0.2,0.5,0.5v0
						c0,0.3-0.2,0.5-0.5,0.5h-17.7C-646.9-1138.5-647.1-1138.7-647.1-1139z"/>
				</g>
			</g>
			<g id="Grupo_93685" transform="translate(0 29.338)">
				<g id="Grupo_93684">
					<circle id="Elipse_5294" class="st8" cx="-633.4" cy="-1127.9" r="14.3"/>
					<g id="Grupo_93683" transform="translate(11.247 7.575)">
						<g id="Grupo_93681" transform="translate(0 14.095)">
							<circle id="Elipse_5295" class="st1" cx="-648.1" cy="-1142.6" r="3.5"/>
							<path id="Trazado_210474" class="st8" d="M-649.9-1141.3l-0.2-2.2l1.8-1.2l2,1l0.2,2.2l-1.8,1.2L-649.9-1141.3z"/>
						</g>
						<g id="Grupo_93682" transform="translate(6.75 0)">
							<circle id="Elipse_5296" class="st1" cx="-648.1" cy="-1142.6" r="3.5"/>
							<path id="Trazado_210475" class="st8" d="M-649.8-1141.5l0.1-2.8l2.1-1.8l2,1l-0.1,2.8l-2.1,1.8L-649.8-1141.5z"/>
						</g>
						<path id="Trazado_210476" class="st1" d="M-645.7-1130.1l-2.7-1.3l2-4.5c0.1-0.3,0.3-0.6,0.4-0.8l2.3-4.4l2.7,1.3l-1.9,4.5
							c-0.1,0.3-0.3,0.7-0.5,1L-645.7-1130.1z"/>
					</g>
				</g>
				<path id="Trazado_210477" class="st8" d="M-623.5-1120.2c0.5-0.2,8.7,0.1,8.7,0.1l-5.9-5.4L-623.5-1120.2z"/>
			</g>
			<g id="Grupo_93689" transform="translate(33.872)">
				<g id="Grupo_93687" transform="translate(0)">
					<g id="Grupo_93686">
						<circle id="Elipse_5297" class="st8" cx="-634" cy="-1128.5" r="14.1"/>
					</g>
				</g>
				<g id="Grupo_93688" transform="translate(8.135 6.524)">
					<rect id="Rectángulo_39767" x="-642.6" y="-1147" class="st1" width="0.9" height="11.8"/>
					
						<rect id="Rectángulo_39768" x="-653.3" y="-1131.8" transform="matrix(0.8222 -0.5692 0.5692 0.8222 528.848 -569.5378)" class="st1" width="12" height="0.9"/>
					<path id="Trazado_210478" class="st1" d="M-640.8-1135c0,0.7-0.6,1.3-1.3,1.3c-0.7,0-1.3-0.6-1.3-1.3c0-0.7,0.6-1.3,1.3-1.3
						C-641.4-1136.3-640.8-1135.7-640.8-1135L-640.8-1135z"/>
				</g>
			</g>
		</g>
		<g id="Grupo_93728" transform="translate(0 39.133)">
			<g id="Grupo_93705" transform="translate(0 32.975)">
				<g id="Grupo_93696" transform="translate(82.694 8.049)">
					<g id="Grupo_93691" transform="translate(10.964)">
						<path id="Trazado_210479" class="st6" d="M-642.7-1113.1c-0.8-12.9,4.8-26.2,14.3-33.9C-628.1-1134-633.7-1120.9-642.7-1113.1
							z"/>
						<path id="Trazado_210480" class="st10" d="M-629.9-1143.5c-4,7.5-7.5,15.3-10.3,23.3c-3.5,9.8-6.2,20.2-12.2,28.4"/>
					</g>
					<g id="Grupo_93692" transform="translate(17.786 20.793)">
						<path id="Trazado_210481" class="st6" d="M-652.5-1125.8c4.8-10.8,14.4-18.9,24.9-21.2
							C-632.1-1135.5-642.2-1126.7-652.5-1125.8z"/>
						<path id="Trazado_210482" class="st10" d="M-630.2-1144.6c-7.2,6.3-14.5,12.5-21.9,18.4"/>
					</g>
					<g id="Grupo_93693" transform="translate(13.81 38.736)">
						<path id="Trazado_210483" class="st6" d="M-651.4-1134.4c6.4-9.6,18.3-14.6,28.1-11.9
							C-630.5-1136.8-642.4-1131.8-651.4-1134.4z"/>
						<path id="Trazado_210484" class="st10" d="M-625.6-1145.6c-8.3,5.2-17.4,9.1-26.9,11.5"/>
					</g>
					<g id="Grupo_93694" transform="translate(9.453 7.901)">
						<path id="Trazado_210485" class="st6" d="M-643.5-1116.2c2.1-10.8-1-22.8-7.9-30.8C-654.2-1136.4-651.5-1123.9-643.5-1116.2z"
							/>
						<path id="Trazado_210486" class="st10" d="M-650.7-1144.2c1.3,9.8,3.8,19.5,7.5,28.7"/>
					</g>
					<g id="Grupo_93695" transform="translate(0 20.619)">
						<path id="Trazado_210487" class="st6" d="M-637.6-1119.7c-0.9-11.1-6.6-21.5-14.9-27.3c0.5,5.8,2,11.5,4.5,16.7
							C-645.1-1124.4-640.9-1120.6-637.6-1119.7z"/>
						<path id="Trazado_210488" class="st10" d="M-651.3-1144.8c3.2,9.1,7.9,17.7,13.9,25.3"/>
					</g>
				</g>
				<g id="Grupo_93702" transform="translate(144.478 25.987)">
					<g id="Grupo_93697" transform="translate(0 2.98)">
						<path id="Trazado_210489" class="st6" d="M-635.1-1122.7c4.5-11.8,15-21.4,26.5-24.3C-613.6-1135.3-623.9-1125.9-635.1-1122.7
							z"/>
						<path id="Trazado_210490" class="st10" d="M-611.4-1144.5c-6.6,5-12.9,10.6-18.7,16.6c-7.1,7.3-13.8,15.4-22.4,20.3"/>
					</g>
					<g id="Grupo_93698" transform="translate(11.432 23.905)">
						<path id="Trazado_210491" class="st6" d="M-652.5-1137.6c8.7-7.6,20.4-11,30.7-8.7C-630.5-1137.9-643-1134.2-652.5-1137.6z"/>
						<path id="Trazado_210492" class="st10" d="M-625.1-1145.3c-8.9,2.7-17.9,5.2-26.9,7.5"/>
					</g>
					<g id="Grupo_93699" transform="translate(3.946 36.298)">
						<path id="Trazado_210493" class="st6" d="M-651.4-1142.8c9.6-5.9,22.1-5.5,29.7,0.9C-631.9-1136.4-644.5-1136.8-651.4-1142.8z
							"/>
						<path id="Trazado_210494" class="st10" d="M-624-1142.3c-9.5,1.3-19.1,1-28.5-0.7"/>
					</g>
					<g id="Grupo_93700" transform="translate(11.533)">
						<path id="Trazado_210495" class="st6" d="M-650.7-1116.3c6.2-8.8,8.5-20.8,5.7-30.7C-651.9-1138.7-654.6-1126.5-650.7-1116.3z
							"/>
						<path id="Trazado_210496" class="st10" d="M-645.5-1144.3c-2.9,9.3-4.6,18.9-5.1,28.6"/>
					</g>
					<g id="Grupo_93701" transform="translate(1.615 7.03)">
						<path id="Trazado_210497" class="st6" d="M-647.7-1116.6c3.8-10.2,3-21.9-2-30.4c-2,5.4-2.9,11-2.8,16.7
							C-652.4-1123.8-650.2-1118.8-647.7-1116.6z"/>
						<path id="Trazado_210498" class="st10" d="M-649.5-1144.5c-0.9,9.4-0.3,19,1.9,28.2"/>
					</g>
				</g>
				<g id="Grupo_93704">
					<path id="Trazado_210499" class="st6" d="M-619.4-1114.4c-4.6-14.2-17.6-25.6-32.6-28.9C-645.7-1131-634.2-1121.2-619.4-1114.4
						z"/>
					<path id="Trazado_210500" class="st6" d="M-618.6-1112.2c-10.3-5.8-22.6-7-33.9-3.4C-642-1110.3-629.9-1109.1-618.6-1112.2z"/>
					<path id="Trazado_210501" class="st6" d="M-615.8-1109.1c-11-1.5-22.2,1.1-31.4,7.4C-637.1-1098-625-1100.4-615.8-1109.1z"/>
					<path id="Trazado_210502" class="st6" d="M-612.4-1102.4c-10.9,0-21.2,4.9-27.9,13.5c4.9,1,9.9,0.4,14.4-1.6
						C-621.5-1092.5-617.8-1095.9-612.4-1102.4z"/>
					<path id="Trazado_210503" class="st6" d="M-604.7-1091.2c-10.8-1.8-21.7,1.4-29.8,8.7c4.6,1.8,9.7,2,14.5,0.8
						C-615.4-1082.9-611.1-1085.7-604.7-1091.2z"/>
					<path id="Trazado_210504" class="st6" d="M-616.3-1113.7c-7.1-9.6-8.9-22.1-5-33.3c3.2,5.1,5.5,10.7,6.9,16.5
						C-613.1-1124.6-613.3-1118.4-616.3-1113.7z"/>
					<path id="Trazado_210505" class="st6" d="M-612-1104.5c-1.6-10.3,1.8-20.8,9.1-28.2C-602-1122.2-605.2-1111.5-612-1104.5z"/>
					<g id="Grupo_93703" transform="translate(3.792 5.025)">
						<path id="Trazado_210506" class="st10" d="M-652.5-1145.7c21.5,13.7,38,33.9,47.2,57.6"/>
						<path id="Trazado_210507" class="st10" d="M-624.4-1147c2.6,10.6,4.2,21.5,4.7,32.4"/>
						<path id="Trazado_210508" class="st10" d="M-608.3-1133.6c-0.9,8.6-3.5,17-7.7,24.5"/>
						<path id="Trazado_210509" class="st10" d="M-651.8-1120.3c9.9,1.9,19.9,2.9,29.9,3"/>
						<path id="Trazado_210510" class="st10" d="M-645.8-1107.6c9.1-0.7,18-2.8,26.3-6.5"/>
						<path id="Trazado_210511" class="st10" d="M-640.4-1095.4c8.4-4.2,16.8-8.4,25.2-12.6"/>
						<path id="Trazado_210512" class="st10" d="M-634.9-1088c11-2.1,14.2-4.6,26.4-8.1"/>
					</g>
				</g>
			</g>
			<g id="Grupo_93727" transform="translate(33.451)">
				<g id="Grupo_93706" transform="translate(42.823 48.657)">
					<path id="Trazado_210513" class="st11" d="M-638-1118.8c0,0,0.9,8.7,2,9.4c1.9,1.3,23.9,4.1,23.9,4.1l-0.7,5.7
						c0,0-30.1,2.7-31.4,1.2c-2.2-2.6-6.1-15.2-6.1-15.2L-638-1118.8z"/>
					<path id="Trazado_210514" class="st12" d="M-652.5-1141.2l2.4-5.8c0,0,6.6,3.1,8.8,6.9c2.3,4.1,5.2,25.8,5.2,25.8
						s-11.6,2.7-13.8,1.5C-652-1113.8-652.5-1141.2-652.5-1141.2z"/>
				</g>
				<path id="Trazado_210515" class="st13" d="M-628.2-1119.6c-1.7-0.7-3.5-1.1-5.3-1c-1.8,0-3.5,1.1-4.3,2.7
					c-0.4,1.1-0.2,2.5-0.9,3.5c-0.8,0.9-2,1.5-3.2,1.5c-1.2,0.1-2.5-0.1-3.7,0.1c-3.8,0.5-6.5,4.6-5.3,8c0.5,1.4,1.5,2.6,1.3,4
					c-0.2,1.5-1.8,2.5-2.5,3.9c-0.9,1.9,0.2,4.1,1.9,5.4c1.8,1.2,3.9,1.9,6.1,2.1c3,0.5,6,0.6,8.9,0c2.9-0.5,5.5-2.2,7.2-4.6
					c0.6-1.1,1.2-2.2,1.9-3.3c1.6-2.1,4.5-2.9,6.7-4.3c2.5-1.6,4.3-4.7,2.8-7.2c-1.4-2.4-5-2.9-6.5-5.2c-0.5-1-0.9-2.1-1.1-3.1
					C-624.7-1118.1-625.7-1118.7-628.2-1119.6z"/>
				<g id="Grupo_93707" transform="translate(21.056 30.455)">
					<path id="Trazado_210516" class="st14" d="M-639.3-1121.2c0.4,0.6,1,1,1.6,1.1c0.7,0,1.4-0.4,1.8-1c2.4-2.5,4-5.7,4.7-9.1
						c-0.6-0.3-1.2-0.7-1.7-1c-0.5-0.3-0.9-0.7-1.1-1.2c-0.1-0.4-0.2-0.7-0.2-1.1c0.2-2.9,0.8-5.7,1.8-8.4
						c-5.4-1.2-10.6-2.7-13.5-5.1c-0.4,1.5-0.8,4.5-1.7,7.4c-1,3.1-2.5,6.2-5,7.5C-647.6-1129.2-643.1-1125.5-639.3-1121.2z"/>
					<path id="Trazado_210517" class="st11" d="M-634.1-1133.5c0,0.4,0,0.8,0.2,1.1c-3.2,3.9-10.4-1.2-13.6-7.2
						c0.9-2.9,1.3-5.9,1.7-7.4c2.9,2.5,8.1,3.9,13.5,5.1C-633.3-1139.2-633.9-1136.3-634.1-1133.5z"/>
				</g>
				<g id="Grupo_93708" transform="translate(8.017 43.766)">
					<path id="Trazado_210518" class="st15" d="M-612.1-1099.7c-0.7,4.7,4.4,9.8,4.5,12.3c-10.8,0-33.4,0.7-44.9-0.9
						c-0.5-2.9,5.2-9.4,5.2-15.9c0-0.9,0-1.8-0.1-2.8c-0.2-2.9-0.6-6.3-1.1-9.8c-1.3-9.4-3-19.5-1.7-21.6c2.5-4.1,8.2-6.8,11.1-8
						c1-0.4,1.6-0.6,1.7-0.7c3.6,6.1,10.9,11.3,13.7,11.1c0.8-0.1,3-0.9,4.5-8.4c0.6,0.3,1.2,0.6,1.8,0.9c2.9,1.5,5.5,2.7,6.3,4.6
						c2,5,4,17.7,3.6,22.2c-0.4,4.5-2.3,8-3.6,12.6c-0.3,1.1-0.6,2.2-0.8,3.4C-612-1100.2-612-1100-612.1-1099.7z"/>
					<path id="Trazado_210519" class="st16" d="M-607.6-1087.4c-10.8,0-33.4,0.7-44.9-0.9c-0.5-2.9,5.2-9.4,5.2-15.9
						c0-0.9,0-1.8-0.1-2.8c-0.2-2.9-0.6-6.3-1.1-9.8c2,2.2,5-6.9,6.3-4.3c7.1,14.4,12.7,18.2,22.5,18.2c2.9,0,5.7-0.4,8.5-1.1
						c-0.3,1.1-0.6,2.2-0.8,3.4c-0.1,0.3-0.1,0.6-0.1,0.9C-612.8-1095-607.7-1089.9-607.6-1087.4z"/>
					<path id="Trazado_210520" class="st17" d="M-617.5-1143.4c-0.5,3.4-1.8,7.9-5.8,9.1c-5.4,1.6-13.2-8.5-15.8-12.1
						c1-0.4,1.6-0.6,1.7-0.7c3.6,6.1,10.9,11.3,13.7,11.1c0.8-0.1,3-0.9,4.5-8.4C-618.7-1144-618.1-1143.7-617.5-1143.4z"/>
				</g>
				<g id="Grupo_93712" transform="translate(45.205 62.982)">
					<g id="Grupo_93711">
						<g id="Grupo_93709" transform="translate(0 35.239)">
							<path id="Trazado_210521" class="st18" d="M-652.5-1146.9l0,3.8l67.1,0.4l0.1-4.3L-652.5-1146.9z"/>
						</g>
						<g id="Grupo_93710" transform="translate(21.308)">
							<path id="Trazado_210522" class="st18" d="M-577.6-1145.2l-1.5-1.5l-48.9-0.3l-24.5,35.5l1.3,1L-577.6-1145.2z"/>
							<path id="Trazado_210523" class="st19" d="M-627-1145.7l-24.2,35.2l46.2,0.2l27.4-34.9L-627-1145.7z"/>
						</g>
					</g>
					<ellipse id="Elipse_5298" class="st20" cx="-594" cy="-1125.9" rx="5.4" ry="2.7"/>
				</g>
				<g id="Grupo_93721" transform="translate(18.842)">
					<g id="Grupo_93713" transform="translate(26.016 22.14)">
						
							<ellipse id="Elipse_5299" transform="matrix(0.1832 -0.9831 0.9831 0.1832 591.5665 -1565.3795)" class="st21" cx="-646.2" cy="-1138.7" rx="7.5" ry="5"/>
					</g>
					<path id="Trazado_210524" class="st19" d="M-615.3-1128.5c-0.5,3.6-2.1,7.5-4.4,11.8c-0.8-3.6-1.3-7.9-2.1-12.2
						c-0.6-4.2-1.7-8.3-3.3-12.2c-0.4-0.8-0.7-1.5-1.2-2.2c1-0.1,1.9,0,2.9,0.3c1.4,0.4,2.8,1.1,3.9,2.1c1.8,1.7,3.1,3.8,3.8,6.2
						C-615.1-1132.7-615-1130.6-615.3-1128.5z"/>
					<g id="Grupo_93714" transform="translate(3.856 1.907)">
						<path id="Trazado_210525" class="st14" d="M-621.9-1126.7c0,0.7-0.1,1.4-0.1,2.1c-1,11.5-5.8,19.4-13.2,19.4
							c-10.5,0-17.2-11.7-17.2-23.2c0-11.3,6.9-19.5,15.1-18.6c4.7,0.5,8.1,2.1,10.5,4.4c1.6,1.5,2.8,3.4,3.6,5.4
							c0.9,2.5,1.4,5.2,1.4,7.8c0,0,0,0,0,0C-621.9-1128.4-621.9-1127.6-621.9-1126.7z"/>
						<path id="Trazado_210526" class="st11" d="M-621.9-1126.7c-0.3-1.1-0.8-2.2-1.4-3.2c-6.3,3.3-13.5,4.4-20.5,3.3
							c-1.3,1.1-2.6,2.2-3.9,3.3c0-5.2,0.1-8.8,2.1-11.3c1.9-2.4,5.1-3.3,8.2-3.7c3.4-0.4,6.9-0.4,10.3,0.1c1.3,0.1,2.6,0.5,3.8,1.1
							c0.9,2.5,1.4,5.2,1.4,7.8c0,0,0,0,0,0C-621.9-1128.4-621.9-1127.6-621.9-1126.7z"/>
					</g>
					<path id="Trazado_210527" class="st19" d="M-616.5-1131.9c-1.6,1.3-3.4,2.3-5.2,3c-5.7,2.3-13.2,3.1-19,2.8
						c-2.9,6.3-4,8.5-4.7,14c-2.9-3.1-4.9-7-5.7-11.2c-0.7-3.8-0.6-7.7,0.4-11.4c1.3-4.5,4.5-8.3,8.7-10.5c0.6-0.3,1.2-0.6,1.9-0.9
						c3.8-1.3,7.8-1.4,11.6-0.1c2,0.6,3.8,1.7,5.3,3.1c2.6,2.5,4.6,5.6,6,9C-617.1-1133.2-616.8-1132.5-616.5-1131.9z"/>
					<path id="Trazado_210528" class="st22" d="M-615.3-1128.5c-0.2-1.3-0.6-2.5-1.1-3.7c-0.3-0.7-0.6-1.3-1-1.9
						c-1.3-2.1-3.2-3.7-5.5-4.5c-0.6-0.9-1.3-1.7-2.1-2.5c-2.4-2.5-5.5-4.2-9-4.7c-2.7-0.4-5.5-0.2-8.1,0.7c0.6-0.3,1.2-0.6,1.9-0.9
						c3.8-1.3,7.8-1.4,11.6-0.1c2,0.6,3.8,1.7,5.3,3.1c1.4,0.4,2.8,1.1,3.9,2.1c1.8,1.7,3.1,3.8,3.8,6.2
						C-615.1-1132.7-615-1130.6-615.3-1128.5z"/>
					<g id="Grupo_93717" transform="translate(15.014 24.458)">
						<g id="Grupo_93715">
							<path id="Trazado_210529" class="st23" d="M-652.5-1145.9c2-1.3,4.5-1.5,6.7-0.6"/>
							<path id="Trazado_210530" class="st23" d="M-639.3-1145.9c1.7-1.2,4.1-1.4,5.4,0"/>
							<path id="Trazado_210531" class="st24" d="M-641.3-1139.6c0.2,1.2,0.1,2.5-0.3,3.7"/>
							<ellipse id="Elipse_5300" class="st25" cx="-647.8" cy="-1140.3" rx="0.8" ry="1.3"/>
							<ellipse id="Elipse_5301" class="st25" cx="-637.4" cy="-1140.9" rx="0.8" ry="1.3"/>
						</g>
						<g id="Grupo_93716" transform="translate(3.771 11.043)">
							<path id="Trazado_210532" class="st26" d="M-646-1145.3c-0.1,0.2-0.3,0.5-0.5,0.7c-0.6,0.8-1.4,1.5-2.4,1.8l0,0
								c-0.5,0.2-1,0.2-1.5,0.1c-1.6-0.3-2.1-1.8-2.1-2.9c0-0.2,0-0.4,0-0.6c0-0.3,0-0.5,0.1-0.8
								C-650.4-1146.1-648.2-1145.5-646-1145.3z"/>
							<path id="Trazado_210533" class="st1" d="M-646-1145.3c-0.1,0.2-0.3,0.5-0.5,0.7c-2.1-0.2-4.1-0.7-6-1.6c0-0.3,0-0.5,0.1-0.8
								C-650.4-1146.1-648.2-1145.5-646-1145.3z"/>
							<path id="Trazado_210534" class="st27" d="M-648.8-1142.8c-0.5,0.2-1,0.2-1.5,0.1c-1.6-0.3-2.1-1.8-2.1-2.9
								C-650.8-1145.4-649.4-1144.3-648.8-1142.8L-648.8-1142.8z"/>
						</g>
					</g>
					<g id="Grupo_93720" transform="translate(0 1.799)">
						<path id="Trazado_210535" class="st28" d="M-645.5-1125.2c0-3.7,0.8-7.3,2.2-10.8c2.3-5.8,7.9-9.7,14.1-9.8
							c4.1-0.1,8,1.4,10.9,4.3c-1.5-2.4-3.8-4.2-6.5-5c-3.5-0.9-7.2-0.7-10.5,0.5c-4.3,1.9-7.6,5.4-9.5,9.6
							c-1.1,3.5-1.9,7.1-2.4,10.8L-645.5-1125.2z"/>
						<g id="Grupo_93718" transform="translate(0 19.544)">
							
								<ellipse id="Elipse_5302" transform="matrix(0.9946 -0.1034 0.1034 0.9946 114.2626 -72.948)" class="st21" cx="-646.5" cy="-1138.6" rx="5.2" ry="7.9"/>
							
								<ellipse id="Elipse_5303" transform="matrix(0.9889 -0.1486 0.1486 0.9889 161.9158 -108.91)" class="st28" cx="-647.9" cy="-1138" rx="3.4" ry="6"/>
						</g>
						<g id="Grupo_93719" transform="translate(9.292 34.581)">
							<ellipse id="Elipse_5304" class="st29" cx="-638.5" cy="-1141.2" rx="2.8" ry="1.7"/>
							<path id="Trazado_210536" class="st30" d="M-652.5-1147c2.8,3.3,6.9,5.4,11.2,5.8"/>
						</g>
					</g>
				</g>
				<g id="Grupo_93726" transform="translate(5.796 47.102)">
					<g id="Grupo_93725">
						<g id="Grupo_93724" transform="translate(2.226 23.669)">
							<g id="Grupo_93722">
								<path id="Trazado_210537" class="st14" d="M-615.3-1129.5l-0.3,6.9c0,0-25.1,7.5-29.2,5.1c-2-1.2-3.9-7.5-5.3-13.8
									c-1.5-6.5-2.4-12.9-2.4-12.9l14.7-2.9c0,0,0,9,0.5,14.1c0.2,1.9,0.4,3.3,0.8,3.6C-635.2-1128.5-615.3-1129.5-615.3-1129.5z"
									/>
								<path id="Trazado_210538" class="st11" d="M-637.3-1132.9c-4.1,1.4-8.4,2-12.8,1.7c-1.5-6.5-2.4-12.9-2.4-12.9l14.7-2.9
									C-637.8-1147-637.8-1138.1-637.3-1132.9z"/>
							</g>
							<g id="Grupo_93723" transform="translate(35.187 14.169)">
								<path id="Trazado_210539" class="st14" d="M-651.2-1143.6c3.7-0.8,10-2.7,12.6-3.4c1.9-0.5,6.7,2,8,4.4
									c0.6,1,1.1,6.9-0.8,6.3c-1-0.3-0.8-2.8-1.1-3.8c-0.4-1-1.2-1.9-2.2-2.3c0.7,1.9,0.9,3.9,0.7,5.9c0,0.5-0.1,1-0.3,1.4
									c-0.2,0.4-0.7,0.7-1.2,0.5c-0.4-0.2-0.6-0.7-0.7-1.2c-0.4-1.7-0.7-3.5-0.8-5.2c0,1.8,0,3.7-0.1,5.5
									c-0.1,1.4-0.8,2.2-1.7,1.9c-0.4-0.1-0.5-0.5-0.7-0.9c-0.3,0.9-0.9,1.9-1.8,1.5c-0.5-0.2-0.8-2.1-0.7-4
									c-1.7,1-3.6,1.5-5.5,1.5c-1.9,0.1-3.8-0.3-4.9-1.5C-652.3-1139.2-651.9-1141.4-651.2-1143.6z"/>
								<path id="Trazado_210540" class="st31" d="M-639.5-1134.8c0.1-1.5,0-3-0.4-4.5"/>
							</g>
						</g>
						<path id="Trazado_210541" class="st15" d="M-637.2-1137.9c-1.1-3-5-9.1-5-9.1s-6,2.5-8.1,6.7c-3.6,7.1-1.8,27.6-1.8,27.6
							c4.8,2,14.5,2,18.6,1.5C-633.4-1111.3-635.1-1131.9-637.2-1137.9z"/>
					</g>
					<path id="Trazado_210542" class="st32" d="M-636.5-1136.6c1.5,7.3,2.5,14.7,2.8,22.1"/>
				</g>
			</g>
			<rect id="Rectángulo_39769" x="-640.5" y="-1045.8" class="st19" width="170.8" height="4.3"/>
		</g>
	</g>
</g>
</svg>
