<?xml version="1.0" encoding="utf-8"?>
<!-- Generator: Adobe Illustrator 26.0.0, SVG Export Plug-In . SVG Version: 6.00 Build 0)  -->
<svg version="1.1" id="Capa_1" xmlns="http://www.w3.org/2000/svg" xmlns:xlink="http://www.w3.org/1999/xlink" x="0px" y="0px"
	 viewBox="0 0 295 387.7" style="enable-background:new 0 0 295 387.7;" xml:space="preserve">
<style type="text/css">
	.st0{opacity:0.25;fill:#5279BA;enable-background:new    ;}
	.st1{fill:#FFFFFF;}
	.st2{enable-background:new    ;}
	.st3{fill:#12263F;}
	.st4{fill:#5279BA;}
	.st5{fill:#EAFCFC;}
	.st6{opacity:0.6;fill:#BBABF5;enable-background:new    ;}
	.st7{opacity:0.3;fill:#9BC1F9;enable-background:new    ;}
	.st8{fill:#472EA6;}
	.st9{fill:#3C8F7C;}
	.st10{fill:#96D9C9;}
	.st11{fill:#50BFA5;}
	.st12{fill:#0E2E35;}
	.st13{fill:#E59F39;}
	.st14{fill:#EAB054;}
	.st15{fill:#F7CC7F;}
	.st16{fill:#F7A491;}
	.st17{fill:#F47458;}
	.st18{fill:#184655;}
	.st19{opacity:0.8;fill:#FFFFFF;enable-background:new    ;}
</style>
<path id="Trazado_210365" class="st0" d="M0.4,51.9v291.9c0,8.5,7.9,15.4,17.6,15.4h85l26.7,0c0.7,0.4,1.7,1.1,2.4,1.5l14.3,26.6
	c0.7,0.4,1.7,0.4,2.4,0l14.3-26.6c0.7-0.4,1.7-1.1,2.4-1.5l26.7,0h85c9.7,0,17.6-6.9,17.6-15.4V51.9H0.4z"/>
<path id="Rectángulo_39748" class="st1" d="M14,52.1h267l0,0v269c0,12.2-9.8,22-22,22H36c-12.2,0-22-9.8-22-22V52.1L14,52.1z"/>
<g class="st2">
	<path class="st3" d="M42.9,200.1c0,1.1-0.2,2.1-0.6,2.9s-0.9,1.5-1.6,1.9s-1.5,0.7-2.4,0.7c-0.9,0-1.7-0.2-2.4-0.7
		c-0.7-0.4-1.2-1.1-1.6-1.9s-0.6-1.8-0.6-2.8v-0.8c0-1.1,0.2-2.1,0.6-2.9c0.4-0.8,0.9-1.5,1.6-1.9s1.5-0.7,2.4-0.7
		c0.9,0,1.7,0.2,2.4,0.7s1.2,1.1,1.6,1.9s0.6,1.8,0.6,2.9V200.1z M41.5,199.4c0-1.3-0.3-2.4-0.8-3.1c-0.5-0.7-1.3-1.1-2.3-1.1
		c-0.9,0-1.7,0.4-2.2,1.1c-0.5,0.7-0.8,1.7-0.8,3v0.8c0,1.3,0.3,2.3,0.8,3.1c0.5,0.7,1.3,1.1,2.3,1.1c1,0,1.7-0.4,2.2-1.1
		s0.8-1.7,0.8-3V199.4z"/>
	<path class="st3" d="M45.7,205.4v-7.3h-1.3V197h1.3v-0.9c0-0.9,0.2-1.6,0.7-2.1s1.2-0.7,2.1-0.7c0.3,0,0.7,0,1,0.1l-0.1,1.2
		c-0.2,0-0.5-0.1-0.8-0.1c-0.5,0-0.8,0.1-1.1,0.4c-0.3,0.3-0.4,0.7-0.4,1.2v0.9h1.8v1.1h-1.8v7.3H45.7z"/>
	<path class="st3" d="M54.6,198.3c-0.2,0-0.5-0.1-0.7-0.1c-0.9,0-1.6,0.4-1.9,1.2v6h-1.4V197h1.4l0,1c0.5-0.8,1.1-1.1,2-1.1
		c0.3,0,0.5,0,0.6,0.1V198.3z"/>
	<path class="st3" d="M59.4,205.6c-1.1,0-2.1-0.4-2.8-1.1s-1.1-1.8-1.1-3v-0.3c0-0.8,0.2-1.6,0.5-2.2s0.8-1.2,1.3-1.5
		c0.6-0.4,1.2-0.6,1.9-0.6c1.1,0,2,0.4,2.6,1.1s0.9,1.8,0.9,3.1v0.6H57c0,0.8,0.3,1.5,0.7,2c0.5,0.5,1.1,0.8,1.8,0.8
		c0.5,0,0.9-0.1,1.3-0.3c0.4-0.2,0.7-0.5,0.9-0.8l0.9,0.7C61.9,205,60.9,205.6,59.4,205.6z M59.3,198c-0.6,0-1.1,0.2-1.5,0.6
		c-0.4,0.4-0.6,1-0.7,1.8h4.2v-0.1c0-0.7-0.2-1.3-0.6-1.7C60.3,198.2,59.9,198,59.3,198z"/>
	<path class="st3" d="M67.8,204.4c0.5,0,1-0.2,1.4-0.5c0.4-0.3,0.6-0.7,0.6-1.2h1.4c0,0.5-0.2,0.9-0.5,1.4c-0.3,0.4-0.7,0.8-1.2,1
		c-0.5,0.3-1.1,0.4-1.6,0.4c-1.2,0-2.1-0.4-2.7-1.2s-1-1.8-1-3.2V201c0-0.8,0.2-1.6,0.5-2.2c0.3-0.6,0.7-1.1,1.3-1.5
		c0.6-0.4,1.2-0.5,2-0.5c0.9,0,1.7,0.3,2.4,0.9c0.6,0.6,1,1.3,1,2.2h-1.4c0-0.5-0.2-1-0.6-1.3c-0.4-0.4-0.8-0.5-1.4-0.5
		c-0.7,0-1.3,0.3-1.7,0.8c-0.4,0.5-0.6,1.3-0.6,2.3v0.3c0,1,0.2,1.7,0.6,2.2C66.5,204.1,67.1,204.4,67.8,204.4z"/>
	<path class="st3" d="M76.3,205.6c-1.1,0-2.1-0.4-2.8-1.1s-1.1-1.8-1.1-3v-0.3c0-0.8,0.2-1.6,0.5-2.2s0.8-1.2,1.3-1.5
		c0.6-0.4,1.2-0.6,1.9-0.6c1.1,0,2,0.4,2.6,1.1s0.9,1.8,0.9,3.1v0.6h-5.7c0,0.8,0.3,1.5,0.7,2c0.5,0.5,1.1,0.8,1.8,0.8
		c0.5,0,0.9-0.1,1.3-0.3c0.4-0.2,0.7-0.5,0.9-0.8l0.9,0.7C78.8,205,77.7,205.6,76.3,205.6z M76.1,198c-0.6,0-1.1,0.2-1.5,0.6
		c-0.4,0.4-0.6,1-0.7,1.8h4.2v-0.1c0-0.7-0.2-1.3-0.6-1.7C77.2,198.2,76.7,198,76.1,198z"/>
	<path class="st3" d="M82.6,197l0,1.1c0.6-0.8,1.5-1.2,2.5-1.2c1.8,0,2.7,1,2.7,3v5.6h-1.4v-5.6c0-0.6-0.1-1.1-0.4-1.4
		s-0.7-0.4-1.3-0.4c-0.5,0-0.9,0.1-1.2,0.4c-0.4,0.2-0.6,0.6-0.8,1v6h-1.4V197H82.6z"/>
	<path class="st3" d="M98.1,198.3c-0.2,0-0.5-0.1-0.7-0.1c-0.9,0-1.6,0.4-1.9,1.2v6h-1.4V197h1.4l0,1c0.5-0.8,1.1-1.1,2-1.1
		c0.3,0,0.5,0,0.6,0.1V198.3z"/>
	<path class="st3" d="M103,205.6c-1.1,0-2.1-0.4-2.8-1.1s-1.1-1.8-1.1-3v-0.3c0-0.8,0.2-1.6,0.5-2.2s0.8-1.2,1.3-1.5
		c0.6-0.4,1.2-0.6,1.9-0.6c1.1,0,2,0.4,2.6,1.1s0.9,1.8,0.9,3.1v0.6h-5.7c0,0.8,0.3,1.5,0.7,2c0.5,0.5,1.1,0.8,1.8,0.8
		c0.5,0,0.9-0.1,1.3-0.3c0.4-0.2,0.7-0.5,0.9-0.8l0.9,0.7C105.5,205,104.4,205.6,103,205.6z M102.8,198c-0.6,0-1.1,0.2-1.5,0.6
		c-0.4,0.4-0.6,1-0.7,1.8h4.2v-0.1c0-0.7-0.2-1.3-0.6-1.7C103.9,198.2,103.4,198,102.8,198z"/>
	<path class="st3" d="M111.3,204.4c0.5,0,1-0.2,1.4-0.5c0.4-0.3,0.6-0.7,0.6-1.2h1.4c0,0.5-0.2,0.9-0.5,1.4c-0.3,0.4-0.7,0.8-1.2,1
		c-0.5,0.3-1.1,0.4-1.6,0.4c-1.2,0-2.1-0.4-2.7-1.2s-1-1.8-1-3.2V201c0-0.8,0.2-1.6,0.5-2.2c0.3-0.6,0.7-1.1,1.3-1.5
		c0.6-0.4,1.2-0.5,2-0.5c0.9,0,1.7,0.3,2.4,0.9c0.6,0.6,1,1.3,1,2.2h-1.4c0-0.5-0.2-1-0.6-1.3c-0.4-0.4-0.8-0.5-1.4-0.5
		c-0.7,0-1.3,0.3-1.7,0.8c-0.4,0.5-0.6,1.3-0.6,2.3v0.3c0,1,0.2,1.7,0.6,2.2C110,204.1,110.6,204.4,111.3,204.4z"/>
	<path class="st3" d="M121.5,204.6c-0.6,0.7-1.4,1-2.5,1c-0.9,0-1.6-0.3-2.1-0.8c-0.5-0.5-0.7-1.3-0.7-2.3V197h1.4v5.5
		c0,1.3,0.5,1.9,1.6,1.9c1.1,0,1.8-0.4,2.2-1.2V197h1.4v8.5h-1.4L121.5,204.6z"/>
	<path class="st3" d="M129.2,198.3c-0.2,0-0.5-0.1-0.7-0.1c-0.9,0-1.6,0.4-1.9,1.2v6h-1.4V197h1.4l0,1c0.5-0.8,1.1-1.1,2-1.1
		c0.3,0,0.5,0,0.6,0.1V198.3z"/>
	<path class="st3" d="M135.5,203.2c0-0.4-0.1-0.7-0.4-0.9c-0.3-0.2-0.8-0.4-1.5-0.6c-0.7-0.2-1.3-0.3-1.7-0.6s-0.7-0.5-1-0.8
		c-0.2-0.3-0.3-0.7-0.3-1.1c0-0.7,0.3-1.3,0.9-1.8s1.3-0.7,2.2-0.7c1,0,1.7,0.2,2.3,0.7c0.6,0.5,0.9,1.1,0.9,1.9h-1.5
		c0-0.4-0.2-0.7-0.5-1s-0.8-0.4-1.3-0.4c-0.5,0-0.9,0.1-1.2,0.3s-0.4,0.5-0.4,0.9c0,0.3,0.1,0.6,0.4,0.8c0.3,0.2,0.8,0.3,1.5,0.5
		c0.7,0.2,1.3,0.4,1.8,0.6c0.4,0.2,0.8,0.5,1,0.8c0.2,0.3,0.3,0.7,0.3,1.2c0,0.8-0.3,1.4-0.9,1.8c-0.6,0.5-1.4,0.7-2.4,0.7
		c-0.7,0-1.3-0.1-1.8-0.4c-0.5-0.2-0.9-0.6-1.2-1c-0.3-0.4-0.4-0.9-0.4-1.4h1.4c0,0.5,0.2,0.9,0.6,1.2c0.4,0.3,0.8,0.4,1.4,0.4
		c0.5,0,1-0.1,1.3-0.3C135.3,203.8,135.5,203.5,135.5,203.2z"/>
	<path class="st3" d="M138.4,201.1c0-0.8,0.2-1.6,0.5-2.2c0.3-0.7,0.8-1.2,1.4-1.5c0.6-0.4,1.2-0.5,2-0.5c1.2,0,2.1,0.4,2.8,1.2
		s1.1,1.9,1.1,3.2v0.1c0,0.8-0.2,1.6-0.5,2.2c-0.3,0.7-0.8,1.2-1.4,1.5s-1.3,0.5-2,0.5c-1.1,0-2.1-0.4-2.8-1.2s-1.1-1.9-1.1-3.2
		V201.1z M139.9,201.3c0,0.9,0.2,1.7,0.7,2.3c0.4,0.6,1,0.9,1.7,0.9c0.7,0,1.3-0.3,1.8-0.9c0.4-0.6,0.6-1.4,0.6-2.4
		c0-0.9-0.2-1.7-0.7-2.3c-0.4-0.6-1-0.9-1.8-0.9c-0.7,0-1.3,0.3-1.7,0.9S139.9,200.2,139.9,201.3z"/>
	<path class="st3" d="M152.9,203.2c0-0.4-0.1-0.7-0.4-0.9s-0.8-0.4-1.5-0.6s-1.3-0.3-1.7-0.6s-0.7-0.5-1-0.8s-0.3-0.7-0.3-1.1
		c0-0.7,0.3-1.3,0.9-1.8s1.3-0.7,2.2-0.7c1,0,1.7,0.2,2.3,0.7s0.9,1.1,0.9,1.9h-1.5c0-0.4-0.2-0.7-0.5-1s-0.8-0.4-1.3-0.4
		c-0.5,0-0.9,0.1-1.2,0.3s-0.4,0.5-0.4,0.9c0,0.3,0.1,0.6,0.4,0.8s0.8,0.3,1.5,0.5s1.3,0.4,1.8,0.6s0.8,0.5,1,0.8s0.3,0.7,0.3,1.2
		c0,0.8-0.3,1.4-0.9,1.8s-1.4,0.7-2.4,0.7c-0.7,0-1.3-0.1-1.8-0.4s-0.9-0.6-1.2-1c-0.3-0.4-0.4-0.9-0.4-1.4h1.4
		c0,0.5,0.2,0.9,0.6,1.2s0.8,0.4,1.4,0.4c0.5,0,1-0.1,1.3-0.3S152.9,203.5,152.9,203.2z"/>
	<path class="st3" d="M163.6,205.6c-1.1,0-2.1-0.4-2.8-1.1s-1.1-1.8-1.1-3v-0.3c0-0.8,0.2-1.6,0.5-2.2s0.8-1.2,1.3-1.5
		s1.2-0.6,1.9-0.6c1.1,0,2,0.4,2.6,1.1s0.9,1.8,0.9,3.1v0.6h-5.7c0,0.8,0.3,1.5,0.7,2s1.1,0.8,1.8,0.8c0.5,0,0.9-0.1,1.3-0.3
		s0.7-0.5,0.9-0.8l0.9,0.7C166.1,205,165.1,205.6,163.6,205.6z M163.5,198c-0.6,0-1.1,0.2-1.5,0.6s-0.6,1-0.7,1.8h4.2v-0.1
		c0-0.7-0.2-1.3-0.6-1.7S164.1,198,163.5,198z"/>
	<path class="st3" d="M172,204.4c0.5,0,1-0.2,1.4-0.5s0.6-0.7,0.6-1.2h1.4c0,0.5-0.2,0.9-0.5,1.4s-0.7,0.8-1.2,1s-1.1,0.4-1.6,0.4
		c-1.2,0-2.1-0.4-2.7-1.2s-1-1.8-1-3.2V201c0-0.8,0.2-1.6,0.5-2.2s0.7-1.1,1.3-1.5s1.2-0.5,2-0.5c0.9,0,1.7,0.3,2.4,0.9s1,1.3,1,2.2
		H174c0-0.5-0.2-1-0.6-1.3s-0.8-0.5-1.4-0.5c-0.7,0-1.3,0.3-1.7,0.8s-0.6,1.3-0.6,2.3v0.3c0,1,0.2,1.7,0.6,2.2
		S171.3,204.4,172,204.4z"/>
	<path class="st3" d="M176.6,201.1c0-0.8,0.2-1.6,0.5-2.2s0.8-1.2,1.4-1.5s1.2-0.5,2-0.5c1.2,0,2.1,0.4,2.8,1.2s1.1,1.9,1.1,3.2v0.1
		c0,0.8-0.2,1.6-0.5,2.2s-0.8,1.2-1.4,1.5s-1.3,0.5-2,0.5c-1.1,0-2.1-0.4-2.8-1.2s-1.1-1.9-1.1-3.2V201.1z M178.1,201.3
		c0,0.9,0.2,1.7,0.7,2.3s1,0.9,1.7,0.9c0.7,0,1.3-0.3,1.8-0.9s0.6-1.4,0.6-2.4c0-0.9-0.2-1.7-0.7-2.3s-1-0.9-1.8-0.9
		c-0.7,0-1.3,0.3-1.7,0.9S178.1,200.2,178.1,201.3z"/>
	<path class="st3" d="M187.5,197l0,1.1c0.6-0.8,1.5-1.2,2.5-1.2c1.8,0,2.7,1,2.7,3v5.6h-1.4v-5.6c0-0.6-0.1-1.1-0.4-1.4
		s-0.7-0.4-1.3-0.4c-0.5,0-0.9,0.1-1.2,0.4s-0.6,0.6-0.8,1v6h-1.4V197H187.5z"/>
	<path class="st3" d="M194.6,201.1c0-0.8,0.2-1.6,0.5-2.2s0.8-1.2,1.4-1.5s1.2-0.5,2-0.5c1.2,0,2.1,0.4,2.8,1.2s1.1,1.9,1.1,3.2v0.1
		c0,0.8-0.2,1.6-0.5,2.2s-0.8,1.2-1.4,1.5s-1.3,0.5-2,0.5c-1.1,0-2.1-0.4-2.8-1.2s-1.1-1.9-1.1-3.2V201.1z M196,201.3
		c0,0.9,0.2,1.7,0.7,2.3s1,0.9,1.7,0.9c0.7,0,1.3-0.3,1.8-0.9s0.6-1.4,0.6-2.4c0-0.9-0.2-1.7-0.7-2.3s-1-0.9-1.8-0.9
		c-0.7,0-1.3,0.3-1.7,0.9S196,200.2,196,201.3z M199.1,193.4h1.8l-2.1,2.3l-1.2,0L199.1,193.4z"/>
	<path class="st3" d="M205.4,197l0,0.9c0.6-0.7,1.5-1.1,2.5-1.1c1.2,0,2,0.5,2.4,1.4c0.3-0.4,0.6-0.7,1.1-1s1-0.4,1.6-0.4
		c1.9,0,2.8,1,2.8,2.9v5.7h-1.4v-5.6c0-0.6-0.1-1.1-0.4-1.4s-0.7-0.4-1.4-0.4c-0.5,0-1,0.2-1.3,0.5s-0.6,0.8-0.6,1.3v5.6h-1.5v-5.5
		c0-1.2-0.6-1.8-1.8-1.8c-0.9,0-1.6,0.4-1.9,1.2v6.2h-1.4V197H205.4z"/>
	<path class="st3" d="M218.1,194.7c0-0.2,0.1-0.4,0.2-0.6s0.4-0.2,0.6-0.2s0.5,0.1,0.6,0.2s0.2,0.4,0.2,0.6s-0.1,0.4-0.2,0.6
		s-0.4,0.2-0.6,0.2s-0.5-0.1-0.6-0.2S218.1,195,218.1,194.7z M219.7,205.4h-1.4V197h1.4V205.4z"/>
	<path class="st3" d="M225.4,204.4c0.5,0,1-0.2,1.4-0.5s0.6-0.7,0.6-1.2h1.4c0,0.5-0.2,0.9-0.5,1.4s-0.7,0.8-1.2,1s-1.1,0.4-1.6,0.4
		c-1.2,0-2.1-0.4-2.7-1.2s-1-1.8-1-3.2V201c0-0.8,0.2-1.6,0.5-2.2s0.7-1.1,1.3-1.5s1.2-0.5,2-0.5c0.9,0,1.7,0.3,2.4,0.9s1,1.3,1,2.2
		h-1.4c0-0.5-0.2-1-0.6-1.3s-0.8-0.5-1.4-0.5c-0.7,0-1.3,0.3-1.7,0.8s-0.6,1.3-0.6,2.3v0.3c0,1,0.2,1.7,0.6,2.2
		S224.6,204.4,225.4,204.4z"/>
	<path class="st3" d="M230,201.1c0-0.8,0.2-1.6,0.5-2.2s0.8-1.2,1.4-1.5s1.2-0.5,2-0.5c1.2,0,2.1,0.4,2.8,1.2s1.1,1.9,1.1,3.2v0.1
		c0,0.8-0.2,1.6-0.5,2.2s-0.8,1.2-1.4,1.5s-1.3,0.5-2,0.5c-1.1,0-2.1-0.4-2.8-1.2s-1.1-1.9-1.1-3.2V201.1z M231.4,201.3
		c0,0.9,0.2,1.7,0.7,2.3s1,0.9,1.7,0.9c0.7,0,1.3-0.3,1.8-0.9s0.6-1.4,0.6-2.4c0-0.9-0.2-1.7-0.7-2.3s-1-0.9-1.8-0.9
		c-0.7,0-1.3,0.3-1.7,0.9S231.4,200.2,231.4,201.3z"/>
	<path class="st3" d="M244.4,203.2c0-0.4-0.1-0.7-0.4-0.9s-0.8-0.4-1.5-0.6s-1.3-0.3-1.7-0.6s-0.7-0.5-1-0.8s-0.3-0.7-0.3-1.1
		c0-0.7,0.3-1.3,0.9-1.8s1.3-0.7,2.2-0.7c1,0,1.7,0.2,2.3,0.7s0.9,1.1,0.9,1.9h-1.5c0-0.4-0.2-0.7-0.5-1s-0.8-0.4-1.3-0.4
		c-0.5,0-0.9,0.1-1.2,0.3s-0.4,0.5-0.4,0.9c0,0.3,0.1,0.6,0.4,0.8s0.8,0.3,1.5,0.5s1.3,0.4,1.8,0.6s0.8,0.5,1,0.8s0.3,0.7,0.3,1.2
		c0,0.8-0.3,1.4-0.9,1.8s-1.4,0.7-2.4,0.7c-0.7,0-1.3-0.1-1.8-0.4s-0.9-0.6-1.2-1s-0.4-0.9-0.4-1.4h1.4c0,0.5,0.2,0.9,0.6,1.2
		s0.8,0.4,1.4,0.4c0.5,0,1-0.1,1.3-0.3S244.4,203.5,244.4,203.2z"/>
	<path class="st3" d="M254.5,203.3l2-6.3h1.5l-3.4,9.8c-0.5,1.4-1.4,2.1-2.5,2.1l-0.3,0l-0.5-0.1v-1.2l0.4,0c0.5,0,0.9-0.1,1.1-0.3
		s0.5-0.6,0.7-1.1l0.3-0.9l-3-8.4h1.6L254.5,203.3z"/>
</g>
<g class="st2">
	<path class="st3" d="M49.2,229.4v-7.3h-1.3V221h1.3v-0.9c0-0.9,0.2-1.6,0.7-2.1s1.2-0.7,2.1-0.7c0.3,0,0.7,0,1,0.1l-0.1,1.2
		c-0.2,0-0.5-0.1-0.8-0.1c-0.5,0-0.8,0.1-1.1,0.4c-0.3,0.3-0.4,0.7-0.4,1.2v0.9h1.8v1.1h-1.8v7.3H49.2z"/>
	<path class="st3" d="M54,218.7c0-0.2,0.1-0.4,0.2-0.6c0.1-0.2,0.4-0.2,0.6-0.2s0.5,0.1,0.6,0.2c0.1,0.2,0.2,0.4,0.2,0.6
		s-0.1,0.4-0.2,0.6c-0.1,0.2-0.4,0.2-0.6,0.2s-0.5-0.1-0.6-0.2C54.1,219.2,54,219,54,218.7z M55.6,229.4h-1.4V221h1.4V229.4z"/>
	<path class="st3" d="M59.3,221l0,1.1c0.6-0.8,1.5-1.2,2.5-1.2c1.8,0,2.7,1,2.7,3v5.6h-1.4v-5.6c0-0.6-0.1-1.1-0.4-1.4
		S62,222,61.4,222c-0.5,0-0.9,0.1-1.2,0.4c-0.4,0.2-0.6,0.6-0.8,1v6h-1.4V221H59.3z"/>
	<path class="st3" d="M71.9,229.4c-0.1-0.2-0.2-0.5-0.2-0.9c-0.7,0.7-1.5,1-2.4,1c-0.8,0-1.5-0.2-2.1-0.7c-0.5-0.5-0.8-1.1-0.8-1.8
		c0-0.9,0.3-1.6,1-2.1c0.7-0.5,1.6-0.7,2.8-0.7h1.4v-0.7c0-0.5-0.2-0.9-0.5-1.2c-0.3-0.3-0.7-0.4-1.3-0.4c-0.5,0-0.9,0.1-1.3,0.4
		c-0.3,0.3-0.5,0.6-0.5,0.9h-1.5c0-0.4,0.1-0.8,0.4-1.2c0.3-0.4,0.7-0.7,1.2-0.9c0.5-0.2,1.1-0.3,1.7-0.3c1,0,1.7,0.2,2.3,0.7
		c0.6,0.5,0.8,1.2,0.9,2v3.9c0,0.8,0.1,1.4,0.3,1.9v0.1H71.9z M69.5,228.3c0.5,0,0.9-0.1,1.3-0.4s0.7-0.5,0.9-0.9v-1.7h-1.1
		c-1.8,0-2.7,0.5-2.7,1.6c0,0.5,0.2,0.8,0.5,1.1C68.7,228.2,69.1,228.3,69.5,228.3z"/>
	<path class="st3" d="M76.8,221l0,1.1c0.6-0.8,1.5-1.2,2.5-1.2c1.8,0,2.7,1,2.7,3v5.6h-1.4v-5.6c0-0.6-0.1-1.1-0.4-1.4
		s-0.7-0.4-1.3-0.4c-0.5,0-0.9,0.1-1.2,0.4c-0.4,0.2-0.6,0.6-0.8,1v6h-1.4V221H76.8z"/>
	<path class="st3" d="M87.6,228.4c0.5,0,1-0.2,1.4-0.5c0.4-0.3,0.6-0.7,0.6-1.2H91c0,0.5-0.2,0.9-0.5,1.4c-0.3,0.4-0.7,0.8-1.2,1
		c-0.5,0.3-1.1,0.4-1.6,0.4c-1.2,0-2.1-0.4-2.7-1.2s-1-1.8-1-3.2V225c0-0.8,0.2-1.6,0.5-2.2c0.3-0.6,0.7-1.1,1.3-1.5
		c0.6-0.4,1.2-0.5,2-0.5c0.9,0,1.7,0.3,2.4,0.9c0.6,0.6,1,1.3,1,2.2h-1.4c0-0.5-0.2-1-0.6-1.3c-0.4-0.4-0.8-0.5-1.4-0.5
		c-0.7,0-1.3,0.3-1.7,0.8c-0.4,0.5-0.6,1.3-0.6,2.3v0.3c0,1,0.2,1.7,0.6,2.2C86.3,228.1,86.9,228.4,87.6,228.4z"/>
	<path class="st3" d="M92.6,218.7c0-0.2,0.1-0.4,0.2-0.6c0.1-0.2,0.4-0.2,0.6-0.2s0.5,0.1,0.6,0.2c0.1,0.2,0.2,0.4,0.2,0.6
		s-0.1,0.4-0.2,0.6c-0.1,0.2-0.4,0.2-0.6,0.2s-0.5-0.1-0.6-0.2C92.7,219.2,92.6,219,92.6,218.7z M94.2,229.4h-1.4V221h1.4V229.4z"/>
	<path class="st3" d="M100,229.6c-1.1,0-2.1-0.4-2.8-1.1s-1.1-1.8-1.1-3v-0.3c0-0.8,0.2-1.6,0.5-2.2s0.8-1.2,1.3-1.5
		c0.6-0.4,1.2-0.6,1.9-0.6c1.1,0,2,0.4,2.6,1.1s0.9,1.8,0.9,3.1v0.6h-5.7c0,0.8,0.3,1.5,0.7,2c0.5,0.5,1.1,0.8,1.8,0.8
		c0.5,0,0.9-0.1,1.3-0.3c0.4-0.2,0.7-0.5,0.9-0.8l0.9,0.7C102.5,229,101.4,229.6,100,229.6z M99.8,222c-0.6,0-1.1,0.2-1.5,0.6
		c-0.4,0.4-0.6,1-0.7,1.8h4.2v-0.1c0-0.7-0.2-1.3-0.6-1.7C100.9,222.2,100.4,222,99.8,222z"/>
	<path class="st3" d="M109.1,222.3c-0.2,0-0.5-0.1-0.7-0.1c-0.9,0-1.6,0.4-1.9,1.2v6H105V221h1.4l0,1c0.5-0.8,1.1-1.1,2-1.1
		c0.3,0,0.5,0,0.6,0.1V222.3z"/>
	<path class="st3" d="M109.9,225.1c0-0.8,0.2-1.6,0.5-2.2c0.3-0.7,0.8-1.2,1.4-1.5c0.6-0.4,1.2-0.5,2-0.5c1.2,0,2.1,0.4,2.8,1.2
		s1.1,1.9,1.1,3.2v0.1c0,0.8-0.2,1.6-0.5,2.2c-0.3,0.7-0.8,1.2-1.4,1.5s-1.3,0.5-2,0.5c-1.1,0-2.1-0.4-2.8-1.2s-1.1-1.9-1.1-3.2
		V225.1z M111.3,225.3c0,0.9,0.2,1.7,0.7,2.3c0.4,0.6,1,0.9,1.7,0.9c0.7,0,1.3-0.3,1.8-0.9c0.4-0.6,0.6-1.4,0.6-2.4
		c0-0.9-0.2-1.7-0.7-2.3c-0.4-0.6-1-0.9-1.8-0.9c-0.7,0-1.3,0.3-1.7,0.9S111.3,224.2,111.3,225.3z"/>
	<path class="st3" d="M124.3,227.2c0-0.4-0.1-0.7-0.4-0.9c-0.3-0.2-0.8-0.4-1.5-0.6c-0.7-0.2-1.3-0.3-1.7-0.6s-0.7-0.5-1-0.8
		c-0.2-0.3-0.3-0.7-0.3-1.1c0-0.7,0.3-1.3,0.9-1.8s1.3-0.7,2.2-0.7c1,0,1.7,0.2,2.3,0.7c0.6,0.5,0.9,1.1,0.9,1.9h-1.5
		c0-0.4-0.2-0.7-0.5-1s-0.8-0.4-1.3-0.4c-0.5,0-0.9,0.1-1.2,0.3s-0.4,0.5-0.4,0.9c0,0.3,0.1,0.6,0.4,0.8c0.3,0.2,0.8,0.3,1.5,0.5
		c0.7,0.2,1.3,0.4,1.8,0.6c0.4,0.2,0.8,0.5,1,0.8c0.2,0.3,0.3,0.7,0.3,1.2c0,0.8-0.3,1.4-0.9,1.8c-0.6,0.5-1.4,0.7-2.4,0.7
		c-0.7,0-1.3-0.1-1.8-0.4c-0.5-0.2-0.9-0.6-1.2-1c-0.3-0.4-0.4-0.9-0.4-1.4h1.4c0,0.5,0.2,0.9,0.6,1.2c0.4,0.3,0.8,0.4,1.4,0.4
		c0.5,0,1-0.1,1.3-0.3C124.1,227.8,124.3,227.5,124.3,227.2z"/>
	<path class="st3" d="M135,228.4c0.5,0,1-0.2,1.4-0.5c0.4-0.3,0.6-0.7,0.6-1.2h1.4c0,0.5-0.2,0.9-0.5,1.4c-0.3,0.4-0.7,0.8-1.2,1
		c-0.5,0.3-1.1,0.4-1.6,0.4c-1.2,0-2.1-0.4-2.7-1.2s-1-1.8-1-3.2V225c0-0.8,0.2-1.6,0.5-2.2c0.3-0.6,0.7-1.1,1.3-1.5
		c0.6-0.4,1.2-0.5,2-0.5c0.9,0,1.7,0.3,2.4,0.9c0.6,0.6,1,1.3,1,2.2H137c0-0.5-0.2-1-0.6-1.3c-0.4-0.4-0.8-0.5-1.4-0.5
		c-0.7,0-1.3,0.3-1.7,0.8c-0.4,0.5-0.6,1.3-0.6,2.3v0.3c0,1,0.2,1.7,0.6,2.2C133.7,228.1,134.2,228.4,135,228.4z"/>
	<path class="st3" d="M139.6,225.1c0-0.8,0.2-1.6,0.5-2.2c0.3-0.7,0.8-1.2,1.4-1.5c0.6-0.4,1.2-0.5,2-0.5c1.2,0,2.1,0.4,2.8,1.2
		s1.1,1.9,1.1,3.2v0.1c0,0.8-0.2,1.6-0.5,2.2c-0.3,0.7-0.8,1.2-1.4,1.5s-1.3,0.5-2,0.5c-1.1,0-2.1-0.4-2.8-1.2s-1.1-1.9-1.1-3.2
		V225.1z M141,225.3c0,0.9,0.2,1.7,0.7,2.3c0.4,0.6,1,0.9,1.7,0.9c0.7,0,1.3-0.3,1.8-0.9c0.4-0.6,0.6-1.4,0.6-2.4
		c0-0.9-0.2-1.7-0.7-2.3c-0.4-0.6-1-0.9-1.8-0.9c-0.7,0-1.3,0.3-1.7,0.9S141,224.2,141,225.3z"/>
	<path class="st3" d="M150.4,221l0,0.9c0.6-0.7,1.5-1.1,2.5-1.1c1.2,0,2,0.5,2.4,1.4c0.3-0.4,0.6-0.7,1.1-1c0.5-0.2,1-0.4,1.6-0.4
		c1.9,0,2.8,1,2.8,2.9v5.7h-1.4v-5.6c0-0.6-0.1-1.1-0.4-1.4c-0.3-0.3-0.7-0.4-1.4-0.4c-0.5,0-1,0.2-1.3,0.5
		c-0.4,0.3-0.6,0.8-0.6,1.3v5.6h-1.5v-5.5c0-1.2-0.6-1.8-1.8-1.8c-0.9,0-1.6,0.4-1.9,1.2v6.2h-1.4V221H150.4z"/>
	<path class="st3" d="M162.7,225.1c0-0.8,0.2-1.6,0.5-2.2c0.3-0.7,0.8-1.2,1.4-1.5c0.6-0.4,1.2-0.5,2-0.5c1.2,0,2.1,0.4,2.8,1.2
		s1.1,1.9,1.1,3.2v0.1c0,0.8-0.2,1.6-0.5,2.2c-0.3,0.7-0.8,1.2-1.4,1.5s-1.3,0.5-2,0.5c-1.1,0-2.1-0.4-2.8-1.2s-1.1-1.9-1.1-3.2
		V225.1z M164.2,225.3c0,0.9,0.2,1.7,0.7,2.3c0.4,0.6,1,0.9,1.7,0.9c0.7,0,1.3-0.3,1.8-0.9c0.4-0.6,0.6-1.4,0.6-2.4
		c0-0.9-0.2-1.7-0.7-2.3c-0.4-0.6-1-0.9-1.8-0.9c-0.7,0-1.3,0.3-1.7,0.9S164.2,224.2,164.2,225.3z"/>
	<path class="st3" d="M179.6,228.4c0.5,0,1-0.2,1.4-0.5c0.4-0.3,0.6-0.7,0.6-1.2h1.4c0,0.5-0.2,0.9-0.5,1.4c-0.3,0.4-0.7,0.8-1.2,1
		c-0.5,0.3-1.1,0.4-1.6,0.4c-1.2,0-2.1-0.4-2.7-1.2s-1-1.8-1-3.2V225c0-0.8,0.2-1.6,0.5-2.2c0.3-0.6,0.7-1.1,1.3-1.5
		c0.6-0.4,1.2-0.5,2-0.5c0.9,0,1.7,0.3,2.4,0.9c0.6,0.6,1,1.3,1,2.2h-1.4c0-0.5-0.2-1-0.6-1.3c-0.4-0.4-0.8-0.5-1.4-0.5
		c-0.7,0-1.3,0.3-1.7,0.8c-0.4,0.5-0.6,1.3-0.6,2.3v0.3c0,1,0.2,1.7,0.6,2.2C178.3,228.1,178.8,228.4,179.6,228.4z"/>
	<path class="st3" d="M188.7,222.3c-0.2,0-0.5-0.1-0.7-0.1c-0.9,0-1.6,0.4-1.9,1.2v6h-1.4V221h1.4l0,1c0.5-0.8,1.1-1.1,2-1.1
		c0.3,0,0.5,0,0.6,0.1V222.3z"/>
	<path class="st3" d="M193.5,229.6c-1.1,0-2.1-0.4-2.8-1.1s-1.1-1.8-1.1-3v-0.3c0-0.8,0.2-1.6,0.5-2.2s0.8-1.2,1.3-1.5
		c0.6-0.4,1.2-0.6,1.9-0.6c1.1,0,2,0.4,2.6,1.1s0.9,1.8,0.9,3.1v0.6h-5.7c0,0.8,0.3,1.5,0.7,2c0.5,0.5,1.1,0.8,1.8,0.8
		c0.5,0,0.9-0.1,1.3-0.3c0.4-0.2,0.7-0.5,0.9-0.8l0.9,0.7C196,229,194.9,229.6,193.5,229.6z M193.3,222c-0.6,0-1.1,0.2-1.5,0.6
		c-0.4,0.4-0.6,1-0.7,1.8h4.2v-0.1c0-0.7-0.2-1.3-0.6-1.7C194.4,222.2,193.9,222,193.3,222z M194,217.4h1.8l-2.1,2.3l-1.2,0
		L194,217.4z"/>
	<path class="st3" d="M198.1,225.1c0-1.3,0.3-2.3,0.9-3.1c0.6-0.8,1.4-1.2,2.4-1.2c1,0,1.8,0.3,2.4,1v-4.4h1.4v12h-1.3l-0.1-0.9
		c-0.6,0.7-1.4,1.1-2.4,1.1c-1,0-1.8-0.4-2.4-1.2s-0.9-1.8-0.9-3.1V225.1z M199.6,225.3c0,1,0.2,1.7,0.6,2.2
		c0.4,0.5,0.9,0.8,1.6,0.8c0.9,0,1.6-0.4,2-1.2v-3.9c-0.4-0.8-1.1-1.2-2-1.2c-0.7,0-1.3,0.3-1.7,0.8
		C199.8,223.4,199.6,224.2,199.6,225.3z"/>
	<path class="st3" d="M207.5,218.7c0-0.2,0.1-0.4,0.2-0.6c0.1-0.2,0.4-0.2,0.6-0.2s0.5,0.1,0.6,0.2c0.1,0.2,0.2,0.4,0.2,0.6
		s-0.1,0.4-0.2,0.6c-0.1,0.2-0.4,0.2-0.6,0.2s-0.5-0.1-0.6-0.2C207.6,219.2,207.5,219,207.5,218.7z M209.1,229.4h-1.4V221h1.4V229.4
		z"/>
	<path class="st3" d="M213.3,218.9v2h1.6v1.1h-1.6v5.2c0,0.3,0.1,0.6,0.2,0.8c0.1,0.2,0.4,0.3,0.7,0.3c0.2,0,0.4,0,0.7-0.1v1.2
		c-0.4,0.1-0.8,0.2-1.1,0.2c-0.6,0-1.1-0.2-1.5-0.6s-0.5-0.9-0.5-1.7v-5.2h-1.5V221h1.5v-2H213.3z"/>
	<path class="st3" d="M216.1,225.1c0-0.8,0.2-1.6,0.5-2.2c0.3-0.7,0.8-1.2,1.4-1.5c0.6-0.4,1.2-0.5,2-0.5c1.2,0,2.1,0.4,2.8,1.2
		s1.1,1.9,1.1,3.2v0.1c0,0.8-0.2,1.6-0.5,2.2c-0.3,0.7-0.8,1.2-1.4,1.5s-1.3,0.5-2,0.5c-1.1,0-2.1-0.4-2.8-1.2s-1.1-1.9-1.1-3.2
		V225.1z M217.5,225.3c0,0.9,0.2,1.7,0.7,2.3c0.4,0.6,1,0.9,1.7,0.9c0.7,0,1.3-0.3,1.8-0.9c0.4-0.6,0.6-1.4,0.6-2.4
		c0-0.9-0.2-1.7-0.7-2.3c-0.4-0.6-1-0.9-1.8-0.9c-0.7,0-1.3,0.3-1.7,0.9S217.5,224.2,217.5,225.3z"/>
	<path class="st3" d="M230.5,227.2c0-0.4-0.1-0.7-0.4-0.9c-0.3-0.2-0.8-0.4-1.5-0.6c-0.7-0.2-1.3-0.3-1.7-0.6s-0.7-0.5-1-0.8
		c-0.2-0.3-0.3-0.7-0.3-1.1c0-0.7,0.3-1.3,0.9-1.8s1.3-0.7,2.2-0.7c1,0,1.7,0.2,2.3,0.7c0.6,0.5,0.9,1.1,0.9,1.9h-1.5
		c0-0.4-0.2-0.7-0.5-1s-0.8-0.4-1.3-0.4c-0.5,0-0.9,0.1-1.2,0.3s-0.4,0.5-0.4,0.9c0,0.3,0.1,0.6,0.4,0.8c0.3,0.2,0.8,0.3,1.5,0.5
		c0.7,0.2,1.3,0.4,1.8,0.6c0.4,0.2,0.8,0.5,1,0.8c0.2,0.3,0.3,0.7,0.3,1.2c0,0.8-0.3,1.4-0.9,1.8c-0.6,0.5-1.4,0.7-2.4,0.7
		c-0.7,0-1.3-0.1-1.8-0.4c-0.5-0.2-0.9-0.6-1.2-1c-0.3-0.4-0.4-0.9-0.4-1.4h1.4c0,0.5,0.2,0.9,0.6,1.2c0.4,0.3,0.8,0.4,1.4,0.4
		c0.5,0,1-0.1,1.3-0.3C230.3,227.8,230.5,227.5,230.5,227.2z"/>
	<path class="st3" d="M240.5,227.3l2-6.3h1.5l-3.4,9.8c-0.5,1.4-1.4,2.1-2.5,2.1l-0.3,0l-0.5-0.1v-1.2l0.4,0c0.5,0,0.9-0.1,1.1-0.3
		s0.5-0.6,0.7-1.1l0.3-0.9l-3-8.4h1.6L240.5,227.3z"/>
</g>
<g class="st2">
	<path class="st3" d="M64.9,252.4c0.5,0,1-0.2,1.4-0.5c0.4-0.3,0.6-0.7,0.6-1.2h1.4c0,0.5-0.2,0.9-0.5,1.4c-0.3,0.4-0.7,0.8-1.2,1
		c-0.5,0.3-1.1,0.4-1.6,0.4c-1.2,0-2.1-0.4-2.7-1.2s-1-1.8-1-3.2V249c0-0.8,0.2-1.6,0.5-2.2c0.3-0.6,0.7-1.1,1.3-1.5
		c0.6-0.4,1.2-0.5,2-0.5c0.9,0,1.7,0.3,2.4,0.9c0.6,0.6,1,1.3,1,2.2h-1.4c0-0.5-0.2-1-0.6-1.3c-0.4-0.4-0.8-0.5-1.4-0.5
		c-0.7,0-1.3,0.3-1.7,0.8c-0.4,0.5-0.6,1.3-0.6,2.3v0.3c0,1,0.2,1.7,0.6,2.2C63.6,252.1,64.1,252.4,64.9,252.4z"/>
	<path class="st3" d="M75.1,253.4c-0.1-0.2-0.2-0.5-0.2-0.9c-0.7,0.7-1.5,1-2.4,1c-0.8,0-1.5-0.2-2.1-0.7c-0.5-0.5-0.8-1.1-0.8-1.8
		c0-0.9,0.3-1.6,1-2.1c0.7-0.5,1.6-0.7,2.8-0.7h1.4v-0.7c0-0.5-0.2-0.9-0.5-1.2c-0.3-0.3-0.7-0.4-1.3-0.4c-0.5,0-0.9,0.1-1.3,0.4
		c-0.3,0.3-0.5,0.6-0.5,0.9h-1.5c0-0.4,0.1-0.8,0.4-1.2c0.3-0.4,0.7-0.7,1.2-0.9c0.5-0.2,1.1-0.3,1.7-0.3c1,0,1.7,0.2,2.3,0.7
		c0.6,0.5,0.8,1.2,0.9,2v3.9c0,0.8,0.1,1.4,0.3,1.9v0.1H75.1z M72.7,252.3c0.5,0,0.9-0.1,1.3-0.4s0.7-0.5,0.9-0.9v-1.7h-1.1
		c-1.8,0-2.7,0.5-2.7,1.6c0,0.5,0.2,0.8,0.5,1.1C71.8,252.2,72.2,252.3,72.7,252.3z"/>
	<path class="st3" d="M85.7,249.3c0,1.3-0.3,2.3-0.9,3.1c-0.6,0.8-1.4,1.2-2.4,1.2c-1,0-1.8-0.3-2.4-1v4.1h-1.4V245h1.3l0.1,0.9
		c0.6-0.7,1.4-1.1,2.5-1.1c1,0,1.8,0.4,2.4,1.1c0.6,0.8,0.9,1.8,0.9,3.2V249.3z M84.3,249.1c0-1-0.2-1.7-0.6-2.3s-1-0.8-1.7-0.8
		c-0.9,0-1.5,0.4-2,1.2v4c0.4,0.8,1.1,1.2,2,1.2c0.7,0,1.2-0.3,1.7-0.8C84.1,251,84.3,250.2,84.3,249.1z"/>
	<path class="st3" d="M87.6,242.7c0-0.2,0.1-0.4,0.2-0.6c0.1-0.2,0.4-0.2,0.6-0.2s0.5,0.1,0.6,0.2c0.1,0.2,0.2,0.4,0.2,0.6
		s-0.1,0.4-0.2,0.6c-0.1,0.2-0.4,0.2-0.6,0.2s-0.5-0.1-0.6-0.2C87.6,243.2,87.6,243,87.6,242.7z M89.1,253.4h-1.4V245h1.4V253.4z"/>
	<path class="st3" d="M93.4,242.9v2H95v1.1h-1.6v5.2c0,0.3,0.1,0.6,0.2,0.8c0.1,0.2,0.4,0.3,0.7,0.3c0.2,0,0.4,0,0.7-0.1v1.2
		c-0.4,0.1-0.8,0.2-1.1,0.2c-0.6,0-1.1-0.2-1.5-0.6s-0.5-0.9-0.5-1.7v-5.2h-1.5V245h1.5v-2H93.4z"/>
	<path class="st3" d="M101.9,253.4c-0.1-0.2-0.2-0.5-0.2-0.9c-0.7,0.7-1.5,1-2.4,1c-0.8,0-1.5-0.2-2.1-0.7c-0.5-0.5-0.8-1.1-0.8-1.8
		c0-0.9,0.3-1.6,1-2.1c0.7-0.5,1.6-0.7,2.8-0.7h1.4v-0.7c0-0.5-0.2-0.9-0.5-1.2c-0.3-0.3-0.7-0.4-1.3-0.4c-0.5,0-0.9,0.1-1.3,0.4
		c-0.3,0.3-0.5,0.6-0.5,0.9h-1.5c0-0.4,0.1-0.8,0.4-1.2c0.3-0.4,0.7-0.7,1.2-0.9c0.5-0.2,1.1-0.3,1.7-0.3c1,0,1.7,0.2,2.3,0.7
		c0.6,0.5,0.8,1.2,0.9,2v3.9c0,0.8,0.1,1.4,0.3,1.9v0.1H101.9z M99.5,252.3c0.5,0,0.9-0.1,1.3-0.4s0.7-0.5,0.9-0.9v-1.7h-1.1
		c-1.8,0-2.7,0.5-2.7,1.6c0,0.5,0.2,0.8,0.5,1.1C98.6,252.2,99,252.3,99.5,252.3z"/>
	<path class="st3" d="M106.9,253.4h-1.4v-12h1.4V253.4z"/>
	<path class="st3" d="M120.3,249.3c0,1.3-0.3,2.3-0.9,3.1c-0.6,0.8-1.4,1.2-2.4,1.2c-1,0-1.8-0.3-2.4-1v4.1h-1.4V245h1.3l0.1,0.9
		c0.6-0.7,1.4-1.1,2.5-1.1c1,0,1.8,0.4,2.4,1.1c0.6,0.8,0.9,1.8,0.9,3.2V249.3z M118.9,249.1c0-1-0.2-1.7-0.6-2.3s-1-0.8-1.7-0.8
		c-0.9,0-1.5,0.4-2,1.2v4c0.4,0.8,1.1,1.2,2,1.2c0.7,0,1.2-0.3,1.7-0.8C118.7,251,118.9,250.2,118.9,249.1z"/>
	<path class="st3" d="M127.4,253.4c-0.1-0.2-0.2-0.5-0.2-0.9c-0.7,0.7-1.5,1-2.4,1c-0.8,0-1.5-0.2-2.1-0.7c-0.5-0.5-0.8-1.1-0.8-1.8
		c0-0.9,0.3-1.6,1-2.1c0.7-0.5,1.6-0.7,2.8-0.7h1.4v-0.7c0-0.5-0.2-0.9-0.5-1.2c-0.3-0.3-0.7-0.4-1.3-0.4c-0.5,0-0.9,0.1-1.3,0.4
		c-0.3,0.3-0.5,0.6-0.5,0.9h-1.5c0-0.4,0.1-0.8,0.4-1.2c0.3-0.4,0.7-0.7,1.2-0.9c0.5-0.2,1.1-0.3,1.7-0.3c1,0,1.7,0.2,2.3,0.7
		c0.6,0.5,0.8,1.2,0.9,2v3.9c0,0.8,0.1,1.4,0.3,1.9v0.1H127.4z M125,252.3c0.5,0,0.9-0.1,1.3-0.4s0.7-0.5,0.9-0.9v-1.7H126
		c-1.8,0-2.7,0.5-2.7,1.6c0,0.5,0.2,0.8,0.5,1.1C124.1,252.2,124.5,252.3,125,252.3z"/>
	<path class="st3" d="M135,246.3c-0.2,0-0.5-0.1-0.7-0.1c-0.9,0-1.6,0.4-1.9,1.2v6h-1.4V245h1.4l0,1c0.5-0.8,1.1-1.1,2-1.1
		c0.3,0,0.5,0,0.6,0.1V246.3z"/>
	<path class="st3" d="M141.2,253.4c-0.1-0.2-0.2-0.5-0.2-0.9c-0.7,0.7-1.5,1-2.4,1c-0.8,0-1.5-0.2-2.1-0.7c-0.5-0.5-0.8-1.1-0.8-1.8
		c0-0.9,0.3-1.6,1-2.1c0.7-0.5,1.6-0.7,2.8-0.7h1.4v-0.7c0-0.5-0.2-0.9-0.5-1.2c-0.3-0.3-0.7-0.4-1.3-0.4c-0.5,0-0.9,0.1-1.3,0.4
		c-0.3,0.3-0.5,0.6-0.5,0.9h-1.5c0-0.4,0.1-0.8,0.4-1.2c0.3-0.4,0.7-0.7,1.2-0.9c0.5-0.2,1.1-0.3,1.7-0.3c1,0,1.7,0.2,2.3,0.7
		c0.6,0.5,0.8,1.2,0.9,2v3.9c0,0.8,0.1,1.4,0.3,1.9v0.1H141.2z M138.8,252.3c0.5,0,0.9-0.1,1.3-0.4s0.7-0.5,0.9-0.9v-1.7h-1.1
		c-1.8,0-2.7,0.5-2.7,1.6c0,0.5,0.2,0.8,0.5,1.1C137.9,252.2,138.3,252.3,138.8,252.3z"/>
	<path class="st3" d="M150.2,253.4h-1.4v-12h1.4V253.4z"/>
	<path class="st3" d="M157.8,253.4c-0.1-0.2-0.2-0.5-0.2-0.9c-0.7,0.7-1.5,1-2.4,1c-0.8,0-1.5-0.2-2.1-0.7c-0.5-0.5-0.8-1.1-0.8-1.8
		c0-0.9,0.3-1.6,1-2.1c0.7-0.5,1.6-0.7,2.8-0.7h1.4v-0.7c0-0.5-0.2-0.9-0.5-1.2c-0.3-0.3-0.7-0.4-1.3-0.4c-0.5,0-0.9,0.1-1.3,0.4
		c-0.3,0.3-0.5,0.6-0.5,0.9h-1.5c0-0.4,0.1-0.8,0.4-1.2c0.3-0.4,0.7-0.7,1.2-0.9c0.5-0.2,1.1-0.3,1.7-0.3c1,0,1.7,0.2,2.3,0.7
		c0.6,0.5,0.8,1.2,0.9,2v3.9c0,0.8,0.1,1.4,0.3,1.9v0.1H157.8z M155.4,252.3c0.5,0,0.9-0.1,1.3-0.4s0.7-0.5,0.9-0.9v-1.7h-1.1
		c-1.8,0-2.7,0.5-2.7,1.6c0,0.5,0.2,0.8,0.5,1.1C154.5,252.2,154.9,252.3,155.4,252.3z"/>
	<path class="st3" d="M168.7,253.6c-1.1,0-2.1-0.4-2.8-1.1s-1.1-1.8-1.1-3v-0.3c0-0.8,0.2-1.6,0.5-2.2s0.8-1.2,1.3-1.5
		c0.6-0.4,1.2-0.6,1.9-0.6c1.1,0,2,0.4,2.6,1.1s0.9,1.8,0.9,3.1v0.6h-5.7c0,0.8,0.3,1.5,0.7,2c0.5,0.5,1.1,0.8,1.8,0.8
		c0.5,0,0.9-0.1,1.3-0.3c0.4-0.2,0.7-0.5,0.9-0.8l0.9,0.7C171.2,253,170.1,253.6,168.7,253.6z M168.5,246c-0.6,0-1.1,0.2-1.5,0.6
		c-0.4,0.4-0.6,1-0.7,1.8h4.2v-0.1c0-0.7-0.2-1.3-0.6-1.7C169.6,246.2,169.1,246,168.5,246z"/>
	<path class="st3" d="M175,245l0,0.9c0.6-0.7,1.5-1.1,2.5-1.1c1.2,0,2,0.5,2.4,1.4c0.3-0.4,0.6-0.7,1.1-1c0.5-0.2,1-0.4,1.6-0.4
		c1.9,0,2.8,1,2.8,2.9v5.7h-1.4v-5.6c0-0.6-0.1-1.1-0.4-1.4c-0.3-0.3-0.7-0.4-1.4-0.4c-0.5,0-1,0.2-1.3,0.5
		c-0.4,0.3-0.6,0.8-0.6,1.3v5.6h-1.5v-5.5c0-1.2-0.6-1.8-1.8-1.8c-0.9,0-1.6,0.4-1.9,1.2v6.2h-1.4V245H175z"/>
	<path class="st3" d="M194.8,249.3c0,1.3-0.3,2.3-0.9,3.1c-0.6,0.8-1.4,1.2-2.4,1.2c-1,0-1.8-0.3-2.4-1v4.1h-1.4V245h1.3l0.1,0.9
		c0.6-0.7,1.4-1.1,2.5-1.1c1,0,1.8,0.4,2.4,1.1c0.6,0.8,0.9,1.8,0.9,3.2V249.3z M193.4,249.1c0-1-0.2-1.7-0.6-2.3s-1-0.8-1.7-0.8
		c-0.9,0-1.5,0.4-2,1.2v4c0.4,0.8,1.1,1.2,2,1.2c0.7,0,1.2-0.3,1.7-0.8C193.2,251,193.4,250.2,193.4,249.1z"/>
	<path class="st3" d="M200.8,246.3c-0.2,0-0.5-0.1-0.7-0.1c-0.9,0-1.6,0.4-1.9,1.2v6h-1.4V245h1.4l0,1c0.5-0.8,1.1-1.1,2-1.1
		c0.3,0,0.5,0,0.6,0.1V246.3z"/>
	<path class="st3" d="M205.6,253.6c-1.1,0-2.1-0.4-2.8-1.1s-1.1-1.8-1.1-3v-0.3c0-0.8,0.2-1.6,0.5-2.2s0.8-1.2,1.3-1.5
		c0.6-0.4,1.2-0.6,1.9-0.6c1.1,0,2,0.4,2.6,1.1s0.9,1.8,0.9,3.1v0.6h-5.7c0,0.8,0.3,1.5,0.7,2c0.5,0.5,1.1,0.8,1.8,0.8
		c0.5,0,0.9-0.1,1.3-0.3c0.4-0.2,0.7-0.5,0.9-0.8l0.9,0.7C208.1,253,207,253.6,205.6,253.6z M205.4,246c-0.6,0-1.1,0.2-1.5,0.6
		c-0.4,0.4-0.6,1-0.7,1.8h4.2v-0.1c0-0.7-0.2-1.3-0.6-1.7C206.5,246.2,206,246,205.4,246z"/>
	<path class="st3" d="M215.5,251.2c0-0.4-0.1-0.7-0.4-0.9c-0.3-0.2-0.8-0.4-1.5-0.6c-0.7-0.2-1.3-0.3-1.7-0.6s-0.7-0.5-1-0.8
		c-0.2-0.3-0.3-0.7-0.3-1.1c0-0.7,0.3-1.3,0.9-1.8s1.3-0.7,2.2-0.7c1,0,1.7,0.2,2.3,0.7c0.6,0.5,0.9,1.1,0.9,1.9h-1.5
		c0-0.4-0.2-0.7-0.5-1s-0.8-0.4-1.3-0.4c-0.5,0-0.9,0.1-1.2,0.3s-0.4,0.5-0.4,0.9c0,0.3,0.1,0.6,0.4,0.8c0.3,0.2,0.8,0.3,1.5,0.5
		c0.7,0.2,1.3,0.4,1.8,0.6c0.4,0.2,0.8,0.5,1,0.8c0.2,0.3,0.3,0.7,0.3,1.2c0,0.8-0.3,1.4-0.9,1.8c-0.6,0.5-1.4,0.7-2.4,0.7
		c-0.7,0-1.3-0.1-1.8-0.4c-0.5-0.2-0.9-0.6-1.2-1c-0.3-0.4-0.4-0.9-0.4-1.4h1.4c0,0.5,0.2,0.9,0.6,1.2c0.4,0.3,0.8,0.4,1.4,0.4
		c0.5,0,1-0.1,1.3-0.3C215.3,251.8,215.5,251.5,215.5,251.2z"/>
	<path class="st3" d="M224,253.4c-0.1-0.2-0.2-0.5-0.2-0.9c-0.7,0.7-1.5,1-2.4,1c-0.8,0-1.5-0.2-2.1-0.7c-0.5-0.5-0.8-1.1-0.8-1.8
		c0-0.9,0.3-1.6,1-2.1c0.7-0.5,1.6-0.7,2.8-0.7h1.4v-0.7c0-0.5-0.2-0.9-0.5-1.2c-0.3-0.3-0.7-0.4-1.3-0.4c-0.5,0-0.9,0.1-1.3,0.4
		c-0.3,0.3-0.5,0.6-0.5,0.9h-1.5c0-0.4,0.1-0.8,0.4-1.2c0.3-0.4,0.7-0.7,1.2-0.9c0.5-0.2,1.1-0.3,1.7-0.3c1,0,1.7,0.2,2.3,0.7
		c0.6,0.5,0.8,1.2,0.9,2v3.9c0,0.8,0.1,1.4,0.3,1.9v0.1H224z M221.6,252.3c0.5,0,0.9-0.1,1.3-0.4s0.7-0.5,0.9-0.9v-1.7h-1.1
		c-1.8,0-2.7,0.5-2.7,1.6c0,0.5,0.2,0.8,0.5,1.1C220.8,252.2,221.2,252.3,221.6,252.3z"/>
	<path class="st3" d="M227.6,252.7c0-0.2,0.1-0.5,0.2-0.6s0.4-0.2,0.7-0.2s0.5,0.1,0.7,0.2c0.2,0.2,0.2,0.4,0.2,0.6
		c0,0.2-0.1,0.4-0.2,0.6c-0.2,0.2-0.4,0.2-0.7,0.2s-0.5-0.1-0.7-0.2S227.6,252.9,227.6,252.7z"/>
</g>
<g class="st2">
	<path class="st3" d="M43.2,272.2h-4.9v4h5.7v1.2h-7.2V266h7.1v1.2h-5.6v3.7h4.9V272.2z"/>
	<path class="st3" d="M47.1,269v9.4c0,1.6-0.7,2.4-2.2,2.4c-0.3,0-0.6,0-0.9-0.1v-1.1c0.2,0,0.4,0.1,0.7,0.1c0.3,0,0.6-0.1,0.7-0.3
		c0.2-0.2,0.3-0.5,0.3-0.9V269H47.1z M45.5,266.7c0-0.2,0.1-0.4,0.2-0.6c0.1-0.2,0.4-0.2,0.6-0.2c0.3,0,0.5,0.1,0.6,0.2
		c0.1,0.2,0.2,0.4,0.2,0.6s-0.1,0.4-0.2,0.6c-0.1,0.2-0.4,0.2-0.6,0.2s-0.5-0.1-0.6-0.2S45.5,267,45.5,266.7z"/>
	<path class="st3" d="M52.9,277.6c-1.1,0-2.1-0.4-2.8-1.1s-1.1-1.8-1.1-3v-0.3c0-0.8,0.2-1.6,0.5-2.2s0.8-1.2,1.3-1.5
		c0.6-0.4,1.2-0.6,1.9-0.6c1.1,0,2,0.4,2.6,1.1s0.9,1.8,0.9,3.1v0.6h-5.7c0,0.8,0.3,1.5,0.7,2c0.5,0.5,1.1,0.8,1.8,0.8
		c0.5,0,0.9-0.1,1.3-0.3c0.4-0.2,0.7-0.5,0.9-0.8l0.9,0.7C55.4,277,54.3,277.6,52.9,277.6z M52.7,270c-0.6,0-1.1,0.2-1.5,0.6
		c-0.4,0.4-0.6,1-0.7,1.8h4.2v-0.1c0-0.7-0.2-1.3-0.6-1.7C53.8,270.2,53.3,270,52.7,270z"/>
	<path class="st3" d="M59.2,269l0,0.9c0.6-0.7,1.5-1.1,2.5-1.1c1.2,0,2,0.5,2.4,1.4c0.3-0.4,0.6-0.7,1.1-1c0.5-0.2,1-0.4,1.6-0.4
		c1.9,0,2.8,1,2.8,2.9v5.7h-1.4v-5.6c0-0.6-0.1-1.1-0.4-1.4c-0.3-0.3-0.7-0.4-1.4-0.4c-0.5,0-1,0.2-1.3,0.5
		c-0.4,0.3-0.6,0.8-0.6,1.3v5.6h-1.5v-5.5c0-1.2-0.6-1.8-1.8-1.8c-0.9,0-1.6,0.4-1.9,1.2v6.2h-1.4V269H59.2z"/>
	<path class="st3" d="M79.1,273.3c0,1.3-0.3,2.3-0.9,3.1c-0.6,0.8-1.4,1.2-2.4,1.2c-1,0-1.8-0.3-2.4-1v4.1h-1.4V269h1.3l0.1,0.9
		c0.6-0.7,1.4-1.1,2.5-1.1c1,0,1.8,0.4,2.4,1.1c0.6,0.8,0.9,1.8,0.9,3.2V273.3z M77.6,273.1c0-1-0.2-1.7-0.6-2.3s-1-0.8-1.7-0.8
		c-0.9,0-1.5,0.4-2,1.2v4c0.4,0.8,1.1,1.2,2,1.2c0.7,0,1.2-0.3,1.7-0.8C77.4,275,77.6,274.2,77.6,273.1z"/>
	<path class="st3" d="M82.5,277.4H81v-12h1.4V277.4z"/>
	<path class="st3" d="M84.4,273.1c0-0.8,0.2-1.6,0.5-2.2c0.3-0.7,0.8-1.2,1.4-1.5c0.6-0.4,1.2-0.5,2-0.5c1.2,0,2.1,0.4,2.8,1.2
		s1.1,1.9,1.1,3.2v0.1c0,0.8-0.2,1.6-0.5,2.2c-0.3,0.7-0.8,1.2-1.4,1.5s-1.3,0.5-2,0.5c-1.1,0-2.1-0.4-2.8-1.2s-1.1-1.9-1.1-3.2
		V273.1z M85.8,273.3c0,0.9,0.2,1.7,0.7,2.3c0.4,0.6,1,0.9,1.7,0.9c0.7,0,1.3-0.3,1.8-0.9c0.4-0.6,0.6-1.4,0.6-2.4
		c0-0.9-0.2-1.7-0.7-2.3c-0.4-0.6-1-0.9-1.8-0.9c-0.7,0-1.3,0.3-1.7,0.9S85.8,272.2,85.8,273.3z"/>
	<path class="st3" d="M93.8,276.7c0-0.2,0.1-0.5,0.2-0.6s0.4-0.2,0.7-0.2s0.5,0.1,0.7,0.2c0.2,0.2,0.2,0.4,0.2,0.6
		c0,0.2-0.1,0.4-0.2,0.6c-0.2,0.2-0.4,0.2-0.7,0.2s-0.5-0.1-0.7-0.2S93.8,276.9,93.8,276.7z M93.9,269.8c0-0.2,0.1-0.5,0.2-0.6
		s0.4-0.2,0.7-0.2s0.5,0.1,0.7,0.2c0.2,0.2,0.2,0.4,0.2,0.6c0,0.2-0.1,0.4-0.2,0.6c-0.2,0.2-0.4,0.2-0.7,0.2s-0.5-0.1-0.7-0.2
		S93.9,270,93.9,269.8z"/>
	<path class="st3" d="M105.2,277.6c-1.1,0-2.1-0.4-2.8-1.1s-1.1-1.8-1.1-3v-0.3c0-0.8,0.2-1.6,0.5-2.2s0.8-1.2,1.3-1.5
		c0.6-0.4,1.2-0.6,1.9-0.6c1.1,0,2,0.4,2.6,1.1s0.9,1.8,0.9,3.1v0.6h-5.7c0,0.8,0.3,1.5,0.7,2c0.5,0.5,1.1,0.8,1.8,0.8
		c0.5,0,0.9-0.1,1.3-0.3c0.4-0.2,0.7-0.5,0.9-0.8l0.9,0.7C107.7,277,106.7,277.6,105.2,277.6z M105.1,270c-0.6,0-1.1,0.2-1.5,0.6
		c-0.4,0.4-0.6,1-0.7,1.8h4.2v-0.1c0-0.7-0.2-1.3-0.6-1.7C106.1,270.2,105.7,270,105.1,270z"/>
	<path class="st3" d="M111.6,269l0,1.1c0.6-0.8,1.5-1.2,2.5-1.2c1.8,0,2.7,1,2.7,3v5.6h-1.4v-5.6c0-0.6-0.1-1.1-0.4-1.4
		s-0.7-0.4-1.3-0.4c-0.5,0-0.9,0.1-1.2,0.4c-0.4,0.2-0.6,0.6-0.8,1v6h-1.4V269H111.6z"/>
	<path class="st3" d="M121,266.9v2h1.6v1.1H121v5.2c0,0.3,0.1,0.6,0.2,0.8c0.1,0.2,0.4,0.3,0.7,0.3c0.2,0,0.4,0,0.7-0.1v1.2
		c-0.4,0.1-0.8,0.2-1.1,0.2c-0.6,0-1.1-0.2-1.5-0.6s-0.5-0.9-0.5-1.7v-5.2H118V269h1.5v-2H121z"/>
	<path class="st3" d="M124.3,266.7c0-0.2,0.1-0.4,0.2-0.6c0.1-0.2,0.4-0.2,0.6-0.2s0.5,0.1,0.6,0.2c0.1,0.2,0.2,0.4,0.2,0.6
		s-0.1,0.4-0.2,0.6c-0.1,0.2-0.4,0.2-0.6,0.2s-0.5-0.1-0.6-0.2C124.3,267.2,124.3,267,124.3,266.7z M125.8,277.4h-1.4V269h1.4V277.4
		z"/>
	<path class="st3" d="M127.8,273.1c0-1.3,0.3-2.3,0.9-3.1c0.6-0.8,1.4-1.2,2.4-1.2c1,0,1.8,0.3,2.4,1v-4.4h1.4v12h-1.3l-0.1-0.9
		c-0.6,0.7-1.4,1.1-2.4,1.1c-1,0-1.8-0.4-2.4-1.2s-0.9-1.8-0.9-3.1V273.1z M129.2,273.3c0,1,0.2,1.7,0.6,2.2
		c0.4,0.5,0.9,0.8,1.6,0.8c0.9,0,1.6-0.4,2-1.2v-3.9c-0.4-0.8-1.1-1.2-2-1.2c-0.7,0-1.3,0.3-1.7,0.8
		C129.4,271.4,129.2,272.2,129.2,273.3z"/>
	<path class="st3" d="M142.4,277.4c-0.1-0.2-0.2-0.5-0.2-0.9c-0.7,0.7-1.5,1-2.4,1c-0.8,0-1.5-0.2-2.1-0.7c-0.5-0.5-0.8-1.1-0.8-1.8
		c0-0.9,0.3-1.6,1-2.1c0.7-0.5,1.6-0.7,2.8-0.7h1.4v-0.7c0-0.5-0.2-0.9-0.5-1.2c-0.3-0.3-0.7-0.4-1.3-0.4c-0.5,0-0.9,0.1-1.3,0.4
		c-0.3,0.3-0.5,0.6-0.5,0.9h-1.5c0-0.4,0.1-0.8,0.4-1.2c0.3-0.4,0.7-0.7,1.2-0.9c0.5-0.2,1.1-0.3,1.7-0.3c1,0,1.7,0.2,2.3,0.7
		c0.6,0.5,0.8,1.2,0.9,2v3.9c0,0.8,0.1,1.4,0.3,1.9v0.1H142.4z M140,276.3c0.5,0,0.9-0.1,1.3-0.4s0.7-0.5,0.9-0.9v-1.7H141
		c-1.8,0-2.7,0.5-2.7,1.6c0,0.5,0.2,0.8,0.5,1.1C139.1,276.2,139.5,276.3,140,276.3z"/>
	<path class="st3" d="M145.5,273.1c0-1.3,0.3-2.3,0.9-3.1c0.6-0.8,1.4-1.2,2.4-1.2c1,0,1.8,0.3,2.4,1v-4.4h1.4v12h-1.3l-0.1-0.9
		c-0.6,0.7-1.4,1.1-2.4,1.1c-1,0-1.8-0.4-2.4-1.2s-0.9-1.8-0.9-3.1V273.1z M147,273.3c0,1,0.2,1.7,0.6,2.2c0.4,0.5,0.9,0.8,1.6,0.8
		c0.9,0,1.6-0.4,2-1.2v-3.9c-0.4-0.8-1.1-1.2-2-1.2c-0.7,0-1.3,0.3-1.7,0.8C147.2,271.4,147,272.2,147,273.3z"/>
	<path class="st3" d="M158.4,277.6c-1.1,0-2.1-0.4-2.8-1.1s-1.1-1.8-1.1-3v-0.3c0-0.8,0.2-1.6,0.5-2.2s0.8-1.2,1.3-1.5
		c0.6-0.4,1.2-0.6,1.9-0.6c1.1,0,2,0.4,2.6,1.1s0.9,1.8,0.9,3.1v0.6H156c0,0.8,0.3,1.5,0.7,2c0.5,0.5,1.1,0.8,1.8,0.8
		c0.5,0,0.9-0.1,1.3-0.3c0.4-0.2,0.7-0.5,0.9-0.8l0.9,0.7C160.9,277,159.8,277.6,158.4,277.6z M158.2,270c-0.6,0-1.1,0.2-1.5,0.6
		c-0.4,0.4-0.6,1-0.7,1.8h4.2v-0.1c0-0.7-0.2-1.3-0.6-1.7C159.3,270.2,158.8,270,158.2,270z"/>
	<path class="st3" d="M168.3,275.2c0-0.4-0.1-0.7-0.4-0.9c-0.3-0.2-0.8-0.4-1.5-0.6c-0.7-0.2-1.3-0.3-1.7-0.6s-0.7-0.5-1-0.8
		c-0.2-0.3-0.3-0.7-0.3-1.1c0-0.7,0.3-1.3,0.9-1.8s1.3-0.7,2.2-0.7c1,0,1.7,0.2,2.3,0.7c0.6,0.5,0.9,1.1,0.9,1.9h-1.5
		c0-0.4-0.2-0.7-0.5-1s-0.8-0.4-1.3-0.4c-0.5,0-0.9,0.1-1.2,0.3s-0.4,0.5-0.4,0.9c0,0.3,0.1,0.6,0.4,0.8c0.3,0.2,0.8,0.3,1.5,0.5
		c0.7,0.2,1.3,0.4,1.8,0.6c0.4,0.2,0.8,0.5,1,0.8c0.2,0.3,0.3,0.7,0.3,1.2c0,0.8-0.3,1.4-0.9,1.8c-0.6,0.5-1.4,0.7-2.4,0.7
		c-0.7,0-1.3-0.1-1.8-0.4c-0.5-0.2-0.9-0.6-1.2-1c-0.3-0.4-0.4-0.9-0.4-1.4h1.4c0,0.5,0.2,0.9,0.6,1.2c0.4,0.3,0.8,0.4,1.4,0.4
		c0.5,0,1-0.1,1.3-0.3C168.1,275.8,168.3,275.5,168.3,275.2z"/>
	<path class="st3" d="M176.3,277.4v-7.3H175V269h1.3v-0.9c0-0.9,0.2-1.6,0.7-2.1s1.2-0.7,2.1-0.7c0.3,0,0.7,0,1,0.1l-0.1,1.2
		c-0.2,0-0.5-0.1-0.8-0.1c-0.5,0-0.8,0.1-1.1,0.4c-0.3,0.3-0.4,0.7-0.4,1.2v0.9h1.8v1.1h-1.8v7.3H176.3z"/>
	<path class="st3" d="M181.1,266.7c0-0.2,0.1-0.4,0.2-0.6c0.1-0.2,0.4-0.2,0.6-0.2s0.5,0.1,0.6,0.2c0.1,0.2,0.2,0.4,0.2,0.6
		s-0.1,0.4-0.2,0.6c-0.1,0.2-0.4,0.2-0.6,0.2s-0.5-0.1-0.6-0.2C181.2,267.2,181.1,267,181.1,266.7z M182.7,277.4h-1.4V269h1.4V277.4
		z"/>
	<path class="st3" d="M186.4,269l0,1.1c0.6-0.8,1.5-1.2,2.5-1.2c1.8,0,2.7,1,2.7,3v5.6h-1.4v-5.6c0-0.6-0.1-1.1-0.4-1.4
		s-0.7-0.4-1.3-0.4c-0.5,0-0.9,0.1-1.2,0.4c-0.4,0.2-0.6,0.6-0.8,1v6H185V269H186.4z"/>
	<path class="st3" d="M199.1,277.4c-0.1-0.2-0.2-0.5-0.2-0.9c-0.7,0.7-1.5,1-2.4,1c-0.8,0-1.5-0.2-2.1-0.7c-0.5-0.5-0.8-1.1-0.8-1.8
		c0-0.9,0.3-1.6,1-2.1c0.7-0.5,1.6-0.7,2.8-0.7h1.4v-0.7c0-0.5-0.2-0.9-0.5-1.2c-0.3-0.3-0.7-0.4-1.3-0.4c-0.5,0-0.9,0.1-1.3,0.4
		c-0.3,0.3-0.5,0.6-0.5,0.9h-1.5c0-0.4,0.1-0.8,0.4-1.2c0.3-0.4,0.7-0.7,1.2-0.9c0.5-0.2,1.1-0.3,1.7-0.3c1,0,1.7,0.2,2.3,0.7
		c0.6,0.5,0.8,1.2,0.9,2v3.9c0,0.8,0.1,1.4,0.3,1.9v0.1H199.1z M196.7,276.3c0.5,0,0.9-0.1,1.3-0.4s0.7-0.5,0.9-0.9v-1.7h-1.1
		c-1.8,0-2.7,0.5-2.7,1.6c0,0.5,0.2,0.8,0.5,1.1C195.8,276.2,196.2,276.3,196.7,276.3z"/>
	<path class="st3" d="M203.9,269l0,1.1c0.6-0.8,1.5-1.2,2.5-1.2c1.8,0,2.7,1,2.7,3v5.6h-1.4v-5.6c0-0.6-0.1-1.1-0.4-1.4
		s-0.7-0.4-1.3-0.4c-0.5,0-0.9,0.1-1.2,0.4c-0.4,0.2-0.6,0.6-0.8,1v6h-1.4V269H203.9z"/>
	<path class="st3" d="M214.8,276.4c0.5,0,1-0.2,1.4-0.5c0.4-0.3,0.6-0.7,0.6-1.2h1.4c0,0.5-0.2,0.9-0.5,1.4c-0.3,0.4-0.7,0.8-1.2,1
		c-0.5,0.3-1.1,0.4-1.6,0.4c-1.2,0-2.1-0.4-2.7-1.2s-1-1.8-1-3.2V273c0-0.8,0.2-1.6,0.5-2.2c0.3-0.6,0.7-1.1,1.3-1.5
		c0.6-0.4,1.2-0.5,2-0.5c0.9,0,1.7,0.3,2.4,0.9c0.6,0.6,1,1.3,1,2.2h-1.4c0-0.5-0.2-1-0.6-1.3c-0.4-0.4-0.8-0.5-1.4-0.5
		c-0.7,0-1.3,0.3-1.7,0.8c-0.4,0.5-0.6,1.3-0.6,2.3v0.3c0,1,0.2,1.7,0.6,2.2C213.5,276.1,214,276.4,214.8,276.4z"/>
	<path class="st3" d="M219.8,266.7c0-0.2,0.1-0.4,0.2-0.6c0.1-0.2,0.4-0.2,0.6-0.2s0.5,0.1,0.6,0.2c0.1,0.2,0.2,0.4,0.2,0.6
		s-0.1,0.4-0.2,0.6c-0.1,0.2-0.4,0.2-0.6,0.2s-0.5-0.1-0.6-0.2C219.8,267.2,219.8,267,219.8,266.7z M221.3,277.4h-1.4V269h1.4V277.4
		z"/>
	<path class="st3" d="M227.1,277.6c-1.1,0-2.1-0.4-2.8-1.1s-1.1-1.8-1.1-3v-0.3c0-0.8,0.2-1.6,0.5-2.2s0.8-1.2,1.3-1.5
		c0.6-0.4,1.2-0.6,1.9-0.6c1.1,0,2,0.4,2.6,1.1s0.9,1.8,0.9,3.1v0.6h-5.7c0,0.8,0.3,1.5,0.7,2c0.5,0.5,1.1,0.8,1.8,0.8
		c0.5,0,0.9-0.1,1.3-0.3c0.4-0.2,0.7-0.5,0.9-0.8l0.9,0.7C229.6,277,228.6,277.6,227.1,277.6z M227,270c-0.6,0-1.1,0.2-1.5,0.6
		c-0.4,0.4-0.6,1-0.7,1.8h4.2v-0.1c0-0.7-0.2-1.3-0.6-1.7C228,270.2,227.6,270,227,270z"/>
	<path class="st3" d="M236.2,270.3c-0.2,0-0.5-0.1-0.7-0.1c-0.9,0-1.6,0.4-1.9,1.2v6h-1.4V269h1.4l0,1c0.5-0.8,1.1-1.1,2-1.1
		c0.3,0,0.5,0,0.6,0.1V270.3z"/>
	<path class="st3" d="M242.4,277.4c-0.1-0.2-0.2-0.5-0.2-0.9c-0.7,0.7-1.5,1-2.4,1c-0.8,0-1.5-0.2-2.1-0.7c-0.5-0.5-0.8-1.1-0.8-1.8
		c0-0.9,0.3-1.6,1-2.1c0.7-0.5,1.6-0.7,2.8-0.7h1.4v-0.7c0-0.5-0.2-0.9-0.5-1.2c-0.3-0.3-0.7-0.4-1.3-0.4c-0.5,0-0.9,0.1-1.3,0.4
		c-0.3,0.3-0.5,0.6-0.5,0.9h-1.5c0-0.4,0.1-0.8,0.4-1.2c0.3-0.4,0.7-0.7,1.2-0.9c0.5-0.2,1.1-0.3,1.7-0.3c1,0,1.7,0.2,2.3,0.7
		c0.6,0.5,0.8,1.2,0.9,2v3.9c0,0.8,0.1,1.4,0.3,1.9v0.1H242.4z M240,276.3c0.5,0,0.9-0.1,1.3-0.4s0.7-0.5,0.9-0.9v-1.7h-1.1
		c-1.8,0-2.7,0.5-2.7,1.6c0,0.5,0.2,0.8,0.5,1.1C239.2,276.2,239.6,276.3,240,276.3z"/>
	<path class="st3" d="M250.8,275.2c0-0.4-0.1-0.7-0.4-0.9c-0.3-0.2-0.8-0.4-1.5-0.6c-0.7-0.2-1.3-0.3-1.7-0.6s-0.7-0.5-1-0.8
		c-0.2-0.3-0.3-0.7-0.3-1.1c0-0.7,0.3-1.3,0.9-1.8s1.3-0.7,2.2-0.7c1,0,1.7,0.2,2.3,0.7c0.6,0.5,0.9,1.1,0.9,1.9h-1.5
		c0-0.4-0.2-0.7-0.5-1s-0.8-0.4-1.3-0.4c-0.5,0-0.9,0.1-1.2,0.3s-0.4,0.5-0.4,0.9c0,0.3,0.1,0.6,0.4,0.8c0.3,0.2,0.8,0.3,1.5,0.5
		c0.7,0.2,1.3,0.4,1.8,0.6c0.4,0.2,0.8,0.5,1,0.8c0.2,0.3,0.3,0.7,0.3,1.2c0,0.8-0.3,1.4-0.9,1.8c-0.6,0.5-1.4,0.7-2.4,0.7
		c-0.7,0-1.3-0.1-1.8-0.4c-0.5-0.2-0.9-0.6-1.2-1c-0.3-0.4-0.4-0.9-0.4-1.4h1.4c0,0.5,0.2,0.9,0.6,1.2c0.4,0.3,0.8,0.4,1.4,0.4
		c0.5,0,1-0.1,1.3-0.3C250.7,275.8,250.8,275.5,250.8,275.2z"/>
	<path class="st3" d="M254.1,279.7l-0.8-0.6c0.5-0.7,0.7-1.4,0.8-2.1v-1.3h1.4v1.1c0,0.5-0.1,1.1-0.4,1.6S254.5,279.4,254.1,279.7z"
		/>
</g>
<g class="st2">
	<path class="st3" d="M56.9,299.2c0-0.4-0.1-0.7-0.4-0.9c-0.3-0.2-0.8-0.4-1.5-0.6c-0.7-0.2-1.3-0.3-1.7-0.6s-0.7-0.5-1-0.8
		c-0.2-0.3-0.3-0.7-0.3-1.1c0-0.7,0.3-1.3,0.9-1.8s1.3-0.7,2.2-0.7c1,0,1.7,0.2,2.3,0.7c0.6,0.5,0.9,1.1,0.9,1.9h-1.5
		c0-0.4-0.2-0.7-0.5-1s-0.8-0.4-1.3-0.4c-0.5,0-0.9,0.1-1.2,0.3s-0.4,0.5-0.4,0.9c0,0.3,0.1,0.6,0.4,0.8c0.3,0.2,0.8,0.3,1.5,0.5
		c0.7,0.2,1.3,0.4,1.8,0.6c0.4,0.2,0.8,0.5,1,0.8c0.2,0.3,0.3,0.7,0.3,1.2c0,0.8-0.3,1.4-0.9,1.8c-0.6,0.5-1.4,0.7-2.4,0.7
		c-0.7,0-1.3-0.1-1.8-0.4c-0.5-0.2-0.9-0.6-1.2-1c-0.3-0.4-0.4-0.9-0.4-1.4h1.4c0,0.5,0.2,0.9,0.6,1.2c0.4,0.3,0.8,0.4,1.4,0.4
		c0.5,0,1-0.1,1.3-0.3C56.8,299.8,56.9,299.5,56.9,299.2z"/>
	<path class="st3" d="M59.9,297.1c0-0.8,0.2-1.6,0.5-2.2c0.3-0.7,0.8-1.2,1.4-1.5c0.6-0.4,1.2-0.5,2-0.5c1.2,0,2.1,0.4,2.8,1.2
		s1.1,1.9,1.1,3.2v0.1c0,0.8-0.2,1.6-0.5,2.2c-0.3,0.7-0.8,1.2-1.4,1.5s-1.3,0.5-2,0.5c-1.1,0-2.1-0.4-2.8-1.2s-1.1-1.9-1.1-3.2
		V297.1z M61.3,297.3c0,0.9,0.2,1.7,0.7,2.3c0.4,0.6,1,0.9,1.7,0.9c0.7,0,1.3-0.3,1.8-0.9c0.4-0.6,0.6-1.4,0.6-2.4
		c0-0.9-0.2-1.7-0.7-2.3c-0.4-0.6-1-0.9-1.8-0.9c-0.7,0-1.3,0.3-1.7,0.9S61.3,296.2,61.3,297.3z"/>
	<path class="st3" d="M72.8,300.4c0.5,0,1-0.2,1.4-0.5c0.4-0.3,0.6-0.7,0.6-1.2h1.4c0,0.5-0.2,0.9-0.5,1.4c-0.3,0.4-0.7,0.8-1.2,1
		c-0.5,0.3-1.1,0.4-1.6,0.4c-1.2,0-2.1-0.4-2.7-1.2s-1-1.8-1-3.2V297c0-0.8,0.2-1.6,0.5-2.2c0.3-0.6,0.7-1.1,1.3-1.5
		c0.6-0.4,1.2-0.5,2-0.5c0.9,0,1.7,0.3,2.4,0.9c0.6,0.6,1,1.3,1,2.2h-1.4c0-0.5-0.2-1-0.6-1.3c-0.4-0.4-0.8-0.5-1.4-0.5
		c-0.7,0-1.3,0.3-1.7,0.8c-0.4,0.5-0.6,1.3-0.6,2.3v0.3c0,1,0.2,1.7,0.6,2.2C71.5,300.1,72,300.4,72.8,300.4z"/>
	<path class="st3" d="M77.8,290.7c0-0.2,0.1-0.4,0.2-0.6c0.1-0.2,0.4-0.2,0.6-0.2s0.5,0.1,0.6,0.2c0.1,0.2,0.2,0.4,0.2,0.6
		s-0.1,0.4-0.2,0.6c-0.1,0.2-0.4,0.2-0.6,0.2s-0.5-0.1-0.6-0.2C77.8,291.2,77.8,291,77.8,290.7z M79.3,301.4h-1.4V293h1.4V301.4z"/>
	<path class="st3" d="M81.3,297.1c0-0.8,0.2-1.6,0.5-2.2c0.3-0.7,0.8-1.2,1.4-1.5c0.6-0.4,1.2-0.5,2-0.5c1.2,0,2.1,0.4,2.8,1.2
		s1.1,1.9,1.1,3.2v0.1c0,0.8-0.2,1.6-0.5,2.2c-0.3,0.7-0.8,1.2-1.4,1.5s-1.3,0.5-2,0.5c-1.1,0-2.1-0.4-2.8-1.2s-1.1-1.9-1.1-3.2
		V297.1z M82.7,297.3c0,0.9,0.2,1.7,0.7,2.3c0.4,0.6,1,0.9,1.7,0.9c0.7,0,1.3-0.3,1.8-0.9c0.4-0.6,0.6-1.4,0.6-2.4
		c0-0.9-0.2-1.7-0.7-2.3c-0.4-0.6-1-0.9-1.8-0.9c-0.7,0-1.3,0.3-1.7,0.9S82.7,296.2,82.7,297.3z"/>
	<path class="st3" d="M95.7,299.2c0-0.4-0.1-0.7-0.4-0.9c-0.3-0.2-0.8-0.4-1.5-0.6c-0.7-0.2-1.3-0.3-1.7-0.6s-0.7-0.5-1-0.8
		c-0.2-0.3-0.3-0.7-0.3-1.1c0-0.7,0.3-1.3,0.9-1.8s1.3-0.7,2.2-0.7c1,0,1.7,0.2,2.3,0.7c0.6,0.5,0.9,1.1,0.9,1.9h-1.5
		c0-0.4-0.2-0.7-0.5-1s-0.8-0.4-1.3-0.4c-0.5,0-0.9,0.1-1.2,0.3s-0.4,0.5-0.4,0.9c0,0.3,0.1,0.6,0.4,0.8c0.3,0.2,0.8,0.3,1.5,0.5
		c0.7,0.2,1.3,0.4,1.8,0.6c0.4,0.2,0.8,0.5,1,0.8c0.2,0.3,0.3,0.7,0.3,1.2c0,0.8-0.3,1.4-0.9,1.8c-0.6,0.5-1.4,0.7-2.4,0.7
		c-0.7,0-1.3-0.1-1.8-0.4c-0.5-0.2-0.9-0.6-1.2-1c-0.3-0.4-0.4-0.9-0.4-1.4h1.4c0,0.5,0.2,0.9,0.6,1.2c0.4,0.3,0.8,0.4,1.4,0.4
		c0.5,0,1-0.1,1.3-0.3C95.5,299.8,95.7,299.5,95.7,299.2z"/>
	<path class="st3" d="M99,303.7l-0.8-0.6c0.5-0.7,0.7-1.4,0.8-2.1v-1.3h1.4v1.1c0,0.5-0.1,1.1-0.4,1.6S99.4,303.4,99,303.7z"/>
	<path class="st3" d="M109.5,300.4c0.5,0,1-0.2,1.4-0.5c0.4-0.3,0.6-0.7,0.6-1.2h1.4c0,0.5-0.2,0.9-0.5,1.4c-0.3,0.4-0.7,0.8-1.2,1
		c-0.5,0.3-1.1,0.4-1.6,0.4c-1.2,0-2.1-0.4-2.7-1.2s-1-1.8-1-3.2V297c0-0.8,0.2-1.6,0.5-2.2c0.3-0.6,0.7-1.1,1.3-1.5
		c0.6-0.4,1.2-0.5,2-0.5c0.9,0,1.7,0.3,2.4,0.9c0.6,0.6,1,1.3,1,2.2h-1.4c0-0.5-0.2-1-0.6-1.3c-0.4-0.4-0.8-0.5-1.4-0.5
		c-0.7,0-1.3,0.3-1.7,0.8c-0.4,0.5-0.6,1.3-0.6,2.3v0.3c0,1,0.2,1.7,0.6,2.2C108.2,300.1,108.8,300.4,109.5,300.4z"/>
	<path class="st3" d="M114.1,297.1c0-0.8,0.2-1.6,0.5-2.2c0.3-0.7,0.8-1.2,1.4-1.5c0.6-0.4,1.2-0.5,2-0.5c1.2,0,2.1,0.4,2.8,1.2
		s1.1,1.9,1.1,3.2v0.1c0,0.8-0.2,1.6-0.5,2.2c-0.3,0.7-0.8,1.2-1.4,1.5s-1.3,0.5-2,0.5c-1.1,0-2.1-0.4-2.8-1.2s-1.1-1.9-1.1-3.2
		V297.1z M115.6,297.3c0,0.9,0.2,1.7,0.7,2.3c0.4,0.6,1,0.9,1.7,0.9c0.7,0,1.3-0.3,1.8-0.9c0.4-0.6,0.6-1.4,0.6-2.4
		c0-0.9-0.2-1.7-0.7-2.3c-0.4-0.6-1-0.9-1.8-0.9c-0.7,0-1.3,0.3-1.7,0.9S115.6,296.2,115.6,297.3z"/>
	<path class="st3" d="M123.2,297.1c0-0.8,0.2-1.6,0.5-2.2c0.3-0.7,0.8-1.2,1.4-1.5c0.6-0.4,1.2-0.5,2-0.5c1.2,0,2.1,0.4,2.8,1.2
		s1.1,1.9,1.1,3.2v0.1c0,0.8-0.2,1.6-0.5,2.2c-0.3,0.7-0.8,1.2-1.4,1.5s-1.3,0.5-2,0.5c-1.1,0-2.1-0.4-2.8-1.2s-1.1-1.9-1.1-3.2
		V297.1z M124.7,297.3c0,0.9,0.2,1.7,0.7,2.3c0.4,0.6,1,0.9,1.7,0.9c0.7,0,1.3-0.3,1.8-0.9c0.4-0.6,0.6-1.4,0.6-2.4
		c0-0.9-0.2-1.7-0.7-2.3c-0.4-0.6-1-0.9-1.8-0.9c-0.7,0-1.3,0.3-1.7,0.9S124.7,296.2,124.7,297.3z"/>
	<path class="st3" d="M139.9,297.3c0,1.3-0.3,2.3-0.9,3.1c-0.6,0.8-1.4,1.2-2.4,1.2c-1,0-1.8-0.3-2.4-1v4.1h-1.4V293h1.3l0.1,0.9
		c0.6-0.7,1.4-1.1,2.5-1.1c1,0,1.8,0.4,2.4,1.1c0.6,0.8,0.9,1.8,0.9,3.2V297.3z M138.4,297.1c0-1-0.2-1.7-0.6-2.3s-1-0.8-1.7-0.8
		c-0.9,0-1.5,0.4-2,1.2v4c0.4,0.8,1.1,1.2,2,1.2c0.7,0,1.2-0.3,1.7-0.8C138.2,299,138.4,298.2,138.4,297.1z"/>
	<path class="st3" d="M145.2,301.6c-1.1,0-2.1-0.4-2.8-1.1s-1.1-1.8-1.1-3v-0.3c0-0.8,0.2-1.6,0.5-2.2s0.8-1.2,1.3-1.5
		c0.6-0.4,1.2-0.6,1.9-0.6c1.1,0,2,0.4,2.6,1.1s0.9,1.8,0.9,3.1v0.6h-5.7c0,0.8,0.3,1.5,0.7,2c0.5,0.5,1.1,0.8,1.8,0.8
		c0.5,0,0.9-0.1,1.3-0.3c0.4-0.2,0.7-0.5,0.9-0.8l0.9,0.7C147.7,301,146.6,301.6,145.2,301.6z M145,294c-0.6,0-1.1,0.2-1.5,0.6
		c-0.4,0.4-0.6,1-0.7,1.8h4.2v-0.1c0-0.7-0.2-1.3-0.6-1.7C146.1,294.2,145.7,294,145,294z"/>
	<path class="st3" d="M154.3,294.3c-0.2,0-0.5-0.1-0.7-0.1c-0.9,0-1.6,0.4-1.9,1.2v6h-1.4V293h1.4l0,1c0.5-0.8,1.1-1.1,2-1.1
		c0.3,0,0.5,0,0.6,0.1V294.3z"/>
	<path class="st3" d="M160.5,301.4c-0.1-0.2-0.2-0.5-0.2-0.9c-0.7,0.7-1.5,1-2.4,1c-0.8,0-1.5-0.2-2.1-0.7c-0.5-0.5-0.8-1.1-0.8-1.8
		c0-0.9,0.3-1.6,1-2.1c0.7-0.5,1.6-0.7,2.8-0.7h1.4v-0.7c0-0.5-0.2-0.9-0.5-1.2c-0.3-0.3-0.7-0.4-1.3-0.4c-0.5,0-0.9,0.1-1.3,0.4
		c-0.3,0.3-0.5,0.6-0.5,0.9h-1.5c0-0.4,0.1-0.8,0.4-1.2c0.3-0.4,0.7-0.7,1.2-0.9c0.5-0.2,1.1-0.3,1.7-0.3c1,0,1.7,0.2,2.3,0.7
		c0.6,0.5,0.8,1.2,0.9,2v3.9c0,0.8,0.1,1.4,0.3,1.9v0.1H160.5z M158.1,300.3c0.5,0,0.9-0.1,1.3-0.4s0.7-0.5,0.9-0.9v-1.7h-1.1
		c-1.8,0-2.7,0.5-2.7,1.6c0,0.5,0.2,0.8,0.5,1.1C157.3,300.2,157.6,300.3,158.1,300.3z"/>
	<path class="st3" d="M166,290.9v2h1.6v1.1H166v5.2c0,0.3,0.1,0.6,0.2,0.8c0.1,0.2,0.4,0.3,0.7,0.3c0.2,0,0.4,0,0.7-0.1v1.2
		c-0.4,0.1-0.8,0.2-1.1,0.2c-0.6,0-1.1-0.2-1.5-0.6s-0.5-0.9-0.5-1.7v-5.2H163V293h1.5v-2H166z"/>
	<path class="st3" d="M169.2,290.7c0-0.2,0.1-0.4,0.2-0.6c0.1-0.2,0.4-0.2,0.6-0.2s0.5,0.1,0.6,0.2c0.1,0.2,0.2,0.4,0.2,0.6
		s-0.1,0.4-0.2,0.6c-0.1,0.2-0.4,0.2-0.6,0.2s-0.5-0.1-0.6-0.2C169.3,291.2,169.2,291,169.2,290.7z M170.8,301.4h-1.4V293h1.4V301.4
		z"/>
	<path class="st3" d="M175.9,299.5l2.1-6.5h1.5l-3,8.5h-1.1l-3.1-8.5h1.5L175.9,299.5z"/>
	<path class="st3" d="M186,301.4c-0.1-0.2-0.2-0.5-0.2-0.9c-0.7,0.7-1.5,1-2.4,1c-0.8,0-1.5-0.2-2.1-0.7c-0.5-0.5-0.8-1.1-0.8-1.8
		c0-0.9,0.3-1.6,1-2.1c0.7-0.5,1.6-0.7,2.8-0.7h1.4v-0.7c0-0.5-0.2-0.9-0.5-1.2c-0.3-0.3-0.7-0.4-1.3-0.4c-0.5,0-0.9,0.1-1.3,0.4
		c-0.3,0.3-0.5,0.6-0.5,0.9h-1.5c0-0.4,0.1-0.8,0.4-1.2c0.3-0.4,0.7-0.7,1.2-0.9c0.5-0.2,1.1-0.3,1.7-0.3c1,0,1.7,0.2,2.3,0.7
		c0.6,0.5,0.8,1.2,0.9,2v3.9c0,0.8,0.1,1.4,0.3,1.9v0.1H186z M183.6,300.3c0.5,0,0.9-0.1,1.3-0.4s0.7-0.5,0.9-0.9v-1.7h-1.1
		c-1.8,0-2.7,0.5-2.7,1.6c0,0.5,0.2,0.8,0.5,1.1C182.7,300.2,183.1,300.3,183.6,300.3z"/>
	<path class="st3" d="M194.4,299.2c0-0.4-0.1-0.7-0.4-0.9c-0.3-0.2-0.8-0.4-1.5-0.6c-0.7-0.2-1.3-0.3-1.7-0.6s-0.7-0.5-1-0.8
		c-0.2-0.3-0.3-0.7-0.3-1.1c0-0.7,0.3-1.3,0.9-1.8s1.3-0.7,2.2-0.7c1,0,1.7,0.2,2.3,0.7c0.6,0.5,0.9,1.1,0.9,1.9h-1.5
		c0-0.4-0.2-0.7-0.5-1s-0.8-0.4-1.3-0.4c-0.5,0-0.9,0.1-1.2,0.3s-0.4,0.5-0.4,0.9c0,0.3,0.1,0.6,0.4,0.8c0.3,0.2,0.8,0.3,1.5,0.5
		c0.7,0.2,1.3,0.4,1.8,0.6c0.4,0.2,0.8,0.5,1,0.8c0.2,0.3,0.3,0.7,0.3,1.2c0,0.8-0.3,1.4-0.9,1.8c-0.6,0.5-1.4,0.7-2.4,0.7
		c-0.7,0-1.3-0.1-1.8-0.4c-0.5-0.2-0.9-0.6-1.2-1c-0.3-0.4-0.4-0.9-0.4-1.4h1.4c0,0.5,0.2,0.9,0.6,1.2c0.4,0.3,0.8,0.4,1.4,0.4
		c0.5,0,1-0.1,1.3-0.3C194.2,299.8,194.4,299.5,194.4,299.2z"/>
	<path class="st3" d="M197.6,303.7l-0.8-0.6c0.5-0.7,0.7-1.4,0.8-2.1v-1.3h1.4v1.1c0,0.5-0.1,1.1-0.4,1.6S198,303.4,197.6,303.7z"/>
	<path class="st3" d="M208.3,301.6c-1.1,0-2.1-0.4-2.8-1.1s-1.1-1.8-1.1-3v-0.3c0-0.8,0.2-1.6,0.5-2.2s0.8-1.2,1.3-1.5
		c0.6-0.4,1.2-0.6,1.9-0.6c1.1,0,2,0.4,2.6,1.1s0.9,1.8,0.9,3.1v0.6h-5.7c0,0.8,0.3,1.5,0.7,2c0.5,0.5,1.1,0.8,1.8,0.8
		c0.5,0,0.9-0.1,1.3-0.3c0.4-0.2,0.7-0.5,0.9-0.8l0.9,0.7C210.8,301,209.7,301.6,208.3,301.6z M208.1,294c-0.6,0-1.1,0.2-1.5,0.6
		c-0.4,0.4-0.6,1-0.7,1.8h4.2v-0.1c0-0.7-0.2-1.3-0.6-1.7C209.2,294.2,208.7,294,208.1,294z"/>
	<path class="st3" d="M214.6,293l0,1.1c0.6-0.8,1.5-1.2,2.5-1.2c1.8,0,2.7,1,2.7,3v5.6h-1.4v-5.6c0-0.6-0.1-1.1-0.4-1.4
		s-0.7-0.4-1.3-0.4c-0.5,0-0.9,0.1-1.2,0.4c-0.4,0.2-0.6,0.6-0.8,1v6h-1.4V293H214.6z"/>
	<path class="st3" d="M224.1,290.9v2h1.6v1.1h-1.6v5.2c0,0.3,0.1,0.6,0.2,0.8c0.1,0.2,0.4,0.3,0.7,0.3c0.2,0,0.4,0,0.7-0.1v1.2
		c-0.4,0.1-0.8,0.2-1.1,0.2c-0.6,0-1.1-0.2-1.5-0.6s-0.5-0.9-0.5-1.7v-5.2h-1.5V293h1.5v-2H224.1z"/>
	<path class="st3" d="M231.4,294.3c-0.2,0-0.5-0.1-0.7-0.1c-0.9,0-1.6,0.4-1.9,1.2v6h-1.4V293h1.4l0,1c0.5-0.8,1.1-1.1,2-1.1
		c0.3,0,0.5,0,0.6,0.1V294.3z"/>
	<path class="st3" d="M236.3,301.6c-1.1,0-2.1-0.4-2.8-1.1s-1.1-1.8-1.1-3v-0.3c0-0.8,0.2-1.6,0.5-2.2s0.8-1.2,1.3-1.5
		c0.6-0.4,1.2-0.6,1.9-0.6c1.1,0,2,0.4,2.6,1.1s0.9,1.8,0.9,3.1v0.6h-5.7c0,0.8,0.3,1.5,0.7,2c0.5,0.5,1.1,0.8,1.8,0.8
		c0.5,0,0.9-0.1,1.3-0.3c0.4-0.2,0.7-0.5,0.9-0.8l0.9,0.7C238.7,301,237.7,301.6,236.3,301.6z M236.1,294c-0.6,0-1.1,0.2-1.5,0.6
		c-0.4,0.4-0.6,1-0.7,1.8h4.2v-0.1c0-0.7-0.2-1.3-0.6-1.7C237.2,294.2,236.7,294,236.1,294z"/>
</g>
<g class="st2">
	<path class="st3" d="M125.6,321.1c0-0.8,0.2-1.6,0.5-2.2c0.3-0.7,0.8-1.2,1.4-1.5c0.6-0.4,1.2-0.5,2-0.5c1.2,0,2.1,0.4,2.8,1.2
		s1.1,1.9,1.1,3.2v0.1c0,0.8-0.2,1.6-0.5,2.2c-0.3,0.7-0.8,1.2-1.4,1.5s-1.3,0.5-2,0.5c-1.1,0-2.1-0.4-2.8-1.2s-1.1-1.9-1.1-3.2
		V321.1z M127.1,321.3c0,0.9,0.2,1.7,0.7,2.3c0.4,0.6,1,0.9,1.7,0.9c0.7,0,1.3-0.3,1.8-0.9c0.4-0.6,0.6-1.4,0.6-2.4
		c0-0.9-0.2-1.7-0.7-2.3c-0.4-0.6-1-0.9-1.8-0.9c-0.7,0-1.3,0.3-1.7,0.9S127.1,320.2,127.1,321.3z"/>
	<path class="st3" d="M137.1,314.9v2h1.6v1.1h-1.6v5.2c0,0.3,0.1,0.6,0.2,0.8c0.1,0.2,0.4,0.3,0.7,0.3c0.2,0,0.4,0,0.7-0.1v1.2
		c-0.4,0.1-0.8,0.2-1.1,0.2c-0.6,0-1.1-0.2-1.5-0.6s-0.5-0.9-0.5-1.7v-5.2h-1.5V317h1.5v-2H137.1z"/>
	<path class="st3" d="M144.5,318.3c-0.2,0-0.5-0.1-0.7-0.1c-0.9,0-1.6,0.4-1.9,1.2v6h-1.4V317h1.4l0,1c0.5-0.8,1.1-1.1,2-1.1
		c0.3,0,0.5,0,0.6,0.1V318.3z"/>
	<path class="st3" d="M145.2,321.1c0-0.8,0.2-1.6,0.5-2.2c0.3-0.7,0.8-1.2,1.4-1.5c0.6-0.4,1.2-0.5,2-0.5c1.2,0,2.1,0.4,2.8,1.2
		s1.1,1.9,1.1,3.2v0.1c0,0.8-0.2,1.6-0.5,2.2s-0.8,1.2-1.4,1.5s-1.3,0.5-2,0.5c-1.1,0-2.1-0.4-2.8-1.2s-1.1-1.9-1.1-3.2V321.1z
		 M146.7,321.3c0,0.9,0.2,1.7,0.7,2.3c0.4,0.6,1,0.9,1.7,0.9c0.7,0,1.3-0.3,1.8-0.9s0.6-1.4,0.6-2.4c0-0.9-0.2-1.7-0.7-2.3
		s-1-0.9-1.8-0.9c-0.7,0-1.3,0.3-1.7,0.9S146.7,320.2,146.7,321.3z"/>
	<path class="st3" d="M159.7,323.2c0-0.4-0.1-0.7-0.4-0.9s-0.8-0.4-1.5-0.6s-1.3-0.3-1.7-0.6s-0.7-0.5-1-0.8s-0.3-0.7-0.3-1.1
		c0-0.7,0.3-1.3,0.9-1.8s1.3-0.7,2.2-0.7c1,0,1.7,0.2,2.3,0.7s0.9,1.1,0.9,1.9h-1.5c0-0.4-0.2-0.7-0.5-1s-0.8-0.4-1.3-0.4
		c-0.5,0-0.9,0.1-1.2,0.3s-0.4,0.5-0.4,0.9c0,0.3,0.1,0.6,0.4,0.8s0.8,0.3,1.5,0.5s1.3,0.4,1.8,0.6s0.8,0.5,1,0.8s0.3,0.7,0.3,1.2
		c0,0.8-0.3,1.4-0.9,1.8s-1.4,0.7-2.4,0.7c-0.7,0-1.3-0.1-1.8-0.4s-0.9-0.6-1.2-1s-0.4-0.9-0.4-1.4h1.4c0,0.5,0.2,0.9,0.6,1.2
		s0.8,0.4,1.4,0.4c0.5,0,1-0.1,1.3-0.3S159.7,323.5,159.7,323.2z"/>
	<path class="st3" d="M163,324.7c0-0.2,0.1-0.5,0.2-0.6s0.4-0.2,0.7-0.2s0.5,0.1,0.7,0.2s0.2,0.4,0.2,0.6c0,0.2-0.1,0.4-0.2,0.6
		s-0.4,0.2-0.7,0.2s-0.5-0.1-0.7-0.2S163,324.9,163,324.7z"/>
</g>
<path id="Rectángulo_36946" class="st4" d="M22,0h251c12.2,0,22,9.8,22,22v29.9l0,0H0l0,0V22C0,9.8,9.8,0,22,0z"/>
<g class="st2">
	<path class="st1" d="M115.4,27.3h-2.1V32h-2.6V19.2h4.8c1.5,0,2.7,0.3,3.5,1s1.2,1.6,1.2,2.9c0,0.9-0.2,1.6-0.6,2.2
		c-0.4,0.6-1,1-1.7,1.4l2.8,5.2V32h-2.8L115.4,27.3z M113.3,25.2h2.1c0.7,0,1.2-0.2,1.5-0.5c0.4-0.3,0.5-0.8,0.5-1.4
		c0-0.6-0.2-1.1-0.5-1.4s-0.9-0.5-1.6-0.5h-2.1V25.2z"/>
	<path class="st1" d="M126.4,32.2c-1.4,0-2.5-0.4-3.4-1.3s-1.3-2-1.3-3.4v-0.2c0-1,0.2-1.8,0.6-2.6s0.9-1.3,1.6-1.7s1.4-0.6,2.3-0.6
		c1.3,0,2.3,0.4,3.1,1.2s1.1,2,1.1,3.5v1h-6.1c0.1,0.6,0.3,1.1,0.7,1.5s0.9,0.6,1.6,0.6c1,0,1.7-0.4,2.3-1.1l1.2,1.4
		c-0.4,0.5-0.9,1-1.5,1.3C127.9,32,127.2,32.2,126.4,32.2z M126.1,24.4c-0.5,0-0.9,0.2-1.2,0.5c-0.3,0.3-0.5,0.8-0.6,1.5h3.5v-0.2
		c0-0.6-0.2-1-0.5-1.3C127,24.5,126.6,24.4,126.1,24.4z"/>
	<path class="st1" d="M135.7,30.1c0.5,0,0.8-0.1,1.1-0.4s0.4-0.6,0.5-1h2.4c0,0.6-0.2,1.2-0.5,1.8c-0.3,0.5-0.8,1-1.4,1.2
		c-0.6,0.3-1.3,0.4-2,0.4c-1.4,0-2.4-0.4-3.2-1.3c-0.8-0.9-1.2-2.1-1.2-3.6v-0.2c0-1.5,0.4-2.6,1.2-3.5s1.8-1.3,3.2-1.3
		c1.2,0,2.1,0.3,2.9,1c0.7,0.7,1.1,1.6,1.1,2.7h-2.4c0-0.5-0.2-0.9-0.5-1.2s-0.7-0.5-1.2-0.5c-0.6,0-1,0.2-1.3,0.6
		c-0.3,0.4-0.5,1.1-0.5,2.1v0.3c0,1,0.1,1.7,0.4,2.1S135.1,30.1,135.7,30.1z"/>
	<path class="st1" d="M146.8,31c-0.6,0.8-1.5,1.1-2.6,1.1c-1,0-1.8-0.3-2.3-0.9s-0.8-1.4-0.8-2.6v-6.2h2.5v6.2c0,1,0.5,1.5,1.4,1.5
		c0.9,0,1.5-0.3,1.8-0.9v-6.7h2.5V32h-2.4L146.8,31z"/>
	<path class="st1" d="M156.5,24.9c-0.3,0-0.7-0.1-0.9-0.1c-1,0-1.6,0.3-1.9,1V32h-2.5v-9.5h2.4l0.1,1.1c0.5-0.9,1.2-1.3,2.1-1.3
		c0.3,0,0.5,0,0.8,0.1L156.5,24.9z"/>
	<path class="st1" d="M162.9,29.4c0-0.3-0.2-0.6-0.5-0.7s-0.8-0.3-1.5-0.5c-2.3-0.5-3.4-1.4-3.4-2.9c0-0.8,0.3-1.5,1-2.1
		c0.7-0.6,1.6-0.8,2.7-0.8c1.2,0,2.2,0.3,2.9,0.9s1.1,1.3,1.1,2.2h-2.5c0-0.4-0.1-0.7-0.4-0.9c-0.2-0.2-0.6-0.4-1.1-0.4
		c-0.4,0-0.8,0.1-1,0.3s-0.4,0.4-0.4,0.7c0,0.3,0.1,0.5,0.4,0.7c0.3,0.2,0.7,0.3,1.3,0.4s1.2,0.3,1.6,0.4c1.3,0.5,2,1.3,2,2.6
		c0,0.9-0.4,1.6-1.1,2.1c-0.7,0.5-1.7,0.8-2.9,0.8c-0.8,0-1.5-0.1-2.1-0.4c-0.6-0.3-1.1-0.7-1.5-1.2c-0.4-0.5-0.5-1-0.5-1.6h2.4
		c0,0.5,0.2,0.8,0.5,1s0.7,0.4,1.2,0.4c0.5,0,0.9-0.1,1.1-0.3C162.8,29.9,162.9,29.7,162.9,29.4z"/>
	<path class="st1" d="M166.6,27.2c0-0.9,0.2-1.8,0.5-2.5s0.9-1.3,1.6-1.7s1.5-0.6,2.4-0.6c1.3,0,2.3,0.4,3.1,1.2s1.3,1.9,1.4,3.2
		l0,0.7c0,1.5-0.4,2.6-1.2,3.5s-1.9,1.3-3.3,1.3s-2.5-0.4-3.3-1.3s-1.2-2.1-1.2-3.6V27.2z M169.2,27.3c0,0.9,0.2,1.6,0.5,2.1
		c0.3,0.5,0.8,0.7,1.5,0.7c0.6,0,1.1-0.2,1.4-0.7c0.3-0.5,0.5-1.2,0.5-2.3c0-0.9-0.2-1.6-0.5-2.1s-0.8-0.7-1.5-0.7
		c-0.6,0-1.1,0.2-1.4,0.7C169.3,25.6,169.2,26.3,169.2,27.3z"/>
	<path class="st1" d="M182.3,29.4c0-0.3-0.2-0.6-0.5-0.7s-0.8-0.3-1.5-0.5c-2.3-0.5-3.4-1.4-3.4-2.9c0-0.8,0.3-1.5,1-2.1
		c0.7-0.6,1.6-0.8,2.7-0.8c1.2,0,2.2,0.3,2.9,0.9s1.1,1.3,1.1,2.2h-2.5c0-0.4-0.1-0.7-0.4-0.9c-0.2-0.2-0.6-0.4-1.1-0.4
		c-0.4,0-0.8,0.1-1,0.3s-0.4,0.4-0.4,0.7c0,0.3,0.1,0.5,0.4,0.7c0.3,0.2,0.7,0.3,1.3,0.4s1.2,0.3,1.6,0.4c1.3,0.5,2,1.3,2,2.6
		c0,0.9-0.4,1.6-1.1,2.1c-0.7,0.5-1.7,0.8-2.9,0.8c-0.8,0-1.5-0.1-2.1-0.4c-0.6-0.3-1.1-0.7-1.5-1.2c-0.4-0.5-0.5-1-0.5-1.6h2.4
		c0,0.5,0.2,0.8,0.5,1s0.7,0.4,1.2,0.4c0.5,0,0.9-0.1,1.1-0.3C182.2,29.9,182.3,29.7,182.3,29.4z"/>
</g>
<g id="Grupo_93673" transform="translate(936.456 1061.205)">
	<path id="Trazado_210366" class="st5" d="M-840.7-1000.8c30.4-1.8,62.3,7.4,57.6,20.7c-4.7,13.3,25-4.7,36.9,0.1
		c8.4,3.4,5.1,13.8,9.2,18c9.4,9.6,19-2.5,30.9,4.8s7,75,2.1,74.9l-183.9-0.3l-2.2,0.1c0,0-13.5-19.5-1.3-30.8s3.8-16.6,2.3-20.9
		c-1.7-5-5.7-13.8,11.6-20.3c17.3-6.5,12.9-20.5,12.4-23.4S-871.1-999-840.7-1000.8z"/>
	<rect id="Rectángulo_39749" x="-747" y="-990.5" class="st6" width="13.9" height="107.8"/>
	<rect id="Rectángulo_39750" x="-766.4" y="-957.6" class="st6" width="13.9" height="74.9"/>
	<rect id="Rectángulo_39751" x="-727.2" y="-967.2" class="st6" width="13.9" height="84.5"/>
	<rect id="Rectángulo_39752" x="-785.9" y="-970.5" class="st6" width="13.9" height="87.8"/>
	<rect id="Rectángulo_39753" x="-805.3" y="-944.5" class="st6" width="13.9" height="61.8"/>
	<g id="Grupo_93640" transform="translate(214.743 181.324)">
		<rect id="Rectángulo_39754" x="-961.7" y="-1147" class="st7" width="13.9" height="83"/>
		<rect id="Rectángulo_39755" x="-981.2" y="-1121.7" class="st7" width="13.9" height="57.7"/>
		<rect id="Rectángulo_39756" x="-942" y="-1129" class="st7" width="13.9" height="65"/>
		<rect id="Rectángulo_39757" x="-1000.6" y="-1131.6" class="st7" width="13.9" height="67.6"/>
		<rect id="Rectángulo_39758" x="-1020.1" y="-1111.5" class="st7" width="13.9" height="47.5"/>
	</g>
	<path id="Trazado_210367" class="st8" d="M-706.5-989.7l-11.1,8.4l4.2,0.3l-26.5,46.6l-14.7-22l-20.8,48.4l-13.4-19l-16.6,23.5
		l1,4.2l15.6-21.9l14.1,20l20.7-48.2l14.2,21.3l29.3-51.6l2.7,2.9L-706.5-989.7z"/>
	<g id="Grupo_93642" transform="translate(140.704 184.765)">
		<path id="Trazado_210368" class="st9" d="M-958.7-1098.6c-16.4-13.2-29.8-29.7-39.5-48.4l-21.9,17.6
			c11.7,22.3,27.2,41.3,45.6,55.9L-958.7-1098.6z"/>
		<path id="Trazado_210369" class="st10" d="M-1001.6-1142.4l-13.6,11.1c1.1,2,0.7,4.5-0.9,6.1c9.9,17.7,22.9,33.6,38.2,46.9
			c1-1.6,3.2-2.2,4.8-1.2c0.1,0.1,0.3,0.2,0.4,0.3l9.9-15.6c-1.5-1.5-1.8-3.9-0.5-5.6c-13.5-11.7-24.9-25.6-33.6-41.2
			c-1.2,1.1-3.1,1.1-4.2-0.1C-1001.3-1141.8-1001.5-1142.1-1001.6-1142.4z"/>
		<g id="Grupo_93641" transform="translate(21.4 28.517)">
			<path id="Trazado_210370" class="st11" d="M-1004.7-1129.3c3.4-4.4,3.4-10.9,0.2-14.7s-8.7-4-12.5-0.1
				c-3.9,4.2-4.1,10.7-0.5,15.2C-1014-1124.6-1008.1-1124.9-1004.7-1129.3z"/>
			<path id="Trazado_210371" class="st9" d="M-1004.9-1141.7l-1.3,1.4c1,1.6,0.9,3.6-0.3,5.1c-1.1,1.3-2.4,1.4-4.3,0.3
				c-1.4-0.8-2-1-2.5-0.6c-0.4,0.4-0.5,1.1,0.3,2c0.3,0.4,0.7,0.8,1.2,1.1c0.5,0.4,0.6,1.1,0.3,1.6l0,0c-0.2,0.5-0.7,0.7-1.2,0.5
				c-0.1,0-0.1-0.1-0.2-0.1c-0.5-0.3-0.9-0.7-1.2-1.2l-1.1,1.2c-0.4-0.5-0.8-1-1.2-1.5l1.2-1.3c-1-1.6-0.8-3.6,0.4-5
				c1.3-1.3,2.7-0.9,4.4,0.1c1.2,0.7,1.8,0.8,2.3,0.3c0.5-0.6,0.3-1.4-0.3-2.2c-0.4-0.5-0.9-0.9-1.4-1.3c-0.5-0.4-0.6-1.1-0.3-1.6
				l0-0.1c0.2-0.5,0.8-0.7,1.2-0.4c0,0,0,0,0.1,0c0.6,0.4,1.1,0.9,1.6,1.4l1.2-1.3C-1005.6-1142.6-1005.3-1142.2-1004.9-1141.7z"/>
			<path id="Trazado_210372" class="st11" d="M-992.1-1118c-3.6-3.1-7.1-6.4-10.5-9.9l-1.7,2.2c3.4,3.5,6.9,6.9,10.6,10L-992.1-1118
				z"/>
		</g>
	</g>
	<g id="Grupo_93644" transform="translate(130.596 208.28)">
		<path id="Trazado_210373" class="st9" d="M-951.9-1127.3c-20.4-2.7-40.1-9.4-57.8-19.7l-10.4,24.3c20.6,12,43.3,19.7,66.9,22.8
			L-951.9-1127.3z"/>
		<path id="Trazado_210374" class="st10" d="M-1010.4-1141.7l-6.4,15.2c1.9,1,2.8,3.2,2.2,5.3c17.5,9.5,36.4,15.9,56.1,19.1
			c0.2-1.9,1.9-3.3,3.8-3.2c0.1,0,0.2,0,0.3,0l1-17.1c-2-0.4-3.4-2.2-3.2-4.2c-17.2-2.8-33.9-8.5-49.2-16.8
			c-0.6,1.6-2.3,2.4-3.9,1.9C-1010.1-1141.5-1010.2-1141.6-1010.4-1141.7z"/>
		<g id="Grupo_93643" transform="translate(27.596 17.419)">
			<path id="Trazado_210375" class="st11" d="M-1001.8-1134.8c0.7-5.1-2.2-10-7.1-11.8c-4.4-1.5-9.2,0.8-10.7,5.1
				c-0.1,0.2-0.1,0.4-0.2,0.7c-1.4,4.9,1.7,10.6,7,12.3S-1002.6-1129.7-1001.8-1134.8z"/>
			<path id="Trazado_210376" class="st9" d="M-1008.1-1144.5l-0.4,1.7c1.6,0.7,2.5,2.4,2.2,4.2c-0.3,1.5-1.4,2.2-3.6,2.2
				c-1.6,0-2.3,0.2-2.4,0.7c-0.1,0.5,0.1,1.1,1.2,1.5c0.5,0.2,1,0.3,1.6,0.3c0.6,0,1.1,0.5,1.1,1.1l0,0c0,0.5-0.3,0.9-0.8,1
				c0,0-0.1,0-0.1,0c-0.6,0-1.1-0.2-1.6-0.3l-0.4,1.5c-0.6-0.2-1.1-0.4-1.7-0.6l0.4-1.6c-1.8-1-2.5-2.6-2.1-4.1c0.4-1.6,1.9-2,3.8-2
				c1.3,0,2-0.2,2.1-0.8c0.2-0.7-0.4-1.3-1.3-1.6c-0.6-0.2-1.2-0.3-1.9-0.3c-0.6,0-1.1-0.5-1-1.1c0,0,0,0,0-0.1
				c0-0.5,0.4-0.9,0.9-0.9c0,0,0,0,0.1,0c0.7,0,1.4,0.2,2,0.4l0.4-1.6C-1009.1-1144.9-1008.6-1144.7-1008.1-1144.5z"/>
		</g>
	</g>
	<path id="Trazado_210377" class="st12" d="M-830.5-959.4c-0.5-0.2-1-0.3-1.4-0.6c-0.5-0.3-1.1-0.5-1.6-0.6
		c-1.2-0.2-2.4,0.1-3.3,0.9c-1.1,1.1-2.9,0.2-2.6,6.2c0.4,6.8,4.2,6.1,4.3,5.9s3.4-4.4,3.4-4.4s1.2,2.5,1.2,2.4
		S-824.6-957.4-830.5-959.4z"/>
	<g id="Grupo_93646" transform="translate(142.437 232.507)">
		<path id="Trazado_210378" class="st9" d="M-968.9-1147c-16.3,6.3-33.7,9.2-51.2,8.4l3.6,23.1c20.2,0.9,40.4-2.4,59.2-9.7
			L-968.9-1147z"/>
		<path id="Trazado_210379" class="st10" d="M-1018.2-1134.2l2.4,14.4c1.9,0,3.5,1.4,4,3.2c16.9,0.2,33.7-2.5,49.6-8.1
			c-0.8-1.4-0.2-3.2,1.2-3.9c0.1-0.1,0.3-0.1,0.4-0.2l-7.1-13.6c-1.7,0.5-3.5-0.3-4.3-2c-14,4.9-28.8,7.3-43.6,7.1
			c0.3,1.3-0.5,2.7-1.8,3C-1017.7-1134.2-1017.9-1134.2-1018.2-1134.2z"/>
		<g id="Grupo_93645" transform="translate(23.327 10.47)">
			<path id="Trazado_210380" class="st11" d="M-1003.9-1140.7c-1.8-4.3-6.4-6.9-10.6-6.2s-6.5,4.6-5.3,9c1.5,4.5,6,7.4,10.7,6.7
				c3.6-0.5,6.2-3.8,5.7-7.5C-1003.4-1139.4-1003.6-1140-1003.9-1140.7z"/>
			<path id="Trazado_210381" class="st9" d="M-1013-1145.7l0.5,1.5c1.6-0.1,3,0.9,3.5,2.3c0.5,1.3,0,2.3-1.6,3.2
				c-1.1,0.7-1.6,1.1-1.4,1.5c0.1,0.4,0.6,0.8,1.6,0.6c0.4-0.1,0.9-0.2,1.3-0.4c0.5-0.2,1,0,1.3,0.4l0,0c0.3,0.3,0.2,0.8-0.2,1.1
				c0,0-0.1,0.1-0.1,0.1c-0.4,0.2-0.9,0.3-1.3,0.4l0.4,1.3c-0.5,0.1-1,0.2-1.5,0.2l-0.4-1.4c-1.5,0.1-2.9-0.9-3.4-2.3
				c-0.4-1.4,0.5-2.3,1.9-3.1c1-0.5,1.4-1,1.2-1.5c-0.2-0.6-0.9-0.8-1.7-0.7c-0.5,0.1-1,0.2-1.5,0.5c-0.5,0.2-1,0-1.3-0.5l0-0.1
				c-0.2-0.3-0.2-0.8,0.2-1.1c0,0,0,0,0.1,0c0.5-0.3,1.1-0.4,1.7-0.6l-0.4-1.4C-1013.9-1145.5-1013.5-1145.6-1013-1145.7z"/>
			<path id="Trazado_210382" class="st11" d="M-990.6-1145c-3.7,1.3-7.6,2.5-11.5,3.5l0.9,2.2c3.9-1,7.8-2.2,11.6-3.5L-990.6-1145z"
				/>
		</g>
	</g>
	<g id="Grupo_93648" transform="translate(167.66 256.174)">
		<path id="Trazado_210383" class="st13" d="M-1020.1-1145.3v5.6c0,0.9,10.2,1.7,22.7,1.7s22.7-0.7,22.7-1.7v-5.6H-1020.1z"/>
		<g id="Grupo_93647" transform="translate(0 1.71)">
			<path id="Trazado_210384" class="st14" d="M-1003.7-1139.8v-7.2h-16.4v5.6C-1020.1-1140.6-1013.1-1140-1003.7-1139.8z"/>
			<path id="Trazado_210385" class="st14" d="M-1002.9-1139.8c1.8,0,3.6,0,5.5,0c2.8,0,5.5,0,8-0.1v-7.2h-13.5V-1139.8z"/>
			<path id="Trazado_210386" class="st14" d="M-988.4-1139.8c8.1-0.3,13.8-0.8,13.8-1.5v-5.6h-13.8V-1139.8z"/>
		</g>
		<ellipse id="Elipse_5282" class="st13" cx="-997.4" cy="-1145.3" rx="22.7" ry="1.6"/>
		<path id="Trazado_210387" class="st15" d="M-978.7-1145.3c0,0.6-8.4,1.1-18.7,1.1s-18.7-0.5-18.7-1.1s8.4-1.1,18.7-1.1
			S-978.7-1146-978.7-1145.3z"/>
	</g>
	<g id="Grupo_93650" transform="translate(163.775 250.21)">
		<path id="Trazado_210388" class="st13" d="M-1020.1-1145.3v5.6c0,0.9,10.2,1.7,22.7,1.7s22.7-0.7,22.7-1.7v-5.6H-1020.1z"/>
		<g id="Grupo_93649" transform="translate(0 1.71)">
			<path id="Trazado_210389" class="st14" d="M-1003.7-1139.8v-7.2h-16.4v5.6C-1020.1-1140.6-1013.1-1140-1003.7-1139.8z"/>
			<path id="Trazado_210390" class="st14" d="M-1002.9-1139.8c1.8,0,3.6,0,5.5,0c2.8,0,5.5,0,8-0.1v-7.2h-13.5L-1002.9-1139.8z"/>
			<path id="Trazado_210391" class="st14" d="M-988.4-1139.8c8.1-0.3,13.8-0.8,13.8-1.5v-5.6h-13.8V-1139.8z"/>
		</g>
		<ellipse id="Elipse_5283" class="st13" cx="-997.4" cy="-1145.3" rx="22.7" ry="1.6"/>
		<path id="Trazado_210392" class="st15" d="M-978.7-1145.4c0,0.6-8.4,1.1-18.7,1.1s-18.7-0.5-18.7-1.1s8.4-1.1,18.7-1.1
			S-978.7-1146-978.7-1145.4z"/>
	</g>
	<g id="Grupo_93652" transform="translate(166.363 244.086)">
		<path id="Trazado_210393" class="st13" d="M-1020.1-1145.3v5.6c0,0.9,10.2,1.7,22.7,1.7s22.7-0.7,22.7-1.7v-5.6H-1020.1z"/>
		<g id="Grupo_93651" transform="translate(0 1.71)">
			<path id="Trazado_210394" class="st14" d="M-1003.7-1139.8v-7.2h-16.4v5.6C-1020.1-1140.6-1013.1-1140-1003.7-1139.8z"/>
			<path id="Trazado_210395" class="st14" d="M-1002.9-1139.8c1.8,0,3.6,0,5.5,0c2.8,0,5.5,0,8-0.1v-7.2h-13.5L-1002.9-1139.8z"/>
			<path id="Trazado_210396" class="st14" d="M-988.4-1139.8c8.1-0.3,13.8-0.8,13.8-1.5v-5.6h-13.8V-1139.8z"/>
		</g>
		<ellipse id="Elipse_5284" class="st13" cx="-997.4" cy="-1145.3" rx="22.7" ry="1.6"/>
		<path id="Trazado_210397" class="st15" d="M-978.7-1145.4c0,0.6-8.4,1.1-18.7,1.1s-18.7-0.5-18.7-1.1s8.4-1.1,18.7-1.1
			S-978.7-1146-978.7-1145.4z"/>
	</g>
	<g id="Grupo_93654" transform="translate(163.775 238.046)">
		<path id="Trazado_210398" class="st13" d="M-1020.1-1145.3v5.6c0,0.9,10.2,1.7,22.7,1.7s22.7-0.7,22.7-1.7v-5.6H-1020.1z"/>
		<g id="Grupo_93653" transform="translate(0 1.71)">
			<path id="Trazado_210399" class="st14" d="M-1003.7-1139.8v-7.2h-16.4v5.6C-1020.1-1140.6-1013.1-1140-1003.7-1139.8z"/>
			<path id="Trazado_210400" class="st14" d="M-1002.9-1139.8c1.8,0,3.6,0,5.5,0c2.8,0,5.5,0,8-0.1v-7.2h-13.5L-1002.9-1139.8z"/>
			<path id="Trazado_210401" class="st14" d="M-988.4-1139.8c8.1-0.3,13.8-0.8,13.8-1.5v-5.6h-13.8V-1139.8z"/>
		</g>
		<ellipse id="Elipse_5285" class="st13" cx="-997.4" cy="-1145.3" rx="22.7" ry="1.6"/>
		<path id="Trazado_210402" class="st15" d="M-978.7-1145.4c0,0.6-8.4,1.1-18.7,1.1s-18.7-0.5-18.7-1.1s8.4-1.1,18.7-1.1
			S-978.7-1146-978.7-1145.4z"/>
	</g>
	<g id="Grupo_93656" transform="translate(279.084 255.758)">
		<path id="Trazado_210403" class="st13" d="M-976.4-1145.4v5.4c0,0.9-9.8,1.6-21.8,1.6s-21.8-0.7-21.8-1.6v-5.4H-976.4z"/>
		<g id="Grupo_93655" transform="translate(0 1.644)">
			<path id="Trazado_210404" class="st14" d="M-992.2-1140.1v-6.9h15.8v5.4C-976.4-1140.9-983.1-1140.2-992.2-1140.1z"/>
			<path id="Trazado_210405" class="st14" d="M-993-1140c-1.7,0-3.5,0-5.3,0c-2.7,0-5.3,0-7.7-0.1v-6.9h13L-993-1140z"/>
			<path id="Trazado_210406" class="st14" d="M-1006.9-1140.1c-7.8-0.2-13.2-0.8-13.2-1.5v-5.4h13.2V-1140.1z"/>
		</g>
		<ellipse id="Elipse_5286" class="st13" cx="-998.3" cy="-1145.4" rx="21.8" ry="1.6"/>
		<path id="Trazado_210407" class="st15" d="M-1016.2-1145.4c0,0.6,8.1,1.1,18,1.1s18-0.5,18-1.1s-8.1-1.1-18-1.1
			S-1016.2-1146-1016.2-1145.4z"/>
	</g>
	<g id="Grupo_93658" transform="translate(282.82 250.022)">
		<path id="Trazado_210408" class="st13" d="M-976.4-1145.4v5.4c0,0.9-9.8,1.6-21.8,1.6s-21.8-0.7-21.8-1.6v-5.4H-976.4z"/>
		<g id="Grupo_93657" transform="translate(0 1.644)">
			<path id="Trazado_210409" class="st14" d="M-992.2-1140.1v-6.9h15.8v5.4C-976.4-1140.9-983.1-1140.2-992.2-1140.1z"/>
			<path id="Trazado_210410" class="st14" d="M-993-1140c-1.7,0-3.5,0-5.3,0c-2.7,0-5.3,0-7.7-0.1v-6.9h13L-993-1140z"/>
			<path id="Trazado_210411" class="st14" d="M-1006.9-1140.1c-7.8-0.2-13.2-0.8-13.2-1.5v-5.4h13.2V-1140.1z"/>
		</g>
		<ellipse id="Elipse_5287" class="st13" cx="-998.3" cy="-1145.4" rx="21.8" ry="1.6"/>
		<ellipse id="Elipse_5288" class="st15" cx="-998.3" cy="-1145.4" rx="18" ry="1.1"/>
	</g>
	<g id="Grupo_93660" transform="translate(280.331 244.133)">
		<path id="Trazado_210412" class="st13" d="M-976.4-1145.4v5.4c0,0.9-9.8,1.6-21.8,1.6s-21.8-0.7-21.8-1.6v-5.4H-976.4z"/>
		<g id="Grupo_93659" transform="translate(0 1.644)">
			<path id="Trazado_210413" class="st14" d="M-992.2-1140.1v-6.9h15.8v5.4C-976.4-1140.9-983.1-1140.2-992.2-1140.1z"/>
			<path id="Trazado_210414" class="st14" d="M-993-1140c-1.7,0-3.5,0-5.3,0c-2.7,0-5.3,0-7.7-0.1v-6.9h13L-993-1140z"/>
			<path id="Trazado_210415" class="st14" d="M-1006.9-1140.1c-7.8-0.2-13.2-0.8-13.2-1.5v-5.4h13.2V-1140.1z"/>
		</g>
		<ellipse id="Elipse_5289" class="st13" cx="-998.3" cy="-1145.4" rx="21.8" ry="1.6"/>
		<ellipse id="Elipse_5290" class="st15" cx="-998.3" cy="-1145.4" rx="18" ry="1.1"/>
	</g>
	<g id="Grupo_93662" transform="translate(282.82 238.325)">
		<path id="Trazado_210416" class="st13" d="M-976.4-1145.4v5.4c0,0.9-9.8,1.6-21.8,1.6s-21.8-0.7-21.8-1.6v-5.4L-976.4-1145.4z"/>
		<g id="Grupo_93661" transform="translate(0 1.644)">
			<path id="Trazado_210417" class="st14" d="M-992.2-1140.1v-6.9h15.8v5.4C-976.4-1140.9-983.1-1140.2-992.2-1140.1z"/>
			<path id="Trazado_210418" class="st14" d="M-993-1140c-1.7,0-3.5,0-5.3,0c-2.7,0-5.3,0-7.7-0.1v-6.9h13L-993-1140z"/>
			<path id="Trazado_210419" class="st14" d="M-1006.9-1140.1c-7.8-0.2-13.2-0.8-13.2-1.5v-5.4h13.2V-1140.1z"/>
		</g>
		<ellipse id="Elipse_5291" class="st13" cx="-998.3" cy="-1145.4" rx="21.8" ry="1.6"/>
		<ellipse id="Elipse_5292" class="st15" cx="-998.3" cy="-1145.4" rx="18" ry="1.1"/>
	</g>
	<g id="Grupo_93664" transform="translate(298.443 222.597)">
		<path id="Trazado_210420" class="st13" d="M-981.9-1136.2l-1.3,4.6c-0.2,0.7-8.6-1-18.8-3.9s-18.3-5.9-18.1-6.6l1.3-4.6
			L-981.9-1136.2z"/>
		<g id="Grupo_93663" transform="translate(0 0.217)">
			<path id="Trazado_210421" class="st14" d="M-996.9-1134.4l1.7-5.9l13.4,3.8l-1.3,4.6C-983.4-1131.2-989.2-1132.3-996.9-1134.4z"
				/>
			<path id="Trazado_210422" class="st14" d="M-997.5-1134.6c-1.4-0.4-2.9-0.8-4.5-1.2c-2.3-0.7-4.5-1.3-6.5-2l1.7-5.8l11,3.2
				L-997.5-1134.6z"/>
			<path id="Trazado_210423" class="st14" d="M-1009.3-1138c-6.5-2.1-11-3.9-10.8-4.4l1.3-4.6l11.2,3.2L-1009.3-1138z"/>
		</g>
		<path id="Trazado_210424" class="st13" d="M-1018.8-1146.8c-0.2,0.7,7.9,3.7,18.1,6.6s18.6,4.7,18.8,3.9s-7.9-3.7-18.1-6.6
			S-1018.5-1147.6-1018.8-1146.8z"/>
		<path id="Trazado_210425" class="st15" d="M-1015.5-1145.9c-0.1,0.5,6.5,2.9,14.9,5.3s15.3,3.9,15.5,3.4s-6.5-2.9-14.9-5.3
			S-1015.4-1146.4-1015.5-1145.9z"/>
	</g>
	<g id="Grupo_93666" transform="translate(288.011 201.659)">
		<path id="Trazado_210426" class="st13" d="M-983.4-1146.8l1.4,4.6c0.2,0.7-7.8,3.9-17.9,7c-10.1,3.1-18.5,5-18.8,4.3l-1.4-4.6
			L-983.4-1146.8z"/>
		<g id="Grupo_93665" transform="translate(0.019 0.205)">
			<path id="Trazado_210427" class="st14" d="M-994.9-1137.1l-1.8-5.8l13.3-4.1l1.4,4.6C-981.8-1141.8-987.3-1139.6-994.9-1137.1z"
				/>
			<path id="Trazado_210428" class="st14" d="M-995.5-1136.9c-1.4,0.5-2.9,0.9-4.4,1.4c-2.3,0.7-4.5,1.3-6.5,1.9l-1.8-5.8l10.9-3.4
				L-995.5-1136.9z"/>
			<path id="Trazado_210429" class="st14" d="M-1007.2-1133.4c-6.6,1.8-11.3,2.7-11.5,2.2l-1.4-4.6l11.1-3.4L-1007.2-1133.4z"/>
		</g>
		<path id="Trazado_210430" class="st13" d="M-1020.1-1135.6c0.2,0.7,8.6-1.2,18.8-4.3s18.2-6.2,17.9-7s-8.6,1.2-18.8,4.3
			S-1020.3-1136.3-1020.1-1135.6z"/>
		<path id="Trazado_210431" class="st15" d="M-1016.8-1136.6c0.2,0.5,7-1.2,15.4-3.7s15-5,14.8-5.6s-7,1.2-15.4,3.7
			S-1017-1137.1-1016.8-1136.6z"/>
	</g>
	<path id="Trazado_210432" class="st16" d="M-815.1-888.5c0,0,0.5,2.9,0.5,2.9c0,0.4,0,1.3,0.1,1.6c0.3,1.2,5.5-1.8,4.1-2
		c-0.5-0.4-0.9-0.8-1.2-1.3c-0.3-0.6-0.5-1.2-0.7-1.9L-815.1-888.5z"/>
	<path id="Trazado_210433" class="st17" d="M-810.6-886.1c-0.7,0.2-1.3,0.3-2,0.4c-0.7,0.1-1.5-1-2-0.8c-0.5,0.2-0.8,3.6-0.8,3.6
		s8.5,0.4,10.5-0.2C-804.2-883.4-808-885.1-810.6-886.1z"/>
	<path id="Trazado_210434" class="st16" d="M-803.2-888.6c0,0,0.5,2.9,0.5,2.9c0,0.4,0,1.3,0.1,1.6c0.3,1.2,5.4-1.6,4-1.8
		c-0.4-0.5-0.8-1-1.1-1.5c-0.3-0.6-0.5-1.2-0.7-1.9L-803.2-888.6z"/>
	<path id="Trazado_210435" class="st17" d="M-798.9-886.1c-0.7,0.2-1.3,0.3-2,0.4c-0.7,0.1-1.5-1-2-0.8c-0.5,0.2-0.8,3.6-0.8,3.6
		s8.5,0.4,10.5-0.2C-792.5-883.4-796.3-885.1-798.9-886.1z"/>
	<path id="Trazado_210436" class="st12" d="M-832.7-917.3l15.5-3.6c0,0,6.9-1.8,8.6,0.3s8.8,31.8,8.8,31.8c-1.3,0.1-2.6,0.2-3.9,0.2
		l-8.6-15.2c-0.8-1.4-1.4-3-1.6-4.7l-0.6-4.4l-6.3,1.8c0,0-7.3,1.6-10.2-0.2S-832.7-917.3-832.7-917.3z"/>
	<path id="Trazado_210437" class="st14" d="M-826.8-943.9c0.2,0,0.9,0.2,1.9,2.1c1.2,2.4,3.1,9.5,3.1,9.5l-5.5,2l-0.7-1.5l-1.2-11.4
		C-829.1-943.3-826.8-943.9-826.8-943.9z"/>
	<path id="Trazado_210438" class="st15" d="M-834-944.9c2.4,0.1,4.8,0.4,7.2,1c0,0,1.3,11.3-1.2,19.8c-0.6,1.9,0.5,7.9,0.5,7.9
		l-16.2-0.2c0,0,1.9-14.6,1.2-16.9s-0.7-10.6-0.7-10.6s0.1,0,3.6-0.6C-837.7-944.8-835.8-944.9-834-944.9z"/>
	<path id="Trazado_210439" class="st16" d="M-843.4-942.6c1.5-0.6,2.2,13,2.5,18.6c2.8,0.2,5.7,0.1,8.5-0.1c0.5,0,1.8-0.5,2.3-0.6
		c0.4-0.1,0.9-0.1,1.3-0.1c1.1,0.4,2.1,0.9,3.1,1.4c0.3,0.3,1.1,1.1,1,1.4s-1.5-0.9-1.5-0.9l-0.7-0.4c0.9,0.8,2.5,1.9,2.2,2.3
		s-1.7-0.7-2.7-1.5c0.9,0.8,2,2.3,1.8,2.5c-0.2,0.2-1.5-1.5-2.9-2c-0.5-0.2-1,0.3-1.4,0.4c-0.3,0.1-0.7,0.1-1,0.1l-1.4-0.1
		c-0.4,0-0.8,0.1-1.1,0.2c-0.6,0.1-1.5,0.3-2.3,0.4c-4.3,1-5.7,1.5-7,1.5C-846.7-919.4-846.9-941.3-843.4-942.6z"/>
	<path id="Trazado_210440" class="st14" d="M-846.2-929.9c-0.3-5.7-0.2-12.8,3-14c1.3-0.5,3.5,2.4,3.1,14.1
		C-842.2-929.5-844.2-929.6-846.2-929.9z"/>
	<path id="Trazado_210441" class="st17" d="M-810.4-933.4l-15.2,1c-0.4,0-0.7,0.3-0.9,0.7l-3.9,11.7l-8.4,0.5
		c-0.2,0-0.4,0.2-0.4,0.5c0,0,0,0,0,0l0,0c0,0.2,0.2,0.4,0.4,0.4c0,0,0,0,0,0l23.9-1.6c0.7,0,1.2-0.5,1.5-1.1l4-10.8
		c0.2-0.5-0.1-1.1-0.6-1.3C-810.1-933.3-810.3-933.4-810.4-933.4z"/>
	<path id="Trazado_210442" class="st1" d="M-818-926.1c-0.1,0.5-0.5,0.8-1,0.7c-0.5-0.1-0.8-0.5-0.7-1c0.1-0.4,0.5-0.7,0.9-0.7
		C-818.3-927-817.9-926.6-818-926.1z"/>
	<path id="Trazado_210443" class="st18" d="M-843.6-916.7l16.8-2.9c0,0,7.3-1.1,9,1s6.5,30,6.5,30c-1.3,0.1-2.6,0.2-3.9,0.2
		c-0.2-0.1-4.6-9.4-6.6-13.6c-0.6-1.3-1.1-2.7-1.3-4.2l-0.6-3.8l-2.1,0.7c-3.7,1.3-7.7,1.7-11.6,1.2c-1.4-0.1-2.8-0.5-4.1-1.1
		C-844.6-911-843.6-916.7-843.6-916.7z"/>
	<path id="Trazado_210444" class="st16" d="M-833.3-947l0.3,2.4c0,0,0.7,3.5-0.2,4.2s-4-4.3-4-4.3l0.3-6.2L-833.3-947z"/>
	<path id="Trazado_210445" class="st17" d="M-837-948.8c0.7,1.8,2.2,3.2,4,3.9l-0.3-2.1l-3.6-3.8L-837-948.8z"/>
	<path id="Trazado_210446" class="st16" d="M-833.5-957.5c1.8-0.3,3.4,0.9,3.7,2.7c0,0.2,0,0.4,0,0.6c0,1-0.1,2.1-0.3,3.1
		c-0.4,2.8-2.4,5.3-3.6,5.1c-2.7-1-4.3-3.8-3.9-6.6C-837.2-955.2-835.6-957.2-833.5-957.5z"/>
	<path id="Trazado_210447" class="st16" d="M-836.7-952.2c-0.2,0.5-0.7,0.7-1.2,0.5c-0.5-0.2-0.7-0.7-0.5-1.2c0.2-0.4,0.6-0.7,1-0.6
		C-836.9-953.4-836.6-952.8-836.7-952.2z"/>
	<path id="Trazado_210448" class="st12" d="M-837.4-953.5c0,0,1.5,0.4,2.1-0.6s2.6-3.1,5.2-2.2s-2.3-2.1-2.5-2.1s-2.7,0-2.7,0
		s-1.9,1.6-2,1.7s-0.6,2.1-0.6,2.1L-837.4-953.5z"/>
	<g id="Grupo_93668" transform="translate(257.961 250.24)">
		<rect id="Rectángulo_39759" x="-1020.1" y="-1147" class="st11" width="38.3" height="13.9"/>
		<g id="Grupo_93667" transform="translate(0 0)">
			<rect id="Rectángulo_39760" x="-1020.1" y="-1145" class="st10" width="38.3" height="1.8"/>
			<rect id="Rectángulo_39761" x="-1020.1" y="-1141.5" class="st10" width="38.3" height="1.8"/>
			<rect id="Rectángulo_39762" x="-1020.1" y="-1138" class="st10" width="38.3" height="1.8"/>
			<rect id="Rectángulo_39763" x="-1020.1" y="-1134.9" class="st10" width="38.3" height="1.8"/>
			<rect id="Rectángulo_39764" x="-1005.9" y="-1147" class="st15" width="8" height="13.9"/>
		</g>
		<rect id="Rectángulo_39765" x="-982.3" y="-1147" class="st9" width="5.8" height="13.9"/>
	</g>
	<rect id="Rectángulo_39766" x="-892.8" y="-883" class="st12" width="211.4" height="1.2"/>
	<path id="Trazado_210449" class="st19" d="M-803-987.6c-0.5-2-2.5-3.3-4.6-2.8c0,0-0.1,0-0.1,0c-1.2-2.5-4.1-3.8-6.7-3
		c-2-3.3-6.2-4.3-9.5-2.3c-1.4,0.8-2.4,2.1-2.9,3.5c-2.3-1.3-5.2-0.4-6.4,1.8c-0.4,0.7-0.6,1.5-0.6,2.3c0,0.2,0,0.3,0,0.5
		L-803-987.6z"/>
	<path id="Trazado_210450" class="st19" d="M-789.1-968.8c-0.4-1.5-1.9-2.5-3.4-2.2c0,0-0.1,0-0.1,0c-0.9-1.9-3.1-2.9-5.1-2.2
		c-1.5-2.5-4.7-3.3-7.2-1.8c-1,0.6-1.8,1.6-2.2,2.7c-1.7-1-3.9-0.3-4.9,1.4c-0.3,0.5-0.5,1.1-0.5,1.7c0,0.1,0,0.2,0,0.3
		L-789.1-968.8z"/>
	<path id="Trazado_210451" class="st19" d="M-853.9-971.4c0.3-1.3,1.7-2.2,3-1.9c0,0,0,0,0.1,0c0.8-1.7,2.7-2.5,4.4-2
		c1.3-2.2,4.1-2.8,6.2-1.5c0.9,0.5,1.6,1.4,1.9,2.3c1.5-0.8,3.4-0.3,4.2,1.2c0.3,0.5,0.4,1,0.4,1.5c0,0.1,0,0.2,0,0.3L-853.9-971.4z
		"/>
	<g id="Grupo_93669" transform="translate(206.333 187.503)">
		<path id="Trazado_210452" class="st11" d="M-1017.3-1143.1l0.3,3.3l1.9-2.2l6.2-5.1l-5.3,1.7c0,0-2.6,1.3-2.7,1.4
			C-1017-1143.6-1017.2-1143.4-1017.3-1143.1z"/>
		<path id="Trazado_210453" class="st10" d="M-1020.1-1144.5l11.2-2.5l-8.4,3.9L-1020.1-1144.5z"/>
		<path id="Trazado_210454" class="st10" d="M-1013-1140.6l-3.4-1.7l7.5-4.7L-1013-1140.6z"/>
	</g>
	<g id="Grupo_93672" transform="translate(202.31 192.792)">
		<g id="Grupo_93670" transform="translate(5.439)">
			<path id="Trazado_210455" class="st9" d="M-1020-1146.5c0.3-0.1,0.6-0.2,0.9-0.2l0-0.2c-0.3,0-0.7,0.1-1,0.3L-1020-1146.5z"/>
		</g>
		<g id="Grupo_93671" transform="translate(0 1.227)">
			<path id="Trazado_210456" class="st9" d="M-1020.1-1128.3c0.4-0.4,0.9-0.8,1.2-1.3l0.2,0.1c-0.4,0.5-0.8,0.9-1.2,1.4
				L-1020.1-1128.3z M-1017.9-1131.1c0.1-0.2,0.2-0.5,0.3-0.8c0.1-0.3,0.2-0.6,0.3-0.9l0.2,0.1c-0.1,0.3-0.2,0.6-0.3,0.9
				c-0.1,0.3-0.2,0.5-0.3,0.8L-1017.9-1131.1z M-1017-1136.4l0.2,0c0,0.6,0,1.2-0.1,1.8l-0.2,0
				C-1017-1135.2-1017-1135.8-1017-1136.4z M-1017.3-1140l0.2,0c0.1,0.7,0.2,1.3,0.2,1.8l-0.2,0
				C-1017.1-1138.7-1017.2-1139.3-1017.3-1140L-1017.3-1140z M-1017.6-1141.8c-0.1-0.6-0.1-1.2-0.1-1.8l0.2,0c0,0.6,0,1.2,0.1,1.8v0
				L-1017.6-1141.8L-1017.6-1141.8z M-1017.3-1145.5c0.2-0.6,0.6-1.1,1-1.5l0.2,0.2c-0.4,0.4-0.8,0.9-1,1.5L-1017.3-1145.5z"/>
		</g>
	</g>
</g>
</svg>
