<svg xmlns="http://www.w3.org/2000/svg" xmlns:xlink="http://www.w3.org/1999/xlink" width="154.057" height="160.347" viewBox="0 0 154.057 160.347">
  <defs>
    <linearGradient id="linear-gradient" x1="9.118" y1="-4.483" x2="9.423" y2="-4.922" gradientUnits="objectBoundingBox">
      <stop offset="0.104" stop-color="#fff"/>
      <stop offset="0.206" stop-color="#fbfbfb"/>
      <stop offset="0.297" stop-color="#f0f0f0"/>
      <stop offset="0.383" stop-color="#dedede"/>
      <stop offset="0.467" stop-color="#c4c4c4"/>
      <stop offset="0.549" stop-color="#a3a3a3"/>
      <stop offset="0.63" stop-color="#7a7a7a"/>
      <stop offset="0.71" stop-color="#4a4a4a"/>
      <stop offset="0.787" stop-color="#141414"/>
      <stop offset="0.813"/>
    </linearGradient>
  </defs>
  <g id="Grupo_97282" data-name="Grupo 97282" transform="translate(-1035.943 -5002.934)">
    <path id="Trazado_212847" data-name="Trazado 212847" d="M182.239,278.282a4.649,4.649,0,0,1-2.088,3.621L114.285,319.93a4.636,4.636,0,0,1-4.181,0L44.239,281.9a4.636,4.636,0,0,1-2.091-3.621V202.227a4.634,4.634,0,0,1,2.091-3.621L110.1,160.579a4.636,4.636,0,0,1,4.181,0l65.865,38.027a4.647,4.647,0,0,1,2.088,3.621Z" transform="translate(993.795 4842.853)" fill="#fff" opacity="0.78" style="mix-blend-mode: screen;isolation: isolate"/>
    <path id="Trazado_212848" data-name="Trazado 212848" d="M179.988,276.738a4.53,4.53,0,0,1-2.036,3.534L113.7,317.366a4.51,4.51,0,0,1-4.077,0L45.368,280.272a4.523,4.523,0,0,1-2.04-3.534v-74.19a4.523,4.523,0,0,1,2.04-3.534l64.253-37.1a4.518,4.518,0,0,1,4.077,0l64.254,37.1a4.53,4.53,0,0,1,2.036,3.534Z" transform="translate(994.33 4843.465)" fill="#472ea6" opacity="0.5"/>
    <g id="Grupo_96846" data-name="Grupo 96846" transform="translate(1135.402 5019.375)">
      <path id="Trazado_212849" data-name="Trazado 212849" d="M132.442,181.516c0,1.741-4.125,3.153-9.213,3.153s-9.211-1.412-9.211-3.153,4.124-3.153,9.211-3.153S132.442,179.774,132.442,181.516Z" transform="translate(-109.041 -168.238)" fill="#003768"/>
      <path id="Unión_11" data-name="Unión 11" d="M22.4,25.677a16.378,16.378,0,0,1-7.264,1.674C6.777,27.351,0,21.23,0,13.677S6.777,0,15.139,0,30.282,6.124,30.282,13.677a12.843,12.843,0,0,1-3.425,8.658l2.12,7.134Z" transform="translate(0 0)" fill="#fff"/>
    </g>
    <path id="Trazado_212855" data-name="Trazado 212855" d="M140.691,194.333c-10.967,0-19.858,7.264-19.858,16.227a14.966,14.966,0,0,0,6.222,11.776l-2.347,9.778,7.539-6.883a23.515,23.515,0,0,0,8.444,1.555c10.97,0,19.86-7.264,19.86-16.226S151.661,194.333,140.691,194.333Z" transform="translate(1029.449 4858.373)" fill="#ff8b0d"/>
    <g id="Grupo_96848" data-name="Grupo 96848" transform="translate(1111.774 5006.206)">
      <path id="Trazado_212856" data-name="Trazado 212856" d="M112.48,162.333c-10.022,0-18.147,6.638-18.147,14.828a13.673,13.673,0,0,0,5.686,10.76l-2.145,8.937,6.889-6.291a21.47,21.47,0,0,0,7.716,1.421c10.024,0,18.148-6.638,18.148-14.828S122.5,162.333,112.48,162.333Z" transform="translate(-94.333 -162.333)" fill="#f74d11"/>
      <g id="Grupo_96847" data-name="Grupo 96847" transform="translate(10.975 8.748)">
        <path id="Trazado_212857" data-name="Trazado 212857" d="M106.712,171.428a1.7,1.7,0,0,0-1.808-1.808,2.839,2.839,0,0,0-2.142,1.081l-.876-.8a4.1,4.1,0,0,1,3.13-1.546,2.885,2.885,0,0,1,3.187,2.982c0,2.44-3,3.429-2.7,6.038h-1.343C103.749,174.466,106.712,173.4,106.712,171.428Zm-1.844,7.51a1.176,1.176,0,0,1,0,2.348,1.177,1.177,0,0,1,0-2.348Z" transform="translate(-101.886 -168.353)" fill="#fff"/>
        <path id="Trazado_212858" data-name="Trazado 212858" d="M109.057,178.868a1.176,1.176,0,1,1-1.117,1.193A1.125,1.125,0,0,1,109.057,178.868Zm-.745-8.61-.036-1.751h1.546l-.036,1.751-.206,7.045h-1.062Z" transform="translate(-99.143 -168.283)" fill="#fff"/>
      </g>
    </g>
    <g id="Grupo_96864" data-name="Grupo 96864" transform="translate(1057.57 5047.358)">
      <g id="Grupo_96853" data-name="Grupo 96853" transform="translate(48.294 3.655)">
        <g id="Grupo_96852" data-name="Grupo 96852" transform="translate(0 0.383)">
          <g id="Grupo_96849" data-name="Grupo 96849">
            <path id="Trazado_212859" data-name="Trazado 212859" d="M91.716,232.379l19.936,9.749L113.5,252.72l-23.231-8.543Z" transform="translate(-90.266 -175.785)" fill="#003768"/>
            <path id="Trazado_212860" data-name="Trazado 212860" d="M130.791,231.629a81.791,81.791,0,0,1-2.569-8.48c-.259-1.542.514-1.155.77-3.982.235-2.579-1.561-8.467-2.463-10.65a2.869,2.869,0,0,1,1.52,1.151c.772-.77-.272-4.153-1.822-7.6-1.635-3.633-8.8-7.441-16.635-8.467a24.251,24.251,0,0,0-5.183-.058,7.867,7.867,0,0,1,3.453,5.586c.58.647,1.444,1.716,2.6,5.653.57,1.97,1.748,8.033,1.748,8.033a31.016,31.016,0,0,0-1.151,5.2c-.077,1.673,2.451,6.225,3.492,8.241,1.325,1.723-1.328,3.521-2.585,3.454-.5-.023-1.577,1.491-.131,3.736a1.2,1.2,0,0,1,.2.766,14.878,14.878,0,0,0,5.888,2.691,3.129,3.129,0,0,1,2.219-.959c1.508-.076,2.77.737,2.819,1.808s-1.128,2-2.633,2.072c-1.481.068-2.717-.712-2.812-1.757a66.62,66.62,0,0,1-6.408-2.47,2.267,2.267,0,0,1-.542.289c-.264.089.575.275.394,1.455-.219,1.439-1.875,1.081-1.771,2.8.089,1.4.328,4.152-1.065,5.025-1.068.671-3.466,1.087-7.482.767-1.691-.139-6.148,1.614-8.014,6.167l16.273,6.943c-.215-6.288,4.849-7.552,5.958-8.007,2.467-1.008,4.627-.256,7.068-.256s2.569-.9,3.211-2.828-.256-3.084-.256-4.242.256-1.537.9-1.925a3.554,3.554,0,0,0,1.287-1.027c.382-.514-.514-1.671-.514-1.671a2.646,2.646,0,0,0,1.027-.9c.256-.516-.773-1.8-.773-2.823s.9-1.032,2.056-1.287S131.307,232.913,130.791,231.629Z" transform="translate(-89.196 -193.432)" fill="#bddbe0"/>
          </g>
          <g id="Grupo_96851" data-name="Grupo 96851" transform="translate(14.304 35.868)">
            <g id="Grupo_96850" data-name="Grupo 96850">
              <path id="Trazado_212861" data-name="Trazado 212861" d="M102.58,218.116a18.871,18.871,0,0,0,11.106,7.061,3.952,3.952,0,0,1,2.791-1.209c1.9-.09,3.483.929,3.547,2.277s-1.42,2.514-3.313,2.605c-1.863.089-3.418-.9-3.535-2.209-2.948-.971-9.62-3.347-13.066-5.907C100.691,220.564,102.58,218.116,102.58,218.116Z" transform="translate(-100.11 -218.116)" fill="#003768"/>
            </g>
          </g>
        </g>
        <path id="Trazado_212862" data-name="Trazado 212862" d="M99.692,193.679c4.625-1.482,11.762.586,15.5,2.092,3.3,1.33,7.377,3.55,8.473,5.962,2.725,5.994,1.816,9.535,1.816,9.535l-2.149-2.633a3.474,3.474,0,0,0-3.3-.818c-7.356,2.725-8.77,7.462-10.444,8.719s-5.285-4.431-5.285-4.431Z" transform="translate(-85.995 -193.169)" fill="#003768"/>
      </g>
      <g id="Grupo_96863" data-name="Grupo 96863">
        <path id="Trazado_212863" data-name="Trazado 212863" d="M99.726,190.673l-6.649.209s-10,18.375-10,19.318-6.911,11.622-4.4,16.335a17.819,17.819,0,0,0,12.878,8.794c5.026.628,16.334,5.968,19.475,6.6s6.6-5.026,4.083-9.737-1.885-.315-5.025-5.654-5.968-11.31-6.91-18.847A155.832,155.832,0,0,0,99.726,190.673Z" transform="translate(-47.471 -190.644)" fill="#bddbe0"/>
        <g id="Grupo_96862" data-name="Grupo 96862">
          <path id="Trazado_212864" data-name="Trazado 212864" d="M116.4,231.435,90.875,253.12,79.25,243.675l19.813-18.2Z" transform="translate(-46.963 -174.874)" opacity="0.4" fill="url(#linear-gradient)" style="mix-blend-mode: multiply;isolation: isolate"/>
          <g id="Grupo_96861" data-name="Grupo 96861">
            <g id="Grupo_96854" data-name="Grupo 96854" transform="translate(0.272 0.211)">
              <path id="Trazado_212865" data-name="Trazado 212865" d="M129.611,231.7c1.315.067,4.095-1.813,2.709-3.617-1.091-2.106-3.735-6.872-3.653-8.621a32.653,32.653,0,0,1,1.2-5.438s-1.232-6.341-1.828-8.4c-1.209-4.121-2.113-5.237-2.72-5.914,0,0-.349-8.265-15.438-8.879-.259-.01-.545-.019-.841-.028-6.107,4.663-6.41,18.253-6.261,24.857a9.524,9.524,0,0,1,8.322,9.283,9.086,9.086,0,0,1-1.564,5.086,16.354,16.354,0,0,0,9.627,6.121,3.427,3.427,0,0,1,2.421-1.048c1.642-.078,3.02.8,3.075,1.975s-1.231,2.178-2.873,2.257c-1.614.077-2.963-.776-3.065-1.914-2.556-.843-8.339-2.9-11.328-5.122a10,10,0,0,1-6.09,2.046c-5.411,0-10.224-4.067-10.224-9.258,0-3.9,2.908-7.391,6.436-8.812.046-15.139,3.31-22.063,5.275-25.318-7.636.651-18.113,2.678-21.989,9.591a50.961,50.961,0,0,0-2.428,6.112c-6.636-7.832-19-3.982-20.817,7.021-1.629,9.852,2.6,13.86,13.418,36.279,3.219,6.665,12.26,15.092,6.633,11.009l32.452,3.755c-.838-1.844-2.572-4.147-2.1-6.87a23.69,23.69,0,0,1,1.407-3.1c2.649-4.762,6.587-6.232,8.4-6.083,4.2.333,6.709-.1,7.828-.8,1.459-.911,1.208-3.791,1.115-5.256-.108-1.793,1.623-1.421,1.853-2.924.19-1.238-.687-1.434-.411-1.526.716-.237,2.087-1.383,1.325-2.555C127.964,233.255,129.088,231.671,129.611,231.7ZM86.324,252.163l-.779,1.417L81.1,258.3c-.02-.183-.429-1.629-.455-1.816-1.988-15.062-6.876-24.376-3.63-30.588.067-.128,1.309-.077,1.376-.2,2.026,11.034,8.884,13.712,9.089,18.009A19.774,19.774,0,0,1,86.324,252.163Z" transform="translate(-57.218 -190.798)" fill="#fff"/>
              <path id="Trazado_212866" data-name="Trazado 212866" d="M96.4,216.127a6.75,6.75,0,1,1-6.744-6.471A6.61,6.61,0,0,1,96.4,216.127Z" transform="translate(-45.574 -182.253)" fill="#003768"/>
            </g>
            <g id="Grupo_96856" data-name="Grupo 96856" transform="translate(50.454 39.336)">
              <g id="Grupo_96855" data-name="Grupo 96855">
                <path id="Trazado_212867" data-name="Trazado 212867" d="M93.894,217.723a16.371,16.371,0,0,0,9.628,6.121,3.424,3.424,0,0,1,2.419-1.049c1.643-.077,3.02.808,3.075,1.975s-1.229,2.178-2.873,2.258c-1.614.077-2.961-.776-3.065-1.914-2.556-.843-8.338-2.9-11.327-5.121C92.256,219.845,93.894,217.723,93.894,217.723Z" transform="translate(-91.752 -217.723)" fill="#003768"/>
              </g>
            </g>
            <g id="Grupo_96860" data-name="Grupo 96860">
              <g id="Grupo_96859" data-name="Grupo 96859">
                <g id="Grupo_96857" data-name="Grupo 96857" transform="translate(45.538)">
                  <path id="Trazado_212868" data-name="Trazado 212868" d="M99.113,210.168c1.088-4.72,3.63-5.718,6.535-7.9a16.819,16.819,0,0,1,5.991-2.813s-.914-8.164-16-8.777c-.259-.01-.543-.019-.84-.028-6.109,4.663-6.554,18.555-6.405,25.158a9.644,9.644,0,0,1,8.071,7.194l1.109-.947A92.142,92.142,0,0,1,99.113,210.168Z" transform="translate(-88.369 -190.653)" fill="#003768"/>
                </g>
                <g id="Grupo_96858" data-name="Grupo 96858" transform="translate(0 0.255)">
                  <path id="Trazado_212869" data-name="Trazado 212869" d="M81.323,256.327c-.022-.183-.033-.353-.058-.541-1.989-15.063-6.494-23.465-3.249-29.674.07-.128.118-.219.185-.346,2.027,11.032,8.886,13.712,9.089,18.01.022.436.212.432.575-.477,1.271-1.726,7.411-8.749,8.2-10.521a9.877,9.877,0,0,1-4.085-8.258,9.706,9.706,0,0,1,6.263-8.714c.047-15.137,3.028-21.707,4.993-24.962-7.9-.272-18.748,2.86-22.625,9.772a29.537,29.537,0,0,0-2.175,4.577c-6.636-7.832-19.251-2.449-21.069,8.555-1.63,9.854,2.6,13.861,13.418,36.279,3.217,6.665,1.732,11.195-3.9,7.109a7.309,7.309,0,0,0,7.8,6.17s7.369-.837,8.392-1.754C84.759,260.047,81.323,256.327,81.323,256.327Z" transform="translate(-57.031 -190.829)" fill="#003768"/>
                </g>
              </g>
            </g>
            <path id="Trazado_212870" data-name="Trazado 212870" d="M69.691,244.218l42.015,16.319-5.359-15.157-26.5-12.439L69.691,244.218Z" transform="translate(-51.295 -171.492)" fill="#d1e6e8"/>
          </g>
        </g>
      </g>
    </g>
    <g id="Grupo_96868" data-name="Grupo 96868" transform="translate(1055.608 5023.847)">
      <g id="Grupo_96867" data-name="Grupo 96867">
        <g id="Grupo_96865" data-name="Grupo 96865">
          <path id="Trazado_212871" data-name="Trazado 212871" d="M55.681,175.131a51.277,51.277,0,0,1,8.509-.658c4.166,0,5.927,2.943,5.927,6.171,0,4.917-6.635,10.106-8.553,11.546h8.553v3.052H55.887v-2.883c2.775-1.876,10.965-7.966,10.965-11.722,0-1.925-1-3.086-3.466-3.086H55.681Z" transform="translate(-55.681 -174.473)" fill="#003768"/>
          <path id="Trazado_212872" data-name="Trazado 212872" d="M73.492,174.665H77.13l-6.888,12.581H76.36v-5.077l.937-2.13h2.31v7.207h2.225v2.534l-2.225.629V195.1H76.36V190.41H66.536l-.952-1.524Z" transform="translate(-51.194 -174.386)" fill="#003768"/>
        </g>
        <g id="Grupo_96866" data-name="Grupo 96866" transform="translate(33.993 0.241)">
          <path id="Trazado_212873" data-name="Trazado 212873" d="M79.074,174.639H81.19v5.687a5.481,5.481,0,0,1,3.272-1.234c2.145,0,2.938,1.539,2.938,3.3v6.578H85.277v-6.6c0-1.056-.523-1.478-1.283-1.478a4.622,4.622,0,0,0-2.8.915v7.165H79.074Z" transform="translate(-79.074 -174.639)" fill="#003768"/>
        </g>
      </g>
    </g>
  </g>
</svg>
