<svg xmlns="http://www.w3.org/2000/svg" width="315" height="223.43" viewBox="0 0 315 223.43">
  <g id="Grupo_97268" data-name="Grupo 97268" transform="translate(-370 -2079.314)">
    <g id="Grupo_94319" data-name="Grupo 94319" transform="translate(370 2107.225)" opacity="0.4">
      <g id="Grupo_94310" data-name="Grupo 94310" transform="translate(86.938 0)">
        <rect id="Rectángulo_39772" data-name="Rectángulo 39772" width="36.031" height="29.71" transform="translate(36.031 29.71) rotate(180)" fill="#c3dafc"/>
        <rect id="Rectángulo_39773" data-name="Rectángulo 39773" width="36.031" height="29.71" transform="translate(54.047 29.71) rotate(180)" fill="#d4e4f8"/>
        <path id="Trazado_210939" data-name="Trazado 210939" d="M1451.305,651.339h5.709l-.5-1.607.5-1.148h-5.709Z" transform="translate(-1451.284 -629.164)" fill="#9dc3f3"/>
        <path id="Trazado_210940" data-name="Trazado 210940" d="M1554.5,576.895h5.709l-.5-1.606.5-1.148H1554.5Z" transform="translate(-1536.486 -567.7)" fill="#e3f0ff"/>
        <path id="Trazado_210941" data-name="Trazado 210941" d="M1527.468,574.14h-5.709l.5,1.607-.5,1.148h5.709Z" transform="translate(-1509.453 -567.7)" fill="#9dc3f3"/>
        <path id="Trazado_210942" data-name="Trazado 210942" d="M1734.107,666.211H1728.4l.5,1.607-.5,1.148h5.709Z" transform="translate(-1680.059 -643.716)" fill="#e3f0ff"/>
        <rect id="Rectángulo_39774" data-name="Rectángulo 39774" width="10.369" height="4.034" transform="translate(41.319 2.014)" fill="#fff"/>
      </g>
      <g id="Grupo_94311" data-name="Grupo 94311" transform="translate(23.307 0)">
        <rect id="Rectángulo_39775" data-name="Rectángulo 39775" width="36.031" height="29.71" transform="translate(36.031 29.71) rotate(180)" fill="#c3dafc"/>
        <rect id="Rectángulo_39776" data-name="Rectángulo 39776" width="36.031" height="29.71" transform="translate(54.047 29.71) rotate(180)" fill="#d4e4f8"/>
        <path id="Trazado_210943" data-name="Trazado 210943" d="M1086.391,651.339h5.709l-.5-1.607.5-1.148h-5.709Z" transform="translate(-1086.37 -629.164)" fill="#9dc3f3"/>
        <path id="Trazado_210944" data-name="Trazado 210944" d="M1189.587,576.895h5.709l-.5-1.606.5-1.148h-5.709Z" transform="translate(-1171.571 -567.7)" fill="#e3f0ff"/>
        <path id="Trazado_210945" data-name="Trazado 210945" d="M1162.553,574.14h-5.71l.5,1.607-.5,1.148h5.71Z" transform="translate(-1144.538 -567.7)" fill="#9dc3f3"/>
        <path id="Trazado_210946" data-name="Trazado 210946" d="M1369.192,666.211h-5.709l.5,1.607-.5,1.148h5.709Z" transform="translate(-1315.144 -643.716)" fill="#e3f0ff"/>
        <rect id="Rectángulo_39777" data-name="Rectángulo 39777" width="10.369" height="4.034" transform="translate(41.319 2.014)" fill="#fff"/>
      </g>
      <g id="Grupo_94318" data-name="Grupo 94318" transform="translate(0 29.71)">
        <rect id="Rectángulo_39778" data-name="Rectángulo 39778" width="13.858" height="165.298" fill="#c3dafc"/>
        <rect id="Rectángulo_39779" data-name="Rectángulo 39779" width="11.52" height="165.298" transform="translate(151.941)" fill="#c3dafc"/>
        <rect id="Rectángulo_39780" data-name="Rectángulo 39780" width="149.602" height="4.302" transform="translate(13.858)" fill="#c3dafc"/>
        <rect id="Rectángulo_39781" data-name="Rectángulo 39781" width="149.602" height="4.302" transform="translate(13.858 78.347)" fill="#c3dafc"/>
        <rect id="Rectángulo_39782" data-name="Rectángulo 39782" width="149.602" height="4.302" transform="translate(13.858 144.057)" fill="#c3dafc"/>
        <g id="Grupo_94312" data-name="Grupo 94312" transform="translate(89.433 47.63)">
          <rect id="Rectángulo_39783" data-name="Rectángulo 39783" width="37.252" height="30.717" transform="translate(37.252 30.717) rotate(180)" fill="#a9c8ed"/>
          <rect id="Rectángulo_39784" data-name="Rectángulo 39784" width="37.252" height="30.717" transform="translate(55.878 30.717) rotate(180)" fill="#d4e4f8"/>
          <path id="Trazado_210947" data-name="Trazado 210947" d="M1465.618,1098.741h5.9l-.52-1.661.52-1.187h-5.9Z" transform="translate(-1465.597 -1075.815)" fill="#9dc3f3"/>
          <path id="Trazado_210948" data-name="Trazado 210948" d="M1572.311,1021.775h5.9l-.52-1.661.52-1.187h-5.9Z" transform="translate(-1553.685 -1012.269)" fill="#e3f0ff"/>
          <path id="Trazado_210949" data-name="Trazado 210949" d="M1544.361,1018.927h-5.9l.52,1.661-.52,1.187h5.9Z" transform="translate(-1525.735 -1012.269)" fill="#9dc3f3"/>
          <path id="Trazado_210950" data-name="Trazado 210950" d="M1758,1114.116h-5.9l.52,1.661-.52,1.187h5.9Z" transform="translate(-1702.121 -1090.86)" fill="#e3f0ff"/>
          <rect id="Rectángulo_39785" data-name="Rectángulo 39785" width="10.72" height="4.17" transform="translate(42.719 2.083)" fill="#fff"/>
        </g>
        <g id="Grupo_94313" data-name="Grupo 94313" transform="translate(41.627 47.63)">
          <rect id="Rectángulo_39786" data-name="Rectángulo 39786" width="37.252" height="30.717" transform="translate(37.252 30.717) rotate(180)" fill="#c3dafc"/>
          <rect id="Rectángulo_39787" data-name="Rectángulo 39787" width="37.252" height="30.717" transform="translate(55.878 30.717) rotate(180)" fill="#d4e4f8"/>
          <path id="Trazado_210951" data-name="Trazado 210951" d="M1191.458,1098.741h5.9l-.52-1.661.52-1.187h-5.9Z" transform="translate(-1191.436 -1075.815)" fill="#9dc3f3"/>
          <path id="Trazado_210952" data-name="Trazado 210952" d="M1298.151,1021.775h5.9l-.52-1.661.52-1.187h-5.9Z" transform="translate(-1279.525 -1012.269)" fill="#e3f0ff"/>
          <path id="Trazado_210953" data-name="Trazado 210953" d="M1270.2,1018.927h-5.9l.52,1.661-.52,1.187h5.9Z" transform="translate(-1251.575 -1012.269)" fill="#9dc3f3"/>
          <path id="Trazado_210954" data-name="Trazado 210954" d="M1483.839,1114.116h-5.9l.52,1.661-.52,1.187h5.9Z" transform="translate(-1427.961 -1090.86)" fill="#e3f0ff"/>
          <path id="Trazado_210955" data-name="Trazado 210955" d="M1483.839,1016.606h-5.9l.52,1.661-.52,1.187h5.9Z" transform="translate(-1427.961 -1010.352)" fill="#e3f0ff"/>
          <rect id="Rectángulo_39788" data-name="Rectángulo 39788" width="17.472" height="6.797" transform="translate(22.388 20.63)" fill="#fff"/>
        </g>
        <g id="Grupo_94314" data-name="Grupo 94314" transform="translate(89.433 117.41)">
          <rect id="Rectángulo_39789" data-name="Rectángulo 39789" width="32.197" height="26.549" transform="translate(32.197 26.549) rotate(180)" fill="#c3dafc"/>
          <rect id="Rectángulo_39790" data-name="Rectángulo 39790" width="32.197" height="26.549" transform="translate(48.296 26.549) rotate(180)" fill="#d4e4f8"/>
          <path id="Trazado_210956" data-name="Trazado 210956" d="M1465.6,1482.9h5.1l-.449-1.436.449-1.026h-5.1Z" transform="translate(-1465.583 -1463.089)" fill="#9dc3f3"/>
          <path id="Trazado_210957" data-name="Trazado 210957" d="M1557.816,1416.383h5.1l-.449-1.436.449-1.026h-5.1Z" transform="translate(-1541.718 -1408.166)" fill="#e3f0ff"/>
          <path id="Trazado_210958" data-name="Trazado 210958" d="M1533.66,1413.921h-5.1l.449,1.436-.449,1.026h5.1Z" transform="translate(-1517.561 -1408.166)" fill="#9dc3f3"/>
          <path id="Trazado_210959" data-name="Trazado 210959" d="M1718.31,1496.194h-5.1l.449,1.436-.449,1.026h5.1Z" transform="translate(-1670.013 -1476.094)" fill="#e3f0ff"/>
          <rect id="Rectángulo_39791" data-name="Rectángulo 39791" width="9.265" height="3.605" transform="translate(36.922 1.8)" fill="#fff"/>
        </g>
        <g id="Grupo_94315" data-name="Grupo 94315" transform="translate(28.283 113.242)">
          <rect id="Rectángulo_39792" data-name="Rectángulo 39792" width="37.252" height="30.717" transform="translate(37.252 30.717) rotate(180)" fill="#c3dafc"/>
          <rect id="Rectángulo_39793" data-name="Rectángulo 39793" width="37.252" height="30.717" transform="translate(55.878 30.717) rotate(180)" fill="#d4e4f8"/>
          <path id="Trazado_210960" data-name="Trazado 210960" d="M1114.935,1475.014h5.9l-.52-1.661.52-1.187h-5.9Z" transform="translate(-1114.913 -1452.087)" fill="#2a4e96"/>
          <path id="Trazado_210961" data-name="Trazado 210961" d="M1221.627,1398.047h5.9l-.52-1.661.52-1.187h-5.9Z" transform="translate(-1203.001 -1388.541)" fill="#618dc1"/>
          <path id="Trazado_210962" data-name="Trazado 210962" d="M1193.677,1395.2h-5.9l.52,1.661-.52,1.187h5.9Z" transform="translate(-1175.052 -1388.541)" fill="#2a4e96"/>
          <path id="Trazado_210963" data-name="Trazado 210963" d="M1407.315,1490.389h-5.9l.52,1.661-.52,1.187h5.9Z" transform="translate(-1351.437 -1467.132)" fill="#618dc1"/>
          <rect id="Rectángulo_39794" data-name="Rectángulo 39794" width="10.72" height="4.17" transform="translate(42.719 2.083)" fill="#fff"/>
        </g>
        <g id="Grupo_94316" data-name="Grupo 94316" transform="translate(38.768 24.007)">
          <rect id="Rectángulo_39795" data-name="Rectángulo 39795" width="28.479" height="23.483" transform="translate(28.479 23.483) rotate(180)" fill="#c3dafc"/>
          <rect id="Rectángulo_39796" data-name="Rectángulo 39796" width="28.479" height="23.483" transform="translate(42.718 23.483) rotate(180)" fill="#d4e4f8"/>
          <path id="Trazado_210964" data-name="Trazado 210964" d="M1175.036,935.477h4.513l-.4-1.27.4-.907h-4.513Z" transform="translate(-1175.02 -917.949)" fill="#9dc3f3"/>
          <path id="Trazado_210965" data-name="Trazado 210965" d="M1256.6,876.636h4.513l-.4-1.27.4-.907H1256.6Z" transform="translate(-1242.362 -869.369)" fill="#e3f0ff"/>
          <path id="Trazado_210966" data-name="Trazado 210966" d="M1235.234,874.459h-4.513l.4,1.27-.4.907h4.513Z" transform="translate(-1220.995 -869.369)" fill="#9dc3f3"/>
          <path id="Trazado_210967" data-name="Trazado 210967" d="M1398.56,947.231h-4.513l.4,1.27-.4.907h4.513Z" transform="translate(-1355.841 -929.452)" fill="#e3f0ff"/>
          <rect id="Rectángulo_39797" data-name="Rectángulo 39797" width="8.195" height="3.188" transform="translate(32.658 1.592)" fill="#fff"/>
        </g>
        <g id="Grupo_94317" data-name="Grupo 94317" transform="translate(89.651 24.007)">
          <rect id="Rectángulo_39798" data-name="Rectángulo 39798" width="28.479" height="23.483" transform="translate(28.479 23.483) rotate(180)" fill="#c3dafc"/>
          <rect id="Rectángulo_39799" data-name="Rectángulo 39799" width="28.479" height="23.483" transform="translate(42.718 23.483) rotate(180)" fill="#d4e4f8"/>
          <path id="Trazado_210968" data-name="Trazado 210968" d="M1466.839,935.477h4.513l-.4-1.27.4-.907h-4.513Z" transform="translate(-1466.822 -917.949)" fill="#9dc3f3"/>
          <path id="Trazado_210969" data-name="Trazado 210969" d="M1548.4,876.636h4.513l-.4-1.27.4-.907H1548.4Z" transform="translate(-1534.165 -869.369)" fill="#e3f0ff"/>
          <path id="Trazado_210970" data-name="Trazado 210970" d="M1527.037,874.459h-4.513l.4,1.27-.4.907h4.513Z" transform="translate(-1512.798 -869.369)" fill="#9dc3f3"/>
          <path id="Trazado_210971" data-name="Trazado 210971" d="M1690.362,947.231h-4.513l.4,1.27-.4.907h4.513Z" transform="translate(-1647.644 -929.452)" fill="#e3f0ff"/>
          <rect id="Rectángulo_39800" data-name="Rectángulo 39800" width="8.195" height="3.188" transform="translate(32.658 1.592)" fill="#fff"/>
        </g>
      </g>
    </g>
    <g id="Grupo_94331" data-name="Grupo 94331" transform="translate(509.561 2094.436)">
      <g id="Grupo_94320" data-name="Grupo 94320" transform="translate(90.626 109.285)">
        <path id="Trazado_210972" data-name="Trazado 210972" d="M2584.723,1143.209l-.709-.208c1.872-6.363-1.525-12.987-7.573-14.767l-15.235-4.483a6.094,6.094,0,0,1-3.926-7.656c3.137-10.662-2.556-21.762-12.691-24.744l.219-.746c10.526,3.1,16.438,14.625,13.18,25.7a5.335,5.335,0,0,0,3.437,6.7l15.235,4.483C2583.1,1129.382,2586.716,1136.435,2584.723,1143.209Z" transform="translate(-2544.588 -1090.604)" fill="#2b478b"/>
      </g>
      <g id="Grupo_94321" data-name="Grupo 94321" transform="translate(89.088 114.514)">
        <path id="Trazado_210973" data-name="Trazado 210973" d="M2575.9,1173.194l-.709-.208c1.872-6.363-1.525-12.987-7.574-14.767l-15.235-4.483a6.094,6.094,0,0,1-3.927-7.655c3.137-10.662-2.556-21.762-12.691-24.745l.219-.746c10.526,3.1,16.439,14.626,13.18,25.7a5.335,5.335,0,0,0,3.438,6.7l15.235,4.483C2574.276,1159.368,2577.893,1166.421,2575.9,1173.194Z" transform="translate(-2535.765 -1120.59)" fill="#2b478b"/>
      </g>
      <g id="Grupo_94322" data-name="Grupo 94322" transform="translate(1.956 89.871)">
        <rect id="Rectángulo_39801" data-name="Rectángulo 39801" width="32.078" height="26.451" transform="translate(16.04)" fill="#ed823a"/>
        <rect id="Rectángulo_39802" data-name="Rectángulo 39802" width="32.078" height="26.451" transform="translate(0.001)" fill="#ff9e55"/>
        <path id="Trazado_210974" data-name="Trazado 210974" d="M2287.851,1080.877h-5.083l.448-1.43-.448-1.022h5.083Z" transform="translate(-2239.752 -1061.134)" fill="#dd732c"/>
        <path id="Trazado_210975" data-name="Trazado 210975" d="M2195.976,1014.6h-5.083l.448-1.43-.448-1.022h5.083Z" transform="translate(-2163.896 -1006.414)" fill="#ffb27d"/>
        <path id="Trazado_210976" data-name="Trazado 210976" d="M2220.043,1012.148h5.083l-.447,1.43.447,1.022h-5.083Z" transform="translate(-2187.964 -1006.414)" fill="#dd732c"/>
        <path id="Trazado_210977" data-name="Trazado 210977" d="M2036.076,1094.117h5.083l-.448,1.43.448,1.022h-5.083Z" transform="translate(-2036.076 -1074.091)" fill="#ffb27d"/>
        <rect id="Rectángulo_39803" data-name="Rectángulo 39803" width="9.231" height="3.591" transform="translate(11.332 5.385) rotate(180)" fill="#fff"/>
      </g>
      <g id="Grupo_94323" data-name="Grupo 94323" transform="translate(29.281 12.719)">
        <path id="Trazado_210978" data-name="Trazado 210978" d="M2214.727,542.037c-4.6,0-9.423-.73-12.1-2.274-4.259-2.457-9.66-1.415-9.715-1.4l-.13-.653c.231-.046,5.7-1.1,10.178,1.481,4.415,2.548,15.385,2.774,20.352,1.083,4.892-1.666,11.389-3.458,14.09-3.458v.666c-2.627,0-9.033,1.774-13.875,3.422A29.4,29.4,0,0,1,2214.727,542.037Z" transform="translate(-2192.783 -536.811)" fill="#2b478b"/>
      </g>
      <rect id="Rectángulo_39804" data-name="Rectángulo 39804" width="2.104" height="13.724" transform="translate(22.682 65.491)" fill="#2b478b"/>
      <rect id="Rectángulo_39805" data-name="Rectángulo 39805" width="2.104" height="13.724" transform="translate(26.847 65.491)" fill="#2b478b"/>
      <g id="Grupo_94324" data-name="Grupo 94324" transform="translate(29.281 11.241)">
        <path id="Trazado_210979" data-name="Trazado 210979" d="M2214.727,533.562c-4.6,0-9.423-.73-12.1-2.274-4.259-2.457-9.66-1.415-9.715-1.4l-.13-.653c.231-.046,5.7-1.1,10.178,1.48,4.415,2.548,15.385,2.774,20.352,1.083,4.892-1.665,11.389-3.458,14.09-3.458V529c-2.627,0-9.033,1.774-13.875,3.422A29.407,29.407,0,0,1,2214.727,533.562Z" transform="translate(-2192.783 -528.336)" fill="#2b478b"/>
      </g>
      <g id="Grupo_94325" data-name="Grupo 94325" transform="translate(89.052 4.729)">
        <path id="Trazado_210980" data-name="Trazado 210980" d="M2542.035,582.944h-.873v-.666h.873a7.345,7.345,0,0,0,7.337-7.337v-75.95a7.345,7.345,0,0,0-7.337-7.337h-6.476v-.666h6.476a8.012,8.012,0,0,1,8,8v75.95A8.012,8.012,0,0,1,2542.035,582.944Z" transform="translate(-2535.558 -490.989)" fill="#2b478b"/>
      </g>
      <g id="Grupo_94326" data-name="Grupo 94326" transform="translate(89.676 8.271)">
        <path id="Trazado_210981" data-name="Trazado 210981" d="M2544.116,593.284v-.666a5.109,5.109,0,0,0,5.1-5.1v-70.6a4.954,4.954,0,0,0-4.949-4.949h-5.133V511.3h5.133a5.621,5.621,0,0,1,5.615,5.615v70.6A5.776,5.776,0,0,1,2544.116,593.284Z" transform="translate(-2539.137 -511.302)" fill="#2b478b"/>
      </g>
      <rect id="Rectángulo_39806" data-name="Rectángulo 39806" width="27.539" height="49.968" rx="13.769" transform="translate(11.754 18.57)" fill="#aec3ff"/>
      <g id="Grupo_94327" data-name="Grupo 94327" transform="translate(16.907 23.284)">
        <circle id="Elipse_5326" data-name="Elipse 5326" cx="2.397" cy="2.397" r="2.397" transform="translate(0)" fill="#dde7fe"/>
        <path id="Trazado_210982" data-name="Trazado 210982" d="M2121.818,795.75a2.4,2.4,0,1,1,2.4,2.4A2.4,2.4,0,0,1,2121.818,795.75Z" transform="translate(-2121.818 -759.185)" fill="#dde7fe"/>
        <path id="Trazado_210983" data-name="Trazado 210983" d="M2193.16,599.795a2.4,2.4,0,1,1,2.4,2.4A2.4,2.4,0,0,1,2193.16,599.795Z" transform="translate(-2180.719 -597.398)" fill="#dde7fe"/>
        <path id="Trazado_210984" data-name="Trazado 210984" d="M2193.16,795.75a2.4,2.4,0,1,1,2.4,2.4A2.4,2.4,0,0,1,2193.16,795.75Z" transform="translate(-2180.719 -759.185)" fill="#dde7fe"/>
      </g>
      <path id="Trazado_210985" data-name="Trazado 210985" d="M2137.795,904.929a3.476,3.476,0,0,1-.314,1.429h-18.822a3.468,3.468,0,0,1-.315-1.429c0-3.118,4.355-5.647,9.725-5.647S2137.795,901.811,2137.795,904.929Z" transform="translate(-2102.043 -823.358)" fill="#ff9e55"/>
      <g id="Grupo_94328" data-name="Grupo 94328" transform="translate(0 80.539)">
        <path id="Trazado_210986" data-name="Trazado 210986" d="M2076.914,933.221V958.8a6.24,6.24,0,0,1-2.7,5.137l-7.8,5.38a1.23,1.23,0,0,1-1.711-.314h0a1.23,1.23,0,0,1,.314-1.71l7.8-5.38a3.782,3.782,0,0,0,1.634-3.112V933.221a5.01,5.01,0,0,0-5.01-5.009h-37.112a5.01,5.01,0,0,0-5.01,5.009v25.433a3.755,3.755,0,0,0,1.778,3.2l8.715,5.449a1.23,1.23,0,0,1,.391,1.694h0a1.23,1.23,0,0,1-1.695.391l-8.716-5.447a6.206,6.206,0,0,1-2.934-5.292V933.221a7.47,7.47,0,0,1,7.47-7.47h37.112A7.47,7.47,0,0,1,2076.914,933.221Z" transform="translate(-2024.861 -925.751)" fill="#2b478b"/>
      </g>
      <rect id="Rectángulo_39807" data-name="Rectángulo 39807" width="51.138" height="1.539" transform="translate(24.779 3.19)" fill="#2b478b"/>
      <rect id="Rectángulo_39808" data-name="Rectángulo 39808" width="51.138" height="1.539" transform="translate(24.779 7.501)" fill="#2b478b"/>
      <path id="Trazado_210987" data-name="Trazado 210987" d="M2137.066,482.44h-15.248v-10.7a7.872,7.872,0,0,1,7.872-7.872h0a7.872,7.872,0,0,1,7.872,7.872v10.2A.5.5,0,0,1,2137.066,482.44Z" transform="translate(-2104.911 -463.87)" fill="#ff9e55"/>
      <path id="Rectángulo_39809" data-name="Rectángulo 39809" d="M10.506,0h0A10.506,10.506,0,0,1,21.012,10.506V141.441a10.506,10.506,0,0,1-10.506,10.506h0A10.506,10.506,0,0,1,0,141.441V10.506A10.506,10.506,0,0,1,10.506,0Z" transform="translate(71.896 0)" fill="#aec3ff"/>
      <circle id="Elipse_5327" data-name="Elipse 5327" cx="1.222" cy="1.222" r="1.222" transform="translate(81.181 6.16)" fill="#2b478b"/>
      <path id="Rectángulo_39810" data-name="Rectángulo 39810" d="M12.634,0h0A12.634,12.634,0,0,1,25.268,12.634V88.721a12.634,12.634,0,0,1-12.634,12.634h0A12.634,12.634,0,0,1,0,88.722V12.634A12.634,12.634,0,0,1,12.634,0Z" transform="translate(69.387 21.409)" fill="#98b5f4"/>
      <path id="Rectángulo_39811" data-name="Rectángulo 39811" d="M8.529,0h9.681a8.528,8.528,0,0,1,8.528,8.528v8.529a0,0,0,0,1,0,0H8.529A8.529,8.529,0,0,1,0,8.529v0A8.529,8.529,0,0,1,8.529,0Z" transform="translate(69.387 142.57)" fill="#98b5f4"/>
      <g id="Grupo_94330" data-name="Grupo 94330" transform="translate(19.98 2.703)">
        <circle id="Elipse_5328" data-name="Elipse 5328" cx="4.654" cy="4.654" r="4.654" transform="translate(0.04 9.346) rotate(-88.699)" fill="#ff9e55"/>
        <g id="Grupo_94329" data-name="Grupo 94329">
          <path id="Trazado_210988" data-name="Trazado 210988" d="M2144.244,488.967a4.8,4.8,0,1,1,4.8-4.8A4.8,4.8,0,0,1,2144.244,488.967Zm0-9.308a4.51,4.51,0,1,0,4.509,4.51A4.514,4.514,0,0,0,2144.244,479.659Z" transform="translate(-2139.445 -479.37)" fill="#2b478b"/>
        </g>
        <circle id="Elipse_5329" data-name="Elipse 5329" cx="2.841" cy="2.841" r="2.841" transform="translate(1.381 6.911) rotate(-76.718)" fill="#ed823a"/>
      </g>
    </g>
    <g id="Grupo_94339" data-name="Grupo 94339" transform="translate(384.913 2225.851)">
      <g id="Grupo_94332" data-name="Grupo 94332" transform="translate(253.069 0)">
        <rect id="Rectángulo_39812" data-name="Rectángulo 39812" width="19.999" height="16.491" transform="translate(25.03 19.151) rotate(155.56)" fill="#c3dafc"/>
        <rect id="Rectángulo_39813" data-name="Rectángulo 39813" width="20" height="16.491" transform="translate(34.134 15.013) rotate(155.56)" fill="#d4e4f8"/>
        <path id="Trazado_210989" data-name="Trazado 210989" d="M2822.658,1278.813l2.886-1.311-.624-.7-.009-.7-2.886,1.311Z" transform="translate(-2811.443 -1265.892)" fill="#618dc1"/>
        <path id="Trazado_210990" data-name="Trazado 210990" d="M2808.365,1283.629l-2.885,1.311.623.7.01.7,2.885-1.311Z" transform="translate(-2797.782 -1272.1)" fill="#2a4e96"/>
        <path id="Trazado_210991" data-name="Trazado 210991" d="M2933.929,1282.7l-2.886,1.311.624.7.01.7,2.885-1.311Z" transform="translate(-2901.45 -1271.333)" fill="#618dc1"/>
        <rect id="Rectángulo_39814" data-name="Rectángulo 39814" width="5.755" height="2.239" transform="matrix(0.91, -0.414, 0.414, 0.91, 21.342, 3.941)" fill="#fff"/>
      </g>
      <path id="Trazado_210992" data-name="Trazado 210992" d="M2824.264,1334.942c-.069.212-.142.425-.212.639q-.928,2.718-2.042,5.518-.155.39-.316.781-1.358,3.335-3,6.791H2794.21l-1.4-13.09-.069-.639-.053-.5-3.485-32.484-.027-.251,1.841-.821,9.129-4.079,9.131-4.079,9.129-4.078,6.782-3.029c.113.319.224.639.331.96.1.289.193.58.285.871C2829.984,1300.473,2830.489,1316.247,2824.264,1334.942Z" transform="translate(-2531.25 -1273.744)" fill="#2b478b"/>
      <path id="Trazado_210993" data-name="Trazado 210993" d="M2837.62,1343.611c-.069.212-.142.425-.213.639h-28.8l-.063-.639-.049-.5-3.146-31.834,1.453-.651,32.355-14.506C2843.338,1309.143,2843.843,1324.917,2837.62,1343.611Z" transform="translate(-2544.605 -1282.413)" fill="#d2e0ff"/>
      <path id="Trazado_210994" data-name="Trazado 210994" d="M1577.6,1412.936H1331.166a16.812,16.812,0,0,1-16.812-16.812h0a16.812,16.812,0,0,1,16.812-16.812H1577.6a16.812,16.812,0,0,1,16.812,16.812h0A16.812,16.812,0,0,1,1577.6,1412.936Z" transform="translate(-1313.599 -1351.099)" fill="#aec3ff"/>
      <path id="Trazado_210995" data-name="Trazado 210995" d="M2635.323,1396.121a16.81,16.81,0,0,1-16.811,16.813h-41.786a1.622,1.622,0,0,1-1.622-1.622v-30.381a1.622,1.622,0,0,1,1.622-1.622h41.786A16.812,16.812,0,0,1,2635.323,1396.121Z" transform="translate(-2354.509 -1351.097)" fill="#c5d7ff"/>
      <path id="Trazado_210996" data-name="Trazado 210996" d="M1678.241,1568.475c-.069.212-.141.424-.212.639q-.927,2.718-2.041,5.518-.155.391-.316.781-1.358,3.335-3,6.79s0,0,0,0l-26.673.012-244.884.113v-13.857Z" transform="translate(-1385.227 -1507.277)" fill="#c5d7ff"/>
      <g id="Grupo_94333" data-name="Grupo 94333" transform="translate(69.108 32.097)">
        <path id="Trazado_210997" data-name="Trazado 210997" d="M1727.013,1412.695l-1.9-.88a.459.459,0,0,1-.264-.4c-.006-.222-.021-.446-.046-.67a7.646,7.646,0,0,0-.226-1.213.457.457,0,0,1,.166-.488l1.737-1.324a.45.45,0,0,0,.107-.6l-1.069-1.687a.444.444,0,0,0-.568-.161l-1.8.886a.447.447,0,0,1-.528-.094,8.055,8.055,0,0,0-2.032-1.532.459.459,0,0,1-.228-.513l.292-1.188a.464.464,0,0,0-.289-.542l-1.864-.673a.358.358,0,0,0-.116-.027.442.442,0,0,0-.448.258l-.66,1.416-.159.347a7.7,7.7,0,0,0-1.129.042,8.045,8.045,0,0,0-1.477.3.447.447,0,0,1-.488-.157l-1.064-1.4a.461.461,0,0,0-.616-.109l-1.29.815-.369.235a.465.465,0,0,0-.17.6l.738,1.51a.444.444,0,0,1-.082.518,8.153,8.153,0,0,0-1.068,1.341,1.336,1.336,0,0,0-.079.121.165.165,0,0,1-.029.04.451.451,0,0,1-.476.166l-1.931-.473c-.021-.005-.044-.008-.065-.012a.463.463,0,0,0-.475.3l-.675,1.858a.463.463,0,0,0,.239.576l1.979.916a.445.445,0,0,1,.26.433,8.223,8.223,0,0,0,.04,1.238c.025.224.058.442.1.658a.471.471,0,0,1-.178.461l-1.671,1.275a.447.447,0,0,0-.107.595l1.06,1.668a.471.471,0,0,0,.6.171l1.427-.7a.461.461,0,0,1,.557.117,8.11,8.11,0,0,0,1.86,1.646.454.454,0,0,1,.2.5l-.427,1.739a.479.479,0,0,0,.3.557l1.852.674a.455.455,0,0,0,.566-.238l.038-.082.766-1.646a.461.461,0,0,1,.455-.266h0a8.211,8.211,0,0,0,1.42-.029c.256-.026.5-.069.755-.119a.455.455,0,0,1,.455.168l1.081,1.422a.47.47,0,0,0,.626.115l1.661-1.054a.51.51,0,0,0,.119-.109.467.467,0,0,0,.05-.482l-.6-1.206a.469.469,0,0,1,.031-.457.582.582,0,0,1,.086-.1,8.009,8.009,0,0,0,1.984-2.477.454.454,0,0,1,.432-.245.359.359,0,0,1,.078.013l1.562.383a.46.46,0,0,0,.542-.287l.015-.044.66-1.81A.468.468,0,0,0,1727.013,1412.695Zm-6.144.6a4.363,4.363,0,0,1-1.167,1.619,2.791,2.791,0,0,1-.339.253,5,5,0,0,1-1.556.651,4.33,4.33,0,0,1-5.214-4.986,5.258,5.258,0,0,1,.257-.966,4.208,4.208,0,0,1,1.443-1.793c.059-.039.121-.075.18-.111A4.371,4.371,0,0,1,1720.869,1413.294Z" transform="translate(-1706.348 -1401.581)" fill="#98b5f4"/>
      </g>
      <g id="Grupo_94334" data-name="Grupo 94334" transform="translate(87.743 43.377)">
        <path id="Trazado_210998" data-name="Trazado 210998" d="M1828.081,1474.266l-1.364-.633a.333.333,0,0,1-.19-.291c0-.161-.015-.32-.032-.482a5.558,5.558,0,0,0-.163-.87.334.334,0,0,1,.118-.352l1.25-.953a.323.323,0,0,0,.078-.432l-.769-1.213a.322.322,0,0,0-.41-.117l-1.3.639a.322.322,0,0,1-.379-.069,5.839,5.839,0,0,0-1.464-1.1.329.329,0,0,1-.162-.367l.21-.855a.336.336,0,0,0-.207-.39l-1.341-.484a.264.264,0,0,0-.084-.019.321.321,0,0,0-.323.186l-.473,1.02-.115.247a6.139,6.139,0,0,0-.813.031,5.86,5.86,0,0,0-1.062.216.32.32,0,0,1-.35-.113l-.766-1.007a.335.335,0,0,0-.444-.08l-.928.587-.264.17a.339.339,0,0,0-.124.433l.532,1.085a.32.32,0,0,1-.058.373,5.839,5.839,0,0,0-.769.964c-.021.029-.038.057-.057.088a.12.12,0,0,1-.019.029.327.327,0,0,1-.343.119l-1.389-.339a.215.215,0,0,0-.048-.01.334.334,0,0,0-.341.216l-.486,1.336a.335.335,0,0,0,.172.415l1.423.658a.327.327,0,0,1,.188.312,5.837,5.837,0,0,0,.029.892c.017.159.04.317.071.472a.335.335,0,0,1-.128.331l-1.2.916a.321.321,0,0,0-.078.428l.763,1.2a.335.335,0,0,0,.433.122l1.029-.5a.329.329,0,0,1,.4.084,5.794,5.794,0,0,0,1.338,1.182.328.328,0,0,1,.143.36l-.306,1.25a.341.341,0,0,0,.214.4l1.332.484a.321.321,0,0,0,.405-.168l.029-.059.551-1.184a.332.332,0,0,1,.328-.191h0a5.751,5.751,0,0,0,1.02-.021c.184-.019.364-.05.543-.085a.325.325,0,0,1,.329.121l.777,1.024a.338.338,0,0,0,.45.08l1.2-.757a.371.371,0,0,0,.084-.079.337.337,0,0,0,.037-.346l-.429-.867a.338.338,0,0,1,.023-.329.308.308,0,0,1,.061-.069,5.767,5.767,0,0,0,1.427-1.783.336.336,0,0,1,.368-.167l1.123.276a.33.33,0,0,0,.389-.207l.011-.031.475-1.3A.336.336,0,0,0,1828.081,1474.266Zm-4.418.431a3.139,3.139,0,0,1-.84,1.163,1.818,1.818,0,0,1-.245.182,3.59,3.59,0,0,1-1.117.469,3.115,3.115,0,0,1-3.75-3.588,3.757,3.757,0,0,1,.184-.695,3.041,3.041,0,0,1,1.037-1.29l.13-.08A3.145,3.145,0,0,1,1823.663,1474.7Z" transform="translate(-1813.217 -1466.272)" fill="#d2e0ff"/>
      </g>
      <g id="Grupo_94335" data-name="Grupo 94335" transform="translate(141.836 32.097)">
        <path id="Trazado_210999" data-name="Trazado 210999" d="M2144.094,1412.695l-1.9-.88a.461.461,0,0,1-.264-.4c-.006-.222-.02-.446-.044-.67a7.716,7.716,0,0,0-.226-1.213.457.457,0,0,1,.165-.488l1.737-1.324a.446.446,0,0,0,.107-.6l-1.068-1.687a.444.444,0,0,0-.568-.161l-1.806.886a.445.445,0,0,1-.526-.094,8.026,8.026,0,0,0-2.034-1.532.462.462,0,0,1-.228-.513l.294-1.188a.466.466,0,0,0-.289-.542l-1.865-.673a.348.348,0,0,0-.115-.027.446.446,0,0,0-.449.258l-.658,1.416-.159.347a7.7,7.7,0,0,0-1.129.042,8.051,8.051,0,0,0-1.477.3.447.447,0,0,1-.488-.157l-1.066-1.4a.459.459,0,0,0-.614-.109l-1.291.815-.367.235a.467.467,0,0,0-.172.6l.74,1.51a.445.445,0,0,1-.082.518,7.947,7.947,0,0,0-1.068,1.341,1.285,1.285,0,0,0-.079.121.236.236,0,0,1-.029.04.452.452,0,0,1-.476.166l-1.93-.473c-.021-.005-.044-.008-.065-.012a.463.463,0,0,0-.474.3l-.676,1.858a.462.462,0,0,0,.24.576l1.979.916a.447.447,0,0,1,.26.433,7.913,7.913,0,0,0,.04,1.238c.023.224.057.442.1.658a.469.469,0,0,1-.176.461l-1.67,1.275a.447.447,0,0,0-.107.595l1.06,1.668a.468.468,0,0,0,.6.171l1.429-.7a.462.462,0,0,1,.557.117,8.08,8.08,0,0,0,1.859,1.646.456.456,0,0,1,.2.5l-.427,1.739a.477.477,0,0,0,.3.557l1.85.674a.454.454,0,0,0,.567-.238l.04-.082.766-1.646a.459.459,0,0,1,.453-.266h0a8.186,8.186,0,0,0,1.418-.029c.257-.026.507-.069.756-.119a.456.456,0,0,1,.457.168l1.081,1.422a.47.47,0,0,0,.626.115l1.661-1.054a.563.563,0,0,0,.118-.109.466.466,0,0,0,.048-.482l-.593-1.206a.468.468,0,0,1,.031-.457.454.454,0,0,1,.086-.1,8.023,8.023,0,0,0,1.984-2.477.453.453,0,0,1,.433-.245.353.353,0,0,1,.077.013l1.563.383a.46.46,0,0,0,.541-.287l.015-.044.66-1.81A.469.469,0,0,0,2144.094,1412.695Zm-6.142.6a4.381,4.381,0,0,1-1.167,1.619,2.85,2.85,0,0,1-.339.253,5.006,5.006,0,0,1-1.558.651,4.33,4.33,0,0,1-5.214-4.986,5.374,5.374,0,0,1,.258-.966,4.214,4.214,0,0,1,1.44-1.793c.061-.039.121-.075.182-.111A4.372,4.372,0,0,1,2137.952,1413.294Z" transform="translate(-2123.429 -1401.581)" fill="#98b5f4"/>
      </g>
      <g id="Grupo_94336" data-name="Grupo 94336" transform="translate(160.471 43.377)">
        <path id="Trazado_211000" data-name="Trazado 211000" d="M2245.163,1474.266l-1.364-.633a.33.33,0,0,1-.189-.291c-.006-.161-.015-.32-.033-.482a5.53,5.53,0,0,0-.162-.87.326.326,0,0,1,.118-.352l1.25-.953a.323.323,0,0,0,.076-.432l-.767-1.213a.322.322,0,0,0-.409-.117l-1.3.639a.323.323,0,0,1-.379-.069,5.839,5.839,0,0,0-1.461-1.1.331.331,0,0,1-.165-.367l.212-.855a.334.334,0,0,0-.208-.39l-1.342-.484a.244.244,0,0,0-.082-.019.321.321,0,0,0-.323.186l-.475,1.02-.114.247a6.115,6.115,0,0,0-.812.031,5.846,5.846,0,0,0-1.062.216.319.319,0,0,1-.35-.113l-.767-1.007a.333.333,0,0,0-.442-.08l-.927.587-.267.17a.337.337,0,0,0-.122.433l.532,1.085a.318.318,0,0,1-.06.373,5.869,5.869,0,0,0-.767.964.8.8,0,0,0-.058.088c-.006.01-.014.02-.019.029a.329.329,0,0,1-.344.119l-1.387-.339a.212.212,0,0,0-.048-.01.333.333,0,0,0-.34.216l-.486,1.336a.332.332,0,0,0,.172.415l1.422.658a.321.321,0,0,1,.187.312,5.933,5.933,0,0,0,.029.892c.018.159.043.317.073.472a.339.339,0,0,1-.129.331l-1.2.916a.322.322,0,0,0-.077.428l.762,1.2a.336.336,0,0,0,.434.122l1.028-.5a.329.329,0,0,1,.4.084,5.816,5.816,0,0,0,1.34,1.182.332.332,0,0,1,.143.36l-.306,1.25a.34.34,0,0,0,.213.4l1.332.484a.324.324,0,0,0,.408-.168l.028-.059.549-1.184a.333.333,0,0,1,.327-.191h0a5.768,5.768,0,0,0,1.021-.021c.184-.019.364-.05.544-.085a.322.322,0,0,1,.327.121l.779,1.024a.338.338,0,0,0,.45.08l1.194-.757a.36.36,0,0,0,.086-.079.339.339,0,0,0,.035-.346l-.427-.867a.336.336,0,0,1,.022-.329.308.308,0,0,1,.063-.069,5.8,5.8,0,0,0,1.427-1.783.321.321,0,0,1,.311-.174.287.287,0,0,1,.055.008l1.125.276a.329.329,0,0,0,.388-.207l.012-.031.473-1.3A.335.335,0,0,0,2245.163,1474.266Zm-4.42.431a3.129,3.129,0,0,1-.838,1.163,2.092,2.092,0,0,1-.245.182,3.6,3.6,0,0,1-1.12.469,3.115,3.115,0,0,1-3.75-3.588,3.98,3.98,0,0,1,.186-.695,3.033,3.033,0,0,1,1.037-1.29l.129-.08A3.145,3.145,0,0,1,2240.742,1474.7Z" transform="translate(-2230.298 -1466.272)" fill="#d2e0ff"/>
      </g>
      <g id="Grupo_94337" data-name="Grupo 94337" transform="translate(100.887 32.929)">
        <path id="Trazado_211001" data-name="Trazado 211001" d="M1909.414,1414.891l-2.059-.364a.461.461,0,0,1-.358-.323c-.063-.214-.136-.427-.216-.637a7.914,7.914,0,0,0-.528-1.114.456.456,0,0,1,.035-.515l1.341-1.724a.45.45,0,0,0-.052-.609l-1.466-1.358a.444.444,0,0,0-.589-.01l-1.519,1.32a.445.445,0,0,1-.532.042,8.075,8.075,0,0,0-2.359-.959.463.463,0,0,1-.351-.438l-.021-1.223a.464.464,0,0,0-.417-.452l-1.976-.174a.433.433,0,0,0-.118,0,.45.45,0,0,0-.368.367l-.274,1.537-.065.375a8.091,8.091,0,0,0-1.081.329,8.314,8.314,0,0,0-1.351.67.447.447,0,0,1-.511-.026l-1.389-1.081a.459.459,0,0,0-.622.052l-1.039,1.12-.3.321a.468.468,0,0,0-.012.625l1.1,1.271a.441.441,0,0,1,.054.52,8.064,8.064,0,0,0-.689,1.571c-.019.046-.031.09-.046.136a.186.186,0,0,1-.015.046.457.457,0,0,1-.419.283l-1.988.038a.237.237,0,0,0-.065.006.466.466,0,0,0-.383.411l-.176,1.969a.46.46,0,0,0,.379.494l2.147.381a.444.444,0,0,1,.361.35,8.132,8.132,0,0,0,.356,1.188c.081.208.168.411.264.61a.472.472,0,0,1-.052.492l-1.29,1.659a.448.448,0,0,0,.05.6l1.452,1.342a.468.468,0,0,0,.625.011l1.2-1.044a.463.463,0,0,1,.568-.031,8.064,8.064,0,0,0,2.219,1.115.456.456,0,0,1,.321.43l.034,1.791a.471.471,0,0,0,.429.459l1.962.178a.455.455,0,0,0,.488-.373l.017-.09.318-1.785a.46.46,0,0,1,.371-.375l0,0a7.975,7.975,0,0,0,1.364-.39c.241-.092.473-.2.7-.308a.453.453,0,0,1,.484.046l1.41,1.1a.469.469,0,0,0,.634-.05l1.335-1.445a.518.518,0,0,0,.086-.136.469.469,0,0,0-.076-.48l-.882-1.012a.464.464,0,0,1-.088-.45.525.525,0,0,1,.059-.115,8.056,8.056,0,0,0,1.284-2.9.447.447,0,0,1,.354-.346.49.49,0,0,1,.078-.01l1.609-.029a.459.459,0,0,0,.448-.417l0-.046.174-1.919A.469.469,0,0,0,1909.414,1414.891Zm-5.784,2.154a4.413,4.413,0,0,1-.714,1.862,3.2,3.2,0,0,1-.264.331,4.957,4.957,0,0,1-1.338,1.027,4.331,4.331,0,0,1-6.318-3.484,5.491,5.491,0,0,1,0-1,4.2,4.2,0,0,1,.936-2.1c.048-.054.1-.1.146-.155A4.372,4.372,0,0,1,1903.629,1417.046Z" transform="translate(-1888.594 -1406.353)" fill="#98b5f4"/>
      </g>
      <path id="Trazado_211002" data-name="Trazado 211002" d="M2837.726,1568.475c-.068.212-.141.424-.212.639q-.927,2.718-2.042,5.518-.154.391-.316.781-1.357,3.335-3,6.79s0,0,0,0l-26.673.012v-13.744Z" transform="translate(-2544.713 -1507.277)" fill="#d2e0ff"/>
      <g id="Grupo_94338" data-name="Grupo 94338" transform="translate(0 27.459)">
        <path id="Trazado_211003" data-name="Trazado 211003" d="M1574.026,1410.117H1327.59a17.567,17.567,0,0,1,0-35.133h246.436a17.567,17.567,0,0,1,0,35.133Zm-246.436-33.625a16.058,16.058,0,1,0,0,32.116h246.436a16.058,16.058,0,0,0,0-32.116Z" transform="translate(-1310.023 -1374.983)" fill="#2b478b"/>
      </g>
    </g>
    <g id="Grupo_94366" data-name="Grupo 94366" transform="translate(370 2079.314)" opacity="0.5">
      <path id="Trazado_211037" data-name="Trazado 211037" d="M1285.127,378.264q1.438.482,2.866,1.006l-6.142-.027h0l-1.617-.006h0l-18.866-.084-1.621-.006h0l-18.868-.084-1.621-.006h0l-18.868-.084-1.621-.006h0l-18.868-.084-1.621-.006h0l-18.868-.084-1.621-.006h0l-18.866-.084-1.621-.006h0l-18.868-.084-1.623-.008h0l-18.866-.082-1.622-.008h0l-18.866-.082-1.622-.008h0l-18.864-.082-1.623-.008h0l-18.866-.082-1.622-.008h0l-18.867-.082-1.623-.008h0l-4.577-.019c.406-.335.815-.666,1.23-.989h0l3.408.013h0l20.487.092h.006l20.485.09h.006l20.483.09h.006l20.485.09h.006l20.485.09h.006l20.485.09h.006l20.483.09h.006l20.485.09h.006l20.485.09h.006l20.485.09h.006l20.485.09h.006l20.485.09Z" transform="translate(-1020.588 -377.149)" fill="#c3dafc"/>
      <path id="Trazado_211038" data-name="Trazado 211038" d="M1261.842,432.986c.467.329.924.664,1.372,1l-286.086-1.255q.379-.5.775-.991l5.916.025,1.623.008,18.868.082,1.621.008,18.868.082h0l1.621.007,18.868.082h0l1.621.008,18.868.082h0l1.621.008h0l18.867.082h0l1.621.008h0l18.865.082h0l1.621.008h0l18.866.082h0l1.621.008h0l18.866.082h0l1.621.008h0l18.866.082h0l1.621.008h0l18.864.082h0l1.621.008h0l18.868.084h0l1.619.006h0l18.868.084h0l1.619.006h0l18.868.084h0l1.619.006h0Z" transform="translate(-977.128 -422.221)" fill="#c3dafc"/>
      <g id="Grupo_94365" data-name="Grupo 94365" transform="translate(2.843 0.014)">
        <g id="Grupo_94351" data-name="Grupo 94351" transform="translate(0 6.404)">
          <path id="Trazado_211039" data-name="Trazado 211039" d="M998.909,417.089l-.471.733-1.156-.743-3.848-2.472q.3-.33.593-.654l4.877,3.134Z" transform="translate(-993.435 -413.953)" fill="#c3dafc"/>
        </g>
        <g id="Grupo_94352" data-name="Grupo 94352" transform="translate(10.505 0)">
          <rect id="Rectángulo_39822" data-name="Rectángulo 39822" width="0.871" height="17.815" transform="matrix(0.541, -0.841, 0.841, 0.541, 0, 0.733)" fill="#c3dafc"/>
        </g>
        <g id="Grupo_94353" data-name="Grupo 94353" transform="translate(30.995 0.09)">
          <rect id="Rectángulo_39823" data-name="Rectángulo 39823" width="0.871" height="17.815" transform="matrix(0.541, -0.841, 0.841, 0.541, 0, 0.733)" fill="#c3dafc"/>
        </g>
        <g id="Grupo_94354" data-name="Grupo 94354" transform="translate(51.486 0.18)">
          <rect id="Rectángulo_39824" data-name="Rectángulo 39824" width="0.871" height="17.815" transform="matrix(0.541, -0.841, 0.841, 0.541, 0, 0.733)" fill="#c3dafc"/>
        </g>
        <g id="Grupo_94355" data-name="Grupo 94355" transform="translate(71.976 0.27)">
          <rect id="Rectángulo_39825" data-name="Rectángulo 39825" width="0.871" height="17.815" transform="translate(0 0.733) rotate(-57.282)" fill="#c3dafc"/>
        </g>
        <g id="Grupo_94356" data-name="Grupo 94356" transform="translate(92.466 0.36)">
          <rect id="Rectángulo_39826" data-name="Rectángulo 39826" width="0.871" height="17.815" transform="matrix(0.541, -0.841, 0.841, 0.541, 0, 0.733)" fill="#c3dafc"/>
        </g>
        <g id="Grupo_94357" data-name="Grupo 94357" transform="translate(112.957 0.45)">
          <rect id="Rectángulo_39827" data-name="Rectángulo 39827" width="0.871" height="17.815" transform="translate(0 0.733) rotate(-57.282)" fill="#c3dafc"/>
        </g>
        <g id="Grupo_94358" data-name="Grupo 94358" transform="translate(133.447 0.54)">
          <rect id="Rectángulo_39828" data-name="Rectángulo 39828" width="0.871" height="17.815" transform="translate(0 0.732) rotate(-57.282)" fill="#c3dafc"/>
        </g>
        <g id="Grupo_94359" data-name="Grupo 94359" transform="translate(153.938 0.63)">
          <rect id="Rectángulo_39829" data-name="Rectángulo 39829" width="0.871" height="17.815" transform="matrix(0.541, -0.841, 0.841, 0.541, 0, 0.733)" fill="#c3dafc"/>
        </g>
        <g id="Grupo_94360" data-name="Grupo 94360" transform="translate(174.428 0.72)">
          <rect id="Rectángulo_39830" data-name="Rectángulo 39830" width="0.871" height="17.815" transform="translate(0 0.732) rotate(-57.281)" fill="#c3dafc"/>
        </g>
        <g id="Grupo_94361" data-name="Grupo 94361" transform="translate(194.919 0.81)">
          <rect id="Rectángulo_39831" data-name="Rectángulo 39831" width="0.871" height="17.815" transform="translate(0 0.733) rotate(-57.281)" fill="#c3dafc"/>
        </g>
        <g id="Grupo_94362" data-name="Grupo 94362" transform="translate(215.409 0.9)">
          <rect id="Rectángulo_39832" data-name="Rectángulo 39832" width="0.871" height="17.815" transform="translate(0 0.733) rotate(-57.281)" fill="#c3dafc"/>
        </g>
        <g id="Grupo_94363" data-name="Grupo 94363" transform="translate(235.9 0.99)">
          <rect id="Rectángulo_39833" data-name="Rectángulo 39833" width="0.871" height="17.815" transform="translate(0 0.733) rotate(-57.281)" fill="#c3dafc"/>
        </g>
        <g id="Grupo_94364" data-name="Grupo 94364" transform="translate(256.39 1.08)">
          <rect id="Rectángulo_39834" data-name="Rectángulo 39834" width="0.871" height="17.815" transform="translate(0 0.733) rotate(-57.281)" fill="#c3dafc"/>
        </g>
      </g>
    </g>
    <g id="Grupo_94367" data-name="Grupo 94367" transform="translate(468.082 2226.184)">
      <rect id="Rectángulo_39835" data-name="Rectángulo 39835" width="32.888" height="27.118" transform="translate(32.888 27.118) rotate(180)" fill="#8db0ff"/>
      <rect id="Rectángulo_39836" data-name="Rectángulo 39836" width="32.888" height="27.118" transform="translate(49.332 27.118) rotate(180)" fill="#aec3ff"/>
      <path id="Trazado_211040" data-name="Trazado 211040" d="M1787.093,1323.6h5.211l-.459-1.466.459-1.048h-5.211Z" transform="translate(-1787.074 -1303.356)" fill="#2a4e96"/>
      <path id="Trazado_211041" data-name="Trazado 211041" d="M1881.285,1255.648h5.211l-.459-1.466.459-1.048h-5.211Z" transform="translate(-1864.842 -1247.256)" fill="#618dc1"/>
      <path id="Trazado_211042" data-name="Trazado 211042" d="M1856.611,1253.134H1851.4l.459,1.466-.459,1.048h5.211Z" transform="translate(-1840.167 -1247.256)" fill="#2a4e96"/>
      <path id="Trazado_211043" data-name="Trazado 211043" d="M2045.222,1337.172h-5.211l.459,1.466-.459,1.048h5.211Z" transform="translate(-1995.889 -1316.64)" fill="#618dc1"/>
      <rect id="Rectángulo_39837" data-name="Rectángulo 39837" width="9.464" height="3.682" transform="translate(37.715 1.839)" fill="#fff"/>
    </g>
    <g id="P297LW" transform="translate(555.463 2181.952)">
      <path id="Trazado_211044" data-name="Trazado 211044" d="M2354.665,1119.66s-1.559,8.868-3.264,18.132c-1.852,10.069-3.877,20.607-4.26,20.739-.735.254-.676-1.35-1.179-2.572a59.258,59.258,0,0,1-1.233-14.654c.1-1.281.428-17.081,2.619-18.947S2354.665,1119.66,2354.665,1119.66Z" transform="translate(-2334.788 -1092.824)" fill="#ffb27d"/>
      <path id="Trazado_211045" data-name="Trazado 211045" d="M2346.644,1314.335a5.2,5.2,0,0,1-.172,2.873c-.551,1.421-.667,1.827.352,2.625s2.123,1.918,2.888,1.586.291-6.836.291-6.836Z" transform="translate(-2335.95 -1253.553)" fill="#ffb27d"/>
      <path id="Trazado_211046" data-name="Trazado 211046" d="M2300.916,1615.935c.946-.577.408-4.885.408-4.885s-4.409-3.527-5.015-.827-4.188,3.913-6.227,4.243a2.186,2.186,0,0,0-1.979,1.469Z" transform="translate(-2288.103 -1497.006)" fill="#2a4e96"/>
      <path id="Trazado_211047" data-name="Trazado 211047" d="M2413.183,1615.935c.946-.577.408-4.885.408-4.885s-4.409-3.527-5.015-.827-4.188,3.913-6.227,4.243a2.188,2.188,0,0,0-1.979,1.469Z" transform="translate(-2380.794 -1497.006)" fill="#2a4e96"/>
      <path id="Trazado_211048" data-name="Trazado 211048" d="M2347.155,1292.793c-1.569,6.63-3.546,14.2-4.318,18.469-.09.495-.163.945-.218,1.343s-.09.748-.106,1.038c-.41,7.995-6.729,26.273-7.86,26.7-1.749.66-4.5-.742-5.945-1.2a1.238,1.238,0,0,1-.866-1.405c3.129-14.386,5.059-34.976,5.477-47.242.211-6.178.492-10.572.492-10.572s15.413-4.112,15.5,1.09C2349.351,1283.028,2348.376,1287.625,2347.155,1292.793Z" transform="translate(-2320.891 -1223.868)" fill="#ff9843"/>
      <path id="Trazado_211049" data-name="Trazado 211049" d="M2402.573,1327.419c-1.568,6.63-3.545,14.2-4.317,18.469-.09.5-.562,4.69-.618,5.088l-2.7-30.658,3.826.353Z" transform="translate(-2376.31 -1258.493)" fill="#e27830"/>
      <path id="Trazado_211050" data-name="Trazado 211050" d="M2403.921,1287.023l5.438,56.815a15.233,15.233,0,0,0,7.662.3s2.115-31.062,1.916-38.656,1.712-20.317-.436-21.721S2403.921,1287.023,2403.921,1287.023Z" transform="translate(-2383.725 -1228.093)" fill="#ff9843"/>
      <path id="Trazado_211051" data-name="Trazado 211051" d="M2372.439,1103.469c.06.648.307,12.759.324,13.214.02.5-1.351,1.5-6.188,2.218a45.3,45.3,0,0,1-6.133.461c-6.031.067-8.336-2.468-8.336-2.468-.411.008.459-2.941.6-22.085a.869.869,0,0,1-.316-.019,16.469,16.469,0,0,1-4.127-2.566s2.422-6.731,4.713-10.158c.559-.836,2.063-1.493,4.066-1.921.526-.113,1.089-.21,1.676-.291a34,34,0,0,1,9.089.057q.8.112,1.57.27a15.043,15.043,0,0,1,5.748,2.248c2.13,1.548,3.715,9.472,3.715,9.472a13.247,13.247,0,0,1-6.522,3.387A41.663,41.663,0,0,0,2372.439,1103.469Z" transform="translate(-2337.771 -1059.73)" fill="#2a4e96"/>
      <path id="Trazado_211052" data-name="Trazado 211052" d="M2362.2,1167.915l1.841-22.936a2.46,2.46,0,0,1,2.562-2.26l12.543.491a2,2,0,0,1,1.919,1.893c.154,3.013.729,8.864,2.883,10.5l1.136,16.6-14.017,12.69s-1.592-9.3-3.782-11.884C2366.059,1171.562,2362.2,1167.915,2362.2,1167.915Z" transform="translate(-2349.278 -1111.859)" fill="#ff9843"/>
      <g id="Grupo_94368" data-name="Grupo 94368" transform="translate(28.516 20.181)">
        <path id="Trazado_211053" data-name="Trazado 211053" d="M2454.725,1081.766l-1.513,11.719-1.573-.249,1.517-11.741C2453.688,1081.571,2454.212,1081.661,2454.725,1081.766Z" transform="translate(-2451.639 -1081.496)" fill="#ff9843"/>
      </g>
      <g id="Grupo_94369" data-name="Grupo 94369" transform="translate(17.283 20.123)">
        <path id="Trazado_211054" data-name="Trazado 211054" d="M2390.878,1081.166l-1.942,10.515-.163.882-.174-.04-1.383-.31,1.986-10.756C2389.728,1081.344,2390.291,1081.246,2390.878,1081.166Z" transform="translate(-2387.216 -1081.166)" fill="#ff9843"/>
      </g>
      <path id="Trazado_211055" data-name="Trazado 211055" d="M2461.787,1164.607s-.941,2.861-13.047,6.819c0,0-.137-3.233.6-3.665,2.275-1.336,7.7-5.322,7.883-6.023.124-.466-1.112-3.987-2.674-7.526,2.87-.319,4.719-.577,6.834-1.711C2462.169,1158.066,2463.254,1161.962,2461.787,1164.607Z" transform="translate(-2420.722 -1119.937)" fill="#ffb27d"/>
      <path id="Trazado_211056" data-name="Trazado 211056" d="M2423.466,1235.093a5.094,5.094,0,0,0-1.786-.887c-.776-.114-2.082-.609-1.87-.15s1.641,1.183,1.641,1.183Z" transform="translate(-2396.825 -1187.115)" fill="#ffb27d"/>
      <g id="Grupo_94370" data-name="Grupo 94370" transform="translate(15.651 35.969)">
        <path id="Trazado_211057" data-name="Trazado 211057" d="M2393.527,1219.27l-3.946.481a.9.9,0,0,1-.973-.636l-2.7-8.949a.9.9,0,0,1,.755-1.157l3.945-.481a.9.9,0,0,1,.973.635l2.7,8.95A.9.9,0,0,1,2393.527,1219.27Z" transform="translate(-2384.474 -1202.16)" fill="#233862"/>
        <path id="Trazado_211058" data-name="Trazado 211058" d="M2385.515,1220.248l-3.945.481a.9.9,0,0,1-.974-.635l-2.7-8.949a.9.9,0,0,1,.755-1.157l3.945-.482a.9.9,0,0,1,.973.636l2.7,8.95A.9.9,0,0,1,2385.515,1220.248Z" transform="translate(-2377.859 -1202.967)" fill="#192e4f"/>
        <path id="Trazado_211059" data-name="Trazado 211059" d="M2391.894,1180.3h0a.272.272,0,0,1-.277-.178l-2.643-7.852a.167.167,0,0,1,.14-.229h0a.275.275,0,0,1,.278.178l2.642,7.853A.166.166,0,0,1,2391.894,1180.3Z" transform="translate(-2387.027 -1172.04)" fill="#192e4f"/>
      </g>
      <path id="Trazado_211060" data-name="Trazado 211060" d="M2412.343,1238.633a1.951,1.951,0,0,1-1.2.3,3.349,3.349,0,0,1-1.252-.472c-.5-.342-1.615.11-1.943.329-.92.613-4.025.589-4.025,1.2s1.351,2.337,2.986,2.848,4.838-.546,4.838-.546Z" transform="translate(-2383.725 -1190.811)" fill="#ffb27d"/>
      <path id="Trazado_211061" data-name="Trazado 211061" d="M2421.962,1052.658c.067,1.822-1.548,2.71-3.968,2.363s-2.469-2.224-2.469-2.224l.059-1.818.069-2.15.063-1.921,5.859.794a7.18,7.18,0,0,0,.007.928v0C2421.639,1049.784,2421.8,1051.642,2421.962,1052.658Z" transform="translate(-2393.306 -1032.758)" fill="#ffb27d"/>
      <path id="Trazado_211062" data-name="Trazado 211062" d="M2421.867,1056.784v0c-.056.078-1.394,1.9-6,2.348l.069-2.151,5.93-.2Z" transform="translate(-2393.588 -1040.912)" fill="#ed975d"/>
      <path id="Trazado_211063" data-name="Trazado 211063" d="M2403.9,1007.4s7.209,1.456,8.047-3.047,2.333-7.349-2.235-8.469-5.785.431-6.429,1.867S2402.043,1006.9,2403.9,1007.4Z" transform="translate(-2382.677 -990.314)" fill="#ffb27d"/>
      <path id="Trazado_211064" data-name="Trazado 211064" d="M2405.127,996.529s2.507.565,2.745-4c.092-1.757.529-7.925-4.491-7.714a10.232,10.232,0,0,0-7.763,3.661c-3.426,3.866,4.91.989,6.02,1.887s.052,2.378,1.321,2.906,2.272.528,2.06,1.691S2405.127,996.529,2405.127,996.529Z" transform="translate(-2376.192 -981.49)" fill="#233862"/>
      <path id="Trazado_211065" data-name="Trazado 211065" d="M2395.653,972.839a24.7,24.7,0,0,0,3.627,1c.28.02,4.447.307,4.447.307l6.086,1.073s1.188-4.518-1.789-7.357h0q-.112-.107-.232-.211a7.938,7.938,0,0,0-3.318-1.631C2397.2,964.194,2395.684,972.575,2395.653,972.839Z" transform="translate(-2376.899 -965.761)" fill="#ff9e55"/>
      <g id="Grupo_94371" data-name="Grupo 94371" transform="translate(22.3 1.883)">
        <path id="Trazado_211066" data-name="Trazado 211066" d="M2415.991,982.629l1.15.153c.9-1.189,4.226-5.312,7.733-5.923a.847.847,0,0,0-.059-.079h0c-.061-.074-.109-.111-.2-.22l-.036.009C2420.1,977.642,2416.75,981.572,2415.991,982.629Z" transform="translate(-2415.991 -976.559)" fill="#e27830"/>
      </g>
      <path id="Trazado_211067" data-name="Trazado 211067" d="M2441.955,1013.858a4.983,4.983,0,0,1,.988,1.738c.205.852,4.157,1.363,4.43.92a11.932,11.932,0,0,0,.668-1.584Z" transform="translate(-2415.127 -1005.471)" fill="#ff9e55"/>
      <path id="Trazado_211068" data-name="Trazado 211068" d="M2390.926,1002s-7.282.136-10.61-1.616a.311.311,0,0,1,.068-.578,14.192,14.192,0,0,1,2.756-.31S2385.747,1001.66,2390.926,1002Z" transform="translate(-2364.098 -993.613)" fill="#e27830"/>
    </g>
    <g id="Grupo_94393" data-name="Grupo 94393" transform="translate(370 2181.601)">
      <path id="Trazado_211069" data-name="Trazado 211069" d="M742.6,963.744H731.986v119.281h17.993v-58.831L742.6,993.969Z" transform="translate(-731.986 -963.744)" fill="#aec3ff"/>
      <g id="Grupo_94392" data-name="Grupo 94392" transform="translate(10.611)">
        <rect id="Rectángulo_39839" data-name="Rectángulo 39839" width="58.824" height="30.225" fill="#d2e0ff"/>
        <rect id="Rectángulo_39840" data-name="Rectángulo 39840" width="58.823" height="58.831" transform="translate(7.382 60.45)" fill="#d2e0ff"/>
        <path id="Trazado_211070" data-name="Trazado 211070" d="M859.046,1167.305H800.222l-7.382-30.225h58.824Z" transform="translate(-792.84 -1106.855)" fill="#c1d4f7"/>
        <g id="Grupo_94378" data-name="Grupo 94378" transform="translate(6.226 34.038)">
          <g id="Grupo_94374" data-name="Grupo 94374">
            <g id="Grupo_94372" data-name="Grupo 94372">
              <path id="Trazado_211071" data-name="Trazado 211071" d="M830.674,1161.14h-1.538l-.588-2.19h1.538Z" transform="translate(-828.548 -1158.949)" fill="#aec3ff"/>
              <path id="Trazado_211072" data-name="Trazado 211072" d="M850.74,1161.14H849.2l-.588-2.19h1.538Z" transform="translate(-845.114 -1158.949)" fill="#aec3ff"/>
              <path id="Trazado_211073" data-name="Trazado 211073" d="M870.8,1161.14h-1.538l-.588-2.19h1.538Z" transform="translate(-861.681 -1158.949)" fill="#aec3ff"/>
              <path id="Trazado_211074" data-name="Trazado 211074" d="M890.87,1161.14h-1.538l-.588-2.19h1.538Z" transform="translate(-878.247 -1158.949)" fill="#aec3ff"/>
              <path id="Trazado_211075" data-name="Trazado 211075" d="M910.935,1161.14H909.4l-.588-2.19h1.538Z" transform="translate(-894.813 -1158.949)" fill="#aec3ff"/>
              <path id="Trazado_211076" data-name="Trazado 211076" d="M931,1161.14h-1.538l-.588-2.19h1.538Z" transform="translate(-911.38 -1158.949)" fill="#aec3ff"/>
            </g>
            <g id="Grupo_94373" data-name="Grupo 94373" transform="translate(1.098 4.089)">
              <path id="Trazado_211077" data-name="Trazado 211077" d="M836.971,1184.587h-1.538l-.588-2.19h1.538Z" transform="translate(-834.845 -1182.396)" fill="#aec3ff"/>
              <path id="Trazado_211078" data-name="Trazado 211078" d="M857.037,1184.587H855.5l-.588-2.19h1.538Z" transform="translate(-851.412 -1182.396)" fill="#aec3ff"/>
              <path id="Trazado_211079" data-name="Trazado 211079" d="M877.1,1184.587h-1.538l-.588-2.19h1.538Z" transform="translate(-867.978 -1182.396)" fill="#aec3ff"/>
              <path id="Trazado_211080" data-name="Trazado 211080" d="M897.167,1184.587h-1.538l-.588-2.19h1.538Z" transform="translate(-884.545 -1182.396)" fill="#aec3ff"/>
              <path id="Trazado_211081" data-name="Trazado 211081" d="M917.233,1184.587h-1.538l-.588-2.19h1.538Z" transform="translate(-901.111 -1182.396)" fill="#aec3ff"/>
              <path id="Trazado_211082" data-name="Trazado 211082" d="M937.3,1184.587H935.76l-.588-2.19h1.538Z" transform="translate(-917.677 -1182.396)" fill="#aec3ff"/>
            </g>
          </g>
          <g id="Grupo_94377" data-name="Grupo 94377" transform="translate(2.235 8.323)">
            <g id="Grupo_94375" data-name="Grupo 94375">
              <path id="Trazado_211083" data-name="Trazado 211083" d="M843.494,1208.872h-1.538l-.588-2.19h1.538Z" transform="translate(-841.368 -1206.682)" fill="#aec3ff"/>
              <path id="Trazado_211084" data-name="Trazado 211084" d="M863.559,1208.872h-1.538l-.588-2.19h1.538Z" transform="translate(-857.934 -1206.682)" fill="#aec3ff"/>
              <path id="Trazado_211085" data-name="Trazado 211085" d="M883.624,1208.872h-1.538l-.588-2.19h1.538Z" transform="translate(-874.5 -1206.682)" fill="#aec3ff"/>
              <path id="Trazado_211086" data-name="Trazado 211086" d="M903.69,1208.872h-1.538l-.588-2.19H903.1Z" transform="translate(-891.067 -1206.682)" fill="#aec3ff"/>
              <path id="Trazado_211087" data-name="Trazado 211087" d="M923.755,1208.872h-1.538l-.588-2.19h1.538Z" transform="translate(-907.633 -1206.682)" fill="#aec3ff"/>
              <path id="Trazado_211088" data-name="Trazado 211088" d="M943.82,1208.872h-1.538l-.588-2.19h1.538Z" transform="translate(-924.2 -1206.682)" fill="#aec3ff"/>
            </g>
            <g id="Grupo_94376" data-name="Grupo 94376" transform="translate(1.098 4.089)">
              <path id="Trazado_211089" data-name="Trazado 211089" d="M849.791,1232.319h-1.538l-.588-2.19H849.2Z" transform="translate(-847.665 -1230.129)" fill="#aec3ff"/>
              <path id="Trazado_211090" data-name="Trazado 211090" d="M869.856,1232.319h-1.538l-.588-2.19h1.538Z" transform="translate(-864.231 -1230.129)" fill="#aec3ff"/>
              <path id="Trazado_211091" data-name="Trazado 211091" d="M889.922,1232.319h-1.538l-.588-2.19h1.538Z" transform="translate(-880.798 -1230.129)" fill="#aec3ff"/>
              <path id="Trazado_211092" data-name="Trazado 211092" d="M909.987,1232.319h-1.538l-.588-2.19H909.4Z" transform="translate(-897.364 -1230.129)" fill="#aec3ff"/>
              <path id="Trazado_211093" data-name="Trazado 211093" d="M930.052,1232.319h-1.538l-.588-2.19h1.538Z" transform="translate(-913.931 -1230.129)" fill="#aec3ff"/>
              <path id="Trazado_211094" data-name="Trazado 211094" d="M950.117,1232.319h-1.538l-.588-2.19h1.538Z" transform="translate(-930.497 -1230.129)" fill="#aec3ff"/>
            </g>
          </g>
        </g>
        <g id="Grupo_94385" data-name="Grupo 94385" transform="translate(30.576 34.038)">
          <g id="Grupo_94381" data-name="Grupo 94381">
            <g id="Grupo_94379" data-name="Grupo 94379">
              <path id="Trazado_211095" data-name="Trazado 211095" d="M970.316,1161.14h-1.538l-.588-2.19h1.538Z" transform="translate(-968.19 -1158.949)" fill="#aec3ff"/>
              <path id="Trazado_211096" data-name="Trazado 211096" d="M990.381,1161.14h-1.538l-.588-2.19h1.538Z" transform="translate(-984.756 -1158.949)" fill="#aec3ff"/>
              <path id="Trazado_211097" data-name="Trazado 211097" d="M1010.447,1161.14h-1.538l-.588-2.19h1.538Z" transform="translate(-1001.323 -1158.949)" fill="#aec3ff"/>
              <path id="Trazado_211098" data-name="Trazado 211098" d="M1030.512,1161.14h-1.538l-.588-2.19h1.538Z" transform="translate(-1017.889 -1158.949)" fill="#aec3ff"/>
              <path id="Trazado_211099" data-name="Trazado 211099" d="M1050.577,1161.14h-1.538l-.588-2.19h1.538Z" transform="translate(-1034.456 -1158.949)" fill="#aec3ff"/>
              <path id="Trazado_211100" data-name="Trazado 211100" d="M1070.642,1161.14H1069.1l-.588-2.19h1.538Z" transform="translate(-1051.022 -1158.949)" fill="#aec3ff"/>
            </g>
            <g id="Grupo_94380" data-name="Grupo 94380" transform="translate(1.098 4.089)">
              <path id="Trazado_211101" data-name="Trazado 211101" d="M976.614,1184.587h-1.538l-.588-2.19h1.538Z" transform="translate(-974.487 -1182.396)" fill="#aec3ff"/>
              <path id="Trazado_211102" data-name="Trazado 211102" d="M996.679,1184.587h-1.538l-.588-2.19h1.538Z" transform="translate(-991.054 -1182.396)" fill="#aec3ff"/>
              <path id="Trazado_211103" data-name="Trazado 211103" d="M1016.744,1184.587h-1.538l-.588-2.19h1.538Z" transform="translate(-1007.62 -1182.396)" fill="#aec3ff"/>
              <path id="Trazado_211104" data-name="Trazado 211104" d="M1036.809,1184.587h-1.538l-.588-2.19h1.538Z" transform="translate(-1024.187 -1182.396)" fill="#aec3ff"/>
              <path id="Trazado_211105" data-name="Trazado 211105" d="M1056.875,1184.587h-1.538l-.588-2.19h1.538Z" transform="translate(-1040.753 -1182.396)" fill="#aec3ff"/>
              <path id="Trazado_211106" data-name="Trazado 211106" d="M1076.939,1184.587H1075.4l-.588-2.19h1.538Z" transform="translate(-1057.319 -1182.396)" fill="#aec3ff"/>
            </g>
          </g>
          <g id="Grupo_94384" data-name="Grupo 94384" transform="translate(2.235 8.323)">
            <g id="Grupo_94382" data-name="Grupo 94382">
              <path id="Trazado_211107" data-name="Trazado 211107" d="M983.136,1208.872H981.6l-.588-2.19h1.538Z" transform="translate(-981.01 -1206.682)" fill="#aec3ff"/>
              <path id="Trazado_211108" data-name="Trazado 211108" d="M1003.2,1208.872h-1.538l-.588-2.19h1.538Z" transform="translate(-997.576 -1206.682)" fill="#aec3ff"/>
              <path id="Trazado_211109" data-name="Trazado 211109" d="M1023.266,1208.872h-1.538l-.588-2.19h1.538Z" transform="translate(-1014.143 -1206.682)" fill="#aec3ff"/>
              <path id="Trazado_211110" data-name="Trazado 211110" d="M1043.332,1208.872h-1.538l-.588-2.19h1.538Z" transform="translate(-1030.709 -1206.682)" fill="#aec3ff"/>
              <path id="Trazado_211111" data-name="Trazado 211111" d="M1063.4,1208.872h-1.538l-.588-2.19h1.538Z" transform="translate(-1047.276 -1206.682)" fill="#aec3ff"/>
              <path id="Trazado_211112" data-name="Trazado 211112" d="M1083.462,1208.872h-1.538l-.588-2.19h1.538Z" transform="translate(-1063.842 -1206.682)" fill="#aec3ff"/>
            </g>
            <g id="Grupo_94383" data-name="Grupo 94383" transform="translate(1.098 4.089)">
              <path id="Trazado_211113" data-name="Trazado 211113" d="M989.433,1232.319H987.9l-.588-2.19h1.538Z" transform="translate(-987.307 -1230.129)" fill="#aec3ff"/>
              <path id="Trazado_211114" data-name="Trazado 211114" d="M1009.5,1232.319h-1.538l-.588-2.19h1.538Z" transform="translate(-1003.874 -1230.129)" fill="#aec3ff"/>
              <path id="Trazado_211115" data-name="Trazado 211115" d="M1029.563,1232.319h-1.538l-.588-2.19h1.538Z" transform="translate(-1020.44 -1230.129)" fill="#aec3ff"/>
              <path id="Trazado_211116" data-name="Trazado 211116" d="M1049.629,1232.319h-1.538l-.588-2.19h1.538Z" transform="translate(-1037.006 -1230.129)" fill="#aec3ff"/>
              <path id="Trazado_211117" data-name="Trazado 211117" d="M1069.694,1232.319h-1.538l-.588-2.19h1.538Z" transform="translate(-1053.573 -1230.129)" fill="#aec3ff"/>
              <path id="Trazado_211118" data-name="Trazado 211118" d="M1089.759,1232.319h-1.538l-.588-2.19h1.538Z" transform="translate(-1070.139 -1230.129)" fill="#aec3ff"/>
            </g>
          </g>
        </g>
        <rect id="Rectángulo_39841" data-name="Rectángulo 39841" width="21.839" height="17.596" transform="translate(4.515 9.653)" fill="#2b478b"/>
        <rect id="Rectángulo_39842" data-name="Rectángulo 39842" width="1.56" height="17.596" transform="translate(24.819 9.653)" fill="#699dee"/>
        <g id="Grupo_94386" data-name="Grupo 94386" transform="translate(11.514 91.64)">
          <path id="Trazado_211119" data-name="Trazado 211119" d="M911.482,1510.917H858.873v-21.634h52.609Zm-52.266-.344h51.922v-20.947H859.217Z" transform="translate(-858.873 -1489.283)" fill="#aec3ff"/>
        </g>
        <path id="Trazado_211120" data-name="Trazado 211120" d="M1013.007,987.1c0,.656-.373,1.188-.834,1.188s-.833-.532-.833-1.188.373-1.187.833-1.187S1013.007,986.445,1013.007,987.1Z" transform="translate(-973.24 -982.047)" fill="#fff"/>
        <path id="Trazado_211121" data-name="Trazado 211121" d="M1035.37,987.1c0,.656-.373,1.188-.834,1.188s-.833-.532-.833-1.188.373-1.187.833-1.187S1035.37,986.445,1035.37,987.1Z" transform="translate(-991.702 -982.047)" fill="#ff9e55"/>
        <path id="Trazado_211122" data-name="Trazado 211122" d="M1057.731,987.1c0,.656-.373,1.188-.834,1.188s-.834-.532-.834-1.188.373-1.187.834-1.187S1057.731,986.445,1057.731,987.1Z" transform="translate(-1010.164 -982.047)" fill="#699dee"/>
        <path id="Trazado_211123" data-name="Trazado 211123" d="M1080.093,987.1c0,.656-.373,1.188-.834,1.188s-.834-.532-.834-1.188.374-1.187.834-1.187S1080.093,986.445,1080.093,987.1Z" transform="translate(-1028.627 -982.047)" fill="#fff"/>
        <path id="Trazado_211124" data-name="Trazado 211124" d="M1102.455,987.1c0,.656-.373,1.188-.834,1.188s-.834-.532-.834-1.188.373-1.187.834-1.187S1102.455,986.445,1102.455,987.1Z" transform="translate(-1047.089 -982.047)" fill="#ff9e55"/>
        <g id="Grupo_94387" data-name="Grupo 94387" transform="translate(38.265 9.481)">
          <path id="Trazado_211125" data-name="Trazado 211125" d="M1029.555,1032.66h-17.272v-14.544h17.272Zm-16.928-.343h16.585V1018.46h-16.585Z" transform="translate(-1012.283 -1018.116)" fill="#aec3ff"/>
        </g>
        <rect id="Rectángulo_39843" data-name="Rectángulo 39843" width="2.666" height="0.493" transform="translate(10.501 11.533)" fill="#e9f3fe"/>
        <g id="Grupo_94388" data-name="Grupo 94388" transform="translate(5.323 11.533)">
          <rect id="Rectángulo_39844" data-name="Rectángulo 39844" width="4.202" height="0.493" fill="#e9f3fe"/>
          <rect id="Rectángulo_39845" data-name="Rectángulo 39845" width="6.357" height="0.493" transform="translate(0 1.314)" fill="#e9f3fe"/>
          <rect id="Rectángulo_39846" data-name="Rectángulo 39846" width="4.217" height="0.493" transform="translate(7.216 1.314)" fill="#e9f3fe"/>
          <rect id="Rectángulo_39847" data-name="Rectángulo 39847" width="4.604" height="0.493" transform="translate(8.42)" fill="#e9f3fe"/>
        </g>
        <g id="Grupo_94389" data-name="Grupo 94389" transform="translate(5.323 15.113)">
          <rect id="Rectángulo_39848" data-name="Rectángulo 39848" width="4.202" height="0.493" fill="#e9f3fe"/>
          <rect id="Rectángulo_39849" data-name="Rectángulo 39849" width="6.357" height="0.493" transform="translate(0 1.314)" fill="#e9f3fe"/>
          <rect id="Rectángulo_39850" data-name="Rectángulo 39850" width="4.217" height="0.493" transform="translate(7.216 1.314)" fill="#e9f3fe"/>
          <rect id="Rectángulo_39851" data-name="Rectángulo 39851" width="2.666" height="0.493" transform="translate(5.178)" fill="#e9f3fe"/>
          <rect id="Rectángulo_39852" data-name="Rectángulo 39852" width="4.604" height="0.493" transform="translate(8.42)" fill="#e9f3fe"/>
        </g>
        <g id="Grupo_94390" data-name="Grupo 94390" transform="translate(5.323 19.055)">
          <rect id="Rectángulo_39853" data-name="Rectángulo 39853" width="4.202" height="0.493" fill="#e9f3fe"/>
          <rect id="Rectángulo_39854" data-name="Rectángulo 39854" width="6.357" height="0.493" transform="translate(0 1.314)" fill="#e9f3fe"/>
          <rect id="Rectángulo_39855" data-name="Rectángulo 39855" width="4.217" height="0.493" transform="translate(7.216 1.314)" fill="#e9f3fe"/>
          <rect id="Rectángulo_39856" data-name="Rectángulo 39856" width="2.666" height="0.493" transform="translate(5.178)" fill="#e9f3fe"/>
          <rect id="Rectángulo_39857" data-name="Rectángulo 39857" width="4.604" height="0.493" transform="translate(8.42)" fill="#e9f3fe"/>
        </g>
        <g id="Grupo_94391" data-name="Grupo 94391" transform="translate(5.323 22.852)">
          <rect id="Rectángulo_39858" data-name="Rectángulo 39858" width="4.202" height="0.493" fill="#e9f3fe"/>
          <rect id="Rectángulo_39859" data-name="Rectángulo 39859" width="6.357" height="0.493" transform="translate(0 1.314)" fill="#e9f3fe"/>
          <rect id="Rectángulo_39860" data-name="Rectángulo 39860" width="4.217" height="0.493" transform="translate(7.216 1.314)" fill="#e9f3fe"/>
          <rect id="Rectángulo_39861" data-name="Rectángulo 39861" width="2.666" height="0.493" transform="translate(5.178)" fill="#e9f3fe"/>
          <rect id="Rectángulo_39862" data-name="Rectángulo 39862" width="4.604" height="0.493" transform="translate(8.42)" fill="#e9f3fe"/>
        </g>
      </g>
    </g>
    <g id="Grupo_94429" data-name="Grupo 94429" transform="translate(631.32 2279.908)">
      <rect id="Rectángulo_39867" data-name="Rectángulo 39867" width="25.413" height="20.955" transform="translate(25.413 20.955) rotate(180)" fill="#7f9ef4"/>
      <rect id="Rectángulo_39868" data-name="Rectángulo 39868" width="25.413" height="20.955" transform="translate(38.12 20.955) rotate(180)" fill="#aec3ff"/>
      <path id="Trazado_211250" data-name="Trazado 211250" d="M2723.216,1608.018h4.027l-.355-1.133.355-.81h-4.027Z" transform="translate(-2723.2 -1592.377)" fill="#5d86e2"/>
      <path id="Trazado_211251" data-name="Trazado 211251" d="M2796,1555.511h4.027l-.355-1.133.355-.81H2796Z" transform="translate(-2783.295 -1549.026)" fill="#7f9ef4"/>
      <path id="Trazado_211252" data-name="Trazado 211252" d="M2776.935,1553.568h-4.027l.355,1.133-.355.81h4.027Z" transform="translate(-2764.228 -1549.026)" fill="#5d86e2"/>
      <path id="Trazado_211253" data-name="Trazado 211253" d="M2922.68,1618.507h-4.027l.355,1.133-.355.81h4.027Z" transform="translate(-2884.56 -1602.641)" fill="#7f9ef4"/>
      <rect id="Rectángulo_39869" data-name="Rectángulo 39869" width="7.313" height="2.845" transform="translate(29.143 1.421)" fill="#fff"/>
    </g>
    <g id="Grupo_94430" data-name="Grupo 94430" transform="translate(596.882 2279.887)">
      <rect id="Rectángulo_39870" data-name="Rectángulo 39870" width="25.465" height="20.997" transform="translate(25.465 20.997) rotate(180)" fill="#7f9ef4"/>
      <rect id="Rectángulo_39871" data-name="Rectángulo 39871" width="25.465" height="20.997" transform="translate(38.197 20.997) rotate(180)" fill="#d4e4f8"/>
      <path id="Trazado_211254" data-name="Trazado 211254" d="M2525.719,1608.059h4.035l-.355-1.136.355-.811h-4.035Z" transform="translate(-2525.704 -1592.387)" fill="#2a4e96"/>
      <path id="Trazado_211255" data-name="Trazado 211255" d="M2598.653,1555.447h4.035l-.355-1.136.355-.811h-4.035Z" transform="translate(-2585.92 -1548.949)" fill="#618dc1"/>
      <path id="Trazado_211256" data-name="Trazado 211256" d="M2579.546,1553.5h-4.035l.355,1.135-.355.811h4.035Z" transform="translate(-2566.814 -1548.949)" fill="#2a4e96"/>
      <path id="Trazado_211257" data-name="Trazado 211257" d="M2725.585,1618.569h-4.034l.355,1.135-.355.811h4.034Z" transform="translate(-2687.389 -1602.672)" fill="#618dc1"/>
      <rect id="Rectángulo_39872" data-name="Rectángulo 39872" width="7.328" height="2.851" transform="translate(29.202 1.424)" fill="#fff"/>
    </g>
    <g id="Grupo_94431" data-name="Grupo 94431" transform="translate(610.077 2260.22)">
      <rect id="Rectángulo_39873" data-name="Rectángulo 39873" width="23.876" height="19.687" transform="translate(23.876 19.687) rotate(180)" fill="#ed823a"/>
      <rect id="Rectángulo_39874" data-name="Rectángulo 39874" width="23.876" height="19.687" transform="translate(35.813 19.687) rotate(180)" fill="#ff9e55"/>
      <path id="Trazado_211258" data-name="Trazado 211258" d="M2601.385,1490.24h3.783l-.334-1.065.334-.76h-3.783Z" transform="translate(-2601.371 -1475.546)" fill="#dd732c"/>
      <path id="Trazado_211259" data-name="Trazado 211259" d="M2669.765,1440.911h3.783l-.333-1.065.333-.76h-3.783Z" transform="translate(-2657.828 -1434.819)" fill="#ffb27d"/>
      <path id="Trazado_211260" data-name="Trazado 211260" d="M2651.853,1439.086h-3.783l.333,1.064-.333.761h3.783Z" transform="translate(-2639.915 -1434.819)" fill="#dd732c"/>
      <path id="Trazado_211261" data-name="Trazado 211261" d="M2788.778,1500.094H2785l.333,1.065-.333.761h3.783Z" transform="translate(-2752.965 -1485.189)" fill="#ffb27d"/>
      <rect id="Rectángulo_39875" data-name="Rectángulo 39875" width="6.871" height="2.673" transform="translate(27.38 1.335)" fill="#fff"/>
    </g>
    <g id="Grupo_94437" data-name="Grupo 94437" transform="translate(412.286 2187.163)">
      <g id="Grupo_94436" data-name="Grupo 94436" transform="translate(4.921 28.715)">
        <path id="Trazado_211262" data-name="Trazado 211262" d="M1006.114,1187.526l1.719-.254c.19-.028.271-.223.193-.463l-1.673-5.092a.713.713,0,0,0-.656-.516l-1.719.254c-.19.028-.271.224-.193.463l1.673,5.093A.715.715,0,0,0,1006.114,1187.526Z" transform="translate(-1003.572 -1177.557)" fill="#233862"/>
        <path id="Trazado_211263" data-name="Trazado 211263" d="M1009.6,1187.01l1.719-.254c.19-.028.271-.223.193-.463l-1.673-5.093a.714.714,0,0,0-.656-.516l-1.719.254c-.19.028-.271.223-.193.463l1.673,5.092A.714.714,0,0,0,1009.6,1187.01Z" transform="translate(-1006.454 -1177.131)" fill="#192e4f"/>
        <path id="Trazado_211264" data-name="Trazado 211264" d="M1004.2,1165.056h0c.05-.007.075-.066.056-.13l-1.358-4.5a.132.132,0,0,0-.126-.1h0c-.05.008-.075.066-.056.13l1.358,4.5A.131.131,0,0,0,1004.2,1165.056Z" transform="translate(-1002.708 -1160.319)" fill="#192e4f"/>
      </g>
      <path id="Trazado_211265" data-name="Trazado 211265" d="M980.446,1071.621a13.77,13.77,0,0,0-2.225-2.893,6.011,6.011,0,0,0-3.686-.8c-.312.619,1.031,1.513,1.31,2.081s.16,1.387,1.483,2.057c1.366.692,2.159,1.146,2.159,1.146Z" transform="translate(-974.488 -1055.265)" fill="#ffb27d"/>
      <path id="Trazado_211266" data-name="Trazado 211266" d="M1000.237,1082.846c.638-.993.828-1.044.828-1.044s10.551,4.208,11.558,4.56,16.06,1.236,16.06,1.236l4.543,9.985s-20.06-4.575-22.594-5.516c-4.187-1.553-10.9-7.64-10.9-7.64A3.286,3.286,0,0,1,1000.237,1082.846Z" transform="translate(-995.328 -1066.778)" fill="#233862"/>
      <path id="Trazado_211267" data-name="Trazado 211267" d="M1098.506,1616.059s-.23,3.7-.917,4.574h-10.583a1.883,1.883,0,0,1,1.69-1.512c1.672-.291,4.472-1.466,5.483-3.676C1095.244,1613.12,1098.506,1616.059,1098.506,1616.059Z" transform="translate(-1067.385 -1506.629)" fill="#163560"/>
      <path id="Trazado_211268" data-name="Trazado 211268" d="M1207.339,1613.349s.659,4.811-.246,4.894c-.12.011-4.025.009-5.553,0-1.9-.011-4.942.012-4.942.012a.5.5,0,0,1-.45-.748,2.005,2.005,0,0,1,1.437-.922c1.667-.321,4.444-1.545,5.418-3.772C1204.026,1610.469,1207.339,1613.349,1207.339,1613.349Z" transform="translate(-1157.438 -1504.436)" fill="#163560"/>
      <path id="Trazado_211269" data-name="Trazado 211269" d="M1124.422,1297.342s2.661,9.312,10.287,25.481,8.215,23.538,8.215,23.538l5.254-.247s-.494-19.246-4.1-27.406-4.336-30.489-4.336-30.489Z" transform="translate(-1098.278 -1237.202)" fill="#ed823a"/>
      <path id="Trazado_211270" data-name="Trazado 211270" d="M1099.9,1294.593a232.175,232.175,0,0,0,2.283,32.122c2.494,17.7,1.649,25.218,1.649,25.218l5.975.2s3.571-17.71,2.547-26.571,4.89-30.405,4.89-30.405Z" transform="translate(-1078.028 -1242.464)" fill="#ff9e55"/>
      <path id="Trazado_211271" data-name="Trazado 211271" d="M1134.906,1067.343l-2.818,2.087-4.073-.857c.056-.372.325-1.911.57-3.305.015-.082.03-.164.044-.245.21-1.186.391-2.205.391-2.205l3.8-1.9,1.418-.707c0,.025-.11,1.317-.125,1.505A12.18,12.18,0,0,0,1134.906,1067.343Z" transform="translate(-1101.244 -1048.956)" fill="#ffb27d"/>
      <path id="Trazado_211272" data-name="Trazado 211272" d="M1123.3,1088.108c.089-.038,5.54-1.646,6.132-1.451s.943,1.342.943,1.342l-8.416,2.4S1122.163,1088.588,1123.3,1088.108Z" transform="translate(-1096.246 -1070.774)" fill="#163560"/>
      <path id="Trazado_211273" data-name="Trazado 211273" d="M1119.45,1130.886c-.922,4.215-20.186-9.01-19.929-11.582.028-.282.056-.567.085-.85.355-3.581.7-7.085.72-9.373a32.244,32.244,0,0,1,.656-5.855c.334-1.7.746-3.245,1.1-4.448a4.915,4.915,0,0,1,2.883-3.158,4.328,4.328,0,0,1,.478-.167c2.32-.673,5.53-1.506,6.4-1.252,2.358.694,4.109,4.843,5.349,10.133C1119.516,1114.237,1120.052,1128.14,1119.45,1130.886Z" transform="translate(-1077.716 -1076.978)" fill="#2a4e96"/>
      <path id="Trazado_211274" data-name="Trazado 211274" d="M1136.53,1065.124c-.835,1.6-3.948,2.981-5.246,3.489l.043-.245c.21-1.186.391-2.205.391-2.205l3.8-1.9C1136.363,1064.253,1136.875,1064.466,1136.53,1065.124Z" transform="translate(-1103.943 -1052.3)" fill="#fca56b"/>
      <path id="Trazado_211275" data-name="Trazado 211275" d="M1119.111,1020.385s6.863,2.141,8.13-2.153,3.007-6.91-1.321-8.458-5.667-.162-6.439,1.168S1117.359,1019.717,1119.111,1020.385Z" transform="translate(-1093.185 -1006.745)" fill="#ffb27d"/>
      <path id="Trazado_211276" data-name="Trazado 211276" d="M1123.787,999.426s.438,5,1.471,4.78,1.971-.378,1.819,1.129-1.584,3.246,1.6,3.512,7.763-7.947,6.888-9.5C1133.042,994.858,1120.138,993.952,1123.787,999.426Z" transform="translate(-1097.22 -995.644)" fill="#163560"/>
      <path id="Trazado_211277" data-name="Trazado 211277" d="M1100.257,1211.181c1.908.69-.033-1.9,0-2.435.148-2.37-.781-5.365-.5-8.217l11.651-6.964S1114.176,1211.071,1100.257,1211.181Z" transform="translate(-1077.871 -1159.053)" fill="#233862"/>
      <path id="Trazado_211278" data-name="Trazado 211278" d="M1118.99,1179.084c-4.974,9.218-5.766,12.739-5.766,12.739-4.329-.493-11.747-9-14.1-11.276,0,0-.32-10.473-.063-13.045l3.6-.1s6.5,1.647,8.184-.588.955-13.209.955-13.209l4.939-1.068C1119.056,1162.435,1120.325,1176.61,1118.99,1179.084Z" transform="translate(-1077.256 -1125.176)" fill="#ff9e55"/>
      <path id="Trazado_211279" data-name="Trazado 211279" d="M1013.712,1187.119a6.583,6.583,0,0,1-1.791-.581c-.547-.449-.976-1.2-1.244-1.285-.449-.14-1.552-1.526-1.645-1.624-.036-.038-.334.106-.261.334s.238.725.3.9c.261.787.248,1.03-.694.725-.121-.039-2.3-.73-2.522-.236a4.293,4.293,0,0,0,1.814,3.383c1.136.513,3.939.05,4.141.109C1013.523,1189.347,1013.712,1187.119,1013.712,1187.119Z" transform="translate(-1000.356 -1150.846)" fill="#ffb27d"/>
      <path id="Trazado_211280" data-name="Trazado 211280" d="M1040.915,1132.682s11.556,1.964,12.58,1.466c1.635-.8-.634-12.52-.634-12.52a3.372,3.372,0,0,1,3.006-3.284c2.7-.545,5.3,1.476,5.3,1.476s2.367,2.118,2.064,4.466c-.67,5.207-1.713,15.8-5.2,17.419-4.491,2.094-17.489-5.805-17.489-5.805a2.272,2.272,0,0,1-.371-1.514A3.532,3.532,0,0,1,1040.915,1132.682Z" transform="translate(-1028.716 -1096.871)" fill="#2a4e96"/>
      <path id="Trazado_211281" data-name="Trazado 211281" d="M1131.744,1112.135l-.958.207s-2.024-8.761-8.824-8.8a4.864,4.864,0,0,1,1.537-.979C1125.991,1103.229,1130.318,1105.358,1131.744,1112.135Z" transform="translate(-1096.246 -1083.917)" fill="#ff9e55"/>
      <path id="Trazado_211282" data-name="Trazado 211282" d="M977.594,1079.216s-1.874-1.149-1.961-.656c-.044.245.789.918,1.124,1.2s1.189.851,1.189.851Z" transform="translate(-975.431 -1064)" fill="#ffb27d"/>
    </g>
    <path id="Rectángulo_39885" data-name="Rectángulo 39885" d="M.932,0H314.068A.932.932,0,0,1,315,.932v0a.932.932,0,0,1-.932.932H.932A.932.932,0,0,1,0,.932v0A.932.932,0,0,1,.932,0Z" transform="translate(370 2300.881)" fill="#2e3552"/>
    <g id="Grupo_94350" data-name="Grupo 94350" transform="translate(468.082 2182.077)">
      <g id="Grupo_94347" data-name="Grupo 94347" transform="translate(26.233 24.705)">
        <rect id="Rectángulo_39819" data-name="Rectángulo 39819" width="24.368" height="20.093" transform="translate(24.368 20.093) rotate(180)" fill="#d8702a"/>
        <rect id="Rectángulo_39820" data-name="Rectángulo 39820" width="24.368" height="20.093" transform="translate(36.553 20.093) rotate(180)" fill="#ff9e55"/>
        <path id="Trazado_211014" data-name="Trazado 211014" d="M1541.362,1185.344h3.861l-.341-1.087.341-.776h-3.861Z" transform="translate(-1541.348 -1170.346)" fill="#c15e1b"/>
        <path id="Trazado_211015" data-name="Trazado 211015" d="M1611.155,1135h3.861l-.34-1.086.34-.776h-3.861Z" transform="translate(-1598.971 -1128.778)" fill="#ffb27d"/>
        <path id="Trazado_211016" data-name="Trazado 211016" d="M1592.872,1133.133h-3.862l.34,1.087-.34.776h3.862Z" transform="translate(-1580.688 -1128.778)" fill="#c15e1b"/>
        <path id="Trazado_211017" data-name="Trazado 211017" d="M1732.624,1195.4h-3.861l.34,1.087-.34.776h3.861Z" transform="translate(-1696.071 -1180.188)" fill="#ffb27d"/>
        <rect id="Rectángulo_39821" data-name="Rectángulo 39821" width="7.012" height="2.728" transform="translate(27.945 1.362)" fill="#fff"/>
      </g>
      <path id="Trazado_211018" data-name="Trazado 211018" d="M1677.756,1213.479c.592-.384,1.932-1.228,1.992-1.026a.879.879,0,0,1-.2.633,5.651,5.651,0,0,1,3.493.011,1.422,1.422,0,0,1,.909.65.627.627,0,0,1-.256.97c-.991.564-.7.215-2.075,1.039a3.962,3.962,0,0,1-3.995.331l-1.312-.271-.08-2.178S1676.987,1213.577,1677.756,1213.479Z" transform="translate(-1626.466 -1169.536)" fill="#ffc299"/>
      <path id="Trazado_211019" data-name="Trazado 211019" d="M1496.452,1050.328c-3.615,2.25-7.357-.808-7.357-.808a16.975,16.975,0,0,0,.538-8.511c-.036-.2,6.3,2.417,6.5,2.459h0s0,.015.006.044.008.062.011.092c.1.853.169,1.7.215,2.491C1496.5,1048.461,1496.452,1050.328,1496.452,1050.328Z" transform="translate(-1471.962 -1028.005)" fill="#ffb27d"/>
      <path id="Trazado_211020" data-name="Trazado 211020" d="M1503.155,1056.6a9.178,9.178,0,0,1-5.828-2.784c-.224-.274,5.424.143,5.593.157h0l.006.044c0,.023.008.054.011.092C1503.04,1054.967,1503.109,1055.814,1503.155,1056.6Z" transform="translate(-1478.753 -1038.514)" fill="#ed975d"/>
      <path id="Trazado_211021" data-name="Trazado 211021" d="M1489.693,1004.266s-6.217,2.748-7.869-1.15-3.567-6.168.333-8.088,5.306-.761,6.174.406S1491.268,1003.451,1489.693,1004.266Z" transform="translate(-1464.344 -989.205)" fill="#ffb27d"/>
      <path id="Trazado_211022" data-name="Trazado 211022" d="M1465.861,989.065c-.078.074-1.4.766-5.037-4.017a4.677,4.677,0,0,1-.519-4.256c.673-1.766,3.878-3.656,6.633-4.734a5.563,5.563,0,0,1,3.469-.16,2.158,2.158,0,0,1,1.515,2.676,3.537,3.537,0,0,1-3.449,2.9c-1.1-.033-1.026,2.2-1.006,2.738s-.018.988-1.4.766c-1.182-.19-.515,1.372-.118,2.074a2.07,2.07,0,0,1,.282,1.137A1.28,1.28,0,0,1,1465.861,989.065Z" transform="translate(-1447.95 -974.088)" fill="#2a4e96"/>
      <path id="Trazado_211023" data-name="Trazado 211023" d="M1399.235,1600.943h-4.007c-.84,0-1.773-.841-2.007-2.381s-1.96-2.381-2.334-3.641,1.541-3.035,1.541-3.035l.32-.411.333-.429,3.174.747s.078.756.127,1.718a21.942,21.942,0,0,1,.013,2.2c-.094,1.681.471,3.49,1.964,3.818S1399.235,1600.943,1399.235,1600.943Z" transform="translate(-1390.84 -1482.138)" fill="#2c3a64"/>
      <path id="Trazado_211024" data-name="Trazado 211024" d="M1545.214,1620.422h-10.621a.94.94,0,0,1-.225-.065c-.709-.355-.487-3.07-.4-3.908.016-.156.028-.247.028-.247s3.734-2.987,4.249-.7c.016.072.035.142.055.21h0c.648,2.14,3.546,3.112,5.22,3.383A1.823,1.823,0,0,1,1545.214,1620.422Z" transform="translate(-1508.925 -1501.618)" fill="#2c3a64"/>
      <path id="Trazado_211025" data-name="Trazado 211025" d="M1511.639,1291.921s-.567,7.076-1.234,15.583c-.906,11.555-2,25.749-2.1,28.437-.186,4.669-.934,12.138-.934,12.138s-1.773,1.774-5.322,1.026a122.141,122.141,0,0,1-4.065-21.943c-.015-.185-.028-.371-.042-.557-.84-11.484-2.147-35.665-2.147-35.665Z" transform="translate(-1477.491 -1234.364)" fill="#ff9e55"/>
      <path id="Trazado_211026" data-name="Trazado 211026" d="M1486.382,1119.072c-1.5.091-17.294-.507-17.3-1.389a136.447,136.447,0,0,0-1.457-14.068q-.22-1.686-.347-3.343a50.869,50.869,0,0,1-.017-8.135c.4-4.641,1.6-7.62,3.615-9.365,0,0,1.892.156,3.635.418a7.842,7.842,0,0,0,4.059-.206l2.411,2.076a9.34,9.34,0,0,1,3.063,4.69S1486.516,1119.063,1486.382,1119.072Z" transform="translate(-1453.809 -1062.494)" fill="#2a4e96"/>
      <path id="Trazado_211027" data-name="Trazado 211027" d="M1483.013,1169.234a14.118,14.118,0,0,0,7.212,7.818c5.549,2.551,2.232-4.847,2.232-4.847Z" transform="translate(-1466.941 -1133.879)" fill="#1b407a"/>
      <path id="Trazado_211028" data-name="Trazado 211028" d="M1490.668,1122.791l-4.315,1-5.937,16.081a5.482,5.482,0,0,1-5.28,3.735l-.008.384.293,7.663,19.133,1.739s.091-9.591-.252-12.663C1493.795,1136.185,1490.668,1122.791,1490.668,1122.791Z" transform="translate(-1460.43 -1095.534)" fill="#ff9e55"/>
      <path id="Trazado_211029" data-name="Trazado 211029" d="M1513.489,1137.384c.136-1.256-.508-1.491-.508-1.491s-12.717-2.816-13.793-3.2-10.01-10.429-10.01-10.429-3.413-4.163-6.369-3.387a5.5,5.5,0,0,0-4.049,4.49c-.49,2.233-2.029,2.942-.127,4.212,4.267,2.85,15.3,10.063,17.337,10.747,4.534,1.522,16.9.762,16.9.762A3.974,3.974,0,0,0,1513.489,1137.384Z" transform="translate(-1462.56 -1092.222)" fill="#2a4e96"/>
      <path id="Trazado_211030" data-name="Trazado 211030" d="M1493.111,1082.474c-1-.933-4.383-3.323-4.383-3.323a2.524,2.524,0,0,1,.335-.425,2.624,2.624,0,0,1,.429-.338c.43-.091,3.759,2.414,4.868,3.4,1.335,1.189,5.04,4.92,5.04,4.92l-1.818.423S1494.293,1083.572,1493.111,1082.474Z" transform="translate(-1471.659 -1058.872)" fill="#ed823a"/>
      <g id="Grupo_94349" data-name="Grupo 94349" transform="translate(11.345 0)">
        <path id="Trazado_211031" data-name="Trazado 211031" d="M1470.17,972.337a24.666,24.666,0,0,1-3.393,1.628l-4.323,1.088-5.8,2.133s-1.968-4.237.46-7.557h0c.061-.084.125-.167.191-.248a7.937,7.937,0,0,1,2.977-2.192C1467.123,964.1,1470.093,972.083,1470.17,972.337Z" transform="translate(-1455.901 -966.479)" fill="#ff9e55"/>
        <g id="Grupo_94348" data-name="Grupo 94348" transform="translate(1.168 2.898)">
          <path id="Trazado_211032" data-name="Trazado 211032" d="M1472.365,987.545l-1.1.354c-1.1-1.011-5.1-4.481-8.66-4.463a.894.894,0,0,1,.044-.088h0c.047-.083.088-.128.154-.251l.037,0C1467.444,983.363,1471.431,986.639,1472.365,987.545Z" transform="translate(-1462.601 -983.096)" fill="#e27830"/>
        </g>
        <path id="Trazado_211033" data-name="Trazado 211033" d="M1466.019,1015.651a4.981,4.981,0,0,0-.665,1.885c-.051.875-3.85,2.076-4.2,1.689a11.941,11.941,0,0,1-.938-1.441Z" transform="translate(-1459.465 -1007.077)" fill="#ff9e55"/>
        <path id="Trazado_211034" data-name="Trazado 211034" d="M1493.484,996.539s7.191-1.154,10.156-3.467a.311.311,0,0,0-.169-.557,14.153,14.153,0,0,0-2.767.183S1498.521,995.288,1493.484,996.539Z" transform="translate(-1486.931 -987.965)" fill="#e27830"/>
      </g>
      <path id="Trazado_211035" data-name="Trazado 211035" d="M1509.526,1291.45s.367,4.416-1.675,12.7c-1.5,6.078-9.87,23.013-9.87,23.013-.015-.185-.028-.371-.042-.557-.84-11.484-2.147-35.665-2.147-35.665Z" transform="translate(-1477.491 -1234.364)" fill="#ed823a"/>
      <path id="Trazado_211036" data-name="Trazado 211036" d="M1430.4,1271.56s-10.7,26.94-17.422,38.984-8.823,15.405-8.823,15.405-3.851-1.541-4.2-2.591c0,0,2.57-23.251,7.072-28.919,2.543-3.2,5.531-12.814,5.672-16.175s.515-11.413.515-11.413Z" transform="translate(-1398.361 -1214.474)" fill="#ff9e55"/>
    </g>
  </g>
</svg>
