<svg xmlns="http://www.w3.org/2000/svg" width="140.093" height="160.349" viewBox="0 0 140.093 160.349">
  <g id="Grupo_97286" data-name="Grupo 97286" transform="translate(-1044.491 -5962.879)">
    <path id="Trazado_212945" data-name="Trazado 212945" d="M325.4,420.4a4.653,4.653,0,0,1-2.087,3.623l-65.865,38.027a4.648,4.648,0,0,1-4.182,0L187.4,424.021a4.643,4.643,0,0,1-2.093-3.623V344.344a4.641,4.641,0,0,1,2.093-3.624L253.271,302.7a4.629,4.629,0,0,1,4.182,0l65.865,38.024a4.651,4.651,0,0,1,2.087,3.624Z" transform="translate(859.179 5660.683)" fill="#fff" opacity="0.78" style="mix-blend-mode: screen;isolation: isolate"/>
    <path id="Trazado_212946" data-name="Trazado 212946" d="M323.157,418.856a4.529,4.529,0,0,1-2.037,3.533l-64.253,37.1a4.537,4.537,0,0,1-4.078,0l-64.256-37.1a4.525,4.525,0,0,1-2.04-3.533V344.661a4.539,4.539,0,0,1,2.04-3.536l64.256-37.091a4.519,4.519,0,0,1,4.078,0l64.253,37.091a4.544,4.544,0,0,1,2.037,3.536Z" transform="translate(859.714 5661.295)" fill="#472ea6" opacity="0.5"/>
    <g id="Grupo_96943" data-name="Grupo 96943" transform="translate(1099.735 5963.898)">
      <path id="Trazado_212947" data-name="Trazado 212947" d="M224.872,333.666a29.7,29.7,0,1,1,29.7,29.7A29.7,29.7,0,0,1,224.872,333.666Z" transform="translate(-222.63 -302.415)" fill="#9386ca"/>
      <path id="Trazado_212948" data-name="Trazado 212948" d="M286.825,334.646a31.748,31.748,0,1,0-31.75,31.747h.015A31.747,31.747,0,0,0,286.825,334.646Zm-9.567,16.021a39.653,39.653,0,0,0-7.136-2.678,58.542,58.542,0,0,0,1.472-12h12.519a28.882,28.882,0,0,1-5.349,15.5C278.277,351.2,277.778,350.929,277.258,350.667Zm1.447-32.943a28.9,28.9,0,0,1,5.407,15.581H271.588a57.356,57.356,0,0,0-1.51-12.1,39.4,39.4,0,0,0,7.138-2.677C277.732,318.275,278.224,318,278.705,317.724ZM268.918,333.3h-12.5V323.092a58.092,58.092,0,0,0,11.072-1.253A53.939,53.939,0,0,1,268.918,333.3Zm-12.5-12.875V305.721a8.506,8.506,0,0,1,3.714,1.93c2.683,2.231,5.042,6.349,6.648,11.6A54.619,54.619,0,0,1,256.417,320.43Zm-6.392-12.779a8.494,8.494,0,0,1,3.713-1.93v14.69a55.4,55.4,0,0,1-10.354-1.174,35.125,35.125,0,0,1,2.142-5.491A19.16,19.16,0,0,1,250.025,307.651Zm3.713,15.453v10.2H241.246a54.616,54.616,0,0,1,1.437-11.477A58.815,58.815,0,0,0,253.737,323.1Zm-15.178,10.2H226.043a28.9,28.9,0,0,1,5.427-15.613,36.593,36.593,0,0,0,8.588,3.5A58.326,58.326,0,0,0,238.559,333.3Zm.007,2.68a57.51,57.51,0,0,0,1.494,12.036,36.413,36.413,0,0,0-8.621,3.531,28.892,28.892,0,0,1-5.4-15.568Zm2.669,0h12.5V346.1a59.107,59.107,0,0,0-11.089,1.292A53.908,53.908,0,0,1,241.236,335.985Zm12.5,12.8v14.786a8.528,8.528,0,0,1-3.713-1.931c-2.694-2.238-5.066-6.382-6.667-11.666A55.8,55.8,0,0,1,253.737,348.787Zm6.394,12.854a8.54,8.54,0,0,1-3.714,1.931V348.765a54.745,54.745,0,0,1,10.387,1.173,35.332,35.332,0,0,1-2.175,5.611A19.112,19.112,0,0,1,260.131,361.641ZM256.417,346.1v-10.12h12.491a54.642,54.642,0,0,1-1.41,11.366A58.2,58.2,0,0,0,256.417,346.1Zm20.61-30.5a35.663,35.663,0,0,1-7.648,3.015,38.487,38.487,0,0,0-2.353-6.071A23.481,23.481,0,0,0,263,306.678a29.107,29.107,0,0,1,12.638,7.414C276.116,314.577,276.578,315.083,277.027,315.6Zm-29.862-8.925a29.294,29.294,0,0,0-6.4,11.917,36.162,36.162,0,0,1-6.552-2.46c-.371-.183-.7-.381-1.049-.574.437-.5.888-1,1.36-1.468A29.042,29.042,0,0,1,247.165,306.676Zm-14.042,47.009c.373-.211.732-.424,1.131-.621a36.2,36.2,0,0,1,6.5-2.446,38.686,38.686,0,0,0,2.37,6.126,23.506,23.506,0,0,0,4.03,5.868,29.008,29.008,0,0,1-12.634-7.412C234.037,354.713,233.572,354.2,233.123,353.685Zm29.869,8.928a29.367,29.367,0,0,0,6.432-12.031,35.636,35.636,0,0,1,7.671,3.031c-.471.543-.956,1.077-1.462,1.587A29.021,29.021,0,0,1,262.992,362.613Z" transform="translate(-223.329 -302.898)" fill="#fff"/>
    </g>
    <g id="Grupo_96946" data-name="Grupo 96946" transform="translate(1062.135 6012.879)">
      <g id="Grupo_96944" data-name="Grupo 96944">
        <path id="Trazado_212949" data-name="Trazado 212949" d="M247.3,354.85a.6.6,0,0,1-.652.525H237.2a.6.6,0,0,1-.651-.525v-5.943a.6.6,0,0,1,.651-.526h9.448a.6.6,0,0,1,.652.526Z" transform="translate(-179.737 -331.269)" fill="#003768"/>
        <path id="Trazado_212950" data-name="Trazado 212950" d="M247.3,360.625a.6.6,0,0,1-.652.526H237.2a.6.6,0,0,1-.651-.526v-5.943a.6.6,0,0,1,.651-.525h9.448a.6.6,0,0,1,.652.525Z" transform="translate(-179.737 -328.652)" fill="#fff"/>
        <path id="Trazado_212951" data-name="Trazado 212951" d="M247.3,366.4a.6.6,0,0,1-.652.523H237.2a.6.6,0,0,1-.651-.523v-5.945a.6.6,0,0,1,.651-.523h9.448a.6.6,0,0,1,.652.523Z" transform="translate(-179.737 -326.035)" fill="#f46300"/>
        <path id="Trazado_212952" data-name="Trazado 212952" d="M254.4,336.605h-51.72a3.087,3.087,0,0,0-3.088,3.089v67.157a3.089,3.089,0,0,0,3.088,3.088H254.4a3.09,3.09,0,0,0,3.089-3.088V339.694A3.089,3.089,0,0,0,254.4,336.605Zm-52.508,68.488a1.674,1.674,0,1,1,1.675-1.674A1.674,1.674,0,0,1,201.889,405.093Zm-1.736-25.862a1.673,1.673,0,1,1,1.674,1.671A1.674,1.674,0,0,1,200.153,379.231Zm1.736,19.879a1.673,1.673,0,1,1,1.675-1.673A1.673,1.673,0,0,1,201.889,399.11Zm0-6.179a1.672,1.672,0,1,1,1.675-1.67A1.67,1.67,0,0,1,201.889,392.932Zm0-6.173a1.673,1.673,0,1,1,1.675-1.673A1.673,1.673,0,0,1,201.889,386.759Zm0-12.031a1.673,1.673,0,1,1,1.675-1.671A1.674,1.674,0,0,1,201.889,374.728Zm0-5.981a1.674,1.674,0,1,1,1.675-1.674A1.675,1.675,0,0,1,201.889,368.747Zm0-6.112a1.673,1.673,0,1,1,1.675-1.674A1.673,1.673,0,0,1,201.889,362.635Zm0-6.112a1.673,1.673,0,1,1,1.675-1.674A1.673,1.673,0,0,1,201.889,356.523Zm0-6.112a1.673,1.673,0,1,1,1.675-1.673A1.673,1.673,0,0,1,201.889,350.411Zm0-6.112a1.673,1.673,0,1,1,1.675-1.674A1.674,1.674,0,0,1,201.889,344.3Z" transform="translate(-196.487 -336.605)" fill="#f74c0f"/>
        <path id="Trazado_212953" data-name="Trazado 212953" d="M203.631,341.026a.934.934,0,0,1-.873.984h-4.432a.932.932,0,0,1-.872-.984h0a.934.934,0,0,1,.872-.985h4.432a.936.936,0,0,1,.873.985Z" transform="translate(-197.454 -335.048)" fill="#fff"/>
        <path id="Trazado_212954" data-name="Trazado 212954" d="M203.631,345.215a.934.934,0,0,1-.873.984h-4.432a.932.932,0,0,1-.872-.984h0a.931.931,0,0,1,.872-.984h4.432a.933.933,0,0,1,.873.984Z" transform="translate(-197.454 -333.149)" fill="#fff"/>
        <path id="Trazado_212955" data-name="Trazado 212955" d="M203.631,349.405a.935.935,0,0,1-.873.984h-4.432a.933.933,0,0,1-.872-.984h0a.932.932,0,0,1,.872-.985h4.432a.934.934,0,0,1,.873.985Z" transform="translate(-197.454 -331.251)" fill="#fff"/>
        <path id="Trazado_212956" data-name="Trazado 212956" d="M203.631,353.592a.937.937,0,0,1-.873.987h-4.432a.935.935,0,0,1-.872-.987h0a.932.932,0,0,1,.872-.982h4.432a.934.934,0,0,1,.873.982Z" transform="translate(-197.454 -329.353)" fill="#fff"/>
        <path id="Trazado_212957" data-name="Trazado 212957" d="M203.631,357.784a.935.935,0,0,1-.873.985h-4.432a.933.933,0,0,1-.872-.985h0a.935.935,0,0,1,.872-.987h4.432a.937.937,0,0,1,.873.987Z" transform="translate(-197.454 -327.455)" fill="#fff"/>
        <path id="Trazado_212958" data-name="Trazado 212958" d="M203.631,361.973a.934.934,0,0,1-.873.984h-4.432a.932.932,0,0,1-.872-.984h0a.933.933,0,0,1,.872-.985h4.432a.935.935,0,0,1,.873.985Z" transform="translate(-197.454 -325.556)" fill="#fff"/>
        <path id="Trazado_212959" data-name="Trazado 212959" d="M203.631,366.162a.933.933,0,0,1-.873.984h-4.432a.931.931,0,0,1-.872-.984h0a.932.932,0,0,1,.872-.984h4.432a.934.934,0,0,1,.873.984Z" transform="translate(-197.454 -323.658)" fill="#fff"/>
        <path id="Trazado_212960" data-name="Trazado 212960" d="M203.631,370.349a.937.937,0,0,1-.873.988h-4.432a.935.935,0,0,1-.872-.988h0a.932.932,0,0,1,.872-.982h4.432a.934.934,0,0,1,.873.982Z" transform="translate(-197.454 -321.759)" fill="#fff"/>
        <path id="Trazado_212961" data-name="Trazado 212961" d="M203.631,374.539a.935.935,0,0,1-.873.985h-4.432a.933.933,0,0,1-.872-.985h0a.932.932,0,0,1,.872-.982h4.432a.934.934,0,0,1,.873.982Z" transform="translate(-197.454 -319.861)" fill="#fff"/>
        <path id="Trazado_212962" data-name="Trazado 212962" d="M203.631,378.73a.935.935,0,0,1-.873.985h-4.432a.933.933,0,0,1-.872-.985h0a.934.934,0,0,1,.872-.985h4.432a.936.936,0,0,1,.873.985Z" transform="translate(-197.454 -317.963)" fill="#fff"/>
        <path id="Trazado_212963" data-name="Trazado 212963" d="M203.631,382.918a.932.932,0,0,1-.873.984h-4.432a.93.93,0,0,1-.872-.984h0a.931.931,0,0,1,.872-.982h4.432a.933.933,0,0,1,.873.982Z" transform="translate(-197.454 -316.064)" fill="#fff"/>
      </g>
      <g id="Grupo_96945" data-name="Grupo 96945" transform="translate(25.941 14.305)">
        <path id="Trazado_212964" data-name="Trazado 212964" d="M231.969,366.44a11.314,11.314,0,0,1-3.377,1.755c-1.219.176-2.2,0-5.276-3.011a34.043,34.043,0,0,1-7.311-11.5c-.956-3.075-1.055-3.954.478-5.436a11.092,11.092,0,0,1,2.226-1.739.453.453,0,0,1,.664.269l1.661,4.978c.2.49.106.674-.007.772a3.939,3.939,0,0,0-1.3,1.7c-.267.727-.291,1.565.7,3.246,1.023,1.75,3.246,4.7,4.171,5.045a4.032,4.032,0,0,0,2.456-.4.917.917,0,0,1,.923.124l4.019,3.509A.415.415,0,0,1,231.969,366.44Z" transform="translate(-215.305 -346.449)" fill="#fff"/>
      </g>
    </g>
    <g id="Grupo_96952" data-name="Grupo 96952" transform="translate(1105.512 6024.195)">
      <g id="Grupo_96951" data-name="Grupo 96951">
        <g id="Grupo_96948" data-name="Grupo 96948">
          <g id="Grupo_96947" data-name="Grupo 96947">
            <path id="Trazado_212965" data-name="Trazado 212965" d="M280.572,362.319c-1.5-.324-1.792-.852-1.841-1.293a11.521,11.521,0,0,0-1.957-5.919c-1.312-1.828-3.291-3.258-8.954-3.637-5.892-.4-16.62.134-18.974,1.8s-3.069,6.558-3.069,6.558a2.672,2.672,0,0,1-1.8,2.023l-15.033,3.931a1.2,1.2,0,0,1-1.614-1.17s-.283-7.789,1.292-11,3.607-5.307,15.893-7.771,30.49-1.572,39.661,1.213c8.963,2.728,11.244,3.926,12.3,10.047a32.393,32.393,0,0,1,.546,8.207,1.327,1.327,0,0,1-1.738,1.161Z" transform="translate(-227.304 -344.392)" fill="#d1e6e8"/>
          </g>
        </g>
        <path id="Trazado_212966" data-name="Trazado 212966" d="M261.136,367.174a7.3,7.3,0,1,0,7.3,7.3A7.3,7.3,0,0,0,261.136,367.174Zm18.914-3.646a3.369,3.369,0,0,0-3.368-3.368h-3.39v-3.748a4.249,4.249,0,0,0-4.249-4.252h-17a4.25,4.25,0,0,0-4.248,4.252v3.748h-4.23a3.368,3.368,0,0,0-3.367,3.368l-9.259,29.182a3.368,3.368,0,0,0,3.367,3.37h52.477a3.367,3.367,0,0,0,3.364-3.37Zm-18.914,21.044a10.1,10.1,0,1,1,10.1-10.1A10.1,10.1,0,0,1,261.136,384.572Z" transform="translate(-225.656 -340.872)" fill="#d1e6e8"/>
        <g id="Grupo_96950" data-name="Grupo 96950" transform="translate(34.862 0.01)">
          <g id="Grupo_96949" data-name="Grupo 96949">
            <path id="Trazado_212967" data-name="Trazado 212967" d="M256.948,351.467c5.663.379,7.642,1.809,8.954,3.637a11.521,11.521,0,0,1,1.957,5.919c.049.442.344.969,1.841,1.293l14.71,4.141a1.327,1.327,0,0,0,1.738-1.161,32.39,32.39,0,0,0-.546-8.207c-1.059-6.121-3.341-7.319-12.3-10.047-5.287-1.606-13.575-2.576-22-2.643v6.959C253.358,351.322,255.339,351.36,256.948,351.467Z" transform="translate(-251.295 -344.399)" fill="#fff"/>
          </g>
        </g>
        <path id="Trazado_212968" data-name="Trazado 212968" d="M280.926,392.71l-10.1-29.182a3.369,3.369,0,0,0-3.368-3.368h-3.39v-3.748a4.249,4.249,0,0,0-4.249-4.252H251.3V364.4c.206-.013.408-.031.618-.031a10.1,10.1,0,1,1,0,20.2c-.209,0-.411-.019-.618-.031V396.08h26.267A3.367,3.367,0,0,0,280.926,392.71Z" transform="translate(-216.433 -340.872)" fill="#fff"/>
      </g>
    </g>
  </g>
</svg>
