<?xml version="1.0" encoding="utf-8"?>
<!-- Generator: Adobe Illustrator 25.4.2, SVG Export Plug-In . SVG Version: 6.00 Build 0)  -->
<svg version="1.1" id="Capa_1" xmlns="http://www.w3.org/2000/svg" xmlns:xlink="http://www.w3.org/1999/xlink" x="0px" y="0px"
	 viewBox="0 0 1030 549.7" style="enable-background:new 0 0 1030 549.7;" xml:space="preserve">
<style type="text/css">
	.st0{fill:#472EA6;}
	.st1{clip-path:url(#SVGID_00000087398275381864403880000003413542256528716943_);}
	.st2{fill:none;}
	.st3{fill:none;stroke:#707070;stroke-width:2;stroke-dasharray:2,3;}
	.st4{fill:none;stroke:#472EA6;stroke-width:2;stroke-dasharray:2,3;}
	.st5{enable-background:new    ;}
	.st6{fill:#FFFFFF;}
	.st7{opacity:0.25;fill:#BBABF5;enable-background:new    ;}
	.st8{fill:#12263F;}
	.st9{fill:#F6F6F6;}
	.st10{fill:#9C86EC;}
	.st11{fill:none;stroke:#FFFFFF;stroke-width:3;}
</style>
<circle class="st0" cx="515" cy="280.9" r="101.3"/>
<g>
	<g>
		<g>
			<defs>
				<circle id="SVGID_1_" cx="1343.3" cy="639.6" r="101.3"/>
			</defs>
			<clipPath id="SVGID_00000036953164601694384200000009771319191264799632_">
				<use xlink:href="#SVGID_1_"  style="overflow:visible;"/>
			</clipPath>
			
				<g id="Enmascarar_grupo_119" transform="translate(413.999 179.204)" style="clip-path:url(#SVGID_00000036953164601694384200000009771319191264799632_);">
				<g id="Grupo_81494" transform="translate(-6.204 -1.858)">
					<rect id="Rectángulo_35865" x="0" y="0.7" class="st0" width="208.6" height="206.3"/>
				</g>
			</g>
		</g>
	</g>
</g>
<g id="Elipse_4801" transform="translate(407.973 173.69)">
	<ellipse class="st2" cx="107.1" cy="107.7" rx="107.1" ry="107.1"/>
	<ellipse class="st3" cx="107.1" cy="107.7" rx="106.1" ry="106.1"/>
</g>
<g id="Elipse_4775" transform="translate(386.516 150.784)">
	<ellipse class="st2" cx="128.8" cy="129.5" rx="128.8" ry="128.8"/>
	<ellipse class="st4" cx="128.8" cy="129.5" rx="127.8" ry="127.8"/>
</g>
<g class="st5">
	<path class="st6" d="M472.2,266.9h-8.4v-14h8.1v2.6H467v3.1h4.6v2.6H467v3.2h5.2V266.9z"/>
	<path class="st6" d="M483.7,256.9l-3.7,10h-3.5l-3.5-10h3.3l1.7,6.2c0.2,0.7,0.3,1.3,0.3,1.8l0,0c0-0.5,0.2-1,0.4-1.7l1.8-6.2
		L483.7,256.9L483.7,256.9z"/>
	<path class="st6" d="M493,266.9h-2.9v-1.4l0,0c-0.7,1.1-1.7,1.7-3,1.7c-1,0-1.7-0.3-2.3-0.8s-0.8-1.3-0.8-2.2
		c0-1.9,1.1-3.1,3.4-3.4l2.7-0.4c0-1.1-0.6-1.6-1.8-1.6c-1.2,0-2.3,0.4-3.4,1.1v-2.3c0.4-0.2,1-0.4,1.8-0.6s1.4-0.3,2-0.3
		c2.9,0,4.3,1.4,4.3,4.3L493,266.9L493,266.9z M490.1,262.8v-0.7l-1.8,0.2c-1,0.1-1.5,0.6-1.5,1.4c0,0.4,0.1,0.6,0.4,0.9
		s0.6,0.3,1,0.3c0.6,0,1.1-0.2,1.4-0.6S490.1,263.4,490.1,262.8z"/>
	<path class="st6" d="M498.5,266.9h-3.1v-14.8h3.1V266.9z"/>
	<path class="st6" d="M510.6,266.9h-3.1v-1.5l0,0c-0.8,1.2-1.8,1.8-3.1,1.8c-2.3,0-3.5-1.4-3.5-4.2v-6h3.1v5.8
		c0,1.4,0.6,2.1,1.7,2.1c0.6,0,1-0.2,1.3-0.6s0.5-0.9,0.5-1.6V257h3.1V266.9z"/>
	<path class="st6" d="M521.5,266.9h-2.9v-1.4l0,0c-0.7,1.1-1.7,1.7-3,1.7c-1,0-1.7-0.3-2.3-0.8s-0.8-1.3-0.8-2.2
		c0-1.9,1.1-3.1,3.4-3.4l2.7-0.4c0-1.1-0.6-1.6-1.8-1.6s-2.3,0.4-3.4,1.1v-2.3c0.4-0.2,1-0.4,1.8-0.6s1.4-0.3,2-0.3
		c2.9,0,4.3,1.4,4.3,4.3V266.9z M518.6,262.8v-0.7l-1.8,0.2c-1,0.1-1.5,0.6-1.5,1.4c0,0.4,0.1,0.6,0.4,0.9s0.6,0.3,1,0.3
		c0.6,0,1.1-0.2,1.4-0.6C518.5,263.9,518.6,263.4,518.6,262.8z"/>
	<path class="st6" d="M531.6,266.5c-0.7,0.4-1.7,0.6-3,0.6c-1.5,0-2.8-0.5-3.7-1.4c-1-0.9-1.4-2.1-1.4-3.6c0-1.7,0.5-3,1.5-4
		s2.4-1.5,4.1-1.5c1.2,0,2,0.2,2.6,0.5v2.6c-0.6-0.5-1.4-0.7-2.2-0.7c-0.9,0-1.6,0.3-2.1,0.8s-0.8,1.2-0.8,2.1s0.2,1.6,0.7,2.1
		s1.2,0.8,2,0.8s1.5-0.2,2.3-0.7L531.6,266.5L531.6,266.5z"/>
	<path class="st6" d="M535.1,255.3c-0.5,0-0.9-0.2-1.3-0.5s-0.5-0.7-0.5-1.1c0-0.5,0.2-0.8,0.5-1.1s0.8-0.4,1.3-0.4s1,0.1,1.3,0.4
		c0.3,0.3,0.5,0.7,0.5,1.1c0,0.5-0.2,0.9-0.5,1.2C536.1,255.1,535.7,255.3,535.1,255.3z M536.7,266.9h-3.1v-10h3.1V266.9z"/>
	<path class="st6" d="M544,267.1c-1.7,0-3-0.5-3.9-1.4c-1-0.9-1.4-2.2-1.4-3.8c0-1.7,0.5-2.9,1.5-3.9c1-0.9,2.3-1.4,4-1.4
		s3,0.5,3.9,1.4s1.4,2.2,1.4,3.7c0,1.7-0.5,3-1.5,3.9C547.1,266.6,545.7,267.1,544,267.1z M544.1,259c-0.7,0-1.3,0.3-1.7,0.8
		s-0.6,1.2-0.6,2.1c0,1.9,0.8,2.9,2.3,2.9s2.2-1,2.2-3C546.3,259.9,545.6,259,544.1,259z M547.4,252.1l-3.1,3.2h-2.2l2.5-3.2H547.4z
		"/>
	<path class="st6" d="M561.1,266.9H558v-5.6c0-1.5-0.6-2.3-1.7-2.3c-0.5,0-1,0.2-1.3,0.6s-0.5,0.9-0.5,1.6v5.7h-3.1v-10h3.1v1.6l0,0
		c0.7-1.2,1.8-1.8,3.2-1.8c2.2,0,3.3,1.4,3.3,4.1L561.1,266.9L561.1,266.9z"/>
</g>
<g class="st5">
	<path class="st6" d="M511.7,290.9h-3.1v-1.4l0,0c-0.7,1.1-1.7,1.6-3.1,1.6c-1.2,0-2.3-0.4-3-1.3s-1.1-2.1-1.1-3.7
		c0-1.7,0.4-3,1.3-4s1.9-1.5,3.3-1.5c1.3,0,2.2,0.5,2.7,1.4l0,0v-5.9h3.1L511.7,290.9L511.7,290.9z M508.7,286v-0.8
		c0-0.7-0.2-1.2-0.6-1.6s-0.9-0.6-1.5-0.6c-0.7,0-1.2,0.3-1.6,0.8s-0.6,1.3-0.6,2.2c0,0.9,0.2,1.6,0.6,2s0.9,0.7,1.5,0.7
		s1.1-0.3,1.5-0.8S508.7,286.8,508.7,286z"/>
	<path class="st6" d="M523.3,286.8h-6.5c0.1,1.5,1,2.2,2.7,2.2c1.1,0,2.1-0.3,2.9-0.8v2.2c-0.9,0.5-2.1,0.7-3.6,0.7
		c-1.6,0-2.9-0.4-3.8-1.3s-1.3-2.1-1.3-3.7c0-1.7,0.5-3,1.4-3.9c1-1,2.1-1.5,3.6-1.5s2.6,0.4,3.4,1.3s1.2,2,1.2,3.5L523.3,286.8
		L523.3,286.8z M520.4,284.9c0-1.4-0.6-2.1-1.7-2.1c-0.5,0-0.9,0.2-1.3,0.6s-0.6,0.9-0.7,1.5H520.4z"/>
</g>
<g class="st5">
	<path class="st6" d="M461,313.7L461,313.7v5.8h-3.1v-14.6h3.1v1.5l0,0c0.8-1.2,1.8-1.7,3.2-1.7c1.3,0,2.3,0.4,3,1.3
		s1.1,2.1,1.1,3.6c0,1.7-0.4,3-1.2,4s-1.9,1.5-3.3,1.5C462.5,315.1,461.6,314.6,461,313.7z M460.9,309.6v0.8c0,0.7,0.2,1.3,0.5,1.7
		s0.8,0.7,1.4,0.7c0.7,0,1.2-0.3,1.6-0.8s0.6-1.3,0.6-2.3c0-1.8-0.7-2.6-2.1-2.6c-0.6,0-1.1,0.2-1.5,0.7S460.9,308.8,460.9,309.6z"
		/>
	<path class="st6" d="M476.8,307.7c-0.4-0.2-0.8-0.3-1.3-0.3c-0.7,0-1.2,0.2-1.6,0.7s-0.6,1.2-0.6,2v4.8h-3.1v-10h3.1v1.9l0,0
		c0.5-1.4,1.4-2,2.6-2c0.3,0,0.6,0,0.8,0.1v2.8H476.8z"/>
	<path class="st6" d="M482.9,315.1c-1.7,0-3-0.5-3.9-1.4s-1.4-2.2-1.4-3.8c0-1.7,0.5-2.9,1.5-3.9s2.3-1.4,4-1.4s3,0.5,3.9,1.4
		s1.4,2.2,1.4,3.7c0,1.7-0.5,3-1.5,3.9S484.6,315.1,482.9,315.1z M483,307c-0.7,0-1.3,0.3-1.7,0.8s-0.6,1.2-0.6,2.1
		c0,1.9,0.8,2.9,2.3,2.9s2.2-1,2.2-3C485.2,307.9,484.5,307,483,307z"/>
	<path class="st6" d="M499.9,304.9l-3.7,10h-3.5l-3.5-10h3.3l1.7,6.2c0.2,0.7,0.3,1.3,0.3,1.8l0,0c0-0.5,0.2-1,0.4-1.7l1.8-6.2
		L499.9,304.9L499.9,304.9z"/>
	<path class="st6" d="M510,310.8h-6.5c0.1,1.5,1,2.2,2.7,2.2c1.1,0,2.1-0.3,2.9-0.8v2.2c-0.9,0.5-2.1,0.7-3.6,0.7
		c-1.6,0-2.9-0.4-3.8-1.3s-1.3-2.1-1.3-3.7c0-1.7,0.5-3,1.4-3.9s2.1-1.5,3.6-1.5s2.6,0.4,3.4,1.3s1.2,2,1.2,3.5L510,310.8L510,310.8
		z M507.1,308.9c0-1.4-0.6-2.1-1.7-2.1c-0.5,0-0.9,0.2-1.3,0.6s-0.6,0.9-0.7,1.5H507.1z"/>
	<path class="st6" d="M520.8,310.8h-6.5c0.1,1.5,1,2.2,2.7,2.2c1.1,0,2.1-0.3,2.9-0.8v2.2c-0.9,0.5-2.1,0.7-3.6,0.7
		c-1.6,0-2.9-0.4-3.8-1.3s-1.3-2.1-1.3-3.7c0-1.7,0.5-3,1.4-3.9s2.1-1.5,3.6-1.5s2.6,0.4,3.4,1.3c0.8,0.9,1.2,2,1.2,3.5L520.8,310.8
		L520.8,310.8z M517.9,308.9c0-1.4-0.6-2.1-1.7-2.1c-0.5,0-0.9,0.2-1.3,0.6s-0.6,0.9-0.7,1.5H517.9z"/>
	<path class="st6" d="M532.4,314.9h-3.1v-1.4l0,0c-0.7,1.1-1.7,1.6-3.1,1.6c-1.2,0-2.3-0.4-3-1.3s-1.1-2.1-1.1-3.7
		c0-1.7,0.4-3,1.3-4s1.9-1.5,3.3-1.5c1.3,0,2.2,0.5,2.7,1.4l0,0v-5.9h3.1v14.8H532.4z M529.4,310v-0.8c0-0.7-0.2-1.2-0.6-1.6
		c-0.4-0.4-0.9-0.6-1.5-0.6c-0.7,0-1.2,0.3-1.6,0.8c-0.4,0.5-0.6,1.3-0.6,2.2c0,0.9,0.2,1.6,0.6,2s0.9,0.7,1.5,0.7s1.1-0.3,1.5-0.8
		C529.2,311.5,529.4,310.8,529.4,310z"/>
	<path class="st6" d="M539.8,315.1c-1.7,0-3-0.5-3.9-1.4c-1-0.9-1.4-2.2-1.4-3.8c0-1.7,0.5-2.9,1.5-3.9c1-0.9,2.3-1.4,4-1.4
		s3,0.5,3.9,1.4s1.4,2.2,1.4,3.7c0,1.7-0.5,3-1.5,3.9C542.8,314.6,541.5,315.1,539.8,315.1z M539.9,307c-0.7,0-1.3,0.3-1.7,0.8
		s-0.6,1.2-0.6,2.1c0,1.9,0.8,2.9,2.3,2.9s2.2-1,2.2-3C542.1,307.9,541.4,307,539.9,307z"/>
	<path class="st6" d="M553.8,307.7c-0.4-0.2-0.8-0.3-1.3-0.3c-0.7,0-1.2,0.2-1.6,0.7c-0.4,0.5-0.6,1.2-0.6,2v4.8h-3.1v-10h3.1v1.9
		l0,0c0.5-1.4,1.4-2,2.6-2c0.3,0,0.6,0,0.8,0.1L553.8,307.7L553.8,307.7z"/>
	<path class="st6" d="M564.1,310.8h-6.5c0.1,1.5,1,2.2,2.7,2.2c1.1,0,2.1-0.3,2.9-0.8v2.2c-0.9,0.5-2.1,0.7-3.6,0.7
		c-1.6,0-2.9-0.4-3.8-1.3c-0.9-0.9-1.3-2.1-1.3-3.7c0-1.7,0.5-3,1.4-3.9c1-1,2.1-1.5,3.6-1.5s2.6,0.4,3.4,1.3c0.8,0.9,1.2,2,1.2,3.5
		L564.1,310.8L564.1,310.8z M561.3,308.9c0-1.4-0.6-2.1-1.7-2.1c-0.5,0-0.9,0.2-1.3,0.6s-0.6,0.9-0.7,1.5H561.3z"/>
	<path class="st6" d="M565.3,314.6v-2.5c0.5,0.3,1,0.5,1.5,0.7c0.5,0.1,1,0.2,1.4,0.2c0.5,0,1-0.1,1.3-0.2s0.5-0.4,0.5-0.7
		c0-0.2-0.1-0.4-0.2-0.5c-0.1-0.1-0.3-0.2-0.6-0.3s-0.5-0.2-0.7-0.3c-0.3-0.1-0.5-0.2-0.8-0.3c-0.4-0.1-0.7-0.3-1-0.5
		s-0.6-0.4-0.8-0.6s-0.4-0.5-0.5-0.8s-0.2-0.7-0.2-1.1c0-0.6,0.1-1,0.4-1.4s0.6-0.7,1-1s0.9-0.4,1.4-0.6c0.5-0.1,1.1-0.2,1.6-0.2
		c0.4,0,0.9,0,1.3,0.1c0.5,0.1,0.9,0.2,1.3,0.3v2.4c-0.4-0.2-0.8-0.4-1.3-0.5c-0.4-0.1-0.9-0.2-1.3-0.2c-0.2,0-0.4,0-0.6,0.1
		c-0.2,0-0.3,0.1-0.5,0.2s-0.2,0.2-0.3,0.3s-0.1,0.2-0.1,0.4c0,0.2,0.1,0.3,0.2,0.5s0.3,0.2,0.5,0.3c0.2,0.1,0.4,0.2,0.6,0.3
		c0.2,0.1,0.5,0.2,0.7,0.2c0.4,0.1,0.8,0.3,1.1,0.5s0.6,0.4,0.9,0.6c0.2,0.2,0.4,0.5,0.5,0.8s0.2,0.7,0.2,1.1c0,0.6-0.1,1.1-0.4,1.5
		c-0.3,0.4-0.6,0.8-1,1c-0.4,0.3-0.9,0.5-1.5,0.6s-1.1,0.2-1.7,0.2C567.3,315.1,566.2,314.9,565.3,314.6z"/>
</g>
<path id="Sustracción_5" class="st7" d="M370.9,86.9H15c-8.3,0-15-6.7-15-15l0,0v-31c0-8.3,6.7-15,15-15h356.3
	C360.9,44.9,360.8,67.8,370.9,86.9z"/>
<path id="Sustracción_10" class="st7" d="M658.7,25.9H1015c8.3,0,15,6.7,15,15v31c0,8.3-6.7,15-15,15H659.1
	C669.2,67.8,669.1,44.9,658.7,25.9L658.7,25.9z"/>
<path id="Sustracción_9" class="st7" d="M371.2,524.9H15c-8.3,0-15-6.7-15-15v-32c0-8.3,6.7-15,15-15h356.6
	C360.8,482.1,360.7,505.5,371.2,524.9L371.2,524.9z"/>
<path id="Sustracción_14" class="st7" d="M658.4,462.9H1015c8.3,0,15,6.7,15,15v32c0,8.3-6.7,15-15,15H658.8
	C669.3,505.5,669.2,482.1,658.4,462.9z"/>
<path id="Sustracción_6" class="st7" d="M271.2,182.1H15.6c-8.3,0-15-6.7-15-15v-31.7c0-8.3,6.7-15,15-15h255.2
	C260.4,139.7,260.6,163,271.2,182.1L271.2,182.1L271.2,182.1L271.2,182.1z"/>
<path id="Sustracción_11" class="st7" d="M759.2,120.4h255.2c8.3,0,15,6.7,15,15v31.7c0,8.3-6.7,15-15,15H758.8
	C769.4,163,769.6,139.7,759.2,120.4L759.2,120.4z"/>
<path id="Sustracción_8" class="st7" d="M271.2,427.9H15.6c-8.3,0-15-6.7-15-15v-31.7c0-8.3,6.7-15,15-15h255.2
	C260.4,385.5,260.6,408.7,271.2,427.9L271.2,427.9L271.2,427.9L271.2,427.9z"/>
<path id="Sustracción_13" class="st7" d="M759.2,366.2h255.2c8.3,0,15,6.7,15,15v31.7c0,8.3-6.7,15-15,15H758.8
	C769.4,408.7,769.6,385.5,759.2,366.2L759.2,366.2z"/>
<path id="Sustracción_7" class="st7" d="M235.4,304.5H15.6c-8.3,0-15-6.7-15-15v-31.7c0-8.3,6.7-15,15-15H235
	C224.6,262.1,224.8,285.3,235.4,304.5L235.4,304.5L235.4,304.5L235.4,304.5z"/>
<path id="Sustracción_12" class="st7" d="M795,242.8h219.4c8.3,0,15,6.7,15,15v31.7c0,8.3-6.7,15-15,15H794.6
	C805.2,285.3,805.4,262.1,795,242.8L795,242.8z"/>
<g class="st5">
	<path class="st8" d="M26.9,61.4v-1.5c0.2,0.2,0.4,0.3,0.6,0.4c0.2,0.1,0.5,0.2,0.8,0.3s0.5,0.2,0.8,0.2s0.5,0.1,0.8,0.1
		c0.8,0,1.4-0.1,1.8-0.4c0.4-0.3,0.6-0.7,0.6-1.3c0-0.3-0.1-0.6-0.2-0.8s-0.3-0.4-0.6-0.6s-0.5-0.4-0.8-0.5s-0.7-0.3-1-0.5
		c-0.4-0.2-0.8-0.4-1.1-0.6c-0.3-0.2-0.6-0.4-0.9-0.7s-0.4-0.5-0.6-0.8C27,54.3,27,53.9,27,53.5c0-0.5,0.1-1,0.3-1.3
		c0.2-0.4,0.5-0.7,0.9-0.9s0.8-0.4,1.2-0.5c0.5-0.1,0.9-0.2,1.4-0.2c1.1,0,1.9,0.1,2.4,0.4v1.5c-0.7-0.5-1.5-0.7-2.5-0.7
		c-0.3,0-0.6,0-0.9,0.1s-0.5,0.2-0.8,0.3c-0.2,0.1-0.4,0.3-0.5,0.5s-0.2,0.5-0.2,0.8s0.1,0.5,0.2,0.7s0.3,0.4,0.5,0.6
		c0.2,0.2,0.5,0.3,0.8,0.5s0.6,0.3,1,0.5s0.8,0.4,1.1,0.6c0.3,0.2,0.7,0.5,0.9,0.7c0.3,0.3,0.5,0.6,0.6,0.9c0.2,0.3,0.2,0.7,0.2,1.1
		c0,0.6-0.1,1-0.3,1.4s-0.5,0.7-0.9,0.9s-0.8,0.4-1.3,0.5s-1,0.2-1.5,0.2c-0.2,0-0.4,0-0.7,0c-0.3,0-0.5-0.1-0.8-0.1
		c-0.3-0.1-0.5-0.1-0.8-0.2S27.1,61.5,26.9,61.4z"/>
	<path class="st8" d="M42.2,58.2h-5.6c0,0.9,0.3,1.6,0.7,2.1c0.5,0.5,1.1,0.7,1.9,0.7c0.9,0,1.7-0.3,2.5-0.9v1.2
		c-0.7,0.5-1.6,0.8-2.8,0.8c-1.1,0-2-0.4-2.7-1.1c-0.6-0.7-1-1.7-1-3.1c0-1.2,0.4-2.3,1.1-3c0.7-0.8,1.6-1.2,2.6-1.2s1.9,0.3,2.4,1
		c0.6,0.7,0.9,1.6,0.9,2.8C42.2,57.5,42.2,58.2,42.2,58.2z M40.9,57.1c0-0.7-0.2-1.3-0.5-1.7s-0.8-0.6-1.5-0.6
		c-0.6,0-1.1,0.2-1.5,0.6s-0.7,1-0.8,1.7H40.9z"/>
	<path class="st8" d="M51,61.2c0,2.9-1.4,4.4-4.2,4.4c-1,0-1.9-0.2-2.6-0.6v-1.3c0.9,0.5,1.8,0.8,2.6,0.8c2,0,3-1,3-3.1v-0.9l0,0
		c-0.6,1-1.5,1.5-2.8,1.5c-1,0-1.8-0.4-2.4-1.1c-0.6-0.7-0.9-1.7-0.9-2.9c0-1.4,0.3-2.4,1-3.2s1.5-1.2,2.7-1.2
		c1.1,0,1.9,0.4,2.4,1.3l0,0v-1.1H51V61.2z M49.7,58.3v-1.2c0-0.6-0.2-1.2-0.6-1.6s-1-0.7-1.6-0.7c-0.8,0-1.4,0.3-1.9,0.9
		c-0.4,0.6-0.7,1.4-0.7,2.4c0,0.9,0.2,1.6,0.6,2.1s1,0.8,1.7,0.8s1.3-0.3,1.8-0.8S49.7,59.1,49.7,58.3z"/>
	<path class="st8" d="M60.1,61.9h-1.3v-1.3l0,0c-0.5,1-1.4,1.5-2.5,1.5c-1.9,0-2.9-1.1-2.9-3.4v-4.8h1.3v4.6c0,1.7,0.6,2.5,1.9,2.5
		c0.6,0,1.1-0.2,1.5-0.7s0.6-1.1,0.6-1.8v-4.6H60L60.1,61.9L60.1,61.9z"/>
	<path class="st8" d="M66.8,55.2c-0.2-0.2-0.5-0.3-1-0.3s-1,0.3-1.4,0.8s-0.6,1.2-0.6,2.1v4.1h-1.3v-8h1.3v1.6l0,0
		c0.2-0.6,0.5-1,0.8-1.3s0.8-0.5,1.3-0.5c0.3,0,0.6,0,0.8,0.1L66.8,55.2L66.8,55.2z"/>
	<path class="st8" d="M68.9,51.8c-0.2,0-0.4-0.1-0.6-0.2C68.1,51.5,68,51.3,68,51s0.1-0.4,0.2-0.6c0.2-0.2,0.4-0.2,0.6-0.2
		s0.4,0.1,0.6,0.2s0.2,0.4,0.2,0.6c0,0.2-0.1,0.4-0.2,0.6S69.1,51.8,68.9,51.8z M69.5,61.9h-1.3v-8h1.3V61.9z"/>
	<path class="st8" d="M78.9,61.9h-1.3v-1.4l0,0c-0.6,1-1.5,1.5-2.8,1.5c-1,0-1.8-0.4-2.4-1.1s-0.9-1.7-0.9-2.9c0-1.3,0.3-2.4,1-3.2
		s1.6-1.2,2.7-1.2s1.9,0.4,2.4,1.3l0,0v-5h1.3C78.9,49.9,78.9,61.9,78.9,61.9z M77.6,58.3v-1.2c0-0.6-0.2-1.2-0.6-1.6
		c-0.4-0.4-1-0.7-1.6-0.7c-0.8,0-1.4,0.3-1.8,0.9c-0.4,0.6-0.7,1.4-0.7,2.4c0,0.9,0.2,1.6,0.6,2.2s1,0.8,1.7,0.8s1.3-0.3,1.7-0.8
		S77.6,59,77.6,58.3z"/>
	<path class="st8" d="M87.2,61.9h-1.3v-1.2l0,0c-0.6,1-1.4,1.4-2.5,1.4c-0.8,0-1.4-0.2-1.9-0.6c-0.5-0.4-0.7-1-0.7-1.7
		c0-1.5,0.9-2.4,2.6-2.6l2.4-0.3c0-1.4-0.5-2-1.6-2c-1,0-1.8,0.3-2.6,1v-1.3c0.8-0.5,1.7-0.8,2.7-0.8c1.9,0,2.8,1,2.8,3L87.2,61.9
		L87.2,61.9z M85.9,57.8L84,58.1c-0.6,0.1-1,0.2-1.3,0.4s-0.5,0.6-0.5,1.1c0,0.4,0.1,0.7,0.4,1c0.3,0.2,0.6,0.4,1.1,0.4
		c0.6,0,1.2-0.2,1.6-0.7s0.6-1,0.6-1.7C85.9,58.6,85.9,57.8,85.9,57.8z"/>
	<path class="st8" d="M96.5,61.9h-1.3v-1.4l0,0c-0.6,1-1.5,1.5-2.8,1.5c-1,0-1.8-0.4-2.4-1.1s-0.9-1.7-0.9-2.9c0-1.3,0.3-2.4,1-3.2
		s1.6-1.2,2.7-1.2s1.9,0.4,2.4,1.3l0,0v-5h1.3C96.5,49.9,96.5,61.9,96.5,61.9z M95.2,58.3v-1.2c0-0.6-0.2-1.2-0.6-1.6
		c-0.4-0.4-1-0.7-1.6-0.7c-0.8,0-1.4,0.3-1.8,0.9c-0.4,0.6-0.7,1.4-0.7,2.4c0,0.9,0.2,1.6,0.6,2.2s1,0.8,1.7,0.8s1.3-0.3,1.7-0.8
		S95.2,59,95.2,58.3z"/>
	<path class="st8" d="M104.1,51.8c-0.2,0-0.4-0.1-0.6-0.2c-0.2-0.2-0.2-0.4-0.2-0.6s0.1-0.4,0.2-0.6c0.2-0.2,0.4-0.2,0.6-0.2
		s0.4,0.1,0.6,0.2s0.2,0.4,0.2,0.6c0,0.2-0.1,0.4-0.2,0.6S104.3,51.8,104.1,51.8z M104.7,61.9h-1.3v-8h1.3V61.9z"/>
	<path class="st8" d="M114,61.9h-1.3v-4.6c0-1.7-0.6-2.5-1.9-2.5c-0.6,0-1.2,0.2-1.6,0.7s-0.6,1.1-0.6,1.8v4.6h-1.3v-8h1.3v1.3l0,0
		c0.6-1,1.5-1.5,2.6-1.5c0.9,0,1.5,0.3,2,0.8c0.5,0.6,0.7,1.4,0.7,2.4v5H114z"/>
	<path class="st8" d="M123.2,61.9h-1.3v-1.4l0,0c-0.6,1-1.5,1.5-2.8,1.5c-1,0-1.8-0.4-2.4-1.1s-0.9-1.7-0.9-2.9c0-1.3,0.3-2.4,1-3.2
		s1.6-1.2,2.7-1.2s1.9,0.4,2.4,1.3l0,0v-5h1.3C123.2,49.9,123.2,61.9,123.2,61.9z M121.9,58.3v-1.2c0-0.6-0.2-1.2-0.6-1.6
		c-0.4-0.4-1-0.7-1.6-0.7c-0.8,0-1.4,0.3-1.8,0.9c-0.4,0.6-0.7,1.4-0.7,2.4c0,0.9,0.2,1.6,0.6,2.2s1,0.8,1.7,0.8s1.3-0.3,1.7-0.8
		S121.9,59,121.9,58.3z"/>
	<path class="st8" d="M132.3,61.9H131v-1.3l0,0c-0.5,1-1.4,1.5-2.5,1.5c-1.9,0-2.9-1.1-2.9-3.4v-4.8h1.3v4.6c0,1.7,0.6,2.5,1.9,2.5
		c0.6,0,1.1-0.2,1.5-0.7s0.6-1.1,0.6-1.8v-4.6h1.3L132.3,61.9L132.3,61.9z"/>
	<path class="st8" d="M134.4,61.6v-1.4c0.7,0.5,1.5,0.8,2.3,0.8c1.1,0,1.7-0.4,1.7-1.1c0-0.2,0-0.4-0.1-0.5s-0.2-0.3-0.4-0.4
		s-0.4-0.2-0.6-0.3c-0.2-0.1-0.5-0.2-0.7-0.3c-0.4-0.1-0.7-0.3-0.9-0.4c-0.3-0.1-0.5-0.3-0.7-0.5s-0.3-0.4-0.4-0.6
		c-0.1-0.2-0.1-0.5-0.1-0.8c0-0.4,0.1-0.7,0.3-1s0.4-0.5,0.7-0.7s0.6-0.3,1-0.4s0.7-0.1,1.1-0.1c0.7,0,1.3,0.1,1.9,0.4v1.3
		c-0.6-0.4-1.3-0.6-2-0.6c-0.2,0-0.5,0-0.6,0.1c-0.2,0.1-0.4,0.1-0.5,0.2c-0.1,0.1-0.2,0.2-0.3,0.4c-0.1,0.1-0.1,0.3-0.1,0.5
		s0,0.4,0.1,0.5s0.2,0.3,0.3,0.4c0.1,0.1,0.3,0.2,0.5,0.3s0.4,0.2,0.7,0.3c0.4,0.1,0.7,0.3,1,0.4s0.5,0.3,0.7,0.5s0.4,0.4,0.5,0.6
		c0.1,0.2,0.2,0.5,0.2,0.8c0,0.4-0.1,0.7-0.3,1s-0.4,0.5-0.7,0.7s-0.6,0.3-1,0.4c-0.4,0.1-0.8,0.1-1.2,0.1
		C135.7,62.1,135,61.9,134.4,61.6z"/>
	<path class="st8" d="M145.4,61.8c-0.3,0.2-0.7,0.2-1.2,0.2c-1.4,0-2.1-0.8-2.1-2.3V55h-1.4v-1.1h1.4v-2l1.3-0.4v2.4h2V55h-2v4.5
		c0,0.5,0.1,0.9,0.3,1.1c0.2,0.2,0.5,0.3,0.9,0.3c0.3,0,0.6-0.1,0.8-0.3V61.8z"/>
	<path class="st8" d="M151.2,55.2c-0.2-0.2-0.5-0.3-1-0.3s-1,0.3-1.4,0.8s-0.6,1.2-0.6,2.1v4.1h-1.3v-8h1.3v1.6l0,0
		c0.2-0.6,0.5-1,0.8-1.3s0.8-0.5,1.3-0.5c0.3,0,0.6,0,0.8,0.1L151.2,55.2L151.2,55.2z"/>
	<path class="st8" d="M153.3,51.8c-0.2,0-0.4-0.1-0.6-0.2c-0.2-0.2-0.2-0.4-0.2-0.6s0.1-0.4,0.2-0.6c0.2-0.2,0.4-0.2,0.6-0.2
		c0.2,0,0.4,0.1,0.6,0.2s0.2,0.4,0.2,0.6c0,0.2-0.1,0.4-0.2,0.6S153.5,51.8,153.3,51.8z M153.9,61.9h-1.3v-8h1.3V61.9z"/>
	<path class="st8" d="M162.2,61.9h-1.3v-1.2l0,0c-0.6,1-1.4,1.4-2.5,1.4c-0.8,0-1.4-0.2-1.9-0.6c-0.5-0.4-0.7-1-0.7-1.7
		c0-1.5,0.9-2.4,2.6-2.6l2.4-0.3c0-1.4-0.5-2-1.6-2c-1,0-1.8,0.3-2.6,1v-1.3c0.8-0.5,1.7-0.8,2.7-0.8c1.9,0,2.8,1,2.8,3v5.1
		C162.1,61.9,162.2,61.9,162.2,61.9z M160.9,57.8l-1.9,0.3c-0.6,0.1-1,0.2-1.3,0.4s-0.5,0.6-0.5,1.1c0,0.4,0.1,0.7,0.4,1
		c0.3,0.2,0.6,0.4,1.1,0.4c0.6,0,1.2-0.2,1.6-0.7s0.6-1,0.6-1.7L160.9,57.8L160.9,57.8z"/>
	<path class="st8" d="M165.9,61.9h-1.3V50h1.3V61.9z"/>
</g>
<g class="st5">
	<path class="st8" d="M696.3,61.1c-1.1,0.6-2.4,1-3.8,1c-1.6,0-2.9-0.5-3.9-1.5s-1.5-2.4-1.5-4.1c0-1.7,0.5-3.2,1.6-4.3
		s2.5-1.7,4.2-1.7c1.2,0,2.2,0.2,3.1,0.6v1.5c-0.9-0.6-2-0.9-3.2-0.9c-1.3,0-2.3,0.4-3.1,1.3s-1.2,2-1.2,3.4s0.4,2.5,1.1,3.3
		s1.8,1.2,3,1.2c0.9,0,1.6-0.2,2.3-0.5v-3.1h-2.5V56h3.8v5.1H696.3z"/>
	<path class="st8" d="M705.2,58.2h-5.6c0,0.9,0.3,1.6,0.7,2.1s1.1,0.7,1.9,0.7c0.9,0,1.7-0.3,2.5-0.9v1.2c-0.7,0.5-1.6,0.8-2.8,0.8
		c-1.1,0-2-0.4-2.7-1.1s-1-1.7-1-3.1c0-1.2,0.4-2.3,1.1-3s1.6-1.2,2.6-1.2s1.9,0.3,2.4,1s0.9,1.6,0.9,2.8L705.2,58.2L705.2,58.2z
		 M703.9,57.1c0-0.7-0.2-1.3-0.5-1.7s-0.8-0.6-1.5-0.6c-0.6,0-1.1,0.2-1.5,0.6s-0.7,1-0.8,1.7H703.9z"/>
	<path class="st8" d="M706.6,61.6v-1.4c0.7,0.5,1.5,0.8,2.3,0.8c1.1,0,1.7-0.4,1.7-1.1c0-0.2,0-0.4-0.1-0.5s-0.2-0.3-0.4-0.4
		s-0.4-0.2-0.6-0.3s-0.5-0.2-0.7-0.3c-0.4-0.1-0.7-0.3-0.9-0.4s-0.5-0.3-0.7-0.5s-0.3-0.4-0.4-0.6s-0.1-0.5-0.1-0.8
		c0-0.4,0.1-0.7,0.3-1s0.4-0.5,0.7-0.7s0.6-0.3,1-0.4s0.7-0.1,1.1-0.1c0.7,0,1.3,0.1,1.9,0.4v1.3c-0.6-0.4-1.3-0.6-2-0.6
		c-0.2,0-0.5,0-0.6,0.1s-0.4,0.1-0.5,0.2s-0.2,0.2-0.3,0.4s-0.1,0.3-0.1,0.5s0,0.4,0.1,0.5s0.2,0.3,0.3,0.4s0.3,0.2,0.5,0.3
		s0.4,0.2,0.7,0.3c0.4,0.1,0.7,0.3,1,0.4s0.5,0.3,0.7,0.5s0.4,0.4,0.5,0.6s0.2,0.5,0.2,0.8c0,0.4-0.1,0.7-0.3,1s-0.4,0.5-0.7,0.7
		s-0.6,0.3-1,0.4s-0.8,0.1-1.2,0.1C708,62.1,707.3,61.9,706.6,61.6z"/>
	<path class="st8" d="M717.6,61.8c-0.3,0.2-0.7,0.2-1.2,0.2c-1.4,0-2.1-0.8-2.1-2.3V55H713v-1.1h1.4v-2l1.3-0.4v2.4h2V55h-2v4.5
		c0,0.5,0.1,0.9,0.3,1.1s0.5,0.3,0.9,0.3c0.3,0,0.6-0.1,0.8-0.3v1.2H717.6z"/>
	<path class="st8" d="M720,51.8c-0.2,0-0.4-0.1-0.6-0.2s-0.2-0.4-0.2-0.6s0.1-0.4,0.2-0.6s0.4-0.2,0.6-0.2c0.2,0,0.4,0.1,0.6,0.2
		s0.2,0.4,0.2,0.6c0,0.2-0.1,0.4-0.2,0.6S720.2,51.8,720,51.8z M720.6,61.9h-1.3v-8h1.3V61.9z"/>
	<path class="st8" d="M726.6,62.1c-1.2,0-2.1-0.4-2.8-1.1s-1.1-1.7-1.1-3s0.4-2.4,1.1-3.1s1.7-1.1,3-1.1c1.2,0,2.1,0.4,2.8,1.1
		s1,1.8,1,3.1s-0.4,2.3-1.1,3.1S727.8,62.1,726.6,62.1z M726.7,54.8c-0.8,0-1.5,0.3-2,0.8s-0.7,1.3-0.7,2.3c0,0.9,0.2,1.7,0.7,2.2
		s1.1,0.8,1.9,0.8c0.8,0,1.5-0.3,1.9-0.8s0.7-1.3,0.7-2.3s-0.2-1.8-0.7-2.3S727.5,54.8,726.7,54.8z M728.5,49.8l-2,2.6h-1l1.7-2.6
		H728.5z"/>
	<path class="st8" d="M739.2,61.9H738v-4.6c0-1.7-0.6-2.5-1.9-2.5c-0.6,0-1.2,0.2-1.6,0.7s-0.6,1.1-0.6,1.8v4.6h-1.3v-8h1.3v1.3l0,0
		c0.6-1,1.5-1.5,2.6-1.5c0.9,0,1.5,0.3,2,0.8s0.7,1.4,0.7,2.4V61.9z"/>
	<path class="st8" d="M752.9,61.9h-1.3v-1.4l0,0c-0.6,1-1.5,1.5-2.8,1.5c-1,0-1.8-0.4-2.4-1.1s-0.9-1.7-0.9-2.9c0-1.3,0.3-2.4,1-3.2
		s1.6-1.2,2.7-1.2c1.1,0,1.9,0.4,2.4,1.3l0,0v-5h1.3V61.9z M751.6,58.3v-1.2c0-0.6-0.2-1.2-0.6-1.6s-1-0.7-1.6-0.7
		c-0.8,0-1.4,0.3-1.8,0.9s-0.7,1.4-0.7,2.4c0,0.9,0.2,1.6,0.6,2.2s1,0.8,1.7,0.8s1.3-0.3,1.7-0.8S751.6,59,751.6,58.3z"/>
	<path class="st8" d="M761.9,58.2h-5.6c0,0.9,0.3,1.6,0.7,2.1s1.1,0.7,1.9,0.7c0.9,0,1.7-0.3,2.5-0.9v1.2c-0.7,0.5-1.6,0.8-2.8,0.8
		c-1.1,0-2-0.4-2.7-1.1s-1-1.7-1-3.1c0-1.2,0.4-2.3,1.1-3s1.6-1.2,2.6-1.2s1.9,0.3,2.4,1s0.9,1.6,0.9,2.8L761.9,58.2L761.9,58.2z
		 M760.6,57.1c0-0.7-0.2-1.3-0.5-1.7s-0.8-0.6-1.5-0.6c-0.6,0-1.1,0.2-1.5,0.6s-0.7,1-0.8,1.7H760.6z"/>
	<path class="st8" d="M773.7,61.5c-0.6,0.4-1.3,0.6-2.2,0.6c-1.1,0-2.1-0.4-2.8-1.1s-1.1-1.7-1.1-2.9c0-1.3,0.4-2.4,1.1-3.2
		s1.8-1.2,3-1.2c0.7,0,1.3,0.1,1.9,0.4v1.3c-0.6-0.4-1.2-0.6-1.9-0.6c-0.8,0-1.5,0.3-2,0.9S769,57,769,58c0,0.9,0.2,1.7,0.7,2.2
		s1.2,0.8,2,0.8c0.7,0,1.4-0.2,2-0.7V61.5z"/>
	<path class="st8" d="M781.3,61.9H780v-1.2l0,0c-0.6,1-1.4,1.4-2.5,1.4c-0.8,0-1.4-0.2-1.9-0.6s-0.7-1-0.7-1.7
		c0-1.5,0.9-2.4,2.6-2.6l2.4-0.3c0-1.4-0.5-2-1.6-2c-1,0-1.8,0.3-2.6,1v-1.3c0.8-0.5,1.7-0.8,2.7-0.8c1.9,0,2.8,1,2.8,3L781.3,61.9
		L781.3,61.9z M780,57.8l-1.9,0.3c-0.6,0.1-1,0.2-1.3,0.4s-0.5,0.6-0.5,1.1c0,0.4,0.1,0.7,0.4,1s0.6,0.4,1.1,0.4
		c0.6,0,1.2-0.2,1.6-0.7s0.6-1,0.6-1.7L780,57.8L780,57.8z"/>
	<path class="st8" d="M785,61.9h-1.3V50h1.3V61.9z"/>
	<path class="st8" d="M788.3,51.8c-0.2,0-0.4-0.1-0.6-0.2s-0.2-0.4-0.2-0.6s0.1-0.4,0.2-0.6s0.4-0.2,0.6-0.2c0.2,0,0.4,0.1,0.6,0.2
		s0.2,0.4,0.2,0.6c0,0.2-0.1,0.4-0.2,0.6S788.5,51.8,788.3,51.8z M788.9,61.9h-1.3v-8h1.3V61.9z"/>
	<path class="st8" d="M798.3,61.9H797v-1.4l0,0c-0.6,1-1.5,1.5-2.8,1.5c-1,0-1.8-0.4-2.4-1.1s-0.9-1.7-0.9-2.9c0-1.3,0.3-2.4,1-3.2
		s1.6-1.2,2.7-1.2c1.1,0,1.9,0.4,2.4,1.3l0,0v-5h1.3V61.9z M797,58.3v-1.2c0-0.6-0.2-1.2-0.6-1.6s-1-0.7-1.6-0.7
		c-0.8,0-1.4,0.3-1.8,0.9s-0.7,1.4-0.7,2.4c0,0.9,0.2,1.6,0.6,2.2s1,0.8,1.7,0.8s1.3-0.3,1.7-0.8S797,59,797,58.3z"/>
	<path class="st8" d="M806.6,61.9h-1.3v-1.2l0,0c-0.6,1-1.4,1.4-2.5,1.4c-0.8,0-1.4-0.2-1.9-0.6s-0.7-1-0.7-1.7
		c0-1.5,0.9-2.4,2.6-2.6l2.4-0.3c0-1.4-0.5-2-1.6-2c-1,0-1.8,0.3-2.6,1v-1.3c0.8-0.5,1.7-0.8,2.7-0.8c1.9,0,2.8,1,2.8,3L806.6,61.9
		L806.6,61.9z M805.4,57.8l-1.9,0.3c-0.6,0.1-1,0.2-1.3,0.4s-0.5,0.6-0.5,1.1c0,0.4,0.1,0.7,0.4,1s0.6,0.4,1.1,0.4
		c0.6,0,1.2-0.2,1.6-0.7s0.6-1,0.6-1.7L805.4,57.8L805.4,57.8z"/>
	<path class="st8" d="M815.9,61.9h-1.3v-1.4l0,0c-0.6,1-1.5,1.5-2.8,1.5c-1,0-1.8-0.4-2.4-1.1s-0.9-1.7-0.9-2.9c0-1.3,0.3-2.4,1-3.2
		s1.6-1.2,2.7-1.2c1.1,0,1.9,0.4,2.4,1.3l0,0v-5h1.3V61.9z M814.6,58.3v-1.2c0-0.6-0.2-1.2-0.6-1.6s-1-0.7-1.6-0.7
		c-0.8,0-1.4,0.3-1.8,0.9s-0.7,1.4-0.7,2.4c0,0.9,0.2,1.6,0.6,2.2s1,0.8,1.7,0.8s1.3-0.3,1.7-0.8S814.6,59,814.6,58.3z"/>
</g>
<g class="st5">
	<path class="st8" d="M26.9,500.4v-1.5c0.2,0.2,0.4,0.3,0.6,0.4s0.5,0.2,0.8,0.3s0.5,0.2,0.8,0.2s0.5,0.1,0.8,0.1
		c0.8,0,1.4-0.1,1.8-0.4c0.4-0.3,0.6-0.7,0.6-1.3c0-0.3-0.1-0.6-0.2-0.8s-0.3-0.4-0.6-0.6s-0.5-0.4-0.8-0.5s-0.7-0.3-1-0.5
		c-0.4-0.2-0.8-0.4-1.1-0.6c-0.3-0.2-0.6-0.4-0.9-0.7s-0.4-0.5-0.6-0.8c-0.1-0.3-0.2-0.7-0.2-1.1c0-0.5,0.1-1,0.3-1.3
		c0.2-0.4,0.5-0.7,0.9-0.9c0.4-0.2,0.8-0.4,1.2-0.5c0.5-0.1,0.9-0.2,1.4-0.2c1.1,0,1.9,0.1,2.4,0.4v1.5c-0.7-0.5-1.5-0.7-2.5-0.7
		c-0.3,0-0.6,0-0.9,0.1s-0.5,0.2-0.8,0.3c-0.2,0.1-0.4,0.3-0.5,0.5s-0.2,0.5-0.2,0.8s0.1,0.5,0.2,0.7s0.3,0.4,0.5,0.6
		s0.5,0.3,0.8,0.5s0.6,0.3,1,0.5s0.8,0.4,1.1,0.6c0.3,0.2,0.7,0.5,0.9,0.7c0.3,0.3,0.5,0.6,0.6,0.9c0.2,0.3,0.2,0.7,0.2,1.1
		c0,0.6-0.1,1-0.3,1.4s-0.5,0.7-0.9,0.9s-0.8,0.4-1.3,0.5s-1,0.2-1.5,0.2c-0.2,0-0.4,0-0.7,0c-0.3,0-0.5-0.1-0.8-0.1
		c-0.3-0.1-0.5-0.1-0.8-0.2S27.1,500.5,26.9,500.4z"/>
	<path class="st8" d="M42.2,497.2h-5.6c0,0.9,0.3,1.6,0.7,2.1c0.5,0.5,1.1,0.7,1.9,0.7c0.9,0,1.7-0.3,2.5-0.9v1.2
		c-0.7,0.5-1.6,0.8-2.8,0.8c-1.1,0-2-0.4-2.7-1.1c-0.6-0.7-1-1.7-1-3.1c0-1.2,0.4-2.3,1.1-3c0.7-0.8,1.6-1.2,2.6-1.2s1.9,0.3,2.4,1
		c0.6,0.7,0.9,1.6,0.9,2.8C42.2,496.5,42.2,497.2,42.2,497.2z M40.9,496.1c0-0.7-0.2-1.3-0.5-1.7s-0.8-0.6-1.5-0.6
		c-0.6,0-1.1,0.2-1.5,0.6s-0.7,1-0.8,1.7H40.9z"/>
	<path class="st8" d="M51,500.2c0,2.9-1.4,4.4-4.2,4.4c-1,0-1.9-0.2-2.6-0.6v-1.3c0.9,0.5,1.8,0.8,2.6,0.8c2,0,3-1,3-3.1v-0.9l0,0
		c-0.6,1-1.5,1.5-2.8,1.5c-1,0-1.8-0.4-2.4-1.1c-0.6-0.7-0.9-1.7-0.9-2.9c0-1.4,0.3-2.4,1-3.2c0.7-0.8,1.5-1.2,2.7-1.2
		c1.1,0,1.9,0.4,2.4,1.3l0,0v-1.1H51V500.2z M49.7,497.3v-1.2c0-0.6-0.2-1.2-0.6-1.6s-1-0.7-1.6-0.7c-0.8,0-1.4,0.3-1.9,0.9
		c-0.4,0.6-0.7,1.4-0.7,2.4c0,0.9,0.2,1.6,0.6,2.1s1,0.8,1.7,0.8s1.3-0.3,1.8-0.8C49.5,498.7,49.7,498.1,49.7,497.3z"/>
	<path class="st8" d="M60.1,500.9h-1.3v-1.3l0,0c-0.5,1-1.4,1.5-2.5,1.5c-1.9,0-2.9-1.1-2.9-3.4v-4.8h1.3v4.6c0,1.7,0.6,2.5,1.9,2.5
		c0.6,0,1.1-0.2,1.5-0.7s0.6-1.1,0.6-1.8v-4.6H60L60.1,500.9L60.1,500.9L60.1,500.9z"/>
	<path class="st8" d="M66.8,494.2c-0.2-0.2-0.5-0.3-1-0.3s-1,0.3-1.4,0.8s-0.6,1.2-0.6,2.1v4.1h-1.3v-8h1.3v1.6l0,0
		c0.2-0.6,0.5-1,0.8-1.3s0.8-0.5,1.3-0.5c0.3,0,0.6,0,0.8,0.1L66.8,494.2L66.8,494.2z"/>
	<path class="st8" d="M68.9,490.8c-0.2,0-0.4-0.1-0.6-0.2c-0.2-0.2-0.2-0.4-0.2-0.6s0.1-0.4,0.2-0.6c0.2-0.2,0.4-0.2,0.6-0.2
		s0.4,0.1,0.6,0.2s0.2,0.4,0.2,0.6s-0.1,0.4-0.2,0.6S69.1,490.8,68.9,490.8z M69.5,500.9h-1.3v-8h1.3V500.9z"/>
	<path class="st8" d="M78.9,500.9h-1.3v-1.4l0,0c-0.6,1-1.5,1.5-2.8,1.5c-1,0-1.8-0.4-2.4-1.1s-0.9-1.7-0.9-2.9c0-1.3,0.3-2.4,1-3.2
		c0.7-0.8,1.6-1.2,2.7-1.2s1.9,0.4,2.4,1.3l0,0v-5h1.3C78.9,488.9,78.9,500.9,78.9,500.9z M77.6,497.3v-1.2c0-0.6-0.2-1.2-0.6-1.6
		s-1-0.7-1.6-0.7c-0.8,0-1.4,0.3-1.8,0.9s-0.7,1.4-0.7,2.4c0,0.9,0.2,1.6,0.6,2.2s1,0.8,1.7,0.8s1.3-0.3,1.7-0.8
		S77.6,498,77.6,497.3z"/>
	<path class="st8" d="M87.2,500.9h-1.3v-1.2l0,0c-0.6,1-1.4,1.4-2.5,1.4c-0.8,0-1.4-0.2-1.9-0.6s-0.7-1-0.7-1.7
		c0-1.5,0.9-2.4,2.6-2.6l2.4-0.3c0-1.4-0.5-2-1.6-2c-1,0-1.8,0.3-2.6,1v-1.3c0.8-0.5,1.7-0.8,2.7-0.8c1.9,0,2.8,1,2.8,3L87.2,500.9
		L87.2,500.9z M85.9,496.8l-1.9,0.3c-0.6,0.1-1,0.2-1.3,0.4c-0.3,0.2-0.5,0.6-0.5,1.1c0,0.4,0.1,0.7,0.4,1c0.3,0.2,0.6,0.4,1.1,0.4
		c0.6,0,1.2-0.2,1.6-0.7s0.6-1,0.6-1.7C85.9,497.6,85.9,496.8,85.9,496.8z"/>
	<path class="st8" d="M96.5,500.9h-1.3v-1.4l0,0c-0.6,1-1.5,1.5-2.8,1.5c-1,0-1.8-0.4-2.4-1.1s-0.9-1.7-0.9-2.9c0-1.3,0.3-2.4,1-3.2
		c0.7-0.8,1.6-1.2,2.7-1.2s1.9,0.4,2.4,1.3l0,0v-5h1.3C96.5,488.9,96.5,500.9,96.5,500.9z M95.2,497.3v-1.2c0-0.6-0.2-1.2-0.6-1.6
		s-1-0.7-1.6-0.7c-0.8,0-1.4,0.3-1.8,0.9s-0.7,1.4-0.7,2.4c0,0.9,0.2,1.6,0.6,2.2s1,0.8,1.7,0.8s1.3-0.3,1.7-0.8
		S95.2,498,95.2,497.3z"/>
	<path class="st8" d="M110.3,500.9H109v-1.4l0,0c-0.6,1-1.5,1.5-2.8,1.5c-1,0-1.8-0.4-2.4-1.1s-0.9-1.7-0.9-2.9c0-1.3,0.3-2.4,1-3.2
		c0.7-0.8,1.6-1.2,2.7-1.2s1.9,0.4,2.4,1.3l0,0v-5h1.3C110.3,488.9,110.3,500.9,110.3,500.9z M109,497.3v-1.2c0-0.6-0.2-1.2-0.6-1.6
		s-1-0.7-1.6-0.7c-0.8,0-1.4,0.3-1.8,0.9s-0.7,1.4-0.7,2.4c0,0.9,0.2,1.6,0.6,2.2s1,0.8,1.7,0.8s1.3-0.3,1.7-0.8S109,498,109,497.3z
		"/>
	<path class="st8" d="M119.3,497.2h-5.6c0,0.9,0.3,1.6,0.7,2.1c0.5,0.5,1.1,0.7,1.9,0.7c0.9,0,1.7-0.3,2.5-0.9v1.2
		c-0.7,0.5-1.6,0.8-2.8,0.8c-1.1,0-2-0.4-2.7-1.1c-0.6-0.7-1-1.7-1-3.1c0-1.2,0.4-2.3,1.1-3c0.7-0.8,1.6-1.2,2.6-1.2s1.9,0.3,2.4,1
		c0.6,0.7,0.9,1.6,0.9,2.8V497.2z M118,496.1c0-0.7-0.2-1.3-0.5-1.7s-0.8-0.6-1.5-0.6c-0.6,0-1.1,0.2-1.5,0.6s-0.7,1-0.8,1.7H118z"
		/>
	<path class="st8" d="M126.9,500.9h-1.3V489h1.3V500.9z"/>
	<path class="st8" d="M135.2,500.9h-1.3v-1.2l0,0c-0.6,1-1.4,1.4-2.5,1.4c-0.8,0-1.4-0.2-1.9-0.6s-0.7-1-0.7-1.7
		c0-1.5,0.9-2.4,2.6-2.6l2.4-0.3c0-1.4-0.5-2-1.6-2c-1,0-1.8,0.3-2.6,1v-1.3c0.8-0.5,1.7-0.8,2.7-0.8c1.9,0,2.8,1,2.8,3v5.1H135.2z
		 M133.9,496.8l-1.9,0.3c-0.6,0.1-1,0.2-1.3,0.4c-0.3,0.2-0.5,0.6-0.5,1.1c0,0.4,0.1,0.7,0.4,1c0.3,0.2,0.6,0.4,1.1,0.4
		c0.6,0,1.2-0.2,1.6-0.7s0.6-1,0.6-1.7L133.9,496.8L133.9,496.8z"/>
	<path class="st8" d="M142.7,490.8c-0.2,0-0.4-0.1-0.6-0.2c-0.2-0.2-0.2-0.4-0.2-0.6s0.1-0.4,0.2-0.6c0.2-0.2,0.4-0.2,0.6-0.2
		c0.2,0,0.4,0.1,0.6,0.2s0.2,0.4,0.2,0.6s-0.1,0.4-0.2,0.6S142.9,490.8,142.7,490.8z M143.3,500.9H142v-8h1.3V500.9z"/>
	<path class="st8" d="M152.5,500.9h-1.3v-4.6c0-1.7-0.6-2.5-1.9-2.5c-0.6,0-1.2,0.2-1.6,0.7c-0.4,0.5-0.6,1.1-0.6,1.8v4.6h-1.3v-8
		h1.3v1.3l0,0c0.6-1,1.5-1.5,2.6-1.5c0.9,0,1.5,0.3,2,0.8c0.5,0.6,0.7,1.4,0.7,2.4v5L152.5,500.9L152.5,500.9z"/>
	<path class="st8" d="M158.9,490.2c-0.2-0.1-0.5-0.2-0.9-0.2c-0.9,0-1.3,0.6-1.3,1.7v1.2h1.9v1.1h-1.9v6.9h-1.3V494H154v-1.1h1.4
		v-1.3c0-0.8,0.2-1.5,0.7-2s1.1-0.7,1.8-0.7c0.4,0,0.7,0,0.9,0.1v1.2H158.9z"/>
	<path class="st8" d="M163.3,501.1c-1.2,0-2.1-0.4-2.8-1.1s-1.1-1.7-1.1-3s0.4-2.4,1.1-3.1s1.7-1.1,3-1.1c1.2,0,2.1,0.4,2.8,1.1
		s1,1.8,1,3.1c0,1.3-0.4,2.3-1.1,3.1C165.5,500.7,164.5,501.1,163.3,501.1z M163.4,493.8c-0.8,0-1.5,0.3-2,0.8
		c-0.5,0.6-0.7,1.3-0.7,2.3c0,0.9,0.2,1.7,0.7,2.2s1.1,0.8,1.9,0.8c0.8,0,1.5-0.3,1.9-0.8s0.7-1.3,0.7-2.3s-0.2-1.8-0.7-2.3
		S164.2,493.8,163.4,493.8z"/>
	<path class="st8" d="M173.5,494.2c-0.2-0.2-0.5-0.3-1-0.3s-1,0.3-1.4,0.8s-0.6,1.2-0.6,2.1v4.1h-1.3v-8h1.3v1.6l0,0
		c0.2-0.6,0.5-1,0.8-1.3s0.8-0.5,1.3-0.5c0.3,0,0.6,0,0.8,0.1L173.5,494.2L173.5,494.2z"/>
	<path class="st8" d="M186.3,500.9H185v-4.6c0-0.9-0.1-1.5-0.4-1.9s-0.7-0.6-1.4-0.6c-0.5,0-1,0.2-1.4,0.8s-0.6,1.1-0.6,1.8v4.6
		h-1.3v-4.8c0-1.6-0.6-2.4-1.8-2.4c-0.6,0-1,0.2-1.4,0.7s-0.5,1.1-0.5,1.8v4.6h-1.3v-8h1.3v1.3l0,0c0.6-1,1.4-1.5,2.5-1.5
		c0.5,0,1,0.2,1.4,0.5s0.7,0.7,0.8,1.2c0.6-1.1,1.5-1.7,2.7-1.7c1.8,0,2.6,1.1,2.6,3.3L186.3,500.9L186.3,500.9z"/>
	<path class="st8" d="M194.4,500.9h-1.3v-1.2l0,0c-0.6,1-1.4,1.4-2.5,1.4c-0.8,0-1.4-0.2-1.9-0.6s-0.7-1-0.7-1.7
		c0-1.5,0.9-2.4,2.6-2.6l2.4-0.3c0-1.4-0.5-2-1.6-2c-1,0-1.8,0.3-2.6,1v-1.3c0.8-0.5,1.7-0.8,2.7-0.8c1.9,0,2.8,1,2.8,3v5.1H194.4z
		 M193.1,496.8l-1.9,0.3c-0.6,0.1-1,0.2-1.3,0.4c-0.3,0.2-0.5,0.6-0.5,1.1c0,0.4,0.1,0.7,0.4,1c0.3,0.2,0.6,0.4,1.1,0.4
		c0.6,0,1.2-0.2,1.6-0.7s0.6-1,0.6-1.7L193.1,496.8L193.1,496.8z"/>
	<path class="st8" d="M202.3,500.5c-0.6,0.4-1.3,0.6-2.2,0.6c-1.1,0-2.1-0.4-2.8-1.1s-1.1-1.7-1.1-2.9c0-1.3,0.4-2.4,1.1-3.2
		c0.8-0.8,1.8-1.2,3-1.2c0.7,0,1.3,0.1,1.9,0.4v1.3c-0.6-0.4-1.2-0.6-1.9-0.6c-0.8,0-1.5,0.3-2,0.9s-0.8,1.4-0.8,2.3
		s0.2,1.7,0.7,2.2s1.2,0.8,2,0.8c0.7,0,1.4-0.2,2-0.7v1.2L202.3,500.5L202.3,500.5z"/>
	<path class="st8" d="M204.9,490.8c-0.2,0-0.4-0.1-0.6-0.2c-0.2-0.2-0.2-0.4-0.2-0.6s0.1-0.4,0.2-0.6c0.2-0.2,0.4-0.2,0.6-0.2
		c0.2,0,0.4,0.1,0.6,0.2s0.2,0.4,0.2,0.6s-0.1,0.4-0.2,0.6S205.1,490.8,204.9,490.8z M205.5,500.9h-1.3v-8h1.3V500.9z"/>
	<path class="st8" d="M211.4,501.1c-1.2,0-2.1-0.4-2.8-1.1s-1.1-1.7-1.1-3s0.4-2.4,1.1-3.1s1.7-1.1,3-1.1c1.2,0,2.1,0.4,2.8,1.1
		s1,1.8,1,3.1c0,1.3-0.4,2.3-1.1,3.1C213.6,500.7,212.6,501.1,211.4,501.1z M211.5,493.8c-0.8,0-1.5,0.3-2,0.8
		c-0.5,0.6-0.7,1.3-0.7,2.3c0,0.9,0.2,1.7,0.7,2.2s1.1,0.8,1.9,0.8c0.8,0,1.5-0.3,1.9-0.8s0.7-1.3,0.7-2.3s-0.2-1.8-0.7-2.3
		S212.3,493.8,211.5,493.8z M213.4,488.8l-2,2.6h-1l1.7-2.6H213.4z"/>
	<path class="st8" d="M224.1,500.9h-1.3v-4.6c0-1.7-0.6-2.5-1.9-2.5c-0.6,0-1.2,0.2-1.6,0.7c-0.4,0.5-0.6,1.1-0.6,1.8v4.6h-1.3v-8
		h1.3v1.3l0,0c0.6-1,1.5-1.5,2.6-1.5c0.9,0,1.5,0.3,2,0.8c0.5,0.6,0.7,1.4,0.7,2.4v5L224.1,500.9L224.1,500.9z"/>
</g>
<g class="st5">
	<path class="st8" d="M703.4,500.9h-1.6l-1.9-3.1c-0.2-0.3-0.3-0.5-0.5-0.7s-0.3-0.4-0.5-0.5s-0.4-0.2-0.5-0.3s-0.4-0.1-0.7-0.1
		h-1.1v4.8h-1.3v-11.2h3.3c0.5,0,0.9,0.1,1.4,0.2s0.8,0.3,1.1,0.6s0.5,0.6,0.7,0.9s0.3,0.8,0.3,1.3c0,0.4-0.1,0.7-0.2,1.1
		s-0.3,0.6-0.5,0.9s-0.5,0.5-0.8,0.7s-0.6,0.3-1,0.4l0,0c0.2,0.1,0.4,0.2,0.5,0.3s0.3,0.2,0.4,0.4s0.2,0.3,0.4,0.5s0.3,0.4,0.4,0.6
		L703.4,500.9z M696.7,490.9v4.1h1.8c0.3,0,0.6,0,0.9-0.1s0.5-0.2,0.7-0.4s0.4-0.4,0.5-0.7s0.2-0.6,0.2-0.9c0-0.6-0.2-1.1-0.6-1.4
		s-0.9-0.5-1.7-0.5h-1.8L696.7,490.9L696.7,490.9z"/>
	<path class="st8" d="M710.7,497.2h-5.6c0,0.9,0.3,1.6,0.7,2.1s1.1,0.7,1.9,0.7c0.9,0,1.7-0.3,2.5-0.9v1.2c-0.7,0.5-1.6,0.8-2.8,0.8
		c-1.1,0-2-0.4-2.7-1.1s-1-1.7-1-3.1c0-1.2,0.4-2.3,1.1-3s1.6-1.2,2.6-1.2s1.9,0.3,2.4,1s0.9,1.6,0.9,2.8L710.7,497.2L710.7,497.2z
		 M709.4,496.1c0-0.7-0.2-1.3-0.5-1.7s-0.8-0.6-1.5-0.6c-0.6,0-1.1,0.2-1.5,0.6s-0.7,1-0.8,1.7H709.4z"/>
	<path class="st8" d="M712.2,500.6v-1.4c0.7,0.5,1.5,0.8,2.3,0.8c1.1,0,1.7-0.4,1.7-1.1c0-0.2,0-0.4-0.1-0.5s-0.2-0.3-0.4-0.4
		s-0.4-0.2-0.6-0.3s-0.5-0.2-0.7-0.3c-0.4-0.1-0.7-0.3-0.9-0.4s-0.5-0.3-0.7-0.5s-0.3-0.4-0.4-0.6s-0.1-0.5-0.1-0.8
		c0-0.4,0.1-0.7,0.3-1s0.4-0.5,0.7-0.7s0.6-0.3,1-0.4s0.7-0.1,1.1-0.1c0.7,0,1.3,0.1,1.9,0.4v1.3c-0.6-0.4-1.3-0.6-2-0.6
		c-0.2,0-0.5,0-0.6,0.1s-0.4,0.1-0.5,0.2s-0.2,0.2-0.3,0.4s-0.1,0.3-0.1,0.5s0,0.4,0.1,0.5s0.2,0.3,0.3,0.4s0.3,0.2,0.5,0.3
		s0.4,0.2,0.7,0.3c0.4,0.1,0.7,0.3,1,0.4s0.5,0.3,0.7,0.5s0.4,0.4,0.5,0.6s0.2,0.5,0.2,0.8c0,0.4-0.1,0.7-0.3,1s-0.4,0.5-0.7,0.7
		s-0.6,0.3-1,0.4s-0.8,0.1-1.2,0.1C713.5,501.1,712.8,500.9,712.2,500.6z"/>
	<path class="st8" d="M720.7,499.7L720.7,499.7v4.8h-1.3v-11.7h1.3v1.4l0,0c0.6-1.1,1.6-1.6,2.8-1.6c1,0,1.8,0.4,2.4,1.1
		s0.9,1.7,0.9,2.9c0,1.3-0.3,2.4-1,3.2s-1.5,1.2-2.7,1.2C722.1,501.1,721.3,500.6,720.7,499.7z M720.7,496.5v1.1
		c0,0.7,0.2,1.2,0.6,1.7s1,0.7,1.6,0.7c0.8,0,1.4-0.3,1.8-0.9s0.7-1.4,0.7-2.5c0-0.9-0.2-1.6-0.6-2.1s-1-0.8-1.7-0.8
		s-1.3,0.3-1.8,0.8S720.7,495.7,720.7,496.5z"/>
	<path class="st8" d="M732.2,501.1c-1.2,0-2.1-0.4-2.8-1.1s-1.1-1.7-1.1-3s0.4-2.4,1.1-3.1s1.7-1.1,3-1.1c1.2,0,2.1,0.4,2.8,1.1
		s1,1.8,1,3.1c0,1.3-0.4,2.3-1.1,3.1S733.4,501.1,732.2,501.1z M732.3,493.8c-0.8,0-1.5,0.3-2,0.8s-0.7,1.3-0.7,2.3
		c0,0.9,0.2,1.7,0.7,2.2s1.1,0.8,1.9,0.8c0.8,0,1.5-0.3,1.9-0.8s0.7-1.3,0.7-2.3s-0.2-1.8-0.7-2.3S733.1,493.8,732.3,493.8z"/>
	<path class="st8" d="M744.9,500.9h-1.3v-4.6c0-1.7-0.6-2.5-1.9-2.5c-0.6,0-1.2,0.2-1.6,0.7s-0.6,1.1-0.6,1.8v4.6h-1.3v-8h1.3v1.3
		l0,0c0.6-1,1.5-1.5,2.6-1.5c0.9,0,1.5,0.3,2,0.8s0.7,1.4,0.7,2.4L744.9,500.9L744.9,500.9z"/>
	<path class="st8" d="M746.8,500.6v-1.4c0.7,0.5,1.5,0.8,2.3,0.8c1.1,0,1.7-0.4,1.7-1.1c0-0.2,0-0.4-0.1-0.5s-0.2-0.3-0.4-0.4
		s-0.4-0.2-0.6-0.3s-0.5-0.2-0.7-0.3c-0.4-0.1-0.7-0.3-0.9-0.4s-0.5-0.3-0.7-0.5s-0.3-0.4-0.4-0.6s-0.1-0.5-0.1-0.8
		c0-0.4,0.1-0.7,0.3-1s0.4-0.5,0.7-0.7s0.6-0.3,1-0.4s0.7-0.1,1.1-0.1c0.7,0,1.3,0.1,1.9,0.4v1.3c-0.6-0.4-1.3-0.6-2-0.6
		c-0.2,0-0.5,0-0.6,0.1s-0.4,0.1-0.5,0.2s-0.2,0.2-0.3,0.4s-0.1,0.3-0.1,0.5s0,0.4,0.1,0.5s0.2,0.3,0.3,0.4s0.3,0.2,0.5,0.3
		s0.4,0.2,0.7,0.3c0.4,0.1,0.7,0.3,1,0.4s0.5,0.3,0.7,0.5s0.4,0.4,0.5,0.6s0.2,0.5,0.2,0.8c0,0.4-0.1,0.7-0.3,1s-0.4,0.5-0.7,0.7
		s-0.6,0.3-1,0.4s-0.8,0.1-1.2,0.1C748.1,501.1,747.4,500.9,746.8,500.6z"/>
	<path class="st8" d="M759.8,500.9h-1.3v-1.2l0,0c-0.6,1-1.4,1.4-2.5,1.4c-0.8,0-1.4-0.2-1.9-0.6s-0.7-1-0.7-1.7
		c0-1.5,0.9-2.4,2.6-2.6l2.4-0.3c0-1.4-0.5-2-1.6-2c-1,0-1.8,0.3-2.6,1v-1.3c0.8-0.5,1.7-0.8,2.7-0.8c1.9,0,2.8,1,2.8,3L759.8,500.9
		L759.8,500.9z M758.5,496.8l-1.9,0.3c-0.6,0.1-1,0.2-1.3,0.4s-0.5,0.6-0.5,1.1c0,0.4,0.1,0.7,0.4,1s0.6,0.4,1.1,0.4
		c0.6,0,1.2-0.2,1.6-0.7s0.6-1,0.6-1.7L758.5,496.8L758.5,496.8z"/>
	<path class="st8" d="M763.5,499.7L763.5,499.7v1.2h-1.3V489h1.3v5.2l0,0c0.6-1.1,1.6-1.6,2.8-1.6c1,0,1.8,0.4,2.4,1.1
		s0.9,1.7,0.9,2.9c0,1.3-0.3,2.4-1,3.2s-1.5,1.2-2.7,1.2C764.9,501.1,764.1,500.6,763.5,499.7z M763.5,496.5v1.1
		c0,0.7,0.2,1.2,0.6,1.7s1,0.7,1.6,0.7c0.8,0,1.4-0.3,1.8-0.9s0.7-1.4,0.7-2.5c0-0.9-0.2-1.6-0.6-2.1s-1-0.8-1.7-0.8
		s-1.3,0.3-1.8,0.8S763.5,495.7,763.5,496.5z"/>
	<path class="st8" d="M772.3,490.8c-0.2,0-0.4-0.1-0.6-0.2s-0.2-0.4-0.2-0.6s0.1-0.4,0.2-0.6s0.4-0.2,0.6-0.2c0.2,0,0.4,0.1,0.6,0.2
		s0.2,0.4,0.2,0.6s-0.1,0.4-0.2,0.6S772.5,490.8,772.3,490.8z M772.9,500.9h-1.3v-8h1.3V500.9z"/>
	<path class="st8" d="M776.8,500.9h-1.3V489h1.3V500.9z"/>
	<path class="st8" d="M780,490.8c-0.2,0-0.4-0.1-0.6-0.2s-0.2-0.4-0.2-0.6s0.1-0.4,0.2-0.6s0.4-0.2,0.6-0.2c0.2,0,0.4,0.1,0.6,0.2
		s0.2,0.4,0.2,0.6s-0.1,0.4-0.2,0.6S780.2,490.8,780,490.8z M780.6,500.9h-1.3v-8h1.3V500.9z"/>
	<path class="st8" d="M790.1,500.9h-1.3v-1.4l0,0c-0.6,1-1.5,1.5-2.8,1.5c-1,0-1.8-0.4-2.4-1.1s-0.9-1.7-0.9-2.9
		c0-1.3,0.3-2.4,1-3.2s1.6-1.2,2.7-1.2c1.1,0,1.9,0.4,2.4,1.3l0,0v-5h1.3V500.9z M788.8,497.3v-1.2c0-0.6-0.2-1.2-0.6-1.6
		s-1-0.7-1.6-0.7c-0.8,0-1.4,0.3-1.8,0.9S784,496,784,497c0,0.9,0.2,1.6,0.6,2.2s1,0.8,1.7,0.8s1.3-0.3,1.7-0.8
		S788.8,498,788.8,497.3z"/>
	<path class="st8" d="M798.4,500.9h-1.3v-1.2l0,0c-0.6,1-1.4,1.4-2.5,1.4c-0.8,0-1.4-0.2-1.9-0.6s-0.7-1-0.7-1.7
		c0-1.5,0.9-2.4,2.6-2.6l2.4-0.3c0-1.4-0.5-2-1.6-2c-1,0-1.8,0.3-2.6,1v-1.3c0.8-0.5,1.7-0.8,2.7-0.8c1.9,0,2.8,1,2.8,3L798.4,500.9
		L798.4,500.9z M797.1,496.8l-1.9,0.3c-0.6,0.1-1,0.2-1.3,0.4s-0.5,0.6-0.5,1.1c0,0.4,0.1,0.7,0.4,1s0.6,0.4,1.1,0.4
		c0.6,0,1.2-0.2,1.6-0.7s0.6-1,0.6-1.7L797.1,496.8L797.1,496.8z"/>
	<path class="st8" d="M807.6,500.9h-1.3v-1.4l0,0c-0.6,1-1.5,1.5-2.8,1.5c-1,0-1.8-0.4-2.4-1.1s-0.9-1.7-0.9-2.9
		c0-1.3,0.3-2.4,1-3.2s1.6-1.2,2.7-1.2c1.1,0,1.9,0.4,2.4,1.3l0,0v-5h1.3V500.9z M806.3,497.3v-1.2c0-0.6-0.2-1.2-0.6-1.6
		s-1-0.7-1.6-0.7c-0.8,0-1.4,0.3-1.8,0.9s-0.7,1.4-0.7,2.4c0,0.9,0.2,1.6,0.6,2.2s1,0.8,1.7,0.8s1.3-0.3,1.7-0.8
		S806.3,498,806.3,497.3z"/>
	<path class="st8" d="M820.3,500.9H819v-1.2l0,0c-0.6,1-1.4,1.4-2.5,1.4c-0.8,0-1.4-0.2-1.9-0.6s-0.7-1-0.7-1.7
		c0-1.5,0.9-2.4,2.6-2.6l2.4-0.3c0-1.4-0.5-2-1.6-2c-1,0-1.8,0.3-2.6,1v-1.3c0.8-0.5,1.7-0.8,2.7-0.8c1.9,0,2.8,1,2.8,3L820.3,500.9
		L820.3,500.9z M819,496.8l-1.9,0.3c-0.6,0.1-1,0.2-1.3,0.4s-0.5,0.6-0.5,1.1c0,0.4,0.1,0.7,0.4,1s0.6,0.4,1.1,0.4
		c0.6,0,1.2-0.2,1.6-0.7s0.6-1,0.6-1.7L819,496.8L819,496.8z"/>
	<path class="st8" d="M824,500.9h-1.3V489h1.3V500.9z"/>
	<path class="st8" d="M827.3,490.8c-0.2,0-0.4-0.1-0.6-0.2s-0.2-0.4-0.2-0.6s0.1-0.4,0.2-0.6s0.4-0.2,0.6-0.2c0.2,0,0.4,0.1,0.6,0.2
		s0.2,0.4,0.2,0.6s-0.1,0.4-0.2,0.6S827.5,490.8,827.3,490.8z M827.9,500.9h-1.3v-8h1.3V500.9z"/>
	<path class="st8" d="M841.8,500.9h-1.3v-4.6c0-0.9-0.1-1.5-0.4-1.9s-0.7-0.6-1.4-0.6c-0.5,0-1,0.2-1.4,0.8s-0.6,1.1-0.6,1.8v4.6
		h-1.3v-4.8c0-1.6-0.6-2.4-1.8-2.4c-0.6,0-1,0.2-1.4,0.7s-0.5,1.1-0.5,1.8v4.6h-1.3v-8h1.3v1.3l0,0c0.6-1,1.4-1.5,2.5-1.5
		c0.5,0,1,0.2,1.4,0.5s0.7,0.7,0.8,1.2c0.6-1.1,1.5-1.7,2.7-1.7c1.8,0,2.6,1.1,2.6,3.3v4.9L841.8,500.9L841.8,500.9z"/>
	<path class="st8" d="M850.7,497.2h-5.6c0,0.9,0.3,1.6,0.7,2.1s1.1,0.7,1.9,0.7c0.9,0,1.7-0.3,2.5-0.9v1.2c-0.7,0.5-1.6,0.8-2.8,0.8
		c-1.1,0-2-0.4-2.7-1.1s-1-1.7-1-3.1c0-1.2,0.4-2.3,1.1-3s1.6-1.2,2.6-1.2s1.9,0.3,2.4,1s0.9,1.6,0.9,2.8L850.7,497.2L850.7,497.2z
		 M849.4,496.1c0-0.7-0.2-1.3-0.5-1.7s-0.8-0.6-1.5-0.6c-0.6,0-1.1,0.2-1.5,0.6s-0.7,1-0.8,1.7H849.4z"/>
	<path class="st8" d="M859.3,500.9H858v-4.6c0-1.7-0.6-2.5-1.9-2.5c-0.6,0-1.2,0.2-1.6,0.7s-0.6,1.1-0.6,1.8v4.6h-1.3v-8h1.3v1.3
		l0,0c0.6-1,1.5-1.5,2.6-1.5c0.9,0,1.5,0.3,2,0.8s0.7,1.4,0.7,2.4L859.3,500.9L859.3,500.9z"/>
	<path class="st8" d="M865.4,500.8c-0.3,0.2-0.7,0.2-1.2,0.2c-1.4,0-2.1-0.8-2.1-2.3V494h-1.4v-1.1h1.4v-2l1.3-0.4v2.4h2v1.1h-2v4.5
		c0,0.5,0.1,0.9,0.3,1.1s0.5,0.3,0.9,0.3c0.3,0,0.6-0.1,0.8-0.3V500.8z"/>
	<path class="st8" d="M872.8,500.9h-1.3v-1.2l0,0c-0.6,1-1.4,1.4-2.5,1.4c-0.8,0-1.4-0.2-1.9-0.6s-0.7-1-0.7-1.7
		c0-1.5,0.9-2.4,2.6-2.6l2.4-0.3c0-1.4-0.5-2-1.6-2c-1,0-1.8,0.3-2.6,1v-1.3c0.8-0.5,1.7-0.8,2.7-0.8c1.9,0,2.8,1,2.8,3L872.8,500.9
		L872.8,500.9z M871.6,496.8l-1.9,0.3c-0.6,0.1-1,0.2-1.3,0.4s-0.5,0.6-0.5,1.1c0,0.4,0.1,0.7,0.4,1s0.6,0.4,1.1,0.4
		c0.6,0,1.2-0.2,1.6-0.7s0.6-1,0.6-1.7L871.6,496.8L871.6,496.8z"/>
	<path class="st8" d="M879.4,494.2c-0.2-0.2-0.5-0.3-1-0.3s-1,0.3-1.4,0.8s-0.6,1.2-0.6,2.1v4.1h-1.3v-8h1.3v1.6l0,0
		c0.2-0.6,0.5-1,0.8-1.3s0.8-0.5,1.3-0.5c0.3,0,0.6,0,0.8,0.1v1.4L879.4,494.2L879.4,494.2z"/>
	<path class="st8" d="M881.5,490.8c-0.2,0-0.4-0.1-0.6-0.2s-0.2-0.4-0.2-0.6s0.1-0.4,0.2-0.6s0.4-0.2,0.6-0.2c0.2,0,0.4,0.1,0.6,0.2
		s0.2,0.4,0.2,0.6s-0.1,0.4-0.2,0.6S881.7,490.8,881.5,490.8z M882.1,500.9h-1.3v-8h1.3V500.9z"/>
	<path class="st8" d="M890.4,500.9h-1.3v-1.2l0,0c-0.6,1-1.4,1.4-2.5,1.4c-0.8,0-1.4-0.2-1.9-0.6s-0.7-1-0.7-1.7
		c0-1.5,0.9-2.4,2.6-2.6l2.4-0.3c0-1.4-0.5-2-1.6-2c-1,0-1.8,0.3-2.6,1v-1.3c0.8-0.5,1.7-0.8,2.7-0.8c1.9,0,2.8,1,2.8,3L890.4,500.9
		L890.4,500.9z M889.1,496.8l-1.9,0.3c-0.6,0.1-1,0.2-1.3,0.4s-0.5,0.6-0.5,1.1c0,0.4,0.1,0.7,0.4,1s0.6,0.4,1.1,0.4
		c0.6,0,1.2-0.2,1.6-0.7s0.6-1,0.6-1.7L889.1,496.8L889.1,496.8z"/>
</g>
<g class="st5">
	<path class="st8" d="M35.5,157.9c-0.8,0.4-1.9,0.7-3.1,0.7c-1.6,0-2.9-0.5-3.8-1.5s-1.4-2.4-1.4-4c0-1.8,0.5-3.2,1.6-4.3
		s2.4-1.7,4.1-1.7c1.1,0,1.9,0.2,2.6,0.5v1.4c-0.8-0.4-1.7-0.7-2.7-0.7c-1.3,0-2.3,0.4-3.1,1.3s-1.2,2-1.2,3.4s0.4,2.5,1.1,3.3
		s1.7,1.2,2.9,1.2c1.1,0,2.1-0.2,2.9-0.8L35.5,157.9L35.5,157.9z"/>
	<path class="st8" d="M43.4,158.4h-1.3v-1.2l0,0c-0.6,1-1.4,1.4-2.5,1.4c-0.8,0-1.4-0.2-1.9-0.6s-0.7-1-0.7-1.7
		c0-1.5,0.9-2.4,2.6-2.6l2.4-0.3c0-1.4-0.5-2-1.6-2c-1,0-1.8,0.3-2.6,1v-1.3c0.8-0.5,1.7-0.8,2.7-0.8c1.9,0,2.8,1,2.8,3L43.4,158.4
		L43.4,158.4z M42.1,154.3l-1.9,0.3c-0.6,0.1-1,0.2-1.3,0.4s-0.5,0.6-0.5,1.1c0,0.4,0.1,0.7,0.4,1s0.6,0.4,1.1,0.4
		c0.6,0,1.2-0.2,1.6-0.7s0.6-1,0.6-1.7C42.1,155.1,42.1,154.3,42.1,154.3z"/>
	<path class="st8" d="M47.1,157.2L47.1,157.2v4.8h-1.3v-11.7h1.3v1.4l0,0c0.6-1.1,1.6-1.6,2.8-1.6c1,0,1.8,0.4,2.4,1.1
		s0.9,1.7,0.9,2.9c0,1.3-0.3,2.4-1,3.2s-1.5,1.2-2.7,1.2C48.5,158.6,47.7,158.1,47.1,157.2z M47.1,154v1.1c0,0.7,0.2,1.2,0.6,1.7
		s1,0.7,1.6,0.7c0.8,0,1.4-0.3,1.8-0.9s0.7-1.4,0.7-2.5c0-0.9-0.2-1.6-0.6-2.1s-1-0.8-1.7-0.8s-1.3,0.3-1.8,0.8S47.1,153.2,47.1,154
		z"/>
	<path class="st8" d="M60.9,158.4h-1.3v-1.2l0,0c-0.6,1-1.4,1.4-2.5,1.4c-0.8,0-1.4-0.2-1.9-0.6s-0.7-1-0.7-1.7
		c0-1.5,0.9-2.4,2.6-2.6l2.4-0.3c0-1.4-0.5-2-1.6-2c-1,0-1.8,0.3-2.6,1v-1.3c0.8-0.5,1.7-0.8,2.7-0.8c1.9,0,2.8,1,2.8,3L60.9,158.4
		L60.9,158.4z M59.6,154.3l-1.9,0.3c-0.6,0.1-1,0.2-1.3,0.4s-0.5,0.6-0.5,1.1c0,0.4,0.1,0.7,0.4,1s0.6,0.4,1.1,0.4
		c0.6,0,1.2-0.2,1.6-0.7s0.6-1,0.6-1.7C59.6,155.1,59.6,154.3,59.6,154.3z"/>
	<path class="st8" d="M68.8,158c-0.6,0.4-1.3,0.6-2.2,0.6c-1.1,0-2.1-0.4-2.8-1.1s-1.1-1.7-1.1-2.9c0-1.3,0.4-2.4,1.1-3.2
		c0.7-0.8,1.8-1.2,3-1.2c0.7,0,1.3,0.1,1.9,0.4v1.3c-0.6-0.4-1.2-0.6-1.9-0.6c-0.8,0-1.5,0.3-2,0.9s-0.8,1.4-0.8,2.3
		c0,0.9,0.2,1.7,0.7,2.2s1.2,0.8,2,0.8c0.7,0,1.4-0.2,2-0.7v1.2H68.8z"/>
	<path class="st8" d="M71.4,148.3c-0.2,0-0.4-0.1-0.6-0.2s-0.2-0.4-0.2-0.6s0.1-0.4,0.2-0.6s0.4-0.2,0.6-0.2s0.4,0.1,0.6,0.2
		s0.2,0.4,0.2,0.6c0,0.2-0.1,0.4-0.2,0.6S71.6,148.3,71.4,148.3z M72,158.4h-1.3v-8H72V158.4z"/>
	<path class="st8" d="M81.4,158.4h-1.3V157l0,0c-0.6,1-1.5,1.5-2.8,1.5c-1,0-1.8-0.4-2.4-1.1s-0.9-1.7-0.9-2.9c0-1.3,0.3-2.4,1-3.2
		s1.6-1.2,2.7-1.2s1.9,0.4,2.4,1.3l0,0v-5h1.3C81.4,146.4,81.4,158.4,81.4,158.4z M80.2,154.8v-1.2c0-0.6-0.2-1.2-0.6-1.6
		s-1-0.7-1.6-0.7c-0.8,0-1.4,0.3-1.8,0.9s-0.7,1.4-0.7,2.4c0,0.9,0.2,1.6,0.6,2.2s1,0.8,1.7,0.8s1.3-0.3,1.7-0.8
		S80.2,155.5,80.2,154.8z"/>
	<path class="st8" d="M89.8,158.4h-1.3v-1.2l0,0c-0.6,1-1.4,1.4-2.5,1.4c-0.8,0-1.4-0.2-1.9-0.6s-0.7-1-0.7-1.7
		c0-1.5,0.9-2.4,2.6-2.6l2.4-0.3c0-1.4-0.5-2-1.6-2c-1,0-1.8,0.3-2.6,1v-1.3c0.8-0.5,1.7-0.8,2.7-0.8c1.9,0,2.8,1,2.8,3L89.8,158.4
		L89.8,158.4z M88.5,154.3l-1.9,0.3c-0.6,0.1-1,0.2-1.3,0.4s-0.5,0.6-0.5,1.1c0,0.4,0.1,0.7,0.4,1s0.6,0.4,1.1,0.4
		c0.6,0,1.2-0.2,1.6-0.7s0.6-1,0.6-1.7C88.5,155.1,88.5,154.3,88.5,154.3z"/>
	<path class="st8" d="M99,158.4h-1.3V157l0,0c-0.6,1-1.5,1.5-2.8,1.5c-1,0-1.8-0.4-2.4-1.1s-0.9-1.7-0.9-2.9c0-1.3,0.3-2.4,1-3.2
		s1.6-1.2,2.7-1.2s1.9,0.4,2.4,1.3l0,0v-5H99V158.4z M97.7,154.8v-1.2c0-0.6-0.2-1.2-0.6-1.6s-1-0.7-1.6-0.7c-0.8,0-1.4,0.3-1.8,0.9
		s-0.7,1.4-0.7,2.4c0,0.9,0.2,1.6,0.6,2.2s1,0.8,1.7,0.8s1.3-0.3,1.7-0.8S97.7,155.5,97.7,154.8z"/>
	<path class="st8" d="M109.3,158.6c-1.2,0-2.1-0.4-2.8-1.1s-1.1-1.7-1.1-3s0.4-2.4,1.1-3.1s1.7-1.1,3-1.1c1.2,0,2.1,0.4,2.8,1.1
		s1,1.8,1,3.1s-0.4,2.3-1.1,3.1S110.5,158.6,109.3,158.6z M109.4,151.3c-0.8,0-1.5,0.3-2,0.8s-0.7,1.3-0.7,2.3
		c0,0.9,0.2,1.7,0.7,2.2s1.1,0.8,1.9,0.8s1.5-0.3,1.9-0.8s0.7-1.3,0.7-2.3s-0.2-1.8-0.7-2.3S110.2,151.3,109.4,151.3z"/>
	<path class="st8" d="M116.7,157.2L116.7,157.2v4.8h-1.3v-11.7h1.3v1.4l0,0c0.6-1.1,1.6-1.6,2.8-1.6c1,0,1.8,0.4,2.4,1.1
		s0.9,1.7,0.9,2.9c0,1.3-0.3,2.4-1,3.2s-1.5,1.2-2.7,1.2C118,158.6,117.2,158.1,116.7,157.2z M116.6,154v1.1c0,0.7,0.2,1.2,0.6,1.7
		s1,0.7,1.6,0.7c0.8,0,1.4-0.3,1.8-0.9s0.7-1.4,0.7-2.5c0-0.9-0.2-1.6-0.6-2.1s-1-0.8-1.7-0.8s-1.3,0.3-1.8,0.8
		S116.6,153.2,116.6,154z"/>
	<path class="st8" d="M131.2,154.7h-5.6c0,0.9,0.3,1.6,0.7,2.1s1.1,0.7,1.9,0.7c0.9,0,1.7-0.3,2.5-0.9v1.2c-0.7,0.5-1.6,0.8-2.8,0.8
		c-1.1,0-2-0.4-2.7-1.1s-1-1.7-1-3.1c0-1.2,0.4-2.3,1.1-3s1.6-1.2,2.6-1.2s1.9,0.3,2.4,1s0.9,1.6,0.9,2.8L131.2,154.7L131.2,154.7z
		 M129.9,153.6c0-0.7-0.2-1.3-0.5-1.7s-0.8-0.6-1.5-0.6c-0.6,0-1.1,0.2-1.5,0.6s-0.7,1-0.8,1.7H129.9z"/>
	<path class="st8" d="M137.3,151.7c-0.2-0.2-0.5-0.3-1-0.3s-1,0.3-1.4,0.8s-0.6,1.2-0.6,2.1v4.1H133v-8h1.3v1.6l0,0
		c0.2-0.6,0.5-1,0.8-1.3s0.8-0.5,1.3-0.5c0.3,0,0.6,0,0.8,0.1L137.3,151.7L137.3,151.7z"/>
	<path class="st8" d="M144.4,158.4h-1.3v-1.2l0,0c-0.6,1-1.4,1.4-2.5,1.4c-0.8,0-1.4-0.2-1.9-0.6s-0.7-1-0.7-1.7
		c0-1.5,0.9-2.4,2.6-2.6l2.4-0.3c0-1.4-0.5-2-1.6-2c-1,0-1.8,0.3-2.6,1v-1.3c0.8-0.5,1.7-0.8,2.7-0.8c1.9,0,2.8,1,2.8,3v5.1
		L144.4,158.4L144.4,158.4z M143.1,154.3l-1.9,0.3c-0.6,0.1-1,0.2-1.3,0.4s-0.5,0.6-0.5,1.1c0,0.4,0.1,0.7,0.4,1s0.6,0.4,1.1,0.4
		c0.6,0,1.2-0.2,1.6-0.7s0.6-1,0.6-1.7L143.1,154.3L143.1,154.3z"/>
	<path class="st8" d="M150.5,158.3c-0.3,0.2-0.7,0.2-1.2,0.2c-1.4,0-2.1-0.8-2.1-2.3v-4.7h-1.4v-1.1h1.4v-2l1.3-0.4v2.4h2v1.1h-2
		v4.5c0,0.5,0.1,0.9,0.3,1.1s0.5,0.3,0.9,0.3c0.3,0,0.6-0.1,0.8-0.3V158.3z"/>
	<path class="st8" d="M152.9,148.3c-0.2,0-0.4-0.1-0.6-0.2s-0.2-0.4-0.2-0.6s0.1-0.4,0.2-0.6s0.4-0.2,0.6-0.2c0.2,0,0.4,0.1,0.6,0.2
		s0.2,0.4,0.2,0.6c0,0.2-0.1,0.4-0.2,0.6S153.1,148.3,152.9,148.3z M153.5,158.4h-1.3v-8h1.3V158.4z"/>
	<path class="st8" d="M162.4,150.4l-3.2,8H158l-3-8h1.4l2,5.8c0.2,0.4,0.2,0.8,0.3,1.1l0,0c0.1-0.4,0.1-0.8,0.2-1.1l2.1-5.8H162.4z"
		/>
	<path class="st8" d="M169.5,158.4h-1.3v-1.2l0,0c-0.6,1-1.4,1.4-2.5,1.4c-0.8,0-1.4-0.2-1.9-0.6s-0.7-1-0.7-1.7
		c0-1.5,0.9-2.4,2.6-2.6l2.4-0.3c0-1.4-0.5-2-1.6-2c-1,0-1.8,0.3-2.6,1v-1.3c0.8-0.5,1.7-0.8,2.7-0.8c1.9,0,2.8,1,2.8,3v5.1
		L169.5,158.4L169.5,158.4z M168.2,154.3l-1.9,0.3c-0.6,0.1-1,0.2-1.3,0.4s-0.5,0.6-0.5,1.1c0,0.4,0.1,0.7,0.4,1s0.6,0.4,1.1,0.4
		c0.6,0,1.2-0.2,1.6-0.7s0.6-1,0.6-1.7L168.2,154.3L168.2,154.3z"/>
</g>
<g class="st5">
	<path class="st8" d="M803.5,157.6c-1.1,0.6-2.4,1-3.8,1c-1.6,0-2.9-0.5-3.9-1.5s-1.5-2.4-1.5-4.1c0-1.7,0.5-3.2,1.6-4.3
		s2.5-1.7,4.2-1.7c1.2,0,2.2,0.2,3.1,0.6v1.5c-0.9-0.6-2-0.9-3.2-0.9c-1.3,0-2.3,0.4-3.1,1.3s-1.2,2-1.2,3.4s0.4,2.5,1.1,3.3
		s1.8,1.2,3,1.2c0.9,0,1.6-0.2,2.3-0.5v-3.1h-2.5v-1.2h3.8v5H803.5z"/>
	<path class="st8" d="M812.4,154.7h-5.6c0,0.9,0.3,1.6,0.7,2.1s1.1,0.7,1.9,0.7c0.9,0,1.7-0.3,2.5-0.9v1.2c-0.7,0.5-1.6,0.8-2.8,0.8
		c-1.1,0-2-0.4-2.7-1.1s-1-1.7-1-3.1c0-1.2,0.4-2.3,1.1-3s1.6-1.2,2.6-1.2s1.9,0.3,2.4,1s0.9,1.6,0.9,2.8L812.4,154.7L812.4,154.7z
		 M811.1,153.6c0-0.7-0.2-1.3-0.5-1.7s-0.8-0.6-1.5-0.6c-0.6,0-1.1,0.2-1.5,0.6s-0.7,1-0.8,1.7H811.1z"/>
	<path class="st8" d="M813.9,158.1v-1.4c0.7,0.5,1.5,0.8,2.3,0.8c1.1,0,1.7-0.4,1.7-1.1c0-0.2,0-0.4-0.1-0.5s-0.2-0.3-0.4-0.4
		s-0.4-0.2-0.6-0.3s-0.5-0.2-0.7-0.3c-0.4-0.1-0.7-0.3-0.9-0.4s-0.5-0.3-0.7-0.5s-0.3-0.4-0.4-0.6s-0.1-0.5-0.1-0.8
		c0-0.4,0.1-0.7,0.3-1s0.4-0.5,0.7-0.7s0.6-0.3,1-0.4s0.7-0.1,1.1-0.1c0.7,0,1.3,0.1,1.9,0.4v1.3c-0.6-0.4-1.3-0.6-2-0.6
		c-0.2,0-0.5,0-0.6,0.1s-0.4,0.1-0.5,0.2s-0.2,0.2-0.3,0.4s-0.1,0.3-0.1,0.5s0,0.4,0.1,0.5s0.2,0.3,0.3,0.4s0.3,0.2,0.5,0.3
		s0.4,0.2,0.7,0.3c0.4,0.1,0.7,0.3,1,0.4s0.5,0.3,0.7,0.5s0.4,0.4,0.5,0.6s0.2,0.5,0.2,0.8c0,0.4-0.1,0.7-0.3,1s-0.4,0.5-0.7,0.7
		s-0.6,0.3-1,0.4s-0.8,0.1-1.2,0.1C815.2,158.6,814.5,158.4,813.9,158.1z"/>
	<path class="st8" d="M824.8,158.3c-0.3,0.2-0.7,0.2-1.2,0.2c-1.4,0-2.1-0.8-2.1-2.3v-4.7h-1.4v-1.1h1.4v-2l1.3-0.4v2.4h2v1.1h-2
		v4.5c0,0.5,0.1,0.9,0.3,1.1s0.5,0.3,0.9,0.3c0.3,0,0.6-0.1,0.8-0.3V158.3z"/>
	<path class="st8" d="M827.2,148.3c-0.2,0-0.4-0.1-0.6-0.2s-0.2-0.4-0.2-0.6s0.1-0.4,0.2-0.6s0.4-0.2,0.6-0.2c0.2,0,0.4,0.1,0.6,0.2
		s0.2,0.4,0.2,0.6c0,0.2-0.1,0.4-0.2,0.6S827.4,148.3,827.2,148.3z M827.8,158.4h-1.3v-8h1.3V158.4z"/>
	<path class="st8" d="M833.8,158.6c-1.2,0-2.1-0.4-2.8-1.1s-1.1-1.7-1.1-3s0.4-2.4,1.1-3.1s1.7-1.1,3-1.1c1.2,0,2.1,0.4,2.8,1.1
		s1,1.8,1,3.1s-0.4,2.3-1.1,3.1S835,158.6,833.8,158.6z M833.9,151.3c-0.8,0-1.5,0.3-2,0.8s-0.7,1.3-0.7,2.3c0,0.9,0.2,1.7,0.7,2.2
		s1.1,0.8,1.9,0.8c0.8,0,1.5-0.3,1.9-0.8s0.7-1.3,0.7-2.3s-0.2-1.8-0.7-2.3S834.7,151.3,833.9,151.3z M835.7,146.3l-2,2.6h-1
		l1.7-2.6H835.7z"/>
	<path class="st8" d="M846.4,158.4h-1.3v-4.6c0-1.7-0.6-2.5-1.9-2.5c-0.6,0-1.2,0.2-1.6,0.7s-0.6,1.1-0.6,1.8v4.6h-1.3v-8h1.3v1.3
		l0,0c0.6-1,1.5-1.5,2.6-1.5c0.9,0,1.5,0.3,2,0.8s0.7,1.4,0.7,2.4L846.4,158.4L846.4,158.4z"/>
	<path class="st8" d="M859,158.4h-1.3v-1.2l0,0c-0.6,1-1.4,1.4-2.5,1.4c-0.8,0-1.4-0.2-1.9-0.6s-0.7-1-0.7-1.7
		c0-1.5,0.9-2.4,2.6-2.6l2.4-0.3c0-1.4-0.5-2-1.6-2c-1,0-1.8,0.3-2.6,1v-1.3c0.8-0.5,1.7-0.8,2.7-0.8c1.9,0,2.8,1,2.8,3L859,158.4
		L859,158.4z M857.7,154.3l-1.9,0.3c-0.6,0.1-1,0.2-1.3,0.4s-0.5,0.6-0.5,1.1c0,0.4,0.1,0.7,0.4,1s0.6,0.4,1.1,0.4
		c0.6,0,1.2-0.2,1.6-0.7s0.6-1,0.6-1.7L857.7,154.3L857.7,154.3z"/>
	<path class="st8" d="M872.7,158.4h-1.3v-4.6c0-0.9-0.1-1.5-0.4-1.9s-0.7-0.6-1.4-0.6c-0.5,0-1,0.2-1.4,0.8s-0.6,1.1-0.6,1.8v4.6
		h-1.3v-4.8c0-1.6-0.6-2.4-1.8-2.4c-0.6,0-1,0.2-1.4,0.7s-0.5,1.1-0.5,1.8v4.6h-1.3v-8h1.3v1.3l0,0c0.6-1,1.4-1.5,2.5-1.5
		c0.5,0,1,0.2,1.4,0.5s0.7,0.7,0.8,1.2c0.6-1.1,1.5-1.7,2.7-1.7c1.8,0,2.6,1.1,2.6,3.3v4.9L872.7,158.4L872.7,158.4z"/>
	<path class="st8" d="M876.5,157.2L876.5,157.2v1.2h-1.3v-11.8h1.3v5.2l0,0c0.6-1.1,1.6-1.6,2.8-1.6c1,0,1.8,0.4,2.4,1.1
		s0.9,1.7,0.9,2.9c0,1.3-0.3,2.4-1,3.2s-1.5,1.2-2.7,1.2C877.8,158.6,877,158.1,876.5,157.2z M876.4,154v1.1c0,0.7,0.2,1.2,0.6,1.7
		s1,0.7,1.6,0.7c0.8,0,1.4-0.3,1.8-0.9s0.7-1.4,0.7-2.5c0-0.9-0.2-1.6-0.6-2.1s-1-0.8-1.7-0.8s-1.3,0.3-1.8,0.8
		S876.4,153.2,876.4,154z"/>
	<path class="st8" d="M885.2,148.3c-0.2,0-0.4-0.1-0.6-0.2s-0.2-0.4-0.2-0.6s0.1-0.4,0.2-0.6s0.4-0.2,0.6-0.2c0.2,0,0.4,0.1,0.6,0.2
		s0.2,0.4,0.2,0.6c0,0.2-0.1,0.4-0.2,0.6S885.5,148.3,885.2,148.3z M885.9,158.4h-1.3v-8h1.3V158.4z"/>
	<path class="st8" d="M894.9,154.7h-5.6c0,0.9,0.3,1.6,0.7,2.1s1.1,0.7,1.9,0.7c0.9,0,1.7-0.3,2.5-0.9v1.2c-0.7,0.5-1.6,0.8-2.8,0.8
		c-1.1,0-2-0.4-2.7-1.1s-1-1.7-1-3.1c0-1.2,0.4-2.3,1.1-3s1.6-1.2,2.6-1.2s1.9,0.3,2.4,1s0.9,1.6,0.9,2.8L894.9,154.7L894.9,154.7z
		 M893.6,153.6c0-0.7-0.2-1.3-0.5-1.7s-0.8-0.6-1.5-0.6c-0.6,0-1.1,0.2-1.5,0.6s-0.7,1-0.8,1.7H893.6z"/>
	<path class="st8" d="M903.5,158.4h-1.3v-4.6c0-1.7-0.6-2.5-1.9-2.5c-0.6,0-1.2,0.2-1.6,0.7s-0.6,1.1-0.6,1.8v4.6h-1.3v-8h1.3v1.3
		l0,0c0.6-1,1.5-1.5,2.6-1.5c0.9,0,1.5,0.3,2,0.8s0.7,1.4,0.7,2.4L903.5,158.4L903.5,158.4z"/>
	<path class="st8" d="M909.6,158.3c-0.3,0.2-0.7,0.2-1.2,0.2c-1.4,0-2.1-0.8-2.1-2.3v-4.7h-1.4v-1.1h1.4v-2l1.3-0.4v2.4h2v1.1h-2
		v4.5c0,0.5,0.1,0.9,0.3,1.1s0.5,0.3,0.9,0.3c0.3,0,0.6-0.1,0.8-0.3V158.3z"/>
	<path class="st8" d="M917,158.4h-1.3v-1.2l0,0c-0.6,1-1.4,1.4-2.5,1.4c-0.8,0-1.4-0.2-1.9-0.6s-0.7-1-0.7-1.7
		c0-1.5,0.9-2.4,2.6-2.6l2.4-0.3c0-1.4-0.5-2-1.6-2c-1,0-1.8,0.3-2.6,1v-1.3c0.8-0.5,1.7-0.8,2.7-0.8c1.9,0,2.8,1,2.8,3L917,158.4
		L917,158.4z M915.7,154.3l-1.9,0.3c-0.6,0.1-1,0.2-1.3,0.4s-0.5,0.6-0.5,1.1c0,0.4,0.1,0.7,0.4,1s0.6,0.4,1.1,0.4
		c0.6,0,1.2-0.2,1.6-0.7s0.6-1,0.6-1.7L915.7,154.3L915.7,154.3z"/>
	<path class="st8" d="M920.7,158.4h-1.3v-11.8h1.3V158.4z"/>
</g>
<g class="st5">
	<path class="st8" d="M33.6,394.1h-4.4v3.9h4v1.2h-4v5h-1.3V393h5.7V394.1z"/>
	<path class="st8" d="M36.2,394.1c-0.2,0-0.4-0.1-0.6-0.2s-0.2-0.4-0.2-0.6s0.1-0.4,0.2-0.6s0.4-0.2,0.6-0.2c0.2,0,0.4,0.1,0.6,0.2
		s0.2,0.4,0.2,0.6s-0.1,0.4-0.2,0.6S36.4,394.1,36.2,394.1z M36.8,404.1h-1.3v-8h1.3V404.1z"/>
	<path class="st8" d="M46.1,404.1h-1.3v-4.6c0-1.7-0.6-2.5-1.9-2.5c-0.6,0-1.2,0.2-1.6,0.7s-0.6,1.1-0.6,1.8v4.6h-1.3v-8h1.3v1.3
		l0,0c0.6-1,1.5-1.5,2.6-1.5c0.9,0,1.5,0.3,2,0.8s0.7,1.4,0.7,2.4L46.1,404.1L46.1,404.1z"/>
	<path class="st8" d="M54.2,404.1h-1.3v-1.2l0,0c-0.6,1-1.4,1.4-2.5,1.4c-0.8,0-1.4-0.2-1.9-0.6s-0.7-1-0.7-1.7
		c0-1.5,0.9-2.4,2.6-2.6l2.4-0.3c0-1.4-0.5-2-1.6-2c-1,0-1.8,0.3-2.6,1v-1.3c0.8-0.5,1.7-0.8,2.7-0.8c1.9,0,2.8,1,2.8,3L54.2,404.1
		L54.2,404.1z M52.9,400.1l-1.9,0.3c-0.6,0.1-1,0.2-1.3,0.4s-0.5,0.6-0.5,1.1c0,0.4,0.1,0.7,0.4,1s0.6,0.4,1.1,0.4
		c0.6,0,1.2-0.2,1.6-0.7s0.6-1,0.6-1.7C52.9,400.9,52.9,400.1,52.9,400.1z"/>
	<path class="st8" d="M63.3,404.1H62v-4.6c0-1.7-0.6-2.5-1.9-2.5c-0.6,0-1.2,0.2-1.6,0.7s-0.6,1.1-0.6,1.8v4.6h-1.3v-8h1.3v1.3l0,0
		c0.6-1,1.5-1.5,2.6-1.5c0.9,0,1.5,0.3,2,0.8s0.7,1.4,0.7,2.4L63.3,404.1L63.3,404.1z"/>
	<path class="st8" d="M71.1,403.8c-0.6,0.4-1.3,0.6-2.2,0.6c-1.1,0-2.1-0.4-2.8-1.1s-1.1-1.7-1.1-2.9c0-1.3,0.4-2.4,1.1-3.2
		s1.8-1.2,3-1.2c0.7,0,1.3,0.1,1.9,0.4v1.3c-0.6-0.4-1.2-0.6-1.9-0.6c-0.8,0-1.5,0.3-2,0.9s-0.8,1.4-0.8,2.3s0.2,1.7,0.7,2.2
		s1.2,0.8,2,0.8c0.7,0,1.4-0.2,2-0.7v1.2L71.1,403.8L71.1,403.8z"/>
	<path class="st8" d="M73.7,394.1c-0.2,0-0.4-0.1-0.6-0.2s-0.2-0.4-0.2-0.6s0.1-0.4,0.2-0.6s0.4-0.2,0.6-0.2s0.4,0.1,0.6,0.2
		s0.2,0.4,0.2,0.6s-0.1,0.4-0.2,0.6S74,394.1,73.7,394.1z M74.4,404.1h-1.3v-8h1.3V404.1z"/>
	<path class="st8" d="M83.4,400.4h-5.6c0,0.9,0.3,1.6,0.7,2.1s1.1,0.7,1.9,0.7c0.9,0,1.7-0.3,2.5-0.9v1.2c-0.7,0.5-1.6,0.8-2.8,0.8
		c-1.1,0-2-0.4-2.7-1.1s-1-1.7-1-3.1c0-1.2,0.4-2.3,1.1-3s1.6-1.2,2.6-1.2s1.9,0.3,2.4,1s0.9,1.6,0.9,2.8V400.4z M82.1,399.4
		c0-0.7-0.2-1.3-0.5-1.7s-0.8-0.6-1.5-0.6c-0.6,0-1.1,0.2-1.5,0.6s-0.7,1-0.8,1.7H82.1z"/>
	<path class="st8" d="M89.5,397.4c-0.2-0.2-0.5-0.3-1-0.3s-1,0.3-1.4,0.8s-0.6,1.2-0.6,2.1v4.1h-1.3v-8h1.3v1.6l0,0
		c0.2-0.6,0.5-1,0.8-1.3s0.8-0.5,1.3-0.5c0.3,0,0.6,0,0.8,0.1L89.5,397.4L89.5,397.4z"/>
	<path class="st8" d="M94.2,404.3c-1.2,0-2.1-0.4-2.8-1.1s-1.1-1.7-1.1-3s0.4-2.4,1.1-3.1s1.7-1.1,3-1.1c1.2,0,2.1,0.4,2.8,1.1
		s1,1.8,1,3.1c0,1.3-0.4,2.3-1.1,3.1S95.4,404.3,94.2,404.3z M94.3,397c-0.8,0-1.5,0.3-2,0.8s-0.7,1.3-0.7,2.3
		c0,0.9,0.2,1.7,0.7,2.2s1.1,0.8,1.9,0.8s1.5-0.3,1.9-0.8s0.7-1.3,0.7-2.3s-0.2-1.8-0.7-2.3S95.1,397,94.3,397z"/>
</g>
<g class="st5">
	<path class="st8" d="M803,404.1h-1.6l-1.9-3.1c-0.2-0.3-0.3-0.5-0.5-0.7s-0.3-0.4-0.5-0.5s-0.4-0.2-0.5-0.3s-0.4-0.1-0.7-0.1h-1.1
		v4.8h-1.3V393h3.3c0.5,0,0.9,0.1,1.4,0.2s0.8,0.3,1.1,0.6s0.5,0.6,0.7,0.9s0.3,0.8,0.3,1.3c0,0.4-0.1,0.7-0.2,1.1s-0.3,0.6-0.5,0.9
		s-0.5,0.5-0.8,0.7s-0.6,0.3-1,0.4l0,0c0.2,0.1,0.4,0.2,0.5,0.3s0.3,0.2,0.4,0.4s0.2,0.3,0.4,0.5s0.3,0.4,0.4,0.6L803,404.1z
		 M796.3,394.1v4.1h1.8c0.3,0,0.6,0,0.9-0.1s0.5-0.2,0.7-0.4s0.4-0.4,0.5-0.7s0.2-0.6,0.2-0.9c0-0.6-0.2-1.1-0.6-1.4
		s-0.9-0.5-1.7-0.5h-1.8L796.3,394.1L796.3,394.1z"/>
	<path class="st8" d="M810.3,400.4h-5.6c0,0.9,0.3,1.6,0.7,2.1s1.1,0.7,1.9,0.7c0.9,0,1.7-0.3,2.5-0.9v1.2c-0.7,0.5-1.6,0.8-2.8,0.8
		c-1.1,0-2-0.4-2.7-1.1s-1-1.7-1-3.1c0-1.2,0.4-2.3,1.1-3s1.6-1.2,2.6-1.2s1.9,0.3,2.4,1s0.9,1.6,0.9,2.8L810.3,400.4L810.3,400.4z
		 M809,399.4c0-0.7-0.2-1.3-0.5-1.7s-0.8-0.6-1.5-0.6c-0.6,0-1.1,0.2-1.5,0.6s-0.7,1-0.8,1.7H809z"/>
	<path class="st8" d="M811.8,403.8v-1.4c0.7,0.5,1.5,0.8,2.3,0.8c1.1,0,1.7-0.4,1.7-1.1c0-0.2,0-0.4-0.1-0.5s-0.2-0.3-0.4-0.4
		s-0.4-0.2-0.6-0.3s-0.5-0.2-0.7-0.3c-0.4-0.1-0.7-0.3-0.9-0.4s-0.5-0.3-0.7-0.5s-0.3-0.4-0.4-0.6s-0.1-0.5-0.1-0.8
		c0-0.4,0.1-0.7,0.3-1s0.4-0.5,0.7-0.7s0.6-0.3,1-0.4s0.7-0.1,1.1-0.1c0.7,0,1.3,0.1,1.9,0.4v1.3c-0.6-0.4-1.3-0.6-2-0.6
		c-0.2,0-0.5,0-0.6,0.1s-0.4,0.1-0.5,0.2s-0.2,0.2-0.3,0.4s-0.1,0.3-0.1,0.5s0,0.4,0.1,0.5s0.2,0.3,0.3,0.4s0.3,0.2,0.5,0.3
		s0.4,0.2,0.7,0.3c0.4,0.1,0.7,0.3,1,0.4s0.5,0.3,0.7,0.5s0.4,0.4,0.5,0.6s0.2,0.5,0.2,0.8c0,0.4-0.1,0.7-0.3,1s-0.4,0.5-0.7,0.7
		s-0.6,0.3-1,0.4s-0.8,0.1-1.2,0.1C813.1,404.3,812.4,404.1,811.8,403.8z"/>
	<path class="st8" d="M820.3,403L820.3,403v4.8H819v-11.7h1.3v1.4l0,0c0.6-1.1,1.6-1.6,2.8-1.6c1,0,1.8,0.4,2.4,1.1s0.9,1.7,0.9,2.9
		c0,1.3-0.3,2.4-1,3.2s-1.5,1.2-2.7,1.2C821.7,404.3,820.9,403.9,820.3,403z M820.3,399.7v1.1c0,0.7,0.2,1.2,0.6,1.7s1,0.7,1.6,0.7
		c0.8,0,1.4-0.3,1.8-0.9s0.7-1.4,0.7-2.5c0-0.9-0.2-1.6-0.6-2.1s-1-0.8-1.7-0.8s-1.3,0.3-1.8,0.8S820.3,399,820.3,399.7z"/>
	<path class="st8" d="M831.8,404.3c-1.2,0-2.1-0.4-2.8-1.1s-1.1-1.7-1.1-3s0.4-2.4,1.1-3.1s1.7-1.1,3-1.1c1.2,0,2.1,0.4,2.8,1.1
		s1,1.8,1,3.1c0,1.3-0.4,2.3-1.1,3.1S833,404.3,831.8,404.3z M831.9,397c-0.8,0-1.5,0.3-2,0.8s-0.7,1.3-0.7,2.3
		c0,0.9,0.2,1.7,0.7,2.2s1.1,0.8,1.9,0.8c0.8,0,1.5-0.3,1.9-0.8s0.7-1.3,0.7-2.3s-0.2-1.8-0.7-2.3S832.7,397,831.9,397z"/>
	<path class="st8" d="M844.5,404.1h-1.3v-4.6c0-1.7-0.6-2.5-1.9-2.5c-0.6,0-1.2,0.2-1.6,0.7s-0.6,1.1-0.6,1.8v4.6h-1.3v-8h1.3v1.3
		l0,0c0.6-1,1.5-1.5,2.6-1.5c0.9,0,1.5,0.3,2,0.8s0.7,1.4,0.7,2.4L844.5,404.1L844.5,404.1z"/>
	<path class="st8" d="M846.4,403.8v-1.4c0.7,0.5,1.5,0.8,2.3,0.8c1.1,0,1.7-0.4,1.7-1.1c0-0.2,0-0.4-0.1-0.5s-0.2-0.3-0.4-0.4
		s-0.4-0.2-0.6-0.3s-0.5-0.2-0.7-0.3c-0.4-0.1-0.7-0.3-0.9-0.4s-0.5-0.3-0.7-0.5s-0.3-0.4-0.4-0.6s-0.1-0.5-0.1-0.8
		c0-0.4,0.1-0.7,0.3-1s0.4-0.5,0.7-0.7s0.6-0.3,1-0.4s0.7-0.1,1.1-0.1c0.7,0,1.3,0.1,1.9,0.4v1.3c-0.6-0.4-1.3-0.6-2-0.6
		c-0.2,0-0.5,0-0.6,0.1s-0.4,0.1-0.5,0.2s-0.2,0.2-0.3,0.4s-0.1,0.3-0.1,0.5s0,0.4,0.1,0.5s0.2,0.3,0.3,0.4s0.3,0.2,0.5,0.3
		s0.4,0.2,0.7,0.3c0.4,0.1,0.7,0.3,1,0.4s0.5,0.3,0.7,0.5s0.4,0.4,0.5,0.6s0.2,0.5,0.2,0.8c0,0.4-0.1,0.7-0.3,1s-0.4,0.5-0.7,0.7
		s-0.6,0.3-1,0.4s-0.8,0.1-1.2,0.1C847.7,404.3,847,404.1,846.4,403.8z"/>
	<path class="st8" d="M915.4,403.8v-1.4c0.7,0.5,1.5,0.8,2.3,0.8c1.1,0,1.7-0.4,1.7-1.1c0-0.2,0-0.4-0.1-0.5s-0.2-0.3-0.4-0.4
		s-0.4-0.2-0.6-0.3s-0.5-0.2-0.7-0.3c-0.4-0.1-0.7-0.3-0.9-0.4s-0.5-0.3-0.7-0.5s-0.3-0.4-0.4-0.6s-0.1-0.5-0.1-0.8
		c0-0.4,0.1-0.7,0.3-1s0.4-0.5,0.7-0.7s0.6-0.3,1-0.4s0.7-0.1,1.1-0.1c0.7,0,1.3,0.1,1.9,0.4v1.3c-0.6-0.4-1.3-0.6-2-0.6
		c-0.2,0-0.5,0-0.6,0.1s-0.4,0.1-0.5,0.2s-0.2,0.2-0.3,0.4s-0.1,0.3-0.1,0.5s0,0.4,0.1,0.5s0.2,0.3,0.3,0.4s0.3,0.2,0.5,0.3
		s0.4,0.2,0.7,0.3c0.4,0.1,0.7,0.3,1,0.4s0.5,0.3,0.7,0.5s0.4,0.4,0.5,0.6s0.2,0.5,0.2,0.8c0,0.4-0.1,0.7-0.3,1s-0.4,0.5-0.7,0.7
		s-0.6,0.3-1,0.4s-0.8,0.1-1.2,0.1C916.7,404.3,916,404.1,915.4,403.8z"/>
	<path class="st8" d="M859.4,404.1h-1.3v-1.2l0,0c-0.6,1-1.4,1.4-2.5,1.4c-0.8,0-1.4-0.2-1.9-0.6s-0.7-1-0.7-1.7
		c0-1.5,0.9-2.4,2.6-2.6l2.4-0.3c0-1.4-0.5-2-1.6-2c-1,0-1.8,0.3-2.6,1v-1.3c0.8-0.5,1.7-0.8,2.7-0.8c1.9,0,2.8,1,2.8,3L859.4,404.1
		L859.4,404.1z M858.1,400.1l-1.9,0.3c-0.6,0.1-1,0.2-1.3,0.4s-0.5,0.6-0.5,1.1c0,0.4,0.1,0.7,0.4,1s0.6,0.4,1.1,0.4
		c0.6,0,1.2-0.2,1.6-0.7s0.6-1,0.6-1.7L858.1,400.1L858.1,400.1z"/>
	<path class="st8" d="M863.1,403L863.1,403v1.2h-1.3v-11.8h1.3v5.2l0,0c0.6-1.1,1.6-1.6,2.8-1.6c1,0,1.8,0.4,2.4,1.1
		s0.9,1.7,0.9,2.9c0,1.3-0.3,2.4-1,3.2s-1.5,1.2-2.7,1.2C864.4,404.3,863.6,403.9,863.1,403z M863.1,399.7v1.1
		c0,0.7,0.2,1.2,0.6,1.7s1,0.7,1.6,0.7c0.8,0,1.4-0.3,1.8-0.9s0.7-1.4,0.7-2.5c0-0.9-0.2-1.6-0.6-2.1s-1-0.8-1.7-0.8
		s-1.3,0.3-1.8,0.8S863.1,399,863.1,399.7z"/>
	<path class="st8" d="M871.9,394.1c-0.2,0-0.4-0.1-0.6-0.2s-0.2-0.4-0.2-0.6s0.1-0.4,0.2-0.6s0.4-0.2,0.6-0.2c0.2,0,0.4,0.1,0.6,0.2
		s0.2,0.4,0.2,0.6s-0.1,0.4-0.2,0.6S872.1,394.1,871.9,394.1z M872.5,404.1h-1.3v-8h1.3V404.1z"/>
	<path class="st8" d="M876.4,404.1h-1.3v-11.8h1.3V404.1z"/>
	<path class="st8" d="M879.6,394.1c-0.2,0-0.4-0.1-0.6-0.2s-0.2-0.4-0.2-0.6s0.1-0.4,0.2-0.6s0.4-0.2,0.6-0.2c0.2,0,0.4,0.1,0.6,0.2
		s0.2,0.4,0.2,0.6s-0.1,0.4-0.2,0.6S879.8,394.1,879.6,394.1z M880.2,404.1H879v-8h1.3L880.2,404.1L880.2,404.1z"/>
	<path class="st8" d="M889.7,404.1h-1.3v-1.4l0,0c-0.6,1-1.5,1.5-2.8,1.5c-1,0-1.8-0.4-2.4-1.1s-0.9-1.7-0.9-2.9
		c0-1.3,0.3-2.4,1-3.2s1.6-1.2,2.7-1.2c1.1,0,1.9,0.4,2.4,1.3l0,0v-5h1.3V404.1z M888.4,400.5v-1.2c0-0.6-0.2-1.2-0.6-1.6
		s-1-0.7-1.6-0.7c-0.8,0-1.4,0.3-1.8,0.9s-0.7,1.4-0.7,2.4c0,0.9,0.2,1.6,0.6,2.2s1,0.8,1.7,0.8s1.3-0.3,1.7-0.8
		S888.4,401.3,888.4,400.5z"/>
	<path class="st8" d="M898,404.1h-1.3v-1.2l0,0c-0.6,1-1.4,1.4-2.5,1.4c-0.8,0-1.4-0.2-1.9-0.6s-0.7-1-0.7-1.7
		c0-1.5,0.9-2.4,2.6-2.6l2.4-0.3c0-1.4-0.5-2-1.6-2c-1,0-1.8,0.3-2.6,1v-1.3c0.8-0.5,1.7-0.8,2.7-0.8c1.9,0,2.8,1,2.8,3L898,404.1
		L898,404.1z M896.7,400.1l-1.9,0.3c-0.6,0.1-1,0.2-1.3,0.4s-0.5,0.6-0.5,1.1c0,0.4,0.1,0.7,0.4,1s0.6,0.4,1.1,0.4
		c0.6,0,1.2-0.2,1.6-0.7s0.6-1,0.6-1.7L896.7,400.1L896.7,400.1z"/>
	<path class="st8" d="M907.2,404.1h-1.3v-1.4l0,0c-0.6,1-1.5,1.5-2.8,1.5c-1,0-1.8-0.4-2.4-1.1s-0.9-1.7-0.9-2.9
		c0-1.3,0.3-2.4,1-3.2s1.6-1.2,2.7-1.2c1.1,0,1.9,0.4,2.4,1.3l0,0v-5h1.3V404.1z M905.9,400.5v-1.2c0-0.6-0.2-1.2-0.6-1.6
		s-1-0.7-1.6-0.7c-0.8,0-1.4,0.3-1.8,0.9s-0.7,1.4-0.7,2.4c0,0.9,0.2,1.6,0.6,2.2s1,0.8,1.7,0.8s1.3-0.3,1.7-0.8
		S905.9,401.3,905.9,400.5z"/>
	<path class="st8" d="M926,404.3c-1.2,0-2.1-0.4-2.8-1.1s-1.1-1.7-1.1-3s0.4-2.4,1.1-3.1s1.7-1.1,3-1.1c1.2,0,2.1,0.4,2.8,1.1
		s1,1.8,1,3.1c0,1.3-0.4,2.3-1.1,3.1S927.3,404.3,926,404.3z M926.1,397c-0.8,0-1.5,0.3-2,0.8s-0.7,1.3-0.7,2.3
		c0,0.9,0.2,1.7,0.7,2.2s1.1,0.8,1.9,0.8c0.8,0,1.5-0.3,1.9-0.8s0.7-1.3,0.7-2.3s-0.2-1.8-0.7-2.3S927,397,926.1,397z"/>
	<path class="st8" d="M937.5,403.8c-0.6,0.4-1.3,0.6-2.2,0.6c-1.1,0-2.1-0.4-2.8-1.1s-1.1-1.7-1.1-2.9c0-1.3,0.4-2.4,1.1-3.2
		s1.8-1.2,3-1.2c0.7,0,1.3,0.1,1.9,0.4v1.3c-0.6-0.4-1.2-0.6-1.9-0.6c-0.8,0-1.5,0.3-2,0.9s-0.8,1.4-0.8,2.3s0.2,1.7,0.7,2.2
		s1.2,0.8,2,0.8c0.7,0,1.4-0.2,2-0.7L937.5,403.8L937.5,403.8z"/>
	<path class="st8" d="M940.1,394.1c-0.2,0-0.4-0.1-0.6-0.2s-0.2-0.4-0.2-0.6s0.1-0.4,0.2-0.6s0.4-0.2,0.6-0.2c0.2,0,0.4,0.1,0.6,0.2
		s0.2,0.4,0.2,0.6s-0.1,0.4-0.2,0.6S940.3,394.1,940.1,394.1z M940.7,404.1h-1.3v-8h1.3V404.1z"/>
	<path class="st8" d="M949.1,404.1h-1.3v-1.2l0,0c-0.6,1-1.4,1.4-2.5,1.4c-0.8,0-1.4-0.2-1.9-0.6s-0.7-1-0.7-1.7
		c0-1.5,0.9-2.4,2.6-2.6l2.4-0.3c0-1.4-0.5-2-1.6-2c-1,0-1.8,0.3-2.6,1v-1.3c0.8-0.5,1.7-0.8,2.7-0.8c1.9,0,2.8,1,2.8,3L949.1,404.1
		L949.1,404.1z M947.8,400.1l-1.9,0.3c-0.6,0.1-1,0.2-1.3,0.4s-0.5,0.6-0.5,1.1c0,0.4,0.1,0.7,0.4,1s0.6,0.4,1.1,0.4
		c0.6,0,1.2-0.2,1.6-0.7s0.6-1,0.6-1.7L947.8,400.1L947.8,400.1z"/>
	<path class="st8" d="M952.8,404.1h-1.3v-11.8h1.3V404.1z"/>
</g>
<g class="st5">
	<path class="st8" d="M35.5,280.2c-0.8,0.4-1.9,0.7-3.1,0.7c-1.6,0-2.9-0.5-3.8-1.5s-1.4-2.4-1.4-4c0-1.8,0.5-3.2,1.6-4.3
		s2.4-1.7,4.1-1.7c1.1,0,1.9,0.2,2.6,0.5v1.4c-0.8-0.4-1.7-0.7-2.7-0.7c-1.3,0-2.3,0.4-3.1,1.3s-1.2,2-1.2,3.4s0.4,2.5,1.1,3.3
		s1.7,1.2,2.9,1.2c1.1,0,2.1-0.2,2.9-0.8L35.5,280.2L35.5,280.2z"/>
	<path class="st8" d="M41,280.9c-1.2,0-2.1-0.4-2.8-1.1s-1.1-1.7-1.1-3s0.4-2.4,1.1-3.1s1.7-1.1,3-1.1c1.2,0,2.1,0.4,2.8,1.1
		s1,1.8,1,3.1c0,1.3-0.4,2.3-1.1,3.1S42.2,280.9,41,280.9z M41.1,273.6c-0.8,0-1.5,0.3-2,0.8s-0.7,1.3-0.7,2.3
		c0,0.9,0.2,1.7,0.7,2.2s1.1,0.8,1.9,0.8c0.8,0,1.5-0.3,1.9-0.8s0.7-1.3,0.7-2.3s-0.2-1.8-0.7-2.3S41.9,273.6,41.1,273.6z"/>
	<path class="st8" d="M58.4,280.7h-1.3v-4.6c0-0.9-0.1-1.5-0.4-1.9s-0.7-0.6-1.4-0.6c-0.5,0-1,0.2-1.4,0.8s-0.6,1.1-0.6,1.8v4.6H52
		V276c0-1.6-0.6-2.4-1.8-2.4c-0.6,0-1,0.2-1.4,0.7s-0.5,1.1-0.5,1.8v4.6H47v-8h1.3v1.3l0,0c0.6-1,1.4-1.5,2.5-1.5
		c0.5,0,1,0.2,1.4,0.5s0.7,0.7,0.8,1.2c0.6-1.1,1.5-1.7,2.7-1.7c1.8,0,2.6,1.1,2.6,3.3v4.9L58.4,280.7L58.4,280.7z"/>
	<path class="st8" d="M67.2,277h-5.6c0,0.9,0.3,1.6,0.7,2.1s1.1,0.7,1.9,0.7c0.9,0,1.7-0.3,2.5-0.9v1.2c-0.7,0.5-1.6,0.8-2.8,0.8
		c-1.1,0-2-0.4-2.7-1.1s-1-1.7-1-3.1c0-1.2,0.4-2.3,1.1-3s1.6-1.2,2.6-1.2s1.9,0.3,2.4,1s0.9,1.6,0.9,2.8V277z M65.9,275.9
		c0-0.7-0.2-1.3-0.5-1.7s-0.8-0.6-1.5-0.6c-0.6,0-1.1,0.2-1.5,0.6s-0.7,1-0.8,1.7H65.9z"/>
	<path class="st8" d="M73.3,274c-0.2-0.2-0.5-0.3-1-0.3s-1,0.3-1.4,0.8s-0.6,1.2-0.6,2.1v4.1H69v-8h1.3v1.6l0,0
		c0.2-0.6,0.5-1,0.8-1.3s0.8-0.5,1.3-0.5c0.3,0,0.6,0,0.8,0.1L73.3,274L73.3,274z"/>
	<path class="st8" d="M80.2,280.3c-0.6,0.4-1.3,0.6-2.2,0.6c-1.1,0-2.1-0.4-2.8-1.1s-1.1-1.7-1.1-2.9c0-1.3,0.4-2.4,1.1-3.2
		s1.8-1.2,3-1.2c0.7,0,1.3,0.1,1.9,0.4v1.3c-0.6-0.4-1.2-0.6-1.9-0.6c-0.8,0-1.5,0.3-2,0.9s-0.8,1.4-0.8,2.3s0.2,1.7,0.7,2.2
		s1.2,0.8,2,0.8c0.7,0,1.4-0.2,2-0.7v1.2L80.2,280.3L80.2,280.3z"/>
	<path class="st8" d="M82.8,270.7c-0.2,0-0.4-0.1-0.6-0.2s-0.2-0.4-0.2-0.6s0.1-0.4,0.2-0.6s0.4-0.2,0.6-0.2s0.4,0.1,0.6,0.2
		s0.2,0.4,0.2,0.6s-0.1,0.4-0.2,0.6S83,270.7,82.8,270.7z M83.4,280.7h-1.3v-8h1.3V280.7z"/>
	<path class="st8" d="M91.7,280.7h-1.3v-1.2l0,0c-0.6,1-1.4,1.4-2.5,1.4c-0.8,0-1.4-0.2-1.9-0.6s-0.7-1-0.7-1.7
		c0-1.5,0.9-2.4,2.6-2.6l2.4-0.3c0-1.4-0.5-2-1.6-2c-1,0-1.8,0.3-2.6,1v-1.3c0.8-0.5,1.7-0.8,2.7-0.8c1.9,0,2.8,1,2.8,3L91.7,280.7
		L91.7,280.7z M90.4,276.6l-1.9,0.3c-0.6,0.1-1,0.2-1.3,0.4s-0.5,0.6-0.5,1.1c0,0.4,0.1,0.7,0.4,1s0.6,0.4,1.1,0.4
		c0.6,0,1.2-0.2,1.6-0.7s0.6-1,0.6-1.7C90.4,277.4,90.4,276.6,90.4,276.6z"/>
	<path class="st8" d="M95.4,280.7h-1.3v-11.8h1.3V280.7z"/>
</g>
<g class="st5">
	<path class="st8" d="M835.6,280.7h-5.8v-11.2h1.3v10h4.5V280.7z"/>
	<path class="st8" d="M842.9,280.7h-1.3v-1.2l0,0c-0.6,1-1.4,1.4-2.5,1.4c-0.8,0-1.4-0.2-1.9-0.6s-0.7-1-0.7-1.7
		c0-1.5,0.9-2.4,2.6-2.6l2.4-0.3c0-1.4-0.5-2-1.6-2c-1,0-1.8,0.3-2.6,1v-1.3c0.8-0.5,1.7-0.8,2.7-0.8c1.9,0,2.8,1,2.8,3L842.9,280.7
		L842.9,280.7z M841.6,276.6l-1.9,0.3c-0.6,0.1-1,0.2-1.3,0.4c-0.3,0.2-0.5,0.6-0.5,1.1c0,0.4,0.1,0.7,0.4,1
		c0.3,0.2,0.6,0.4,1.1,0.4c0.6,0,1.2-0.2,1.6-0.7s0.6-1,0.6-1.7L841.6,276.6L841.6,276.6z"/>
	<path class="st8" d="M846.6,279.5L846.6,279.5v1.2h-1.3v-11.8h1.3v5.2l0,0c0.6-1.1,1.6-1.6,2.8-1.6c1,0,1.8,0.4,2.4,1.1
		c0.6,0.7,0.9,1.7,0.9,2.9c0,1.3-0.3,2.4-1,3.2c-0.7,0.8-1.5,1.2-2.7,1.2C847.9,280.9,847.1,280.4,846.6,279.5z M846.5,276.3v1.1
		c0,0.7,0.2,1.2,0.6,1.7s1,0.7,1.6,0.7c0.8,0,1.4-0.3,1.8-0.9c0.4-0.6,0.7-1.4,0.7-2.5c0-0.9-0.2-1.6-0.6-2.1
		c-0.4-0.5-1-0.8-1.7-0.8s-1.3,0.3-1.8,0.8S846.5,275.5,846.5,276.3z"/>
	<path class="st8" d="M858,280.9c-1.2,0-2.1-0.4-2.8-1.1s-1.1-1.7-1.1-3s0.4-2.4,1.1-3.1s1.7-1.1,3-1.1c1.2,0,2.1,0.4,2.8,1.1
		s1,1.8,1,3.1c0,1.3-0.4,2.3-1.1,3.1C860.2,280.5,859.2,280.9,858,280.9z M858.1,273.6c-0.8,0-1.5,0.3-2,0.8
		c-0.5,0.6-0.7,1.3-0.7,2.3c0,0.9,0.2,1.7,0.7,2.2s1.1,0.8,1.9,0.8c0.8,0,1.5-0.3,1.9-0.8s0.7-1.3,0.7-2.3s-0.2-1.8-0.7-2.3
		S858.9,273.6,858.1,273.6z"/>
	<path class="st8" d="M868.2,274c-0.2-0.2-0.5-0.3-1-0.3s-1,0.3-1.4,0.8s-0.6,1.2-0.6,2.1v4.1H864v-8h1.3v1.6l0,0
		c0.2-0.6,0.5-1,0.8-1.3s0.8-0.5,1.3-0.5c0.3,0,0.6,0,0.8,0.1L868.2,274L868.2,274z"/>
	<path class="st8" d="M875.3,280.7H874v-1.2l0,0c-0.6,1-1.4,1.4-2.5,1.4c-0.8,0-1.4-0.2-1.9-0.6s-0.7-1-0.7-1.7
		c0-1.5,0.9-2.4,2.6-2.6l2.4-0.3c0-1.4-0.5-2-1.6-2c-1,0-1.8,0.3-2.6,1v-1.3c0.8-0.5,1.7-0.8,2.7-0.8c1.9,0,2.8,1,2.8,3L875.3,280.7
		L875.3,280.7z M874.1,276.6l-1.9,0.3c-0.6,0.1-1,0.2-1.3,0.4c-0.3,0.2-0.5,0.6-0.5,1.1c0,0.4,0.1,0.7,0.4,1
		c0.3,0.2,0.6,0.4,1.1,0.4c0.6,0,1.2-0.2,1.6-0.7s0.6-1,0.6-1.7L874.1,276.6L874.1,276.6z"/>
	<path class="st8" d="M879,280.7h-1.3v-11.8h1.3V280.7z"/>
</g>
<g id="Grupo_93635" transform="translate(-285.001 -1362.796)">
	<g id="Elipse_4790" transform="translate(656.627 1362.796)">
		<ellipse class="st9" cx="56.1" cy="56.7" rx="56.1" ry="56.1"/>
		<ellipse class="st4" cx="56.1" cy="56.7" rx="55.1" ry="55.1"/>
	</g>
	<g id="Elipse_4791" transform="translate(662.04 1368.211)">
		<ellipse class="st10" cx="50.7" cy="51.3" rx="50.7" ry="50.7"/>
		<ellipse class="st11" cx="50.7" cy="51.3" rx="49.2" ry="49.2"/>
	</g>
	<line id="Línea_1166" class="st4" x1="737.5" y1="1470.2" x2="756.5" y2="1517.2"/>
	<g id="Grupo_93617" transform="translate(-1987.196 2226.215)">
		<path id="Trazado_210332" class="st0" d="M2714.1-826.1c1.3,1.3,2.8,2.4,4,3.8c4.3,4.6,6.7,10.7,6.8,17c0,0.8,0.2,1.2,1.1,1.8
			h-54.3c1.4-0.6,1.2-1.8,1.2-2.8c0.4-7.7,4.2-14.9,10.5-19.4c0.1-0.1,0.2-0.1,0.3-0.2c0.1,0,0.1,0,0.2,0c0.1,0.9,0.2,1.9,0.3,2.8
			c0.3,3.5,0.6,7,0.9,10.6c0,0.2,0,0.4,0.1,0.7c0.1,0.9,0.9,1.6,1.9,1.6c0.9-0.1,1.6-0.9,1.5-1.9l0,0c-0.1-1.9-0.3-3.8-0.5-5.7
			c-0.3-3.2-0.5-6.5-0.8-9.7c-0.1-0.3,0.1-0.6,0.4-0.7c0.9-0.4,1.9-0.8,2.9-1.3c0,0.4,0.1,0.6,0.1,0.8c0.5,5.5,0.9,11.1,1.4,16.6
			c0,1,0.7,1.8,1.7,1.8c0.1,0,0.1,0,0.2,0c1-0.1,1.7-1,1.6-2v-0.1c-0.6-6.6-1.1-13.2-1.7-19.9c-0.2-1,0.4-1.9,1.3-2.1
			c0.2-0.1,0.5-0.1,0.7,0c2.1,0,4.2,0,6.3,0c1-0.2,1.9,0.5,2,1.5c0,0.2,0,0.5,0,0.7c-0.6,6.6-1.1,13.2-1.7,19.8
			c-0.2,0.8,0.2,1.6,0.9,2c0.6,0.4,1.4,0.3,1.9-0.2c0.3-0.4,0.5-0.8,0.6-1.3c0.5-5.6,1-11.1,1.4-16.7c0-0.2,0-0.4,0.1-0.8
			c1.1,0.5,2.1,1,3.1,1.4c0.1,0.1,0.2,0.4,0.2,0.5c-0.3,3.2-0.5,6.4-0.8,9.7c-0.2,1.9-0.3,3.8-0.5,5.7c-0.1,0.9,0.5,1.8,1.5,2h0.1
			c1,0.1,1.8-0.6,1.9-1.6v-0.1c0.4-4.5,0.8-9,1.1-13.4c0-0.2,0-0.3,0.1-0.5V-826.1z"/>
		<path id="Trazado_210333" class="st0" d="M2698.9-800h27.1c0.2,0,0.4,0,0.6,0c0.9,0,1.6,0.6,1.8,1.4c0.2,0.8-0.3,1.6-1.1,1.9
			c-2.5,1.1-5,2.2-7.6,3.1c-5.5,2-11.2,3.3-17,3.8c-4.1,0.3-8.2,0.1-12.2-0.6c-6.8-1.2-13.4-3.3-19.7-6.2c-0.9-0.3-1.4-1.1-1.2-2
			s1.1-1.5,2-1.4H2698.9z"/>
	</g>
</g>
<g id="Grupo_93636" transform="translate(-285.001 -1362.796)">
	<g id="Elipse_5254" transform="translate(556.341 1457.499)">
		<ellipse class="st9" cx="56.1" cy="56.7" rx="56.1" ry="56.1"/>
		<ellipse class="st4" cx="56.1" cy="56.7" rx="55.1" ry="55.1"/>
	</g>
	<g id="Elipse_5255" transform="translate(562 1463)">
		<ellipse class="st10" cx="50.7" cy="51.3" rx="50.7" ry="50.7"/>
		<ellipse class="st11" cx="50.7" cy="51.3" rx="49.2" ry="49.2"/>
	</g>
	<line id="Línea_1168" class="st4" x1="662.5" y1="1543.2" x2="692.5" y2="1565.2"/>
	<g id="Grupo_93622" transform="translate(0.314 3.669)">
		<g id="Grupo_93618" transform="translate(-2072.756 2311.488)">
			<path id="Trazado_210332-2" class="st0" d="M2692.6-830.1c0.7,0.7,1.4,1.3,2.1,2c2.2,2.4,3.5,5.6,3.5,8.8c0,0.4,0.1,0.6,0.6,0.9
				h-28.2c0.7-0.3,0.6-0.9,0.6-1.5c0.2-4,2.2-7.7,5.4-10.1c0.1,0,0.1-0.1,0.2-0.1h0.1c0,0.5,0.1,1,0.1,1.5c0.2,1.8,0.3,3.7,0.5,5.5
				c0,0.1,0,0.2,0,0.3c0,0.5,0.5,0.8,1,0.8s0.8-0.5,0.8-1l0,0c-0.1-1-0.2-2-0.2-3c-0.1-1.7-0.3-3.4-0.4-5c0-0.2,0.1-0.3,0.2-0.4
				c0.5-0.2,1-0.4,1.5-0.7c0,0.2,0,0.3,0.1,0.4c0.2,2.9,0.5,5.8,0.7,8.6c0,0.5,0.4,0.9,0.9,0.9h0.1c0.5-0.1,0.9-0.5,0.8-1
				c0,0,0,0,0-0.1c-0.3-3.4-0.6-6.9-0.9-10.3c-0.1-0.5,0.2-1,0.7-1.1c0.1,0,0.2,0,0.3,0c1.1,0,2.2,0,3.2,0c0.5-0.1,1,0.3,1.1,0.8
				c0,0.1,0,0.2,0,0.4c-0.3,3.4-0.6,6.9-0.9,10.3c-0.1,0.4,0.1,0.8,0.5,1c0.3,0.2,0.7,0.1,1-0.1c0.2-0.2,0.3-0.4,0.3-0.7
				c0.3-2.9,0.5-5.8,0.7-8.7c0-0.1,0-0.2,0-0.4c0.6,0.3,1.1,0.5,1.6,0.7c0.1,0,0.1,0.2,0.1,0.3c-0.1,1.7-0.3,3.3-0.4,5
				c-0.1,1-0.2,2-0.2,3c-0.1,0.5,0.3,0.9,0.8,1c0,0,0,0,0.1,0c0.5,0,0.9-0.3,1-0.8c0,0,0,0,0-0.1c0.2-2.3,0.4-4.7,0.6-7
				C2692.6-830.1,2692.6-830.2,2692.6-830.1L2692.6-830.1z"/>
			<path id="Trazado_210333-2" class="st0" d="M2684.7-816.6h14c0.1,0,0.2,0,0.3,0c0.4,0,0.8,0.3,0.9,0.7c0.1,0.4-0.1,0.9-0.5,1
				c-1.3,0.5-2.6,1.1-3.9,1.6c-2.8,1-5.8,1.7-8.8,2c-2.1,0.2-4.3,0.1-6.3-0.3c-3.5-0.6-7-1.7-10.2-3.2c-0.4-0.1-0.7-0.6-0.6-1
				c0.1-0.5,0.6-0.8,1-0.7L2684.7-816.6z"/>
		</g>
		<g id="Grupo_93619" transform="translate(-2072.756 2356.129)">
			<path id="Trazado_210332-3" class="st0" d="M2692.6-830.1c0.7,0.7,1.4,1.3,2.1,2c2.2,2.4,3.5,5.6,3.5,8.8c0,0.4,0.1,0.6,0.6,0.9
				h-28.2c0.7-0.3,0.6-0.9,0.6-1.5c0.2-4,2.2-7.7,5.4-10.1c0.1,0,0.1-0.1,0.2-0.1h0.1c0,0.5,0.1,1,0.1,1.5c0.2,1.8,0.3,3.7,0.5,5.5
				c0,0.1,0,0.2,0,0.3c0,0.5,0.5,0.8,1,0.8s0.8-0.5,0.8-1l0,0c-0.1-1-0.2-2-0.2-3c-0.1-1.7-0.3-3.4-0.4-5c0-0.2,0.1-0.3,0.2-0.4
				c0.5-0.2,1-0.4,1.5-0.7c0,0.2,0,0.3,0.1,0.4c0.2,2.9,0.5,5.8,0.7,8.6c0,0.5,0.4,0.9,0.9,0.9h0.1c0.5-0.1,0.9-0.5,0.8-1
				c0,0,0,0,0-0.1c-0.3-3.4-0.6-6.9-0.9-10.3c-0.1-0.5,0.2-1,0.7-1.1c0.1,0,0.2,0,0.3,0c1.1,0,2.2,0,3.2,0c0.5-0.1,1,0.3,1.1,0.8
				c0,0.1,0,0.2,0,0.4c-0.3,3.4-0.6,6.9-0.9,10.3c-0.1,0.4,0.1,0.8,0.5,1c0.3,0.2,0.7,0.1,1-0.1c0.2-0.2,0.3-0.4,0.3-0.7
				c0.3-2.9,0.5-5.8,0.7-8.7c0-0.1,0-0.2,0-0.4c0.6,0.3,1.1,0.5,1.6,0.7c0.1,0,0.1,0.2,0.1,0.3c-0.1,1.7-0.3,3.3-0.4,5
				c-0.1,1-0.2,2-0.2,3c-0.1,0.5,0.3,0.9,0.8,1c0,0,0,0,0.1,0c0.5,0,0.9-0.3,1-0.8c0,0,0,0,0-0.1c0.2-2.3,0.4-4.7,0.6-7
				C2692.6-830.1,2692.6-830.2,2692.6-830.1L2692.6-830.1z"/>
			<path id="Trazado_210333-3" class="st0" d="M2684.7-816.6h14c0.1,0,0.2,0,0.3,0c0.4,0,0.8,0.3,0.9,0.7c0.1,0.4-0.1,0.9-0.5,1
				c-1.3,0.5-2.6,1.1-3.9,1.6c-2.8,1-5.8,1.7-8.8,2c-2.1,0.2-4.3,0.1-6.3-0.3c-3.5-0.6-7-1.7-10.2-3.2c-0.4-0.1-0.7-0.6-0.6-1
				c0.1-0.5,0.6-0.8,1-0.7L2684.7-816.6z"/>
		</g>
		<g id="Grupo_93620" transform="translate(-2097.756 2332.828)">
			<path id="Trazado_210332-4" class="st0" d="M2692.6-830.1c0.7,0.7,1.4,1.3,2.1,2c2.2,2.4,3.5,5.6,3.5,8.8c0,0.4,0.1,0.6,0.6,0.9
				h-28.2c0.7-0.3,0.6-0.9,0.6-1.5c0.2-4,2.2-7.7,5.4-10.1c0.1,0,0.1-0.1,0.2-0.1h0.1c0,0.5,0.1,1,0.1,1.5c0.2,1.8,0.3,3.7,0.5,5.5
				c0,0.1,0,0.2,0,0.3c0,0.5,0.5,0.8,1,0.8s0.8-0.5,0.8-1l0,0c-0.1-1-0.2-2-0.2-3c-0.1-1.7-0.3-3.4-0.4-5c0-0.2,0.1-0.3,0.2-0.4
				c0.5-0.2,1-0.4,1.5-0.7c0,0.2,0,0.3,0.1,0.4c0.2,2.9,0.5,5.8,0.7,8.6c0,0.5,0.4,0.9,0.9,0.9h0.1c0.5-0.1,0.9-0.5,0.8-1
				c0,0,0,0,0-0.1c-0.3-3.4-0.6-6.9-0.9-10.3c-0.1-0.5,0.2-1,0.7-1.1c0.1,0,0.2,0,0.3,0c1.1,0,2.2,0,3.2,0c0.5-0.1,1,0.3,1.1,0.8
				c0,0.1,0,0.2,0,0.4c-0.3,3.4-0.6,6.9-0.9,10.3c-0.1,0.4,0.1,0.8,0.5,1c0.3,0.2,0.7,0.1,1-0.1c0.2-0.2,0.3-0.4,0.3-0.7
				c0.3-2.9,0.5-5.8,0.7-8.7c0-0.1,0-0.2,0-0.4c0.6,0.3,1.1,0.5,1.6,0.7c0.1,0,0.1,0.2,0.1,0.3c-0.1,1.7-0.3,3.3-0.4,5
				c-0.1,1-0.2,2-0.2,3c-0.1,0.5,0.3,0.9,0.8,1c0,0,0,0,0.1,0c0.5,0,0.9-0.3,1-0.8c0,0,0,0,0-0.1c0.2-2.3,0.4-4.7,0.6-7
				C2692.6-830.1,2692.6-830.2,2692.6-830.1L2692.6-830.1z"/>
			<path id="Trazado_210333-4" class="st0" d="M2684.7-816.6h14c0.1,0,0.2,0,0.3,0c0.4,0,0.8,0.3,0.9,0.7c0.1,0.4-0.1,0.9-0.5,1
				c-1.3,0.5-2.6,1.1-3.9,1.6c-2.8,1-5.8,1.7-8.8,2c-2.1,0.2-4.3,0.1-6.3-0.3c-3.5-0.6-7-1.7-10.2-3.2c-0.4-0.1-0.7-0.6-0.6-1
				c0.1-0.5,0.6-0.8,1-0.7L2684.7-816.6z"/>
		</g>
		<g id="Grupo_93621" transform="translate(-2048.028 2332.828)">
			<path id="Trazado_210332-5" class="st0" d="M2692.6-830.1c0.7,0.7,1.4,1.3,2.1,2c2.2,2.4,3.5,5.6,3.5,8.8c0,0.4,0.1,0.6,0.6,0.9
				h-28.2c0.7-0.3,0.6-0.9,0.6-1.5c0.2-4,2.2-7.7,5.4-10.1c0.1,0,0.1-0.1,0.2-0.1h0.1c0,0.5,0.1,1,0.1,1.5c0.2,1.8,0.3,3.7,0.5,5.5
				c0,0.1,0,0.2,0,0.3c0,0.5,0.5,0.8,1,0.8s0.8-0.5,0.8-1l0,0c-0.1-1-0.2-2-0.2-3c-0.1-1.7-0.3-3.4-0.4-5c0-0.2,0.1-0.3,0.2-0.4
				c0.5-0.2,1-0.4,1.5-0.7c0,0.2,0,0.3,0.1,0.4c0.2,2.9,0.5,5.8,0.7,8.6c0,0.5,0.4,0.9,0.9,0.9h0.1c0.5-0.1,0.9-0.5,0.8-1
				c0,0,0,0,0-0.1c-0.3-3.4-0.6-6.9-0.9-10.3c-0.1-0.5,0.2-1,0.7-1.1c0.1,0,0.2,0,0.3,0c1.1,0,2.2,0,3.2,0c0.5-0.1,1,0.3,1.1,0.8
				c0,0.1,0,0.2,0,0.4c-0.3,3.4-0.6,6.9-0.9,10.3c-0.1,0.4,0.1,0.8,0.5,1c0.3,0.2,0.7,0.1,1-0.1c0.2-0.2,0.3-0.4,0.3-0.7
				c0.3-2.9,0.5-5.8,0.7-8.7c0-0.1,0-0.2,0-0.4c0.6,0.3,1.1,0.5,1.6,0.7c0.1,0,0.1,0.2,0.1,0.3c-0.1,1.7-0.3,3.3-0.4,5
				c-0.1,1-0.2,2-0.2,3c-0.1,0.5,0.3,0.9,0.8,1c0,0,0,0,0.1,0c0.5,0,0.9-0.3,1-0.8c0,0,0,0,0-0.1c0.2-2.3,0.4-4.7,0.6-7
				C2692.6-830.1,2692.6-830.2,2692.6-830.1L2692.6-830.1z"/>
			<path id="Trazado_210333-5" class="st0" d="M2684.7-816.6h14c0.1,0,0.2,0,0.3,0c0.4,0,0.8,0.3,0.9,0.7c0.1,0.4-0.1,0.9-0.5,1
				c-1.3,0.5-2.6,1.1-3.9,1.6c-2.8,1-5.8,1.7-8.8,2c-2.1,0.2-4.3,0.1-6.3-0.3c-3.5-0.6-7-1.7-10.2-3.2c-0.4-0.1-0.7-0.6-0.6-1
				c0.1-0.5,0.6-0.8,1-0.7L2684.7-816.6z"/>
		</g>
	</g>
</g>
<g id="Grupo_93637" transform="translate(-285.001 -1362.796)">
	<g id="Elipse_5260" transform="translate(520.526 1579.823)">
		<ellipse class="st9" cx="56.1" cy="56.7" rx="56.1" ry="56.1"/>
		<ellipse class="st4" cx="56.1" cy="56.7" rx="55.1" ry="55.1"/>
	</g>
	<g id="Elipse_5261" transform="translate(525.941 1585.237)">
		<ellipse class="st10" cx="50.7" cy="51.3" rx="50.7" ry="50.7"/>
		<ellipse class="st11" cx="50.7" cy="51.3" rx="49.2" ry="49.2"/>
	</g>
	<line id="Línea_1171" class="st4" x1="632.5" y1="1636.2" x2="671.5" y2="1636.2"/>
	<g id="Grupo_93623" transform="translate(-1145.666 2250.111)">
		<path id="Trazado_210334" class="st0" d="M1718.7-593c-7.6,0-15.2,0-22.8,0c-0.7,0.1-1.4-0.3-1.8-0.9c-0.4-0.7-0.4-1.6,0.1-2.2
			c2.6-4.1,5.2-8.3,7.8-12.4c1.9-3,3.7-5.9,5.6-8.9c0.4-0.8,1.3-1.2,2.1-1.2c14,0,27.9,0,41.9,0c1.7-0.1,3.2,0.7,4,2.2
			s0.7,3.3-0.3,4.6c-3.9,5.9-7.8,11.8-11.7,17.6c-0.4,0.7-1.2,1.1-2.1,1.1C1733.9-593,1726.3-593,1718.7-593z"/>
		<path id="Trazado_210335" class="st0" d="M1693.8-602.5v-0.7c0-10.6,0-21.3,0-31.9c0-3.4,2-5.4,5.4-5.4c4.2,0,8.4,0,12.5,0
			c2.7-0.2,5,1.8,5.2,4.5c0,0.2,0,0.5,0,0.7c0,0.7,0,1.3,0,2.1h0.9c6.9,0,13.8,0,20.7,0c1.8-0.1,3.5,0.8,4.4,2.3
			c0.4,0.6,0.6,1.2,0.7,1.9c0.1,2.2,0,4.5,0,6.7h-3.6c0-0.6,0-1.1,0-1.7c0.1-3-2.2-5.5-5.2-5.6c-0.1,0-0.2,0-0.3,0
			c-10.5,0-21,0-31.5,0c-3-0.1-5.5,2.3-5.6,5.3c0,0.1,0,0.2,0,0.4c0,5,0,10.1,0,15.1c0,0.4-0.1,0.8-0.3,1.2c-1,1.7-2.1,3.4-3.1,5.1
			L1693.8-602.5z"/>
		<path id="Trazado_210336" class="st0" d="M1736.4-622.2h-0.8c-8.6,0-17.2,0-25.8,0c-2.2-0.1-4.3,1-5.3,3c-1,1.7-2.1,3.4-3.2,5.2
			c0-0.3-0.1-0.5-0.1-0.6c0-3,0-6.1,0-9.1c-0.1-1,0.6-1.9,1.6-2c0.1,0,0.3,0,0.4,0c10.4,0,20.9,0,31.3,0c1-0.1,1.9,0.6,2,1.6
			c0,0.1,0,0.2,0,0.3C1736.4-623.4,1736.4-622.9,1736.4-622.2z"/>
	</g>
</g>
<g id="Grupo_93638" transform="translate(-285.001 -1362.796)">
	<g id="Elipse_5258" transform="translate(556.341 1703.249)">
		<ellipse class="st9" cx="56.1" cy="56.7" rx="56.1" ry="56.1"/>
		<ellipse class="st4" cx="56.1" cy="56.7" rx="55.1" ry="55.1"/>
	</g>
	<g id="Elipse_5259" transform="translate(561.756 1708.663)">
		<ellipse class="st10" cx="50.7" cy="51.3" rx="50.7" ry="50.7"/>
		<ellipse class="st11" cx="50.7" cy="51.3" rx="49.2" ry="49.2"/>
	</g>
	<line id="Línea_1170" class="st4" x1="662.5" y1="1736.3" x2="692.5" y2="1715.2"/>
	<g id="Grupo_93624" transform="translate(-1633.516 2240.652)">
		<path id="Trazado_210337" class="st0" d="M2261.9-478.2c0-6.2,0-12.4,0-18.6c0-1.6,0.5-2.1,2.1-2.1c2.3,0,4.7,0,7,0
			c1.5,0,2.1,0.6,2.1,2c0,12.4,0,24.8,0,37.3c0,1.6-0.6,2.1-2.1,2.1c-2.3,0-4.7,0-7,0c-1.4,0-2-0.6-2-2
			C2261.9-465.7,2261.9-472,2261.9-478.2z"/>
		<path id="Trazado_210338" class="st0" d="M2238.1-495.8c1.4,0,2.8,0.7,3.6,1.9c0.2,0.3,0.5,0.4,0.9,0.3c1.7-0.4,3.4-0.7,5.2-1.1
			c0.4,0,0.7-0.3,0.7-0.7c0.6-2.5,3.1-4,5.6-3.4c0.2,0.1,0.5,0.1,0.7,0.2c0.3,0.2,0.7,0.1,0.9-0.1c2.2-2,4.5-4,6.7-6
			c0.3-0.2,0.4-0.6,0.3-0.9c-0.7-2.3,0.6-4.8,2.8-5.7c2.4-0.9,5,0.2,6.1,2.5c1,2.2,0.1,4.8-2,6c-1.3,0.8-2.9,0.9-4.3,0.2
			c-0.2-0.1-0.5,0-0.7,0.1c-2.3,2-4.7,4.1-7,6.2c-0.2,0.2-0.2,0.4-0.2,0.7c0.7,2.3-0.4,4.7-2.5,5.7c-2,1-4.5,0.4-5.8-1.4
			c-0.2-0.2-0.4-0.3-0.7-0.3c-1.8,0.3-3.6,0.7-5.4,1.1c-0.3,0-0.5,0.3-0.6,0.6c-0.6,2.5-3.1,4.1-5.6,3.5c-0.4-0.1-0.9-0.3-1.3-0.5
			c-0.3-0.2-0.7-0.2-0.9,0c-1.8,1.3-3.5,2.5-5.3,3.7c-0.3,0.2-0.4,0.5-0.3,0.8c0.4,1.8-0.4,3.7-2,4.7c-1.5,1.1-3.4,1.2-5,0.2
			c-1.6-0.8-2.6-2.6-2.4-4.4c0.1-2.6,2.3-4.6,5-4.5c0.8,0,1.5,0.3,2.1,0.6c0.2,0.1,0.5,0.1,0.7,0c1.9-1.3,3.7-2.6,5.6-3.9
			c0.2-0.2,0.2-0.4,0.2-0.6c-0.5-2.6,1.2-5.1,3.9-5.6C2237.5-495.8,2237.8-495.8,2238.1-495.8z"/>
		<path id="Trazado_210339" class="st0" d="M2258.6-471.8c0,4.1,0,8.2,0,12.3c0,1.4-0.6,2-2,2c-2.4,0-4.8,0-7.2,0
			c-1.3,0-1.9-0.6-1.9-1.9c0-8.3,0-16.6,0-24.9c0-1.3,0.6-1.9,1.9-1.9c2.5,0,4.9,0,7.4,0c0.9-0.1,1.7,0.4,1.8,1.3c0,0.2,0,0.4,0,0.5
			C2258.6-480.2,2258.6-476,2258.6-471.8z"/>
		<path id="Trazado_210340" class="st0" d="M2233.2-470.3c0-3.6,0-7.1,0-10.7c0-1.4,0.6-2,2-2c2.4,0,4.8,0,7.2,0
			c1.3,0,1.9,0.6,1.9,1.9c0,7.2,0,14.4,0,21.5c0,1.5-0.6,2-2,2c-2.4,0-4.7,0-7.1,0c-1.4,0-2-0.6-2-2
			C2233.2-463.1,2233.2-466.7,2233.2-470.3z"/>
		<path id="Trazado_210341" class="st0" d="M2230-465.4c0,2,0,4,0,6.1c0.1,0.9-0.5,1.7-1.4,1.9c-0.1,0-0.3,0-0.4,0
			c-2.5,0-4.9,0-7.4,0c-0.9,0.1-1.7-0.5-1.9-1.4c0-0.2,0-0.3,0-0.5c0-4.1,0-8.2,0-12.3c-0.1-0.9,0.5-1.7,1.4-1.8c0.1,0,0.3,0,0.4,0
			c2.5,0,5,0,7.5,0c0.9-0.1,1.7,0.5,1.8,1.4c0,0.2,0,0.3,0,0.5C2230-469.6,2230-467.5,2230-465.4z"/>
	</g>
</g>
<g id="Grupo_93639" transform="translate(-285.001 -1362.796)">
	<g id="Elipse_5256" transform="translate(656.627 1800.296)">
		<ellipse class="st9" cx="56.1" cy="56.7" rx="56.1" ry="56.1"/>
		<ellipse class="st4" cx="56.1" cy="56.7" rx="55.1" ry="55.1"/>
	</g>
	<g id="Elipse_5257" transform="translate(662.04 1805.71)">
		<ellipse class="st10" cx="50.7" cy="51.3" rx="50.7" ry="50.7"/>
		<ellipse class="st11" cx="50.7" cy="51.3" rx="49.2" ry="49.2"/>
	</g>
	<line id="Línea_1169" class="st4" x1="737.5" y1="1806.4" x2="756.5" y2="1769.2"/>
	<g id="Grupo_93625" transform="translate(-2563.744 2402.963)">
		<path id="Trazado_210342" class="st0" d="M3267.4-551.8h13c2-0.1,3.9,1,4.7,2.8c0.3,0.7,0.5,1.5,0.5,2.3c0,6.5,0,13,0,19.5
			c0.1,2.7-2,5.1-4.7,5.2c-0.1,0-0.3,0-0.4,0c-8.7,0-17.4,0-26.1,0c-2.8,0.1-5.1-2-5.2-4.8c0-0.1,0-0.3,0-0.4c0-6.5,0-12.9,0-19.4
			c-0.1-2.7,2-5.1,4.7-5.2c0.2,0,0.4,0,0.5,0C3258.7-551.8,3263-551.8,3267.4-551.8z M3265.7-532.7c0,0.8,0,1.6,0,2.4
			c0,0.4,0.2,0.8,0.4,1.2c0.4,0.5,1.1,0.7,1.8,0.4s1.1-0.9,1.1-1.7c0-1.5,0-3,0-4.5c-0.1-0.4,0.2-0.8,0.6-1c2.3-1.1,3.3-3.8,2.4-6.2
			c-0.9-2.3-3.3-3.6-5.7-3.1c-2,0.5-3.5,2.1-3.8,4.2c-0.3,2.2,0.8,4.3,2.8,5.2c0.3,0.1,0.5,0.4,0.5,0.8
			C3265.7-534.2,3265.7-533.4,3265.7-532.7L3265.7-532.7z"/>
		<path id="Trazado_210343" class="st0" d="M3280.6-555.1h-6.6c0-0.2,0-0.5,0-0.7c0-2.1,0-4.2,0-6.2c-0.1-3.1-2.4-5.8-5.5-6.3
			c-3.2-0.6-6.3,1.3-7.4,4.3c-0.3,0.8-0.4,1.6-0.4,2.5c-0.1,1.9,0,3.8,0,5.7v0.7h-6.6c0-0.1-0.1-0.1-0.1-0.2c0-2.5-0.1-5,0.1-7.5
			c0.5-7.3,6.8-12.8,14.1-12.3c1.9,0.1,3.7,0.7,5.3,1.5c4.2,2.1,6.8,6.3,7,10.9c0.2,2.4,0,4.8,0.1,7.2
			C3280.6-555.3,3280.6-555.2,3280.6-555.1z"/>
		<path id="Trazado_210344" class="st0" d="M3289-528.5v-3.3h2c1,0,2,0,2.9,0c0.6,0,1.2,0.3,1.6,0.8c0.8,1,1.6,1.9,2.4,2.8
			c0.1,0.3,0.4,0.4,0.7,0.2l0,0c2.4-1.2,5.4-0.1,6.6,2.3c0,0.1,0,0.1,0.1,0.2c1.1,2.5,0,5.5-2.6,6.6c-1.6,0.8-3.6,0.6-5-0.6
			c-1.6-1.2-2.3-3.2-1.8-5.1c0.1-0.4,0-0.9-0.3-1.2c-0.7-0.8-1.3-1.6-2-2.3c-0.2-0.2-0.5-0.4-0.8-0.4
			C3291.6-528.6,3290.3-528.5,3289-528.5z"/>
		<path id="Trazado_210345" class="st0" d="M3289-541.8v-3.3c1.3,0,2.7,0,4,0c0.3,0,0.7-0.2,0.9-0.4c0.7-0.6,1.4-1.4,2.1-2
			c0.2-0.2,0.3-0.5,0.2-0.8c-0.8-1.8-0.3-4,1.1-5.3c1.4-1.5,3.5-1.9,5.3-1.1c1.9,0.7,3.1,2.5,3.1,4.5c0.1,2.7-2.1,5-4.8,5.1
			c-0.6,0-1.1-0.1-1.6-0.2c-0.3-0.2-0.7-0.1-1,0.2c-0.9,0.9-1.9,1.8-2.8,2.7c-0.4,0.5-1.1,0.7-1.7,0.7
			C3292.2-541.8,3290.6-541.8,3289-541.8z"/>
		<path id="Trazado_210346" class="st0" d="M3289-535.2v-3.3h0.7c2,0,4,0,5.9,0c0.3,0,0.6-0.1,0.7-0.4c0.9-2.1,3.2-3.3,5.5-2.8
			c2.2,0.5,3.8,2.4,4,4.6c0.1,2.4-1.5,4.5-3.8,5.1s-4.6-0.5-5.6-2.6c-0.1-0.4-0.5-0.6-0.9-0.6c-1.9,0-3.8,0-5.8,0H3289z"/>
		<path id="Trazado_210347" class="st0" d="M3269-540.1c0,0.9-0.8,1.6-1.7,1.6s-1.6-0.7-1.6-1.6l0,0c0-0.9,0.7-1.7,1.6-1.7l0,0
			C3268.3-541.8,3269-541.1,3269-540.1z"/>
	</g>
</g>
<g id="Grupo_93634" transform="translate(-285.001 -1362.796)">
	<g id="Elipse_5270" transform="translate(831.214 1362.796)">
		<ellipse class="st9" cx="56.1" cy="56.8" rx="56.1" ry="56.1"/>
		<ellipse class="st4" cx="56.1" cy="56.8" rx="55.1" ry="55.1"/>
	</g>
	<g id="Elipse_5275" transform="translate(836.63 1368.211)">
		<ellipse class="st10" cx="50.7" cy="51.3" rx="50.7" ry="50.7"/>
		<ellipse class="st11" cx="50.7" cy="51.3" rx="49.2" ry="49.2"/>
	</g>
	<line id="Línea_1176" class="st4" x1="862.5" y1="1470.2" x2="843.5" y2="1517.2"/>
	<g id="Grupo_93626" transform="translate(-2959.79 1814.68)">
		<path id="Trazado_210348" class="st0" d="M3856.6-406.8h0.7c4.6,0,9.2,0,13.8,0c1.7-0.1,3.3,0.5,4.6,1.7c2.3,2,2.6,5.4,0.8,7.9
			c-0.1,0.2-0.2,0.3-0.3,0.5c2.1,2.2,2,5.6-0.1,7.7c-0.3,0.3-0.7,0.6-1.1,0.8c0.2,1,0.3,2,0.3,3c-0.1,1.7-1,3.2-2.5,4
			c-0.2,0.1-0.4,0.3-0.3,0.6v0.1c1.1,2.8-0.3,5.9-3,7c-0.7,0.3-1.4,0.4-2.1,0.4c-4.3,0-8.6,0-12.9,0c-3,0-6,0-9,0
			c-1.9,0-3.9-0.4-5.7-1.2c-0.4-0.1-0.6-0.4-0.5-0.8c0-8.2,0-16.4,0-24.6c0.1-0.4,0.2-0.8,0.4-1.1c0.5-1.1,1-2.3,1.6-3.4
			c1.7-3.6,3.3-7.2,4.9-10.7c0.1-0.3,0.2-0.7,0.2-1c0-2.4,0-4.8,0-7.3c0-0.6,0.3-1.2,0.8-1.5c1-0.6,2-1,3.1-1.2
			c1.3-0.2,2.6,0.2,3.5,1c3.2,2.3,4.9,6.1,4.4,10c-0.3,2.5-0.8,4.9-1.6,7.3c-0.1,0.2-0.1,0.4-0.2,0.6
			C3856.6-406.9,3856.6-406.9,3856.6-406.8z"/>
		<path id="Trazado_210349" class="st0" d="M3836.8-401.9v0.7c0,9.5,0,19,0,28.6c0.1,0.5-0.2,0.9-0.6,1.1c-0.9,0.5-1.9,0.8-2.9,0.8
			c-2.4,0-4.8,0-7.3,0c-3.3,0-6-2.7-6-6v-0.1c0-6.4,0-12.7,0-19.1c-0.1-3.3,2.6-6,5.9-6.1c0.1,0,0.1,0,0.2,0c3.4,0,6.8,0,10.3,0
			C3836.4-402,3836.5-402,3836.8-401.9z"/>
	</g>
</g>
<g id="Grupo_93633" transform="translate(-285.001 -1362.796)">
	<g id="Elipse_5271" transform="translate(931.5 1457.499)">
		<ellipse class="st9" cx="56.1" cy="56.8" rx="56.1" ry="56.1"/>
		<ellipse class="st4" cx="56.1" cy="56.8" rx="55.1" ry="55.1"/>
	</g>
	<g id="Elipse_5273" transform="translate(936.913 1462.913)">
		<ellipse class="st10" cx="50.7" cy="51.3" rx="50.7" ry="50.7"/>
		<ellipse class="st11" cx="50.7" cy="51.3" rx="49.2" ry="49.2"/>
	</g>
	<line id="Línea_1172" class="st4" x1="937.5" y1="1543.2" x2="907.5" y2="1565.2"/>
	<path id="Trazado_210350" class="st0" d="M973.8,1503.1c2.2,5,3.9,10,4.1,15.7c-1.2-0.1-2.4-0.1-3.6-0.3c-4.3-0.8-7.4-3.3-9.8-6.8
		c-2.6-3.9-4.4-8.2-5.3-12.8c-0.7-3.2-1.1-6.5-1.6-9.8c0-0.4,0-0.8,0-1.2c1.5,0.1,2.9,0.3,4.4,0.4c4.4,0.5,8.6,1.5,12.7,3.1
		c3.6,1.3,6.8,3.4,9.4,6.3c2.5,2.8,3.8,6.5,3.6,10.3c-0.1,1.8-0.5,3.6-0.8,5.4c-0.1,0.3,0,0.7,0.1,1c1.8,3,3.2,6.2,4.1,9.6
		c0,0.1,0.1,0.3,0.2,0.5c0.4-0.6,0.6-1.1,1-1.5c0.9-1.1,1.8-2.2,2.7-3.3c0.3-0.3,0.4-0.7,0.3-1.1c-0.5-2-0.6-4-0.2-6
		c0.6-3,2.4-5.7,5-7.5c3.3-2.4,7.1-4,11.1-4.7c2.4-0.5,4.9-0.8,7.4-1.2c0.3,0,0.6,0,1-0.1c-0.1,0.8-0.1,1.6-0.2,2.4
		c-0.4,4.1-1.3,8.1-2.9,11.9c-1.2,3.1-3.2,5.8-5.8,7.8c-2.2,1.6-5,2.3-7.7,2.1c0.5-4.8,2.9-8.5,5.6-12.2c-0.6,0.5-1.1,0.9-1.7,1.4
		c-3.8,3.5-6.9,7.7-9.3,12.2c-1,1.8-1.9,3.5-2.7,5.4c-1.3,3-1.8,6.3-1.3,9.5c0.2,2.6,0.3,5.2,0.3,7.8c0,1.1-0.7,2.1-1.8,2.5
		c-1,0.4-2.2,0.2-2.9-0.6c-0.6-0.6-0.9-1.4-0.9-2.3c-0.1-2.6-0.1-5.3-0.3-7.9c-0.2-5.7-1.3-11.3-3.2-16.6c-1.9-5-4.4-9.8-7.3-14.3
		c-1.1-1.8-2.3-3.5-3.5-5.2L973.8,1503.1z"/>
</g>
<g id="Grupo_93632" transform="translate(-285.001 -1362.796)">
	<g id="Elipse_5272" transform="translate(967.314 1579.823)">
		<ellipse class="st9" cx="56.1" cy="56.8" rx="56.1" ry="56.1"/>
		<ellipse class="st4" cx="56.1" cy="56.8" rx="55.1" ry="55.1"/>
	</g>
	<g id="Elipse_5274" transform="translate(972.728 1585.237)">
		<ellipse class="st10" cx="50.7" cy="51.3" rx="50.7" ry="50.7"/>
		<ellipse class="st11" cx="50.7" cy="51.3" rx="49.2" ry="49.2"/>
	</g>
	<line id="Línea_1173" class="st4" x1="967.5" y1="1636.2" x2="928.5" y2="1636.2"/>
	<g id="Grupo_93627" transform="translate(-3717.96 2522.793)">
		<path id="Trazado_210351" class="st0" d="M4715.6-896.4c0.2-6.6,7.4-16.9,13.6-19.2c0.1,0.2,0.2,0.5,0.4,0.7
			c1.9,4.3,3.9,8.7,5.8,13c0.2,0.7,0.8,1.2,1.5,1.4s1.5,0,2-0.6s0.7-1.5,0.3-2.2c-1.1-2.4-2.2-4.9-3.3-7.3c-1.2-2.6-2.3-5.2-3.5-7.8
			c-0.8-1.8-0.2-2.9,1.7-3.3c4.9-1.2,10-1.2,14.9,0.1c1.6,0.4,2.2,1.6,1.5,3.2c-2.2,5-4.5,10.1-6.7,15.1c-0.5,0.9-0.3,2.1,0.6,2.7
			c0.9,0.6,2.2,0.4,2.8-0.5c0.1-0.1,0.2-0.3,0.2-0.5c1.3-2.8,2.6-5.7,3.8-8.6c0.8-1.8,1.6-3.5,2.4-5.3c5.5,1.3,13.4,12.4,13.6,19.2
			L4715.6-896.4z"/>
		<path id="Trazado_210352" class="st0" d="M4730.4-860.8c-0.5,0.5-1.1,1.2-1.7,1.8c-0.7,0.9-2,1-2.9,0.3c-0.1-0.1-0.2-0.2-0.3-0.3
			c-1.8-1.8-3.6-3.6-5.4-5.4c-0.9-0.7-1-2-0.3-2.8c0.1-0.1,0.2-0.2,0.3-0.3c0.5-0.5,1-1,1.5-1.5c0.3-0.2,0.4-0.6,0.2-0.9
			c-0.6-1.2-1.1-2.5-1.6-3.8c-0.2-0.4-0.3-0.6-0.8-0.5c-0.8,0-1.6,0-2.4,0c-1,0-1.8-0.8-1.9-1.8c-0.1-1.8,0-3.6,0-5.5
			c0.7,0.1,1.3,0.3,2,0.4c3.2,0.6,6.3,1.2,9.5,1.7c0.5,0.1,0.7,0.2,0.8,0.8c0.8,7.1,6.8,12.4,13.9,12.5c7.1,0,13.2-5.3,14-12.4
			c0.1-0.4,0.1-0.7,0.7-0.8c3.8-0.7,7.5-1.4,11.3-2.1c0.1,0,0.2,0,0.3,0c0,1.9,0.1,3.8,0,5.7c-0.1,1-0.9,1.7-1.9,1.6
			c-0.8,0-1.5,0-2.3,0c-0.4-0.1-0.7,0.2-0.8,0.6c-0.5,1.3-1,2.5-1.6,3.8c-0.2,0.3-0.1,0.6,0.1,0.8c0.6,0.5,1.1,1.1,1.7,1.7
			c0.8,0.7,0.8,2,0.1,2.8c0,0,0,0-0.1,0.1c-1.9,1.9-3.8,3.8-5.7,5.7c-0.8,0.8-2,0.8-2.8,0.1l-0.1-0.1c-0.6-0.5-1.1-1.1-1.6-1.6
			c-0.2-0.3-0.6-0.4-0.9-0.2c-1.3,0.6-2.5,1.1-3.8,1.6c-0.3,0.1-0.6,0.4-0.5,0.7c0,0.8,0,1.5,0,2.3c0.1,1.1-0.7,2.1-1.9,2.2
			c-0.1,0-0.2,0-0.3,0c-2.6,0-5.2,0-7.8,0c-1.1,0.1-2-0.8-2.1-1.9c0-0.1,0-0.2,0-0.2c0-0.8,0-1.6,0-2.4c0-0.2-0.2-0.4-0.4-0.6
			C4733.5-859.6,4732-860.1,4730.4-860.8z"/>
		<path id="Trazado_210353" class="st0" d="M4741.3-892.3h27.7c1.9,0,2.6,0.7,2.6,2.5c0,0.4,0,0.8,0,1.1c0.2,1.1-0.6,2.2-1.8,2.4
			c0,0,0,0-0.1,0c-6.1,1.6-12.2,2.8-18.5,3.5c-11.5,1.3-22.8,0.1-34-2.4c-1.5-0.3-3-0.7-4.4-1.1c-1.1-0.1-1.9-1.2-1.8-2.3l0,0
			c0-0.6,0-1.2,0-1.8c0-1.1,0.9-1.9,1.9-1.9c0.3,0,0.5,0,0.8,0H4741.3z"/>
	</g>
</g>
<g id="Grupo_93631" transform="translate(-285.001 -1362.796)">
	<g id="Elipse_5277" transform="translate(931.5 1703.249)">
		<ellipse class="st9" cx="56.1" cy="56.8" rx="56.1" ry="56.1"/>
		<ellipse class="st4" cx="56.1" cy="56.8" rx="55.1" ry="55.1"/>
	</g>
	<g id="Elipse_5278" transform="translate(936.913 1708.663)">
		<ellipse class="st10" cx="50.7" cy="51.3" rx="50.7" ry="50.7"/>
		<ellipse class="st11" cx="50.7" cy="51.3" rx="49.2" ry="49.2"/>
	</g>
	<line id="Línea_1174" class="st4" x1="937.5" y1="1736.3" x2="907.5" y2="1715.2"/>
	<g id="Grupo_93628" transform="translate(-4386.12 2899.463)">
		<path id="Trazado_210354" class="st0" d="M5353-1148.6v-2.8c0-4.5,0-9,0-13.5c-0.2-3.6,2.5-6.6,6.1-6.8c0.2,0,0.5,0,0.7,0
			c5.3,0,10.5,0,15.8,0c3.5-0.2,6.6,2.5,6.7,6.1c0,0.2,0,0.4,0,0.6c0,11.9,0,23.8,0,35.8c0,0.1,0,0.2,0,0.4c0,0.9-0.8,1.7-1.7,1.7
			c-0.9,0-1.7-0.7-1.8-1.7c0-0.2,0-0.5,0-0.7c0-11.8,0-23.5,0-35.3c0-2.3-1.1-3.4-3.4-3.4c-5.2,0-10.4,0-15.6,0
			c-1.6-0.2-3.1,1-3.3,2.7c0,0.2,0,0.4,0,0.6c0,5.3,0,10.5,0,15.8v0.7c0.6-0.6,1.1-1.1,1.6-1.6c0.4-0.5,1.1-0.7,1.8-0.5
			c0.9,0.2,1.5,1.1,1.3,2c-0.1,0.3-0.2,0.6-0.4,0.8c-1.6,1.7-3.2,3.3-4.9,4.9c-0.6,0.6-1.7,0.6-2.3,0c-1.6-1.6-3.2-3.2-4.8-4.8
			c-0.6-0.7-0.6-1.7,0-2.4c0.7-0.7,1.7-0.7,2.4-0.1c0.6,0.5,1,1.1,1.6,1.7L5353-1148.6z"/>
		<path id="Trazado_210355" class="st0" d="M5347.9-1123.3c1,1.2,2.2,2.1,3.7,2.7c3.4,1.4,7.4,0.5,9.8-2.3c0.4-0.4,0.6-0.4,1-0.1
			c2.3,1.6,3.6,4.3,3.6,7.1c0,0.8,0,1.5,0,2.3c0.1,1-0.7,1.8-1.6,1.9c-0.1,0-0.1,0-0.2,0c-6.2,0-12.4,0-18.6,0
			c-0.9,0.1-1.7-0.6-1.8-1.6l0,0c-0.1-1.5,0-3.1,0.3-4.6C5344.4-1120.1,5345.8-1122.1,5347.9-1123.3z"/>
		<path id="Trazado_210356" class="st0" d="M5385.5-1123.2c0.7,0.6,1.4,1.2,2.1,1.8c3.6,2.5,8.5,1.9,11.4-1.3
			c0.4-0.4,0.6-0.5,1.1-0.1c2.3,1.7,3.6,4.3,3.6,7.1c0,0.8,0,1.5,0,2.3c0,1-0.7,1.8-1.7,1.8h-0.1c-6.2,0-12.4,0-18.6,0
			c-0.9,0.1-1.7-0.6-1.8-1.5c-0.2-2,0-4,0.6-5.9c0.7-1.6,1.8-3,3.2-3.9C5385.3-1123.1,5385.4-1123.2,5385.5-1123.2z"/>
		<path id="Trazado_210357" class="st0" d="M5375.3-1162.3v3.5h-2.2c-0.5,0-1,0-1.6,0c-1.6-0.1-3,1.2-3,2.8c0,0.1,0,0.2,0,0.2
			c0,6.2,0,12.3,0,18.5c0,2.7,0,5.5,0,8.2c0.1,1-0.7,1.8-1.6,1.9c-0.1,0-0.3,0-0.4,0c-0.8-0.1-1.5-0.8-1.5-1.7c0-9.1,0-18.3,0-27.4
			c0.1-3.2,2.7-5.8,6-6C5372.4-1162.4,5373.8-1162.3,5375.3-1162.3z"/>
		<path id="Trazado_210358" class="st0" d="M5394.5-1148.5c0.5-0.5,0.9-1,1.4-1.5c0.7-0.7,1.8-0.8,2.5-0.1l0,0
			c0.7,0.7,0.7,1.8,0,2.5c0,0,0,0-0.1,0.1c-1.5,1.5-3,3-4.5,4.5c-0.6,0.7-1.7,0.8-2.5,0.2c-0.1-0.1-0.2-0.1-0.2-0.2
			c-1.5-1.5-3-3-4.5-4.5c-0.7-0.6-0.8-1.7-0.2-2.5l0.1-0.1c0.7-0.7,1.8-0.7,2.5,0l0.1,0.1c0.5,0.5,0.9,1,1.5,1.6
			c0-0.4,0.1-0.5,0.1-0.7c0-2.2,0-4.4,0-6.6c0.1-1.6-1.1-3.1-2.8-3.2c-0.1,0-0.3,0-0.4,0c-0.6,0-1.1,0-1.7,0v-3.5
			c2.8-0.3,5.3,0.2,7.1,2.6c0.8,1.1,1.3,2.4,1.3,3.8c0,2.2,0,4.5,0,6.8c0,0.2,0,0.4,0,0.6L5394.5-1148.5z"/>
		<path id="Trazado_210359" class="st0" d="M5354.8-1123.4c-2.9,0-5.2-2.3-5.3-5.2c0,0,0,0,0-0.1c0-2.9,2.4-5.2,5.3-5.2l0,0
			c2.9,0,5.2,2.3,5.3,5.2l0,0C5360.1-1125.8,5357.8-1123.5,5354.8-1123.4C5354.9-1123.4,5354.8-1123.4,5354.8-1123.4z"/>
		<path id="Trazado_210360" class="st0" d="M5387.3-1128.7c0-2.9,2.3-5.3,5.2-5.3h0.1c2.9,0,5.2,2.4,5.2,5.3l0,0
			c0,2.9-2.3,5.3-5.2,5.3c0,0,0,0-0.1,0C5389.6-1123.4,5387.3-1125.8,5387.3-1128.7L5387.3-1128.7z"/>
	</g>
</g>
<g id="Grupo_93630" transform="translate(-285.001 -1362.796)">
	<g id="Elipse_5279" transform="translate(831.214 1800.296)">
		<ellipse class="st9" cx="56.1" cy="56.8" rx="56.1" ry="56.1"/>
		<ellipse class="st4" cx="56.1" cy="56.8" rx="55.1" ry="55.1"/>
	</g>
	<g id="Elipse_5280" transform="translate(836.63 1805.71)">
		<ellipse class="st10" cx="50.7" cy="51.3" rx="50.7" ry="50.7"/>
		<ellipse class="st11" cx="50.7" cy="51.3" rx="49.2" ry="49.2"/>
	</g>
	<line id="Línea_1175" class="st4" x1="862.5" y1="1806.4" x2="843.5" y2="1769.2"/>
	<g id="Grupo_93629" transform="translate(-3917.834 3332.861)">
		<path id="Trazado_210361" class="st0" d="M4806.2-1469.7l-2.6,2.8c-0.2-0.2-0.4-0.3-0.5-0.5c-6.7-6.7-13.4-13.4-20-20
			c-2.9-2.9-3.8-6.6-3.4-10.6c0.2-2.1,0.8-4.2,1.6-6.2c0.1-0.3,0.3-0.4,0.6-0.4c1.1-0.1,2.1,0.3,2.8,1.1
			c15.9,16,31.8,31.9,47.7,47.8c2.1,1.8,2.3,4.9,0.5,7.1s-5,2.4-7.2,0.6c-0.2-0.2-0.4-0.3-0.5-0.5c-5.4-6-10.8-12-16.1-18
			C4808.1-1467.6,4807.2-1468.6,4806.2-1469.7z"/>
		<path id="Trazado_210362" class="st0" d="M4821.9-1504.5l2.3,2.3l-9.1,9l2.4,2.4l9-9l2.4,2.4l-9,9l2.4,2.4l9-9.1l2.4,2.5
			c-0.1,0.1-0.1,0.2-0.2,0.2c-3.8,3.8-7.7,7.7-11.5,11.5c-1.4,1.4-3.3,2.3-5.3,2.5c-0.4,0-0.7,0.1-1.1,0.2c-0.6,0.3-1,0-1.4-0.4
			c-2.2-2.3-4.5-4.5-6.7-6.7c-0.3-0.2-0.4-0.6-0.2-0.9c0.1-0.4,0.2-0.9,0.2-1.4c0.2-1.9,1-3.7,2.4-5.1c3.9-3.9,7.8-7.9,11.8-11.8
			C4821.8-1504.4,4821.9-1504.4,4821.9-1504.5z"/>
		<path id="Trazado_210363" class="st0" d="M4793.9-1471.6l7.1,7.2c-0.1,0.1-0.2,0.3-0.4,0.4c-5.2,5.2-10.3,10.3-15.5,15.5
			c-1.9,2-5,2.2-7.1,0.5c-2-1.7-2.3-4.8-0.7-6.9c1-1.2,2.1-2.2,3.2-3.3c4.3-4.3,8.6-8.7,13-13
			C4793.6-1471.4,4793.8-1471.5,4793.9-1471.6z"/>
	</g>
</g>
</svg>
